<svg id="Grupo_8146" data-name="Grupo 8146" xmlns="http://www.w3.org/2000/svg" width="130.008" height="37.793" viewBox="0 0 130.008 37.793">
  <g id="Grupo_8141" data-name="Grupo 8141" transform="translate(0)">
    <path id="Caminho_8914" data-name="Caminho 8914" d="M2901.935-1062.227a15.484,15.484,0,0,1-6.911-1.467,10.749,10.749,0,0,1-4.649-4.326,13.449,13.449,0,0,1-1.666-6.886,12.975,12.975,0,0,1,1.716-6.762,11.472,11.472,0,0,1,4.723-4.426,14.9,14.9,0,0,1,6.887-1.541,15.216,15.216,0,0,1,6.936,1.516,11.007,11.007,0,0,1,4.674,4.4,13.592,13.592,0,0,1,1.666,6.911,12.718,12.718,0,0,1-1.716,6.713,11.375,11.375,0,0,1-4.748,4.351A15.253,15.253,0,0,1,2901.935-1062.227Z" transform="translate(-2867.475 1100.016)" fill="#221e20"/>
    <g id="Grupo_8139" data-name="Grupo 8139" transform="translate(31.188 27.666)">
      <path id="Caminho_8915" data-name="Caminho 8915" d="M2942.96-1014.488h-6.614a3.916,3.916,0,0,0,3.307,1.821A3.917,3.917,0,0,0,2942.96-1014.488Z" transform="translate(-2936.346 1014.488)" fill="#ffdd08"/>
    </g>
    <path id="Caminho_8916" data-name="Caminho 8916" d="M3033.091-1146.887v37.243h-7.757V-1144.2Z" transform="translate(-2975.55 1146.887)" fill="#221e20"/>
    <path id="Caminho_8917" data-name="Caminho 8917" d="M3081.331-1080.972a14.055,14.055,0,0,0-3.282.448,17.55,17.55,0,0,0-3.232,1.094l-2.088-5.967a18.389,18.389,0,0,1,4.525-1.566,23.076,23.076,0,0,1,5.171-.671,11.645,11.645,0,0,1,5.37,1.193,8.613,8.613,0,0,1,3.6,3.356,9.6,9.6,0,0,1,1.268,4.947v15.364h-4.326l-1.839-2.536a7.792,7.792,0,0,1-5.917,3.083q-4.377,0-6.613-2.163a7.811,7.811,0,0,1-2.238-5.892,6.423,6.423,0,0,1,2.486-5.519,11.231,11.231,0,0,1,6.812-1.84h3.779a3.554,3.554,0,0,0-1.019-2.461A3.439,3.439,0,0,0,3081.331-1080.972Zm-.249,8.005a2.773,2.773,0,0,0-2.014.746,2.515,2.515,0,0,0-.771,1.889,2.1,2.1,0,0,0,.646,1.541,2.284,2.284,0,0,0,1.69.646,6.2,6.2,0,0,0,4.227-1.889v-2.934Z" transform="translate(-3012.254 1100.016)" fill="#221e20"/>
    <path id="Caminho_8918" data-name="Caminho 8918" d="M3193.393-1076.882a15.574,15.574,0,0,0-4.053,2.511v14.42h-7.806v-24.066h3.978l2.188,3.431a21.4,21.4,0,0,1,4.027-2.411,9.9,9.9,0,0,1,4.127-1.069l1.542,6.216A10.369,10.369,0,0,0,3193.393-1076.882Z" transform="translate(-3099.11 1097.194)" fill="#221e20"/>
    <path id="Caminho_8919" data-name="Caminho 8919" d="M3268.891-1089.552a13.491,13.491,0,0,1,4.4-.657,11.82,11.82,0,0,1,4.8.9,7.2,7.2,0,0,1,3.131,2.5,6.32,6.32,0,0,1,1.095,3.657,8.177,8.177,0,0,1-1.576,4.664,27.614,27.614,0,0,1-4.948,5.146l-7.445,6.306,14.977.044.35,2.146H3264.8v-2.19l9.284-8.014a26.667,26.667,0,0,0,4.227-4.27,6.262,6.262,0,0,0,1.16-3.7,4.313,4.313,0,0,0-1.664-3.613,7.252,7.252,0,0,0-4.554-1.292,9.4,9.4,0,0,0-3.548.591,39.8,39.8,0,0,0-3.694,1.862l-.641-2.453A18.989,18.989,0,0,1,3268.891-1089.552Z" transform="translate(-3164.974 1102.052)" fill="#221e20"/>
    <path id="Caminho_8920" data-name="Caminho 8920" d="M3373.773-1087.484v24.786h-2.759v-21.415l-5.474,2.234-1.139-2.234,7.533-3.372Z" transform="translate(-3243.766 1099.897)" fill="#221e20"/>
    <path id="Caminho_8921" data-name="Caminho 8921" d="M2796.444-1062.24a22.292,22.292,0,0,1-4.824-.647,11.2,11.2,0,0,1-4.526-1.99l2.288-5.073a17.9,17.9,0,0,0,3.407,1.219,13.226,13.226,0,0,0,3.159.472,5.012,5.012,0,0,0,2.114-.423,1.3,1.3,0,0,0,.921-1.169,1.617,1.617,0,0,0-.871-1.244,9.5,9.5,0,0,0-2.412-1.094,20.1,20.1,0,0,1-5.968-3.084,5.7,5.7,0,0,1-2.338-4.676,6.734,6.734,0,0,1,2.686-5.645,11.807,11.807,0,0,1,7.361-2.064,18.657,18.657,0,0,1,4.4.622,11.809,11.809,0,0,1,4.252,1.915l-2.238,5.073a15.566,15.566,0,0,0-6.167-1.542,3.623,3.623,0,0,0-1.89.448,1.315,1.315,0,0,0-.746,1.144q0,.8,3.133,1.89,8.306,2.885,8.306,8.058a6.951,6.951,0,0,1-2.562,5.77Q2801.367-1062.24,2796.444-1062.24Z" transform="translate(-2787.093 1100.033)" fill="#221e20"/>
    <g id="Grupo_8140" data-name="Grupo 8140" transform="translate(27.854 12.381)">
      <path id="Caminho_8922" data-name="Caminho 8922" d="M2925.868-1080.969v1.671a6.665,6.665,0,0,0-5.479,6.154h13.282a6.665,6.665,0,0,0-5.478-6.154v-1.671a1.163,1.163,0,0,0-.767-1.093v-5.568c-.11,0-.221,0-.332,0q-.233,0-.462.006v5.567A1.163,1.163,0,0,0,2925.868-1080.969Z" transform="translate(-2920.389 1087.635)" fill="#fff"/>
    </g>
  </g>
</svg>
