<svg xmlns="http://www.w3.org/2000/svg" xmlns:xlink="http://www.w3.org/1999/xlink" width="130" height="19.001" viewBox="0 0 130 19.001">
  <defs>
    <clipPath id="clip-path">
      <rect id="Retângulo_209" data-name="Retângulo 209" width="36.873" height="18.669"/>
    </clipPath>
  </defs>
  <g id="logo" transform="translate(0 -47.3)">
    <g id="Grupo_8144" data-name="Grupo 8144" transform="translate(93.127 47.3)">
      <g id="Grupo_8143" data-name="Grupo 8143" transform="translate(0 0)" clip-path="url(#clip-path)">
        <path id="Caminho_8923" data-name="Caminho 8923" d="M631.573,47.6A123.291,123.291,0,0,0,613.1,48.988l.83,3.877a114.766,114.766,0,0,1,15.133-1.292v14.6h4.927V51.557a117.833,117.833,0,0,1,15.151,1.292l.83-3.877A124.441,124.441,0,0,0,631.573,47.6Z" transform="translate(-613.082 -47.552)" fill="#dc2d35"/>
      </g>
    </g>
    <path id="Caminho_8924" data-name="Caminho 8924" d="M239.4,69.7h4.946V51.9H239.4V69.7Z" transform="translate(-201.311 -3.751)" fill="#dc2d35"/>
    <path id="Caminho_8925" data-name="Caminho 8925" d="M0,49.187l.83,3.875A114.841,114.841,0,0,1,15.963,51.77V66.377h4.927V51.754a117.911,117.911,0,0,1,15.151,1.292l.83-3.875A123.905,123.905,0,0,0,0,49.187Z" transform="translate(0 -0.408)" fill="#dc2d35"/>
    <path id="Caminho_8926" data-name="Caminho 8926" d="M546.7,69.7h4.946V51.9H546.7Z" transform="translate(-459.719 -3.751)" fill="#dc2d35"/>
    <path id="Caminho_8927" data-name="Caminho 8927" d="M327.564,60.831A97.262,97.262,0,0,1,313.539,47.3L309.7,49.731A101.963,101.963,0,0,0,327.564,66.3l.037-.032a102.875,102.875,0,0,0,17.827-16.538L341.59,47.3A97.263,97.263,0,0,1,327.564,60.831Z" transform="translate(-262.549 0)" fill="#dc2d35"/>
  </g>
</svg>
