<svg id="Layer_1" data-name="Layer 1" xmlns="http://www.w3.org/2000/svg" viewBox="0 0 141.73 141.73">
	<defs>
		<style>.cls-1{fill:#004bff;}.cls-2{fill:#00e9e7;}.cls-3{fill:#fff;}</style>
	</defs>
	<title>icon_4</title>
	<rect class="cls-1" width="141.73" height="141.73" rx="70.87" />
	<path class="cls-2" d="M118.74,64.29H108V53.61h-5.26V65a16.81,16.81,0,0,0-10.1-3.28H49.06c-8.47,0-15.36,5.92-15.36,13.21s6.89,13.21,15.36,13.21H92.67c8.47,0,15.36-5.93,15.36-13.21a11.59,11.59,0,0,0-1.37-5.42h12.08ZM92.67,83.11H49.06c-5.26,0-9.53-3.67-9.53-8.2s4.27-8.19,9.53-8.19H92.67c5.26,0,9.53,3.67,9.53,8.19S97.93,83.11,92.67,83.11Z" />
	<path class="cls-3" d="M54.6,71.34a3.58,3.58,0,1,0,3.59,3.57A3.58,3.58,0,0,0,54.6,71.34Z" />
	<path class="cls-3" d="M87.2,71.34a3.58,3.58,0,1,0,3.59,3.57A3.59,3.59,0,0,0,87.2,71.34Z" />
</svg>
