<svg xmlns="http://www.w3.org/2000/svg" xmlns:xlink="http://www.w3.org/1999/xlink" width="360" height="277" viewBox="0 0 360 277">
  <defs>
    <clipPath id="clip-path">
      <rect id="Ret칙ngulo_1597" data-name="Ret칙ngulo 1597" width="360" height="277" transform="translate(640 948)" fill="#f6f6ff"/>
    </clipPath>
  </defs>
  <g id="Grupo_de_m치scara_176" data-name="Grupo de m치scara 176" transform="translate(-640 -948)" clip-path="url(#clip-path)">
    <g id="Grupo_20837" data-name="Grupo 20837" transform="translate(719.071 968.882)">
      <g id="Grupo_20832" data-name="Grupo 20832" transform="translate(0 0)">
        <path id="Caminho_13298" data-name="Caminho 13298" d="M2314.535,659.506c-1.232-.27-11.312,47.058-10,65.464s10,82.388,10,82.388h103.5s12.944-62.228,10.635-81.073-14.6-68.409-14.6-68.409Z" transform="translate(-2255.335 -386.566)" fill="#0b0c28"/>
        <g id="Grupo_20702" data-name="Grupo 20702" transform="translate(0 75.327)">
          <g id="Grupo_20701" data-name="Grupo 20701">
            <g id="Grupo_20660" data-name="Grupo 20660" transform="translate(0.57)">
              <g id="Grupo_20659" data-name="Grupo 20659">
                <g id="Grupo_20658" data-name="Grupo 20658">
                  <g id="Grupo_20657" data-name="Grupo 20657">
                    <path id="Caminho_13299" data-name="Caminho 13299" d="M2287.37,513.762l-14.789-66.592-.856-11.024s-3.386-24.717-3.409-27.133c-.026-2.792-1.379-3.45-2.407-3.37-1.6.125-2.717,2.113-2.768,4.509-.017.828.23,13.907.23,13.907a30.921,30.921,0,0,0-2.572-3.5c-1.962-2.427-6.519-3.777-11.179-3.576s-5.947.668-5.953,2.482a2.308,2.308,0,0,0,.933,1.75,4.564,4.564,0,0,0,3.086,1.026c7.467-.219,9.521,3.75,9.521,3.75l.112,1.442s-4.575-3.191-8.174-1.783a4.394,4.394,0,0,0-1.433.905,5.844,5.844,0,0,0-4.968,8.771,2.43,2.43,0,0,0,2.364,1.44,3.11,3.11,0,0,0,1.312-.817,4.662,4.662,0,0,1,.659-.5l.879,4s2.455,8.872,3.087,12.853l3.957,66a16.4,16.4,0,0,0,17.634,15.364h0A16.394,16.394,0,0,0,2287.37,513.762Z" transform="translate(-2241.979 -405.636)" fill="#eebd9d"/>
                  </g>
                </g>
              </g>
            </g>
            <g id="Grupo_20670" data-name="Grupo 20670" transform="translate(14.592 23.435)">
              <g id="Grupo_20664" data-name="Grupo 20664" transform="translate(0.395 0.38)">
                <g id="Grupo_20663" data-name="Grupo 20663">
                  <g id="Grupo_20662" data-name="Grupo 20662">
                    <g id="Grupo_20661" data-name="Grupo 20661">
                      <path id="Caminho_13300" data-name="Caminho 13300" d="M2274.561,453.13c-1.367.39-2.784-.6-3.537-1.8s-1.075-2.631-1.74-3.886c-1.987-3.757-6.712-5.509-8.517-9.357-.252-.537-.394-1.277.077-1.637.437-.333,1.059-.08,1.542.181l12.391,6.682" transform="translate(-2260.534 -436.287)" fill="#eebd9d"/>
                    </g>
                  </g>
                </g>
              </g>
              <g id="Grupo_20669" data-name="Grupo 20669">
                <g id="Grupo_20668" data-name="Grupo 20668">
                  <g id="Grupo_20667" data-name="Grupo 20667">
                    <g id="Grupo_20666" data-name="Grupo 20666">
                      <g id="Grupo_20665" data-name="Grupo 20665">
                        <path id="Caminho_13301" data-name="Caminho 13301" d="M2274.664,443.2a5.682,5.682,0,0,0-1.266-.86c-.84-.507-2.068-1.219-3.594-2.083l-5.378-3-1.56-.856a2.787,2.787,0,0,0-2.036-.555,1.187,1.187,0,0,0-.8,1.065,2.439,2.439,0,0,0,.217,1.131,9.245,9.245,0,0,0,1.082,1.771c1.73,2.2,3.946,3.565,5.554,5.165a10.6,10.6,0,0,1,1.979,2.481c.476.866.779,1.78,1.146,2.594a4.956,4.956,0,0,0,2.892,3.04,1.778,1.778,0,0,0,1.549-.074A4.1,4.1,0,0,1,2273,452.8a4.794,4.794,0,0,1-2.474-2.967c-.323-.8-.593-1.728-1.083-2.686a10.941,10.941,0,0,0-2.046-2.694c-1.652-1.688-3.845-3.089-5.437-5.127a8.592,8.592,0,0,1-.984-1.6c-.24-.533-.214-1.078.094-1.134.328-.115.9.191,1.425.482l1.573.833,5.459,2.848c1.56.8,2.829,1.435,3.715,1.858A5.616,5.616,0,0,0,2274.664,443.2Z" transform="translate(-2260.025 -435.798)" fill="#d79870"/>
                      </g>
                    </g>
                  </g>
                </g>
              </g>
            </g>
            <g id="Grupo_20675" data-name="Grupo 20675" transform="translate(2.139 12.989)">
              <g id="Grupo_20674" data-name="Grupo 20674">
                <g id="Grupo_20673" data-name="Grupo 20673">
                  <g id="Grupo_20672" data-name="Grupo 20672">
                    <g id="Grupo_20671" data-name="Grupo 20671">
                      <path id="Caminho_13302" data-name="Caminho 13302" d="M2257.946,431.225a5.8,5.8,0,0,0-.886-2.507,4.478,4.478,0,0,0-2.292-1.625,11.456,11.456,0,0,0-3.539-.471,18.369,18.369,0,0,1-3.7-.282,5.908,5.908,0,0,1-2.761-1.342,2.3,2.3,0,0,1-.758-1.925,1.356,1.356,0,0,1,.238-.72c.049.013-.035.271-.037.73a2.17,2.17,0,0,0,.8,1.646,5.86,5.86,0,0,0,2.612,1.144,20.262,20.262,0,0,0,3.606.231,11.155,11.155,0,0,1,3.688.538,4.707,4.707,0,0,1,2.437,1.87,4.186,4.186,0,0,1,.653,1.961A1.452,1.452,0,0,1,2257.946,431.225Z" transform="translate(-2243.999 -422.354)" fill="#d79870"/>
                    </g>
                  </g>
                </g>
              </g>
            </g>
            <g id="Grupo_20680" data-name="Grupo 20680" transform="translate(21.312 3.591)">
              <g id="Grupo_20679" data-name="Grupo 20679">
                <g id="Grupo_20678" data-name="Grupo 20678">
                  <g id="Grupo_20677" data-name="Grupo 20677">
                    <g id="Grupo_20676" data-name="Grupo 20676">
                      <path id="Caminho_13303" data-name="Caminho 13303" d="M2269.128,410.258a14.679,14.679,0,0,1,.066,2.6c0,1.783,0,3.909,0,6.259.036,2.35.067,4.475.095,6.259a14.648,14.648,0,0,1-.026,2.6,11.643,11.643,0,0,1-.34-2.583c-.127-1.6-.227-3.821-.246-6.273s.047-4.672.151-6.276A11.712,11.712,0,0,1,2269.128,410.258Z" transform="translate(-2268.675 -410.258)" fill="#d79870"/>
                    </g>
                  </g>
                </g>
              </g>
            </g>
            <g id="Grupo_20685" data-name="Grupo 20685" transform="translate(4.442 21.547)">
              <g id="Grupo_20684" data-name="Grupo 20684">
                <g id="Grupo_20683" data-name="Grupo 20683">
                  <g id="Grupo_20682" data-name="Grupo 20682">
                    <g id="Grupo_20681" data-name="Grupo 20681">
                      <path id="Caminho_13304" data-name="Caminho 13304" d="M2255.688,436.662a3.15,3.15,0,0,1-.762-.287,2.416,2.416,0,0,0-2.011-.075,1.293,1.293,0,0,0-.664,1.094,6.855,6.855,0,0,0,.141,1.689,2.917,2.917,0,0,1-.288,2.05,2.481,2.481,0,0,1-1.98,1.056,2.815,2.815,0,0,1-2.056-.863,3.533,3.533,0,0,1-.986-1.809,11.433,11.433,0,0,1,.015-3.346,6.729,6.729,0,0,1,.641-2.159c.263-.474.51-.66.525-.643.035.032-.148.256-.343.728a7.931,7.931,0,0,0-.46,2.119,12.219,12.219,0,0,0,.089,3.209,2.79,2.79,0,0,0,2.556,2.247,2,2,0,0,0,1.574-.817,2.492,2.492,0,0,0,.239-1.711,6.87,6.87,0,0,1-.094-1.806,1.677,1.677,0,0,1,.927-1.364,2.525,2.525,0,0,1,2.26.219C2255.476,436.452,2255.7,436.634,2255.688,436.662Z" transform="translate(-2246.963 -433.368)" fill="#d79870"/>
                    </g>
                  </g>
                </g>
              </g>
            </g>
            <g id="Grupo_20690" data-name="Grupo 20690" transform="translate(0 21.037)">
              <g id="Grupo_20689" data-name="Grupo 20689">
                <g id="Grupo_20688" data-name="Grupo 20688">
                  <g id="Grupo_20687" data-name="Grupo 20687">
                    <g id="Grupo_20686" data-name="Grupo 20686">
                      <path id="Caminho_13305" data-name="Caminho 13305" d="M2247,440.781c.025,0,.1.273-.064.74a2.264,2.264,0,0,1-1.5,1.359,3.019,3.019,0,0,1-2.873-.853,4.938,4.938,0,0,1-1.315-3.427,5.974,5.974,0,0,1,1.08-3.5,5.7,5.7,0,0,1,2.313-1.9,5.381,5.381,0,0,1,1.946-.483,1.557,1.557,0,0,1,.731.064,9.4,9.4,0,0,0-2.517.748,5.563,5.563,0,0,0-3.034,5.064,4.585,4.585,0,0,0,1.137,3.1,2.679,2.679,0,0,0,2.444.833,2.146,2.146,0,0,0,1.407-1.085C2246.955,441.044,2246.957,440.778,2247,440.781Z" transform="translate(-2241.245 -432.712)" fill="#d79870"/>
                    </g>
                  </g>
                </g>
              </g>
            </g>
            <g id="Grupo_20695" data-name="Grupo 20695" transform="translate(14.856 32.267)">
              <g id="Grupo_20694" data-name="Grupo 20694">
                <g id="Grupo_20693" data-name="Grupo 20693">
                  <g id="Grupo_20692" data-name="Grupo 20692">
                    <g id="Grupo_20691" data-name="Grupo 20691">
                      <path id="Caminho_13306" data-name="Caminho 13306" d="M2260.366,452.647a2.116,2.116,0,0,1,1.249,0,4.9,4.9,0,0,1,2.74,1.618l-.438.133a14.521,14.521,0,0,1,.271-1.746,11.156,11.156,0,0,1,2.636-5.487,28.216,28.216,0,0,0-2.13,5.6c-.127.585-.219,1.157-.282,1.687l-.07.586-.368-.453a5.143,5.143,0,0,0-2.435-1.632C2260.824,452.729,2260.365,452.717,2260.366,452.647Z" transform="translate(-2260.366 -447.166)" fill="#d79870"/>
                    </g>
                  </g>
                </g>
              </g>
            </g>
            <g id="Grupo_20700" data-name="Grupo 20700" transform="translate(10.718 15.488)">
              <g id="Grupo_20699" data-name="Grupo 20699">
                <g id="Grupo_20698" data-name="Grupo 20698">
                  <g id="Grupo_20697" data-name="Grupo 20697">
                    <g id="Grupo_20696" data-name="Grupo 20696">
                      <path id="Caminho_13307" data-name="Caminho 13307" d="M2258.689,425.578c.124.059-.371,1-1.515,1.507s-2.171.253-2.133.121c.014-.151.933-.141,1.922-.594C2257.962,426.178,2258.568,425.487,2258.689,425.578Z" transform="translate(-2255.041 -425.57)" fill="#d79870"/>
                    </g>
                  </g>
                </g>
              </g>
            </g>
          </g>
        </g>
        <path id="Caminho_13308" data-name="Caminho 13308" d="M2429.876,472.017c5.416,0,18.438,15.383,20.708,38.768,1.04,10.7,6.4,54.56,9,75.641a21.038,21.038,0,0,1-8.562,19.594c-14.017,10.177-42.067,26.188-79.379,25.743L2349.032,612.8l73.389-30.93.04-1.673,3.2-3.5-9.159-56.163S2407.945,472.019,2429.876,472.017Z" transform="translate(-2265.285 -345.114)" fill="#5949f9"/>
        <g id="Grupo_20809" data-name="Grupo 20809" transform="translate(72.814 6.887)">
          <g id="Grupo_20703" data-name="Grupo 20703" transform="translate(46.198 21.221)">
            <path id="Caminho_13309" data-name="Caminho 13309" d="M2420.9,344.863c.276,7.6,10.4,12.2,10.272,19.8-.056,3.262-2.078,6.19-2.475,9.428-.534,4.352,1.9,8.46,2.8,12.752,1.851,8.842-3.292,18.169-10.92,23.01s-17.2,5.764-26.153,4.54" transform="translate(-2394.42 -344.863)" fill="#0b0c28"/>
          </g>
          <g id="Grupo_20797" data-name="Grupo 20797">
            <g id="Grupo_20704" data-name="Grupo 20704" transform="translate(0 19.359)">
              <path id="Caminho_13310" data-name="Caminho 13310" d="M2346.49,342.467c.3,4.078-2.393,7.719-5.105,10.778s-5.733,6.247-6.319,10.293c-1.04,7.171,5.981,13.829,4.533,20.929-.776,3.806-3.891,6.862-4.447,10.706-.537,3.717,1.455,7.356,3.925,10.187s5.33,2.416,7.514,5.471a30.706,30.706,0,0,0,9.477,8.422c7.868,4.309,17.312-1.924,21.107-3.044" transform="translate(-2334.961 -342.467)" fill="#0b0c28"/>
            </g>
            <g id="Grupo_20705" data-name="Grupo 20705" transform="translate(11.399)">
              <path id="Caminho_13311" data-name="Caminho 13311" d="M2412.434,343.145c.106-3.7-3.313-6.555-6.756-7.91s-7.269-1.866-10.337-3.931c-2.718-1.829-4.544-4.681-6.845-7.013a22.772,22.772,0,0,0-38.3,10.448c-1.322,5.266-.42,11.493,3.732,14.993,4.819,4.061,11.961,3.159,18.135,1.9s13.161-2.51,18.315,1.116c3.109,2.186,4.89,5.743,6.791,9.035s4.285,6.652,7.878,7.889,8.473-.9,8.613-4.7" transform="translate(-2349.632 -317.551)" fill="#0b0c28"/>
            </g>
            <g id="Grupo_20795" data-name="Grupo 20795" transform="translate(7.833 17.911)">
              <g id="Grupo_20794" data-name="Grupo 20794">
                <g id="Grupo_20793" data-name="Grupo 20793">
                  <g id="Grupo_20792" data-name="Grupo 20792">
                    <g id="Grupo_20777" data-name="Grupo 20777">
                      <g id="Grupo_20776" data-name="Grupo 20776">
                        <g id="Grupo_20775" data-name="Grupo 20775">
                          <g id="Grupo_20712" data-name="Grupo 20712">
                            <g id="Grupo_20711" data-name="Grupo 20711">
                              <g id="Grupo_20710" data-name="Grupo 20710">
                                <g id="Grupo_20709" data-name="Grupo 20709">
                                  <g id="Grupo_20708" data-name="Grupo 20708">
                                    <g id="Grupo_20707" data-name="Grupo 20707">
                                      <g id="Grupo_20706" data-name="Grupo 20706">
                                        <path id="Caminho_13312" data-name="Caminho 13312" d="M2362.253,434.426c-.051-8.485-.1-16.754-.1-16.71,0,0-13.48-2.269-16.235-19.869-1.37-8.753-.9-23.1-.134-34.822.688-10.553,7.71-23.488,18.225-22.352l32.822,8.373a6.189,6.189,0,0,1,5.522,6.289h0l-3.005,79.681a18.553,18.553,0,0,1-18.907,17.85h0A18.553,18.553,0,0,1,2362.253,434.426Z" transform="translate(-2345.042 -340.603)" fill="#eebd9d"/>
                                      </g>
                                    </g>
                                  </g>
                                </g>
                              </g>
                            </g>
                          </g>
                          <g id="Grupo_20728" data-name="Grupo 20728" transform="translate(3.798 27.53)">
                            <g id="Grupo_20719" data-name="Grupo 20719" transform="translate(2.525 2.913)">
                              <g id="Grupo_20718" data-name="Grupo 20718">
                                <g id="Grupo_20717" data-name="Grupo 20717">
                                  <g id="Grupo_20716" data-name="Grupo 20716">
                                    <g id="Grupo_20715" data-name="Grupo 20715">
                                      <g id="Grupo_20714" data-name="Grupo 20714">
                                        <g id="Grupo_20713" data-name="Grupo 20713">
                                          <path id="Caminho_13313" data-name="Caminho 13313" d="M2353.182,381.818a2.256,2.256,0,0,0,2.171,2.281,2.158,2.158,0,0,0,2.33-2.029,2.257,2.257,0,0,0-2.168-2.282A2.16,2.16,0,0,0,2353.182,381.818Z" transform="translate(-2353.181 -379.784)" fill="#0b0c28"/>
                                        </g>
                                      </g>
                                    </g>
                                  </g>
                                </g>
                              </g>
                            </g>
                            <g id="Grupo_20727" data-name="Grupo 20727">
                              <g id="Grupo_20726" data-name="Grupo 20726">
                                <g id="Grupo_20725" data-name="Grupo 20725">
                                  <g id="Grupo_20724" data-name="Grupo 20724">
                                    <g id="Grupo_20723" data-name="Grupo 20723">
                                      <g id="Grupo_20722" data-name="Grupo 20722">
                                        <g id="Grupo_20721" data-name="Grupo 20721">
                                          <g id="Grupo_20720" data-name="Grupo 20720">
                                            <path id="Caminho_13314" data-name="Caminho 13314" d="M2349.967,378.4c.279.3,1.991-.967,4.42-.955,2.426-.023,4.2,1.231,4.468.934.129-.131-.154-.664-.929-1.23a6.191,6.191,0,0,0-3.576-1.111,5.936,5.936,0,0,0-3.518,1.127C2350.083,377.733,2349.829,378.265,2349.967,378.4Z" transform="translate(-2349.931 -376.035)" fill="#0b0c28"/>
                                          </g>
                                        </g>
                                      </g>
                                    </g>
                                  </g>
                                </g>
                              </g>
                            </g>
                          </g>
                          <g id="Grupo_20744" data-name="Grupo 20744" transform="translate(27.664 28.035)">
                            <g id="Grupo_20735" data-name="Grupo 20735" transform="translate(2.233 3.016)">
                              <g id="Grupo_20734" data-name="Grupo 20734">
                                <g id="Grupo_20733" data-name="Grupo 20733">
                                  <g id="Grupo_20732" data-name="Grupo 20732">
                                    <g id="Grupo_20731" data-name="Grupo 20731">
                                      <g id="Grupo_20730" data-name="Grupo 20730">
                                        <g id="Grupo_20729" data-name="Grupo 20729">
                                          <path id="Caminho_13315" data-name="Caminho 13315" d="M2383.523,382.6a2.256,2.256,0,0,0,2.17,2.281,2.159,2.159,0,0,0,2.331-2.029,2.257,2.257,0,0,0-2.168-2.282A2.159,2.159,0,0,0,2383.523,382.6Z" transform="translate(-2383.522 -380.568)" fill="#0b0c28"/>
                                        </g>
                                      </g>
                                    </g>
                                  </g>
                                </g>
                              </g>
                            </g>
                            <g id="Grupo_20743" data-name="Grupo 20743">
                              <g id="Grupo_20742" data-name="Grupo 20742">
                                <g id="Grupo_20741" data-name="Grupo 20741">
                                  <g id="Grupo_20740" data-name="Grupo 20740">
                                    <g id="Grupo_20739" data-name="Grupo 20739">
                                      <g id="Grupo_20738" data-name="Grupo 20738">
                                        <g id="Grupo_20737" data-name="Grupo 20737">
                                          <g id="Grupo_20736" data-name="Grupo 20736">
                                            <path id="Caminho_13316" data-name="Caminho 13316" d="M2380.683,379.048c.28.3,1.994-.966,4.42-.954,2.425-.023,4.2,1.23,4.468.933.129-.131-.151-.663-.929-1.229a6.183,6.183,0,0,0-3.575-1.112,5.953,5.953,0,0,0-3.519,1.127C2380.8,378.384,2380.546,378.916,2380.683,379.048Z" transform="translate(-2380.647 -376.686)" fill="#0b0c28"/>
                                          </g>
                                        </g>
                                      </g>
                                    </g>
                                  </g>
                                </g>
                              </g>
                            </g>
                          </g>
                          <g id="Grupo_20752" data-name="Grupo 20752" transform="translate(12.665 28.156)">
                            <g id="Grupo_20751" data-name="Grupo 20751">
                              <g id="Grupo_20750" data-name="Grupo 20750">
                                <g id="Grupo_20749" data-name="Grupo 20749">
                                  <g id="Grupo_20748" data-name="Grupo 20748">
                                    <g id="Grupo_20747" data-name="Grupo 20747">
                                      <g id="Grupo_20746" data-name="Grupo 20746">
                                        <g id="Grupo_20745" data-name="Grupo 20745">
                                          <path id="Caminho_13317" data-name="Caminho 13317" d="M2367.526,397.069c.011-.138-1.5-.4-3.943-.72-.62-.065-1.206-.19-1.31-.613a3.154,3.154,0,0,1,.418-1.837q.879-2.248,1.844-4.717c2.561-6.716,4.416-12.239,4.145-12.34s-2.568,5.261-5.128,11.977q-.925,2.485-1.768,4.746a3.591,3.591,0,0,0-.327,2.433,1.561,1.561,0,0,0,1.018.909,4.23,4.23,0,0,0,1.053.148C2365.989,397.193,2367.516,397.208,2367.526,397.069Z" transform="translate(-2361.343 -376.841)" fill="#0b0c28"/>
                                        </g>
                                      </g>
                                    </g>
                                  </g>
                                </g>
                              </g>
                            </g>
                          </g>
                          <g id="Grupo_20759" data-name="Grupo 20759" transform="translate(17.107 70.88)">
                            <g id="Grupo_20758" data-name="Grupo 20758">
                              <g id="Grupo_20757" data-name="Grupo 20757">
                                <g id="Grupo_20756" data-name="Grupo 20756">
                                  <g id="Grupo_20755" data-name="Grupo 20755">
                                    <g id="Grupo_20754" data-name="Grupo 20754">
                                      <g id="Grupo_20753" data-name="Grupo 20753">
                                        <path id="Caminho_13318" data-name="Caminho 13318" d="M2367.06,438.062a44.761,44.761,0,0,0,23.576-6.233c-.2.042-6.489,12.23-23.348,10.388Z" transform="translate(-2367.06 -431.829)" fill="#d79870"/>
                                      </g>
                                    </g>
                                  </g>
                                </g>
                              </g>
                            </g>
                          </g>
                          <g id="Grupo_20766" data-name="Grupo 20766" transform="translate(19.618 52.595)">
                            <g id="Grupo_20765" data-name="Grupo 20765">
                              <g id="Grupo_20764" data-name="Grupo 20764">
                                <g id="Grupo_20763" data-name="Grupo 20763">
                                  <g id="Grupo_20762" data-name="Grupo 20762">
                                    <g id="Grupo_20761" data-name="Grupo 20761">
                                      <g id="Grupo_20760" data-name="Grupo 20760">
                                        <path id="Caminho_13319" data-name="Caminho 13319" d="M2370.535,409.939a4.377,4.377,0,0,1,3.926-1.617,3.992,3.992,0,0,1,2.755,1.486,2.531,2.531,0,0,1,.186,2.894,2.937,2.937,0,0,1-3.185.8,9.2,9.2,0,0,1-3.1-1.859,2.691,2.691,0,0,1-.691-.719.811.811,0,0,1,.005-.9" transform="translate(-2370.291 -408.296)" fill="#5949f9"/>
                                      </g>
                                    </g>
                                  </g>
                                </g>
                              </g>
                            </g>
                          </g>
                          <g id="Grupo_20774" data-name="Grupo 20774" transform="translate(18.237 50.079)">
                            <g id="Grupo_20773" data-name="Grupo 20773">
                              <g id="Grupo_20772" data-name="Grupo 20772">
                                <g id="Grupo_20771" data-name="Grupo 20771">
                                  <g id="Grupo_20770" data-name="Grupo 20770">
                                    <g id="Grupo_20769" data-name="Grupo 20769">
                                      <g id="Grupo_20768" data-name="Grupo 20768">
                                        <g id="Grupo_20767" data-name="Grupo 20767">
                                          <path id="Caminho_13320" data-name="Caminho 13320" d="M2376.266,405.058c-.395-.023-.406,2.612-2.666,4.478s-5.064,1.569-5.085,1.938c-.037.165.624.514,1.81.548a6.56,6.56,0,0,0,4.245-1.468,5.709,5.709,0,0,0,2.066-3.754C2376.74,405.7,2376.447,405.043,2376.266,405.058Z" transform="translate(-2368.514 -405.058)" fill="#0b0c28"/>
                                        </g>
                                      </g>
                                    </g>
                                  </g>
                                </g>
                              </g>
                            </g>
                          </g>
                        </g>
                      </g>
                    </g>
                    <g id="Grupo_20784" data-name="Grupo 20784" transform="translate(26.604 24.334)">
                      <g id="Grupo_20783" data-name="Grupo 20783">
                        <g id="Grupo_20782" data-name="Grupo 20782">
                          <g id="Grupo_20781" data-name="Grupo 20781">
                            <g id="Grupo_20780" data-name="Grupo 20780">
                              <g id="Grupo_20779" data-name="Grupo 20779">
                                <g id="Grupo_20778" data-name="Grupo 20778">
                                  <path id="Caminho_13321" data-name="Caminho 13321" d="M2379.295,373.732c.239.66,2.664.353,5.511.7,2.854.293,5.15,1.132,5.53.54.169-.283-.23-.9-1.158-1.545a9.655,9.655,0,0,0-8.411-.947C2379.721,372.9,2379.193,373.418,2379.295,373.732Z" transform="translate(-2379.282 -371.922)" fill="#0b0c28"/>
                                </g>
                              </g>
                            </g>
                          </g>
                        </g>
                      </g>
                    </g>
                    <g id="Grupo_20791" data-name="Grupo 20791" transform="translate(4.68 20.36)">
                      <g id="Grupo_20790" data-name="Grupo 20790">
                        <g id="Grupo_20789" data-name="Grupo 20789">
                          <g id="Grupo_20788" data-name="Grupo 20788">
                            <g id="Grupo_20787" data-name="Grupo 20787">
                              <g id="Grupo_20786" data-name="Grupo 20786">
                                <g id="Grupo_20785" data-name="Grupo 20785">
                                  <path id="Caminho_13322" data-name="Caminho 13322" d="M2351.128,369.314c.426.552,2.1-.016,4.111-.039,2.011-.093,3.714.378,4.107-.2.173-.28-.095-.833-.837-1.357a5.951,5.951,0,0,0-6.622.19C2351.174,368.478,2350.94,369.045,2351.128,369.314Z" transform="translate(-2351.066 -366.808)" fill="#0b0c28"/>
                                </g>
                              </g>
                            </g>
                          </g>
                        </g>
                      </g>
                    </g>
                  </g>
                </g>
              </g>
            </g>
            <g id="Grupo_20796" data-name="Grupo 20796" transform="translate(22.729 14.159)">
              <path id="Caminho_13323" data-name="Caminho 13323" d="M2408.549,406.827c-4.839.976-5.27-1.486-8.885-4.847a15.89,15.89,0,0,1-4.863-13.405c.547-4.321,2.877-8.717,1.379-12.807-1.981-5.407-9.561-7.071-11.572-12.466-1.168-3.136-.119-6.8-1.444-9.878-1.246-2.89-4.287-4.555-7.246-5.624s-6.133-1.809-8.618-3.74-4.035-5.576-2.432-8.285a166.67,166.67,0,0,1,38.446,9.341c2.872,1.072,5.888,2.361,7.585,4.913,1.8,2.7,1.71,6.189,1.559,9.429q-1.106,23.7-2.211,47.393" transform="translate(-2364.214 -335.774)" fill="#0b0c28"/>
            </g>
          </g>
          <g id="Grupo_20798" data-name="Grupo 20798" transform="translate(74.095 37.127)">
            <path id="Caminho_13324" data-name="Caminho 13324" d="M2434.36,377.529a13.5,13.5,0,0,1,25.554-4.675c2.446,4.969,1.6,11.017-.684,16.062-2.712,6-8.27,11.474-14.844,11.176-6.186-.28-11.165-5.712-12.948-11.642s-1.064-12.285-.327-18.434" transform="translate(-2430.325 -365.335)" fill="#0b0c28"/>
          </g>
          <g id="Grupo_20800" data-name="Grupo 20800" transform="translate(80.774 40.13)">
            <g id="Grupo_20799" data-name="Grupo 20799">
              <path id="Caminho_13325" data-name="Caminho 13325" d="M2439.724,402.488a3.115,3.115,0,0,0,.921-1.022,8.647,8.647,0,0,0,1.312-3.52,16.821,16.821,0,0,0-.158-5.558c-.358-2.071-1.057-4.239-1.565-6.543a16.366,16.366,0,0,1-.383-6.51c.36-1.959,1.282-3.623,1.687-5.17a6.689,6.689,0,0,0,.106-3.763c-.278-.868-.658-1.226-.685-1.2-.059.035.223.444.392,1.275a6.963,6.963,0,0,1-.336,3.529,44.617,44.617,0,0,0-1.864,5.195,16.344,16.344,0,0,0,.329,6.812c.52,2.35,1.236,4.51,1.618,6.506a17.569,17.569,0,0,1,.318,5.354A11.083,11.083,0,0,1,2439.724,402.488Z" transform="translate(-2438.921 -369.199)" fill="#455a64"/>
            </g>
          </g>
          <g id="Grupo_20802" data-name="Grupo 20802" transform="translate(81.829 52.284)">
            <g id="Grupo_20801" data-name="Grupo 20801">
              <path id="Caminho_13326" data-name="Caminho 13326" d="M2440.282,384.848a8.569,8.569,0,0,0,2.7,2.641,15.437,15.437,0,0,0,17.39.3,8.562,8.562,0,0,0,2.788-2.545c-.093-.1-1.1.939-3.074,2.078a16.079,16.079,0,0,1-16.8-.294C2441.348,385.826,2440.378,384.753,2440.282,384.848Z" transform="translate(-2440.279 -384.842)" fill="#455a64"/>
            </g>
          </g>
          <g id="Grupo_20804" data-name="Grupo 20804" transform="translate(82.696 55.044)">
            <g id="Grupo_20803" data-name="Grupo 20803">
              <path id="Caminho_13327" data-name="Caminho 13327" d="M2441.4,388.4a8.061,8.061,0,0,0,1.491,2.763,19.255,19.255,0,0,0,12.748,7.666,8.041,8.041,0,0,0,3.139.021,29.352,29.352,0,0,0-3.045-.56,21.9,21.9,0,0,1-12.41-7.463A29.456,29.456,0,0,0,2441.4,388.4Z" transform="translate(-2441.395 -388.395)" fill="#455a64"/>
            </g>
          </g>
          <g id="Grupo_20806" data-name="Grupo 20806" transform="translate(22.993 8.219)">
            <g id="Grupo_20805" data-name="Grupo 20805">
              <path id="Caminho_13328" data-name="Caminho 13328" d="M2419.836,399.218c.011.008.075-.066.192-.218a6.324,6.324,0,0,0,.485-.7,9.332,9.332,0,0,0,1.159-3.077,10.814,10.814,0,0,0-.283-5.2,9.928,9.928,0,0,0-4.094-5.506c-2.088-1.472-4.806-2.5-6.532-4.839a5.279,5.279,0,0,1-.956-4.131,23.568,23.568,0,0,1,1.531-4.565,13.129,13.129,0,0,0-.226-10.5,11.517,11.517,0,0,0-3.57-4.435,13.943,13.943,0,0,0-5.4-2.237c-1.905-.435-3.806-.687-5.57-1.219a10.864,10.864,0,0,1-4.665-2.552,7.746,7.746,0,0,1-2.023-4.616,39.6,39.6,0,0,0-.828-5.116,17.633,17.633,0,0,0-4.749-8.324,13.9,13.9,0,0,0-7.474-3.708,11.107,11.107,0,0,0-6.8,1.029,10.75,10.75,0,0,0-3.934,3.406,9.108,9.108,0,0,0-1.376,2.985,4.661,4.661,0,0,0-.171,1.132,11.183,11.183,0,0,1,1.792-3.942,10.6,10.6,0,0,1,10.406-4.071,13.405,13.405,0,0,1,7.115,3.63,17.067,17.067,0,0,1,4.5,8.041,39.549,39.549,0,0,1,.788,5.046,8.475,8.475,0,0,0,2.214,5.037,11.566,11.566,0,0,0,4.983,2.758c1.849.558,3.755.809,5.621,1.236a13.231,13.231,0,0,1,5.113,2.1,10.782,10.782,0,0,1,3.339,4.135,12.428,12.428,0,0,1,.247,9.932,23.745,23.745,0,0,0-1.537,4.715,5.949,5.949,0,0,0,1.109,4.611c1.92,2.524,4.718,3.507,6.743,4.914a9.512,9.512,0,0,1,3.989,5.185,10.719,10.719,0,0,1,.4,5.014A11.794,11.794,0,0,1,2419.836,399.218Z" transform="translate(-2364.554 -328.129)" fill="#455a64"/>
            </g>
          </g>
          <g id="Grupo_20808" data-name="Grupo 20808" transform="translate(21.221 2.379)">
            <g id="Grupo_20807" data-name="Grupo 20807">
              <path id="Caminho_13329" data-name="Caminho 13329" d="M2418.15,348.42a1.931,1.931,0,0,0,.217-.811,3.791,3.791,0,0,0-.584-2.337,5.978,5.978,0,0,0-2.942-2.433,9.263,9.263,0,0,0-5.052-.167c-1.845.349-3.756,1.086-5.849,1.491-2.056.4-4.509.453-6.364-1-1.87-1.422-2.808-3.885-3.769-6.332a26.246,26.246,0,0,0-4.064-7.246,24.334,24.334,0,0,0-13.315-8.611,13.952,13.952,0,0,0-7.03.184,10.93,10.93,0,0,0-5.147,3.328,8.123,8.123,0,0,0-1.948,4.663,7.991,7.991,0,0,0,.581,3.771,6.087,6.087,0,0,0,1.324,2.01,2.465,2.465,0,0,0,.65.528,8.523,8.523,0,0,1-1.695-2.649,7.892,7.892,0,0,1-.43-3.618,7.727,7.727,0,0,1,1.933-4.349,10.445,10.445,0,0,1,4.917-3.069,13.4,13.4,0,0,1,6.692-.1,23.883,23.883,0,0,1,12.863,8.4,25.8,25.8,0,0,1,3.965,7.042c.973,2.427,1.936,5.029,4.043,6.622a6.686,6.686,0,0,0,3.473,1.3,11.866,11.866,0,0,0,3.443-.242c2.172-.451,4.052-1.214,5.837-1.585a8.943,8.943,0,0,1,4.79.037,5.756,5.756,0,0,1,2.838,2.188,3.818,3.818,0,0,1,.683,2.169C2418.212,348.134,2418.1,348.409,2418.15,348.42Z" transform="translate(-2362.274 -320.612)" fill="#455a64"/>
            </g>
          </g>
        </g>
        <path id="Caminho_13330" data-name="Caminho 13330" d="M2409.448,470.061l-31.189-7.944h-37.2s-19.281,1.109-30.014,10.585a23.664,23.664,0,0,0-5.85,9.568l-16.53,37.838-8.485-47.447-29.684,4.217,4.791,81.647a40.089,40.089,0,0,0,31.605,35.221l16.887-18.988c1.948,15.487,3.677,28.773,3.852,28.6.416-.417,92.46-6,92.46-6l-9.318-31.5Z" transform="translate(-2243.31 -342.906)" fill="#5949f9"/>
        <g id="Grupo_20817" data-name="Grupo 20817" transform="translate(5.624)">
          <g id="Grupo_20811" data-name="Grupo 20811">
            <path id="Caminho_13331" data-name="Caminho 13331" d="M2291.046,330.19a21.281,21.281,0,1,0-30.548,18.936l-.056,5.369,18.651.194s.144-3.012.214-5.7A21.276,21.276,0,0,0,2291.046,330.19Z" transform="translate(-2248.484 -308.686)" fill="#5949f9"/>
            <g id="Grupo_20810" data-name="Grupo 20810" transform="translate(9.809 21.324)">
              <path id="Caminho_13332" data-name="Caminho 13332" d="M2275.165,360.652s0-.089.024-.263.054-.438.095-.767c.089-.673.219-1.666.421-2.94s.469-2.832.894-4.617a31.564,31.564,0,0,1,1.993-5.9,20.207,20.207,0,0,1,1.783-3.166,3.925,3.925,0,0,1,1.468-1.292,2.2,2.2,0,0,1,2.02.088,1.451,1.451,0,0,1,.665.848,1.491,1.491,0,0,1-.1,1.092,3.03,3.03,0,0,1-1.659,1.4,5.82,5.82,0,0,1-4.421-.36,5.9,5.9,0,0,1-2.968-3.582,4.451,4.451,0,0,1-.1-2.456,1.911,1.911,0,0,1,1.948-1.458,1.376,1.376,0,0,1,1.076.761,1.934,1.934,0,0,1,.157,1.314,4.161,4.161,0,0,1-1.519,2.1,6.348,6.348,0,0,1-4.975,1.387,5.529,5.529,0,0,1-4.083-3.11,3.218,3.218,0,0,1-.117-2.58,1.629,1.629,0,0,1,.943-.931,1.6,1.6,0,0,1,1.309.134,2.121,2.121,0,0,1,.888.943,3.308,3.308,0,0,1,.312,1.229,6.124,6.124,0,0,1-.348,2.429,6.336,6.336,0,0,1-3.037,3.538,6.45,6.45,0,0,1-4.409.559,3.376,3.376,0,0,1-1.905-1.036,1.648,1.648,0,0,1-.1-2.051,1.391,1.391,0,0,1,.961-.458,2.008,2.008,0,0,1,1.013.207,3.078,3.078,0,0,1,1.288,1.474c.523,1.16.94,2.286,1.365,3.361,1.656,4.307,2.827,7.854,3.61,10.31.392,1.229.68,2.189.873,2.839.092.319.163.565.213.742s.064.256.064.256-.035-.082-.09-.248l-.239-.734-.919-2.823c-.813-2.447-2.009-5.982-3.686-10.275-.427-1.068-.856-2.207-1.373-3.339a2.886,2.886,0,0,0-1.2-1.375,1.275,1.275,0,0,0-1.611,1.972,3.163,3.163,0,0,0,1.784.953,6.222,6.222,0,0,0,4.247-.549,6.1,6.1,0,0,0,2.913-3.406,5.885,5.885,0,0,0,.331-2.327,2.31,2.31,0,0,0-1.07-1.966,1.338,1.338,0,0,0-1.1-.117,1.367,1.367,0,0,0-.791.792,2.958,2.958,0,0,0,.117,2.371,5.273,5.273,0,0,0,3.889,2.958,6.091,6.091,0,0,0,4.768-1.332,3.925,3.925,0,0,0,1.43-1.954,1.667,1.667,0,0,0-.134-1.137,1.115,1.115,0,0,0-.875-.627,1.5,1.5,0,0,0-1.062.331,1.835,1.835,0,0,0-.617.946,4.216,4.216,0,0,0,.1,2.312,5.656,5.656,0,0,0,2.837,3.438,5.6,5.6,0,0,0,4.231.359,2.815,2.815,0,0,0,1.538-1.28,1.257,1.257,0,0,0-.476-1.659,1.984,1.984,0,0,0-1.82-.082,3.723,3.723,0,0,0-1.393,1.221,20.191,20.191,0,0,0-1.778,3.123,31.813,31.813,0,0,0-2.019,5.858c-.437,1.776-.719,3.329-.936,4.6-.2,1.264-.36,2.25-.469,2.932-.051.327-.092.58-.121.763S2275.165,360.652,2275.165,360.652Z" transform="translate(-2261.109 -336.132)" fill="#0b0c28"/>
            </g>
            <path id="Caminho_13333" data-name="Caminho 13333" d="M2281.047,371.581l-16.014-.167a1.2,1.2,0,0,1-1.189-1.214h0a1.2,1.2,0,0,1,1.214-1.19l16.013.168a1.2,1.2,0,0,1,1.19,1.214h0A1.2,1.2,0,0,1,2281.047,371.581Z" transform="translate(-2251.91 -322.14)" fill="#0b0c28"/>
            <path id="Caminho_13334" data-name="Caminho 13334" d="M2281.025,373.622l-16.014-.167a1.2,1.2,0,1,0-.025,2.4l1.758.019,2.286,4.463a1.545,1.545,0,0,0,1.358.84l5.722.06a1.542,1.542,0,0,0,1.383-.826l2.312-4.4,1.2.013a1.2,1.2,0,0,0,.026-2.4Z" transform="translate(-2251.899 -323.132)" fill="#0b0c28"/>
          </g>
          <g id="Grupo_20812" data-name="Grupo 20812" transform="translate(2.383 3.844)" opacity="0.2">
            <path id="Caminho_13335" data-name="Caminho 13335" d="M2256.921,317.369a15.646,15.646,0,0,1,4.291-2.788,11.288,11.288,0,0,1,3.289-.919c.806-.075,1.264.008,1.3.177.089.388-1.531.943-3.719,2.372a17.5,17.5,0,0,0-8.157,17.1c.268,2.6.854,4.208.5,4.383-.155.078-.507-.225-.957-.9a11.31,11.31,0,0,1-1.356-3.134,15.661,15.661,0,0,1-.535-5.09,16.582,16.582,0,0,1,1.554-6.136" transform="translate(-2251.552 -313.634)" fill="#fff"/>
          </g>
          <g id="Grupo_20813" data-name="Grupo 20813" transform="translate(19.068 2.406)" opacity="0.2">
            <path id="Caminho_13336" data-name="Caminho 13336" d="M2275.7,314.4c-1.349-.026-2.535-.408-2.666-1.124-.055-.354.2-.73.688-1.019a4.269,4.269,0,0,1,4.021.063c.481.3.723.688.656,1.04" transform="translate(-2273.026 -311.783)" fill="#fff"/>
          </g>
          <g id="Grupo_20814" data-name="Grupo 20814" transform="translate(17.7 56.675)">
            <path id="Caminho_13337" data-name="Caminho 13337" d="M2278.856,382.613c-.019.04-.419-.148-1.1-.35a8.909,8.909,0,0,0-5.411.1c-.668.226-1.062.429-1.083.39a3.292,3.292,0,0,1,1.018-.563,7.786,7.786,0,0,1,5.533-.1A3.271,3.271,0,0,1,2278.856,382.613Z" transform="translate(-2271.266 -381.63)" fill="#455a64"/>
          </g>
          <g id="Grupo_20815" data-name="Grupo 20815" transform="translate(15.008 52.722)">
            <path id="Caminho_13338" data-name="Caminho 13338" d="M2280.732,376.756c0,.072-2.9.1-6.468.063s-6.465-.126-6.464-.2,2.9-.1,6.468-.063S2280.732,376.684,2280.732,376.756Z" transform="translate(-2267.8 -376.542)" fill="#455a64"/>
          </g>
          <g id="Grupo_20816" data-name="Grupo 20816" transform="translate(16.117 54.784)">
            <path id="Caminho_13339" data-name="Caminho 13339" d="M2280.028,379.237a8.92,8.92,0,0,1-1.579.144c-.976.051-2.328.093-3.819.1s-2.844-.026-3.822-.071a8.952,8.952,0,0,1-1.58-.132,10.083,10.083,0,0,1,1.583-.052l3.816-.006,3.817-.022A10.112,10.112,0,0,1,2280.028,379.237Z" transform="translate(-2269.228 -379.196)" fill="#455a64"/>
          </g>
        </g>
        <g id="Grupo_20818" data-name="Grupo 20818" transform="translate(60.722 163.83)">
          <path id="Caminho_13340" data-name="Caminho 13340" d="M2322.627,555.067a4.984,4.984,0,0,1-.937-1.154,12.8,12.8,0,0,1-1.664-3.7c-.991-3.316-.865-8.257.788-13.229,1.673-4.957,3.861-9.125,5.078-12.282.632-1.57,1.09-2.861,1.38-3.763a7.251,7.251,0,0,1,.5-1.392,5.912,5.912,0,0,1-.255,1.461,35.633,35.633,0,0,1-1.194,3.858c-1.119,3.224-3.244,7.44-4.889,12.32-1.621,4.878-1.81,9.665-.962,12.91A19.132,19.132,0,0,0,2322.627,555.067Z" transform="translate(-2319.398 -519.544)" fill="#0b0c28"/>
        </g>
        <g id="Grupo_20819" data-name="Grupo 20819" transform="translate(150.142 167.123)">
          <path id="Caminho_13341" data-name="Caminho 13341" d="M2434.5,523.783a2.622,2.622,0,0,1,.176.643c.1.5.227,1.114.379,1.864.317,1.719.745,4.045,1.267,6.879,1.037,5.813,2.418,13.854,3.866,22.747s2.681,16.964,3.484,22.816c.4,2.925.692,5.3.869,6.942.067.763.123,1.389.167,1.9a.334.334,0,1,1-.13.015c-.077-.5-.172-1.124-.288-1.879-.268-1.726-.631-4.062-1.072-6.908-.953-5.915-2.244-13.925-3.67-22.778s-2.723-16.861-3.678-22.776l-1.063-6.913-.259-1.885A2.532,2.532,0,0,1,2434.5,523.783Z" transform="translate(-2434.486 -523.783)" fill="#0b0c28"/>
        </g>
        <g id="Grupo_20820" data-name="Grupo 20820" transform="translate(44.511 176.873)">
          <path id="Caminho_13342" data-name="Caminho 13342" d="M2298.565,560.029a22.242,22.242,0,0,1,.215-3.477c.182-2.138.393-5.092.48-8.361s.028-6.232-.041-8.376a22.265,22.265,0,0,1-.032-3.483,15.933,15.933,0,0,1,.49,3.457,78.326,78.326,0,0,1-.44,16.814A15.943,15.943,0,0,1,2298.565,560.029Z" transform="translate(-2298.534 -536.331)" fill="#0b0c28"/>
        </g>
        <g id="Grupo_20821" data-name="Grupo 20821" transform="translate(160.178 231.335)">
          <path id="Caminho_13343" data-name="Caminho 13343" d="M2458.606,614.953c-.1.022-.288-.82-.882-2.04a10.694,10.694,0,0,0-8.113-6.006c-1.34-.211-2.2-.142-2.208-.247a4.533,4.533,0,0,1,2.262-.21,9.937,9.937,0,0,1,8.48,6.278A4.541,4.541,0,0,1,2458.606,614.953Z" transform="translate(-2447.403 -606.426)" fill="#0b0c28"/>
        </g>
        <g id="Grupo_20822" data-name="Grupo 20822" transform="translate(156.977 236.55)">
          <path id="Caminho_13344" data-name="Caminho 13344" d="M2450.832,620.134c-.181.085-1.116-2.127-3.242-4.06-2.1-1.966-4.377-2.72-4.306-2.907.01-.162,2.515.347,4.747,2.43C2450.284,617.654,2450.993,620.11,2450.832,620.134Z" transform="translate(-2443.283 -613.138)" fill="#0b0c28"/>
        </g>
        <g id="Grupo_20823" data-name="Grupo 20823" transform="translate(141.538 236.635)">
          <path id="Caminho_13345" data-name="Caminho 13345" d="M2423.414,620.177c-.064-.175,3.479-1.619,7.788-3.53s7.767-3.553,7.853-3.388-3.253,2.068-7.589,3.982S2423.472,620.34,2423.414,620.177Z" transform="translate(-2423.413 -613.248)" fill="#0b0c28"/>
        </g>
        <g id="Grupo_20830" data-name="Grupo 20830" transform="translate(20.159 190.942)">
          <g id="Grupo_20829" data-name="Grupo 20829">
            <g id="Grupo_20828" data-name="Grupo 20828">
              <path id="Caminho_13346" data-name="Caminho 13346" d="M2267.191,554.438s17.917,85.365,17.917,84.248c0-1.019,90.45,3.879,106.639,4.59l3.367-.82,25.532-23.506-29.372-2.367-10.5-60.064Z" transform="translate(-2267.191 -554.438)" fill="#e0e0e0"/>
              <g id="Grupo_20824" data-name="Grupo 20824" transform="translate(113.571 2.081)">
                <path id="Caminho_13347" data-name="Caminho 13347" d="M2413.37,557.117c.177-.03,3.532,19.186,7.492,42.913s7.03,43,6.853,43.025-3.531-19.182-7.494-42.917S2413.193,557.147,2413.37,557.117Z" transform="translate(-2413.363 -557.117)" fill="#455a64"/>
              </g>
              <g id="Grupo_20825" data-name="Grupo 20825" transform="translate(110.521 2.123)">
                <path id="Caminho_13348" data-name="Caminho 13348" d="M2412.824,557.172a3.594,3.594,0,0,1-.647.639,17.013,17.013,0,0,0-1.867,1.775c-.313.418-.736.985-.514,1.586.176.687.269,1.413.421,2.205.28,1.59.6,3.386.945,5.364l5.287,31.093c1.986,12.126,3.784,23.1,5.1,31.129.613,3.934,1.113,7.143,1.472,9.446.152,1.066.274,1.922.367,2.573a4.812,4.812,0,0,1,.085.9,4.682,4.682,0,0,1-.214-.883c-.124-.646-.286-1.495-.489-2.553-.408-2.294-.977-5.492-1.675-9.411-1.364-8.021-3.228-18.984-5.288-31.1l-5.1-31.124c-.313-1.984-.6-3.785-.849-5.38-.134-.785-.214-1.545-.365-2.193a2,2,0,0,1,.623-1.82,14.069,14.069,0,0,1,1.977-1.714A7.094,7.094,0,0,1,2412.824,557.172Z" transform="translate(-2409.437 -557.171)" fill="#455a64"/>
              </g>
              <g id="Grupo_20826" data-name="Grupo 20826" transform="translate(0.957 3.304)">
                <path id="Caminho_13349" data-name="Caminho 13349" d="M2378.066,560.625a7.253,7.253,0,0,1-1.115.038l-3.2-.014-11.75-.164-38.761-.683-38.767-.648-11.748-.177-3.194-.069a7.126,7.126,0,0,1-1.114-.069,7.223,7.223,0,0,1,1.114-.062l3.195-.052c2.775-.037,6.79-.04,11.752-.029,9.923.029,23.632.186,38.774.457s28.84.6,38.76.873l11.745.371,3.192.137A7.014,7.014,0,0,1,2378.066,560.625Z" transform="translate(-2268.422 -558.69)" fill="#455a64"/>
              </g>
              <g id="Grupo_20827" data-name="Grupo 20827" transform="translate(124.01 64.539)">
                <path id="Caminho_13350" data-name="Caminho 13350" d="M2426.8,637.539a9.244,9.244,0,0,1,1.737-.016l4.746.19c4.016.187,9.588.49,15.811.866l.805.048-.615.523-1.148.976c-5.016,4.26-9.58,8.088-12.9,10.835l-3.959,3.226a10.3,10.3,0,0,1-1.509,1.116,10.383,10.383,0,0,1,1.345-1.308l3.825-3.384c3.249-2.836,7.765-6.72,12.781-10.979l1.15-.975.189.57c-6.223-.386-11.79-.764-15.8-1.068l-4.734-.391A9.247,9.247,0,0,1,2426.8,637.539Z" transform="translate(-2426.798 -637.503)" fill="#455a64"/>
              </g>
            </g>
            <path id="Caminho_13351" data-name="Caminho 13351" d="M2325.181,661.042h0l-1.158-13.9s4.634-.662,4.965,4.468V643s5.295-1.158,6.453,5.792a49.068,49.068,0,0,0,2.815,10.706l2.812,1.54-2.648-16.052s5.626.5,6.619,5.792a51.892,51.892,0,0,0,2.5,9.015l8.888,2.486s-5.1-4.55-4.6-6.039.166-1.4,1.158-1.608,3.22.438,4.743,1.249c1.617.86,10.978,6.4,10.978,6.4v6.865s-21.794,1.576-26.713.66l-9.533-2.207A10.1,10.1,0,0,1,2325.181,661.042Z" transform="translate(-2279.866 -574.175)" fill="#eebd9d"/>
          </g>
          <path id="Caminho_13352" data-name="Caminho 13352" d="M2348.88,605.839c.607,3.655-1.558,7.059-4.835,7.6s-6.426-1.977-7.033-5.633,1.559-7.059,4.836-7.6S2348.274,602.183,2348.88,605.839Z" transform="translate(-2282.74 -564.629)" fill="#fafafa"/>
        </g>
        <g id="Grupo_20831" data-name="Grupo 20831" transform="translate(159.978 230.355)" opacity="0.4">
          <path id="Caminho_13353" data-name="Caminho 13353" d="M2447.454,606.026a16.158,16.158,0,0,1,11.35.342,11.635,11.635,0,0,1,6.9,8.717,5.548,5.548,0,0,1-.189,2.652,2.961,2.961,0,0,1-1.814,1.849,3.454,3.454,0,0,1-3.645-1.74,21.972,21.972,0,0,1-1.613-4.016,12.667,12.667,0,0,0-11.3-7.834l.591.159" transform="translate(-2447.145 -605.165)"/>
        </g>
      </g>
      <path id="Caminho_13354" data-name="Caminho 13354" d="M2362.871,463.043c.743-2.346.074-4.871-.34-7.3s-.467-5.2,1.184-7.027,4.361-2.043,6.8-2.149l30.215-1.312c2.062-.089,4.448-.04,5.739,1.57a4.426,4.426,0,0,1,1.062,3.712c-1.552,5.754-1.067,10.6,1.191,14.653" transform="translate(-2268.241 -339.14)" fill="#5949f9"/>
      <g id="Grupo_20833" data-name="Grupo 20833" transform="translate(95.607 121.015)">
        <path id="Caminho_13355" data-name="Caminho 13355" d="M2404.252,464.444a8.686,8.686,0,0,1-1.321,1.112,35.226,35.226,0,0,1-3.979,2.516,38.987,38.987,0,0,1-14.8,4.517,34.913,34.913,0,0,1-8.569-.165,20.253,20.253,0,0,1-6.668-2.155,12.251,12.251,0,0,1-3.673-2.971,7.105,7.105,0,0,1-.741-1.05c-.15-.252-.22-.389-.2-.4a14.847,14.847,0,0,0,4.831,4.017,20.732,20.732,0,0,0,6.541,1.968,36.143,36.143,0,0,0,8.418.11,41.3,41.3,0,0,0,14.65-4.276C2402.254,465.883,2404.178,464.339,2404.252,464.444Z" transform="translate(-2364.296 -464.439)" fill="#0b0c28"/>
      </g>
      <g id="Grupo_20834" data-name="Grupo 20834" transform="translate(111.837 107.276)">
        <path id="Caminho_13356" data-name="Caminho 13356" d="M2388.287,468.744a17.952,17.952,0,0,1-.785-3.328c-.4-2.069-.915-4.935-1.44-8.108-.252-1.576-.491-3.077-.715-4.479a8,8,0,0,1,.124-3.785,3.693,3.693,0,0,1,1.586-2.019c.547-.3.9-.285.906-.253.015.054-.312.128-.768.465a3.706,3.706,0,0,0-1.286,1.947,8.037,8.037,0,0,0,.029,3.551c.239,1.4.5,2.9.765,4.466.526,3.172.966,6.05,1.253,8.139A17.78,17.78,0,0,1,2388.287,468.744Z" transform="translate(-2385.185 -446.757)" fill="#0b0c28"/>
      </g>
      <g id="Grupo_20835" data-name="Grupo 20835" transform="translate(126.807 106.414)">
        <path id="Caminho_13357" data-name="Caminho 13357" d="M2408.288,463.714a12.062,12.062,0,0,1-.567-2.743c-.268-1.7-.594-4.066-.914-6.678-.34-2.6-.527-5.02-.771-6.666a2.523,2.523,0,0,0-.942-1.605c-.37-.262-.647-.282-.641-.336-.006-.033.3-.11.772.118a2.619,2.619,0,0,1,1.257,1.71c.382,1.745.625,4.077.971,6.7.319,2.613.573,4.982.724,6.7A11.959,11.959,0,0,1,2408.288,463.714Z" transform="translate(-2404.453 -445.646)" fill="#0b0c28"/>
      </g>
      <g id="Grupo_20836" data-name="Grupo 20836" transform="translate(97.939 107.439)">
        <path id="Caminho_13358" data-name="Caminho 13358" d="M2371.254,446.982a6.719,6.719,0,0,0-2.032,1.7,6.49,6.49,0,0,0-1.11,2.611,13.5,13.5,0,0,0-.106,3.554c.234,2.566.452,4.915.558,6.609a1.385,1.385,0,1,1-.458.046c-.224-1.688-.512-4.008-.748-6.606a12.72,12.72,0,0,1,.168-3.725,6.482,6.482,0,0,1,1.336-2.775A3.3,3.3,0,0,1,2371.254,446.982Z" transform="translate(-2367.298 -446.966)" fill="#0b0c28"/>
      </g>
    </g>
  </g>
</svg>
