<svg xmlns="http://www.w3.org/2000/svg" xmlns:xlink="http://www.w3.org/1999/xlink" width="360" height="277" viewBox="0 0 360 277">
  <defs>
    <clipPath id="clip-path">
      <rect id="Retângulo_1600" data-name="Retângulo 1600" width="360" height="277" transform="translate(640 948)" fill="#f6f6ff"/>
    </clipPath>
  </defs>
  <g id="Grupo_de_máscara_177" data-name="Grupo de máscara 177" transform="translate(-640 -948)" clip-path="url(#clip-path)">
    <g id="Grupo_21202" data-name="Grupo 21202" transform="translate(658.053 964.136)">
      <g id="Grupo_21028" data-name="Grupo 21028" transform="translate(0 0)">
        <g id="Grupo_20846" data-name="Grupo 20846" transform="translate(26.11 29.306)">
          <g id="Grupo_20839" data-name="Grupo 20839">
            <path id="Caminho_13359" data-name="Caminho 13359" d="M1711.1,381.225s.247,29.067,1.725,37.935l36.456-1.725s-3.2-28.574-1.971-36.21Z" transform="translate(-1711.1 -381.225)" fill="#5949f9"/>
          </g>
          <g id="Grupo_20841" data-name="Grupo 20841" transform="translate(6.252 12.154)">
            <g id="Grupo_20840" data-name="Grupo 20840">
              <path id="Caminho_13360" data-name="Caminho 13360" d="M1743.85,397.388c.01.161-5.459.621-12.214,1.028s-12.24.605-12.25.444,5.458-.621,12.215-1.028S1743.841,397.227,1743.85,397.388Z" transform="translate(-1719.386 -397.332)" fill="#fff"/>
            </g>
          </g>
          <g id="Grupo_20843" data-name="Grupo 20843" transform="translate(6.262 18.31)">
            <g id="Grupo_20842" data-name="Grupo 20842">
              <path id="Caminho_13361" data-name="Caminho 13361" d="M1743.863,405.548c.01.161-5.459.621-12.214,1.027s-12.241.605-12.25.444,5.458-.621,12.215-1.027S1743.854,405.387,1743.863,405.548Z" transform="translate(-1719.399 -405.492)" fill="#fff"/>
            </g>
          </g>
          <g id="Grupo_20845" data-name="Grupo 20845" transform="translate(10.591 24.32)">
            <g id="Grupo_20844" data-name="Grupo 20844">
              <path id="Caminho_13362" data-name="Caminho 13362" d="M1739.075,413.547a83.562,83.562,0,0,1-13.938.838,83.793,83.793,0,0,1,13.938-.838Z" transform="translate(-1725.136 -413.456)" fill="#fff"/>
            </g>
          </g>
        </g>
        <g id="Grupo_20854" data-name="Grupo 20854" transform="translate(155.409 35.329)">
          <g id="Grupo_20847" data-name="Grupo 20847">
            <path id="Caminho_13363" data-name="Caminho 13363" d="M1882.461,389.207s.246,29.067,1.724,37.934l36.457-1.724s-3.2-28.574-1.97-36.21Z" transform="translate(-1882.461 -389.207)" fill="#5949f9"/>
          </g>
          <g id="Grupo_20849" data-name="Grupo 20849" transform="translate(6.251 12.153)">
            <g id="Grupo_20848" data-name="Grupo 20848">
              <path id="Caminho_13364" data-name="Caminho 13364" d="M1915.211,405.37c.01.161-5.46.621-12.214,1.027s-12.24.606-12.25.444,5.458-.62,12.215-1.027S1915.2,405.209,1915.211,405.37Z" transform="translate(-1890.746 -405.314)" fill="#fff"/>
            </g>
          </g>
          <g id="Grupo_20851" data-name="Grupo 20851" transform="translate(6.261 18.31)">
            <g id="Grupo_20850" data-name="Grupo 20850">
              <path id="Caminho_13365" data-name="Caminho 13365" d="M1915.224,413.53c.01.161-5.46.62-12.214,1.027s-12.24.605-12.25.444,5.458-.621,12.215-1.028S1915.214,413.368,1915.224,413.53Z" transform="translate(-1890.759 -413.474)" fill="#fff"/>
            </g>
          </g>
          <g id="Grupo_20853" data-name="Grupo 20853" transform="translate(10.59 24.319)">
            <g id="Grupo_20852" data-name="Grupo 20852">
              <path id="Caminho_13366" data-name="Caminho 13366" d="M1910.435,421.529a83.572,83.572,0,0,1-13.939.838,83.584,83.584,0,0,1,13.939-.838Z" transform="translate(-1896.496 -421.438)" fill="#fff"/>
            </g>
          </g>
        </g>
        <g id="Grupo_20862" data-name="Grupo 20862" transform="translate(155.409 84.56)">
          <g id="Grupo_20855" data-name="Grupo 20855">
            <path id="Caminho_13367" data-name="Caminho 13367" d="M1882.461,454.453s.246,29.066,1.724,37.934l36.457-1.724s-3.2-28.574-1.97-36.21Z" transform="translate(-1882.461 -454.453)" fill="#0b0c28"/>
          </g>
          <g id="Grupo_20857" data-name="Grupo 20857" transform="translate(6.251 12.153)">
            <g id="Grupo_20856" data-name="Grupo 20856">
              <path id="Caminho_13368" data-name="Caminho 13368" d="M1915.211,470.616c.01.161-5.46.621-12.214,1.027s-12.24.605-12.25.444,5.458-.621,12.215-1.027S1915.2,470.455,1915.211,470.616Z" transform="translate(-1890.746 -470.56)" fill="#fff"/>
            </g>
          </g>
          <g id="Grupo_20859" data-name="Grupo 20859" transform="translate(6.261 18.31)">
            <g id="Grupo_20858" data-name="Grupo 20858">
              <path id="Caminho_13369" data-name="Caminho 13369" d="M1915.224,478.775c.01.161-5.46.621-12.214,1.028s-12.24.605-12.25.444,5.458-.621,12.215-1.028S1915.214,478.614,1915.224,478.775Z" transform="translate(-1890.759 -478.719)" fill="#fff"/>
            </g>
          </g>
          <g id="Grupo_20861" data-name="Grupo 20861" transform="translate(10.59 24.319)">
            <g id="Grupo_20860" data-name="Grupo 20860">
              <path id="Caminho_13370" data-name="Caminho 13370" d="M1910.435,486.775a83.8,83.8,0,0,1-13.939.838,83.584,83.584,0,0,1,13.939-.838Z" transform="translate(-1896.496 -486.683)" fill="#fff"/>
            </g>
          </g>
        </g>
        <g id="Grupo_20870" data-name="Grupo 20870" transform="translate(151.156 142.139)">
          <g id="Grupo_20863" data-name="Grupo 20863">
            <path id="Caminho_13371" data-name="Caminho 13371" d="M1876.825,530.764s.246,29.066,1.724,37.934l36.456-1.724s-3.2-28.574-1.97-36.21Z" transform="translate(-1876.825 -530.764)" fill="#0b0c28"/>
          </g>
          <g id="Grupo_20865" data-name="Grupo 20865" transform="translate(6.251 12.153)">
            <g id="Grupo_20864" data-name="Grupo 20864">
              <path id="Caminho_13372" data-name="Caminho 13372" d="M1909.574,546.926c.01.161-5.459.621-12.214,1.028s-12.24.605-12.25.444,5.458-.621,12.215-1.028S1909.565,546.765,1909.574,546.926Z" transform="translate(-1885.11 -546.87)" fill="#fff"/>
            </g>
          </g>
          <g id="Grupo_20867" data-name="Grupo 20867" transform="translate(6.261 18.31)">
            <g id="Grupo_20866" data-name="Grupo 20866">
              <path id="Caminho_13373" data-name="Caminho 13373" d="M1909.587,555.086c.009.161-5.46.621-12.214,1.027s-12.24.605-12.25.444,5.458-.621,12.215-1.027S1909.578,554.925,1909.587,555.086Z" transform="translate(-1885.123 -555.03)" fill="#fff"/>
            </g>
          </g>
          <g id="Grupo_20869" data-name="Grupo 20869" transform="translate(10.59 24.319)">
            <g id="Grupo_20868" data-name="Grupo 20868">
              <path id="Caminho_13374" data-name="Caminho 13374" d="M1904.8,563.085a83.58,83.58,0,0,1-13.939.838,83.8,83.8,0,0,1,13.939-.838Z" transform="translate(-1890.86 -562.994)" fill="#fff"/>
            </g>
          </g>
        </g>
        <g id="Grupo_20878" data-name="Grupo 20878" transform="translate(199.481 142.39)">
          <g id="Grupo_20871" data-name="Grupo 20871">
            <path id="Caminho_13375" data-name="Caminho 13375" d="M1940.871,531.1s.246,29.067,1.724,37.934l36.456-1.724s-3.2-28.574-1.97-36.21Z" transform="translate(-1940.871 -531.097)" fill="#0b0c28"/>
          </g>
          <g id="Grupo_20873" data-name="Grupo 20873" transform="translate(6.251 12.153)">
            <g id="Grupo_20872" data-name="Grupo 20872">
              <path id="Caminho_13376" data-name="Caminho 13376" d="M1973.621,547.26c.009.161-5.46.621-12.214,1.027s-12.24.606-12.25.444,5.458-.62,12.215-1.027S1973.611,547.1,1973.621,547.26Z" transform="translate(-1949.156 -547.204)" fill="#fff"/>
            </g>
          </g>
          <g id="Grupo_20875" data-name="Grupo 20875" transform="translate(6.261 18.31)">
            <g id="Grupo_20874" data-name="Grupo 20874">
              <path id="Caminho_13377" data-name="Caminho 13377" d="M1973.634,555.42c.009.161-5.46.62-12.214,1.027s-12.24.605-12.25.444,5.458-.621,12.215-1.028S1973.624,555.258,1973.634,555.42Z" transform="translate(-1949.169 -555.364)" fill="#fff"/>
            </g>
          </g>
          <g id="Grupo_20877" data-name="Grupo 20877" transform="translate(10.59 24.319)">
            <g id="Grupo_20876" data-name="Grupo 20876">
              <path id="Caminho_13378" data-name="Caminho 13378" d="M1968.844,563.419a83.776,83.776,0,0,1-13.938.838,83.583,83.583,0,0,1,13.938-.838Z" transform="translate(-1954.906 -563.328)" fill="#fff"/>
            </g>
          </g>
        </g>
        <g id="Grupo_20886" data-name="Grupo 20886" transform="translate(239.904 144.475)">
          <g id="Grupo_20879" data-name="Grupo 20879">
            <path id="Caminho_13379" data-name="Caminho 13379" d="M1994.444,533.86s.246,29.066,1.724,37.934l36.457-1.724s-3.2-28.574-1.971-36.21Z" transform="translate(-1994.444 -533.86)" fill="#5949f9"/>
          </g>
          <g id="Grupo_20881" data-name="Grupo 20881" transform="translate(6.251 12.153)">
            <g id="Grupo_20880" data-name="Grupo 20880">
              <path id="Caminho_13380" data-name="Caminho 13380" d="M2027.194,550.023c.01.161-5.46.62-12.214,1.027s-12.24.605-12.25.444,5.458-.621,12.215-1.028S2027.184,549.861,2027.194,550.023Z" transform="translate(-2002.729 -549.967)" fill="#fff"/>
            </g>
          </g>
          <g id="Grupo_20883" data-name="Grupo 20883" transform="translate(6.261 18.31)">
            <g id="Grupo_20882" data-name="Grupo 20882">
              <path id="Caminho_13381" data-name="Caminho 13381" d="M2027.207,558.182c.01.161-5.46.621-12.214,1.027s-12.24.606-12.25.444,5.458-.62,12.215-1.027S2027.2,558.021,2027.207,558.182Z" transform="translate(-2002.742 -558.126)" fill="#fff"/>
            </g>
          </g>
          <g id="Grupo_20885" data-name="Grupo 20885" transform="translate(10.59 24.319)">
            <g id="Grupo_20884" data-name="Grupo 20884">
              <path id="Caminho_13382" data-name="Caminho 13382" d="M2022.418,566.181a83.578,83.578,0,0,1-13.939.838,83.782,83.782,0,0,1,13.939-.838Z" transform="translate(-2008.479 -566.09)" fill="#fff"/>
            </g>
          </g>
        </g>
        <g id="Grupo_20894" data-name="Grupo 20894" transform="translate(192.671 194.174)">
          <g id="Grupo_20887" data-name="Grupo 20887">
            <path id="Caminho_13383" data-name="Caminho 13383" d="M1931.845,599.727s.247,29.066,1.724,37.934l36.457-1.724s-3.2-28.574-1.971-36.21Z" transform="translate(-1931.845 -599.727)" fill="#0b0c28"/>
          </g>
          <g id="Grupo_20889" data-name="Grupo 20889" transform="translate(6.251 12.153)">
            <g id="Grupo_20888" data-name="Grupo 20888">
              <path id="Caminho_13384" data-name="Caminho 13384" d="M1964.595,615.89c.01.161-5.459.62-12.214,1.027s-12.241.605-12.251.444,5.458-.621,12.215-1.027S1964.585,615.728,1964.595,615.89Z" transform="translate(-1940.13 -615.834)" fill="#fff"/>
            </g>
          </g>
          <g id="Grupo_20891" data-name="Grupo 20891" transform="translate(6.261 18.31)">
            <g id="Grupo_20890" data-name="Grupo 20890">
              <path id="Caminho_13385" data-name="Caminho 13385" d="M1964.608,624.049c.01.161-5.459.621-12.214,1.027s-12.241.606-12.251.444,5.458-.62,12.215-1.027S1964.6,623.888,1964.608,624.049Z" transform="translate(-1940.143 -623.993)" fill="#fff"/>
            </g>
          </g>
          <g id="Grupo_20893" data-name="Grupo 20893" transform="translate(10.591 24.319)">
            <g id="Grupo_20892" data-name="Grupo 20892">
              <path id="Caminho_13386" data-name="Caminho 13386" d="M1959.819,632.048a83.661,83.661,0,0,1-13.938.839,83.652,83.652,0,0,1,13.938-.839Z" transform="translate(-1945.881 -631.957)" fill="#fff"/>
            </g>
          </g>
        </g>
        <g id="Grupo_20902" data-name="Grupo 20902" transform="translate(46.563 94.538)">
          <g id="Grupo_20895" data-name="Grupo 20895">
            <path id="Caminho_13387" data-name="Caminho 13387" d="M1738.207,467.678s.247,29.067,1.725,37.934l36.456-1.724s-3.2-28.574-1.971-36.21Z" transform="translate(-1738.207 -467.678)" fill="#0b0c28"/>
          </g>
          <g id="Grupo_20897" data-name="Grupo 20897" transform="translate(6.252 12.154)">
            <g id="Grupo_20896" data-name="Grupo 20896">
              <path id="Caminho_13388" data-name="Caminho 13388" d="M1770.957,483.841c.01.161-5.459.621-12.214,1.027s-12.24.606-12.25.444,5.458-.62,12.215-1.027S1770.948,483.68,1770.957,483.841Z" transform="translate(-1746.493 -483.785)" fill="#fff"/>
            </g>
          </g>
          <g id="Grupo_20899" data-name="Grupo 20899" transform="translate(6.262 18.31)">
            <g id="Grupo_20898" data-name="Grupo 20898">
              <path id="Caminho_13389" data-name="Caminho 13389" d="M1770.97,492c.01.161-5.459.62-12.214,1.027s-12.241.605-12.25.444,5.458-.621,12.215-1.027S1770.961,491.839,1770.97,492Z" transform="translate(-1746.506 -491.945)" fill="#fff"/>
            </g>
          </g>
          <g id="Grupo_20901" data-name="Grupo 20901" transform="translate(10.591 24.32)">
            <g id="Grupo_20900" data-name="Grupo 20900">
              <path id="Caminho_13390" data-name="Caminho 13390" d="M1766.182,500a83.562,83.562,0,0,1-13.938.838,83.588,83.588,0,0,1,13.938-.838Z" transform="translate(-1752.243 -499.909)" fill="#fff"/>
            </g>
          </g>
        </g>
        <g id="Grupo_20910" data-name="Grupo 20910" transform="translate(212.003 84.56)">
          <g id="Grupo_20903" data-name="Grupo 20903">
            <path id="Caminho_13391" data-name="Caminho 13391" d="M1957.467,454.453s.247,29.066,1.725,37.934l36.456-1.724s-3.2-28.574-1.971-36.21Z" transform="translate(-1957.467 -454.453)" fill="#0b0c28"/>
          </g>
          <g id="Grupo_20905" data-name="Grupo 20905" transform="translate(6.252 12.153)">
            <g id="Grupo_20904" data-name="Grupo 20904">
              <path id="Caminho_13392" data-name="Caminho 13392" d="M1990.218,470.616c.009.161-5.46.621-12.215,1.027s-12.24.605-12.25.444,5.458-.621,12.215-1.027S1990.208,470.455,1990.218,470.616Z" transform="translate(-1965.753 -470.56)" fill="#fff"/>
            </g>
          </g>
          <g id="Grupo_20907" data-name="Grupo 20907" transform="translate(6.262 18.31)">
            <g id="Grupo_20906" data-name="Grupo 20906">
              <path id="Caminho_13393" data-name="Caminho 13393" d="M1990.231,478.775c.009.161-5.46.621-12.214,1.028s-12.24.605-12.25.444,5.458-.621,12.215-1.028S1990.221,478.614,1990.231,478.775Z" transform="translate(-1965.766 -478.719)" fill="#fff"/>
            </g>
          </g>
          <g id="Grupo_20909" data-name="Grupo 20909" transform="translate(10.591 24.319)">
            <g id="Grupo_20908" data-name="Grupo 20908">
              <path id="Caminho_13394" data-name="Caminho 13394" d="M1985.442,486.775a83.793,83.793,0,0,1-13.938.838,83.583,83.583,0,0,1,13.938-.838Z" transform="translate(-1971.503 -486.683)" fill="#fff"/>
            </g>
          </g>
        </g>
        <g id="Grupo_20918" data-name="Grupo 20918" transform="translate(291.514 135.13)">
          <g id="Grupo_20911" data-name="Grupo 20911">
            <path id="Caminho_13395" data-name="Caminho 13395" d="M2062.844,521.475s.246,29.067,1.724,37.935l36.457-1.725s-3.2-28.574-1.97-36.21Z" transform="translate(-2062.844 -521.475)" fill="#5949f9"/>
          </g>
          <g id="Grupo_20913" data-name="Grupo 20913" transform="translate(6.251 12.154)">
            <g id="Grupo_20912" data-name="Grupo 20912">
              <path id="Caminho_13396" data-name="Caminho 13396" d="M2095.594,537.638c.01.161-5.46.621-12.215,1.028s-12.24.605-12.25.444,5.458-.621,12.215-1.028S2095.584,537.477,2095.594,537.638Z" transform="translate(-2071.129 -537.582)" fill="#fff"/>
            </g>
          </g>
          <g id="Grupo_20915" data-name="Grupo 20915" transform="translate(6.261 18.31)">
            <g id="Grupo_20914" data-name="Grupo 20914">
              <path id="Caminho_13397" data-name="Caminho 13397" d="M2095.607,545.8c.009.161-5.46.621-12.215,1.027s-12.24.605-12.25.444,5.458-.621,12.215-1.027S2095.6,545.637,2095.607,545.8Z" transform="translate(-2071.142 -545.742)" fill="#fff"/>
            </g>
          </g>
          <g id="Grupo_20917" data-name="Grupo 20917" transform="translate(10.59 24.32)">
            <g id="Grupo_20916" data-name="Grupo 20916">
              <path id="Caminho_13398" data-name="Caminho 13398" d="M2090.818,553.8a83.563,83.563,0,0,1-13.939.838,83.8,83.8,0,0,1,13.939-.838Z" transform="translate(-2076.879 -553.706)" fill="#fff"/>
            </g>
          </g>
        </g>
        <g id="Grupo_20926" data-name="Grupo 20926" transform="translate(198.318 13.628)">
          <g id="Grupo_20919" data-name="Grupo 20919">
            <path id="Caminho_13399" data-name="Caminho 13399" d="M1939.329,360.447s.246,29.066,1.724,37.934l36.457-1.724s-3.2-28.574-1.971-36.21Z" transform="translate(-1939.329 -360.447)" fill="#5949f9"/>
          </g>
          <g id="Grupo_20921" data-name="Grupo 20921" transform="translate(6.251 12.153)">
            <g id="Grupo_20920" data-name="Grupo 20920">
              <path id="Caminho_13400" data-name="Caminho 13400" d="M1972.078,376.609c.01.161-5.459.621-12.214,1.028s-12.241.605-12.251.444,5.458-.621,12.215-1.028S1972.069,376.448,1972.078,376.609Z" transform="translate(-1947.614 -376.553)" fill="#fff"/>
            </g>
          </g>
          <g id="Grupo_20923" data-name="Grupo 20923" transform="translate(6.261 18.31)">
            <g id="Grupo_20922" data-name="Grupo 20922">
              <path id="Caminho_13401" data-name="Caminho 13401" d="M1972.092,384.769c.01.161-5.46.621-12.214,1.027s-12.241.605-12.251.444,5.458-.62,12.215-1.027S1972.082,384.608,1972.092,384.769Z" transform="translate(-1947.627 -384.713)" fill="#fff"/>
            </g>
          </g>
          <g id="Grupo_20925" data-name="Grupo 20925" transform="translate(10.591 24.319)">
            <g id="Grupo_20924" data-name="Grupo 20924">
              <path id="Caminho_13402" data-name="Caminho 13402" d="M1967.3,392.768a83.556,83.556,0,0,1-13.938.838,83.773,83.773,0,0,1,13.938-.838Z" transform="translate(-1953.365 -392.677)" fill="#fff"/>
            </g>
          </g>
        </g>
        <g id="Grupo_20934" data-name="Grupo 20934" transform="translate(167.043)">
          <g id="Grupo_20927" data-name="Grupo 20927">
            <path id="Caminho_13403" data-name="Caminho 13403" d="M1897.881,342.385s.246,29.067,1.724,37.934l36.457-1.724s-3.2-28.574-1.971-36.21Z" transform="translate(-1897.881 -342.385)" fill="#5949f9"/>
          </g>
          <g id="Grupo_20929" data-name="Grupo 20929" transform="translate(6.251 12.154)">
            <g id="Grupo_20928" data-name="Grupo 20928">
              <path id="Caminho_13404" data-name="Caminho 13404" d="M1930.63,358.548c.01.161-5.459.621-12.214,1.027s-12.241.606-12.251.444,5.458-.62,12.215-1.027S1930.621,358.387,1930.63,358.548Z" transform="translate(-1906.166 -358.492)" fill="#fff"/>
            </g>
          </g>
          <g id="Grupo_20931" data-name="Grupo 20931" transform="translate(6.261 18.31)">
            <g id="Grupo_20930" data-name="Grupo 20930">
              <path id="Caminho_13405" data-name="Caminho 13405" d="M1930.644,366.708c.01.161-5.459.62-12.214,1.027s-12.241.605-12.251.444,5.458-.621,12.215-1.027S1930.634,366.547,1930.644,366.708Z" transform="translate(-1906.179 -366.652)" fill="#fff"/>
            </g>
          </g>
          <g id="Grupo_20933" data-name="Grupo 20933" transform="translate(10.591 24.32)">
            <g id="Grupo_20932" data-name="Grupo 20932">
              <path id="Caminho_13406" data-name="Caminho 13406" d="M1925.855,374.707a83.565,83.565,0,0,1-13.938.838,83.564,83.564,0,0,1,13.938-.838Z" transform="translate(-1911.917 -374.616)" fill="#fff"/>
            </g>
          </g>
        </g>
        <g id="Grupo_20942" data-name="Grupo 20942" transform="translate(262.991 86.675)">
          <g id="Grupo_20935" data-name="Grupo 20935">
            <path id="Caminho_13407" data-name="Caminho 13407" d="M2025.042,457.256s.246,29.066,1.724,37.934l36.456-1.724s-3.2-28.574-1.97-36.21Z" transform="translate(-2025.042 -457.256)" fill="#5949f9"/>
          </g>
          <g id="Grupo_20937" data-name="Grupo 20937" transform="translate(6.251 12.153)">
            <g id="Grupo_20936" data-name="Grupo 20936">
              <path id="Caminho_13408" data-name="Caminho 13408" d="M2057.792,473.419c.009.161-5.46.62-12.214,1.027s-12.24.605-12.25.444,5.458-.621,12.215-1.027S2057.782,473.258,2057.792,473.419Z" transform="translate(-2033.327 -473.363)" fill="#fff"/>
            </g>
          </g>
          <g id="Grupo_20939" data-name="Grupo 20939" transform="translate(6.261 18.31)">
            <g id="Grupo_20938" data-name="Grupo 20938">
              <path id="Caminho_13409" data-name="Caminho 13409" d="M2057.8,481.578c.009.161-5.46.621-12.215,1.028s-12.24.605-12.25.444,5.458-.62,12.215-1.027S2057.795,481.417,2057.8,481.578Z" transform="translate(-2033.34 -481.522)" fill="#fff"/>
            </g>
          </g>
          <g id="Grupo_20941" data-name="Grupo 20941" transform="translate(10.59 24.319)">
            <g id="Grupo_20940" data-name="Grupo 20940">
              <path id="Caminho_13410" data-name="Caminho 13410" d="M2053.016,489.578a83.778,83.778,0,0,1-13.939.838,83.584,83.584,0,0,1,13.939-.838Z" transform="translate(-2039.077 -489.486)" fill="#fff"/>
            </g>
          </g>
        </g>
        <g id="Grupo_20950" data-name="Grupo 20950" transform="translate(0 158.936)">
          <g id="Grupo_20943" data-name="Grupo 20943">
            <path id="Caminho_13411" data-name="Caminho 13411" d="M1676.5,553.025s.246,29.066,1.724,37.934l36.457-1.724s-3.2-28.574-1.971-36.21Z" transform="translate(-1676.496 -553.025)" fill="#5949f9"/>
          </g>
          <g id="Grupo_20945" data-name="Grupo 20945" transform="translate(6.251 12.153)">
            <g id="Grupo_20944" data-name="Grupo 20944">
              <path id="Caminho_13412" data-name="Caminho 13412" d="M1709.245,569.187c.01.161-5.459.621-12.214,1.028s-12.241.605-12.25.444,5.458-.621,12.215-1.028S1709.236,569.026,1709.245,569.187Z" transform="translate(-1684.781 -569.131)" fill="#fff"/>
            </g>
          </g>
          <g id="Grupo_20947" data-name="Grupo 20947" transform="translate(6.261 18.31)">
            <g id="Grupo_20946" data-name="Grupo 20946">
              <path id="Caminho_13413" data-name="Caminho 13413" d="M1709.259,577.347c.01.161-5.46.621-12.214,1.027s-12.241.606-12.251.444,5.458-.62,12.215-1.027S1709.249,577.186,1709.259,577.347Z" transform="translate(-1684.794 -577.291)" fill="#fff"/>
            </g>
          </g>
          <g id="Grupo_20949" data-name="Grupo 20949" transform="translate(10.591 24.319)">
            <g id="Grupo_20948" data-name="Grupo 20948">
              <path id="Caminho_13414" data-name="Caminho 13414" d="M1704.47,585.346a83.565,83.565,0,0,1-13.938.838,83.784,83.784,0,0,1,13.938-.838Z" transform="translate(-1690.532 -585.255)" fill="#fff"/>
            </g>
          </g>
        </g>
        <g id="Grupo_20958" data-name="Grupo 20958" transform="translate(20.672 74.85)">
          <g id="Grupo_20951" data-name="Grupo 20951">
            <path id="Caminho_13415" data-name="Caminho 13415" d="M1703.893,441.585s.246,29.067,1.724,37.934l36.457-1.724s-3.2-28.574-1.971-36.21Z" transform="translate(-1703.893 -441.585)" fill="#5949f9"/>
          </g>
          <g id="Grupo_20953" data-name="Grupo 20953" transform="translate(6.251 12.154)">
            <g id="Grupo_20952" data-name="Grupo 20952">
              <path id="Caminho_13416" data-name="Caminho 13416" d="M1736.642,457.748c.01.161-5.459.621-12.214,1.027s-12.241.606-12.251.444,5.458-.62,12.215-1.027S1736.633,457.587,1736.642,457.748Z" transform="translate(-1712.178 -457.692)" fill="#fff"/>
            </g>
          </g>
          <g id="Grupo_20955" data-name="Grupo 20955" transform="translate(6.261 18.31)">
            <g id="Grupo_20954" data-name="Grupo 20954">
              <path id="Caminho_13417" data-name="Caminho 13417" d="M1736.655,465.908c.01.161-5.46.62-12.214,1.027s-12.241.605-12.251.444,5.458-.621,12.215-1.027S1736.646,465.746,1736.655,465.908Z" transform="translate(-1712.191 -465.852)" fill="#fff"/>
            </g>
          </g>
          <g id="Grupo_20957" data-name="Grupo 20957" transform="translate(10.591 24.32)">
            <g id="Grupo_20956" data-name="Grupo 20956">
              <path id="Caminho_13418" data-name="Caminho 13418" d="M1731.867,473.907a83.557,83.557,0,0,1-13.938.838,83.569,83.569,0,0,1,13.938-.838Z" transform="translate(-1717.929 -473.816)" fill="#fff"/>
            </g>
          </g>
        </g>
        <g id="Grupo_20966" data-name="Grupo 20966" transform="translate(72.898 6.814)">
          <g id="Grupo_20959" data-name="Grupo 20959">
            <path id="Caminho_13419" data-name="Caminho 13419" d="M1773.108,351.416s.247,29.066,1.725,37.934l36.456-1.724s-3.2-28.574-1.971-36.21Z" transform="translate(-1773.108 -351.416)" fill="#5949f9"/>
          </g>
          <g id="Grupo_20961" data-name="Grupo 20961" transform="translate(6.252 12.153)">
            <g id="Grupo_20960" data-name="Grupo 20960">
              <path id="Caminho_13420" data-name="Caminho 13420" d="M1805.858,367.579c.01.161-5.459.621-12.214,1.027s-12.241.605-12.25.444,5.458-.621,12.215-1.027S1805.848,367.418,1805.858,367.579Z" transform="translate(-1781.394 -367.523)" fill="#fff"/>
            </g>
          </g>
          <g id="Grupo_20963" data-name="Grupo 20963" transform="translate(6.261 18.31)">
            <g id="Grupo_20962" data-name="Grupo 20962">
              <path id="Caminho_13421" data-name="Caminho 13421" d="M1805.871,375.738c.01.161-5.459.621-12.214,1.028s-12.241.605-12.251.444,5.458-.62,12.215-1.027S1805.861,375.577,1805.871,375.738Z" transform="translate(-1781.406 -375.682)" fill="#fff"/>
            </g>
          </g>
          <g id="Grupo_20965" data-name="Grupo 20965" transform="translate(10.591 24.319)">
            <g id="Grupo_20964" data-name="Grupo 20964">
              <path id="Caminho_13422" data-name="Caminho 13422" d="M1801.083,383.738a83.784,83.784,0,0,1-13.938.838,83.571,83.571,0,0,1,13.938-.838Z" transform="translate(-1787.144 -383.647)" fill="#fff"/>
            </g>
          </g>
        </g>
        <g id="Grupo_20977" data-name="Grupo 20977" transform="translate(244.316 18.842)">
          <g id="Grupo_20967" data-name="Grupo 20967" transform="translate(4.43 4.569)">
            <path id="Caminho_13423" data-name="Caminho 13423" d="M2042.976,373.411s2.946,26.922-.842,41.663l-35.972-1.572s7.708-26.558,2.975-38.323Z" transform="translate(-2006.162 -373.411)" fill="#ebebeb"/>
          </g>
          <g id="Grupo_20976" data-name="Grupo 20976">
            <g id="Grupo_20968" data-name="Grupo 20968">
              <path id="Caminho_13424" data-name="Caminho 13424" d="M2004.526,367.356s-2.264,30.53-4.234,36.689l32.761,3.448,4.926-4.68s3.487-26.929,2.994-34.566Z" transform="translate(-2000.291 -367.356)" fill="#0b0c28"/>
            </g>
            <g id="Grupo_20969" data-name="Grupo 20969" transform="translate(32.761 35.211)">
              <path id="Caminho_13425" data-name="Caminho 13425" d="M2044.449,414.021l-.739,4.927,4.927-4.68Z" transform="translate(-2043.71 -414.021)" fill="#0b0c28"/>
            </g>
            <g id="Grupo_20971" data-name="Grupo 20971" transform="translate(8.885 12.065)">
              <g id="Grupo_20970" data-name="Grupo 20970">
                <path id="Caminho_13426" data-name="Caminho 13426" d="M2037.051,386.705a25.21,25.21,0,0,1-3.671-.436l-8.818-1.244-8.838-1.1a25.107,25.107,0,0,1-3.657-.538,21.466,21.466,0,0,1,3.7.128c2.277.167,5.419.475,8.875.934s6.567.982,8.809,1.416A21.428,21.428,0,0,1,2037.051,386.705Z" transform="translate(-2012.067 -383.345)" fill="#fff"/>
              </g>
            </g>
            <g id="Grupo_20973" data-name="Grupo 20973" transform="translate(8.482 19.104)">
              <g id="Grupo_20972" data-name="Grupo 20972">
                <path id="Caminho_13427" data-name="Caminho 13427" d="M2035.493,395.723a20.116,20.116,0,0,1-3.542-.125c-2.182-.161-5.19-.453-8.5-.871s-6.3-.885-8.454-1.271a20.123,20.123,0,0,1-3.462-.761,22.65,22.65,0,0,1,3.525.353l8.464,1.1,8.47,1.039A22.608,22.608,0,0,1,2035.493,395.723Z" transform="translate(-2011.532 -392.674)" fill="#fff"/>
              </g>
            </g>
            <g id="Grupo_20975" data-name="Grupo 20975" transform="translate(8.446 25.372)">
              <g id="Grupo_20974" data-name="Grupo 20974">
                <path id="Caminho_13428" data-name="Caminho 13428" d="M2033.435,403.957a210.473,210.473,0,0,1-21.95-2.947,210.331,210.331,0,0,1,21.95,2.947Z" transform="translate(-2011.485 -400.981)" fill="#fff"/>
              </g>
            </g>
          </g>
        </g>
        <g id="Grupo_20987" data-name="Grupo 20987" transform="translate(173.224 53.195)">
          <g id="Grupo_20986" data-name="Grupo 20986">
            <g id="Grupo_20978" data-name="Grupo 20978">
              <path id="Caminho_13429" data-name="Caminho 13429" d="M1910.307,412.885s-2.264,30.53-4.234,36.689l32.762,3.448,4.927-4.68s3.487-26.93,2.994-34.567Z" transform="translate(-1906.072 -412.885)" fill="#0b0c28"/>
            </g>
            <g id="Grupo_20979" data-name="Grupo 20979" transform="translate(32.762 35.211)">
              <path id="Caminho_13430" data-name="Caminho 13430" d="M1950.231,459.55l-.739,4.927,4.927-4.68Z" transform="translate(-1949.492 -459.55)" fill="#0b0c28"/>
            </g>
            <g id="Grupo_20981" data-name="Grupo 20981" transform="translate(8.886 12.065)">
              <g id="Grupo_20980" data-name="Grupo 20980">
                <path id="Caminho_13431" data-name="Caminho 13431" d="M1942.833,432.234a25.226,25.226,0,0,1-3.672-.436l-8.818-1.244-8.837-1.1a25.1,25.1,0,0,1-3.657-.538,21.466,21.466,0,0,1,3.7.128c2.277.167,5.418.476,8.874.934s6.567.982,8.809,1.416A21.447,21.447,0,0,1,1942.833,432.234Z" transform="translate(-1917.849 -428.874)" fill="#fff"/>
              </g>
            </g>
            <g id="Grupo_20983" data-name="Grupo 20983" transform="translate(8.482 19.104)">
              <g id="Grupo_20982" data-name="Grupo 20982">
                <path id="Caminho_13432" data-name="Caminho 13432" d="M1941.275,441.252a20.153,20.153,0,0,1-3.543-.124c-2.182-.162-5.191-.453-8.5-.871s-6.3-.885-8.454-1.271a20.164,20.164,0,0,1-3.462-.761,22.635,22.635,0,0,1,3.525.353l8.464,1.1,8.47,1.039A22.618,22.618,0,0,1,1941.275,441.252Z" transform="translate(-1917.314 -438.203)" fill="#fff"/>
              </g>
            </g>
            <g id="Grupo_20985" data-name="Grupo 20985" transform="translate(8.447 25.372)">
              <g id="Grupo_20984" data-name="Grupo 20984">
                <path id="Caminho_13433" data-name="Caminho 13433" d="M1939.218,449.486a209.974,209.974,0,0,1-21.95-2.947,210.332,210.332,0,0,1,21.95,2.947Z" transform="translate(-1917.267 -446.511)" fill="#fff"/>
              </g>
            </g>
          </g>
        </g>
        <g id="Grupo_21027" data-name="Grupo 21027" transform="translate(259.435 182.55)">
          <g id="Grupo_21025" data-name="Grupo 21025">
            <g id="Grupo_20988" data-name="Grupo 20988" transform="translate(2.194 0.253)">
              <path id="Caminho_13434" data-name="Caminho 13434" d="M2023.237,600.27l8.916,47.1,89.035-16.855-15.473-45.854Z" transform="translate(-2023.237 -584.656)" fill="#ebebeb"/>
            </g>
            <g id="Grupo_21024" data-name="Grupo 21024">
              <g id="Grupo_21015" data-name="Grupo 21015">
                <g id="Grupo_20992" data-name="Grupo 20992">
                  <g id="Grupo_20989" data-name="Grupo 20989" transform="translate(0.341 0.253)">
                    <rect id="Retângulo_1598" data-name="Retângulo 1598" width="85.828" height="42.465" transform="translate(0 15.964) rotate(-10.72)" fill="#fff"/>
                  </g>
                  <g id="Grupo_20991" data-name="Grupo 20991">
                    <g id="Grupo_20990" data-name="Grupo 20990">
                      <path id="Caminho_13435" data-name="Caminho 13435" d="M2112.9,626.3s-.065-.262-.166-.755c-.1-.513-.248-1.237-.436-2.178-.377-1.926-.927-4.728-1.631-8.324-1.394-7.214-3.4-17.609-5.878-30.427l.253.173-84.31,16.037h-.006l.232-.341,7.883,41.727-.322-.22,60.556-11.329,17.5-3.235,4.685-.852,1.217-.214c.275-.046.426-.063.426-.063s-.124.035-.387.091l-1.179.24-4.616.909-17.407,3.372-60.689,11.623-.27.052-.051-.271c-2.448-12.9-5.125-27.018-7.915-41.721l-.054-.287.287-.054.006,0,84.338-15.889.214-.04.04.213c2.391,12.891,4.329,23.345,5.675,30.6.654,3.584,1.164,6.377,1.515,8.3.165.929.293,1.642.383,2.147C2112.87,626.06,2112.9,626.3,2112.9,626.3Z" transform="translate(-2020.329 -584.321)" fill="#0b0c28"/>
                    </g>
                  </g>
                </g>
                <g id="Grupo_20999" data-name="Grupo 20999" transform="translate(10.138 19.123)">
                  <g id="Grupo_20996" data-name="Grupo 20996">
                    <g id="Grupo_20993" data-name="Grupo 20993" transform="translate(0.338 0.295)">
                      <rect id="Retângulo_1599" data-name="Retângulo 1599" width="23.731" height="23.731" transform="matrix(0.983, -0.186, 0.186, 0.983, 0, 4.414)" fill="#fff"/>
                    </g>
                    <g id="Grupo_20995" data-name="Grupo 20995">
                      <g id="Grupo_20994" data-name="Grupo 20994">
                        <path id="Caminho_13436" data-name="Caminho 13436" d="M2061.834,633.277a3.257,3.257,0,0,1-.114-.45c-.07-.331-.159-.748-.27-1.267-.234-1.151-.558-2.747-.967-4.753-.81-4.11-1.949-9.888-3.312-16.8l.3.2-23.307,4.452c-.054.074.439-.644.232-.337v.006l0,.013.005.025.009.05.019.1.038.2.075.4.151.8q.149.795.3,1.582.3,1.574.588,3.118.581,3.085,1.134,6.028c.73,3.915,1.42,7.61,2.053,11l-.3-.2,16.848-3.059,4.777-.837,1.278-.212a3.045,3.045,0,0,1,.461-.058,2.047,2.047,0,0,1-.4.1l-1.219.26-4.7.957-16.958,3.341-.248.049-.047-.25c-.651-3.391-1.36-7.083-2.111-10.993q-.559-2.936-1.148-6.026-.293-1.543-.592-3.117-.148-.787-.3-1.581l-.151-.8-.075-.4-.038-.2-.019-.1-.01-.05,0-.025,0-.013,0-.006c-.207.3.281-.42.234-.346l23.322-4.375.25-.047.045.248c1.27,7,2.332,12.845,3.088,17.006l.826,4.721c.084.5.15.909.2,1.23A1.987,1.987,0,0,1,2061.834,633.277Z" transform="translate(-2033.766 -609.665)" fill="#0b0c28"/>
                      </g>
                    </g>
                  </g>
                  <g id="Grupo_20998" data-name="Grupo 20998" transform="translate(4.476 6.175)">
                    <g id="Grupo_20997" data-name="Grupo 20997">
                      <path id="Caminho_13437" data-name="Caminho 13437" d="M2063.291,635.286c-.05.008-.131-.6-.462-1.666a8.24,8.24,0,0,0-2.467-3.92l-.021-.017a8.7,8.7,0,0,0-2.888-1.755,9.04,9.04,0,0,0-3.923-.447l-.52.051.281-.444a5.91,5.91,0,0,0,.212-5.588,5.3,5.3,0,0,0-2.069-2.317,5.567,5.567,0,0,0-3.157-.739,5.971,5.971,0,0,0-3.422,1.274,5.113,5.113,0,0,0-1.808,2.942,5.972,5.972,0,0,0,1.916,5.824l.279.221-.3.185a10.149,10.149,0,0,0-3.516,3.588,10.794,10.794,0,0,0-1.348,3.667,14.647,14.647,0,0,0-.085,3.431,3.564,3.564,0,0,1-.205-.888,9.678,9.678,0,0,1,.008-2.586,10.711,10.711,0,0,1,1.282-3.824,10.422,10.422,0,0,1,3.611-3.812l-.026.406a6.458,6.458,0,0,1-2.157-6.331,5.666,5.666,0,0,1,1.994-3.273,6.527,6.527,0,0,1,3.753-1.407,6.114,6.114,0,0,1,3.484.825,5.837,5.837,0,0,1,2.285,2.574,6.41,6.41,0,0,1-.293,6.106l-.239-.393a9.412,9.412,0,0,1,4.126.533,8.91,8.91,0,0,1,2.991,1.9l-.021-.017a8.074,8.074,0,0,1,2.449,4.174,8.7,8.7,0,0,1,.24,1.274A1.441,1.441,0,0,1,2063.291,635.286Z" transform="translate(-2039.698 -617.849)" fill="#0b0c28"/>
                    </g>
                  </g>
                </g>
                <g id="Grupo_21014" data-name="Grupo 21014" transform="translate(42.689 14.749)">
                  <g id="Grupo_21003" data-name="Grupo 21003">
                    <g id="Grupo_21000" data-name="Grupo 21000" transform="translate(0 0.022)">
                      <path id="Caminho_13438" data-name="Caminho 13438" d="M2076.905,607.725l20.218-3.828" transform="translate(-2076.905 -603.897)" fill="#fff"/>
                    </g>
                    <g id="Grupo_21002" data-name="Grupo 21002">
                      <g id="Grupo_21001" data-name="Grupo 21001">
                        <path id="Caminho_13439" data-name="Caminho 13439" d="M2097.123,603.89a181.472,181.472,0,0,1-20.218,3.827,181.6,181.6,0,0,1,20.218-3.827Z" transform="translate(-2076.905 -603.868)" fill="#0b0c28"/>
                      </g>
                    </g>
                  </g>
                  <g id="Grupo_21007" data-name="Grupo 21007" transform="translate(0.889 7.678)">
                    <g id="Grupo_21004" data-name="Grupo 21004" transform="translate(0.001 0.095)">
                      <path id="Caminho_13440" data-name="Caminho 13440" d="M2078.084,614.943l4.084-.773" transform="translate(-2078.084 -614.17)" fill="#fff"/>
                    </g>
                    <g id="Grupo_21006" data-name="Grupo 21006">
                      <g id="Grupo_21005" data-name="Grupo 21005">
                        <path id="Caminho_13441" data-name="Caminho 13441" d="M2082.168,614.139c.03.159-.86.46-1.988.673s-2.066.259-2.1.1.859-.46,1.988-.674S2082.138,613.981,2082.168,614.139Z" transform="translate(-2078.083 -614.044)" fill="#0b0c28"/>
                      </g>
                    </g>
                  </g>
                  <g id="Grupo_21009" data-name="Grupo 21009" transform="translate(2.436 9.86)">
                    <g id="Grupo_21008" data-name="Grupo 21008">
                      <path id="Caminho_13442" data-name="Caminho 13442" d="M2116.281,616.948c.03.159-8.039,1.818-18.019,3.708s-18.1,3.294-18.128,3.135,8.036-1.818,18.021-3.708S2116.25,616.79,2116.281,616.948Z" transform="translate(-2080.133 -616.936)" fill="#0b0c28"/>
                    </g>
                  </g>
                  <g id="Grupo_21011" data-name="Grupo 21011" transform="translate(3.209 13.906)">
                    <g id="Grupo_21010" data-name="Grupo 21010">
                      <path id="Caminho_13443" data-name="Caminho 13443" d="M2117.51,622.31c.03.158-8.084,1.827-18.12,3.727s-18.2,3.312-18.231,3.154,8.082-1.827,18.123-3.727S2117.479,622.152,2117.51,622.31Z" transform="translate(-2081.158 -622.298)" fill="#0b0c28"/>
                    </g>
                  </g>
                  <g id="Grupo_21013" data-name="Grupo 21013" transform="translate(4.098 18.718)">
                    <g id="Grupo_21012" data-name="Grupo 21012">
                      <path id="Caminho_13444" data-name="Caminho 13444" d="M2118.075,628.688a6.728,6.728,0,0,1-1.383.378l-3.812.816c-3.224.665-7.685,1.542-12.619,2.476s-9.409,1.747-12.653,2.308l-3.846.634a6.74,6.74,0,0,1-1.426.154,6.825,6.825,0,0,1,1.383-.377l3.813-.816c3.224-.664,7.685-1.542,12.621-2.476s9.407-1.747,12.651-2.308l3.846-.634A6.778,6.778,0,0,1,2118.075,628.688Z" transform="translate(-2082.336 -628.676)" fill="#0b0c28"/>
                    </g>
                  </g>
                </g>
              </g>
              <g id="Grupo_21017" data-name="Grupo 21017" transform="translate(36.991 11.251)">
                <g id="Grupo_21016" data-name="Grupo 21016">
                  <path id="Caminho_13445" data-name="Caminho 13445" d="M2078.13,602a.862.862,0,0,1,.222-.137l.678-.35a23.362,23.362,0,0,1,2.725-1.091,25.014,25.014,0,0,1,10.7-1,22.9,22.9,0,0,1,7.184,2.068,9.868,9.868,0,0,1,3.315,2.606,5,5,0,0,1,1,4.349,7.348,7.348,0,0,1-2.767,3.807,23.011,23.011,0,0,1-4.186,2.474,38.922,38.922,0,0,1-9.617,3.294,23.2,23.2,0,0,1-10.163-.135,14.871,14.871,0,0,1-4.514-1.862,7.434,7.434,0,0,1-3.071-3.568,5.237,5.237,0,0,1,.492-4.44,10.863,10.863,0,0,1,2.868-3.085,28.19,28.19,0,0,1,6.566-3.57,28.977,28.977,0,0,1,10.593-1.886,26.546,26.546,0,0,1,2.926.218l.753.12a.877.877,0,0,1,.254.06.846.846,0,0,1-.261,0l-.758-.063c-.666-.056-1.649-.109-2.914-.108a29.849,29.849,0,0,0-10.444,2.044,28.124,28.124,0,0,0-6.42,3.57,10.409,10.409,0,0,0-2.717,2.956,4.712,4.712,0,0,0-.432,4,6.916,6.916,0,0,0,2.868,3.281,14.379,14.379,0,0,0,4.351,1.775,22.745,22.745,0,0,0,9.913.116,38.716,38.716,0,0,0,9.477-3.235,22.6,22.6,0,0,0,4.092-2.4,6.836,6.836,0,0,0,2.59-3.5,4.482,4.482,0,0,0-.89-3.9,9.419,9.419,0,0,0-3.131-2.489,22.771,22.771,0,0,0-7.015-2.089,25.559,25.559,0,0,0-10.582.8c-1.209.371-2.129.724-2.744.982l-.7.3A.9.9,0,0,1,2078.13,602Z" transform="translate(-2069.354 -599.233)" fill="#5949f9"/>
                </g>
              </g>
              <g id="Grupo_21019" data-name="Grupo 21019" transform="translate(69.952 3.362)">
                <g id="Grupo_21018" data-name="Grupo 21018">
                  <path id="Caminho_13446" data-name="Caminho 13446" d="M2113.04,598.821a108.593,108.593,0,0,1,12.344-10.038,108.65,108.65,0,0,1-12.344,10.038Z" transform="translate(-2113.037 -588.777)" fill="#5949f9"/>
                </g>
              </g>
              <g id="Grupo_21021" data-name="Grupo 21021" transform="translate(69.227 8.102)">
                <g id="Grupo_21020" data-name="Grupo 21020">
                  <path id="Caminho_13447" data-name="Caminho 13447" d="M2120.363,599.342a44.677,44.677,0,0,1-6.992,1.735l-.846.172-.449.091.109-.442a15.052,15.052,0,0,1,2.532-5.837c.15.075-1.164,2.522-1.969,5.972l-.34-.352.845-.176A44.66,44.66,0,0,1,2120.363,599.342Z" transform="translate(-2112.076 -595.059)" fill="#5949f9"/>
                </g>
              </g>
              <g id="Grupo_21023" data-name="Grupo 21023" transform="translate(42.656 17.459)">
                <g id="Grupo_21022" data-name="Grupo 21022">
                  <path id="Caminho_13448" data-name="Caminho 13448" d="M2099.144,607.484a217.917,217.917,0,0,1-22.283,3.421,217.481,217.481,0,0,1,22.283-3.421Z" transform="translate(-2076.861 -607.46)" fill="#5949f9"/>
                </g>
              </g>
            </g>
          </g>
          <g id="Grupo_21026" data-name="Grupo 21026" transform="translate(29.368 4.281)">
            <path id="Caminho_13449" data-name="Caminho 13449" d="M2069.552,594.245a5.177,5.177,0,1,1-6.049-4.124A5.177,5.177,0,0,1,2069.552,594.245Z" transform="translate(-2059.26 -590.003)" fill="#5949f9"/>
            <path id="Caminho_13450" data-name="Caminho 13450" d="M2064.446,600.406a5.206,5.206,0,0,1-.958-10.321,5.207,5.207,0,0,1,6.083,4.146h0a5.218,5.218,0,0,1-5.125,6.175Zm.012-10.356a5.186,5.186,0,0,0-.959.09,5.149,5.149,0,1,0,6.017,4.1h0A5.159,5.159,0,0,0,2064.458,590.05Z" transform="translate(-2059.25 -589.994)" fill="#0b0c28"/>
          </g>
        </g>
      </g>
      <g id="Grupo_21201" data-name="Grupo 21201" transform="translate(63.184 24.852)">
        <g id="Grupo_21200" data-name="Grupo 21200">
          <g id="Grupo_21032" data-name="Grupo 21032" transform="translate(3.037 262.412)">
            <g id="Grupo_21029" data-name="Grupo 21029">
              <path id="Caminho_13451" data-name="Caminho 13451" d="M1845.708,832.145l2.259-102.412L1768.4,723.1s-4.237,40.99-4.137,46.474c.047,2.613,12,28.111,12,28.111l-.125,34.46Z" transform="translate(-1764.261 -723.101)" fill="#0b0c28"/>
            </g>
            <g id="Grupo_21031" data-name="Grupo 21031" transform="translate(23.163 18.825)">
              <g id="Grupo_21030" data-name="Grupo 21030">
                <path id="Caminho_13452" data-name="Caminho 13452" d="M1826.222,748.051a8.284,8.284,0,0,1-.663,1.482c-.466.934-1.174,2.27-2.126,3.879a43.962,43.962,0,0,1-9.237,11.283,26.285,26.285,0,0,1-13.2,6.053,18.512,18.512,0,0,1-4.44.073,10.929,10.929,0,0,1-1.192-.183c-.271-.054-.411-.091-.407-.111a29.537,29.537,0,0,0,5.98-.188,27.061,27.061,0,0,0,12.881-6.092,47.262,47.262,0,0,0,9.26-11.051c.992-1.572,1.752-2.873,2.278-3.772A9.138,9.138,0,0,1,1826.222,748.051Z" transform="translate(-1794.959 -748.05)" fill="#0b0c28"/>
              </g>
            </g>
          </g>
          <g id="Grupo_21105" data-name="Grupo 21105" transform="translate(16.316)">
            <g id="Grupo_21095" data-name="Grupo 21095">
              <g id="Grupo_21092" data-name="Grupo 21092" transform="translate(0 18.405)">
                <g id="Grupo_21043" data-name="Grupo 21043" transform="translate(9.141)">
                  <g id="Grupo_21042" data-name="Grupo 21042">
                    <g id="Grupo_21041" data-name="Grupo 21041">
                      <g id="Grupo_21036" data-name="Grupo 21036">
                        <g id="Grupo_21035" data-name="Grupo 21035">
                          <g id="Grupo_21034" data-name="Grupo 21034">
                            <g id="Grupo_21033" data-name="Grupo 21033">
                              <path id="Caminho_13453" data-name="Caminho 13453" d="M1796.344,493.357l35.922,9.353,1.218-31.289s15.168-1.7,16-16.758-.307-49.763-.307-49.763h0a52.408,52.408,0,0,0-52.894,4.369l-2.306,1.624Z" transform="translate(-1793.974 -399.715)" fill="#b78876"/>
                            </g>
                          </g>
                        </g>
                      </g>
                      <g id="Grupo_21040" data-name="Grupo 21040" transform="translate(20.142 65.069)">
                        <g id="Grupo_21039" data-name="Grupo 21039">
                          <g id="Grupo_21038" data-name="Grupo 21038">
                            <g id="Grupo_21037" data-name="Grupo 21037">
                              <path id="Caminho_13454" data-name="Caminho 13454" d="M1840.071,492.372a35.067,35.067,0,0,1-19.4-6.42s4.18,11.04,19.271,10.324Z" transform="translate(-1820.668 -485.952)" fill="#aa6550"/>
                            </g>
                          </g>
                        </g>
                      </g>
                    </g>
                  </g>
                </g>
                <g id="Grupo_21053" data-name="Grupo 21053" transform="translate(0 26.235)">
                  <g id="Grupo_21047" data-name="Grupo 21047">
                    <g id="Grupo_21046" data-name="Grupo 21046">
                      <g id="Grupo_21045" data-name="Grupo 21045">
                        <g id="Grupo_21044" data-name="Grupo 21044">
                          <path id="Caminho_13455" data-name="Caminho 13455" d="M1792.191,435.11c-.252-.122-10.221-3.5-10.331,6.81s10.267,8.3,10.288,8S1792.191,435.11,1792.191,435.11Z" transform="translate(-1781.859 -434.484)" fill="#b78876"/>
                        </g>
                      </g>
                    </g>
                  </g>
                  <g id="Grupo_21052" data-name="Grupo 21052" transform="translate(2.617 3.316)">
                    <g id="Grupo_21051" data-name="Grupo 21051">
                      <g id="Grupo_21050" data-name="Grupo 21050">
                        <g id="Grupo_21049" data-name="Grupo 21049">
                          <g id="Grupo_21048" data-name="Grupo 21048">
                            <path id="Caminho_13456" data-name="Caminho 13456" d="M1789.891,447.061c-.045-.034-.181.124-.486.26a1.8,1.8,0,0,1-1.343.013c-1.086-.411-1.984-2.15-2.015-4.01a5.931,5.931,0,0,1,.531-2.567,2.076,2.076,0,0,1,1.366-1.365.915.915,0,0,1,1.055.5c.135.29.067.495.121.513.029.026.223-.17.145-.6a1.147,1.147,0,0,0-.4-.65,1.357,1.357,0,0,0-.991-.274,2.529,2.529,0,0,0-1.894,1.579,6.1,6.1,0,0,0-.653,2.868c.044,2.079,1.087,4.035,2.573,4.482a1.926,1.926,0,0,0,1.646-.255C1789.87,447.31,1789.926,447.079,1789.891,447.061Z" transform="translate(-1785.327 -438.879)" fill="#aa6550"/>
                          </g>
                        </g>
                      </g>
                    </g>
                  </g>
                </g>
                <g id="Grupo_21091" data-name="Grupo 21091" transform="translate(28.186 14.735)">
                  <g id="Grupo_21090" data-name="Grupo 21090">
                    <g id="Grupo_21081" data-name="Grupo 21081" transform="translate(1.125 8.536)">
                      <g id="Grupo_21080" data-name="Grupo 21080">
                        <g id="Grupo_21079" data-name="Grupo 21079">
                          <g id="Grupo_21063" data-name="Grupo 21063" transform="translate(22.776 0.539)">
                            <g id="Grupo_21057" data-name="Grupo 21057" transform="translate(3.635 2.544)">
                              <g id="Grupo_21056" data-name="Grupo 21056">
                                <g id="Grupo_21055" data-name="Grupo 21055">
                                  <g id="Grupo_21054" data-name="Grupo 21054">
                                    <path id="Caminho_13457" data-name="Caminho 13457" d="M1860.011,436.679a2.152,2.152,0,0,1-2.167,2.082,2.059,2.059,0,0,1-2.135-2.034,2.155,2.155,0,0,1,2.165-2.084A2.062,2.062,0,0,1,1860.011,436.679Z" transform="translate(-1855.709 -434.643)" fill="#0b0c28"/>
                                  </g>
                                </g>
                              </g>
                            </g>
                            <g id="Grupo_21062" data-name="Grupo 21062">
                              <g id="Grupo_21061" data-name="Grupo 21061">
                                <g id="Grupo_21060" data-name="Grupo 21060">
                                  <g id="Grupo_21059" data-name="Grupo 21059">
                                    <g id="Grupo_21058" data-name="Grupo 21058">
                                      <path id="Caminho_13458" data-name="Caminho 13458" d="M1859.39,433.717c-.279.269-1.857-1.007-4.173-1.1-2.311-.126-4.061.993-4.3.7-.119-.131.175-.625.938-1.133a5.9,5.9,0,0,1,3.457-.906,5.676,5.676,0,0,1,3.306,1.225C1859.307,433.08,1859.526,433.6,1859.39,433.717Z" transform="translate(-1850.891 -431.271)" fill="#0b0c28"/>
                                    </g>
                                  </g>
                                </g>
                              </g>
                            </g>
                          </g>
                          <g id="Grupo_21073" data-name="Grupo 21073">
                            <g id="Grupo_21067" data-name="Grupo 21067" transform="translate(3.704 2.924)">
                              <g id="Grupo_21066" data-name="Grupo 21066">
                                <g id="Grupo_21065" data-name="Grupo 21065">
                                  <g id="Grupo_21064" data-name="Grupo 21064">
                                    <path id="Caminho_13459" data-name="Caminho 13459" d="M1829.917,436.469a2.153,2.153,0,0,1-2.167,2.082,2.06,2.06,0,0,1-2.135-2.034,2.155,2.155,0,0,1,2.166-2.084A2.062,2.062,0,0,1,1829.917,436.469Z" transform="translate(-1825.614 -434.432)" fill="#0b0c28"/>
                                  </g>
                                </g>
                              </g>
                            </g>
                            <g id="Grupo_21072" data-name="Grupo 21072">
                              <g id="Grupo_21071" data-name="Grupo 21071">
                                <g id="Grupo_21070" data-name="Grupo 21070">
                                  <g id="Grupo_21069" data-name="Grupo 21069">
                                    <g id="Grupo_21068" data-name="Grupo 21068">
                                      <path id="Caminho_13460" data-name="Caminho 13460" d="M1829.205,433c-.279.269-1.86-1.007-4.173-1.1-2.311-.126-4.062.993-4.3.7-.118-.131.173-.625.939-1.132a5.909,5.909,0,0,1,3.457-.907,5.684,5.684,0,0,1,3.306,1.225C1829.12,432.366,1829.341,432.883,1829.205,433Z" transform="translate(-1820.706 -430.556)" fill="#0b0c28"/>
                                    </g>
                                  </g>
                                </g>
                              </g>
                            </g>
                          </g>
                          <g id="Grupo_21078" data-name="Grupo 21078" transform="translate(15.904 0.638)">
                            <g id="Grupo_21077" data-name="Grupo 21077">
                              <g id="Grupo_21076" data-name="Grupo 21076">
                                <g id="Grupo_21075" data-name="Grupo 21075">
                                  <g id="Grupo_21074" data-name="Grupo 21074">
                                    <path id="Caminho_13461" data-name="Caminho 13461" d="M1842.048,450.739a15.324,15.324,0,0,1,3.789-.518c.594-.035,1.158-.129,1.275-.528a3.01,3.01,0,0,0-.32-1.769q-.742-2.181-1.556-4.576c-2.155-6.513-3.687-11.858-3.424-11.943s2.223,5.126,4.377,11.64q.775,2.407,1.481,4.6a3.423,3.423,0,0,1,.208,2.333,1.483,1.483,0,0,1-1.009.823,4.021,4.021,0,0,1-1.01.1A15.078,15.078,0,0,1,1842.048,450.739Z" transform="translate(-1841.783 -431.403)" fill="#0b0c28"/>
                                  </g>
                                </g>
                              </g>
                            </g>
                          </g>
                        </g>
                      </g>
                    </g>
                    <g id="Grupo_21085" data-name="Grupo 21085">
                      <g id="Grupo_21084" data-name="Grupo 21084">
                        <g id="Grupo_21083" data-name="Grupo 21083">
                          <g id="Grupo_21082" data-name="Grupo 21082">
                            <path id="Caminho_13462" data-name="Caminho 13462" d="M1829.824,421.179c-.255.62-2.554.223-5.284.435-2.735.156-4.959.858-5.3.278-.15-.278.258-.853,1.169-1.425a9.214,9.214,0,0,1,8.06-.543C1829.453,420.368,1829.935,420.884,1829.824,421.179Z" transform="translate(-1819.214 -419.244)" fill="#0b0c28"/>
                          </g>
                        </g>
                      </g>
                    </g>
                    <g id="Grupo_21089" data-name="Grupo 21089" transform="translate(23.969 2.209)">
                      <g id="Grupo_21088" data-name="Grupo 21088">
                        <g id="Grupo_21087" data-name="Grupo 21087">
                          <g id="Grupo_21086" data-name="Grupo 21086">
                            <path id="Caminho_13463" data-name="Caminho 13463" d="M1858.846,424.747c-.429.508-2-.106-3.918-.213-1.913-.175-3.557.2-3.907-.364-.152-.274.126-.789.857-1.257a5.68,5.68,0,0,1,6.3.465C1858.837,423.947,1859.037,424.5,1858.846,424.747Z" transform="translate(-1850.981 -422.171)" fill="#0b0c28"/>
                          </g>
                        </g>
                      </g>
                    </g>
                  </g>
                </g>
              </g>
              <g id="Grupo_21094" data-name="Grupo 21094" transform="translate(3.966)">
                <g id="Grupo_21093" data-name="Grupo 21093">
                  <path id="Caminho_13464" data-name="Caminho 13464" d="M1855.236,389.714a5.564,5.564,0,0,0-1.841-5.056,3.949,3.949,0,0,0-5.128.164,4.607,4.607,0,0,0-3.719-5.752c-2.45-.26-4.625,1.506-7.027,2.055a11.2,11.2,0,0,1-7-1.111c-2.191-.993-4.222-2.321-6.445-3.242a19.282,19.282,0,0,0-25.122,10.261c-3.25-1.17-7.066.343-9.217,3.048a14.038,14.038,0,0,0-2.571,9.792,31.42,31.42,0,0,0,1.435,6.834c-.009.193-.036.383-.041.577-.2,8.291.324,18.059,3.856,18.264,6.156.358,5.184-11.311,5.184-11.311,7.685-2.6,5.351-14.046,7.315-15.683s6.088-5.461,21.571,3.3c6.011,3.4,14.188,3.654,18.692,2.833.132-.023.265-.037.4-.063.028-.006.064-.009.092-.015.049-.01.084-.035.133-.047a14.266,14.266,0,0,0,4.133-1.549,8.023,8.023,0,0,0,3.5-3.577,4.4,4.4,0,0,0-.663-4.753A9.659,9.659,0,0,0,1855.236,389.714Z" transform="translate(-1787.115 -375.322)" fill="#0b0c28"/>
                </g>
              </g>
            </g>
            <g id="Grupo_21096" data-name="Grupo 21096" transform="translate(39.466 65.998)">
              <path id="Caminho_13465" data-name="Caminho 13465" d="M1841.392,465.63a10.37,10.37,0,0,1-1.454,2.574,3.5,3.5,0,0,1-2.547,1.336,3.141,3.141,0,0,1-2.591-1.56,5.015,5.015,0,0,1-.61-3.048c.083-.949.567-2.066,1.517-2.138a2.39,2.39,0,0,1,1.137.3l4.883,2.227" transform="translate(-1834.164 -462.791)" fill="#aa6550"/>
            </g>
            <g id="Grupo_21098" data-name="Grupo 21098" transform="translate(38.792 65.47)">
              <g id="Grupo_21097" data-name="Grupo 21097">
                <path id="Caminho_13466" data-name="Caminho 13466" d="M1839.014,469.461a7.19,7.19,0,0,1-2.636-.441,3.788,3.788,0,0,1-1.925-1.906,3.989,3.989,0,0,1,.073-3.253,3.56,3.56,0,0,1,.465-.724c.206-.2.169-.19.383-.15.2.063.52.232.782.346l.8.367c1.045.475,1.992.893,2.792,1.231a9.036,9.036,0,0,0,2.671.93,9.06,9.06,0,0,0-2.4-1.5c-.766-.412-1.684-.887-2.71-1.4l-.789-.395a8.954,8.954,0,0,0-.892-.412,1.16,1.16,0,0,0-.738-.011,1.362,1.362,0,0,0-.566.41,4.283,4.283,0,0,0-.6.919,4.659,4.659,0,0,0-.018,3.982,4.254,4.254,0,0,0,2.435,2.147,4.016,4.016,0,0,0,2.15.175C1838.792,469.67,1839.031,469.512,1839.014,469.461Z" transform="translate(-1833.27 -462.09)" fill="#0b0c28"/>
              </g>
            </g>
            <g id="Grupo_21100" data-name="Grupo 21100" transform="translate(20.732 13.451)">
              <g id="Grupo_21099" data-name="Grupo 21099">
                <path id="Caminho_13467" data-name="Caminho 13467" d="M1809.484,401.485a9.06,9.06,0,0,1,.07-1.824,7.113,7.113,0,0,1,2.535-4.13,9.59,9.59,0,0,1,6.878-1.95,29.548,29.548,0,0,1,8.729,2.347c1.517.573,3.014,1.121,4.5,1.518a23.685,23.685,0,0,0,4.383.724,23.952,23.952,0,0,0,7.463-.659,23.079,23.079,0,0,0,4.729-1.771c.533-.266.931-.5,1.2-.672a1.924,1.924,0,0,0,.4-.27c-.023-.04-.589.3-1.668.785a25.616,25.616,0,0,1-4.728,1.622,24.431,24.431,0,0,1-7.359.556,23.807,23.807,0,0,1-4.3-.736c-1.464-.4-2.945-.941-4.462-1.514a29.212,29.212,0,0,0-8.863-2.34,9.823,9.823,0,0,0-7.1,2.12,7.131,7.131,0,0,0-2.5,4.342A4.162,4.162,0,0,0,1809.484,401.485Z" transform="translate(-1809.336 -393.149)" fill="#0b0c28"/>
              </g>
            </g>
            <g id="Grupo_21102" data-name="Grupo 21102" transform="translate(8.076 17.616)">
              <g id="Grupo_21101" data-name="Grupo 21101">
                <path id="Caminho_13468" data-name="Caminho 13468" d="M1792.566,427.8c.013.007.086-.1.212-.309s.3-.525.509-.94a19.4,19.4,0,0,0,1.36-3.693,20.666,20.666,0,0,0,.637-5.808,51.837,51.837,0,0,0-1.046-7.056,13.729,13.729,0,0,1,.281-6.925,7.021,7.021,0,0,1,1.555-2.562,5.287,5.287,0,0,1,2.225-1.327,4.947,4.947,0,0,1,3.715.254,7.08,7.08,0,0,1,1.122.86,2.882,2.882,0,0,0-1.036-1.01,5.006,5.006,0,0,0-3.888-.4,5.535,5.535,0,0,0-2.4,1.369,7.3,7.3,0,0,0-1.679,2.682,13.881,13.881,0,0,0-.335,7.136,55.749,55.749,0,0,1,1.075,7,21.348,21.348,0,0,1-.533,5.717,22.534,22.534,0,0,1-1.213,3.7A13.761,13.761,0,0,0,1792.566,427.8Z" transform="translate(-1792.563 -398.669)" fill="#0b0c28"/>
              </g>
            </g>
            <g id="Grupo_21104" data-name="Grupo 21104" transform="translate(19.341 5.128)">
              <g id="Grupo_21103" data-name="Grupo 21103">
                <path id="Caminho_13469" data-name="Caminho 13469" d="M1807.636,397.5a3.1,3.1,0,0,0,.02-.606c0-.439.005-1.014.01-1.73a20.065,20.065,0,0,1,.962-6.227,11.087,11.087,0,0,1,2.175-3.715,7.787,7.787,0,0,1,4.153-2.5,10.212,10.212,0,0,1,5.381.45,24.983,24.983,0,0,1,5.288,2.674,44.611,44.611,0,0,0,5.228,2.979,16.378,16.378,0,0,0,5.462,1.341,17.406,17.406,0,0,0,5.073-.4,19.473,19.473,0,0,0,4.165-1.512,16.725,16.725,0,0,0,5.023-3.93,10.485,10.485,0,0,0,1.044-1.39,3.019,3.019,0,0,0,.314-.518,3.143,3.143,0,0,0-.387.466,13.14,13.14,0,0,1-1.1,1.327,17.347,17.347,0,0,1-5.034,3.764,19.6,19.6,0,0,1-4.105,1.433,17.258,17.258,0,0,1-4.963.356,16.1,16.1,0,0,1-5.313-1.331,45.2,45.2,0,0,1-5.172-2.959,25.068,25.068,0,0,0-5.385-2.71,10.561,10.561,0,0,0-5.607-.437,8.127,8.127,0,0,0-4.339,2.651,11.278,11.278,0,0,0-2.2,3.856,19.175,19.175,0,0,0-.839,6.33c.012.754.046,1.339.075,1.734A3.1,3.1,0,0,0,1807.636,397.5Z" transform="translate(-1807.492 -382.119)" fill="#0b0c28"/>
              </g>
            </g>
          </g>
          <g id="Grupo_21197" data-name="Grupo 21197" transform="translate(0 69.469)">
            <g id="Grupo_21168" data-name="Grupo 21168" transform="translate(39.371)">
              <g id="Grupo_21160" data-name="Grupo 21160" transform="translate(58.952)">
                <g id="Grupo_21159" data-name="Grupo 21159">
                  <g id="Grupo_21110" data-name="Grupo 21110">
                    <g id="Grupo_21109" data-name="Grupo 21109">
                      <g id="Grupo_21108" data-name="Grupo 21108">
                        <g id="Grupo_21107" data-name="Grupo 21107">
                          <g id="Grupo_21106" data-name="Grupo 21106">
                            <path id="Caminho_13470" data-name="Caminho 13470" d="M1895.891,550.775l45.343-50.913,6.435-8.995s15.685-19.408,16.955-21.465c1.467-2.376,2.966-2.24,3.8-1.64,1.308.936,1.235,3.214.038,5.292-.413.718-7.391,11.787-7.391,11.787a30.756,30.756,0,0,1,4.014-1.668c2.935-1.063,7.534.14,11.419,2.722s4.746,3.649,3.813,5.2a2.307,2.307,0,0,1-1.7,1.016,6.583,6.583,0,0,1-3.731-.889c-7.684-4.585-9.532-1.545-9.532-1.545l-1.028,1.143s5.754-.331,8.107,2.736a4.392,4.392,0,0,1,.758,1.516,5.845,5.845,0,0,1-.284,10.079,2.43,2.43,0,0,1-2.768.009,3.1,3.1,0,0,1-.7-1.378,4.733,4.733,0,0,0-.306-.768l-2.82,2.966s-6.691,6.325-9.292,9.407l-40.037,50.023c-5.2,7.55-13.079,13.8-20.536,8.464h0C1888.334,568.075,1889,557.989,1895.891,550.775Z" transform="translate(-1890.544 -467.39)" fill="#b78876"/>
                          </g>
                        </g>
                      </g>
                    </g>
                  </g>
                  <g id="Grupo_21122" data-name="Grupo 21122" transform="translate(52.989 24.238)">
                    <g id="Grupo_21115" data-name="Grupo 21115" transform="translate(0.003 0.081)">
                      <g id="Grupo_21114" data-name="Grupo 21114">
                        <g id="Grupo_21113" data-name="Grupo 21113">
                          <g id="Grupo_21112" data-name="Grupo 21112">
                            <g id="Grupo_21111" data-name="Grupo 21111">
                              <path id="Caminho_13471" data-name="Caminho 13471" d="M1960.774,508.141c.968,1.041,2.692.927,3.96.285s2.281-1.7,3.5-2.427c3.645-2.189,8.6-1.244,12.132-3.6.493-.329,1-.89.78-1.441-.2-.512-.865-.616-1.413-.644l-14.065-.689" transform="translate(-1960.774 -499.621)" fill="#b78876"/>
                            </g>
                          </g>
                        </g>
                      </g>
                    </g>
                    <g id="Grupo_21121" data-name="Grupo 21121">
                      <g id="Grupo_21120" data-name="Grupo 21120">
                        <g id="Grupo_21119" data-name="Grupo 21119">
                          <g id="Grupo_21118" data-name="Grupo 21118">
                            <g id="Grupo_21117" data-name="Grupo 21117">
                              <g id="Grupo_21116" data-name="Grupo 21116">
                                <path id="Caminho_13472" data-name="Caminho 13472" d="M1965.668,499.595a5.66,5.66,0,0,1,1.529-.082c.982,0,2.4.026,4.154.076l6.156.216,1.779.073a2.794,2.794,0,0,1,2.03.579,1.186,1.186,0,0,1,.134,1.326,2.433,2.433,0,0,1-.771.856,9.248,9.248,0,0,1-1.842.957c-2.618.986-5.221,1.011-7.426,1.548a10.632,10.632,0,0,0-2.978,1.1c-.856.5-1.588,1.121-2.323,1.628a4.957,4.957,0,0,1-4.048,1.107c-1.024-.277-1.323-.864-1.287-.864a4.11,4.11,0,0,0,1.349.558,4.8,4.8,0,0,0,3.653-1.261c.689-.515,1.4-1.173,2.316-1.739a10.928,10.928,0,0,1,3.145-1.248c2.288-.59,4.89-.655,7.307-1.576a8.671,8.671,0,0,0,1.668-.859c.481-.332.741-.811.506-1.02-.221-.268-.867-.3-1.47-.324l-1.778-.1-6.147-.388c-1.749-.122-3.164-.235-4.141-.331A5.616,5.616,0,0,1,1965.668,499.595Z" transform="translate(-1960.77 -499.513)" fill="#aa6550"/>
                              </g>
                            </g>
                          </g>
                        </g>
                      </g>
                    </g>
                  </g>
                  <g id="Grupo_21128" data-name="Grupo 21128" transform="translate(73.777 20.963)">
                    <g id="Grupo_21127" data-name="Grupo 21127">
                      <g id="Grupo_21126" data-name="Grupo 21126">
                        <g id="Grupo_21125" data-name="Grupo 21125">
                          <g id="Grupo_21124" data-name="Grupo 21124">
                            <g id="Grupo_21123" data-name="Grupo 21123">
                              <path id="Caminho_13473" data-name="Caminho 13473" d="M1988.326,497.644a5.819,5.819,0,0,1,2.055-1.689,4.487,4.487,0,0,1,2.8-.2,11.479,11.479,0,0,1,3.273,1.427,18.317,18.317,0,0,0,3.309,1.67,5.905,5.905,0,0,0,3.058.28,2.3,2.3,0,0,0,1.645-1.256,1.355,1.355,0,0,0,.168-.74c-.049-.014-.111.25-.346.644a2.172,2.172,0,0,1-1.54.993,5.864,5.864,0,0,1-2.828-.373,20.2,20.2,0,0,1-3.206-1.668,11.159,11.159,0,0,0-3.437-1.446,4.7,4.7,0,0,0-3.054.34,4.184,4.184,0,0,0-1.573,1.341C1988.377,497.369,1988.3,497.631,1988.326,497.644Z" transform="translate(-1988.322 -495.172)" fill="#aa6550"/>
                            </g>
                          </g>
                        </g>
                      </g>
                    </g>
                  </g>
                  <g id="Grupo_21134" data-name="Grupo 21134" transform="translate(69.085 4.854)">
                    <g id="Grupo_21133" data-name="Grupo 21133">
                      <g id="Grupo_21132" data-name="Grupo 21132">
                        <g id="Grupo_21131" data-name="Grupo 21131">
                          <g id="Grupo_21130" data-name="Grupo 21130">
                            <g id="Grupo_21129" data-name="Grupo 21129">
                              <path id="Caminho_13474" data-name="Caminho 13474" d="M1991.389,473.825a14.716,14.716,0,0,0-1.4,2.192l-3.239,5.358-3.319,5.31a14.638,14.638,0,0,0-1.322,2.24,11.685,11.685,0,0,0,1.626-2.036c.939-1.305,2.172-3.153,3.457-5.243s2.376-4.024,3.117-5.451A11.644,11.644,0,0,0,1991.389,473.825Z" transform="translate(-1982.103 -473.824)" fill="#aa6550"/>
                            </g>
                          </g>
                        </g>
                      </g>
                    </g>
                  </g>
                  <g id="Grupo_21140" data-name="Grupo 21140" transform="translate(74.74 27.439)">
                    <g id="Grupo_21139" data-name="Grupo 21139">
                      <g id="Grupo_21138" data-name="Grupo 21138">
                        <g id="Grupo_21137" data-name="Grupo 21137">
                          <g id="Grupo_21136" data-name="Grupo 21136">
                            <g id="Grupo_21135" data-name="Grupo 21135">
                              <path id="Caminho_13475" data-name="Caminho 13475" d="M1989.6,503.812a3.174,3.174,0,0,0,.8.149,2.414,2.414,0,0,1,1.759.976,1.3,1.3,0,0,1,0,1.28,6.871,6.871,0,0,1-1,1.373,2.915,2.915,0,0,0-.813,1.9,2.48,2.48,0,0,0,1.149,1.929,2.816,2.816,0,0,0,2.207.324,3.524,3.524,0,0,0,1.779-1.037,11.411,11.411,0,0,0,1.718-2.873,6.719,6.719,0,0,0,.568-2.181,1.505,1.505,0,0,0-.117-.821c-.047.008-.005.3-.083.8a7.979,7.979,0,0,1-.7,2.051,12.254,12.254,0,0,1-1.737,2.7,2.789,2.789,0,0,1-3.35.6,1.993,1.993,0,0,1-.925-1.514,2.49,2.49,0,0,1,.681-1.588,6.886,6.886,0,0,0,1.014-1.5,1.679,1.679,0,0,0-.087-1.648,2.52,2.52,0,0,0-2.048-.981A2.072,2.072,0,0,0,1989.6,503.812Z" transform="translate(-1989.598 -503.755)" fill="#aa6550"/>
                            </g>
                          </g>
                        </g>
                      </g>
                    </g>
                  </g>
                  <g id="Grupo_21146" data-name="Grupo 21146" transform="translate(78.514 27.965)">
                    <g id="Grupo_21145" data-name="Grupo 21145">
                      <g id="Grupo_21144" data-name="Grupo 21144">
                        <g id="Grupo_21143" data-name="Grupo 21143">
                          <g id="Grupo_21142" data-name="Grupo 21142">
                            <g id="Grupo_21141" data-name="Grupo 21141">
                              <path id="Caminho_13476" data-name="Caminho 13476" d="M1994.964,511.468c-.019-.017-.226.182-.327.666a2.265,2.265,0,0,0,.584,1.941,3.018,3.018,0,0,0,2.9.756,4.943,4.943,0,0,0,2.9-2.254,5.972,5.972,0,0,0,.888-3.558,5.717,5.717,0,0,0-1-2.821,5.412,5.412,0,0,0-1.417-1.42c-.4-.261-.644-.349-.659-.323a9.409,9.409,0,0,1,1.768,1.943,5.631,5.631,0,0,1,.829,2.65,5.7,5.7,0,0,1-.851,3.254,4.59,4.59,0,0,1-2.577,2.064,2.678,2.678,0,0,1-2.522-.551,2.148,2.148,0,0,1-.644-1.657C1994.867,511.717,1995,511.489,1994.964,511.468Z" transform="translate(-1994.6 -504.452)" fill="#aa6550"/>
                            </g>
                          </g>
                        </g>
                      </g>
                    </g>
                  </g>
                  <g id="Grupo_21152" data-name="Grupo 21152" transform="translate(61.976 29.641)">
                    <g id="Grupo_21151" data-name="Grupo 21151">
                      <g id="Grupo_21150" data-name="Grupo 21150">
                        <g id="Grupo_21149" data-name="Grupo 21149">
                          <g id="Grupo_21148" data-name="Grupo 21148">
                            <g id="Grupo_21147" data-name="Grupo 21147">
                              <path id="Caminho_13477" data-name="Caminho 13477" d="M1977.323,514.705c.028-.038-.322-.367-1.072-.643a4.9,4.9,0,0,0-3.183-.032l.306.34a14.691,14.691,0,0,0,.672-1.635,11.162,11.162,0,0,0,.581-6.06,28.218,28.218,0,0,1-1.071,5.893c-.194.567-.41,1.1-.631,1.591l-.244.538.55-.2a5.139,5.139,0,0,1,2.929-.137C1976.887,514.538,1977.288,514.765,1977.323,514.705Z" transform="translate(-1972.682 -506.674)" fill="#aa6550"/>
                            </g>
                          </g>
                        </g>
                      </g>
                    </g>
                  </g>
                  <g id="Grupo_21158" data-name="Grupo 21158" transform="translate(78.46 18.874)">
                    <g id="Grupo_21157" data-name="Grupo 21157">
                      <g id="Grupo_21156" data-name="Grupo 21156">
                        <g id="Grupo_21155" data-name="Grupo 21155">
                          <g id="Grupo_21154" data-name="Grupo 21154">
                            <g id="Grupo_21153" data-name="Grupo 21153">
                              <path id="Caminho_13478" data-name="Caminho 13478" d="M1994.615,492.4c-.136-.013-.2,1.05.517,2.073s1.728,1.34,1.764,1.207c.066-.136-.727-.6-1.339-1.5C1994.927,493.3,1994.765,492.39,1994.615,492.4Z" transform="translate(-1994.528 -492.404)" fill="#aa6550"/>
                            </g>
                          </g>
                        </g>
                      </g>
                    </g>
                  </g>
                </g>
              </g>
              <g id="Grupo_21161" data-name="Grupo 21161" transform="translate(0 36.949)">
                <path id="Caminho_13479" data-name="Caminho 13479" d="M1831.565,516.791l42.076,41.622,30.8-31.694,5.865-2.566,7.759-7.794,17.951,20.224-38.03,49.723a35.6,35.6,0,0,1-19.735,12.931h0a35.6,35.6,0,0,1-33.468-9.135l-32.374-31.728" transform="translate(-1812.414 -516.359)" fill="#5949f9"/>
              </g>
              <g id="Grupo_21163" data-name="Grupo 21163" transform="translate(61.218 79.002)">
                <g id="Grupo_21162" data-name="Grupo 21162">
                  <path id="Caminho_13480" data-name="Caminho 13480" d="M1897.613,596.267a28.834,28.834,0,0,1-.094-3.627,61.464,61.464,0,0,0-.684-8.677,51.109,51.109,0,0,0-2.125-8.432,33.216,33.216,0,0,1-1.154-3.437,3.176,3.176,0,0,1,.483.853c.281.563.645,1.4,1.059,2.443a41.109,41.109,0,0,1,2.315,8.481,47.369,47.369,0,0,1,.519,8.772c-.042,1.124-.1,2.031-.163,2.656A3.2,3.2,0,0,1,1897.613,596.267Z" transform="translate(-1893.547 -572.093)" fill="#0b0c28"/>
                </g>
              </g>
              <g id="Grupo_21165" data-name="Grupo 21165" transform="translate(31.968 51.032)" opacity="0.3">
                <g id="Grupo_21164" data-name="Grupo 21164">
                  <path id="Caminho_13481" data-name="Caminho 13481" d="M1854.781,535.024c6.655,6.352,8.313,14.578,12.024,23,4.37,9.913,12.24,19.546,15.268,29.948a15.558,15.558,0,0,1,.118,9.549c-1.1,3.045-4.293,6.69-7.521,6.924l-6.768-1.779Z" transform="translate(-1854.781 -535.024)"/>
                </g>
              </g>
              <g id="Grupo_21167" data-name="Grupo 21167" transform="translate(98.16 46.663)">
                <g id="Grupo_21166" data-name="Grupo 21166">
                  <path id="Caminho_13482" data-name="Caminho 13482" d="M1959.425,550.736c-.127.1-4.016-4.634-8.687-10.57s-8.355-10.832-8.228-10.932,4.016,4.632,8.687,10.57S1959.552,550.636,1959.425,550.736Z" transform="translate(-1942.507 -529.233)" fill="#0b0c28"/>
                </g>
              </g>
            </g>
            <g id="Grupo_21169" data-name="Grupo 21169" transform="translate(124.972 140.167)">
              <path id="Caminho_13483" data-name="Caminho 13483" d="M1938.142,664.674l-12.28,37.412,32.421-14.709,10.517-34.222Z" transform="translate(-1925.862 -653.156)" fill="#0b0c28"/>
            </g>
            <g id="Grupo_21170" data-name="Grupo 21170" transform="translate(0 15.681)">
              <path id="Caminho_13484" data-name="Caminho 13484" d="M1787.257,488.172l-4.745,11.484s-6.153,13.068-13.027,22c-7.468,9.707-9.25,41.109-9.25,41.109l7.09,96.336-2.424,4.7c-1.108,2.148-.536,9.992,1.879,10.109l79.848,3.709c1.928.094,3.209-6.665,3.1-8.593L1843.3,552.669l-12.943-31.749-4.161-6.226-.1-7.836-27.783-8.6a17.6,17.6,0,0,1-11.058-10.085Z" transform="translate(-1760.235 -488.172)" fill="#5949f9"/>
            </g>
            <g id="Grupo_21172" data-name="Grupo 21172" transform="translate(8.597 156.416)" opacity="0.3">
              <g id="Grupo_21171" data-name="Grupo 21171">
                <path id="Caminho_13485" data-name="Caminho 13485" d="M1771.628,682.247c12.128,7.733,24.37,15.522,37.845,20.554s28.709,6.961,42.56,3.08l-.439-10.018-76.3-21.172Z" transform="translate(-1771.628 -674.69)"/>
              </g>
            </g>
            <g id="Grupo_21173" data-name="Grupo 21173" transform="translate(2.676 51.769)">
              <path id="Caminho_13486" data-name="Caminho 13486" d="M1791.592,536.028s-21.849-1.886-26.36,25.392,2.755,86.462,4.863,86.955c0,0,39.072,16.677,79.724,20.644l28.527-5.231-3.394-27.111-20.994,1.108s-.925-5.24-8.832-7.447c-11.408-3.185-34.358-8.47-34.358-8.47s1.021-27.206,1.237-35.18,2.982-42.632-15.238-49.117" transform="translate(-1763.782 -536)" fill="#5949f9"/>
            </g>
            <g id="Grupo_21175" data-name="Grupo 21175" transform="translate(70.119 48.428)">
              <g id="Grupo_21174" data-name="Grupo 21174">
                <path id="Caminho_13487" data-name="Caminho 13487" d="M1853.166,531.573a5.242,5.242,0,0,1,.4.813q.388.889,1.038,2.375l3.72,8.779c1.558,3.731,3.4,8.148,5.447,13.048q.766,1.844,1.567,3.774a20.591,20.591,0,0,1,1.346,4.092,26.088,26.088,0,0,1,.459,4.431q.125,2.239.252,4.539c.712,12.264,1.366,23.37,1.677,31.416.16,4.023.25,7.281.278,9.532q.007,1.624.011,2.593a5.347,5.347,0,0,1-.038.9,5.2,5.2,0,0,1-.08-.9q-.044-.969-.12-2.589c-.112-2.307-.27-5.544-.463-9.519-.476-8.088-1.127-19.164-1.848-31.4q-.126-2.3-.248-4.542a25.786,25.786,0,0,0-.439-4.345,20.173,20.173,0,0,0-1.3-4l-1.549-3.782-5.332-13.1-3.548-8.849-.938-2.418A5.174,5.174,0,0,1,1853.166,531.573Z" transform="translate(-1853.164 -531.573)" fill="#0b0c28"/>
              </g>
            </g>
            <g id="Grupo_21177" data-name="Grupo 21177" transform="translate(22.279 26.629)">
              <g id="Grupo_21176" data-name="Grupo 21176">
                <path id="Caminho_13488" data-name="Caminho 13488" d="M1833.17,510.365a6.134,6.134,0,0,1-.241,1.16c-.191.747-.5,1.835-.953,3.2a56.247,56.247,0,0,1-4.941,10.739l-.155.261-.234-.2a45.832,45.832,0,0,0-12-6.7c-3.847-1.582-7.593-2.934-10.877-4.484a41.081,41.081,0,0,1-8.258-4.954,23.081,23.081,0,0,1-4.52-4.662,13.242,13.242,0,0,1-.951-1.489,2.361,2.361,0,0,1-.276-.551c.06-.037.461.713,1.409,1.9a24.931,24.931,0,0,0,4.591,4.472,42.564,42.564,0,0,0,8.23,4.791c3.266,1.51,7.008,2.843,10.873,4.433a44.884,44.884,0,0,1,12.111,6.846l-.388.065a61.662,61.662,0,0,0,5.1-10.576c.495-1.339.846-2.408,1.086-3.138A6.9,6.9,0,0,1,1833.17,510.365Z" transform="translate(-1789.762 -502.682)" fill="#0b0c28"/>
              </g>
            </g>
            <g id="Grupo_21179" data-name="Grupo 21179" transform="translate(2.47 51.743)">
              <g id="Grupo_21178" data-name="Grupo 21178">
                <path id="Caminho_13489" data-name="Caminho 13489" d="M1796.7,537.562s.516.189,1.51.592c.485.225,1.067.555,1.759.94a18.733,18.733,0,0,1,2.2,1.653,21.98,21.98,0,0,1,4.71,6.036,39.769,39.769,0,0,1,3.546,9.792c1.81,7.639,2.283,17.255,1.773,28.225-.373,10.98-.8,23.418-1.26,37.067l-.184-.24c6.958,1.612,14.316,3.354,21.991,5.25,3.837.951,7.754,1.938,11.728,3.017a14.81,14.81,0,0,1,9.665,7.768l-.262-.158,20.993-1.118.262-.014.033.26c1.084,8.642,2.23,17.78,3.4,27.111l.034.272-.269.049-26.542,4.87-1.984.364-.042.008-.039,0c-7.316-.785-14.513-1.831-21.535-3.211-7.016-1.407-13.888-2.98-20.56-4.806a326.486,326.486,0,0,1-37.7-12.671l.044.014a.871.871,0,0,1-.213-.124.791.791,0,0,1-.1-.121,1.167,1.167,0,0,1-.136-.229,4.221,4.221,0,0,1-.185-.435c-.1-.287-.188-.573-.267-.859-.155-.573-.289-1.146-.411-1.719-.246-1.145-.454-2.289-.648-3.429-.387-2.279-.715-4.542-1.017-6.785-.6-4.485-1.088-8.885-1.508-13.189-.834-8.606-1.392-16.823-1.706-24.578s-.367-15.052-.089-21.808c.3-6.749.842-13,2.3-18.48a31.377,31.377,0,0,1,7-13.278,23.438,23.438,0,0,1,9.3-6.155,24.605,24.605,0,0,1,6.832-1.425,17.016,17.016,0,0,1,1.8-.036,5.19,5.19,0,0,1,.607.043s-.205,0-.608,0-1,.015-1.791.08a25.2,25.2,0,0,0-6.779,1.5,23.369,23.369,0,0,0-9.18,6.164,31.2,31.2,0,0,0-6.866,13.192c-1.424,5.443-1.941,11.678-2.224,18.411-.257,6.744-.177,14.03.147,21.774s.9,15.953,1.753,24.549c.426,4.3.922,8.692,1.526,13.168.3,2.237.635,4.495,1.024,6.765.195,1.134.4,2.273.648,3.405.122.567.255,1.131.406,1.689.078.278.161.552.255.819a3.817,3.817,0,0,0,.159.374.7.7,0,0,0,.087.149c.012.015.036.051.036.051s0-.014-.012-.005a.3.3,0,0,0-.047.14l.077-.124a327.564,327.564,0,0,0,37.644,12.613c6.661,1.819,13.521,3.386,20.521,4.787,7.008,1.375,14.186,2.416,21.481,3.2l-.081,0,1.984-.364,26.544-4.865-.235.321c-1.166-9.331-2.307-18.47-3.386-27.112l.294.247-20.994,1.1-.176.009-.087-.168a14.279,14.279,0,0,0-9.31-7.482c-3.965-1.083-7.878-2.074-11.711-3.031-7.668-1.906-15.023-3.659-21.974-5.286l-.192-.045.008-.2c.5-13.649.951-26.085,1.351-37.064.544-10.955.108-20.536-1.653-28.148a39.825,39.825,0,0,0-3.466-9.755,22.025,22.025,0,0,0-4.62-6.029,19.147,19.147,0,0,0-2.164-1.669c-.681-.392-1.254-.731-1.732-.965C1797.2,537.8,1796.7,537.562,1796.7,537.562Z" transform="translate(-1763.508 -535.966)" fill="#0b0c28"/>
              </g>
            </g>
            <g id="Grupo_21181" data-name="Grupo 21181" transform="translate(91.329 156.441)">
              <g id="Grupo_21180" data-name="Grupo 21180">
                <path id="Caminho_13490" data-name="Caminho 13490" d="M1881.321,700.174c-.161-.011.11-5.719.606-12.746s1.028-12.717,1.189-12.706-.111,5.717-.607,12.746S1881.482,700.186,1881.321,700.174Z" transform="translate(-1881.275 -674.723)" fill="#0b0c28"/>
              </g>
            </g>
            <g id="Grupo_21183" data-name="Grupo 21183" transform="translate(31.967 137.613)">
              <g id="Grupo_21182" data-name="Grupo 21182">
                <path id="Caminho_13491" data-name="Caminho 13491" d="M1802.609,664.483a2.643,2.643,0,0,1,.263-.9,14.117,14.117,0,0,1,1.157-2.269,22.187,22.187,0,0,1,5.783-6.054,43.7,43.7,0,0,1,7.25-4.167,18.6,18.6,0,0,1,3.2-1.319,22.25,22.25,0,0,1-3.012,1.689,57.12,57.12,0,0,0-7.089,4.268,24.731,24.731,0,0,0-5.784,5.808C1803.177,663.282,1802.7,664.524,1802.609,664.483Z" transform="translate(-1802.601 -649.77)" fill="#0b0c28"/>
              </g>
            </g>
            <g id="Grupo_21185" data-name="Grupo 21185" transform="translate(10.165 185.12)">
              <g id="Grupo_21184" data-name="Grupo 21184">
                <path id="Caminho_13492" data-name="Caminho 13492" d="M1827.53,718.929a2.034,2.034,0,0,1-.543.128l-1.578.256c-1.37.222-3.367.451-5.842.647s-5.433.313-8.717.294c-3.284-.05-6.894-.242-10.662-.665-3.768-.444-7.328-1.077-10.537-1.775-3.2-.727-6.06-1.5-8.424-2.266s-4.258-1.431-5.542-1.958l-1.478-.607a2.01,2.01,0,0,1-.5-.249,2.066,2.066,0,0,1,.543.139l1.514.5c1.305.46,3.213,1.076,5.584,1.776s5.223,1.44,8.417,2.135c3.2.666,6.743,1.278,10.49,1.72,3.748.42,7.337.628,10.6.707,3.267.048,6.213-.014,8.681-.167s4.466-.309,5.842-.462l1.589-.147A1.981,1.981,0,0,1,1827.53,718.929Z" transform="translate(-1773.707 -712.732)" fill="#0b0c28"/>
              </g>
            </g>
            <g id="Grupo_21194" data-name="Grupo 21194" transform="translate(114.196 141.643)">
              <g id="Grupo_21191" data-name="Grupo 21191">
                <g id="Grupo_21186" data-name="Grupo 21186">
                  <path id="Caminho_13493" data-name="Caminho 13493" d="M1959.488,661.15c-.84-1.2-2.243-1.013-3.43-.153l-3.965,2.638a16.709,16.709,0,0,1-3.513,1.468l-1.684.3a12.877,12.877,0,0,1-9.514-2.024l-.677-.46s10.857-2.464,12.505-3.875l.049-.043a2.271,2.271,0,0,0-1.95-3.865l-13.683,2.1a28.024,28.024,0,0,0-12.4,5.163c-3.443,2.544-9.28,6.358-9.64,6.315l2.377,20.726,3.882-.961,7.094.62a25.36,25.36,0,0,0,13.839-2.738c2.64-1.363,5.1-2.724,5.363-3.18a39.267,39.267,0,0,0,1.632-5.163s2.686-1.675,2.788-2.819a18.271,18.271,0,0,0-.212-3.212s6.874-4.081,8.664-5.5C1960.209,663.956,1960.248,662.236,1959.488,661.15Z" transform="translate(-1911.581 -655.111)" fill="#b78876"/>
                </g>
                <g id="Grupo_21188" data-name="Grupo 21188" transform="translate(28.703 16.776)">
                  <g id="Grupo_21187" data-name="Grupo 21187">
                    <path id="Caminho_13494" data-name="Caminho 13494" d="M1949.622,681.5a20.351,20.351,0,0,0,8.37-4.148c-.074-.109-1.836,1.022-4.143,2.159S1949.58,681.375,1949.622,681.5Z" transform="translate(-1949.621 -677.344)" fill="#aa6550"/>
                  </g>
                </g>
                <g id="Grupo_21190" data-name="Grupo 21190" transform="translate(30.164 22.664)">
                  <g id="Grupo_21189" data-name="Grupo 21189">
                    <path id="Caminho_13495" data-name="Caminho 13495" d="M1951.559,687.4a6.584,6.584,0,0,0,4.422-2.237,16.8,16.8,0,0,0-2.2,1.15A16.625,16.625,0,0,0,1951.559,687.4Z" transform="translate(-1951.558 -685.148)" fill="#aa6550"/>
                  </g>
                </g>
              </g>
              <g id="Grupo_21193" data-name="Grupo 21193" transform="translate(23.055 6.582)">
                <g id="Grupo_21192" data-name="Grupo 21192">
                  <path id="Caminho_13496" data-name="Caminho 13496" d="M1942.138,663.839a7.88,7.88,0,0,0,1.652,1.168,22.212,22.212,0,0,0,4.416,2.107,15.52,15.52,0,0,0,4.833.807,6.55,6.55,0,0,0,2.018-.192,26.1,26.1,0,0,1-6.709-1.04,30.449,30.449,0,0,1-4.4-1.957A10.681,10.681,0,0,0,1942.138,663.839Z" transform="translate(-1942.137 -663.834)" fill="#aa6550"/>
                </g>
              </g>
            </g>
            <g id="Grupo_21196" data-name="Grupo 21196" transform="translate(25.408 30.726)" opacity="0.3">
              <g id="Grupo_21195" data-name="Grupo 21195">
                <path id="Caminho_13497" data-name="Caminho 13497" d="M1793.909,508.112c3.076,5.125,7.729,9.018,12.663,12.39a119,119,0,0,0,15.713,8.6c2.474,1.191,5.1,2.4,7.835,2.184a3.58,3.58,0,0,0,2.08-.732,4.513,4.513,0,0,0,1.181-2.83,91.765,91.765,0,0,0,.807-16.026,57.714,57.714,0,0,1-6.424,15.079s-4.327-3.755-17.692-9.16C1796.5,512.128,1793.909,508.112,1793.909,508.112Z" transform="translate(-1793.909 -508.112)"/>
              </g>
            </g>
          </g>
          <g id="Grupo_21199" data-name="Grupo 21199" transform="translate(41.326 300.663)">
            <g id="Grupo_21198" data-name="Grupo 21198">
              <path id="Caminho_13498" data-name="Caminho 13498" d="M1815.53,810.129c-.161,0-.373-8.131-.472-18.163s-.051-18.169.111-18.171.373,8.13.472,18.165S1815.69,810.128,1815.53,810.129Z" transform="translate(-1815.005 -773.795)" fill="#0b0c28"/>
            </g>
          </g>
        </g>
      </g>
    </g>
  </g>
</svg>
