<svg xmlns="http://www.w3.org/2000/svg" width="43" height="42" viewBox="0 0 43 42">
  <g id="Grupo_27698" data-name="Grupo 27698" transform="translate(20828 16500)">
    <rect id="Retângulo_5232" data-name="Retângulo 5232" width="43" height="42" rx="6" transform="translate(-20828 -16500)" fill="#5f47ff"/>
    <g id="Grupo_13" data-name="Grupo 13" transform="translate(-20819 -16492)">
      <path id="Caminho_12" data-name="Caminho 12" d="M215.683,1717.4c3.441,0,3.848.013,5.207.076a7.109,7.109,0,0,1,2.393.443,4.266,4.266,0,0,1,2.446,2.445,7.132,7.132,0,0,1,.444,2.392c.062,1.359.075,1.766.075,5.208s-.013,3.848-.075,5.206a7.134,7.134,0,0,1-.444,2.393,4.27,4.27,0,0,1-2.446,2.445,7.113,7.113,0,0,1-2.393.444c-1.359.062-1.766.075-5.207.075s-3.848-.013-5.207-.075a7.12,7.12,0,0,1-2.393-.444,4.275,4.275,0,0,1-2.445-2.445,7.139,7.139,0,0,1-.443-2.393c-.062-1.358-.076-1.766-.076-5.206s.013-3.848.076-5.208a7.137,7.137,0,0,1,.443-2.392,4.271,4.271,0,0,1,2.445-2.445,7.117,7.117,0,0,1,2.393-.443c1.359-.062,1.766-.076,5.207-.076m0-2.322c-3.5,0-3.938.015-5.313.078a9.451,9.451,0,0,0-3.128.6,6.587,6.587,0,0,0-3.768,3.768,9.454,9.454,0,0,0-.6,3.128c-.063,1.375-.078,1.813-.078,5.313s.015,3.938.078,5.312a9.448,9.448,0,0,0,.6,3.128,6.588,6.588,0,0,0,3.768,3.769,9.458,9.458,0,0,0,3.128.6c1.375.062,1.813.077,5.313.077s3.938-.015,5.313-.077a9.457,9.457,0,0,0,3.127-.6,6.586,6.586,0,0,0,3.769-3.769,9.435,9.435,0,0,0,.6-3.128c.063-1.374.078-1.813.078-5.312s-.016-3.938-.078-5.313a9.441,9.441,0,0,0-.6-3.128,6.585,6.585,0,0,0-3.769-3.768,9.45,9.45,0,0,0-3.127-.6c-1.375-.063-1.813-.078-5.313-.078" transform="translate(-202.798 -1715.078)" fill="#fff"/>
      <path id="Caminho_13" data-name="Caminho 13" d="M220.044,1725.875a6.45,6.45,0,1,0,6.45,6.449,6.45,6.45,0,0,0-6.45-6.449m0,10.636a4.186,4.186,0,1,1,4.186-4.187,4.187,4.187,0,0,1-4.186,4.187" transform="translate(-207.159 -1719.439)" fill="#fff"/>
      <path id="Caminho_14" data-name="Caminho 14" d="M237.35,1724.349a1.587,1.587,0,1,1-1.587-1.588,1.587,1.587,0,0,1,1.587,1.588" transform="translate(-216.023 -1718.316)" fill="#fff"/>
    </g>
  </g>
</svg>
