<svg xmlns="http://www.w3.org/2000/svg" xmlns:xlink="http://www.w3.org/1999/xlink" width="776" height="600" viewBox="0 0 776 600">
  <defs>
    <filter id="Elipse_682" x="289" y="0" width="198" height="198" filterUnits="userSpaceOnUse">
      <feOffset dx="10" dy="16" input="SourceAlpha"/>
      <feGaussianBlur stdDeviation="15" result="blur"/>
      <feFlood flood-color="#5f47ff" flood-opacity="0.141"/>
      <feComposite operator="in" in2="blur"/>
      <feComposite in="SourceGraphic"/>
    </filter>
    <filter id="Elipse_680" x="442" y="26" width="198" height="198" filterUnits="userSpaceOnUse">
      <feOffset dx="10" dy="16" input="SourceAlpha"/>
      <feGaussianBlur stdDeviation="15" result="blur-2"/>
      <feFlood flood-color="#5f47ff" flood-opacity="0.141"/>
      <feComposite operator="in" in2="blur-2"/>
      <feComposite in="SourceGraphic"/>
    </filter>
    <filter id="Elipse_681" x="136" y="26" width="198" height="198" filterUnits="userSpaceOnUse">
      <feOffset dx="10" dy="16" input="SourceAlpha"/>
      <feGaussianBlur stdDeviation="15" result="blur-3"/>
      <feFlood flood-color="#5f47ff" flood-opacity="0.141"/>
      <feComposite operator="in" in2="blur-3"/>
      <feComposite in="SourceGraphic"/>
    </filter>
    <filter id="Elipse_678" x="578" y="63" width="198" height="198" filterUnits="userSpaceOnUse">
      <feOffset dx="10" dy="16" input="SourceAlpha"/>
      <feGaussianBlur stdDeviation="15" result="blur-4"/>
      <feFlood flood-color="#5f47ff" flood-opacity="0.141"/>
      <feComposite operator="in" in2="blur-4"/>
      <feComposite in="SourceGraphic"/>
    </filter>
    <filter id="Elipse_686" x="66" y="206" width="198" height="198" filterUnits="userSpaceOnUse">
      <feOffset dx="10" dy="16" input="SourceAlpha"/>
      <feGaussianBlur stdDeviation="15" result="blur-5"/>
      <feFlood flood-color="#5f47ff" flood-opacity="0.141"/>
      <feComposite operator="in" in2="blur-5"/>
      <feComposite in="SourceGraphic"/>
    </filter>
    <filter id="Elipse_687" x="289" y="402" width="198" height="198" filterUnits="userSpaceOnUse">
      <feOffset dx="10" dy="16" input="SourceAlpha"/>
      <feGaussianBlur stdDeviation="15" result="blur-6"/>
      <feFlood flood-color="#5f47ff" flood-opacity="0.141"/>
      <feComposite operator="in" in2="blur-6"/>
      <feComposite in="SourceGraphic"/>
    </filter>
    <filter id="Elipse_679" x="0" y="63" width="198" height="198" filterUnits="userSpaceOnUse">
      <feOffset dx="10" dy="16" input="SourceAlpha"/>
      <feGaussianBlur stdDeviation="15" result="blur-7"/>
      <feFlood flood-color="#5f47ff" flood-opacity="0.141"/>
      <feComposite operator="in" in2="blur-7"/>
      <feComposite in="SourceGraphic"/>
    </filter>
    <filter id="Elipse_685" x="513" y="206" width="198" height="198" filterUnits="userSpaceOnUse">
      <feOffset dx="10" dy="16" input="SourceAlpha"/>
      <feGaussianBlur stdDeviation="15" result="blur-8"/>
      <feFlood flood-color="#5f47ff" flood-opacity="0.141"/>
      <feComposite operator="in" in2="blur-8"/>
      <feComposite in="SourceGraphic"/>
    </filter>
  </defs>
  <g id="Grupo_28342" data-name="Grupo 28342" transform="translate(-102 -6025)">
    <g transform="matrix(1, 0, 0, 1, 102, 6025)" filter="url(#Elipse_682)">
      <circle id="Elipse_682-2" data-name="Elipse 682" cx="54" cy="54" r="54" transform="translate(324 29)" fill="#f6f6ff"/>
    </g>
    <g transform="matrix(1, 0, 0, 1, 102, 6025)" filter="url(#Elipse_680)">
      <circle id="Elipse_680-2" data-name="Elipse 680" cx="54" cy="54" r="54" transform="translate(477 55)" fill="#f6f6ff"/>
    </g>
    <g transform="matrix(1, 0, 0, 1, 102, 6025)" filter="url(#Elipse_681)">
      <circle id="Elipse_681-2" data-name="Elipse 681" cx="54" cy="54" r="54" transform="translate(171 55)" fill="#f6f6ff"/>
    </g>
    <g transform="matrix(1, 0, 0, 1, 102, 6025)" filter="url(#Elipse_678)">
      <circle id="Elipse_678-2" data-name="Elipse 678" cx="54" cy="54" r="54" transform="translate(613 92)" fill="#f6f6ff"/>
    </g>
    <g transform="matrix(1, 0, 0, 1, 102, 6025)" filter="url(#Elipse_686)">
      <circle id="Elipse_686-2" data-name="Elipse 686" cx="54" cy="54" r="54" transform="translate(101 235)" fill="#f6f6ff"/>
    </g>
    <g transform="matrix(1, 0, 0, 1, 102, 6025)" filter="url(#Elipse_687)">
      <circle id="Elipse_687-2" data-name="Elipse 687" cx="54" cy="54" r="54" transform="translate(324 431)" fill="#f6f6ff"/>
    </g>
    <g transform="matrix(1, 0, 0, 1, 102, 6025)" filter="url(#Elipse_679)">
      <circle id="Elipse_679-2" data-name="Elipse 679" cx="54" cy="54" r="54" transform="translate(35 92)" fill="#f6f6ff"/>
    </g>
    <g transform="matrix(1, 0, 0, 1, 102, 6025)" filter="url(#Elipse_685)">
      <circle id="Elipse_685-2" data-name="Elipse 685" cx="54" cy="54" r="54" transform="translate(548 235)" fill="#f6f6ff"/>
    </g>
    <g id="Grupo_27911" data-name="Grupo 27911" transform="translate(18362.5 9780)">
      <path id="Caminho_20086" data-name="Caminho 20086" d="M176.9,123.2c-23.293,0-39.71,20.344-38.523,41.093a31.048,31.048,0,0,0,7.477,61.182h89.491c19.371,0,32.874-13.01,32.874-29.222,0-13.114-8.918-25.85-22.088-28.822-.45-10.744-5.56-18.768-12.614-23a25.48,25.48,0,0,0-23-1.484A38.1,38.1,0,0,0,176.9,123.2Z" transform="translate(-18074.014 -3641.333)" fill="#f6f6ff"/>
      <path id="Caminho_20085" data-name="Caminho 20085" d="M179.161,123.2c-24.141,0-41.156,21.085-39.925,42.589a32.178,32.178,0,0,0,7.749,63.409h92.749c20.076,0,34.071-13.483,34.071-30.286,0-13.592-9.242-26.791-22.892-29.871-.466-11.136-5.762-19.451-13.073-23.837A26.407,26.407,0,0,0,214,143.662,39.484,39.484,0,0,0,179.165,123.2Zm0,3.785a35.813,35.813,0,0,1,32.356,19.756,1.892,1.892,0,0,0,2.543.828,22.92,22.92,0,0,1,21.886.887c6.546,3.928,11.358,11.285,11.358,22.063h0a1.893,1.893,0,0,0,1.6,1.834c12.4,2.081,21.118,14.262,21.118,26.559,0,14.732-11.866,26.5-30.286,26.5H146.983a28.429,28.429,0,0,1-5.5-56.313,1.891,1.891,0,0,0,1.537-2.07c-2.016-19.853,13.643-40.047,36.143-40.047Z" transform="translate(-18076.807 -3643.195)" fill="#2c2d66"/>
    </g>
    <text id="iPaaS" transform="translate(480 6330)" fill="#2c2d66" font-size="20" font-family="Montserrat-Bold, Montserrat" font-weight="700"><tspan x="-28" y="0">iPaaS</tspan></text>
    <g id="Grupo_27933" data-name="Grupo 27933" transform="translate(-776 -147)">
      <ellipse id="Elipse_551" data-name="Elipse 551" cx="5" cy="5" rx="5" ry="5" transform="translate(1251 6377)" fill="#5f47ff"/>
      <ellipse id="Elipse_566" data-name="Elipse 566" cx="5" cy="5" rx="5" ry="5" transform="translate(1251 6343)" fill="#5f47ff"/>
      <ellipse id="Elipse_549" data-name="Elipse 549" cx="2" cy="2" rx="2" ry="2" transform="translate(1254 6363)" fill="#5f47ff"/>
      <ellipse id="Elipse_567" data-name="Elipse 567" cx="2" cy="2" rx="2" ry="2" transform="translate(1254 6329)" fill="#5f47ff"/>
    </g>
    <g id="Grupo_27936" data-name="Grupo 27936" transform="translate(6963 5058) rotate(90)">
      <ellipse id="Elipse_551-2" data-name="Elipse 551" cx="5" cy="5" rx="5" ry="5" transform="translate(1251 6377)" fill="#5f47ff"/>
      <ellipse id="Elipse_566-2" data-name="Elipse 566" cx="5" cy="5" rx="5" ry="5" transform="translate(1251 6343)" fill="#5f47ff"/>
      <ellipse id="Elipse_549-2" data-name="Elipse 549" cx="2" cy="2" rx="2" ry="2" transform="translate(1254 6363)" fill="#5f47ff"/>
      <ellipse id="Elipse_567-2" data-name="Elipse 567" cx="2" cy="2" rx="2" ry="2" transform="translate(1254 6329)" fill="#5f47ff"/>
    </g>
    <g id="Grupo_27937" data-name="Grupo 27937" transform="translate(385 6309) rotate(90)">
      <ellipse id="Elipse_551-3" data-name="Elipse 551" cx="5" cy="5" rx="5" ry="5" transform="translate(0 0)" fill="#5f47ff"/>
      <ellipse id="Elipse_566-3" data-name="Elipse 566" cx="5" cy="5" rx="5" ry="5" transform="translate(0 34)" fill="#5f47ff"/>
      <ellipse id="Elipse_549-3" data-name="Elipse 549" cx="2" cy="2" rx="2" ry="2" transform="translate(3 20)" fill="#5f47ff"/>
      <ellipse id="Elipse_567-3" data-name="Elipse 567" cx="2" cy="2" rx="2" ry="2" transform="translate(3 54)" fill="#5f47ff"/>
    </g>
    <g id="Grupo_27935" data-name="Grupo 27935" transform="translate(475 6382)">
      <ellipse id="Elipse_551-4" data-name="Elipse 551" cx="5" cy="5" rx="5" ry="5" transform="translate(0 0)" fill="#5f47ff"/>
      <ellipse id="Elipse_566-4" data-name="Elipse 566" cx="5" cy="5" rx="5" ry="5" transform="translate(0 34)" fill="#5f47ff"/>
      <circle id="Elipse_549-4" data-name="Elipse 549" cx="2" cy="2" r="2" transform="translate(3 20)" fill="#5f47ff"/>
      <circle id="Elipse_567-4" data-name="Elipse 567" cx="2" cy="2" r="2" transform="translate(3 54)" fill="#5f47ff"/>
    </g>
    <g id="Grupo_28327" data-name="Grupo 28327" transform="translate(0.031 4.156)">
      <text id="ERP" transform="translate(191 6194.355)" fill="#5f47ff" font-size="10" font-family="Montserrat-Bold, Montserrat" font-weight="700"><tspan x="-10" y="0">ERP</tspan></text>
      <g id="Grupo_28326" data-name="Grupo 28326" transform="translate(-671.551 -300.668)">
        <path id="Caminho_21021" data-name="Caminho 21021" d="M95.566,45.623c-.98,0-1.674-.9-2.328-1.674-.367-.449-.817-1.062-1.1-1.1-.286-.082-.98.327-1.511.612-.9.49-1.838,1.021-2.736.653S86.7,42.683,86.418,41.7c-.163-.531-.367-1.307-.612-1.47a3.418,3.418,0,0,0-1.593,0c-1.021.122-2.124.245-2.777-.449-.694-.694-.572-1.756-.449-2.777a3.418,3.418,0,0,0,0-1.593,3.585,3.585,0,0,0-1.47-.612c-1.021-.286-2.042-.572-2.409-1.47-.368-.939.122-1.879.653-2.818A3.653,3.653,0,0,0,78.373,29c-.041-.286-.653-.776-1.1-1.1-.776-.612-1.674-1.348-1.674-2.328s.9-1.674,1.674-2.328c.449-.367,1.062-.817,1.1-1.1a4.14,4.14,0,0,0-.612-1.511c-.49-.9-1.021-1.838-.653-2.736s1.429-1.184,2.409-1.47c.531-.163,1.307-.367,1.47-.612a3.418,3.418,0,0,0,0-1.593c-.122-1.021-.245-2.124.449-2.777.694-.694,1.756-.572,2.777-.449a3.418,3.418,0,0,0,1.593,0,3.584,3.584,0,0,0,.612-1.47c.286-1.021.572-2.042,1.47-2.409s1.838.163,2.736.653a3.653,3.653,0,0,0,1.511.612c.286-.041.776-.653,1.1-1.1C93.891,6.5,94.586,5.6,95.566,5.6s1.674.9,2.328,1.674c.367.449.817,1.062,1.1,1.1a3.667,3.667,0,0,0,1.511-.613c.9-.49,1.838-1.021,2.736-.653s1.184,1.429,1.47,2.409c.163.531.367,1.307.612,1.47a3.418,3.418,0,0,0,1.593,0c1.021-.122,2.124-.245,2.777.449.694.694.572,1.756.449,2.777a3.418,3.418,0,0,0,0,1.593,3.585,3.585,0,0,0,1.47.612c1.021.286,2.042.572,2.409,1.47s-.163,1.838-.653,2.736a3.653,3.653,0,0,0-.612,1.511c.041.286.653.776,1.1,1.1.776.612,1.674,1.348,1.674,2.328s-.9,1.674-1.674,2.328c-.449.367-1.062.817-1.1,1.1a4.14,4.14,0,0,0,.612,1.511c.49.9,1.021,1.838.653,2.736s-1.429,1.184-2.409,1.47c-.531.163-1.307.367-1.47.612a3.418,3.418,0,0,0,0,1.593c.122,1.021.245,2.124-.449,2.777-.694.694-1.756.572-2.777.449a3.418,3.418,0,0,0-1.593,0,3.585,3.585,0,0,0-.612,1.47c-.286,1.021-.572,2.042-1.47,2.409s-1.838-.163-2.736-.653A3.653,3.653,0,0,0,99,42.764c-.286.041-.776.653-1.1,1.1-.612.858-1.348,1.756-2.328,1.756Zm-3.471-4.247a.8.8,0,0,1,.327.041,3.9,3.9,0,0,1,1.96,1.633c.367.449.9,1.143,1.184,1.143s.858-.694,1.184-1.143a3.743,3.743,0,0,1,1.96-1.633,3.745,3.745,0,0,1,2.491.776c.449.245,1.225.694,1.47.572s.49-.939.653-1.511a3.86,3.86,0,0,1,1.184-2.246,3.859,3.859,0,0,1,2.573-.245c.531.041,1.429.163,1.633-.041s.082-1.1.041-1.633A3.859,3.859,0,0,1,109,34.516a3.759,3.759,0,0,1,2.246-1.184c.572-.163,1.388-.408,1.511-.653.082-.245-.327-1.021-.572-1.47a3.98,3.98,0,0,1-.776-2.491,3.9,3.9,0,0,1,1.633-1.96c.449-.367,1.143-.9,1.143-1.184s-.694-.858-1.143-1.184a3.743,3.743,0,0,1-1.633-1.96,3.745,3.745,0,0,1,.776-2.491c.245-.449.694-1.225.572-1.47s-.939-.49-1.511-.653A3.86,3.86,0,0,1,109,16.629a3.859,3.859,0,0,1-.245-2.573c.041-.531.163-1.429-.041-1.633s-1.1-.082-1.633-.041a3.859,3.859,0,0,1-2.573-.245,3.759,3.759,0,0,1-1.184-2.246c-.163-.572-.408-1.388-.653-1.511-.245-.082-1.021.327-1.47.572a3.981,3.981,0,0,1-2.491.776,3.9,3.9,0,0,1-1.96-1.633c-.367-.449-.9-1.143-1.184-1.143s-.817.775-1.184,1.224a3.743,3.743,0,0,1-1.96,1.633,3.745,3.745,0,0,1-2.491-.776c-.449-.245-1.225-.694-1.47-.572s-.49.939-.653,1.511a3.86,3.86,0,0,1-1.184,2.246,3.859,3.859,0,0,1-2.573.245c-.531-.041-1.429-.163-1.633.041s-.082,1.1-.041,1.633a3.859,3.859,0,0,1-.245,2.573,3.759,3.759,0,0,1-2.246,1.184c-.572.163-1.388.408-1.511.653-.082.245.327,1.021.572,1.47a3.98,3.98,0,0,1,.776,2.491,3.9,3.9,0,0,1-1.633,1.96c-.449.367-1.143.9-1.143,1.184s.694.858,1.143,1.184a3.743,3.743,0,0,1,1.633,1.96,3.745,3.745,0,0,1-.776,2.491c-.245.449-.694,1.225-.572,1.47s.939.49,1.511.653A3.86,3.86,0,0,1,82.13,34.6a3.859,3.859,0,0,1,.245,2.573c-.041.531-.163,1.429.041,1.633s1.1.082,1.633.041a3.859,3.859,0,0,1,2.573.245,3.759,3.759,0,0,1,1.184,2.246c.163.572.409,1.388.653,1.511s1.021-.327,1.47-.572a4.123,4.123,0,0,1,2.164-.9Z" transform="translate(766.955 6431.398)" fill="#2c2d66"/>
        <path id="Caminho_21022" data-name="Caminho 21022" d="M205.78,144.186a1.242,1.242,0,0,1,1.1-.98,1.2,1.2,0,0,1,1.062.939.352.352,0,0,0,.449.245,6.409,6.409,0,0,0,2.246-.939.39.39,0,0,0,.122-.49,1.236,1.236,0,0,1,.245-1.674,1.252,1.252,0,0,1,1.348.082.76.76,0,0,0,.286.082.336.336,0,0,0,.245-.163,7.828,7.828,0,0,0,.98-2.328.36.36,0,0,0-.041-.286.374.374,0,0,0-.245-.163,1.125,1.125,0,0,1,0-2.246c.082,0,.163-.082.245-.163a.359.359,0,0,0,.041-.286,6.448,6.448,0,0,0-.98-2.328.335.335,0,0,0-.245-.163.389.389,0,0,0-.286.082,1.187,1.187,0,0,1-1.348.122,1.284,1.284,0,0,1-.2-1.715.378.378,0,0,0-.122-.49,6.607,6.607,0,0,0-2.287-.939.376.376,0,0,0-.449.286,1.106,1.106,0,0,1-2.205,0,.376.376,0,0,0-.449-.286,6.607,6.607,0,0,0-2.287.939.39.39,0,0,0-.122.49,1.284,1.284,0,0,1-.2,1.715,1.187,1.187,0,0,1-1.348-.122.76.76,0,0,0-.286-.082.336.336,0,0,0-.245.163,8.065,8.065,0,0,0-.98,2.369v.082a.392.392,0,0,0,.286.367,1.242,1.242,0,0,1,.98,1.1,1.162,1.162,0,0,1-.98,1.062.376.376,0,0,0-.286.449,8.312,8.312,0,0,0,.98,2.328.275.275,0,0,0,.245.163.7.7,0,0,0,.286-.041,1.176,1.176,0,0,1,1.348-.082,1.278,1.278,0,0,1,.245,1.674.378.378,0,0,0,.122.49,6.607,6.607,0,0,0,2.287.939.291.291,0,0,0,.45-.2Zm-.98-6.657a2.135,2.135,0,0,1,2.124-2.124,2.109,2.109,0,0,1,2.124,2.124,2.124,2.124,0,1,1-4.247,0Z" transform="translate(651.799 6315.726)" fill="#2c2d66"/>
        <path id="Caminho_21023" data-name="Caminho 21023" d="M357.827,289.7a.975.975,0,0,1-.409-1.062.951.951,0,0,1,.98-.531c.163,0,.286-.082.286-.245a4.857,4.857,0,0,0-.082-1.879.253.253,0,0,0-.327-.2.948.948,0,0,1-1.143-.612.932.932,0,0,1,.409-.939.224.224,0,0,0,.122-.2.307.307,0,0,0-.041-.2,4.843,4.843,0,0,0-1.429-1.307.369.369,0,0,0-.2-.041c-.082,0-.122.082-.163.122a1.028,1.028,0,0,1-1.1.49.911.911,0,0,1-.49-1.062.307.307,0,0,0-.041-.2.889.889,0,0,0-.2-.122,6.015,6.015,0,0,0-1.919.082.182.182,0,0,0-.163.122.445.445,0,0,0-.041.2.917.917,0,0,1-.286,1.021,1.05,1.05,0,0,1-1.307-.286.31.31,0,0,0-.409-.041,5.835,5.835,0,0,0-1.266,1.388.325.325,0,0,0,.082.409.943.943,0,0,1,.449,1.062.954.954,0,0,1-1.021.531.311.311,0,0,0-.327.245,5.765,5.765,0,0,0,.082,1.879.253.253,0,0,0,.327.2,1.019,1.019,0,0,1,1.184.612.9.9,0,0,1-.449.939.224.224,0,0,0-.122.2.307.307,0,0,0,.041.2,5.4,5.4,0,0,0,1.429,1.307.04.04,0,0,1,.041.041.274.274,0,0,0,.327-.122,1,1,0,0,1,1.062-.449.9.9,0,0,1,.531.98.311.311,0,0,0,.245.327,6.014,6.014,0,0,0,1.919-.082c.082,0,.122-.082.163-.122a.445.445,0,0,0,.041-.2.855.855,0,0,1,.286-.98,1,1,0,0,1,1.266.286.31.31,0,0,0,.409.041,5.836,5.836,0,0,0,1.266-1.388c.163-.164.123-.327,0-.409Zm-5.1-1.062a1.628,1.628,0,1,1,2.083-.98A1.589,1.589,0,0,1,352.722,288.639Z" transform="translate(514.658 6175.478)" fill="#2c2d66"/>
      </g>
    </g>
    <g id="Grupo_28339" data-name="Grupo 28339">
      <text id="Outros" transform="translate(480 6537.51)" fill="#5f47ff" font-size="10" font-family="Montserrat-Bold, Montserrat" font-weight="700"><tspan x="-17" y="0">Outros</tspan></text>
      <g id="Grupo_28332" data-name="Grupo 28332" transform="translate(451.654 -107.508)">
        <path id="Caminho_21039" data-name="Caminho 21039" d="M174.613,184.111h-5.105a.519.519,0,0,0-.379.872,2.482,2.482,0,1,1-3.635,0,.519.519,0,0,0-.379-.872h-4.586V180.5a3.521,3.521,0,0,0,4.96-3.931,3.48,3.48,0,0,0-2.6-2.659,3.526,3.526,0,0,0-2.363.244v-4.129a.519.519,0,0,0-.519-.519H148.065a3.194,3.194,0,0,0-3.189,3.189v23.889a3.194,3.194,0,0,0,3.189,3.189h23.874a3.194,3.194,0,0,0,3.189-3.189V184.64a.519.519,0,0,0-.514-.53ZM145.93,172.685a2.155,2.155,0,0,1,2.15-2.15h11.425v4.6a.519.519,0,0,0,.872.379,2.476,2.476,0,0,1,4.108,1.273,2.508,2.508,0,0,1-.519,2.108,2.477,2.477,0,0,1-3.635.255.519.519,0,0,0-.872.379v4.58h-3.573a3.48,3.48,0,0,0,.322-1.906v-.12a.628.628,0,0,0-.042-.249.942.942,0,0,1-.057-.2c-.021-.067-.026-.1-.042-.156s-.057-.151-.088-.223l-.052-.125c-.031-.073-.073-.14-.109-.213l-.083-.12a1.927,1.927,0,0,0-.125-.187l-.093-.13-.125-.156-.125-.14-.13-.13-.068-.083-.067-.057-.062-.057-.078-.057-.161-.114-.166-.1-.151-.083-.2-.1-.156-.057-.213-.1h-.125l-.239-.062h-.125l-.244-.036h-.8a1.444,1.444,0,0,0-.327.052l-.171.052H151.7a3.469,3.469,0,0,0-2.342,2.238l-.026.088a.818.818,0,0,1-.057.182,1.144,1.144,0,0,1-.026.187.609.609,0,0,0-.036.151.671.671,0,0,0,0,.145v.841a1.081,1.081,0,0,0,.047.239c.016.078.042.208.073.306a1.863,1.863,0,0,0,.083.213c.031.073.062.192.109.28H145.93Zm13.56,26.023H148.065a2.155,2.155,0,0,1-2.15-2.15V185.133H150.5a.519.519,0,0,0,.416-.857q-.088-.1-.166-.2l-.13-.166-.067-.1c-.031-.057-.057-.114-.088-.171l-.036-.078c-.026-.062-.047-.125-.073-.187v-.078a1.446,1.446,0,0,0-.047-.192v-.914a2.355,2.355,0,0,1,.036-.353v-.042h0a2.513,2.513,0,0,1,1.646-1.594h.041a2.4,2.4,0,0,1,.364-.073,2.568,2.568,0,0,1,.478,0h.119a2.452,2.452,0,0,1,.421.083l.1.031a2.452,2.452,0,0,1,.389.171l.078.047a2.508,2.508,0,0,1,.364.265l.052.047h0a2.432,2.432,0,0,1,.312.343l.031.042h0a2.471,2.471,0,0,1,.239.41v.031a2.469,2.469,0,0,1,.15.462v.031a2.552,2.552,0,0,1-.576,2.192.519.519,0,0,0-.109.519v.042a.519.519,0,0,0,.478.312h4.58v3.6a4.311,4.311,0,0,0-1.9-.348l-.2.031-.166.026-.244.067-.114.031-.244.093-.1.042-.223.114-.114.062-.187.125-.13.093-.151.125-.145.13-.208.208-.057.073-.052.057-.052.073-.125.176-.093.151-.093.171-.088.171-.073.166a.68.68,0,0,1-.067.187c-.021.062-.036.12-.052.176a.914.914,0,0,0-.068.223.392.392,0,0,1-.036.2c-.036.067,0,.109,0,.166v.852a.848.848,0,0,0,.047.3.508.508,0,0,1,.047.156l.031.114h0a3.469,3.469,0,0,0,2.238,2.3l.109.036.161.031.171.026.161.036h.992l.239-.047a1.056,1.056,0,0,0,.306-.073c.1-.031.145-.057.218-.083s.187-.062.275-.1Zm14.6-2.15a2.155,2.155,0,0,1-2.15,2.15H160.513v-4.585a.519.519,0,0,0-.873-.379h-.026c-.063.057-.129.111-.2.161l-.125.083-.114.073-.156.078-.1.047-.171.062-.1.031-.166.042h-.956a2.36,2.36,0,0,1-.3-.067h-.062a2.514,2.514,0,0,1-1.558-1.625v-.073a2.353,2.353,0,0,1-.062-.317v-.062a2.554,2.554,0,0,1,0-.447v-.1a2.468,2.468,0,0,1,.078-.4.167.167,0,0,1,.036-.125,2.443,2.443,0,0,1,.166-.374l.052-.093a2.5,2.5,0,0,1,.26-.358l.052-.057a2.48,2.48,0,0,1,.343-.306l.042-.031h0a2.491,2.491,0,0,1,.41-.239h.026a2.456,2.456,0,0,1,2.67.457.519.519,0,0,0,.873-.379v-4.57h3.609a3.536,3.536,0,1,0,6.351,0h3.61Z" transform="translate(-135.531 6427.245)" fill="#2c2d66"/>
        <path id="Caminho_21040" data-name="Caminho 21040" d="M343.1,72.967,334.1,65.13a3.193,3.193,0,0,0-4.5.312l-7.837,9a.52.52,0,0,0,.052.732l3.848,3.35h0a.519.519,0,0,0,.862-.41,2.483,2.483,0,1,1,2.742,2.389.519.519,0,0,0-.286.909l3.848,3.35a.519.519,0,0,0,.732-.052l2.711-3.116h0a3.522,3.522,0,0,0,6.325.3,3.479,3.479,0,0,0-.213-3.713,3.527,3.527,0,0,0-1.942-1.366l2.706-3.116h0a.52.52,0,0,0-.052-.727Z" transform="translate(-295.897 6522.652)" fill="#2c2d66"/>
      </g>
    </g>
    <g id="Grupo_28340" data-name="Grupo 28340" transform="translate(0 1.328)">
      <text id="Marketplaces" transform="translate(704 6338.672)" fill="#5f47ff" font-size="10" font-family="Montserrat-Bold, Montserrat" font-weight="700"><tspan x="-35" y="0">Marketplaces</tspan></text>
      <path id="Caminho_20914" data-name="Caminho 20914" d="M154.722,30.482l-4.77-7.631a.966.966,0,0,0-.811-.448H120.524a.966.966,0,0,0-.811.448l-4.77,7.631a.939.939,0,0,0-.143.505V53.882a2.87,2.87,0,0,0,2.862,2.862H152a2.87,2.87,0,0,0,2.862-2.862V30.988a.939.939,0,0,0-.143-.505Zm-6.105-6.172,4.321,6.916a2.857,2.857,0,0,1-5.7-.239.953.953,0,0,0-.105-.429L144.01,24.31Zm-14.947,0H136l1.688,6.763a2.853,2.853,0,0,1-5.7,0Zm-12.621,0h4.608l-3.119,6.248a.953.953,0,0,0-.105.429,2.857,2.857,0,0,1-5.7.239Zm31.908,29.571a.957.957,0,0,1-.954.954H117.663a.957.957,0,0,1-.954-.954V34.774a4.678,4.678,0,0,0,2.862.982,4.755,4.755,0,0,0,3.825-1.936,4.728,4.728,0,0,0,7.631,0,4.709,4.709,0,0,0,7.612,0,4.728,4.728,0,0,0,7.631,0,4.726,4.726,0,0,0,6.687.964ZM118.617,39.573a.954.954,0,0,1,.954-.954H127.2a.954.954,0,1,1,0,1.908H119.57a.954.954,0,0,1-.954-.954Zm0,3.816a.954.954,0,0,1,.954-.954h12.4a.954.954,0,1,1,0,1.908h-12.4A.954.954,0,0,1,118.617,43.389Zm0,3.816a.954.954,0,0,1,.954-.954h12.4a.954.954,0,1,1,0,1.908h-12.4A.954.954,0,0,1,118.617,47.2Zm18.124,3.816h0a.954.954,0,0,1-.954.954H119.57a.954.954,0,0,1,0-1.908h16.216a.954.954,0,0,1,.954.954ZM141.81,38.1l-1.965.731,2.294,1.77h0a.954.954,0,0,1-1.164,1.511h0l-4.455-3.437h0a.954.954,0,0,0-1.165,1.511l1.284.991-.425,4.223h0a2.114,2.114,0,0,0,.8,1.885l7.674,6.041a1.524,1.524,0,0,0,2.154-.273l4.939-6.446h0a1.546,1.546,0,0,0-.269-2.147l-7.673-6.039a2.076,2.076,0,0,0-2.025-.319Zm5.365,7.273h0a.954.954,0,0,1,.185,1.336L145.9,48.631a.954.954,0,0,1-1.521-1.151l1.456-1.924a.951.951,0,0,1,1.336-.185Zm-2.5-.7L143.215,46.6h0a.954.954,0,1,1-1.521-1.151l1.456-1.924a.954.954,0,1,1,1.521,1.151Z" transform="translate(569.199 6261.27)" fill="#2c2d66"/>
    </g>
    <text id="Logística" transform="translate(633 6161.5)" fill="#5f47ff" font-size="10" font-family="Montserrat-Bold, Montserrat" font-weight="700"><tspan x="-23" y="0">Logística</tspan></text>
    <text id="Marketing" transform="translate(769 6198.5)" fill="#5f47ff" font-size="10" font-family="Montserrat-Bold, Montserrat" font-weight="700"><tspan x="-27" y="0">Marketing</tspan></text>
    <g id="Grupo_28318" data-name="Grupo 28318" transform="translate(614.969 -416.773)">
      <path id="Caminho_20902" data-name="Caminho 20902" d="M531.576,197.088l-2,2a.668.668,0,1,0,.944.944l2-2a.668.668,0,0,0-.944-.944Z" transform="translate(-360.324 6375.057)" fill="#2c2d66"/>
      <path id="Caminho_20903" data-name="Caminho 20903" d="M532.062,296.48a.668.668,0,0,0,.472-1.14l-2-2a.668.668,0,0,0-.944.944l2,2A.666.666,0,0,0,532.062,296.48Z" transform="translate(-360.338 6286.153)" fill="#2c2d66"/>
      <path id="Caminho_20904" data-name="Caminho 20904" d="M73.416,105.07c-.4-.014-.8-.03-1.213-.054a2.01,2.01,0,0,0-1.5.557,2.233,2.233,0,0,0-.7,1.612L70,111.3a2.235,2.235,0,0,0,.7,1.634,1.964,1.964,0,0,0,1.49.541c.406-.028.8-.049,1.195-.068h0a2,2,0,0,0,1.869,1.557c.261.536.514,1.068.729,1.537,1.072,2.089.54,4.839.262,5.924h0a.99.99,0,0,0,.284.98.955.955,0,0,0,.94.187l4.556-1.63a.992.992,0,0,0,.57-.54,1.02,1.02,0,0,0,0-.808L80.691,116.2a11.47,11.47,0,0,1-.494-1.23h1.151a2,2,0,0,0,1.774-1.076c9.673,1.593,14.146,6.2,15.9,8.013a1.347,1.347,0,0,0,1.461.31,1.326,1.326,0,0,0,.834-1.23l.02-7.458a4.658,4.658,0,0,0,.023-8.455l.02-7.461a1.335,1.335,0,0,0-2.286-.937c-1.729,1.765-6.16,6.283-16.057,7.873a2,2,0,0,0-1.687-.928H75.339a2.005,2.005,0,0,0-1.923,1.45Zm-.079,7c-.407.02-.818.042-1.237.072h0a.647.647,0,0,1-.485-.185.907.907,0,0,1-.281-.655l.011-4.118a.9.9,0,0,1,.277-.643.677.677,0,0,1,.5-.2c.407.023.809.039,1.209.053Zm10.015-6.24h0a34.342,34.342,0,0,0,8.478-2.478,25.516,25.516,0,0,0,8.214-5.746v23.369l-.063,0c-1.839-1.9-6.538-6.742-16.629-8.4Zm-5.006,2.793h0a.668.668,0,1,1-.669.666.667.667,0,0,1,.669-.666Zm.449,6.343h0a12.523,12.523,0,0,0,.68,1.779l1.764,4.079L77.692,122.1a9.844,9.844,0,0,0-.506-6.179c-.079-.172-.239-.518-.444-.949Z" transform="translate(64.002 6467.996)" fill="#2c2d66"/>
      <path id="Caminho_20913" data-name="Caminho 20913" d="M533.75,258.8a.668.668,0,0,0,.668.668h3.338a.668.668,0,0,0,0-1.335h-3.338A.668.668,0,0,0,533.75,258.8Z" transform="translate(-364.363 6318.494)" fill="#2c2d66"/>
    </g>
    <g id="Grupo_28277" data-name="Grupo 28277" transform="translate(518.023 -17.258)">
      <path id="Caminho_20897" data-name="Caminho 20897" d="M151.693,134.784l-4.677-6.014a.668.668,0,0,0-.528-.261h-6.014v-2.673a3.341,3.341,0,0,0-3.341-3.341H115.082a.668.668,0,1,0,0,1.336h22.051a2,2,0,0,1,2,2V135.86H114.414a.668.668,0,0,0,0,1.336h24.724v4.677H125.713a4.01,4.01,0,1,0,0,1.337H141.2a4.009,4.009,0,0,0,7.9,0h2.065a.668.668,0,0,0,.668-.668v-7.35a.669.669,0,0,0-.14-.408Zm-1.2,7.09h-1.4a4.009,4.009,0,0,0-7.9,0h-.728V129.846h5.686l4.337,5.573Z" transform="translate(-16.765 6006.264)" fill="#2c2d66"/>
      <path id="Caminho_20898" data-name="Caminho 20898" d="M484.591,236.25h-2.673a.668.668,0,0,0-.668.668v4.009a.668.668,0,0,0,.668.668h6.014a.668.668,0,0,0,.515-1.1l-3.341-4.009A.669.669,0,0,0,484.591,236.25Z" transform="translate(-356.204 5901.197)" fill="#2c2d66"/>
      <path id="Caminho_20899" data-name="Caminho 20899" d="M105.542,176.336a.668.668,0,1,0,0-1.336H88.168a.668.668,0,0,0,0,1.336Z" transform="translate(7.477 5957.769)" fill="#2c2d66"/>
      <path id="Caminho_20900" data-name="Caminho 20900" d="M158.168,236.25a.668.668,0,0,0,0,1.336h6.682a.668.668,0,0,0,0-1.336Z" transform="translate(-57.178 5901.197)" fill="#2c2d66"/>
      <path id="Caminho_20901" data-name="Caminho 20901" d="M98.255,376.25H96.918a.668.668,0,1,0,0,1.336h1.336a.668.668,0,1,0,0-1.336Z" transform="translate(-0.605 5771.888)" fill="#2c2d66"/>
    </g>
    <text id="PDV" transform="translate(479.938 6135.5)" fill="#5f47ff" font-size="10" font-family="Montserrat-Bold, Montserrat" font-weight="700"><tspan x="-11" y="0">PDV</tspan></text>
    <g id="Grupo_28337" data-name="Grupo 28337" transform="translate(20321.295 23301.727)">
      <path id="Caminho_21041" data-name="Caminho 21041" d="M390.882,136.459a.484.484,0,0,0,.484-.484v-4.941a.484.484,0,0,0-.967,0v4.942a.484.484,0,0,0,.483.483Z" transform="translate(-20228.207 -17347.707)" fill="#2c2d66"/>
      <path id="Caminho_21042" data-name="Caminho 21042" d="M413.582,142.9a.483.483,0,0,0,.484-.484V131.03a.484.484,0,1,0-.967,0v11.389A.484.484,0,0,0,413.582,142.9Z" transform="translate(-20248.947 -17347.703)" fill="#2c2d66"/>
      <path id="Caminho_21043" data-name="Caminho 21043" d="M436.292,142.9a.483.483,0,0,0,.483-.484V131.03a.483.483,0,1,0-.967,0v11.389A.484.484,0,0,0,436.292,142.9Z" transform="translate(-20269.697 -17347.703)" fill="#2c2d66"/>
      <path id="Caminho_21044" data-name="Caminho 21044" d="M458.992,142.9a.483.483,0,0,0,.483-.484V131.03a.484.484,0,1,0-.967,0v11.389A.484.484,0,0,0,458.992,142.9Z" transform="translate(-20290.438 -17347.703)" fill="#2c2d66"/>
      <path id="Caminho_21045" data-name="Caminho 21045" d="M481.692,142.9a.483.483,0,0,0,.483-.484V131.03a.484.484,0,0,0-.967,0v11.389A.484.484,0,0,0,481.692,142.9Z" transform="translate(-20311.18 -17347.703)" fill="#2c2d66"/>
      <path id="Caminho_21046" data-name="Caminho 21046" d="M504.4,259.406a.483.483,0,0,0,.483-.484v-.382a.483.483,0,0,0-.967,0v.382A.484.484,0,0,0,504.4,259.406Z" transform="translate(-20331.926 -17464.209)" fill="#2c2d66"/>
      <path id="Caminho_21047" data-name="Caminho 21047" d="M504.4,140.885a.483.483,0,0,0,.483-.484V131.03a.483.483,0,1,0-.967,0V140.4a.483.483,0,0,0,.483.483Z" transform="translate(-20331.926 -17347.703)" fill="#2c2d66"/>
      <path id="Caminho_21048" data-name="Caminho 21048" d="M153.627,71.82H133.649a4.094,4.094,0,0,0-4.089,4.089v5.665h-3.094a8.86,8.86,0,0,0-6,15.384l-1.827,8.724a1.723,1.723,0,0,0,1.687,2.077h5.368a1.731,1.731,0,0,0,1.687-1.371l1.478-7.073H138.5a2.79,2.79,0,0,0,2.784-2.789V94.311h12.345a4.094,4.094,0,0,0,4.089-4.089V75.909a4.094,4.094,0,0,0-4.089-4.089ZM135.264,98.347h-8.8a8.074,8.074,0,0,1-5.16-1.917h0a7.9,7.9,0,0,1,5.161-13.889h8.8Zm4.875-16.232a.484.484,0,0,0,.012-.058V77.373a.484.484,0,0,0-.967,0v4.291a2.759,2.759,0,0,0-.686-.089h-.307v-4.2a.484.484,0,1,0-.967,0v4.2h-.993v-4.2a.484.484,0,0,0-.967,0v4.2h-1.353V75.919h19.456v14.3H141.282V84.363a2.785,2.785,0,0,0-1.143-2.248Zm16.611,8.106a3.126,3.126,0,0,1-3.123,3.123H141.282V91.184h12.345a.707.707,0,0,0,.706-.706V75.658a.707.707,0,0,0-.706-.706H133.649a.707.707,0,0,0-.706.706v5.916h-2.417V75.909a3.126,3.126,0,0,1,3.123-3.123h19.978a3.126,3.126,0,0,1,3.123,3.123Z" transform="translate(-19978.953 -17294.047)" fill="#2c2d66"/>
      <path id="Caminho_21049" data-name="Caminho 21049" d="M163.378,321.484h-1.7a5.486,5.486,0,0,1-4.651-2.576.483.483,0,1,0-.819.513,6.453,6.453,0,0,0,5.47,3.03h1.7a.483.483,0,1,0,0-.967Z" transform="translate(-20014.158 -17519.6)" fill="#2c2d66"/>
      <path id="Caminho_21050" data-name="Caminho 21050" d="M146.564,282.472a.484.484,0,0,0-.967,0,6.53,6.53,0,0,0,.05.806.483.483,0,0,0,.479.423.459.459,0,0,0,.061,0,.483.483,0,0,0,.42-.539A5.65,5.65,0,0,1,146.564,282.472Z" transform="translate(-20004.535 -17486.074)" fill="#2c2d66"/>
    </g>
    <text id="CRM" transform="translate(256.969 6341.5)" fill="#5f47ff" font-size="10" font-family="Montserrat-Bold, Montserrat" font-weight="700"><tspan x="-12" y="0">CRM</tspan></text>
    <path id="Caminho_21030" data-name="Caminho 21030" d="M143.632,52.5h-37.2A1.432,1.432,0,0,0,105,53.931V78.97a1.433,1.433,0,0,0,1.431,1.431h15.462l-1.669,5.008h-3.777a1.433,1.433,0,0,0-1.431,1.431V88.27a1.433,1.433,0,0,0,1.431,1.431h17.17a1.433,1.433,0,0,0,1.431-1.431V86.839a1.433,1.433,0,0,0-1.431-1.431H129.84L128.17,80.4h15.462a1.433,1.433,0,0,0,1.431-1.431V53.931a1.432,1.432,0,0,0-1.431-1.431ZM133.616,88.27h-17.17V86.839h17.17Zm-5.285-2.862h-6.6L123.4,80.4h3.261Zm-4.015-7.869a.715.715,0,1,1,.715.715A.715.715,0,0,1,124.316,77.539Zm19.316-2.862h-37.2V53.931h37.2Zm-27.9-2.146V67.523a.715.715,0,0,1,.715-.715h2.146a.715.715,0,0,1,.715.715v5.008a.715.715,0,0,1-.715.715h-2.146A.715.715,0,0,1,115.731,72.531Zm13.593-7.154v7.154a.715.715,0,0,1-.715.715h-2.146a.715.715,0,0,1-.715-.715V65.377a.715.715,0,0,1,.715-.715h2.146a.715.715,0,0,1,.715.715ZM123.6,62.516h-2.146a.715.715,0,0,0-.715.715v9.3a.715.715,0,0,0,.715.715H123.6a.715.715,0,0,0,.715-.715v-9.3a.715.715,0,0,0-.715-.715Zm-.715,9.3h-.715V63.946h.715Zm7.869-11.446V72.531a.715.715,0,0,0,.715.715h2.146a.715.715,0,0,0,.715-.715V60.369a.715.715,0,0,0-.715-.715H131.47A.715.715,0,0,0,130.754,60.369Zm1.431.715h.715V71.816h-.715Zm-14.9,1.828a.716.716,0,0,1,.2-.992l4.292-2.862a.714.714,0,0,1,.5-.113l4.687.669,4.762-4.081h0a.716.716,0,0,1,.931,1.087l-5.008,4.292a.713.713,0,0,1-.567.164l-4.737-.677-4.065,2.71a.716.716,0,0,1-.992-.2Z" transform="translate(131.969 6232)" fill="#2c2d66"/>
    <text id="E-commerce" transform="translate(327 6161.5)" fill="#5f47ff" font-size="10" font-family="Montserrat-Bold, Montserrat" font-weight="700"><tspan x="-33" y="0">E-commerce</tspan></text>
    <g id="Grupo_28341" data-name="Grupo 28341" transform="translate(16.996 -328.5)">
      <path id="Caminho_21051" data-name="Caminho 21051" d="M104.214,43.139a.91.91,0,0,0,.085,1.818h4.245a3.051,3.051,0,0,1,3.053,3.038V71.066a4.888,4.888,0,0,0,4.472,4.856,3.626,3.626,0,0,0-.582,1.973,3.677,3.677,0,1,0,7.354,0,3.625,3.625,0,0,0-.568-1.959H129.3a3.638,3.638,0,0,0-.582,1.959,3.677,3.677,0,1,0,7.354,0,3.631,3.631,0,0,0-.568-1.959h1.846a.909.909,0,1,0,0-1.817h-20.9a3.042,3.042,0,0,1-3.038-3.053v-.923a4.806,4.806,0,0,0,3.038,1.079h17.833a3.819,3.819,0,0,0,3.081-1.6,16.75,16.75,0,0,0,1.505-2.868l4.2-8.7a2.925,2.925,0,0,0,.156-2.172,3.8,3.8,0,0,0-1.164-1.675,5.866,5.866,0,0,0-3.762-1.406H113.414V48a4.882,4.882,0,0,0-4.87-4.856H104.3c-.028,0-.057,0-.085,0Zm9.2,11.472H138.3a4.366,4.366,0,0,1,2.57.965,2.025,2.025,0,0,1,.625.852.983.983,0,0,1-.057.823l-4.2,8.718a17.648,17.648,0,0,1-1.335,2.556,1.741,1.741,0,0,1-1.618.88H116.452a3.042,3.042,0,0,1-3.038-3.053Z" transform="translate(186.654 6389.861)" fill="#2c2d66"/>
      <path id="Caminho_21052" data-name="Caminho 21052" d="M288.547,242.179a.909.909,0,1,0,0,1.817h10.21a.909.909,0,1,0,0-1.817Z" transform="translate(15.395 6206.968)" fill="#2c2d66"/>
      <path id="Caminho_21053" data-name="Caminho 21053" d="M226.13,291.389a.909.909,0,1,0,0,1.817H241.4a.909.909,0,1,0,0-1.817Z" transform="translate(77.811 6161.75)" fill="#2c2d66"/>
    </g>
  </g>
</svg>
