<svg xmlns="http://www.w3.org/2000/svg" width="29" height="13.064" viewBox="0 0 29 13.064">
  <path id="Caminho_26" data-name="Caminho 26" d="M136.526,8.85a5.014,5.014,0,0,0-4.468-3.94,9.675,9.675,0,0,0-3.278-3.16,10.527,10.527,0,0,0-10.576,0,9.746,9.746,0,0,0-3.278,3.16,5.014,5.014,0,0,0-4.468,3.94A2.366,2.366,0,0,0,109,11.009a2.522,2.522,0,0,0,5.036,0,2.344,2.344,0,0,0-1.253-2.057,2.827,2.827,0,0,1,2.735-1.915l.5.016a.485.485,0,0,0,.378-.181l.244-.426a7.925,7.925,0,0,1,13.728,0l.221.4h.008a.5.5,0,0,0,.4.2l.5-.016a2.827,2.827,0,0,1,2.735,1.915A2.344,2.344,0,0,0,132.972,11a2.518,2.518,0,0,0,5.028.008A2.4,2.4,0,0,0,136.526,8.85Zm-.292,2.159a.774.774,0,1,1-.772-.717A.748.748,0,0,1,136.235,11.009Zm-23.941,0a.782.782,0,1,1-.78-.725.757.757,0,0,1,.78.725Z" transform="translate(-109 -0.325)" fill="#5f47ff"/>
</svg>
