<svg xmlns="http://www.w3.org/2000/svg" width="43" height="42" viewBox="0 0 43 42">
  <g id="Grupo_27695" data-name="Grupo 27695" transform="translate(20654 16500)">
    <rect id="Retângulo_5235" data-name="Retângulo 5235" width="43" height="42" rx="6" transform="translate(-20654 -16500)" fill="#5f47ff"/>
    <g id="g7433" transform="translate(-20645 -16488)">
      <path id="path7429" d="M24.923,2.788A3.188,3.188,0,0,0,22.68.545C20.689,0,12.724,0,12.724,0S4.758,0,2.767.524A3.254,3.254,0,0,0,.524,2.788,33.6,33.6,0,0,0,0,8.909a33.47,33.47,0,0,0,.524,6.121,3.188,3.188,0,0,0,2.243,2.243c2.012.545,9.957.545,9.957.545s7.965,0,9.957-.524a3.188,3.188,0,0,0,2.243-2.243,33.6,33.6,0,0,0,.524-6.121,31.9,31.9,0,0,0-.524-6.142Z" fill="#fff"/>
      <path id="polygon7431" d="M48.6,24.3v7.63l6.624-3.815Z" transform="translate(-38.413 -19.206)" fill="#5f47ff"/>
    </g>
  </g>
</svg>
