<svg id="Grupo_29063" data-name="Grupo 29063" xmlns="http://www.w3.org/2000/svg" xmlns:xlink="http://www.w3.org/1999/xlink" width="45" height="43.656" viewBox="0 0 45 43.656">
  <defs>
    <clipPath id="clip-path">
      <rect id="Retângulo_5943" data-name="Retângulo 5943" width="45" height="43.656" fill="#5f47ff"/>
    </clipPath>
  </defs>
  <g id="Grupo_29062" data-name="Grupo 29062" clip-path="url(#clip-path)">
    <path id="Caminho_21763" data-name="Caminho 21763" d="M99.855,401.374h0a.34.34,0,0,0-.272-.094l-4.128-.239a.334.334,0,0,0-.361.321.341.341,0,0,0,.322.362l3.381.2a20.447,20.447,0,0,1-13.744,5.456h-.211A20.453,20.453,0,0,1,67.4,397.712a.342.342,0,1,0-.58.364,21.132,21.132,0,0,0,18.015,9.985h.219a21.122,21.122,0,0,0,14.16-5.6l-.193,3.328a.341.341,0,0,0,.322.361h.02a.342.342,0,0,0,.341-.322l.243-4.186s0-.007,0-.01a.34.34,0,0,0-.1-.26" transform="translate(-61.226 -364.529)" fill="#5f47ff"/>
    <path id="Caminho_21764" data-name="Caminho 21764" d="M83.469,406.816a21.282,21.282,0,0,1-18.121-10.043.467.467,0,1,1,.791-.5,20.353,20.353,0,0,0,17.331,9.606h.21a20.386,20.386,0,0,0,13.443-5.224l-3.086-.179a.466.466,0,0,1-.439-.494.478.478,0,0,1,.169-.337.431.431,0,0,1,.331-.1l4.112.238a.469.469,0,0,1,.337.11h0l.022.021a.462.462,0,0,1,.133.342.135.135,0,0,1,0,.017l-.244,4.193a.468.468,0,0,1-.466.439h-.032a.465.465,0,0,1-.434-.493l.175-3.023a21.315,21.315,0,0,1-14.017,5.425h-.22M65.743,396.308a.216.216,0,0,0-.184.333,21.034,21.034,0,0,0,17.91,9.926h.218A21.066,21.066,0,0,0,97.765,401l.227-.208-.211,3.635a.216.216,0,0,0,.2.23H98a.218.218,0,0,0,.217-.2l.243-4.174a.15.15,0,0,1,0-.015.226.226,0,0,0-.051-.162l-.01-.01a.216.216,0,0,0-.173-.058H98.2l-4.128-.239a.192.192,0,0,0-.149.043.227.227,0,0,0-.081.161.217.217,0,0,0,.2.23l3.674.213-.215.2a20.635,20.635,0,0,1-13.828,5.489H83.47a20.6,20.6,0,0,1-17.542-9.722.217.217,0,0,0-.185-.1" transform="translate(-59.855 -363.16)" fill="#5f47ff"/>
    <path id="Caminho_21765" data-name="Caminho 21765" d="M362.1,23.432A21.324,21.324,0,0,0,347.3,3.406L350.3,2.153a.342.342,0,0,0-.265-.631l-3.86,1.615a.342.342,0,0,0-.183.448L347.6,7.435a.343.343,0,0,0,.315.209.342.342,0,0,0,.315-.474L346.9,4a20.569,20.569,0,0,1,12.113,29.3.342.342,0,1,0,.6.322A21.283,21.283,0,0,0,362.1,23.432" transform="translate(-317.225 -1.371)" fill="#5f47ff"/>
    <path id="Caminho_21766" data-name="Caminho 21766" d="M357.944,32.551a.461.461,0,0,1-.219-.055.468.468,0,0,1-.192-.631,20.445,20.445,0,0,0-11.785-29.04l1.224,2.926a.467.467,0,0,1-.86.362L344.5,2.261a.466.466,0,0,1,.25-.611L348.611.035a.467.467,0,0,1,.612.608.463.463,0,0,1-.251.253L346.286,2.02A21.377,21.377,0,0,1,358.357,32.3a.466.466,0,0,1-.412.247M345.312,2.428l.254.078a20.694,20.694,0,0,1,12.187,29.476.219.219,0,0,0,.09.295.222.222,0,0,0,.294-.09A21.128,21.128,0,0,0,345.891,2.153l-.323-.1L348.876.666a.217.217,0,0,0,.116-.284.219.219,0,0,0-.285-.116l-3.86,1.615a.221.221,0,0,0-.118.119.218.218,0,0,0,0,.166l1.611,3.851a.218.218,0,0,0,.2.133.211.211,0,0,0,.084-.017.214.214,0,0,0,.117-.117.217.217,0,0,0,0-.167Z" transform="translate(-315.851 0)" fill="#5f47ff"/>
    <path id="Caminho_21767" data-name="Caminho 21767" d="M7.327,35.824h0a.344.344,0,0,0-.481.055l-1.9,2.39A20.545,20.545,0,0,1,24.269,13.1a.342.342,0,0,0,.33-.354.357.357,0,0,0-.354-.33A21.235,21.235,0,0,0,4.215,38.143L2.049,36.42a.342.342,0,0,0-.426.536L4.567,39.3a.341.341,0,0,0,.213.075l.039,0a.346.346,0,0,0,.229-.127L7.381,36.3a.342.342,0,0,0-.054-.481" transform="translate(-1.37 -11.384)" fill="#5f47ff"/>
    <path id="Caminho_21768" data-name="Caminho 21768" d="M3.41,38.12a.468.468,0,0,1-.291-.1L.176,35.678a.467.467,0,0,1,.581-.731l1.9,1.51A21.356,21.356,0,0,1,22.87,10.915a.482.482,0,0,1,.483.45.467.467,0,0,1-.45.483A20.417,20.417,0,0,0,3.642,36.612l1.737-2.186a.47.47,0,0,1,.4-.174l-.033-.131.288.229a.468.468,0,0,1,.074.656L3.775,37.943a.47.47,0,0,1-.311.173l-.054,0M.467,35.1a.217.217,0,0,0-.136.387l2.944,2.34a.224.224,0,0,0,.162.046.22.22,0,0,0,.144-.081l2.334-2.936a.218.218,0,0,0-.027-.3l-.006-.005a.218.218,0,0,0-.307.035L3.513,37.174l-.058-.252A20.669,20.669,0,0,1,22.895,11.6a.218.218,0,0,0,.209-.225.232.232,0,0,0-.231-.21A21.11,21.11,0,0,0,2.968,36.742l.073.34L.6,35.142A.218.218,0,0,0,.467,35.1" transform="translate(0 -10.008)" fill="#5f47ff"/>
    <path id="Caminho_21769" data-name="Caminho 21769" d="M126.584,120.567a.619.619,0,0,1-.564.3.606.606,0,0,1-.506-.332l-1.932-4.038a.565.565,0,0,1-.035-.293s0-.008,0-.013a1.051,1.051,0,0,1,.05-.172c.007-.019.007-.033.016-.053.016-.04.047-.093.069-.138s.045-.1.08-.161a1.946,1.946,0,0,1,.269-.376l.013-.012c.022-.022.043-.042.063-.059a.5.5,0,0,1,.256-.119l4.482-.35a.613.613,0,0,1,.568.293.6.6,0,0,1,.008.614l-.433.751,4.508,2.6a14.667,14.667,0,0,0-11.615-20.1l.007,5.209h.867a.626.626,0,0,1,.543.336.605.605,0,0,1-.035.6l-2.534,3.69a.556.556,0,0,1-.246.183l-.034.011a1.012,1.012,0,0,1-.159.039c-.033.006-.069.01-.107.014a2.443,2.443,0,0,1-.264.014h-.005c-.528,0-.694-.12-.787-.238l-2.543-3.7a.618.618,0,0,1-.029-.637.6.6,0,0,1,.528-.313h.867V98.913a14.668,14.668,0,0,0-11.6,20.106l4.506-2.608-.434-.753a.623.623,0,0,1,.021-.637.605.605,0,0,1,.542-.27l4.465.346c.179.026.366.111.63.569s.245.664.191.8l-1.938,4.054a.638.638,0,0,1-.194.222c-.011.008-.02.02-.033.027a.613.613,0,0,1-.1.047c-.016.007-.031.017-.048.022a.607.607,0,0,1-.7-.275l-.433-.751-4.505,2.6a14.667,14.667,0,0,0,23.216-.007l-4.51-2.595Z" transform="translate(-96.502 -90.696)" fill="#5f47ff"/>
    <path id="Caminho_21770" data-name="Caminho 21770" d="M101.939,304.962l3.023-1.745h0l.628,1.089,1.67-3.491a2.128,2.128,0,0,0-.191-.329l-3.86-.3.63,1.089-6.058,3.507-1.391.8a.1.1,0,0,0-.054.065l.02.064,1.014,1.757a.121.121,0,0,0,.147.04l1.383-.8Z" transform="translate(-88.336 -275.252)" fill="#5f47ff"/>
    <path id="Caminho_21771" data-name="Caminho 21771" d="M255.418,78.962a2.085,2.085,0,0,0,.378,0l2.19-3.193h-1.259l-.011-8.6a.111.111,0,0,0-.029-.08h-.011l-.052-.015h-2.03a.1.1,0,0,0-.107.109v8.589h-1.26Z" transform="translate(-232.191 -61.5)" fill="#5f47ff"/>
    <path id="Caminho_21772" data-name="Caminho 21772" d="M346.811,305.553l-7.441-4.294.63-1.09-3.86.3a2.137,2.137,0,0,0-.145.243c-.016.03-.034.062-.045.087l1.67,3.49.628-1.089,4.158,2.393,1.908,1.1,1.4.8a.1.1,0,0,0,.081.014l.044-.047,1.015-1.757a.1.1,0,0,0-.04-.15Z" transform="translate(-308.044 -275.234)" fill="#5f47ff"/>
  </g>
</svg>
