<svg xmlns="http://www.w3.org/2000/svg" width="45.957" height="29.33" viewBox="0 0 45.957 29.33">
  <g id="Grupo_20602" data-name="Grupo 20602" transform="translate(-1.1 -12.4)">
    <path id="Caminho_13219" data-name="Caminho 13219" d="M46.7,23.072,25.057,12.624a2.055,2.055,0,0,0-1.866,0L1.548,23.072c-.224.149-.448.373-.448.6a1.161,1.161,0,0,0,.448.6L8.115,27.4a2.315,2.315,0,0,1,1.343-.672l12.613-3.284a7.394,7.394,0,0,1,4.03,0l12.613,3.284a2.315,2.315,0,0,1,1.343.672l3.732-1.791V37.252a1.191,1.191,0,0,0-.6,1.045,1.2,1.2,0,0,0,.448.97L42.6,41.432c-.075.149,0,.3.149.3h3.209c.149,0,.224-.149.149-.3l-1.045-2.164a1.109,1.109,0,0,0,.448-.97,1.191,1.191,0,0,0-.6-1.045V25.013l1.642-.821c.224-.149.448-.373.448-.6C47.148,23.371,47,23.147,46.7,23.072Z" fill="#5f47ff"/>
    <path id="Caminho_13220" data-name="Caminho 13220" d="M41.225,31.908,28.463,28.624a6.692,6.692,0,0,0-3.433,0L12.267,31.908a.958.958,0,0,0-.97,1.045v7.165a.923.923,0,0,0,.97,1.045l12.762,3.284a6.692,6.692,0,0,0,3.433,0l12.762-3.284a.958.958,0,0,0,.97-1.045V32.953A.958.958,0,0,0,41.225,31.908ZM39.21,38.848,27.791,41.834a4.59,4.59,0,0,1-2.015,0L14.357,38.848V34.371l11.419-2.985a4.59,4.59,0,0,1,2.015,0L39.21,34.371Z" transform="translate(-2.585 -4.059)" fill="#5f47ff"/>
  </g>
</svg>
