<svg xmlns="http://www.w3.org/2000/svg" width="96.539" height="96.522" viewBox="0 0 96.539 96.522"><defs><style>.a{fill:#5f47ff;}.b{fill:#2c2d66;}</style></defs><g transform="translate(-2962.253 -3270.299)"><rect class="a" width="12.457" height="9.343" transform="translate(3024.536 3287.41)"/><rect class="a" width="12.457" height="12.457" transform="translate(2999.623 3338.793)"/><rect class="a" width="12.457" height="12.457" transform="translate(3021.422 3348.136)"/><rect class="a" width="12.457" height="12.457" transform="translate(3036.993 3348.136)"/><path class="b" d="M3058.792,3334.122l-6.508-32.7h-5.948v-9.609l3.509,2.506a4.63,4.63,0,0,0,2.718.875,4.674,4.674,0,0,0,4.61-5.442,4.627,4.627,0,0,0-1.894-3.029l-21.8-15.574a4.74,4.74,0,0,0-5.427,0l-21.8,15.568a4.667,4.667,0,0,0-1.089,6.519,4.8,4.8,0,0,0,6.515,1.083l3.512-2.51v9.61h-14.965l-2.169-1.928a4.787,4.787,0,0,0-6.211,0l-28.027,24.91a4.671,4.671,0,1,0,6.207,6.982l1.566-1.392v36.828h84.082v-21.8h3.114Zm-9.063-29.585,5.948,29.739v1.4h-37.37v-5.686l1.566,1.392a4.809,4.809,0,0,0,6.6-.386,4.671,4.671,0,0,0-.388-6.593l-6.584-5.854h26.838v-14.014Zm-15.851,10.9h-6.228V3302.98h6.228Zm-24.009-23.647a1.6,1.6,0,0,1-2.171-.36,1.543,1.543,0,0,1-.27-1.163,1.522,1.522,0,0,1,.633-1.011l21.8-15.57a1.584,1.584,0,0,1,1.807,0l21.8,15.575a1.552,1.552,0,0,1,.362,2.166,1.593,1.593,0,0,1-2.176.361l-20.89-14.921Zm20.9-11.1,12.457,8.9v25.846h-6.228v-15.571h-12.457v15.571h-6.228v-25.848Zm-15.571,23.845v10.188l-11.461-10.188Zm-47.235,24.521a1.6,1.6,0,0,1-2.2-.131,1.557,1.557,0,0,1,.131-2.2l28.028-24.913a1.552,1.552,0,0,1,2.071,0l28.027,24.914a1.56,1.56,0,0,1,.125,2.2,1.6,1.6,0,0,1-2.2.127l-26.993-23.994Zm26.993-19.826,20.242,17.992v5.341h-12.457v-12.457h-15.571v12.457h-12.457v-5.341Zm4.671,23.333h-9.342v-9.343h9.342Zm-24.913,3.114h40.484v28.028h-18.685v-18.685h-18.685v18.685h-3.114Zm18.685,28.028h-12.457v-15.571h12.457Zm59.169,0h-34.256v-18.685h34.256Zm-34.256-21.8v-3.114h37.37v3.114Zm0,0"/></g></svg>