<svg xmlns="http://www.w3.org/2000/svg" width="18.984" height="18.984" viewBox="0 0 18.984 18.984"><defs><style>.a{fill:#22C9AE;}</style></defs><path class="a" d="M537.376-.214a.742.742,0,0,1-.742.742.742.742,0,0,1-.742-.742h0a.742.742,0,0,1,.742-.742.742.742,0,0,1,.742.742Zm6.452,0h0a.742.742,0,0,0-.742-.742.742.742,0,0,0-.742.742h0a.742.742,0,0,0,.742.742A.742.742,0,0,0,543.828-.214Zm3.226,0h0a.742.742,0,0,0-.742-.742.742.742,0,0,0-.742.742h0a.742.742,0,0,0,.742.742A.742.742,0,0,0,547.054-.214Zm-9.677,3.226a.742.742,0,0,0-1.483,0h0a.742.742,0,0,0,1.483,0ZM536.635,5.5a.742.742,0,0,0-.742.742h0a.742.742,0,0,0,1.483,0h0A.742.742,0,0,0,536.635,5.5ZM540.6-.214a.742.742,0,0,0-.742-.742.742.742,0,0,0-.742.742h0a.742.742,0,0,0,.742.742.742.742,0,0,0,.742-.742Zm0,3.226a.742.742,0,1,0-1.483,0h0a.742.742,0,1,0,1.483,0ZM539.861,5.5a.742.742,0,0,0-.742.742h0a.742.742,0,1,0,1.483,0h0A.742.742,0,0,0,539.861,5.5Zm11.123,1A4.487,4.487,0,1,1,546.5,2.011,4.492,4.492,0,0,1,550.984,6.5Zm-1.483,0a3,3,0,1,0-3,3A3.007,3.007,0,0,0,549.5,6.5Zm-1.928-.742h-.334V4.977a.742.742,0,0,0-1.483,0V6.5a.742.742,0,0,0,.742.742h1.075a.742.742,0,1,0,0-1.483Zm.445-12.273h-.964v-.742A.742.742,0,0,0,546.312-8a.742.742,0,0,0-.742.742v.742H542.2v-.742A.742.742,0,0,0,541.455-8a.742.742,0,0,0-.742.742v.742h-3.337v-.742A.742.742,0,0,0,536.635-8a.742.742,0,0,0-.742.742v.742h-.927A2.97,2.97,0,0,0,532-3.551V8.018a2.97,2.97,0,0,0,2.966,2.966h5.673a.742.742,0,1,0,0-1.483h-5.673a1.485,1.485,0,0,1-1.483-1.483V-3.551a1.485,1.485,0,0,1,1.483-1.483h.927v.742a.742.742,0,0,0,.742.742.742.742,0,0,0,.742-.742v-.742h3.337v.742a.742.742,0,0,0,.742.742.742.742,0,0,0,.742-.742v-.742h3.374v.742a.742.742,0,0,0,.742.742.742.742,0,0,0,.742-.742v-.742h.964A1.485,1.485,0,0,1,549.5-3.551V.676a.742.742,0,0,0,1.483,0V-3.551A2.97,2.97,0,0,0,548.018-6.517Z" transform="translate(-532 8)"/></svg>
