<svg xmlns="http://www.w3.org/2000/svg" width="46" height="39.242" viewBox="0 0 46 39.242">
  <path id="noun_cloudy_4123214" d="M31.05,3a9.948,9.948,0,0,0-9.156,6.322,8.87,8.87,0,0,0-5.232-1.744,9.017,9.017,0,0,0-8.938,8.284A7.518,7.518,0,0,0,1.4,23.275a7.724,7.724,0,0,0,7.63,7.63h.436v.218a5.371,5.371,0,0,0-4.578,5.232,5.862,5.862,0,0,0,5.886,5.886H32.14a7.218,7.218,0,0,0,7.194-6.976,6.087,6.087,0,0,0-1.744-4.36h.436A9.305,9.305,0,0,0,47.4,21.531a9.174,9.174,0,0,0-6.322-8.5h0A10,10,0,0,0,31.05,3Zm0,2.18A7.816,7.816,0,0,1,38.9,13.029v1.308l.872.218a6.854,6.854,0,0,1,5.45,6.976,7.119,7.119,0,0,1-7.194,7.194H34.538a7.638,7.638,0,0,0-7.412-7.412,8.243,8.243,0,0,0-7.194,4.8A6.18,6.18,0,0,0,16.443,24.8a7.244,7.244,0,0,0-6.322,3.706H9.248a5.4,5.4,0,0,1-5.45-5.45,5.463,5.463,0,0,1,5.014-5.45H9.9v-1.09h0A6.887,6.887,0,0,1,16.879,9.54a6.763,6.763,0,0,1,4.8,1.962l1.308,1.308.436-1.962A8.259,8.259,0,0,1,31.05,5.18Z" transform="translate(-1.4 -3)" fill="#5f47ff"/>
</svg>
