<svg xmlns="http://www.w3.org/2000/svg" width="45.991" height="46" viewBox="0 0 45.991 46">
  <g id="puzzle" transform="translate(0 -0.025)">
    <path id="Caminho_13222" data-name="Caminho 13222" d="M0,2.183c.084-.2.168-.408.264-.6A2.544,2.544,0,0,1,2.642.034q7.6-.018,15.178,0A2.661,2.661,0,0,1,20.462,2.76c.024,1.357.012,2.726,0,4.083,0,.312.072.384.384.4a3.024,3.024,0,0,1,2.93,2.978,2.978,2.978,0,0,1-2.858,3.026c-.36.024-.456.108-.456.48.024,1.285.012,2.57.012,3.867A2.732,2.732,0,0,1,17.58,20.5H12.236c-1,0-1.381-.6-.937-1.5a1.226,1.226,0,0,0-.3-1.537,1.222,1.222,0,0,0-1.837,1.537c.444.9.072,1.5-.925,1.5h-5.3A2.727,2.727,0,0,1,.084,18.455c-.012-.036-.06-.06-.084-.1Q0,10.271,0,2.183Z" transform="translate(0)" fill="#5f47ff"/>
    <path id="Caminho_13223" data-name="Caminho 13223" d="M59.224,96.357a.121.121,0,0,0-.012-.036c-1.6-.516-2.125-1.669-2.113-3.278.036-4.731.012-9.462.012-14.194a2.725,2.725,0,0,1,1.9-2.834,3.281,3.281,0,0,1,.973-.132c1.321,0,2.63-.012,3.951.012.288,0,.4-.048.408-.372a3.009,3.009,0,0,1,6.016.012c.012.3.084.372.372.36,1.561-.012,3.11-.012,4.671,0,.324,0,.384-.108.384-.408-.012-1.993-.012-3.987-.012-5.968,0-1.069.564-1.429,1.525-.973a1.188,1.188,0,0,0,1.525-.336,1.209,1.209,0,0,0,0-1.5,1.229,1.229,0,0,0-1.537-.324c-.925.456-1.513.084-1.513-.949v-5.3a2.711,2.711,0,0,1,2.882-2.906q7.349-.018,14.686,0a2.7,2.7,0,0,1,2.894,2.93V93.078c0,1.933-.468,2.618-2.246,3.278Zm34.139-1.8c.745,0,1.081-.324,1.081-1.057q0-7.727.012-15.442c0-.288-.072-.372-.372-.372-1.477.012-2.966.024-4.443,0-.408-.012-.7.012-.624.54a1.632,1.632,0,0,1-.12.612,3,3,0,0,1-5.884-.745c-.012-.348-.108-.408-.432-.408-1.525.012-3.05.024-4.575,0-.372,0-.432.12-.432.456.012,2.005.012,4.011.012,6.016,0,.973-.6,1.345-1.477.913a1.223,1.223,0,0,0-1.561,1.825,1.226,1.226,0,0,0,1.537.324c.937-.456,1.5-.1,1.5.961,0,1.993.012,3.987-.012,5.968,0,.36.108.432.444.432q3.819-.018,7.637-.012C88.212,94.555,90.793,94.555,93.363,94.555Zm-17.988.012c.3,0,.408-.048.4-.384-.024-1.561-.012-3.11,0-4.671,0-.228.012-.36-.312-.372a3.014,3.014,0,0,1-.012-6.028c.3-.012.324-.108.324-.36-.012-1.561-.012-3.11,0-4.671,0-.348-.108-.408-.432-.408-2.017.012-4.047.012-6.064.012-.949,0-1.321-.612-.889-1.465a1.212,1.212,0,0,0-.3-1.573,1.228,1.228,0,0,0-1.537.012,1.148,1.148,0,0,0-.276,1.537.954.954,0,0,1-.913,1.5c-1.765-.048-3.53-.012-5.3-.012-.853,0-1.165.312-1.165,1.165V93.4c0,.865.3,1.165,1.153,1.165h7.589C70.235,94.555,72.805,94.555,75.375,94.567ZM94.444,60.26c0-.973-.276-1.237-1.261-1.237H78.809c-.961,0-1.249.288-1.249,1.261,0,1.273.012,2.546,0,3.819,0,.264.06.348.336.36a3.008,3.008,0,0,1,0,6.016c-.288.012-.336.1-.336.36.012,1.537.012,3.086,0,4.623,0,.348.084.444.444.444,2.017-.024,4.035-.012,6.064-.012.937,0,1.309.636.889,1.465a1.226,1.226,0,0,0,.3,1.573,1.211,1.211,0,0,0,1.525-.012,1.2,1.2,0,0,0,.288-1.537c-.444-.9-.072-1.489.949-1.489,2.005,0,4.011-.012,6.016.012.336,0,.42-.072.42-.408-.012-2.57-.012-5.151-.012-7.721Z" transform="translate(-50.242 -50.331)" fill="#5f47ff"/>
  </g>
</svg>
