<svg xmlns="http://www.w3.org/2000/svg" width="46" height="46" viewBox="0 0 46 46">
  <g id="noun_chart_3866765" transform="translate(-5 -5)">
    <path id="Caminho_11810" data-name="Caminho 11810" d="M46.144,29.889H26.807V10.552a.8.8,0,0,0-.852-.852A21,21,0,1,0,46.911,30.741h0A.742.742,0,0,0,46.144,29.889Zm-20.189,20.1A19.308,19.308,0,0,1,25.189,11.4V30.656a.8.8,0,0,0,.852.852H45.293A19.38,19.38,0,0,1,25.956,49.993Z" transform="translate(0 -0.696)" fill="#5f47ff"/>
    <path id="Caminho_11811" data-name="Caminho 11811" d="M34.252,5a.8.8,0,0,0-.852.852v20.1a.8.8,0,0,0,.852.852h20.1a.8.8,0,0,0,.852-.852A20.941,20.941,0,0,0,34.252,5Z" transform="translate(-4.207)" fill="#5f47ff"/>
  </g>
</svg>
