<svg xmlns="http://www.w3.org/2000/svg" width="97" height="97" viewBox="0 0 97 97"><defs><style>.a{fill:#5f47ff;}.b{fill:#2c2d66;}</style></defs><g transform="translate(-1465.147 -3275.643)"><g transform="translate(1465.147 3275.643)"><ellipse class="a" cx="8" cy="7.5" rx="8" ry="7.5" transform="translate(0 63)"/><ellipse class="a" cx="8" cy="7.5" rx="8" ry="7.5" transform="translate(81 63)"/><circle class="a" cx="8" cy="8" r="8" transform="translate(81 19)"/><ellipse class="a" cx="7.5" cy="8" rx="7.5" ry="8" transform="translate(41)"/><circle class="a" cx="8" cy="8" r="8" transform="translate(0 19)"/><ellipse class="a" cx="7.5" cy="8" rx="7.5" ry="8" transform="translate(41 81)"/></g><path class="b" d="M1568.933,3354.881a4.684,4.684,0,0,0-5.552.666l-8.313-4.476a10.929,10.929,0,0,0-7.449-17.031v-.125a15.526,15.526,0,0,0-1.286-6.195l17.036-9.173a4.684,4.684,0,1,0-1.431-2.783l-17.133,9.225a15.527,15.527,0,0,0-17.522-5.977v-18.235a4.693,4.693,0,1,0-3.129,0v19.615a15.617,15.617,0,0,0-4.4,3.776,10.912,10.912,0,0,0-12.05,1.4l-18.2-9.8a4.712,4.712,0,1,0-1.431,2.783l17.514,9.431a10.858,10.858,0,0,0-1.765,5.937v.111a10.939,10.939,0,0,0-7.448,17.045l-8.313,4.476a4.669,4.669,0,1,0,1.441,2.778l9.083-4.89a10.908,10.908,0,0,0,6.8,2.381h18.772v17.5a4.693,4.693,0,1,0,3.129,0v-17.5h18.772a10.893,10.893,0,0,0,6.8-2.382l9.083,4.89a4.692,4.692,0,1,0,7-3.443Zm-3.129-41.092a1.563,1.563,0,0,1,2.135.573,1.564,1.564,0,1,1-2.135-.573Zm-40.086-18.981a1.564,1.564,0,1,1-1.564,1.564A1.567,1.567,0,0,1,1525.719,3294.808Zm-39.512,21.118a1.564,1.564,0,1,1-.573-2.137A1.569,1.569,0,0,1,1486.207,3315.926Zm-.574,44.374a1.564,1.564,0,0,1-1.563-2.709,1.546,1.546,0,0,1,.779-.209,1.564,1.564,0,0,1,.784,2.919Zm40.086,18.981a1.564,1.564,0,1,1,1.564-1.564A1.567,1.567,0,0,1,1525.719,3379.281Zm-20.336-26.594a7.822,7.822,0,0,1-.045-15.645l2.046.038-.316-1.857a7.674,7.674,0,0,1-.12-1.308,7.814,7.814,0,0,1,12.325-6.387l1.328.939.887-1.363a12.508,12.508,0,0,1,23,6.811,12.885,12.885,0,0,1-.083,1.4l-.1,1.732h1.747a7.822,7.822,0,1,1,0,15.643Zm62.558,7.04a1.564,1.564,0,1,1-.573-2.135A1.568,1.568,0,0,1,1567.94,3359.727Z" transform="translate(-12.077 -12.897)"/><path class="b" d="M1745.147,3459.679v3.129a6.264,6.264,0,0,1,6.257,6.257h3.129A9.4,9.4,0,0,0,1745.147,3459.679Z" transform="translate(-225.248 -148.046)"/><path class="b" d="M1817.147,3539.679v3.129a1.564,1.564,0,1,1,0,3.129v3.129a4.693,4.693,0,1,0,0-9.386Z" transform="translate(-283.169 -212.403)"/><rect class="b" width="4" height="3" transform="translate(1527.147 3333.643)"/><rect class="b" width="14" height="3" transform="translate(1501.147 3333.643)"/><rect class="b" width="3" height="3" transform="translate(1495.147 3333.643)"/></g></svg>