<svg xmlns="http://www.w3.org/2000/svg" width="35.122" height="46" viewBox="0 0 35.122 46">
  <g id="Grupo_14514" data-name="Grupo 14514" transform="translate(-15.567 -8)">
    <path id="Caminho_11807" data-name="Caminho 11807" d="M50.35,37.527,34.689,22.832a.732.732,0,0,0-.461-.236c-.216,0-.359.208-.359.594v7.026H17.106a1.539,1.539,0,0,0-1.539,1.54V44.842a1.539,1.539,0,0,0,1.539,1.538H33.869v7.027c0,.385.143.592.359.592a.726.726,0,0,0,.461-.237L50.35,39.069a1.046,1.046,0,0,0,0-1.542ZM17.774,23.7,30.547,11.715v3.9a1.841,1.841,0,0,0,1.841,1.84H48.849V29.944H44.958l1.961,1.841H49.15a1.539,1.539,0,0,0,1.54-1.539V17.158a1.539,1.539,0,0,0-1.54-1.539H32.388V8.592c0-.385-.143-.592-.36-.592a.727.727,0,0,0-.461.236L15.906,22.931a1.046,1.046,0,0,0,0,1.541l4.16,3.9h2.689L17.774,23.7Z" transform="translate(0)" fill="#5f47ff"/>
  </g>
</svg>
