<svg id="Grupo_29057" data-name="Grupo 29057" xmlns="http://www.w3.org/2000/svg" xmlns:xlink="http://www.w3.org/1999/xlink" width="45" height="43.214" viewBox="0 0 45 43.214">
  <defs>
    <clipPath id="clip-path">
      <rect id="Retângulo_5940" data-name="Retângulo 5940" width="45" height="43.214" fill="#5f47ff"/>
    </clipPath>
  </defs>
  <g id="Grupo_29056" data-name="Grupo 29056" clip-path="url(#clip-path)">
    <path id="Caminho_21750" data-name="Caminho 21750" d="M.974,0a1.023,1.023,0,0,0,.1,2.044H5.843A3.43,3.43,0,0,1,9.275,5.46V31.4a5.5,5.5,0,0,0,5.029,5.46,4.077,4.077,0,0,0-.655,2.219,4.134,4.134,0,1,0,8.269,0,4.075,4.075,0,0,0-.639-2.2h7.9a4.091,4.091,0,0,0-.655,2.2,4.134,4.134,0,1,0,8.269,0,4.082,4.082,0,0,0-.639-2.2h2.076a1.022,1.022,0,1,0,0-2.043h-23.5A3.42,3.42,0,0,1,11.319,31.4V30.363a5.4,5.4,0,0,0,3.416,1.213h20.05a4.294,4.294,0,0,0,3.464-1.8,18.832,18.832,0,0,0,1.692-3.225l4.725-9.785a3.288,3.288,0,0,0,.176-2.442,4.273,4.273,0,0,0-1.309-1.884,6.6,6.6,0,0,0-4.23-1.58H11.319v-5.4A5.489,5.489,0,0,0,5.844,0H1.07c-.032,0-.064,0-.1,0ZM11.319,12.9H39.3a4.909,4.909,0,0,1,2.889,1.085,2.277,2.277,0,0,1,.7.958,1.106,1.106,0,0,1-.064.926l-4.725,9.8a19.847,19.847,0,0,1-1.5,2.873,1.958,1.958,0,0,1-1.82.99H14.734A3.42,3.42,0,0,1,11.318,26.1Z" transform="translate(0)" fill="#5f47ff" fill-rule="evenodd"/>
    <path id="Caminho_21751" data-name="Caminho 21751" d="M161.525,199.035a1.022,1.022,0,1,0,0,2.043H173a1.022,1.022,0,1,0,0-2.043Z" transform="translate(-145.85 -180.879)" fill="#5f47ff" fill-rule="evenodd"/>
    <path id="Caminho_21752" data-name="Caminho 21752" d="M161.528,248.245a1.022,1.022,0,1,0,0,2.043H178.7a1.022,1.022,0,1,0,0-2.043Z" transform="translate(-145.854 -225.6)" fill="#5f47ff" fill-rule="evenodd"/>
  </g>
</svg>
