<svg xmlns="http://www.w3.org/2000/svg" width="96.999" height="96.999" viewBox="0 0 96.999 96.999"><defs><style>.a{fill:#5f47ff;}.b{fill:#2c2d66;}</style></defs><g transform="translate(-3508.954 -3270.298)"><rect class="a" width="16" height="38" transform="translate(3533.954 3287.298)"/><rect class="a" width="12" height="14" transform="translate(3552.954 3344.298)"/><rect class="a" width="13" height="14" transform="translate(3567.954 3344.298)"/><rect class="a" width="13" height="14" transform="translate(3583.954 3344.298)"/><path class="a" d="M3812.6,3377.23V3358.3h-15.645v25.032h9.545a7.829,7.829,0,0,1,6.1-6.1Zm0,0" transform="translate(-231.678 -70.79)"/><rect class="b" width="3" height="4" transform="translate(3521.954 3329.298)"/><rect class="b" width="3" height="4" transform="translate(3530.954 3329.298)"/><rect class="b" width="3" height="4" transform="translate(3539.954 3329.298)"/><path class="b" d="M3602.824,3331.314h-12.516v-6.258h9.387a6.259,6.259,0,0,0,1.463-12.344,9.406,9.406,0,0,0-9.285-7.994,9.116,9.116,0,0,0-1.564.151v-25.183h-6.258V3270.3h-53.193v3.28a6.785,6.785,0,0,1-7.823-.151,9.406,9.406,0,0,0-9.285,7.994,6.259,6.259,0,0,0,1.463,12.344h9.387v29.726h-12.516v34.419h-3.129v9.387h97v-9.387h-3.129Zm-4.694-17.21v1.565h1.564a3.129,3.129,0,1,1,0,6.258h-25.032a3.129,3.129,0,1,1,0-6.258h1.564V3314.1a6.264,6.264,0,0,1,6.258-6.258,6.2,6.2,0,0,1,3.75,1.283l.943.712.944-.712a6.2,6.2,0,0,1,3.75-1.283,6.264,6.264,0,0,1,6.258,6.258Zm-10.952-8.1a9.227,9.227,0,0,0-4.693-1.284,9.4,9.4,0,0,0-8.841,6.258h-11.5v3.129h8.39a6.25,6.25,0,0,0,4.126,10.952h12.516v6.258h-28.161v-48.5h28.161Zm-6.258-26.316h-21.9v-6.258h21.9Zm-25.032-6.258v6.258h-21.9v-6.258Zm-40.677,17.209a3.129,3.129,0,1,1,0-6.258h1.564v-1.564a6.264,6.264,0,0,1,6.258-6.258,6.2,6.2,0,0,1,3.75,1.283l.944.712.943-.712a6.328,6.328,0,0,1,2.186-1.056v2.9H3524.6v10.951Zm12.516-7.823h28.161v48.5h-3.129v-7.823h-25.032Zm-12.516,43.806h34.419V3340.7h43.806v-3.129H3552.76v-3.129H3599.7v3.129h-3.129v3.129h3.129v17.209h-56.322v-21.9h-3.129v21.9h-6.258v-21.9h-3.129v21.9H3524.6v-21.9h-3.129v21.9h-6.258Zm87.612,37.548h-90.741v-3.129h90.741Zm0,0" transform="translate(0 0)"/><rect class="b" width="22" height="3" transform="translate(3530.954 3286.298)"/><rect class="b" width="22" height="3" transform="translate(3530.954 3298.298)"/><rect class="b" width="22" height="3" transform="translate(3530.954 3311.298)"/><rect class="b" width="3" height="3" transform="translate(3533.954 3292.298)"/><rect class="b" width="3" height="3" transform="translate(3539.954 3292.298)"/><rect class="b" width="3" height="3" transform="translate(3546.954 3292.298)"/><rect class="b" width="3" height="4" transform="translate(3533.954 3304.298)"/><rect class="b" width="3" height="4" transform="translate(3539.954 3304.298)"/><rect class="b" width="3" height="4" transform="translate(3546.954 3304.298)"/><rect class="b" width="3" height="3" transform="translate(3533.954 3317.298)"/><rect class="b" width="3" height="3" transform="translate(3539.954 3317.298)"/><rect class="b" width="3" height="3" transform="translate(3546.954 3317.298)"/><rect class="b" width="22" height="3" transform="translate(3561.954 3286.298)"/><rect class="b" width="22" height="3" transform="translate(3561.954 3298.298)"/><rect class="b" width="3" height="3" transform="translate(3564.954 3292.298)"/><rect class="b" width="3" height="3" transform="translate(3571.954 3292.298)"/><rect class="b" width="3" height="3" transform="translate(3577.954 3292.298)"/><rect class="b" width="3" height="4" transform="translate(3564.954 3304.298)"/><rect class="b" width="3" height="4" transform="translate(3571.954 3304.298)"/></g></svg>