<svg id="Grupo_29068" data-name="Grupo 29068" xmlns="http://www.w3.org/2000/svg" xmlns:xlink="http://www.w3.org/1999/xlink" width="45" height="45" viewBox="0 0 45 45">
  <defs>
    <clipPath id="clip-path">
      <rect id="Retângulo_5945" data-name="Retângulo 5945" width="45" height="45" fill="#5f47ff"/>
    </clipPath>
  </defs>
  <g id="Grupo_29067" data-name="Grupo 29067" clip-path="url(#clip-path)">
    <path id="Caminho_21776" data-name="Caminho 21776" d="M134.4,114.1a1.621,1.621,0,0,1,2.146-1.038,11.036,11.036,0,0,0,4.085.9c3.115,0,4.569-1.523,4.569-3.461,0-2.008-1.177-3.115-4.361-4.292-4.223-1.523-6.231-3.808-6.231-6.646,0-3.808,3.046-6.854,8.1-6.854a13.635,13.635,0,0,1,4.361.761,1.647,1.647,0,0,1,.969,2.077,1.59,1.59,0,0,1-2.077.969,8.13,8.13,0,0,0-3.323-.623c-2.492,0-3.946,1.454-3.946,3.185,0,1.938,1.385,2.839,4.431,3.946,4.085,1.523,6.162,3.6,6.162,7.061,0,4.085-3.185,6.992-8.792,6.992a13.971,13.971,0,0,1-5.262-.969,1.594,1.594,0,0,1-.9-2.008Z" transform="translate(-119.305 -82.39)" fill="#5f47ff"/>
    <path id="Caminho_21777" data-name="Caminho 21777" d="M195.586,94.337a.842.842,0,0,1-.831-.831V64.291a.842.842,0,0,1,.831-.831.893.893,0,0,1,.831.831V93.438a.819.819,0,0,1-.831.9Z" transform="translate(-173.086 -56.399)" fill="#5f47ff"/>
    <path id="Caminho_21778" data-name="Caminho 21778" d="M22.5,45A22.5,22.5,0,1,1,45,22.5,22.544,22.544,0,0,1,22.5,45Zm0-43.616A21.116,21.116,0,1,0,43.616,22.5,21.155,21.155,0,0,0,22.5,1.384Z" fill="#5f47ff"/>
    <path id="Caminho_21779" data-name="Caminho 21779" d="M50.149,69.187A19.039,19.039,0,1,1,69.187,50.149,19.072,19.072,0,0,1,50.149,69.187m0-36.693A17.654,17.654,0,1,0,67.8,50.149,17.729,17.729,0,0,0,50.149,32.494" transform="translate(-27.649 -27.649)" fill="#5f47ff"/>
  </g>
</svg>
