<svg xmlns="http://www.w3.org/2000/svg" width="96.523" height="96.523" viewBox="0 0 96.523 96.523"><defs><style>.a{fill:#2c2d66;}.b{fill:#5f47ff;}.c{fill:#fff;}</style></defs><g transform="translate(-2046.848 -28.157)"><path class="a" d="M2135.587,156.157h-3.114v3.114h3.114a4.677,4.677,0,0,1,4.67,4.67v42.034h-90.3V163.941a4.677,4.677,0,0,1,4.67-4.67h3.114v-3.114h-3.114a7.793,7.793,0,0,0-7.784,7.784v46.7a7.793,7.793,0,0,0,7.784,7.784h20.239v6.227h-6.227v3.114h52.932v-3.114h-6.227V218.43h20.239a7.793,7.793,0,0,0,7.784-7.784v-46.7a7.793,7.793,0,0,0-7.784-7.784Zm-23.352,68.5h-34.25V218.43h34.25Zm23.352-9.341h-80.955a4.677,4.677,0,0,1-4.67-4.67v-1.557h90.3v1.557a4.677,4.677,0,0,1-4.67,4.67Zm0,0" transform="translate(0 -103.091)"/><path class="b" d="M2430.416,299.941a7.784,7.784,0,1,1-7.784-7.784,7.784,7.784,0,0,1,7.784,7.784Zm0,0" transform="translate(-296.386 -212.625)"/><path class="b" d="M2110.416,299.941a7.784,7.784,0,1,1-7.784-7.784,7.784,7.784,0,0,1,7.784,7.784Zm0,0" transform="translate(-38.659 -212.625)"/><path class="b" d="M2270.416,339.941a7.784,7.784,0,1,1-7.784-7.784,7.784,7.784,0,0,1,7.784,7.784Zm0,0" transform="translate(-167.523 -244.841)"/><path class="b" d="M2160.234,43.725a12.478,12.478,0,0,0-2.081.176,20.208,20.208,0,0,0-36.106-7.346,12.282,12.282,0,0,0-3.847-.613,12.532,12.532,0,0,0-11.548,7.8,12.454,12.454,0,0,0,.651,24.892h52.932a12.455,12.455,0,0,0,0-24.909Zm0,0" transform="translate(-38.659)"/><path class="c" d="M2285.558,66.485a10.911,10.911,0,0,0-15.412,0l-2.2-2.2a14.024,14.024,0,0,1,19.815,0Zm0,0" transform="translate(-178.072 -25.796)"/><path class="c" d="M2430.848,152.612V149.5a3.114,3.114,0,0,0,0-6.227v-3.114a6.227,6.227,0,1,1,0,12.455Zm0,0" transform="translate(-309.273 -90.205)"/><path class="a" d="M2275.518,357.5a4.67,4.67,0,1,1,4.671-4.67,4.677,4.677,0,0,1-4.671,4.67Zm0-6.227a1.557,1.557,0,1,0,1.557,1.557,1.559,1.559,0,0,0-1.557-1.557Zm0,0" transform="translate(-180.409 -257.727)"/><rect class="a" width="3" height="22" transform="translate(2093.848 57.68)"/><rect class="a" width="3" height="9" transform="translate(2093.848 82.68)"/><path class="a" d="M2371.086,230.839a4.664,4.664,0,0,0-4.384,3.114h-12.741v-21.8h-3.114v24.909H2366.7a4.662,4.662,0,1,0,4.384-6.227Zm0,6.227a1.557,1.557,0,1,1,1.557-1.557,1.559,1.559,0,0,1-1.557,1.557Zm0,0" transform="translate(-244.841 -148.193)"/><rect class="c" width="3" height="3" transform="translate(2105.848 57.68)"/><path class="a" d="M2135.757,252.157h-3.114v14.011H2119.9a4.67,4.67,0,1,0,0,3.114h15.855Zm-20.239,17.125a1.557,1.557,0,1,1,1.557-1.557,1.559,1.559,0,0,1-1.557,1.557Zm0,0" transform="translate(-51.545 -180.409)"/><rect class="c" width="3" height="11" transform="translate(2080.848 57.68)"/></g></svg>