<svg id="Grupo_29059" data-name="Grupo 29059" xmlns="http://www.w3.org/2000/svg" xmlns:xlink="http://www.w3.org/1999/xlink" width="45" height="37.975" viewBox="0 0 45 37.975">
  <defs>
    <clipPath id="clip-path">
      <rect id="Retângulo_5941" data-name="Retângulo 5941" width="45" height="37.975" fill="#5f47ff"/>
    </clipPath>
  </defs>
  <g id="Grupo_29058" data-name="Grupo 29058" clip-path="url(#clip-path)">
    <path id="Caminho_21753" data-name="Caminho 21753" d="M38.072,228.171c-.833.43-1.674.906-2.487,1.366a28.432,28.432,0,0,1-6.349,2.942,3.315,3.315,0,0,0-.168-2.6,3.844,3.844,0,0,0-2.36-1.936,14.527,14.527,0,0,1-5.868-3.6c-1.168-1.054-2.177-1.965-3.463-1.965h-3.1v-.212a.879.879,0,0,0-.879-.879H.879a.879.879,0,0,0-.879.879v15.912a.879.879,0,0,0,.879.879H13.205a24.138,24.138,0,0,0,10.232,2.519c5.786,0,10.562-2.642,16.1-5.7,1.01-.559,2.055-1.137,3.139-1.717,2.392-1.282,2.717-3.248,1.977-4.629-.957-1.786-3.743-2.775-6.577-1.26ZM1.759,223.048H8.55V237.2H1.759ZM12.521,237.2H10.308V223.048h2.213Zm29.32-4.692c-1.094.586-2.144,1.167-3.159,1.729-8.232,4.553-14.216,7.863-24.4,3.279V224.139h3.1c.61,0,1.349.667,2.285,1.512a16.244,16.244,0,0,0,6.544,3.981,2.083,2.083,0,0,1,1.288,1.034,1.576,1.576,0,0,1,.071,1.266,2.3,2.3,0,0,1-2.8,1.188l-4.892-1.459a.879.879,0,0,0-.5,1.685l4.892,1.459a4.223,4.223,0,0,0,1.208.176,4.268,4.268,0,0,0,1.739-.37c3.425-.251,6.38-1.924,9.239-3.542.842-.477,1.636-.926,2.445-1.343,2.076-1.112,3.735-.337,4.2.537.41.766-.06,1.607-1.258,2.249Z" transform="translate(0 -203.504)" fill="#5f47ff"/>
    <path id="Caminho_21754" data-name="Caminho 21754" d="M329.28,5.028A5.028,5.028,0,1,1,324.253,0a5.007,5.007,0,0,1,5.028,5.028" transform="translate(-293.568)" fill="#5f47ff"/>
    <path id="Caminho_21755" data-name="Caminho 21755" d="M300.116,137.65v1.676A1.119,1.119,0,0,1,299,140.443H285.591a1.12,1.12,0,0,1-1.117-1.117V137.65a7.506,7.506,0,0,1,3.128-5.586,7.5,7.5,0,0,0,4.692,1.676,7.189,7.189,0,0,0,4.581-1.676c.223.112.335.335.559.447a7.484,7.484,0,0,1,2.681,5.139Z" transform="translate(-261.61 -121.45)" fill="#5f47ff"/>
  </g>
</svg>
