<svg xmlns="http://www.w3.org/2000/svg" width="22" height="17.443" viewBox="0 0 22 17.443"><defs><style>.a{fill:#2c2d66;}</style></defs><path class="a" d="M21.907,59.608l-3.784-6.26a.645.645,0,0,0-.811-.257L15,54.108l-3.566-1.056a.644.644,0,0,0-.5.054L6.833,55.376,4.467,53.862a.645.645,0,0,0-.9.209L.093,59.819A.645.645,0,0,0,.3,60.7l1.462.932-.3.394a1.807,1.807,0,0,0,.362,2.526h0A1.791,1.791,0,0,0,2.9,64.91c.035,0,.069,0,.1,0a1.8,1.8,0,0,0,.674,1.034h0a1.8,1.8,0,0,0,1.08.36l.1,0a1.791,1.791,0,0,0,.675,1.035h0a1.791,1.791,0,0,0,1.078.361c.035,0,.069,0,.1,0A1.8,1.8,0,0,0,7.4,68.723h0a1.806,1.806,0,0,0,2.526-.362l.058-.078,2.578,1.835a1.892,1.892,0,0,0,2.951-1.152,1.9,1.9,0,0,0,1.9-.751,1.865,1.865,0,0,0,.352-1.091,1.887,1.887,0,0,0,1.31-.771,1.864,1.864,0,0,0,.341-.891,1.9,1.9,0,0,0,1.584-.784,1.879,1.879,0,0,0-.437-2.63l-.625-.445L21.7,60.487A.645.645,0,0,0,21.907,59.608Zm-8.663-2.719a.645.645,0,0,0-.362-.117l-1.873-.028H11a.645.645,0,0,0-.288.068L7.58,58.376A1.307,1.307,0,0,1,5.832,57.8a1.283,1.283,0,0,1-.115-.335l5.609-3.1,3.533,1.047a.645.645,0,0,0,.442-.028l2.011-.883,3.164,5.234L18.794,60.8ZM8.17,67.692h0a.516.516,0,0,1-.1-.722l.845-1.128a.516.516,0,0,1,.825.618l-.845,1.128A.516.516,0,0,1,8.17,67.692ZM2.5,62.8l.845-1.128a.516.516,0,0,1,.825.618l-.845,1.128a.515.515,0,0,1-.722.1h0A.516.516,0,0,1,2.5,62.8Zm1.857,1.391L5.2,63.059h0l.595-.793a.516.516,0,1,1,.825.618l-1.44,1.921a.516.516,0,0,1-.722.1h0A.516.516,0,0,1,4.353,64.187ZM6.313,66.3a.516.516,0,0,1-.1-.722l1.44-1.921h0l.262-.35a.512.512,0,0,1,.339-.2.521.521,0,0,1,.074-.005.516.516,0,0,1,.412.825L7.035,66.2a.516.516,0,0,1-.722.1Zm13.634-2.375a.605.605,0,0,1-.841.138l-.467-.332h0l-2.6-1.85a.645.645,0,0,0-.747,1.051l2.6,1.846a.592.592,0,0,1,.134.823.606.606,0,0,1-.841.138l-.2-.145h0l-2.009-1.428a.645.645,0,0,0-.747,1.051l2,1.425a.592.592,0,0,1,.134.823.606.606,0,0,1-.841.138l-.715-.509h0l-1.082-.769a.645.645,0,1,0-.747,1.051l1.063.756a.588.588,0,0,1,.11.8.606.606,0,0,1-.841.138l-2.552-1.816.014-.018a1.8,1.8,0,0,0-.843-2.784,1.8,1.8,0,0,0-1.857-2.62,1.838,1.838,0,0,0-.2.041,1.806,1.806,0,0,0-2.582-.849,1.8,1.8,0,0,0-2.715-.406l-1.048-.668L4.329,55.3l1.221.782-.808.447a.645.645,0,0,0-.331.521,2.568,2.568,0,0,0,.27,1.329,2.6,2.6,0,0,0,3.474,1.146l2.992-1.494,1.517.022L18.4,62.1h0l1.405,1a.59.59,0,0,1,.139.826Z" transform="translate(0 -53.025)"/></svg>