<svg xmlns="http://www.w3.org/2000/svg" width="20.027" height="20.023" viewBox="0 0 20.027 20.023"><defs><style>.a{fill:#2c2d66;}</style></defs><g transform="translate(-491 -192.035)"><path class="a" d="M510.439,192.036a15.832,15.832,0,0,0-11.289,4.85l-1.058,1.058-1.125-1.125-3.32.937L491,200.4l2.316,2.316h0l.12.12-1.089,2.248.718.718-1.757,1.757.83.83,1.756-1.757.85.85-3.72,3.72.83.83,3.72-3.72.85.85-1.757,1.757.83.83,1.757-1.757.718.718,2.248-1.09,2.436,2.436,2.646-2.646.94-3.318-1.128-1.128,1.058-1.058a16.112,16.112,0,0,0,3.517-5.044,15.643,15.643,0,0,0,1.338-6.83ZM494.259,198.8l2.364-.667.638.638-3.115,3.115L492.66,200.4Zm3.952,10.489-4.444-4.444.548-1.13,5.027,5.026Zm6.714-2.854-.669,2.361-1.6,1.6-1.487-1.487,3.115-3.115Zm.429-3.37-1.07,1.07h0l-3.945,3.945-5.363-5.363,3.945-3.945,1.069-1.069a14.687,14.687,0,0,1,9.849-4.482,14.652,14.652,0,0,1-4.485,9.844Zm0,0" transform="translate(0)"/><path class="a" d="M683.709,289.833a2.674,2.674,0,1,0-3.781,0,2.679,2.679,0,0,0,3.781,0Zm-1.889-3.394a1.5,1.5,0,1,1-1.5,1.5c0-.4.68-1.5,1.5-1.5Zm0,0" transform="translate(-178.333 -88.369)"/></g></svg>