<svg xmlns="http://www.w3.org/2000/svg" width="78.807" height="64.145" viewBox="0 0 78.807 64.145">
  <g id="Grupo_14371" data-name="Grupo 14371" transform="translate(-947 -1739)">
    <path id="Caminho_11784" data-name="Caminho 11784" d="M76.953,60.354,64.124,70.434a1.834,1.834,0,0,1-2.964-1.441V63.036a.458.458,0,0,0-.458-.458H42.833A1.832,1.832,0,0,1,41,60.745V57.08a1.832,1.832,0,0,1,1.833-1.833H60.7a.458.458,0,0,0,.458-.458V48.833a1.834,1.834,0,0,1,2.964-1.441l12.829,10.08A1.833,1.833,0,0,1,76.953,60.354Z" transform="translate(937.156 1721.324)" fill="#2c2d66"/>
    <path id="Caminho_11785" data-name="Caminho 11785" d="M35.953,50.578a.458.458,0,0,0-.458.458v5.956a1.834,1.834,0,0,1-2.964,1.441L19.7,48.354a1.834,1.834,0,0,1,0-2.883L32.53,35.391a1.834,1.834,0,0,1,2.964,1.441v5.956a.458.458,0,0,0,.458.458H53.822a1.832,1.832,0,0,1,1.833,1.833v3.665a1.832,1.832,0,0,1-1.833,1.833Z" transform="translate(938.996 1722.327)" fill="#2c2d66"/>
    <path id="Caminho_11786" data-name="Caminho 11786" d="M80.308,15H12.5A5.5,5.5,0,0,0,7,20.5V73.647a5.5,5.5,0,0,0,5.5,5.5h67.81a5.5,5.5,0,0,0,5.5-5.5V20.5A5.5,5.5,0,0,0,80.308,15Zm-6.414,3.665a2.749,2.749,0,1,1-2.749,2.749A2.749,2.749,0,0,1,73.894,18.665Zm-11,0a2.749,2.749,0,1,1-2.749,2.749A2.749,2.749,0,0,1,62.9,18.665Zm-11,0a2.749,2.749,0,1,1-2.749,2.749A2.749,2.749,0,0,1,51.9,18.665ZM80.308,72.73a.917.917,0,0,1-.916.916H13.414a.917.917,0,0,1-.916-.916V28.745a.917.917,0,0,1,.916-.916H79.392a.917.917,0,0,1,.916.916Z" transform="translate(940 1724)" fill="#2c2d66"/>
  </g>
</svg>
