<svg id="Grupo_29082" data-name="Grupo 29082" xmlns="http://www.w3.org/2000/svg" xmlns:xlink="http://www.w3.org/1999/xlink" width="49.403" height="50" viewBox="0 0 49.403 50">
  <defs>
    <clipPath id="clip-path">
      <rect id="Retângulo_5954" data-name="Retângulo 5954" width="49.403" height="50" fill="#2c2d66"/>
    </clipPath>
  </defs>
  <g id="Grupo_29081" data-name="Grupo 29081" clip-path="url(#clip-path)">
    <path id="Caminho_21817" data-name="Caminho 21817" d="M39.871,121.764H34.726a4.692,4.692,0,0,0-9.242,0H21.146v-5.049a.809.809,0,0,0-.806-.806,3.073,3.073,0,0,1,0-6.145.809.809,0,0,0,.806-.806v-5.863a.809.809,0,0,0-.806-.806H.806a.8.8,0,0,0-.806.806v38.96a.809.809,0,0,0,.806.806H39.871a.809.809,0,0,0,.806-.806V122.57a.808.808,0,0,0-.806-.806Zm-20.339,0H15.193a4.692,4.692,0,0,0-9.242,0H1.613V103.9h17.92v4.314a4.692,4.692,0,0,0,0,9.242Zm19.533,19.484H21.146V123.377h5.081a.8.8,0,0,0,.806-.806,3.072,3.072,0,1,1,6.145,0,.8.8,0,0,0,.806.806h5.081Z" transform="translate(0 -92.86)" fill="#2c2d66"/>
    <path id="Caminho_21818" data-name="Caminho 21818" d="M288.724,0H269.191a.809.809,0,0,0-.806.806V5.678a4.692,4.692,0,0,0,0,9.242v5.363a.809.809,0,0,0,.806.806h6.218a.809.809,0,0,0,.806-.806,3.077,3.077,0,1,1,6.153,0,.809.809,0,0,0,.806.806h5.548a.8.8,0,0,0,.806-.806V.807A.8.8,0,0,0,288.723,0Z" transform="translate(-240.127)" fill="#2c2d66"/>
  </g>
</svg>
