<svg id="Grupo_29055" data-name="Grupo 29055" xmlns="http://www.w3.org/2000/svg" width="38.971" height="45" viewBox="0 0 38.971 45">
  <path id="Caminho_21746" data-name="Caminho 21746" d="M1.581,32.837V12.163l17.9-10.338,17.9,10.338V32.837l-17.9,10.337ZM19.486,0,0,11.25v22.5L19.486,45l.4-.228L38.971,33.75V11.25Z" fill="#5f47ff"/>
  <rect id="Retângulo_5939" data-name="Retângulo 5939" width="1.581" height="21.492" transform="translate(18.695 22.596)" fill="#5f47ff"/>
  <path id="Caminho_21747" data-name="Caminho 21747" d="M5.192,123.46l-.8,1.367L23.49,135.947l19.092-11.121-.8-1.367-18.3,10.657Z" transform="translate(-4.004 -112.437)" fill="#5f47ff"/>
  <path id="Caminho_21748" data-name="Caminho 21748" d="M97.413,59.957l-3.319,1.917,18.852,10.884,3.319-1.917Z" transform="translate(-85.693 -54.604)" fill="#5f47ff"/>
  <path id="Caminho_21749" data-name="Caminho 21749" d="M308.543,187.42l-3.319,1.917v-5.561l3.319-1.917Z" transform="translate(-277.972 -165.622)" fill="#5f47ff"/>
</svg>
