<svg xmlns="http://www.w3.org/2000/svg" width="45.887" height="45.888" viewBox="0 0 45.887 45.888">
  <g id="Grupo_20603" data-name="Grupo 20603" transform="translate(-1168.839 -3774)">
    <rect id="Retângulo_1544" data-name="Retângulo 1544" width="1.192" height="4.777" transform="translate(1184.104 3811.887) rotate(-150.443)" fill="#5f47ff"/>
    <rect id="Retângulo_1545" data-name="Retângulo 1545" width="1.193" height="4.777" transform="translate(1177.657 3805.956) rotate(-120.291)" fill="#5f47ff"/>
    <rect id="Retângulo_1546" data-name="Retângulo 1546" width="4.777" height="1.192" transform="translate(1183.899 3782.107) rotate(59.627)" fill="#5f47ff"/>
    <rect id="Retângulo_1547" data-name="Retângulo 1547" width="1.193" height="4.778" transform="matrix(-1, 0.006, -0.006, -1, 1192.51, 3813.787)" fill="#5f47ff"/>
    <rect id="Retângulo_1548" data-name="Retângulo 1548" width="4.777" height="1.192" transform="matrix(0.87, 0.493, -0.493, 0.87, 1177.545, 3788.11)" fill="#5f47ff"/>
    <rect id="Retângulo_1549" data-name="Retângulo 1549" width="4.779" height="1.194" transform="translate(1174.968 3796.323) rotate(-0.229)" fill="#5f47ff"/>
    <rect id="Retângulo_1550" data-name="Retângulo 1550" width="4.777" height="1.193" transform="translate(1198.141 3807.144) rotate(60.436)" fill="#5f47ff"/>
    <rect id="Retângulo_1551" data-name="Retângulo 1551" width="4.777" height="1.192" transform="matrix(0.863, 0.505, -0.505, 0.863, 1202.387, 3802.518)" fill="#5f47ff"/>
    <path id="Caminho_13221" data-name="Caminho 13221" d="M30.782,7.8a22.944,22.944,0,1,0,16.224,6.72A22.8,22.8,0,0,0,30.782,7.8Zm14.239,14.11.589,1.038L41.455,25.31l-.589-1.038Zm-6.356-6,1.028.6-2.414,4.123-1.029-.6ZM44.794,44.76A19.815,19.815,0,1,1,30.782,10.933l.118,0V30.749H50.6A19.686,19.686,0,0,1,44.794,44.76Z" transform="translate(1161 3766.195)" fill="#5f47ff"/>
  </g>
</svg>
