<svg id="Grupo_29054" data-name="Grupo 29054" xmlns="http://www.w3.org/2000/svg" xmlns:xlink="http://www.w3.org/1999/xlink" width="45" height="44.99" viewBox="0 0 45 44.99">
  <defs>
    <clipPath id="clip-path">
      <rect id="Retângulo_5937" data-name="Retângulo 5937" width="45" height="44.99" fill="#5f47ff"/>
    </clipPath>
  </defs>
  <g id="Grupo_29053" data-name="Grupo 29053" clip-path="url(#clip-path)">
    <path id="Caminho_21742" data-name="Caminho 21742" d="M30.442,44.935,28.7,39.524a2.251,2.251,0,0,0-3.717-.918L13.162,50.185c-.014-.007-.025-.018-.04-.025h0a1.5,1.5,0,0,0-1.144-.094L5.007,52.311A1.5,1.5,0,0,0,4.038,54.2L4.7,56.27.52,57.617a.751.751,0,0,0-.484.944l2.254,7a.751.751,0,0,0,.944.484L7.418,64.7l.667,2.071h0a1.5,1.5,0,0,0,1.887.969h0l.047-.015L15.2,79.257a.751.751,0,0,0,.914.407l4.8-1.546a1.5,1.5,0,0,0,.909-2.043L17.051,65.446a1.49,1.49,0,0,0,.785-.741l16.357,2.509A2.25,2.25,0,0,0,36.676,64.3l-1.742-5.412a7.368,7.368,0,0,0-4.492-13.954ZM3.487,64.386,1.694,58.815,5.165,57.7l1.794,5.571Zm16.969,12.3-4.162,1.34L11.457,67.259l4.162-1.34,4.839,10.771ZM35.1,65.476a.735.735,0,0,1-.684.255L17.775,63.178,15.889,57.32,14,51.461l12.03-11.785a.749.749,0,0,1,1.238.306l1.96,6.087v0l4.056,12.6v0l1.959,6.085h0a.738.738,0,0,1-.143.717Z" transform="translate(0.001 -34.71)" fill="#5f47ff"/>
    <path id="Caminho_21743" data-name="Caminho 21743" d="M429.507,8.244a.749.749,0,0,0,.625-.334l4.5-6.749a.75.75,0,0,0-1.248-.832l-4.5,6.749a.75.75,0,0,0,.623,1.166Z" transform="translate(-392.01 -0.001)" fill="#5f47ff"/>
    <path id="Caminho_21744" data-name="Caminho 21744" d="M472.532,141.612a.748.748,0,0,0,.909.545l3-.75a.749.749,0,1,0-.363-1.454l-3,.75a.749.749,0,0,0-.546.909Z" transform="translate(-432.012 -127.937)" fill="#5f47ff"/>
    <path id="Caminho_21745" data-name="Caminho 21745" d="M476.891,257l-3-3a.75.75,0,0,0-1.061,1.061l3,3A.75.75,0,0,0,476.891,257" transform="translate(-432.114 -232.039)" fill="#5f47ff"/>
  </g>
</svg>
