<svg xmlns="http://www.w3.org/2000/svg" width="19.999" height="19.999" viewBox="0 0 19.999 19.999"><defs><style>.a{fill:#c9c9c9;}</style></defs><path class="a" d="M99.082,74.967H85.125A3.128,3.128,0,0,1,82,71.842V57.26a2.293,2.293,0,0,1,2.292-2.292H94.708A2.293,2.293,0,0,1,97,57.26v.208h2.708A2.293,2.293,0,0,1,102,59.759V71.842a3.129,3.129,0,0,1-2.751,3.1.6.6,0,0,1-.166.023ZM97,58.718V71.842a1.875,1.875,0,1,0,3.75,0V59.759a1.043,1.043,0,0,0-1.042-1.042Zm-12.708-2.5A1.043,1.043,0,0,0,83.25,57.26V71.842a1.877,1.877,0,0,0,1.875,1.875H96.376a3.109,3.109,0,0,1-.627-1.875V57.26a1.043,1.043,0,0,0-1.042-1.042Zm0,0" transform="translate(-82 -54.968)"/><path class="a" d="M134.375,107.968h-3.75a.625.625,0,0,1-.625-.625v-3.75a.625.625,0,0,1,.625-.625h3.75a.625.625,0,0,1,.625.625v3.75a.625.625,0,0,1-.625.625Zm-3.125-1.25h2.5v-2.5h-2.5Zm0,0" transform="translate(-127.5 -100.468)"/><path class="a" d="M260.708,120.218h-2.083a.625.625,0,1,1,0-1.25h2.083a.625.625,0,1,1,0,1.25Zm0,0" transform="translate(-248.834 -115.635)"/><path class="a" d="M260.708,168.218h-2.083a.625.625,0,1,1,0-1.25h2.083a.625.625,0,1,1,0,1.25Zm0,0" transform="translate(-248.834 -161.135)"/><path class="a" d="M139.375,232.218h-8.75a.625.625,0,0,1,0-1.25h8.75a.625.625,0,0,1,0,1.25Zm0,0" transform="translate(-127.5 -221.802)"/><path class="a" d="M139.375,292.218h-8.75a.625.625,0,1,1,0-1.25h8.75a.625.625,0,1,1,0,1.25Zm0,0" transform="translate(-127.5 -278.677)"/><path class="a" d="M139.375,352.218h-8.75a.625.625,0,0,1,0-1.25h8.75a.625.625,0,1,1,0,1.25Zm0,0" transform="translate(-127.5 -335.552)"/></svg>