<svg id="Grupo_29065" data-name="Grupo 29065" xmlns="http://www.w3.org/2000/svg" xmlns:xlink="http://www.w3.org/1999/xlink" width="34.286" height="45" viewBox="0 0 34.286 45">
  <defs>
    <clipPath id="clip-path">
      <rect id="Retângulo_5944" data-name="Retângulo 5944" width="34.286" height="45" fill="#5f47ff"/>
    </clipPath>
  </defs>
  <g id="Grupo_29064" data-name="Grupo 29064" clip-path="url(#clip-path)">
    <path id="Caminho_21773" data-name="Caminho 21773" d="M32.569.032c-9.311,3.65-13.778,6.886-18.983,15.8q-3.155.674-6.31,1.344L0,29.93l7.615-3.058,3.009.9c-2.2,2.3-3.471,4.27-4.009,6.589-.617,2.66-.294,5.687.5,10.2a.556.556,0,0,0,.685.42c4.611-1.4,7.394-2.606,9.272-4.547,1.641-1.695,2.516-3.88,3.3-7.04l2.444,2.364q.6,4.1,1.191,8.2c2.547-4.465,5.089-8.9,7.289-12.745-.694-2.05-1.351-4.115-2.022-6.174,5.1-8.969,6.037-14.292,4.024-24.5a.63.63,0,0,0-.256-.467.577.577,0,0,0-.476-.039Zm.652,8.981c.048,5.446-1.536,9.76-5.26,16.174-1.464,2.587-4.506,4.9-7.829,6.639a8.144,8.144,0,0,0-2.92-.38,4.943,4.943,0,0,1-2.06-.033,4.432,4.432,0,0,1-1.118-1.785,5.928,5.928,0,0,0-1.71-2.267c-.16-3.777.3-7.649,1.787-10.287,3.64-6.4,6.734-9.809,11.354-12.515A15.848,15.848,0,0,0,33.22,9.014Zm-6.058,1.374a3.189,3.189,0,0,0-4.374,1.188A3.271,3.271,0,0,0,23.959,16a3.19,3.19,0,0,0,4.374-1.188,3.271,3.271,0,0,0-1.17-4.428ZM12.875,17.112a21.38,21.38,0,0,0-1.647,9.705c-1.222-.355-2.44-.721-3.664-1.068q-2.549,1.022-5.1,2.03l5.5-9.639Zm15.678,9.162,1.571,4.838-5.512,9.631-.781-5.312a20.46,20.46,0,0,0-2.786-2.876c2.922-1.577,5.887-3.6,7.508-6.28Z" transform="translate(-0.001 0)" fill="#5f47ff"/>
  </g>
</svg>
