<svg xmlns="http://www.w3.org/2000/svg" width="78.807" height="78.807" viewBox="0 0 78.807 78.807">
  <path id="Caminho_11788" data-name="Caminho 11788" d="M75.452,48.344a5.729,5.729,0,0,0-6.148.878c-.137.122-.348-.046-.348-.2V29.782a2.7,2.7,0,0,0-2.693-2.692,2.633,2.633,0,0,0-1.753.653,3.279,3.279,0,1,1,0-5,2.635,2.635,0,0,0,1.753.653A2.7,2.7,0,0,0,68.956,20.7V11.082a1.231,1.231,0,0,0-1.231-1.231H58.1c-.15,0-.32-.212-.2-.349a5.742,5.742,0,1,0-8.683,0c.122.138-.046.348-.2.348H29.782a2.7,2.7,0,0,0-2.693,2.692,2.632,2.632,0,0,0,.653,1.753,3.279,3.279,0,1,1-5,0,2.633,2.633,0,0,0,.653-1.753A2.7,2.7,0,0,0,20.7,9.851H11.082a1.231,1.231,0,0,0-1.231,1.231V20.7a.23.23,0,0,1-.23.23A.193.193,0,0,1,9.5,20.9a5.741,5.741,0,1,0,0,8.685.19.19,0,0,1,.119-.033.23.23,0,0,1,.23.23V49.025a2.7,2.7,0,0,0,2.693,2.692,2.633,2.633,0,0,0,1.753-.653,3.279,3.279,0,1,1,0,5,2.635,2.635,0,0,0-1.753-.653A2.7,2.7,0,0,0,9.851,58.1v9.621a1.231,1.231,0,0,0,1.231,1.231H20.7a.23.23,0,0,1,.23.23.2.2,0,0,1-.032.119,5.742,5.742,0,1,0,8.684,0,.2.2,0,0,1-.032-.119.23.23,0,0,1,.23-.23H49.024a2.7,2.7,0,0,0,2.693-2.692,2.632,2.632,0,0,0-.653-1.753,3.279,3.279,0,1,1,5,0,2.633,2.633,0,0,0-.653,1.753A2.7,2.7,0,0,0,58.1,68.956h9.621a1.231,1.231,0,0,0,1.231-1.231V58.1c0-.15.212-.32.349-.2a5.742,5.742,0,1,0,6.147-9.562Zm-45.9-10.4a.2.2,0,0,1,.032-.118,5.742,5.742,0,1,0-8.683,0,.2.2,0,0,1,.032.118.23.23,0,0,1-.23.23H12.314v-8.39A2.7,2.7,0,0,0,9.621,27.09a2.633,2.633,0,0,0-1.753.653,3.279,3.279,0,1,1,0-5,2.635,2.635,0,0,0,1.753.653A2.7,2.7,0,0,0,12.314,20.7v-8.39H20.7a.23.23,0,0,1,.23.23.2.2,0,0,1-.032.118,5.742,5.742,0,1,0,8.683,0,.2.2,0,0,1-.032-.118.23.23,0,0,1,.23-.23h8.39V20.7A2.7,2.7,0,0,0,40.865,23.4c1.225,0,1.862-1,2.955-1.308a3.5,3.5,0,0,1,2.3.181,3.327,3.327,0,0,1,.324,5.78,3.375,3.375,0,0,1-2.81.279c-.688-.242-1.152-.812-1.825-1.069a2.7,2.7,0,0,0-3.637,2.524v8.39h-8.39a.23.23,0,0,1-.23-.23Zm44.889,18.6a3.261,3.261,0,0,1-3.5-.474,2.634,2.634,0,0,0-1.752-.652A2.7,2.7,0,0,0,66.493,58.1v8.39H58.1c-.149,0-.32-.213-.2-.349a5.742,5.742,0,1,0-8.684,0c.121.137-.048.348-.2.348h-8.39V58.1a2.7,2.7,0,0,0-2.693-2.692,2.633,2.633,0,0,0-1.753.653,3.279,3.279,0,1,1,0-5,2.635,2.635,0,0,0,1.753.653,2.7,2.7,0,0,0,2.693-2.692v-8.39h8.389c.151,0,.32.211.2.349a5.742,5.742,0,1,0,8.683,0c-.121-.137.045-.347.2-.347h8.39v8.39a2.7,2.7,0,0,0,2.693,2.692,2.634,2.634,0,0,0,1.753-.653,3.28,3.28,0,1,1,3.5,5.474Z" transform="translate(0)" fill="#2c2d66"/>
</svg>
