<svg xmlns="http://www.w3.org/2000/svg" width="26" height="26" viewBox="0 0 26 26">
  <g id="Grupo_28937" data-name="Grupo 28937" transform="translate(-486 -4005)">
    <circle id="Elipse_808" data-name="Elipse 808" cx="13" cy="13" r="13" transform="translate(486 4005)" fill="#d8d8ff"/>
    <g id="Grupo_28936" data-name="Grupo 28936" transform="translate(492.142 4012.547)" style="mix-blend-mode: normal;isolation: isolate">
      <path id="Caminho_501" data-name="Caminho 501" d="M-1135.568-72.578q0-3.493,1.3-5.018a5.269,5.269,0,0,1,4.16-1.556v1.969a2.136,2.136,0,0,0-1.842.873,4.811,4.811,0,0,0-.572,2.652h2.414v4.478h-5.463Zm7.334,0q0-3.493,1.286-5.018a5.218,5.218,0,0,1,4.145-1.556v1.969a2.1,2.1,0,0,0-1.81.873,4.811,4.811,0,0,0-.572,2.652h2.414v4.478h-5.463Z" transform="translate(1135.568 79.152)" fill="#5f47ff"/>
    </g>
  </g>
</svg>
