<svg id="Grupo_29080" data-name="Grupo 29080" xmlns="http://www.w3.org/2000/svg" xmlns:xlink="http://www.w3.org/1999/xlink" width="40.699" height="50" viewBox="0 0 40.699 50">
  <defs>
    <clipPath id="clip-path">
      <rect id="Retângulo_5953" data-name="Retângulo 5953" width="40.699" height="50" fill="#2c2d66"/>
    </clipPath>
  </defs>
  <g id="Grupo_29079" data-name="Grupo 29079" clip-path="url(#clip-path)">
    <path id="Caminho_21816" data-name="Caminho 21816" d="M40.639,17.373,40.616,17,35.16,14.6a14.947,14.947,0,0,0-.284-2.73L34.8,11.51l-3.273-1q-.114-.294-.243-.583l1.61-3.01-.2-.3A14.807,14.807,0,0,0,28.4,2.37l-.327-.211L25.295,3.906l-.172-.076L24.518.586l-.373-.1h0A14.99,14.99,0,0,0,16.512.5l-.379.1-.542,3.222q-.2.087-.4.182l-2.81-1.692-.322.218A14.786,14.786,0,0,0,7.9,6.773l-.216.333L9.461,9.817c-.131.286-.252.578-.36.873l-3.185.716-.08.385h0a14.886,14.886,0,0,0-.3,2.807L.082,17l-.023.37A33.241,33.241,0,0,0,20.109,49.9l.24.1.24-.1a33.241,33.241,0,0,0,20.05-32.524Zm-15.01-6.982L20.349,8.062,15.07,10.391h0a6.05,6.05,0,0,1,10.558,0ZM20.349,48.674A32.022,32.022,0,0,1,1.255,17.816L20.349,9.394l19.094,8.422A32.022,32.022,0,0,1,20.349,48.674ZM37.4,19.283A28,28,0,0,1,30.337,39.57a27.814,27.814,0,0,1-4.09,3.743l-.726-.978a27.028,27.028,0,0,0,7.031-7.862,26.778,26.778,0,0,0,3.657-14.746l-15.86-7-15.86,7a26.657,26.657,0,0,0,15.86,25.61,26.684,26.684,0,0,0,5.173-3l.726.978h0a27.864,27.864,0,0,1-5.659,3.248l-.239.1-.24-.1A27.877,27.877,0,0,1,3.293,19.283l.023-.37L20.349,11.4l.246.108,16.786,7.4ZM26.418,22.318l-6.1,6.1-3.5-3.5-3.1,3.1,6.6,6.6,9.207-9.207Z" transform="translate(0 0)" fill="#2c2d66"/>
  </g>
</svg>
