<svg xmlns="http://www.w3.org/2000/svg" width="53.664" height="96.28" viewBox="0 0 53.664 96.28"><defs><style>.a{fill:#5f47ff;}.b{fill:#2c2d66;}</style></defs><g transform="translate(-2639.113 -3270.298)"><path class="a" d="M2734.448,3582.025l-.86-1.843h-18.94l-.86,1.843a27.036,27.036,0,0,0,10.33,34.459,27.036,27.036,0,0,0,10.33-34.459Zm0,0" transform="translate(-58.174 -249.906)"/><path class="b" d="M2696.792,3337.4l-1.983-15.853-7.875-6.3a4.621,4.621,0,0,0,.077-.759,4.728,4.728,0,0,0-3.156-4.444v-3.081a20.519,20.519,0,1,0-25.254,0v3.081a4.731,4.731,0,0,0-3.157,4.444,4.567,4.567,0,0,0,.078.758l-7.875,6.3-1.983,15.854,14.879-5.58a26.23,26.23,0,0,0,9.75,13.926l.936.693.936-.691a26.216,26.216,0,0,0,9.75-13.926Zm-14.516-16.6a1.58,1.58,0,0,1-1.578,1.578h-18.94a1.578,1.578,0,0,1,0-3.157h18.94a1.58,1.58,0,0,1,1.578,1.578Zm-22.1,6.313a1.58,1.58,0,0,1,1.578-1.578h18.94a1.578,1.578,0,0,1,0,3.157h-18.94a1.58,1.58,0,0,1-1.578-1.578Zm32.835,5.5-8.257-3.1a9.618,9.618,0,0,1,.676-8.714,4.688,4.688,0,0,0-.633-2.322,4.522,4.522,0,0,0,.574-.441l6.467,5.172Zm-39.148-41.8a17.362,17.362,0,1,1,27.488,14.082l-.656.473v4.386h-3.157v-15.785h1.578a4.735,4.735,0,1,0-4.735-4.735v1.578h-6.313v-1.578a4.735,4.735,0,1,0-4.735,4.735h1.578v15.783h-3.157v-4.386l-.655-.472a17.414,17.414,0,0,1-7.237-14.082Zm14.205,18.94v-15.783h6.313v15.783Zm9.47-18.94v-1.578a1.578,1.578,0,1,1,1.578,1.578Zm-12.627,0h-1.578a1.578,1.578,0,1,1,1.578-1.578Zm-4.735,22.1h22.1a1.579,1.579,0,0,1,0,3.158h-22.1a1.579,1.579,0,0,1,0-3.158Zm-9.564,10.3,6.467-5.172a1.493,1.493,0,0,1-.06,2.762,4.662,4.662,0,0,1,0,6.313,4.671,4.671,0,0,0,.677,2.4l-8.257,3.1Zm20.613,19.27a23.126,23.126,0,0,1-7.412-10.631h14.825a23.11,23.11,0,0,1-7.413,10.631Zm0,0" transform="translate(-5.283)"/><rect class="b" width="3.157" height="17.362" transform="translate(2683.307 3342.903)"/><rect class="b" width="3.157" height="3.157" transform="translate(2683.307 3363.421)"/><rect class="b" width="3.157" height="14.205" transform="translate(2689.62 3341.324)"/><rect class="b" width="3.157" height="4.735" transform="translate(2689.62 3358.686)"/><rect class="b" width="3.157" height="20.519" transform="translate(2645.426 3342.903)"/><rect class="b" width="3.157" height="15.784" transform="translate(2639.113 3341.324)"/><rect class="b" width="3.157" height="3.157" transform="translate(2639.113 3360.265)"/></g></svg>