<svg xmlns="http://www.w3.org/2000/svg" width="46" height="46" viewBox="0 0 46 46">
  <path id="Caminho_13218" data-name="Caminho 13218" d="M13.638,42.425l-.063-.063A29.59,29.59,0,0,1,5.01,21.2a8.415,8.415,0,0,1,6.535-7.965,2.5,2.5,0,0,1,2.694,1.224l4.215,7.354a2.531,2.531,0,0,1-.4,3.047l-2.642,2.646a3.912,3.912,0,0,0-.771,4.463,20.665,20.665,0,0,0,9.393,9.392,3.911,3.911,0,0,0,4.462-.771l2.646-2.642a2.532,2.532,0,0,1,3.048-.4l7.353,4.214a2.5,2.5,0,0,1,1.224,2.7A8.415,8.415,0,0,1,34.8,50.99,29.59,29.59,0,0,1,13.638,42.425ZM50.49,21.463H38.9l-10.22,6.551a.307.307,0,0,1-.472-.258V21.463H26.466a.51.51,0,0,1-.51-.51V5.51a.51.51,0,0,1,.51-.51H50.49a.51.51,0,0,1,.51.51V20.952a.51.51,0,0,1-.51.51ZM48.445,7.555H28.511V18.907H30.76v4.736l7.388-4.736h10.3Z" transform="translate(-5 -5)" fill="#5f47ff"/>
</svg>
