<svg id="Grupo_29074" data-name="Grupo 29074" xmlns="http://www.w3.org/2000/svg" xmlns:xlink="http://www.w3.org/1999/xlink" width="35.067" height="50" viewBox="0 0 35.067 50">
  <defs>
    <clipPath id="clip-path">
      <rect id="Retângulo_5950" data-name="Retângulo 5950" width="35.067" height="50" fill="#2c2d66"/>
    </clipPath>
  </defs>
  <g id="Grupo_29073" data-name="Grupo 29073" clip-path="url(#clip-path)">
    <path id="Caminho_21796" data-name="Caminho 21796" d="M55.211,124.476c1.638.183,3.075.465,3.075.465-3.268-1.8-3.184-8.246-3.184-8.246a24.424,24.424,0,0,0-.009-2.443H53.8c0,.089,0,.176,0,.259-.009.508-.02.887-.033.972a12.06,12.06,0,0,1-1.182,4.455c-1.161,2.325-3.038,3.836-5.158,3.836s-4-1.511-5.157-3.836a12.016,12.016,0,0,1-1.182-4.455c-.012-.085-.023-.465-.033-.972,0-.083,0-.17,0-.259H39.754a24.424,24.424,0,0,0-.009,2.443s.085,6.45-3.184,8.246c0,0,1.437-.282,3.075-.465a9.556,9.556,0,0,0-6.455,7.093H61.666a9.555,9.555,0,0,0-6.455-7.093Zm-5.579,2.5-2.209,3.588-2.208-3.588c-1.949-.442-3.363-1.45-3.563-2.651,1.254-.031,2.323.095,2.607.563l-.848-1.766a5.44,5.44,0,0,0,8.024,0l-.848,1.766c.285-.468,1.353-.594,2.606-.563-.2,1.2-1.613,2.208-3.562,2.65Z" transform="translate(-29.889 -102.918)" fill="#2c2d66"/>
    <path id="Caminho_21797" data-name="Caminho 21797" d="M88.778,10.23h15.487a1.092,1.092,0,1,0,0-2.185h-.3A7.445,7.445,0,0,0,99.884,1.4l-.218,1.235-.4,2.263a.57.57,0,0,1-.561.472.512.512,0,0,1-.1-.009c-.014,0-.027-.009-.041-.012a.569.569,0,0,1-.422-.65l.007-.039.431-2.448L98.846.7A1.5,1.5,0,0,0,97.577,0H95.464A1.493,1.493,0,0,0,94.2.7l.266,1.509.431,2.448L94.9,4.7a.567.567,0,0,1-.422.65c-.013,0-.027.009-.041.012a.557.557,0,0,1-.1.009.571.571,0,0,1-.562-.472l-.4-2.263L93.161,1.4a7.44,7.44,0,0,0-4.085,6.643h-.3a1.092,1.092,0,0,0,0,2.185Z" transform="translate(-78.987)" fill="#2c2d66"/>
    <path id="Caminho_21798" data-name="Caminho 21798" d="M63.147,492.225H36.34a.584.584,0,1,0,0,1.169H63.147a.584.584,0,1,0,0-1.169" transform="translate(-32.209 -443.394)" fill="#2c2d66"/>
    <path id="Caminho_21799" data-name="Caminho 21799" d="M32.317,288.8H2.751A2.753,2.753,0,0,0,0,291.555v.067l.012.065,2.454,14.231A2.753,2.753,0,0,0,5.214,308.6H29.853a2.753,2.753,0,0,0,2.749-2.678l2.453-14.231.012-.065v-.067A2.752,2.752,0,0,0,32.317,288.8Zm-.493,17.04a1.971,1.971,0,0,1-1.971,1.971H5.214a1.971,1.971,0,0,1-1.971-1.971L.78,291.555a1.971,1.971,0,0,1,1.971-1.971H32.317a1.971,1.971,0,0,1,1.971,1.971Z" transform="translate(0 -260.154)" fill="#2c2d66"/>
    <path id="Caminho_21800" data-name="Caminho 21800" d="M167.3,375.463a1.169,1.169,0,1,1-1.169-1.169,1.169,1.169,0,0,1,1.169,1.169" transform="translate(-148.6 -337.162)" fill="#2c2d66"/>
  </g>
</svg>
