<svg xmlns="http://www.w3.org/2000/svg" width="42.759" height="45.967" viewBox="0 0 42.759 45.967">
  <g id="Grupo_20605" data-name="Grupo 20605" transform="translate(-845.42 -3551)">
    <path id="Caminho_13224" data-name="Caminho 13224" d="M47.572,3H14.945a1.467,1.467,0,0,0-1.467,1.467V17.284a6.245,6.245,0,1,0,2.934.088V5.934H46.1v40.1H23.581V38.6l6.147,1.824a1.467,1.467,0,0,0,1.677-.587L37.762,29.69a1.467,1.467,0,0,0-.279-1.932L34.794,25.8a1.467,1.467,0,0,0-2.22.4l-4.24,7.418L22.691,31.2a1.467,1.467,0,0,0-.577-.117H7.747A1.467,1.467,0,0,0,6.28,32.551V48.966H47.572A1.467,1.467,0,0,0,49.039,47.5V4.467A1.467,1.467,0,0,0,47.572,3Z" transform="translate(839.14 3548)" fill="#5f47ff"/>
    <rect id="Ret창ngulo_1552" data-name="Ret창ngulo 1552" width="10.352" height="2.934" transform="translate(862.887 3559.436)" fill="#5f47ff"/>
    <rect id="Ret창ngulo_1553" data-name="Ret창ngulo 1553" width="18.665" height="2.934" transform="translate(862.887 3566.281)" fill="#5f47ff"/>
  </g>
</svg>
