<svg id="Grupo_29076" data-name="Grupo 29076" xmlns="http://www.w3.org/2000/svg" xmlns:xlink="http://www.w3.org/1999/xlink" width="50" height="46.032" viewBox="0 0 50 46.032">
  <defs>
    <clipPath id="clip-path">
      <rect id="Retângulo_5951" data-name="Retângulo 5951" width="50" height="46.032" fill="#2c2d66"/>
    </clipPath>
  </defs>
  <g id="Grupo_29075" data-name="Grupo 29075" clip-path="url(#clip-path)">
    <path id="Caminho_21801" data-name="Caminho 21801" d="M47.583,0H2.416A2.422,2.422,0,0,0,0,2.423V35.384a2.422,2.422,0,0,0,2.416,2.423H19.682v4.964H13.928a.4.4,0,0,0-.4.4v2.467a.4.4,0,0,0,.4.4H36.072a.4.4,0,0,0,.4-.4V43.168a.4.4,0,0,0-.4-.4H30.318V37.806H47.584A2.422,2.422,0,0,0,50,35.384V2.423A2.422,2.422,0,0,0,47.584,0ZM29.524,42.771H20.476V37.807h9.048ZM49.207,32.078H.794V2.423A1.628,1.628,0,0,1,2.417.794H47.584a1.628,1.628,0,0,1,1.623,1.629Z" fill="#2c2d66"/>
    <path id="Caminho_21802" data-name="Caminho 21802" d="M292.276,122.674a1.174,1.174,0,1,0,1.171,1.174,1.174,1.174,0,0,0-1.171-1.174" transform="translate(-267.176 -112.59)" fill="#2c2d66"/>
    <path id="Caminho_21803" data-name="Caminho 21803" d="M331.077,122.674a1.174,1.174,0,1,0,1.172,1.174,1.174,1.174,0,0,0-1.172-1.174" transform="translate(-302.788 -112.59)" fill="#2c2d66"/>
    <path id="Caminho_21804" data-name="Caminho 21804" d="M377.975,132.124H370.2a.4.4,0,0,0,0,.794h7.776a.4.4,0,0,0,0-.794" transform="translate(-339.405 -121.264)" fill="#2c2d66"/>
    <path id="Caminho_21805" data-name="Caminho 21805" d="M292.276,185.674a1.174,1.174,0,1,0,1.171,1.174,1.174,1.174,0,0,0-1.171-1.174" transform="translate(-267.176 -170.412)" fill="#2c2d66"/>
    <path id="Caminho_21806" data-name="Caminho 21806" d="M331.077,185.674a1.174,1.174,0,1,0,1.172,1.174,1.174,1.174,0,0,0-1.172-1.174" transform="translate(-302.788 -170.412)" fill="#2c2d66"/>
    <path id="Caminho_21807" data-name="Caminho 21807" d="M377.975,195.124H370.2a.4.4,0,0,0,0,.794h7.776a.4.4,0,0,0,0-.794" transform="translate(-339.405 -179.085)" fill="#2c2d66"/>
    <path id="Caminho_21808" data-name="Caminho 21808" d="M292.276,248.674a1.174,1.174,0,1,0,1.171,1.174,1.174,1.174,0,0,0-1.171-1.174" transform="translate(-267.176 -228.233)" fill="#2c2d66"/>
    <path id="Caminho_21809" data-name="Caminho 21809" d="M331.077,248.674a1.174,1.174,0,1,0,1.172,1.174,1.174,1.174,0,0,0-1.172-1.174" transform="translate(-302.788 -228.233)" fill="#2c2d66"/>
    <path id="Caminho_21810" data-name="Caminho 21810" d="M377.975,258.124H370.2a.4.4,0,0,0,0,.794h7.776a.4.4,0,0,0,0-.794" transform="translate(-339.405 -236.906)" fill="#2c2d66"/>
    <path id="Caminho_21811" data-name="Caminho 21811" d="M145.045,100.624H130.152a1.73,1.73,0,0,0-1.728,1.728v.343h-7.837l-.427-1.282a.4.4,0,0,0-.377-.271H116.17a.4.4,0,0,0-.4.4v12.946a.4.4,0,0,0,.4.4h12.253v.344a1.73,1.73,0,0,0,1.728,1.728h14.894a1.73,1.73,0,0,0,1.728-1.728v-2.517a1.725,1.725,0,0,0-.628-1.331,1.726,1.726,0,0,0,.628-1.331v-2.516a1.725,1.725,0,0,0-.628-1.331,1.726,1.726,0,0,0,.628-1.331v-2.516a1.73,1.73,0,0,0-1.728-1.729Zm.935,14.6a.936.936,0,0,1-.934.934H130.151a.935.935,0,0,1-.934-.934v-2.517a.935.935,0,0,1,.934-.934h14.894a.935.935,0,0,1,.934.934Zm0-5.18a.935.935,0,0,1-.934.934H130.151a.935.935,0,0,1-.934-.934v-2.516a.936.936,0,0,1,.934-.934h14.894a.935.935,0,0,1,.934.934Zm0-5.179a.935.935,0,0,1-.934.934H130.151a.935.935,0,0,1-.934-.934v-2.516a.936.936,0,0,1,.934-.934h14.894a.936.936,0,0,1,.934.934Z" transform="translate(-106.257 -92.353)" fill="#2c2d66"/>
    <path id="Caminho_21812" data-name="Caminho 21812" d="M194.519,30.706a.4.4,0,0,0,.522-.206,7.758,7.758,0,0,1,13.769-.923l-1.593-.639a.4.4,0,1,0-.3.737l2.581,1.036a.4.4,0,0,0,.148.029.4.4,0,0,0,.4-.361l.259-2.848a.4.4,0,0,0-.791-.072l-.139,1.526a8.552,8.552,0,0,0-15.063,1.2.4.4,0,0,0,.206.522Z" transform="translate(-178.31 -22.969)" fill="#2c2d66"/>
    <path id="Caminho_21813" data-name="Caminho 21813" d="M210.083,305.414a.4.4,0,0,0-.522.206,7.758,7.758,0,0,1-13.769.923l1.592.639a.4.4,0,1,0,.3-.737l-2.582-1.036a.4.4,0,0,0-.543.332l-.258,2.848a.4.4,0,0,0,.359.431l.036,0a.4.4,0,0,0,.395-.361l.138-1.527a8.551,8.551,0,0,0,15.063-1.2.4.4,0,0,0-.206-.521Z" transform="translate(-178.325 -280.278)" fill="#2c2d66"/>
  </g>
</svg>
