<?xml version="1.0" encoding="utf-8"?>
<!-- Generator: Adobe Illustrator 25.3.1, SVG Export Plug-In . SVG Version: 6.00 Build 0)  -->
<svg version="1.1" id="Camada_1" xmlns="http://www.w3.org/2000/svg" xmlns:xlink="http://www.w3.org/1999/xlink" x="0px" y="0px"
	 viewBox="0 0 221 265" style="enable-background:new 0 0 221 265;" xml:space="preserve">
<style type="text/css">
	.st0{fill:#C9C9C9;stroke:#C9C9C9;stroke-width:3.7949;}
</style>
<g id="Grupo_2305" transform="translate(-54.85 -120.819)">
	<path id="Caminho_1243" class="st0" d="M163.7,248.5c35.2,0,63.8-28.6,63.8-63.8c0-35.2-28.6-63.8-63.8-63.8
		c-35.2,0-63.8,28.6-63.8,63.8c0,16.9,6.7,33.2,18.7,45.1C130.4,241.9,146.7,248.7,163.7,248.5z M129.5,150.5
		c18.9-18.8,49.4-18.8,68.2,0c18.8,18.9,18.8,49.4,0,68.2c-18.9,18.8-49.4,18.8-68.2,0c-9-9-14.1-21.3-14.1-34.1
		C115.1,171.8,120.2,159.4,129.5,150.5z"/>
	<path id="Caminho_1244" class="st0" d="M275.3,324.6c-0.4-5.6-1.1-11.2-2.2-16.7c-1-5.7-2.4-11.3-4.1-16.8
		c-1.8-5.5-4.1-10.7-6.9-15.7c-2.8-5-6.3-9.6-10.4-13.6c-4.3-4.1-9.4-7.3-15-9.4c-6.1-2.4-12.6-3.5-19.1-3.5
		c-3.8,0.4-7.4,1.9-10.4,4.4c-3.1,2-6.7,4.4-10.8,7c-4.4,2.6-9.1,4.7-14,6.2c-11.1,3.7-23.1,3.7-34.2,0c-4.9-1.5-9.5-3.5-13.9-6.2
		c-4-2.5-7.7-4.9-10.8-7c-2.9-2.5-6.6-4-10.4-4.4c-6.5-0.1-13,1.1-19.1,3.5c-5.6,2.1-10.7,5.3-15,9.4c-4.1,4-7.6,8.6-10.4,13.6
		c-2.8,5-5.2,10.2-6.9,15.7c-1.7,5.5-3.1,11.1-4.1,16.8c-1,5.5-1.7,11.1-2.2,16.7c-0.4,5.1-0.5,10.3-0.5,15.6
		c-0.6,12.4,4.2,24.5,13.1,33.3c9.2,8.4,21.3,12.8,33.7,12.3h127.5c12.4,0.5,24.5-3.9,33.7-12.3c8.9-8.7,13.6-20.8,13.1-33.3
		C275.9,334.9,275.7,329.6,275.3,324.6L275.3,324.6z M252.1,362.2c-6.3,5.6-14.5,8.5-23,8H101.5c-8.4,0.5-16.7-2.4-23-8
		c-5.8-5.8-8.8-13.8-8.2-22c0-5,0.2-9.9,0.5-14.6c0.4-5.1,1-10.1,1.9-15.1c0.9-5,2.1-10,3.6-14.8c1.4-4.4,3.3-8.7,5.6-12.8
		c2.1-3.7,4.6-7.1,7.7-10c2.9-2.7,6.3-4.8,10-6.2c3.9-1.5,8-2.3,12.2-2.4c0.5,0.3,1.5,0.8,3.1,1.9c3.2,2.1,6.9,4.5,10.9,7
		c5.5,3.3,11.4,6,17.5,7.8c14.2,4.7,29.5,4.7,43.7,0c6.2-1.9,12.1-4.5,17.6-7.8c4.2-2.7,7.7-5,10.9-7c1.6-1,2.5-1.6,3.1-1.9
		c4.2,0.1,8.3,0.9,12.2,2.4c3.7,1.4,7.1,3.5,10,6.2c3,3,5.6,6.3,7.7,10c2.3,4,4.2,8.3,5.6,12.8c1.5,4.9,2.7,9.8,3.6,14.8
		c0.9,5,1.6,10,1.9,15.1l0,0c0.3,4.7,0.5,9.6,0.5,14.6C260.8,348.4,257.8,356.4,252.1,362.2L252.1,362.2z"/>
</g>
</svg>
