<svg id="Grupo_14505" data-name="Grupo 14505" xmlns="http://www.w3.org/2000/svg" width="46.5" height="44.386" viewBox="0 0 46.5 44.386">
  <path id="Caminho_11804" data-name="Caminho 11804" d="M39.818,960.362a1.216,1.216,0,0,1,1.057,1.172v6.159a1.224,1.224,0,0,1-1.172,1.172h-9.3v10.8h3.187a14.4,14.4,0,0,1,14.317,13.541,5.8,5.8,0,0,1,4.59,5.664,5.755,5.755,0,0,1-11.509,0,5.818,5.818,0,0,1,4.574-5.664,12.036,12.036,0,0,0-11.972-11.212H30.406v11.823l5.713,9.115a1.224,1.224,0,0,1-.991,1.783H23.371a1.232,1.232,0,0,1-.991-1.783l5.7-9.082V981.994H25.039a12.044,12.044,0,0,0-11.955,10.965H16.6a1.209,1.209,0,0,1,1.172,1.156v9.462a1.224,1.224,0,0,1-1.172,1.172H7.156A1.209,1.209,0,0,1,6,1003.576v-9.462a1.194,1.194,0,0,1,1.156-1.156h3.6a14.381,14.381,0,0,1,14.284-13.293h3.038v-10.8h-9.3a1.209,1.209,0,0,1-1.156-1.172v-6.159a1.209,1.209,0,0,1,1.156-1.172H39.818ZM15.445,995.286H8.328v7.134h7.117Zm31.325.132a3.45,3.45,0,0,0-3.451,3.451,3.4,3.4,0,0,0,3.451,3.4,3.358,3.358,0,0,0,3.4-3.4A3.4,3.4,0,0,0,46.77,995.419Z" transform="translate(-6 -960.362)" fill="#5f47ff"/>
</svg>
