<?xml version="1.0" encoding="UTF-8"?>
<svg xmlns="http://www.w3.org/2000/svg" width="420" height="60.17" viewBox="0 0 420 60.17">
  <defs>
    <style>.a{fill:#0051ff;}.b{fill:#19e6e6;}</style>
  </defs>
  <g transform="translate(-491.458 -333.417)">
    <g transform="translate(655.495 352.181)">
      <path class="a" d="M588.255,343.25a19.11,19.11,0,0,1,6.166.971,14.614,14.614,0,0,1,4.971,2.809,12.958,12.958,0,0,1,3.3,4.473,15.178,15.178,0,0,1,0,11.8,13.414,13.414,0,0,1-3.3,4.515,15.1,15.1,0,0,1-4.971,2.918,18,18,0,0,1-6.166,1.036H577.418V343.25Zm-2.011,7.467v13.627h2.236a8.563,8.563,0,0,0,2.862-.469,6.637,6.637,0,0,0,2.3-1.345,6.383,6.383,0,0,0,1.53-2.17,7.191,7.191,0,0,0,.569-2.927,7.275,7.275,0,0,0-.569-2.986,5.849,5.849,0,0,0-1.53-2.09,6.384,6.384,0,0,0-2.3-1.229,9.708,9.708,0,0,0-2.862-.41Z" transform="translate(-577.418 -343.25)"></path>
      <path class="a" d="M608.45,343.29A14.061,14.061,0,0,1,614,344.345a12.339,12.339,0,0,1,6.866,7.053,13.981,13.981,0,0,1,.92,5.055,18.877,18.877,0,0,1-.168,2.53,14.385,14.385,0,0,1-.447,2.193h-17.86a5.015,5.015,0,0,0,2.372,2.389,8.757,8.757,0,0,0,3.878.779,12.708,12.708,0,0,0,3.8-.555,15.748,15.748,0,0,0,3.517-1.611l3.46,6.5A18.071,18.071,0,0,1,609.23,372.4a17.488,17.488,0,0,1-6.335-1.109,15.339,15.339,0,0,1-4.965-3.057,13.418,13.418,0,0,1-3.238-4.61,15.144,15.144,0,0,1,0-11.553,14.047,14.047,0,0,1,3.152-4.612,14.758,14.758,0,0,1,4.744-3.055A15.431,15.431,0,0,1,608.45,343.29Zm-.391,7.5a4.829,4.829,0,0,0-3.126,1.084,6.145,6.145,0,0,0-1.952,3.084h9.709a4.081,4.081,0,0,0-1.45-3.055A4.829,4.829,0,0,0,608.059,350.788Z" transform="translate(-562.769 -343.214)"></path>
      <path class="a" d="M626.925,372.4h-3.069L609.233,343.29h10.192l5.939,13.163,6-13.163h10.19Z" transform="translate(-548.521 -343.214)"></path>
      <path class="a" d="M645.093,343.29a11.71,11.71,0,0,1,4.437.805,9.071,9.071,0,0,1,3.349,2.305,10.613,10.613,0,0,1,2.12,3.584,13.558,13.558,0,0,1,.754,4.639v17.108h-9.6V356.011a3.978,3.978,0,0,0-1.145-3,4.021,4.021,0,0,0-2.929-1.113,3.924,3.924,0,0,0-2.9,1.113,4.028,4.028,0,0,0-1.118,3v15.721h-9.6V343.956h8.761v2.279a11.379,11.379,0,0,1,3.406-2.139A11.64,11.64,0,0,1,645.093,343.29Z" transform="translate(-531.057 -343.214)"></path>
      <path class="a" d="M656.841,371.731h-9.6V343.29h9.6Z" transform="translate(-513.997 -343.214)"></path>
      <path class="a" d="M673.558,343.29a11.69,11.69,0,0,1,4.437.805,9.057,9.057,0,0,1,3.349,2.305,10.586,10.586,0,0,1,2.124,3.584,13.651,13.651,0,0,1,.752,4.639v17.108h-9.6V356.011a3.986,3.986,0,0,0-1.145-3,4.03,4.03,0,0,0-2.933-1.113,3.919,3.919,0,0,0-2.9,1.113,4.02,4.02,0,0,0-1.118,3v15.721h-9.6V343.956h8.765v2.279a11.345,11.345,0,0,1,3.4-2.139A11.63,11.63,0,0,1,673.558,343.29Z" transform="translate(-505.202 -343.214)"></path>
      <path class="a" d="M687.608,373.342q0,5.722-3.154,8.5t-8.566,2.778a15.74,15.74,0,0,1-2.651-.2,13.639,13.639,0,0,1-1.981-.469s6.754-2.137,6.754-11.557V351.9l9.6-8.61Z" transform="translate(-492.186 -343.214)"></path>
      <path class="a" d="M711.823,343.26a16.329,16.329,0,0,1,5.748,1,12.841,12.841,0,0,1,4.744,3.111l-4.521,5.832a9.123,9.123,0,0,0-5.916-2.389q-1.955,0-1.954,1.057a.9.9,0,0,0,.473.832,12.075,12.075,0,0,0,1.426.668l2.79,1.111q1.843.779,3.347,1.555a10.748,10.748,0,0,1,2.569,1.805,7.552,7.552,0,0,1,1.647,2.332,7.329,7.329,0,0,1,.586,3.028,8.569,8.569,0,0,1-.865,3.889,8.333,8.333,0,0,1-2.429,2.916,11.017,11.017,0,0,1-3.656,1.805,16.409,16.409,0,0,1-4.6.611,17.225,17.225,0,0,1-6.895-1.359,12.372,12.372,0,0,1-5.107-3.973l4.465-5.668a13.059,13.059,0,0,0,3.685,2.555,9.586,9.586,0,0,0,4.017.889,5.3,5.3,0,0,0,1.731-.25.958.958,0,0,0,.725-.971.876.876,0,0,0-.418-.777,7.512,7.512,0,0,0-1.2-.611l-3.126-1.279a33.248,33.248,0,0,1-3.4-1.611,10.832,10.832,0,0,1-2.54-1.889,7.55,7.55,0,0,1-1.592-2.389,7.89,7.89,0,0,1-.555-3.055,8.44,8.44,0,0,1,.781-3.693,7.814,7.814,0,0,1,2.2-2.778,9.86,9.86,0,0,1,3.433-1.723A15.757,15.757,0,0,1,711.823,343.26Z" transform="translate(-466.798 -343.241)"></path>
      <path class="a" d="M696.419,343.29a16.455,16.455,0,0,1,5.191.777,10.764,10.764,0,0,1,3.99,2.305,10.383,10.383,0,0,1,2.569,3.862,14.636,14.636,0,0,1,.92,5.387v16.11h-8.763V369.51a10.781,10.781,0,0,1-3.488,2.111,12.7,12.7,0,0,1-4.547.777,11.614,11.614,0,0,1-4.16-.693,8.492,8.492,0,0,1-3.013-1.889,7.926,7.926,0,0,1-1.815-2.75,8.855,8.855,0,0,1-.614-3.276,7.154,7.154,0,0,1,2.933-6.112q2.928-2.164,8.007-2.168h5.86v-.443a3.526,3.526,0,0,0-.977-2.527,4.359,4.359,0,0,0-3.265-1.029,7.266,7.266,0,0,0-3.6.889,18.985,18.985,0,0,0-3.376,2.5l-4.465-6.057a19.853,19.853,0,0,1,5.721-4.166A16.17,16.17,0,0,1,696.419,343.29Zm-1.174,22.333a4.462,4.462,0,0,0,3.015-1.057,3.742,3.742,0,0,0,1.227-3v-.221h-4.521q-2.565,0-2.567,2.111a1.929,1.929,0,0,0,.725,1.584A3.334,3.334,0,0,0,695.246,365.623Z" transform="translate(-481.803 -343.214)"></path>
    </g>
    <path class="b" d="M627.96,350.561h-17.2V333.417h-8.438v18.258a26.921,26.921,0,0,0-16.209-5.267H516.105c-13.6,0-24.647,9.507-24.647,21.207,0,11.681,11.051,21.207,24.647,21.207h70.011c13.6,0,24.648-9.526,24.648-21.207a18.645,18.645,0,0,0-2.2-8.713H627.96Zm-41.843,30.208H516.105c-8.433,0-15.293-5.893-15.293-13.154s6.86-13.156,15.293-13.156h70.011c8.433,0,15.293,5.895,15.293,13.156S594.55,380.769,586.117,380.769Z" transform="translate(0 0)"></path>
    <path class="a" d="M511.778,348.331a5.738,5.738,0,1,0,5.767,5.738A5.751,5.751,0,0,0,511.778,348.331Z" transform="translate(13.22 13.546)"></path>
    <path class="a" d="M539.2,348.331a5.738,5.738,0,1,0,5.767,5.738A5.752,5.752,0,0,0,539.2,348.331Z" transform="translate(38.126 13.546)"></path>
  </g>
</svg>
