<svg xmlns="http://www.w3.org/2000/svg" xmlns:xlink="http://www.w3.org/1999/xlink" width="1393" height="1080" viewBox="0 0 1393 1080"><defs><style>.a{fill:#fff;}.b{clip-path:url(#a);opacity:0.04;}.c,.d,.e,.f{fill:none;stroke:#2c2d66;stroke-miterlimit:10;}.c{stroke-width:4px;}.d{stroke-width:4.67px;}.e{stroke-width:4.558px;}.f{stroke-width:4.179px;}</style><clipPath id="a"><rect class="a" width="1393" height="1080" transform="translate(527)"/></clipPath></defs><g transform="translate(-527)"><rect class="a" width="1393" height="1080" transform="translate(527)"/><g class="b"><g transform="translate(356.73 306.31)"><path class="c" d="M399.872-238.228a146.684,146.684,0,0,0-38.323-50.47q-24.46-20.724-57.733-31.689c-22.186-7.311-46.066-10.846-71.6-10.846h-101.9a14.416,14.416,0,0,0-14.417,14.416V-23.593A14.417,14.417,0,0,0,130.309-9.176H232.2a214.9,214.9,0,0,0,71.619-12.071q33.278-11.723,57.733-32.924a151.393,151.393,0,0,0,38.323-50.949q13.863-29.722,13.87-66.3Q413.742-208.48,399.872-238.228Zm-82.186,103.36a79.871,79.871,0,0,1-19.67,27.076,85.6,85.6,0,0,1-29.5,16.815,113.051,113.051,0,0,1-36.811,5.849H202.962V-255.3h28.743a128.416,128.416,0,0,1,36.811,5.117,83.347,83.347,0,0,1,29.5,15.353,73.227,73.227,0,0,1,19.67,26.092q7.293,15.845,7.313,37.311Q325-150.964,317.686-134.868Z" transform="translate(-21.065 -3.277)"/><rect class="c" width="109.144" height="321.978" rx="4.722" transform="translate(1819.375 -316.121)"/><path class="c" d="M1895.638-236.237q-11.418-29.446-31.416-50.62a141.24,141.24,0,0,0-48.213-33.127q-28.248-11.977-61.24-11.971-30.452,0-53.305,10.122a96.967,96.967,0,0,0-29.576,20.151c-.058.058-.33.273-.4.335a4.471,4.471,0,0,1-2.971,1.123,4.489,4.489,0,0,1-4.488-4.489v-16.1q0-1.833,0-3.665v-2.185a4.674,4.674,0,0,0-1.041-3.168,4.413,4.413,0,0,0-3.292-1.529h-80.262a4.334,4.334,0,0,0-4.335,4.335V67.343a4.334,4.334,0,0,0,4.335,4.335h89.643c.047,0,.09.014.139.014s.089-.012.136-.014a4.335,4.335,0,0,0,4.2-4.321s0-96.463,0-96.506a4.336,4.336,0,0,1,4.336-4.336,4.4,4.4,0,0,1,2.752,1q28.136,22.057,74.134,22.053,32.976,0,61.24-11.958a139.35,139.35,0,0,0,48.213-33.439q20.006-21.474,31.416-51.246,11.416-29.738,11.422-64.728T1895.638-236.237Zm-105.655,93.269a64,64,0,0,1-13.956,20.556,54.524,54.524,0,0,1-19.667,12.271,68.088,68.088,0,0,1-23.17,3.986,66.2,66.2,0,0,1-22.524-3.986A54.513,54.513,0,0,1,1691-122.412a63.8,63.8,0,0,1-13.958-20.556q-5.4-12.271-5.4-28.841t5.4-28.841A60.2,60.2,0,0,1,1691-220.891a53.026,53.026,0,0,1,19.667-11.659,70.9,70.9,0,0,1,22.524-3.687,71.073,71.073,0,0,1,23.48,3.986,54.241,54.241,0,0,1,19.99,12.271,60.373,60.373,0,0,1,13.647,20.556q5.071,12.29,5.08,28.228Q1795.386-155.232,1789.983-142.967Z" transform="translate(-140.383 -3.218)"/><path class="c" d="M1100.149-301.31l-56.462,118.842-12.657,26.642L962.9-301.31H847.31L1005.9,5.543c-.237-.447-.419-.926-.633-1.387.253.543.478,1.1.76,1.626l.209.395a28.589,28.589,0,0,0,25.22,14.618,28.589,28.589,0,0,0,25.956-17.229l3.01-5.353L1215.737-301.31Z" transform="translate(-80.873 -5.724)"/><path class="c" d="M1501.685-71.656a14.789,14.789,0,0,1,1.015,1.76L1367.4-362.042l0,.008a14.389,14.389,0,0,0-13.431-9.276,14.389,14.389,0,0,0-13.429,9.27L1205.432-70.33l.052.087a14.25,14.25,0,0,0-1.683,6.624A14.417,14.417,0,0,0,1218.218-49.2l.02,0h71.556l.021,0A14.4,14.4,0,0,0,1303-57.83l51.214-115.794L1405-57.747l.1.063a14.4,14.4,0,0,0,13.087,8.48h71.51l.019,0a14.417,14.417,0,0,0,14.418-14.417A14.349,14.349,0,0,0,1501.685-71.656Z" transform="translate(-110.023 0)"/><path class="c" d="M801.162-241.717a137.959,137.959,0,0,0-30.171-46.361q-19.7-19.928-47.956-31.627-28.254-11.659-63.193-11.66a180.1,180.1,0,0,0-66.687,12.269,168.2,168.2,0,0,0-53.985,33.786,155.067,155.067,0,0,0-35.884,50.983q-13.024,29.455-13.017,63.863T503.287-106.6A148.725,148.725,0,0,0,540.13-55.616q23.8,21.491,56.52,33.786A203.435,203.435,0,0,0,668.677-9.166,208.894,208.894,0,0,0,783.8-43.005a14.363,14.363,0,0,0,6.949-12.277,14.324,14.324,0,0,0-3.892-9.794,14.6,14.6,0,0,1,1.157,1.4L762.9-109.455l-.053.016a14.369,14.369,0,0,0-12.874-8.049,14.361,14.361,0,0,0-5.551,1.114c-.076.039-.154.073-.23.111a175.493,175.493,0,0,1-28.461,11.518A148.687,148.687,0,0,1,672.544-98.6q-26.048,0-44.134-8.611a56.222,56.222,0,0,1-26.992-26.419H793.384c.026,0,.05.007.075.007a14.417,14.417,0,0,0,14.417-14.417,14.431,14.431,0,0,1-.262,2.592c.8-3.89,1.509-8.02,2.111-12.416a204.2,204.2,0,0,0,1.9-27.968A150.234,150.234,0,0,0,801.162-241.717ZM597.609-202.394q6.975-22.138,22.224-34.09t35.569-11.99q20.944,0,36.2,12.3,15.231,12.308,16.511,33.785Z" transform="translate(-51.678 -3.266)"/><path class="d" d="M1476.821,49.225H1376.348c-2.394,0-4.336,2.646-4.336,5.911V482.23c0,3.264,1.942,5.91,4.336,5.91h100.473c2.394,0,4.335-2.645,4.335-5.91V55.136C1481.156,51.871,1479.214,49.225,1476.821,49.225Z" transform="translate(-123.777 -34.387)"/><path class="c" d="M1263.639,183.763q-11.418-29.446-31.417-50.62a141.239,141.239,0,0,0-48.212-33.127q-28.248-11.977-61.24-11.971-30.452,0-53.305,10.122a96.965,96.965,0,0,0-29.576,20.151c-.058.058-.33.273-.4.335a4.489,4.489,0,0,1-7.459-3.366v-16.1q0-1.833,0-3.665V93.334a4.674,4.674,0,0,0-1.041-3.168,4.414,4.414,0,0,0-3.293-1.529H947.433a4.334,4.334,0,0,0-4.335,4.335V487.343a4.334,4.334,0,0,0,4.335,4.335h89.642c.047,0,.09.014.139.014s.089-.012.136-.014a4.335,4.335,0,0,0,4.2-4.321s0-96.463,0-96.506a4.336,4.336,0,0,1,4.336-4.336,4.395,4.395,0,0,1,2.752,1q28.137,22.057,74.135,22.053,32.976,0,61.24-11.958a139.349,139.349,0,0,0,48.212-33.439q20.006-21.474,31.417-51.246,11.415-29.738,11.422-64.728T1263.639,183.763Zm-105.655,93.269a64.006,64.006,0,0,1-13.956,20.556,54.529,54.529,0,0,1-19.668,12.271,68.09,68.09,0,0,1-23.17,3.986,66.2,66.2,0,0,1-22.524-3.986A54.514,54.514,0,0,1,1059,297.588a63.8,63.8,0,0,1-13.958-20.556q-5.4-12.271-5.4-28.841t5.4-28.841A60.2,60.2,0,0,1,1059,199.109a53.026,53.026,0,0,1,19.667-11.659,70.9,70.9,0,0,1,46,.3,54.242,54.242,0,0,1,19.99,12.271,60.376,60.376,0,0,1,13.647,20.556q5.071,12.29,5.08,28.228Q1163.386,264.768,1157.983,277.033Z" transform="translate(-88.705 -37.561)"/><path class="c" d="M468.15,88.69,411.688,207.532l-12.657,26.642L330.9,88.69H215.31L373.9,395.543c-.237-.447-.419-.926-.633-1.387.253.543.477,1.1.76,1.626l.209.395a28.586,28.586,0,0,0,51.176-2.611l3.01-5.353L583.737,88.69Z" transform="translate(-29.195 -37.614)"/><path class="c" d="M859.685,388.344a14.77,14.77,0,0,1,1.015,1.76L725.4,97.958l0,.008a14.362,14.362,0,0,0-26.86-.006L563.432,389.67l.052.087a14.253,14.253,0,0,0-1.683,6.624A14.417,14.417,0,0,0,576.218,410.8l.02,0H647.8l.021,0A14.4,14.4,0,0,0,661,402.169l51.214-115.794L763,402.253l.1.063a14.4,14.4,0,0,0,13.088,8.48H847.7l.019,0a14.416,14.416,0,0,0,11.969-22.454Z" transform="translate(-57.527 -37.614)"/><path class="c" d="M169.162,178.283a137.956,137.956,0,0,0-30.171-46.361q-19.7-19.927-47.956-31.627Q62.782,88.636,27.842,88.636a180.1,180.1,0,0,0-66.687,12.269,168.2,168.2,0,0,0-53.985,33.786,155.067,155.067,0,0,0-35.884,50.983q-13.024,29.455-13.017,63.863t13.017,63.863A148.727,148.727,0,0,0-91.87,364.384q23.8,21.491,56.52,33.786a203.436,203.436,0,0,0,72.027,12.664,208.894,208.894,0,0,0,115.12-33.84,14.3,14.3,0,0,0,3.057-22.071,14.591,14.591,0,0,1,1.157,1.4L130.9,310.545l-.053.016a14.336,14.336,0,0,0-18.424-6.935c-.076.039-.154.073-.23.111a175.488,175.488,0,0,1-28.461,11.518A148.686,148.686,0,0,1,40.544,321.4q-26.048,0-44.134-8.611a56.221,56.221,0,0,1-26.992-26.419H161.385c.026,0,.05.007.075.007a14.417,14.417,0,0,0,14.417-14.417,14.441,14.441,0,0,1-.262,2.592c.8-3.89,1.509-8.02,2.111-12.416a204.193,204.193,0,0,0,1.9-27.968A150.232,150.232,0,0,0,169.162,178.283ZM-34.391,217.606q6.975-22.138,22.224-34.09t35.57-11.99q20.944,0,36.2,12.3,15.231,12.308,16.511,33.785Z" transform="translate(0 -37.609)"/><path class="c" d="M1858.872,263.772a146.687,146.687,0,0,0-38.323-50.47q-24.46-20.724-57.733-31.689c-22.186-7.311-46.066-10.846-71.6-10.846h-101.9a14.416,14.416,0,0,0-14.417,14.416V478.407a14.417,14.417,0,0,0,14.417,14.417H1691.2a214.9,214.9,0,0,0,71.619-12.071q33.278-11.723,57.733-32.924a151.394,151.394,0,0,0,38.323-50.949q13.863-29.722,13.87-66.3Q1872.742,293.52,1858.872,263.772Zm-82.186,103.36a79.869,79.869,0,0,1-19.67,27.076,85.6,85.6,0,0,1-29.5,16.815,113.051,113.051,0,0,1-36.811,5.849h-28.743V246.7h28.743a128.416,128.416,0,0,1,36.811,5.117,83.345,83.345,0,0,1,29.5,15.353,73.225,73.225,0,0,1,19.67,26.092q7.293,15.845,7.313,37.31Q1784,351.035,1776.686,367.132Z" transform="translate(-140.366 -44.325)"/><path class="c" d="M2260.162,160.283a137.948,137.948,0,0,0-30.171-46.361q-19.7-19.927-47.956-31.627-28.252-11.659-63.192-11.66a180.1,180.1,0,0,0-66.687,12.269,168.2,168.2,0,0,0-53.984,33.786,155.063,155.063,0,0,0-35.884,50.983q-13.024,29.455-13.017,63.863t13.017,63.863a148.721,148.721,0,0,0,36.843,50.983q23.8,21.491,56.52,33.786a203.435,203.435,0,0,0,72.027,12.664,208.9,208.9,0,0,0,115.121-33.84,14.3,14.3,0,0,0,3.057-22.071,14.552,14.552,0,0,1,1.157,1.4l-25.11-45.781-.053.016a14.336,14.336,0,0,0-18.424-6.935c-.076.039-.154.073-.23.111a175.49,175.49,0,0,1-28.461,11.518,148.685,148.685,0,0,1-43.187,6.148q-26.048,0-44.134-8.611a56.223,56.223,0,0,1-26.992-26.419h191.966c.026,0,.05.007.075.007a14.417,14.417,0,0,0,14.417-14.417,14.442,14.442,0,0,1-.262,2.592c.8-3.89,1.509-8.02,2.111-12.416a204.217,204.217,0,0,0,1.9-27.968A150.222,150.222,0,0,0,2260.162,160.283Zm-203.552,39.323q6.975-22.138,22.224-34.09t35.569-11.99q20.944,0,36.2,12.3,15.231,12.308,16.511,33.785Z" transform="translate(-170.979 -36.137)"/><path class="c" d="M340.872,601.772a146.683,146.683,0,0,0-38.323-50.47q-24.46-20.724-57.733-31.689c-22.186-7.311-46.066-10.846-71.6-10.846H71.309a14.416,14.416,0,0,0-14.417,14.416V816.407a14.417,14.417,0,0,0,14.417,14.417H173.2a214.9,214.9,0,0,0,71.619-12.071q33.278-11.723,57.733-32.924a151.391,151.391,0,0,0,38.323-50.949q13.863-29.722,13.87-66.3Q354.742,631.52,340.872,601.772Zm-82.186,103.36a79.87,79.87,0,0,1-19.67,27.076,85.594,85.594,0,0,1-29.5,16.815,113.047,113.047,0,0,1-36.811,5.849H143.962V584.7h28.743a128.417,128.417,0,0,1,36.811,5.117,83.346,83.346,0,0,1,29.5,15.353,73.226,73.226,0,0,1,19.67,26.092q7.293,15.845,7.313,37.31Q266,689.036,258.686,705.132Z" transform="translate(-16.241 -71.963)"/><path class="e" d="M2108.821,484.225H2008.348c-2.394,0-4.336,2.521-4.336,5.629V896.592c0,3.109,1.942,5.629,4.336,5.629h100.473c2.394,0,4.335-2.52,4.335-5.629V489.854C2113.156,486.746,2111.214,484.225,2108.821,484.225Z" transform="translate(-175.455 -69.956)"/><path class="c" d="M1895.638,683.763q-11.418-29.446-31.416-50.62a141.24,141.24,0,0,0-48.213-33.127q-28.248-11.977-61.24-11.971-30.452,0-53.305,10.122a96.967,96.967,0,0,0-29.576,20.151c-.058.058-.33.273-.4.335a4.489,4.489,0,0,1-7.459-3.366v-16.1q0-1.833,0-3.665v-2.185a4.675,4.675,0,0,0-1.041-3.168,4.413,4.413,0,0,0-3.292-1.529h-80.262a4.334,4.334,0,0,0-4.335,4.335V987.343a4.334,4.334,0,0,0,4.335,4.335h89.643c.047,0,.09.014.139.014s.089-.012.136-.014a4.335,4.335,0,0,0,4.2-4.321s0-96.463,0-96.506a4.335,4.335,0,0,1,4.336-4.336,4.4,4.4,0,0,1,2.752,1q28.136,22.057,74.134,22.053,32.976,0,61.24-11.958a139.351,139.351,0,0,0,48.213-33.439q20.006-21.474,31.416-51.246,11.416-29.738,11.422-64.728T1895.638,683.763Zm-105.655,93.269a64,64,0,0,1-13.956,20.556,54.524,54.524,0,0,1-19.667,12.271,68.088,68.088,0,0,1-23.17,3.986,66.2,66.2,0,0,1-22.524-3.986A54.513,54.513,0,0,1,1691,797.588a63.8,63.8,0,0,1-13.958-20.556q-5.4-12.271-5.4-28.841t5.4-28.841A60.2,60.2,0,0,1,1691,699.109a53.026,53.026,0,0,1,19.667-11.659,70.9,70.9,0,0,1,46,.3,54.24,54.24,0,0,1,19.99,12.271,60.373,60.373,0,0,1,13.647,20.555q5.071,12.29,5.08,28.228Q1795.386,764.768,1789.983,777.032Z" transform="translate(-140.383 -78.445)"/><path class="c" d="M1100.149,588.69l-56.462,118.842-12.657,26.642L962.9,588.69H847.31L1005.9,895.543c-.237-.447-.419-.926-.633-1.387.253.543.478,1.1.76,1.626l.209.395a28.586,28.586,0,0,0,51.176-2.611l3.01-5.353L1215.737,588.69Z" transform="translate(-80.873 -78.498)"/><path class="c" d="M1491.685,888.344a14.77,14.77,0,0,1,1.014,1.76L1357.4,597.958l0,.008a14.362,14.362,0,0,0-26.86-.006L1195.432,889.67l.052.087a14.251,14.251,0,0,0-1.683,6.624,14.417,14.417,0,0,0,14.417,14.417l.02,0h71.557l.021,0A14.4,14.4,0,0,0,1293,902.169l-.019.095,51.234-115.888L1395,902.253l.1.063a14.4,14.4,0,0,0,13.088,8.48h71.51l.019,0a14.416,14.416,0,0,0,11.969-22.454Z" transform="translate(-109.205 -78.498)"/><path class="f" d="M766.044,604.451a144.1,144.1,0,0,0-31.518-48.43q-20.582-20.819-50.1-33.039-29.515-12.18-66.014-12.18a188.128,188.128,0,0,0-69.663,12.818,175.722,175.722,0,0,0-56.4,35.294,161.981,161.981,0,0,0-37.487,53.26q-13.605,30.77-13.6,66.714t13.6,66.715a155.369,155.369,0,0,0,38.488,53.259q24.864,22.451,59.045,35.295a212.51,212.51,0,0,0,75.243,13.23A218.217,218.217,0,0,0,747.9,812.036,14.938,14.938,0,0,0,751.1,788.98a15.4,15.4,0,0,1,1.208,1.465L726.074,742.62l-.055.017a14.974,14.974,0,0,0-19.247-7.245c-.08.04-.161.075-.24.116A183.468,183.468,0,0,1,676.8,747.54a155.355,155.355,0,0,1-45.115,6.421q-27.211,0-46.105-9a58.733,58.733,0,0,1-28.2-27.6H757.919c.026,0,.051.007.079.007a15.061,15.061,0,0,0,15.06-15.061,15.035,15.035,0,0,1-.273,2.708c.836-4.063,1.576-8.378,2.206-12.971a213.28,213.28,0,0,0,1.989-29.217A156.943,156.943,0,0,0,766.044,604.451ZM553.4,645.531q7.286-23.127,23.218-35.613t37.157-12.526q21.879,0,37.816,12.843,15.911,12.858,17.248,35.295Z" transform="translate(-47.671 -72.129)"/></g></g></g></svg>