<svg xmlns="http://www.w3.org/2000/svg" xmlns:xlink="http://www.w3.org/1999/xlink" width="1920" height="350" viewBox="0 0 1920 350"><defs><style>.a{fill:#5f47ff;}.b{opacity:0.3;clip-path:url(#a);}.c,.e,.g,.i{fill:none;}.c{stroke:#2c2d66;stroke-miterlimit:10;}.d{clip-path:url(#b);}.e{stroke:#fff;stroke-width:4px;}.f,.j{fill:#fff;}.h,.j{stroke:none;}</style><clipPath id="a"><rect class="a" width="1920" height="350" transform="translate(18055 -7096)"/></clipPath><clipPath id="b"><rect width="1920" height="350" transform="translate(0 150)"/></clipPath></defs><g transform="translate(0 -150)"><g transform="translate(-18055 7246)"><rect class="a" width="1920" height="350" transform="translate(18055 -7096)"/><g class="b"><g transform="translate(17960 -12123)"><g transform="translate(-149.023 4659)"><g transform="translate(0)"><path class="c" d="M82.014-199.273a70.25,70.25,0,0,0-18.353-24.17,81.889,81.889,0,0,0-27.648-15.175,108.937,108.937,0,0,0-34.29-5.195h-48.8a6.9,6.9,0,0,0-6.9,6.9V-96.485a6.9,6.9,0,0,0,6.9,6.9H1.715a102.9,102.9,0,0,0,34.3-5.781,84.556,84.556,0,0,0,27.648-15.767,72.5,72.5,0,0,0,18.353-24.4,74.227,74.227,0,0,0,6.642-31.752A74.86,74.86,0,0,0,82.014-199.273Zm-39.359,49.5a38.238,38.238,0,0,1-9.42,12.966,41,41,0,0,1-14.127,8.053,54.144,54.144,0,0,1-17.629,2.8H-12.286v-81.492H1.479A61.5,61.5,0,0,1,19.108-205a39.9,39.9,0,0,1,14.127,7.352,35.056,35.056,0,0,1,9.42,12.5,42.407,42.407,0,0,1,3.5,17.868A41.945,41.945,0,0,1,42.655-149.774Z" transform="translate(167.27 261.436)"/><rect class="c" width="52.269" height="154.195" rx="4.722" transform="translate(939.17 26.43)"/><path class="c" d="M1558.729-198.695a73.589,73.589,0,0,0-15.045-24.242,67.645,67.645,0,0,0-23.089-15.864,74.365,74.365,0,0,0-29.328-5.733q-14.584,0-25.528,4.847a46.434,46.434,0,0,0-14.164,9.65c-.028.028-.157.131-.191.16a2.143,2.143,0,0,1-1.423.538,2.15,2.15,0,0,1-2.15-2.15V-239.2q0-.877,0-1.755V-242a2.243,2.243,0,0,0-.5-1.518,2.114,2.114,0,0,0-1.577-.732H1407.3a2.076,2.076,0,0,0-2.076,2.076V-53.311a2.076,2.076,0,0,0,2.076,2.076h42.93c.022,0,.043.007.066.007s.043-.006.065-.007a2.076,2.076,0,0,0,2.012-2.07s0-46.2,0-46.217a2.077,2.077,0,0,1,2.077-2.076,2.109,2.109,0,0,1,1.318.476q13.475,10.564,35.5,10.561a74.472,74.472,0,0,0,29.328-5.727,66.733,66.733,0,0,0,23.089-16.014,74.855,74.855,0,0,0,15.045-24.542,85.806,85.806,0,0,0,5.47-31A84.693,84.693,0,0,0,1558.729-198.695Zm-50.6,44.667a30.643,30.643,0,0,1-6.683,9.844,26.11,26.11,0,0,1-9.419,5.876,32.609,32.609,0,0,1-11.1,1.909,31.7,31.7,0,0,1-10.787-1.909,26.11,26.11,0,0,1-9.419-5.876,30.558,30.558,0,0,1-6.684-9.844,34.1,34.1,0,0,1-2.587-13.812,34.116,34.116,0,0,1,2.587-13.812,28.836,28.836,0,0,1,6.684-9.695,25.405,25.405,0,0,1,9.419-5.583,33.961,33.961,0,0,1,10.787-1.765,34.034,34.034,0,0,1,11.244,1.909,25.988,25.988,0,0,1,9.574,5.876,28.921,28.921,0,0,1,6.535,9.844,35.2,35.2,0,0,1,2.433,13.518A33.282,33.282,0,0,1,1508.13-154.028Z" transform="translate(-650.266 261.84)"/><path class="c" d="M798.518-213.89l-27.039,56.914-6.061,12.758L732.789-213.89H677.434L753.383-66.938c-.113-.214-.2-.444-.3-.664.12.26.228.528.364.779l.1.189a13.689,13.689,0,0,0,12.077,7,13.691,13.691,0,0,0,12.431-8.25l1.441-2.564,74.38-143.442Z" transform="translate(-242.515 244.672)"/><path class="c" d="M1176.582-140.386a6.955,6.955,0,0,1,.485.843l-64.792-139.908v0a6.891,6.891,0,0,0-6.432-4.443,6.892,6.892,0,0,0-6.431,4.44l-64.707,139.7.025.041a6.828,6.828,0,0,0-.806,3.173,6.9,6.9,0,0,0,6.9,6.9h34.288a6.9,6.9,0,0,0,6.316-4.132l24.526-55.453,24.321,55.493.047.03a6.894,6.894,0,0,0,6.268,4.061h34.255a6.9,6.9,0,0,0,6.9-6.9A6.871,6.871,0,0,0,1176.582-140.386Z" transform="translate(-442.242 283.89)"/><path class="c" d="M469.28-201.011a66.057,66.057,0,0,0-14.449-22.2,68.72,68.72,0,0,0-22.966-15.146,78.657,78.657,0,0,0-30.262-5.584,86.247,86.247,0,0,0-31.936,5.876,80.553,80.553,0,0,0-25.854,16.18,74.27,74.27,0,0,0-17.185,24.416,74.776,74.776,0,0,0-6.233,30.584,74.776,74.776,0,0,0,6.233,30.583,71.233,71.233,0,0,0,17.644,24.416,84.015,84.015,0,0,0,27.068,16.18,97.425,97.425,0,0,0,34.494,6.065,100.039,100.039,0,0,0,55.131-16.206,6.878,6.878,0,0,0,3.328-5.879,6.858,6.858,0,0,0-1.864-4.69,7,7,0,0,1,.554.671l-12.026-21.925-.026.007a6.882,6.882,0,0,0-6.165-3.855,6.873,6.873,0,0,0-2.658.534c-.037.018-.074.034-.111.053a84.037,84.037,0,0,1-13.63,5.516,71.208,71.208,0,0,1-20.683,2.944q-12.474,0-21.136-4.124a26.926,26.926,0,0,1-12.927-12.652h91.933c.012,0,.023,0,.036,0a6.9,6.9,0,0,0,6.9-6.9,6.907,6.907,0,0,1-.125,1.241c.383-1.862.722-3.84,1.011-5.946a97.8,97.8,0,0,0,.912-13.394A71.936,71.936,0,0,0,469.28-201.011ZM371.8-182.179q3.34-10.6,10.643-16.326a26.8,26.8,0,0,1,17.034-5.742,26.818,26.818,0,0,1,17.336,5.888q7.294,5.894,7.907,16.18Z" transform="translate(-42.48 261.509)"/><path class="c" d="M1252.329,136.646h-48.116c-1.147,0-2.077,1.267-2.077,2.831V344.011c0,1.563.93,2.83,2.077,2.83h48.116c1.146,0,2.076-1.267,2.076-2.83V139.477C1254.406,137.913,1253.476,136.646,1252.329,136.646Z" transform="translate(-536.485 48.28)"/><path class="c" d="M926.728,221.305a73.584,73.584,0,0,0-15.045-24.242A67.646,67.646,0,0,0,888.595,181.2a74.366,74.366,0,0,0-29.328-5.733q-14.584,0-25.528,4.847a46.435,46.435,0,0,0-14.164,9.65c-.028.028-.157.131-.191.161a2.15,2.15,0,0,1-3.572-1.612V180.8q0-.877,0-1.755V178a2.242,2.242,0,0,0-.5-1.518,2.113,2.113,0,0,0-1.577-.732H775.3a2.076,2.076,0,0,0-2.076,2.076V366.689a2.076,2.076,0,0,0,2.076,2.077h42.93c.022,0,.043.007.066.007s.043-.006.066-.007a2.076,2.076,0,0,0,2.012-2.07s0-46.2,0-46.217a2.077,2.077,0,0,1,2.076-2.076,2.109,2.109,0,0,1,1.318.476q13.475,10.564,35.5,10.561a74.472,74.472,0,0,0,29.328-5.727A66.734,66.734,0,0,0,911.684,307.7a74.851,74.851,0,0,0,15.045-24.542,85.806,85.806,0,0,0,5.47-31A84.693,84.693,0,0,0,926.728,221.305Zm-50.6,44.667a30.641,30.641,0,0,1-6.683,9.844,26.112,26.112,0,0,1-9.419,5.876,32.608,32.608,0,0,1-11.1,1.909,31.7,31.7,0,0,1-10.787-1.909,26.111,26.111,0,0,1-9.419-5.876,30.556,30.556,0,0,1-6.684-9.844,38.165,38.165,0,0,1,0-27.624,28.833,28.833,0,0,1,6.684-9.694,25.405,25.405,0,0,1,9.419-5.583,33.958,33.958,0,0,1,22.031.144,25.983,25.983,0,0,1,9.573,5.876,28.92,28.92,0,0,1,6.536,9.844,35.2,35.2,0,0,1,2.433,13.518A33.28,33.28,0,0,1,876.13,265.972Z" transform="translate(-296.181 26.531)"/><path class="c" d="M166.518,176.11l-27.039,56.914-6.061,12.758L100.789,176.11H45.434l75.949,146.952c-.113-.214-.2-.444-.3-.664.12.26.228.528.364.779l.1.189a13.69,13.69,0,0,0,24.508-1.25l1.441-2.564,74.38-143.442Z" transform="translate(111.57 26.17)"/><path class="c" d="M534.582,319.614a6.938,6.938,0,0,1,.485.843L470.275,180.549v0a6.878,6.878,0,0,0-12.863,0l-64.707,139.7.025.041a6.828,6.828,0,0,0-.806,3.173,6.9,6.9,0,0,0,6.9,6.9h34.288a6.9,6.9,0,0,0,6.316-4.132l24.526-55.453,24.321,55.493.047.03a6.894,6.894,0,0,0,6.268,4.061H528.85a6.9,6.9,0,0,0,5.732-10.753Z" transform="translate(-82.555 26.17)"/><path class="c" d="M-162.72,218.989a66.057,66.057,0,0,0-14.449-22.2,68.72,68.72,0,0,0-22.966-15.146,78.657,78.657,0,0,0-30.262-5.584,86.246,86.246,0,0,0-31.936,5.876,80.553,80.553,0,0,0-25.854,16.18,74.27,74.27,0,0,0-17.185,24.416,74.777,74.777,0,0,0-6.233,30.584,74.777,74.777,0,0,0,6.233,30.583,71.233,71.233,0,0,0,17.644,24.416,84.017,84.017,0,0,0,27.068,16.18,97.426,97.426,0,0,0,34.494,6.065,100.039,100.039,0,0,0,55.131-16.206,6.878,6.878,0,0,0,3.327-5.879,6.858,6.858,0,0,0-1.864-4.69,6.99,6.99,0,0,1,.554.671l-12.026-21.925-.026.007a6.882,6.882,0,0,0-6.165-3.855,6.873,6.873,0,0,0-2.658.534c-.037.018-.074.034-.111.053a84.035,84.035,0,0,1-13.63,5.516,71.208,71.208,0,0,1-20.683,2.944q-12.474,0-21.136-4.124a26.926,26.926,0,0,1-12.927-12.652h91.933c.012,0,.023,0,.036,0a6.9,6.9,0,0,0,6.9-6.9,6.909,6.909,0,0,1-.125,1.241c.383-1.862.722-3.84,1.011-5.946a97.789,97.789,0,0,0,.912-13.394A71.935,71.935,0,0,0-162.72,218.989ZM-260.2,237.821q3.34-10.6,10.643-16.326a26.8,26.8,0,0,1,17.034-5.742,26.818,26.818,0,0,1,17.336,5.888q7.294,5.894,7.907,16.18Z" transform="translate(311.605 26.2)"/><path class="c" d="M1541.014,302.727a70.248,70.248,0,0,0-18.354-24.17,81.885,81.885,0,0,0-27.648-15.175,108.937,108.937,0,0,0-34.29-5.195h-48.8a6.9,6.9,0,0,0-6.9,6.9V405.515a6.9,6.9,0,0,0,6.9,6.9h48.794a102.9,102.9,0,0,0,34.3-5.781,84.553,84.553,0,0,0,27.648-15.767,72.5,72.5,0,0,0,18.354-24.4,79.793,79.793,0,0,0,0-63.745Zm-39.359,49.5a38.238,38.238,0,0,1-9.42,12.966,41,41,0,0,1-14.127,8.053,54.143,54.143,0,0,1-17.629,2.8h-13.765V294.554h13.765A61.5,61.5,0,0,1,1478.108,297a39.907,39.907,0,0,1,14.127,7.352,35.055,35.055,0,0,1,9.42,12.5,42.407,42.407,0,0,1,3.5,17.868A41.945,41.945,0,0,1,1501.655,352.226Z" transform="translate(-650.15 -19.814)"/><path class="c" d="M1928.28,200.989a66.056,66.056,0,0,0-14.448-22.2,68.721,68.721,0,0,0-22.966-15.146,78.658,78.658,0,0,0-30.262-5.584,86.249,86.249,0,0,0-31.936,5.876,80.559,80.559,0,0,0-25.854,16.18,76.9,76.9,0,0,0-17.185,85.583,71.236,71.236,0,0,0,17.644,24.416,84.016,84.016,0,0,0,27.068,16.18,97.424,97.424,0,0,0,34.493,6.065,100.038,100.038,0,0,0,55.131-16.206,6.847,6.847,0,0,0,1.464-10.569,7,7,0,0,1,.554.671l-12.026-21.925-.025.007a6.864,6.864,0,0,0-8.823-3.321c-.037.018-.074.034-.111.053a84.03,84.03,0,0,1-13.63,5.516,71.207,71.207,0,0,1-20.683,2.944q-12.474,0-21.136-4.124a26.927,26.927,0,0,1-12.927-12.652h91.933c.012,0,.023,0,.036,0a6.9,6.9,0,0,0,6.9-6.9,6.9,6.9,0,0,1-.125,1.241c.383-1.862.722-3.84,1.011-5.946a97.76,97.76,0,0,0,.912-13.394A71.934,71.934,0,0,0,1928.28,200.989ZM1830.8,219.821q3.34-10.6,10.643-16.326a28.3,28.3,0,0,1,34.37.146q7.294,5.894,7.907,16.18Z" transform="translate(-859.9 36.285)"/><path class="c" d="M23.014,640.727a70.25,70.25,0,0,0-18.353-24.17,81.886,81.886,0,0,0-27.648-15.175,108.938,108.938,0,0,0-34.29-5.195h-48.8a6.9,6.9,0,0,0-6.9,6.9V743.515a6.9,6.9,0,0,0,6.9,6.9h48.794a102.9,102.9,0,0,0,34.3-5.781A84.557,84.557,0,0,0,4.661,728.872a72.5,72.5,0,0,0,18.353-24.4,74.227,74.227,0,0,0,6.642-31.752A74.86,74.86,0,0,0,23.014,640.727Zm-39.359,49.5a38.239,38.239,0,0,1-9.42,12.966,41,41,0,0,1-14.127,8.053,54.144,54.144,0,0,1-17.629,2.8H-71.286V632.554h13.765A61.5,61.5,0,0,1-39.892,635a39.905,39.905,0,0,1,14.127,7.353,35.054,35.054,0,0,1,9.42,12.5,42.407,42.407,0,0,1,3.5,17.868A41.945,41.945,0,0,1-16.345,690.226Z" transform="translate(200.325 -209.182)"/><path class="c" d="M1884.329,571.646h-48.116c-1.147,0-2.076,1.207-2.076,2.7V769.128c0,1.489.929,2.7,2.076,2.7h48.116c1.146,0,2.076-1.207,2.076-2.7V574.342C1886.406,572.853,1885.476,571.646,1884.329,571.646Z" transform="translate(-890.57 -195.433)"/><path class="c" d="M1558.729,721.305a73.589,73.589,0,0,0-15.045-24.242,67.645,67.645,0,0,0-23.089-15.864,74.367,74.367,0,0,0-29.328-5.733q-14.584,0-25.528,4.847a46.433,46.433,0,0,0-14.164,9.65c-.028.028-.157.131-.191.16a2.15,2.15,0,0,1-3.572-1.612V680.8q0-.877,0-1.755V678a2.243,2.243,0,0,0-.5-1.518,2.114,2.114,0,0,0-1.577-.732H1407.3a2.076,2.076,0,0,0-2.076,2.076V866.689a2.076,2.076,0,0,0,2.076,2.076h42.93c.022,0,.043.007.066.007s.043-.006.065-.007a2.076,2.076,0,0,0,2.012-2.07s0-46.2,0-46.217a2.077,2.077,0,0,1,2.077-2.076,2.109,2.109,0,0,1,1.318.476q13.475,10.564,35.5,10.561a74.472,74.472,0,0,0,29.328-5.727,66.732,66.732,0,0,0,23.089-16.013,74.855,74.855,0,0,0,15.045-24.542,85.807,85.807,0,0,0,5.47-31A84.693,84.693,0,0,0,1558.729,721.305Zm-50.6,44.667a30.644,30.644,0,0,1-6.683,9.844,26.11,26.11,0,0,1-9.419,5.876,32.608,32.608,0,0,1-11.1,1.909,31.7,31.7,0,0,1-10.787-1.909,26.11,26.11,0,0,1-9.419-5.876,30.558,30.558,0,0,1-6.684-9.844,38.166,38.166,0,0,1,0-27.624,28.835,28.835,0,0,1,6.684-9.695,25.4,25.4,0,0,1,9.419-5.583,33.959,33.959,0,0,1,22.031.144,25.987,25.987,0,0,1,9.574,5.876,28.922,28.922,0,0,1,6.535,9.844,35.2,35.2,0,0,1,2.433,13.518A33.282,33.282,0,0,1,1508.13,765.972Z" transform="translate(-650.266 -253.599)"/><path class="c" d="M798.518,676.11l-27.039,56.914-6.061,12.758L732.789,676.11H677.434l75.949,146.952c-.113-.214-.2-.444-.3-.664.12.26.228.528.364.779l.1.189a13.69,13.69,0,0,0,24.508-1.25l1.441-2.564,74.38-143.442Z" transform="translate(-242.515 -253.96)"/><path class="c" d="M1166.582,819.614a6.963,6.963,0,0,1,.485.843l-64.793-139.908v0a6.878,6.878,0,0,0-12.863,0l-64.707,139.7.025.041a6.826,6.826,0,0,0-.806,3.173,6.9,6.9,0,0,0,6.9,6.9h34.288a6.9,6.9,0,0,0,6.316-4.132l-.01.045,24.536-55.5,24.321,55.493.047.03a6.894,6.894,0,0,0,6.268,4.061h34.255a6.9,6.9,0,0,0,5.732-10.753Z" transform="translate(-436.64 -253.96)"/><path class="c" d="M426.929,643.072a69.016,69.016,0,0,0-15.094-23.193,71.791,71.791,0,0,0-23.992-15.822,82.17,82.17,0,0,0-31.614-5.833,90.1,90.1,0,0,0-33.362,6.138,84.145,84.145,0,0,0-27.008,16.9,80.328,80.328,0,0,0-17.952,89.4,74.411,74.411,0,0,0,18.432,25.506,87.776,87.776,0,0,0,28.276,16.9,101.783,101.783,0,0,0,36.034,6.335,104.509,104.509,0,0,0,57.593-16.929,7.153,7.153,0,0,0,1.529-11.041,7.259,7.259,0,0,1,.579.7l-12.562-22.9-.027.007a7.172,7.172,0,0,0-9.217-3.47c-.039.02-.077.036-.116.056A87.8,87.8,0,0,1,384.19,711.6a74.386,74.386,0,0,1-21.606,3.076q-13.031,0-22.079-4.308A28.126,28.126,0,0,1,327,697.147h96.038c.013,0,.025,0,.037,0a7.213,7.213,0,0,0,7.213-7.213,7.226,7.226,0,0,1-.131,1.3c.4-1.945.755-4.012,1.056-6.211a102.148,102.148,0,0,0,.953-13.993A75.158,75.158,0,0,0,426.929,643.072ZM325.095,662.745q3.489-11.076,11.118-17.055a29.568,29.568,0,0,1,35.905.153q7.62,6.157,8.26,16.9Z" transform="translate(-15.027 -210.323)"/></g><g transform="translate(1031.523)"><path class="c" d="M82.014-199.273a70.25,70.25,0,0,0-18.353-24.17,81.889,81.889,0,0,0-27.648-15.175,108.937,108.937,0,0,0-34.29-5.195h-48.8a6.9,6.9,0,0,0-6.9,6.9V-96.485a6.9,6.9,0,0,0,6.9,6.9H1.715a102.9,102.9,0,0,0,34.3-5.781,84.556,84.556,0,0,0,27.648-15.767,72.5,72.5,0,0,0,18.353-24.4,74.227,74.227,0,0,0,6.642-31.752A74.86,74.86,0,0,0,82.014-199.273Zm-39.359,49.5a38.238,38.238,0,0,1-9.42,12.966,41,41,0,0,1-14.127,8.053,54.144,54.144,0,0,1-17.629,2.8H-12.286v-81.492H1.479A61.5,61.5,0,0,1,19.108-205a39.9,39.9,0,0,1,14.127,7.352,35.056,35.056,0,0,1,9.42,12.5,42.407,42.407,0,0,1,3.5,17.868A41.945,41.945,0,0,1,42.655-149.774Z" transform="translate(79.929 261.436)"/><rect class="c" width="52.269" height="154.195" rx="4.722" transform="translate(851.828 26.43)"/><path class="c" d="M1558.729-198.695a73.589,73.589,0,0,0-15.045-24.242,67.645,67.645,0,0,0-23.089-15.864,74.365,74.365,0,0,0-29.328-5.733q-14.584,0-25.528,4.847a46.434,46.434,0,0,0-14.164,9.65c-.028.028-.157.131-.191.16a2.143,2.143,0,0,1-1.423.538,2.15,2.15,0,0,1-2.15-2.15V-239.2q0-.877,0-1.755V-242a2.243,2.243,0,0,0-.5-1.518,2.114,2.114,0,0,0-1.577-.732H1407.3a2.076,2.076,0,0,0-2.076,2.076V-53.311a2.076,2.076,0,0,0,2.076,2.076h42.93c.022,0,.043.007.066.007s.043-.006.065-.007a2.076,2.076,0,0,0,2.012-2.07s0-46.2,0-46.217a2.077,2.077,0,0,1,2.077-2.076,2.109,2.109,0,0,1,1.318.476q13.475,10.564,35.5,10.561a74.472,74.472,0,0,0,29.328-5.727,66.733,66.733,0,0,0,23.089-16.014,74.855,74.855,0,0,0,15.045-24.542,85.806,85.806,0,0,0,5.47-31A84.693,84.693,0,0,0,1558.729-198.695Zm-50.6,44.667a30.643,30.643,0,0,1-6.683,9.844,26.11,26.11,0,0,1-9.419,5.876,32.609,32.609,0,0,1-11.1,1.909,31.7,31.7,0,0,1-10.787-1.909,26.11,26.11,0,0,1-9.419-5.876,30.558,30.558,0,0,1-6.684-9.844,34.1,34.1,0,0,1-2.587-13.812,34.116,34.116,0,0,1,2.587-13.812,28.836,28.836,0,0,1,6.684-9.695,25.405,25.405,0,0,1,9.419-5.583,33.961,33.961,0,0,1,10.787-1.765,34.034,34.034,0,0,1,11.244,1.909,25.988,25.988,0,0,1,9.574,5.876,28.921,28.921,0,0,1,6.535,9.844,35.2,35.2,0,0,1,2.433,13.518A33.282,33.282,0,0,1,1508.13-154.028Z" transform="translate(-737.607 261.84)"/><path class="c" d="M798.518-213.89l-27.039,56.914-6.061,12.758L732.789-213.89H677.434L753.383-66.938c-.113-.214-.2-.444-.3-.664.12.26.228.528.364.779l.1.189a13.689,13.689,0,0,0,12.077,7,13.691,13.691,0,0,0,12.431-8.25l1.441-2.564,74.38-143.442Z" transform="translate(-329.856 244.672)"/><path class="c" d="M1176.582-140.386a6.955,6.955,0,0,1,.485.843l-64.792-139.908v0a6.891,6.891,0,0,0-6.432-4.443,6.892,6.892,0,0,0-6.431,4.44l-64.707,139.7.025.041a6.828,6.828,0,0,0-.806,3.173,6.9,6.9,0,0,0,6.9,6.9h34.288a6.9,6.9,0,0,0,6.316-4.132l24.526-55.453,24.321,55.493.047.03a6.894,6.894,0,0,0,6.268,4.061h34.255a6.9,6.9,0,0,0,6.9-6.9A6.871,6.871,0,0,0,1176.582-140.386Z" transform="translate(-529.584 283.89)"/><path class="c" d="M469.28-201.011a66.057,66.057,0,0,0-14.449-22.2,68.72,68.72,0,0,0-22.966-15.146,78.657,78.657,0,0,0-30.262-5.584,86.247,86.247,0,0,0-31.936,5.876,80.553,80.553,0,0,0-25.854,16.18,74.27,74.27,0,0,0-17.185,24.416,74.776,74.776,0,0,0-6.233,30.584,74.776,74.776,0,0,0,6.233,30.583,71.233,71.233,0,0,0,17.644,24.416,84.015,84.015,0,0,0,27.068,16.18,97.425,97.425,0,0,0,34.494,6.065,100.039,100.039,0,0,0,55.131-16.206,6.878,6.878,0,0,0,3.328-5.879,6.858,6.858,0,0,0-1.864-4.69,7,7,0,0,1,.554.671l-12.026-21.925-.026.007a6.882,6.882,0,0,0-6.165-3.855,6.873,6.873,0,0,0-2.658.534c-.037.018-.074.034-.111.053a84.037,84.037,0,0,1-13.63,5.516,71.208,71.208,0,0,1-20.683,2.944q-12.474,0-21.136-4.124a26.926,26.926,0,0,1-12.927-12.652h91.933c.012,0,.023,0,.036,0a6.9,6.9,0,0,0,6.9-6.9,6.907,6.907,0,0,1-.125,1.241c.383-1.862.722-3.84,1.011-5.946a97.8,97.8,0,0,0,.912-13.394A71.936,71.936,0,0,0,469.28-201.011ZM371.8-182.179q3.34-10.6,10.643-16.326a26.8,26.8,0,0,1,17.034-5.742,26.818,26.818,0,0,1,17.336,5.888q7.294,5.894,7.907,16.18Z" transform="translate(-129.821 261.509)"/><path class="c" d="M1252.329,136.646h-48.116c-1.147,0-2.077,1.267-2.077,2.831V344.011c0,1.563.93,2.83,2.077,2.83h48.116c1.146,0,2.076-1.267,2.076-2.83V139.477C1254.406,137.913,1253.476,136.646,1252.329,136.646Z" transform="translate(-623.826 48.28)"/><path class="c" d="M926.728,221.305a73.584,73.584,0,0,0-15.045-24.242A67.646,67.646,0,0,0,888.595,181.2a74.366,74.366,0,0,0-29.328-5.733q-14.584,0-25.528,4.847a46.435,46.435,0,0,0-14.164,9.65c-.028.028-.157.131-.191.161a2.15,2.15,0,0,1-3.572-1.612V180.8q0-.877,0-1.755V178a2.242,2.242,0,0,0-.5-1.518,2.113,2.113,0,0,0-1.577-.732H775.3a2.076,2.076,0,0,0-2.076,2.076V366.689a2.076,2.076,0,0,0,2.076,2.077h42.93c.022,0,.043.007.066.007s.043-.006.066-.007a2.076,2.076,0,0,0,2.012-2.07s0-46.2,0-46.217a2.077,2.077,0,0,1,2.076-2.076,2.109,2.109,0,0,1,1.318.476q13.475,10.564,35.5,10.561a74.472,74.472,0,0,0,29.328-5.727A66.734,66.734,0,0,0,911.684,307.7a74.851,74.851,0,0,0,15.045-24.542,85.806,85.806,0,0,0,5.47-31A84.693,84.693,0,0,0,926.728,221.305Zm-50.6,44.667a30.641,30.641,0,0,1-6.683,9.844,26.112,26.112,0,0,1-9.419,5.876,32.608,32.608,0,0,1-11.1,1.909,31.7,31.7,0,0,1-10.787-1.909,26.111,26.111,0,0,1-9.419-5.876,30.556,30.556,0,0,1-6.684-9.844,38.165,38.165,0,0,1,0-27.624,28.833,28.833,0,0,1,6.684-9.694,25.405,25.405,0,0,1,9.419-5.583,33.958,33.958,0,0,1,22.031.144,25.983,25.983,0,0,1,9.573,5.876,28.92,28.92,0,0,1,6.536,9.844,35.2,35.2,0,0,1,2.433,13.518A33.28,33.28,0,0,1,876.13,265.972Z" transform="translate(-383.522 26.531)"/><path class="c" d="M166.518,176.11l-27.039,56.914-6.061,12.758L100.789,176.11H45.434l75.949,146.952c-.113-.214-.2-.444-.3-.664.12.26.228.528.364.779l.1.189a13.69,13.69,0,0,0,24.508-1.25l1.441-2.564,74.38-143.442Z" transform="translate(24.229 26.17)"/><path class="c" d="M534.582,319.614a6.938,6.938,0,0,1,.485.843L470.275,180.549v0a6.878,6.878,0,0,0-12.863,0l-64.707,139.7.025.041a6.828,6.828,0,0,0-.806,3.173,6.9,6.9,0,0,0,6.9,6.9h34.288a6.9,6.9,0,0,0,6.316-4.132l24.526-55.453,24.321,55.493.047.03a6.894,6.894,0,0,0,6.268,4.061H528.85a6.9,6.9,0,0,0,5.732-10.753Z" transform="translate(-169.897 26.17)"/><path class="c" d="M1541.014,302.727a70.248,70.248,0,0,0-18.354-24.17,81.885,81.885,0,0,0-27.648-15.175,108.937,108.937,0,0,0-34.29-5.195h-48.8a6.9,6.9,0,0,0-6.9,6.9V405.515a6.9,6.9,0,0,0,6.9,6.9h48.794a102.9,102.9,0,0,0,34.3-5.781,84.553,84.553,0,0,0,27.648-15.767,72.5,72.5,0,0,0,18.354-24.4,79.793,79.793,0,0,0,0-63.745Zm-39.359,49.5a38.238,38.238,0,0,1-9.42,12.966,41,41,0,0,1-14.127,8.053,54.143,54.143,0,0,1-17.629,2.8h-13.765V294.554h13.765A61.5,61.5,0,0,1,1478.108,297a39.907,39.907,0,0,1,14.127,7.352,35.055,35.055,0,0,1,9.42,12.5,42.407,42.407,0,0,1,3.5,17.868A41.945,41.945,0,0,1,1501.655,352.226Z" transform="translate(-737.492 -19.814)"/><path class="c" d="M1928.28,200.989a66.056,66.056,0,0,0-14.448-22.2,68.721,68.721,0,0,0-22.966-15.146,78.658,78.658,0,0,0-30.262-5.584,86.249,86.249,0,0,0-31.936,5.876,80.559,80.559,0,0,0-25.854,16.18,76.9,76.9,0,0,0-17.185,85.583,71.236,71.236,0,0,0,17.644,24.416,84.016,84.016,0,0,0,27.068,16.18,97.424,97.424,0,0,0,34.493,6.065,100.038,100.038,0,0,0,55.131-16.206,6.847,6.847,0,0,0,1.464-10.569,7,7,0,0,1,.554.671l-12.026-21.925-.025.007a6.864,6.864,0,0,0-8.823-3.321c-.037.018-.074.034-.111.053a84.03,84.03,0,0,1-13.63,5.516,71.207,71.207,0,0,1-20.683,2.944q-12.474,0-21.136-4.124a26.927,26.927,0,0,1-12.927-12.652h91.933c.012,0,.023,0,.036,0a6.9,6.9,0,0,0,6.9-6.9,6.9,6.9,0,0,1-.125,1.241c.383-1.862.722-3.84,1.011-5.946a97.76,97.76,0,0,0,.912-13.394A71.934,71.934,0,0,0,1928.28,200.989ZM1830.8,219.821q3.34-10.6,10.643-16.326a28.3,28.3,0,0,1,34.37.146q7.294,5.894,7.907,16.18Z" transform="translate(-947.241 36.285)"/><path class="c" d="M23.014,640.727a70.25,70.25,0,0,0-18.353-24.17,81.886,81.886,0,0,0-27.648-15.175,108.938,108.938,0,0,0-34.29-5.195h-48.8a6.9,6.9,0,0,0-6.9,6.9V743.515a6.9,6.9,0,0,0,6.9,6.9h48.794a102.9,102.9,0,0,0,34.3-5.781A84.557,84.557,0,0,0,4.661,728.872a72.5,72.5,0,0,0,18.353-24.4,74.227,74.227,0,0,0,6.642-31.752A74.86,74.86,0,0,0,23.014,640.727Zm-39.359,49.5a38.239,38.239,0,0,1-9.42,12.966,41,41,0,0,1-14.127,8.053,54.144,54.144,0,0,1-17.629,2.8H-71.286V632.554h13.765A61.5,61.5,0,0,1-39.892,635a39.905,39.905,0,0,1,14.127,7.353,35.054,35.054,0,0,1,9.42,12.5,42.407,42.407,0,0,1,3.5,17.868A41.945,41.945,0,0,1-16.345,690.226Z" transform="translate(112.984 -209.182)"/><path class="c" d="M1884.329,571.646h-48.116c-1.147,0-2.076,1.207-2.076,2.7V769.128c0,1.489.929,2.7,2.076,2.7h48.116c1.146,0,2.076-1.207,2.076-2.7V574.342C1886.406,572.853,1885.476,571.646,1884.329,571.646Z" transform="translate(-977.911 -195.433)"/><path class="c" d="M1558.729,721.305a73.589,73.589,0,0,0-15.045-24.242,67.645,67.645,0,0,0-23.089-15.864,74.367,74.367,0,0,0-29.328-5.733q-14.584,0-25.528,4.847a46.433,46.433,0,0,0-14.164,9.65c-.028.028-.157.131-.191.16a2.15,2.15,0,0,1-3.572-1.612V680.8q0-.877,0-1.755V678a2.243,2.243,0,0,0-.5-1.518,2.114,2.114,0,0,0-1.577-.732H1407.3a2.076,2.076,0,0,0-2.076,2.076V866.689a2.076,2.076,0,0,0,2.076,2.076h42.93c.022,0,.043.007.066.007s.043-.006.065-.007a2.076,2.076,0,0,0,2.012-2.07s0-46.2,0-46.217a2.077,2.077,0,0,1,2.077-2.076,2.109,2.109,0,0,1,1.318.476q13.475,10.564,35.5,10.561a74.472,74.472,0,0,0,29.328-5.727,66.732,66.732,0,0,0,23.089-16.013,74.855,74.855,0,0,0,15.045-24.542,85.807,85.807,0,0,0,5.47-31A84.693,84.693,0,0,0,1558.729,721.305Zm-50.6,44.667a30.644,30.644,0,0,1-6.683,9.844,26.11,26.11,0,0,1-9.419,5.876,32.608,32.608,0,0,1-11.1,1.909,31.7,31.7,0,0,1-10.787-1.909,26.11,26.11,0,0,1-9.419-5.876,30.558,30.558,0,0,1-6.684-9.844,38.166,38.166,0,0,1,0-27.624,28.835,28.835,0,0,1,6.684-9.695,25.4,25.4,0,0,1,9.419-5.583,33.959,33.959,0,0,1,22.031.144,25.987,25.987,0,0,1,9.574,5.876,28.922,28.922,0,0,1,6.535,9.844,35.2,35.2,0,0,1,2.433,13.518A33.282,33.282,0,0,1,1508.13,765.972Z" transform="translate(-737.607 -253.599)"/><path class="c" d="M798.518,676.11l-27.039,56.914-6.061,12.758L732.789,676.11H677.434l75.949,146.952c-.113-.214-.2-.444-.3-.664.12.26.228.528.364.779l.1.189a13.69,13.69,0,0,0,24.508-1.25l1.441-2.564,74.38-143.442Z" transform="translate(-329.856 -253.96)"/><path class="c" d="M1166.582,819.614a6.963,6.963,0,0,1,.485.843l-64.793-139.908v0a6.878,6.878,0,0,0-12.863,0l-64.707,139.7.025.041a6.826,6.826,0,0,0-.806,3.173,6.9,6.9,0,0,0,6.9,6.9h34.288a6.9,6.9,0,0,0,6.316-4.132l-.01.045,24.536-55.5,24.321,55.493.047.03a6.894,6.894,0,0,0,6.268,4.061h34.255a6.9,6.9,0,0,0,5.732-10.753Z" transform="translate(-523.981 -253.96)"/><path class="c" d="M426.929,643.072a69.016,69.016,0,0,0-15.094-23.193,71.791,71.791,0,0,0-23.992-15.822,82.17,82.17,0,0,0-31.614-5.833,90.1,90.1,0,0,0-33.362,6.138,84.145,84.145,0,0,0-27.008,16.9,80.328,80.328,0,0,0-17.952,89.4,74.411,74.411,0,0,0,18.432,25.506,87.776,87.776,0,0,0,28.276,16.9,101.783,101.783,0,0,0,36.034,6.335,104.509,104.509,0,0,0,57.593-16.929,7.153,7.153,0,0,0,1.529-11.041,7.259,7.259,0,0,1,.579.7l-12.562-22.9-.027.007a7.172,7.172,0,0,0-9.217-3.47c-.039.02-.077.036-.116.056A87.8,87.8,0,0,1,384.19,711.6a74.386,74.386,0,0,1-21.606,3.076q-13.031,0-22.079-4.308A28.126,28.126,0,0,1,327,697.147h96.038c.013,0,.025,0,.037,0a7.213,7.213,0,0,0,7.213-7.213,7.226,7.226,0,0,1-.131,1.3c.4-1.945.755-4.012,1.056-6.211a102.148,102.148,0,0,0,.953-13.993A75.158,75.158,0,0,0,426.929,643.072ZM325.095,662.745q3.489-11.076,11.118-17.055a29.568,29.568,0,0,1,35.905.153q7.62,6.157,8.26,16.9Z" transform="translate(-102.368 -210.323)"/></g><g transform="translate(1978.256)"><path class="c" d="M82.014-199.273a70.25,70.25,0,0,0-18.353-24.17,81.889,81.889,0,0,0-27.648-15.175,108.937,108.937,0,0,0-34.29-5.195h-48.8a6.9,6.9,0,0,0-6.9,6.9V-96.485a6.9,6.9,0,0,0,6.9,6.9H1.715a102.9,102.9,0,0,0,34.3-5.781,84.556,84.556,0,0,0,27.648-15.767,72.5,72.5,0,0,0,18.353-24.4,74.227,74.227,0,0,0,6.642-31.752A74.86,74.86,0,0,0,82.014-199.273Zm-39.359,49.5a38.238,38.238,0,0,1-9.42,12.966,41,41,0,0,1-14.127,8.053,54.144,54.144,0,0,1-17.629,2.8H-12.286v-81.492H1.479A61.5,61.5,0,0,1,19.108-205a39.9,39.9,0,0,1,14.127,7.352,35.056,35.056,0,0,1,9.42,12.5,42.407,42.407,0,0,1,3.5,17.868A41.945,41.945,0,0,1,42.655-149.774Z" transform="translate(79.929 261.436)"/><rect class="c" width="52.269" height="154.195" rx="4.722" transform="translate(851.828 26.43)"/><path class="c" d="M1558.729-198.695a73.589,73.589,0,0,0-15.045-24.242,67.645,67.645,0,0,0-23.089-15.864,74.365,74.365,0,0,0-29.328-5.733q-14.584,0-25.528,4.847a46.434,46.434,0,0,0-14.164,9.65c-.028.028-.157.131-.191.16a2.143,2.143,0,0,1-1.423.538,2.15,2.15,0,0,1-2.15-2.15V-239.2q0-.877,0-1.755V-242a2.243,2.243,0,0,0-.5-1.518,2.114,2.114,0,0,0-1.577-.732H1407.3a2.076,2.076,0,0,0-2.076,2.076V-53.311a2.076,2.076,0,0,0,2.076,2.076h42.93c.022,0,.043.007.066.007s.043-.006.065-.007a2.076,2.076,0,0,0,2.012-2.07s0-46.2,0-46.217a2.077,2.077,0,0,1,2.077-2.076,2.109,2.109,0,0,1,1.318.476q13.475,10.564,35.5,10.561a74.472,74.472,0,0,0,29.328-5.727,66.733,66.733,0,0,0,23.089-16.014,74.855,74.855,0,0,0,15.045-24.542,85.806,85.806,0,0,0,5.47-31A84.693,84.693,0,0,0,1558.729-198.695Zm-50.6,44.667a30.643,30.643,0,0,1-6.683,9.844,26.11,26.11,0,0,1-9.419,5.876,32.609,32.609,0,0,1-11.1,1.909,31.7,31.7,0,0,1-10.787-1.909,26.11,26.11,0,0,1-9.419-5.876,30.558,30.558,0,0,1-6.684-9.844,34.1,34.1,0,0,1-2.587-13.812,34.116,34.116,0,0,1,2.587-13.812,28.836,28.836,0,0,1,6.684-9.695,25.405,25.405,0,0,1,9.419-5.583,33.961,33.961,0,0,1,10.787-1.765,34.034,34.034,0,0,1,11.244,1.909,25.988,25.988,0,0,1,9.574,5.876,28.921,28.921,0,0,1,6.535,9.844,35.2,35.2,0,0,1,2.433,13.518A33.282,33.282,0,0,1,1508.13-154.028Z" transform="translate(-737.607 261.84)"/><path class="c" d="M798.518-213.89l-27.039,56.914-6.061,12.758L732.789-213.89H677.434L753.383-66.938c-.113-.214-.2-.444-.3-.664.12.26.228.528.364.779l.1.189a13.689,13.689,0,0,0,12.077,7,13.691,13.691,0,0,0,12.431-8.25l1.441-2.564,74.38-143.442Z" transform="translate(-329.856 244.672)"/><path class="c" d="M1176.582-140.386a6.955,6.955,0,0,1,.485.843l-64.792-139.908v0a6.891,6.891,0,0,0-6.432-4.443,6.892,6.892,0,0,0-6.431,4.44l-64.707,139.7.025.041a6.828,6.828,0,0,0-.806,3.173,6.9,6.9,0,0,0,6.9,6.9h34.288a6.9,6.9,0,0,0,6.316-4.132l24.526-55.453,24.321,55.493.047.03a6.894,6.894,0,0,0,6.268,4.061h34.255a6.9,6.9,0,0,0,6.9-6.9A6.871,6.871,0,0,0,1176.582-140.386Z" transform="translate(-529.584 283.89)"/><path class="c" d="M469.28-201.011a66.057,66.057,0,0,0-14.449-22.2,68.72,68.72,0,0,0-22.966-15.146,78.657,78.657,0,0,0-30.262-5.584,86.247,86.247,0,0,0-31.936,5.876,80.553,80.553,0,0,0-25.854,16.18,74.27,74.27,0,0,0-17.185,24.416,74.776,74.776,0,0,0-6.233,30.584,74.776,74.776,0,0,0,6.233,30.583,71.233,71.233,0,0,0,17.644,24.416,84.015,84.015,0,0,0,27.068,16.18,97.425,97.425,0,0,0,34.494,6.065,100.039,100.039,0,0,0,55.131-16.206,6.878,6.878,0,0,0,3.328-5.879,6.858,6.858,0,0,0-1.864-4.69,7,7,0,0,1,.554.671l-12.026-21.925-.026.007a6.882,6.882,0,0,0-6.165-3.855,6.873,6.873,0,0,0-2.658.534c-.037.018-.074.034-.111.053a84.037,84.037,0,0,1-13.63,5.516,71.208,71.208,0,0,1-20.683,2.944q-12.474,0-21.136-4.124a26.926,26.926,0,0,1-12.927-12.652h91.933c.012,0,.023,0,.036,0a6.9,6.9,0,0,0,6.9-6.9,6.907,6.907,0,0,1-.125,1.241c.383-1.862.722-3.84,1.011-5.946a97.8,97.8,0,0,0,.912-13.394A71.936,71.936,0,0,0,469.28-201.011ZM371.8-182.179q3.34-10.6,10.643-16.326a26.8,26.8,0,0,1,17.034-5.742,26.818,26.818,0,0,1,17.336,5.888q7.294,5.894,7.907,16.18Z" transform="translate(-129.821 261.509)"/><path class="c" d="M1252.329,136.646h-48.116c-1.147,0-2.077,1.267-2.077,2.831V344.011c0,1.563.93,2.83,2.077,2.83h48.116c1.146,0,2.076-1.267,2.076-2.83V139.477C1254.406,137.913,1253.476,136.646,1252.329,136.646Z" transform="translate(-623.826 48.28)"/><path class="c" d="M926.728,221.305a73.584,73.584,0,0,0-15.045-24.242A67.646,67.646,0,0,0,888.595,181.2a74.366,74.366,0,0,0-29.328-5.733q-14.584,0-25.528,4.847a46.435,46.435,0,0,0-14.164,9.65c-.028.028-.157.131-.191.161a2.15,2.15,0,0,1-3.572-1.612V180.8q0-.877,0-1.755V178a2.242,2.242,0,0,0-.5-1.518,2.113,2.113,0,0,0-1.577-.732H775.3a2.076,2.076,0,0,0-2.076,2.076V366.689a2.076,2.076,0,0,0,2.076,2.077h42.93c.022,0,.043.007.066.007s.043-.006.066-.007a2.076,2.076,0,0,0,2.012-2.07s0-46.2,0-46.217a2.077,2.077,0,0,1,2.076-2.076,2.109,2.109,0,0,1,1.318.476q13.475,10.564,35.5,10.561a74.472,74.472,0,0,0,29.328-5.727A66.734,66.734,0,0,0,911.684,307.7a74.851,74.851,0,0,0,15.045-24.542,85.806,85.806,0,0,0,5.47-31A84.693,84.693,0,0,0,926.728,221.305Zm-50.6,44.667a30.641,30.641,0,0,1-6.683,9.844,26.112,26.112,0,0,1-9.419,5.876,32.608,32.608,0,0,1-11.1,1.909,31.7,31.7,0,0,1-10.787-1.909,26.111,26.111,0,0,1-9.419-5.876,30.556,30.556,0,0,1-6.684-9.844,38.165,38.165,0,0,1,0-27.624,28.833,28.833,0,0,1,6.684-9.694,25.405,25.405,0,0,1,9.419-5.583,33.958,33.958,0,0,1,22.031.144,25.983,25.983,0,0,1,9.573,5.876,28.92,28.92,0,0,1,6.536,9.844,35.2,35.2,0,0,1,2.433,13.518A33.28,33.28,0,0,1,876.13,265.972Z" transform="translate(-383.522 26.531)"/><path class="c" d="M166.518,176.11l-27.039,56.914-6.061,12.758L100.789,176.11H45.434l75.949,146.952c-.113-.214-.2-.444-.3-.664.12.26.228.528.364.779l.1.189a13.69,13.69,0,0,0,24.508-1.25l1.441-2.564,74.38-143.442Z" transform="translate(24.229 26.17)"/><path class="c" d="M534.582,319.614a6.938,6.938,0,0,1,.485.843L470.275,180.549v0a6.878,6.878,0,0,0-12.863,0l-64.707,139.7.025.041a6.828,6.828,0,0,0-.806,3.173,6.9,6.9,0,0,0,6.9,6.9h34.288a6.9,6.9,0,0,0,6.316-4.132l24.526-55.453,24.321,55.493.047.03a6.894,6.894,0,0,0,6.268,4.061H528.85a6.9,6.9,0,0,0,5.732-10.753Z" transform="translate(-169.897 26.17)"/><path class="c" d="M1541.014,302.727a70.248,70.248,0,0,0-18.354-24.17,81.885,81.885,0,0,0-27.648-15.175,108.937,108.937,0,0,0-34.29-5.195h-48.8a6.9,6.9,0,0,0-6.9,6.9V405.515a6.9,6.9,0,0,0,6.9,6.9h48.794a102.9,102.9,0,0,0,34.3-5.781,84.553,84.553,0,0,0,27.648-15.767,72.5,72.5,0,0,0,18.354-24.4,79.793,79.793,0,0,0,0-63.745Zm-39.359,49.5a38.238,38.238,0,0,1-9.42,12.966,41,41,0,0,1-14.127,8.053,54.143,54.143,0,0,1-17.629,2.8h-13.765V294.554h13.765A61.5,61.5,0,0,1,1478.108,297a39.907,39.907,0,0,1,14.127,7.352,35.055,35.055,0,0,1,9.42,12.5,42.407,42.407,0,0,1,3.5,17.868A41.945,41.945,0,0,1,1501.655,352.226Z" transform="translate(-737.492 -19.814)"/><path class="c" d="M1928.28,200.989a66.056,66.056,0,0,0-14.448-22.2,68.721,68.721,0,0,0-22.966-15.146,78.658,78.658,0,0,0-30.262-5.584,86.249,86.249,0,0,0-31.936,5.876,80.559,80.559,0,0,0-25.854,16.18,76.9,76.9,0,0,0-17.185,85.583,71.236,71.236,0,0,0,17.644,24.416,84.016,84.016,0,0,0,27.068,16.18,97.424,97.424,0,0,0,34.493,6.065,100.038,100.038,0,0,0,55.131-16.206,6.847,6.847,0,0,0,1.464-10.569,7,7,0,0,1,.554.671l-12.026-21.925-.025.007a6.864,6.864,0,0,0-8.823-3.321c-.037.018-.074.034-.111.053a84.03,84.03,0,0,1-13.63,5.516,71.207,71.207,0,0,1-20.683,2.944q-12.474,0-21.136-4.124a26.927,26.927,0,0,1-12.927-12.652h91.933c.012,0,.023,0,.036,0a6.9,6.9,0,0,0,6.9-6.9,6.9,6.9,0,0,1-.125,1.241c.383-1.862.722-3.84,1.011-5.946a97.76,97.76,0,0,0,.912-13.394A71.934,71.934,0,0,0,1928.28,200.989ZM1830.8,219.821q3.34-10.6,10.643-16.326a28.3,28.3,0,0,1,34.37.146q7.294,5.894,7.907,16.18Z" transform="translate(-947.241 36.285)"/><path class="c" d="M23.014,640.727a70.25,70.25,0,0,0-18.353-24.17,81.886,81.886,0,0,0-27.648-15.175,108.938,108.938,0,0,0-34.29-5.195h-48.8a6.9,6.9,0,0,0-6.9,6.9V743.515a6.9,6.9,0,0,0,6.9,6.9h48.794a102.9,102.9,0,0,0,34.3-5.781A84.557,84.557,0,0,0,4.661,728.872a72.5,72.5,0,0,0,18.353-24.4,74.227,74.227,0,0,0,6.642-31.752A74.86,74.86,0,0,0,23.014,640.727Zm-39.359,49.5a38.239,38.239,0,0,1-9.42,12.966,41,41,0,0,1-14.127,8.053,54.144,54.144,0,0,1-17.629,2.8H-71.286V632.554h13.765A61.5,61.5,0,0,1-39.892,635a39.905,39.905,0,0,1,14.127,7.353,35.054,35.054,0,0,1,9.42,12.5,42.407,42.407,0,0,1,3.5,17.868A41.945,41.945,0,0,1-16.345,690.226Z" transform="translate(112.984 -209.182)"/><path class="c" d="M1884.329,571.646h-48.116c-1.147,0-2.076,1.207-2.076,2.7V769.128c0,1.489.929,2.7,2.076,2.7h48.116c1.146,0,2.076-1.207,2.076-2.7V574.342C1886.406,572.853,1885.476,571.646,1884.329,571.646Z" transform="translate(-977.911 -195.433)"/><path class="c" d="M1558.729,721.305a73.589,73.589,0,0,0-15.045-24.242,67.645,67.645,0,0,0-23.089-15.864,74.367,74.367,0,0,0-29.328-5.733q-14.584,0-25.528,4.847a46.433,46.433,0,0,0-14.164,9.65c-.028.028-.157.131-.191.16a2.15,2.15,0,0,1-3.572-1.612V680.8q0-.877,0-1.755V678a2.243,2.243,0,0,0-.5-1.518,2.114,2.114,0,0,0-1.577-.732H1407.3a2.076,2.076,0,0,0-2.076,2.076V866.689a2.076,2.076,0,0,0,2.076,2.076h42.93c.022,0,.043.007.066.007s.043-.006.065-.007a2.076,2.076,0,0,0,2.012-2.07s0-46.2,0-46.217a2.077,2.077,0,0,1,2.077-2.076,2.109,2.109,0,0,1,1.318.476q13.475,10.564,35.5,10.561a74.472,74.472,0,0,0,29.328-5.727,66.732,66.732,0,0,0,23.089-16.013,74.855,74.855,0,0,0,15.045-24.542,85.807,85.807,0,0,0,5.47-31A84.693,84.693,0,0,0,1558.729,721.305Zm-50.6,44.667a30.644,30.644,0,0,1-6.683,9.844,26.11,26.11,0,0,1-9.419,5.876,32.608,32.608,0,0,1-11.1,1.909,31.7,31.7,0,0,1-10.787-1.909,26.11,26.11,0,0,1-9.419-5.876,30.558,30.558,0,0,1-6.684-9.844,38.166,38.166,0,0,1,0-27.624,28.835,28.835,0,0,1,6.684-9.695,25.4,25.4,0,0,1,9.419-5.583,33.959,33.959,0,0,1,22.031.144,25.987,25.987,0,0,1,9.574,5.876,28.922,28.922,0,0,1,6.535,9.844,35.2,35.2,0,0,1,2.433,13.518A33.282,33.282,0,0,1,1508.13,765.972Z" transform="translate(-737.607 -253.599)"/><path class="c" d="M798.518,676.11l-27.039,56.914-6.061,12.758L732.789,676.11H677.434l75.949,146.952c-.113-.214-.2-.444-.3-.664.12.26.228.528.364.779l.1.189a13.69,13.69,0,0,0,24.508-1.25l1.441-2.564,74.38-143.442Z" transform="translate(-329.856 -253.96)"/><path class="c" d="M1166.582,819.614a6.963,6.963,0,0,1,.485.843l-64.793-139.908v0a6.878,6.878,0,0,0-12.863,0l-64.707,139.7.025.041a6.826,6.826,0,0,0-.806,3.173,6.9,6.9,0,0,0,6.9,6.9h34.288a6.9,6.9,0,0,0,6.316-4.132l-.01.045,24.536-55.5,24.321,55.493.047.03a6.894,6.894,0,0,0,6.268,4.061h34.255a6.9,6.9,0,0,0,5.732-10.753Z" transform="translate(-523.981 -253.96)"/><path class="c" d="M426.929,643.072a69.016,69.016,0,0,0-15.094-23.193,71.791,71.791,0,0,0-23.992-15.822,82.17,82.17,0,0,0-31.614-5.833,90.1,90.1,0,0,0-33.362,6.138,84.145,84.145,0,0,0-27.008,16.9,80.328,80.328,0,0,0-17.952,89.4,74.411,74.411,0,0,0,18.432,25.506,87.776,87.776,0,0,0,28.276,16.9,101.783,101.783,0,0,0,36.034,6.335,104.509,104.509,0,0,0,57.593-16.929,7.153,7.153,0,0,0,1.529-11.041,7.259,7.259,0,0,1,.579.7l-12.562-22.9-.027.007a7.172,7.172,0,0,0-9.217-3.47c-.039.02-.077.036-.116.056A87.8,87.8,0,0,1,384.19,711.6a74.386,74.386,0,0,1-21.606,3.076q-13.031,0-22.079-4.308A28.126,28.126,0,0,1,327,697.147h96.038c.013,0,.025,0,.037,0a7.213,7.213,0,0,0,7.213-7.213,7.226,7.226,0,0,1-.131,1.3c.4-1.945.755-4.012,1.056-6.211a102.148,102.148,0,0,0,.953-13.993A75.158,75.158,0,0,0,426.929,643.072ZM325.095,662.745q3.489-11.076,11.118-17.055a29.568,29.568,0,0,1,35.905.153q7.62,6.157,8.26,16.9Z" transform="translate(-102.368 -210.323)"/></g></g><g transform="translate(-394 5238.269)"><path class="c" d="M82.014-199.273a70.25,70.25,0,0,0-18.353-24.17,81.889,81.889,0,0,0-27.648-15.175,108.937,108.937,0,0,0-34.29-5.195h-48.8a6.9,6.9,0,0,0-6.9,6.9V-96.485a6.9,6.9,0,0,0,6.9,6.9H1.715a102.9,102.9,0,0,0,34.3-5.781,84.556,84.556,0,0,0,27.648-15.767,72.5,72.5,0,0,0,18.353-24.4,74.227,74.227,0,0,0,6.642-31.752A74.86,74.86,0,0,0,82.014-199.273Zm-39.359,49.5a38.238,38.238,0,0,1-9.42,12.966,41,41,0,0,1-14.127,8.053,54.144,54.144,0,0,1-17.629,2.8H-12.286v-81.492H1.479A61.5,61.5,0,0,1,19.108-205a39.9,39.9,0,0,1,14.127,7.352,35.056,35.056,0,0,1,9.42,12.5,42.407,42.407,0,0,1,3.5,17.868A41.945,41.945,0,0,1,42.655-149.774Z" transform="translate(167.27 261.436)"/><rect class="c" width="52.269" height="154.195" rx="4.722" transform="translate(939.17 26.43)"/><path class="c" d="M1558.729-198.695a73.589,73.589,0,0,0-15.045-24.242,67.645,67.645,0,0,0-23.089-15.864,74.365,74.365,0,0,0-29.328-5.733q-14.584,0-25.528,4.847a46.434,46.434,0,0,0-14.164,9.65c-.028.028-.157.131-.191.16a2.143,2.143,0,0,1-1.423.538,2.15,2.15,0,0,1-2.15-2.15V-239.2q0-.877,0-1.755V-242a2.243,2.243,0,0,0-.5-1.518,2.114,2.114,0,0,0-1.577-.732H1407.3a2.076,2.076,0,0,0-2.076,2.076V-53.311a2.076,2.076,0,0,0,2.076,2.076h42.93c.022,0,.043.007.066.007s.043-.006.065-.007a2.076,2.076,0,0,0,2.012-2.07s0-46.2,0-46.217a2.077,2.077,0,0,1,2.077-2.076,2.109,2.109,0,0,1,1.318.476q13.475,10.564,35.5,10.561a74.472,74.472,0,0,0,29.328-5.727,66.733,66.733,0,0,0,23.089-16.014,74.855,74.855,0,0,0,15.045-24.542,85.806,85.806,0,0,0,5.47-31A84.693,84.693,0,0,0,1558.729-198.695Zm-50.6,44.667a30.643,30.643,0,0,1-6.683,9.844,26.11,26.11,0,0,1-9.419,5.876,32.609,32.609,0,0,1-11.1,1.909,31.7,31.7,0,0,1-10.787-1.909,26.11,26.11,0,0,1-9.419-5.876,30.558,30.558,0,0,1-6.684-9.844,34.1,34.1,0,0,1-2.587-13.812,34.116,34.116,0,0,1,2.587-13.812,28.836,28.836,0,0,1,6.684-9.695,25.405,25.405,0,0,1,9.419-5.583,33.961,33.961,0,0,1,10.787-1.765,34.034,34.034,0,0,1,11.244,1.909,25.988,25.988,0,0,1,9.574,5.876,28.921,28.921,0,0,1,6.535,9.844,35.2,35.2,0,0,1,2.433,13.518A33.282,33.282,0,0,1,1508.13-154.028Z" transform="translate(-650.266 261.84)"/><path class="c" d="M798.518-213.89l-27.039,56.914-6.061,12.758L732.789-213.89H677.434L753.383-66.938c-.113-.214-.2-.444-.3-.664.12.26.228.528.364.779l.1.189a13.689,13.689,0,0,0,12.077,7,13.691,13.691,0,0,0,12.431-8.25l1.441-2.564,74.38-143.442Z" transform="translate(-242.515 244.672)"/><path class="c" d="M1176.582-140.386a6.955,6.955,0,0,1,.485.843l-64.792-139.908v0a6.891,6.891,0,0,0-6.432-4.443,6.892,6.892,0,0,0-6.431,4.44l-64.707,139.7.025.041a6.828,6.828,0,0,0-.806,3.173,6.9,6.9,0,0,0,6.9,6.9h34.288a6.9,6.9,0,0,0,6.316-4.132l24.526-55.453,24.321,55.493.047.03a6.894,6.894,0,0,0,6.268,4.061h34.255a6.9,6.9,0,0,0,6.9-6.9A6.871,6.871,0,0,0,1176.582-140.386Z" transform="translate(-442.242 283.89)"/><path class="c" d="M469.28-201.011a66.057,66.057,0,0,0-14.449-22.2,68.72,68.72,0,0,0-22.966-15.146,78.657,78.657,0,0,0-30.262-5.584,86.247,86.247,0,0,0-31.936,5.876,80.553,80.553,0,0,0-25.854,16.18,74.27,74.27,0,0,0-17.185,24.416,74.776,74.776,0,0,0-6.233,30.584,74.776,74.776,0,0,0,6.233,30.583,71.233,71.233,0,0,0,17.644,24.416,84.015,84.015,0,0,0,27.068,16.18,97.425,97.425,0,0,0,34.494,6.065,100.039,100.039,0,0,0,55.131-16.206,6.878,6.878,0,0,0,3.328-5.879,6.858,6.858,0,0,0-1.864-4.69,7,7,0,0,1,.554.671l-12.026-21.925-.026.007a6.882,6.882,0,0,0-6.165-3.855,6.873,6.873,0,0,0-2.658.534c-.037.018-.074.034-.111.053a84.037,84.037,0,0,1-13.63,5.516,71.208,71.208,0,0,1-20.683,2.944q-12.474,0-21.136-4.124a26.926,26.926,0,0,1-12.927-12.652h91.933c.012,0,.023,0,.036,0a6.9,6.9,0,0,0,6.9-6.9,6.907,6.907,0,0,1-.125,1.241c.383-1.862.722-3.84,1.011-5.946a97.8,97.8,0,0,0,.912-13.394A71.936,71.936,0,0,0,469.28-201.011ZM371.8-182.179q3.34-10.6,10.643-16.326a26.8,26.8,0,0,1,17.034-5.742,26.818,26.818,0,0,1,17.336,5.888q7.294,5.894,7.907,16.18Z" transform="translate(-42.48 261.509)"/><path class="c" d="M1252.329,136.646h-48.116c-1.147,0-2.077,1.267-2.077,2.831V344.011c0,1.563.93,2.83,2.077,2.83h48.116c1.146,0,2.076-1.267,2.076-2.83V139.477C1254.406,137.913,1253.476,136.646,1252.329,136.646Z" transform="translate(-536.485 48.28)"/><path class="c" d="M926.728,221.305a73.584,73.584,0,0,0-15.045-24.242A67.646,67.646,0,0,0,888.595,181.2a74.366,74.366,0,0,0-29.328-5.733q-14.584,0-25.528,4.847a46.435,46.435,0,0,0-14.164,9.65c-.028.028-.157.131-.191.161a2.15,2.15,0,0,1-3.572-1.612V180.8q0-.877,0-1.755V178a2.242,2.242,0,0,0-.5-1.518,2.113,2.113,0,0,0-1.577-.732H775.3a2.076,2.076,0,0,0-2.076,2.076V366.689a2.076,2.076,0,0,0,2.076,2.077h42.93c.022,0,.043.007.066.007s.043-.006.066-.007a2.076,2.076,0,0,0,2.012-2.07s0-46.2,0-46.217a2.077,2.077,0,0,1,2.076-2.076,2.109,2.109,0,0,1,1.318.476q13.475,10.564,35.5,10.561a74.472,74.472,0,0,0,29.328-5.727A66.734,66.734,0,0,0,911.684,307.7a74.851,74.851,0,0,0,15.045-24.542,85.806,85.806,0,0,0,5.47-31A84.693,84.693,0,0,0,926.728,221.305Zm-50.6,44.667a30.641,30.641,0,0,1-6.683,9.844,26.112,26.112,0,0,1-9.419,5.876,32.608,32.608,0,0,1-11.1,1.909,31.7,31.7,0,0,1-10.787-1.909,26.111,26.111,0,0,1-9.419-5.876,30.556,30.556,0,0,1-6.684-9.844,38.165,38.165,0,0,1,0-27.624,28.833,28.833,0,0,1,6.684-9.694,25.405,25.405,0,0,1,9.419-5.583,33.958,33.958,0,0,1,22.031.144,25.983,25.983,0,0,1,9.573,5.876,28.92,28.92,0,0,1,6.536,9.844,35.2,35.2,0,0,1,2.433,13.518A33.28,33.28,0,0,1,876.13,265.972Z" transform="translate(-296.181 26.531)"/><path class="c" d="M166.518,176.11l-27.039,56.914-6.061,12.758L100.789,176.11H45.434l75.949,146.952c-.113-.214-.2-.444-.3-.664.12.26.228.528.364.779l.1.189a13.69,13.69,0,0,0,24.508-1.25l1.441-2.564,74.38-143.442Z" transform="translate(111.57 26.17)"/><path class="c" d="M534.582,319.614a6.938,6.938,0,0,1,.485.843L470.275,180.549v0a6.878,6.878,0,0,0-12.863,0l-64.707,139.7.025.041a6.828,6.828,0,0,0-.806,3.173,6.9,6.9,0,0,0,6.9,6.9h34.288a6.9,6.9,0,0,0,6.316-4.132l24.526-55.453,24.321,55.493.047.03a6.894,6.894,0,0,0,6.268,4.061H528.85a6.9,6.9,0,0,0,5.732-10.753Z" transform="translate(-82.555 26.17)"/><path class="c" d="M-162.72,218.989a66.057,66.057,0,0,0-14.449-22.2,68.72,68.72,0,0,0-22.966-15.146,78.657,78.657,0,0,0-30.262-5.584,86.246,86.246,0,0,0-31.936,5.876,80.553,80.553,0,0,0-25.854,16.18,74.27,74.27,0,0,0-17.185,24.416,74.777,74.777,0,0,0-6.233,30.584,74.777,74.777,0,0,0,6.233,30.583,71.233,71.233,0,0,0,17.644,24.416,84.017,84.017,0,0,0,27.068,16.18,97.426,97.426,0,0,0,34.494,6.065,100.039,100.039,0,0,0,55.131-16.206,6.878,6.878,0,0,0,3.327-5.879,6.858,6.858,0,0,0-1.864-4.69,6.99,6.99,0,0,1,.554.671l-12.026-21.925-.026.007a6.882,6.882,0,0,0-6.165-3.855,6.873,6.873,0,0,0-2.658.534c-.037.018-.074.034-.111.053a84.035,84.035,0,0,1-13.63,5.516,71.208,71.208,0,0,1-20.683,2.944q-12.474,0-21.136-4.124a26.926,26.926,0,0,1-12.927-12.652h91.933c.012,0,.023,0,.036,0a6.9,6.9,0,0,0,6.9-6.9,6.909,6.909,0,0,1-.125,1.241c.383-1.862.722-3.84,1.011-5.946a97.789,97.789,0,0,0,.912-13.394A71.935,71.935,0,0,0-162.72,218.989ZM-260.2,237.821q3.34-10.6,10.643-16.326a26.8,26.8,0,0,1,17.034-5.742,26.818,26.818,0,0,1,17.336,5.888q7.294,5.894,7.907,16.18Z" transform="translate(311.605 26.2)"/><path class="c" d="M1541.014,302.727a70.248,70.248,0,0,0-18.354-24.17,81.885,81.885,0,0,0-27.648-15.175,108.937,108.937,0,0,0-34.29-5.195h-48.8a6.9,6.9,0,0,0-6.9,6.9V405.515a6.9,6.9,0,0,0,6.9,6.9h48.794a102.9,102.9,0,0,0,34.3-5.781,84.553,84.553,0,0,0,27.648-15.767,72.5,72.5,0,0,0,18.354-24.4,79.793,79.793,0,0,0,0-63.745Zm-39.359,49.5a38.238,38.238,0,0,1-9.42,12.966,41,41,0,0,1-14.127,8.053,54.143,54.143,0,0,1-17.629,2.8h-13.765V294.554h13.765A61.5,61.5,0,0,1,1478.108,297a39.907,39.907,0,0,1,14.127,7.352,35.055,35.055,0,0,1,9.42,12.5,42.407,42.407,0,0,1,3.5,17.868A41.945,41.945,0,0,1,1501.655,352.226Z" transform="translate(-650.15 -19.814)"/><path class="c" d="M1928.28,200.989a66.056,66.056,0,0,0-14.448-22.2,68.721,68.721,0,0,0-22.966-15.146,78.658,78.658,0,0,0-30.262-5.584,86.249,86.249,0,0,0-31.936,5.876,80.559,80.559,0,0,0-25.854,16.18,76.9,76.9,0,0,0-17.185,85.583,71.236,71.236,0,0,0,17.644,24.416,84.016,84.016,0,0,0,27.068,16.18,97.424,97.424,0,0,0,34.493,6.065,100.038,100.038,0,0,0,55.131-16.206,6.847,6.847,0,0,0,1.464-10.569,7,7,0,0,1,.554.671l-12.026-21.925-.025.007a6.864,6.864,0,0,0-8.823-3.321c-.037.018-.074.034-.111.053a84.03,84.03,0,0,1-13.63,5.516,71.207,71.207,0,0,1-20.683,2.944q-12.474,0-21.136-4.124a26.927,26.927,0,0,1-12.927-12.652h91.933c.012,0,.023,0,.036,0a6.9,6.9,0,0,0,6.9-6.9,6.9,6.9,0,0,1-.125,1.241c.383-1.862.722-3.84,1.011-5.946a97.76,97.76,0,0,0,.912-13.394A71.934,71.934,0,0,0,1928.28,200.989ZM1830.8,219.821q3.34-10.6,10.643-16.326a28.3,28.3,0,0,1,34.37.146q7.294,5.894,7.907,16.18Z" transform="translate(-859.9 36.285)"/><path class="c" d="M23.014,640.727a70.25,70.25,0,0,0-18.353-24.17,81.886,81.886,0,0,0-27.648-15.175,108.938,108.938,0,0,0-34.29-5.195h-48.8a6.9,6.9,0,0,0-6.9,6.9V743.515a6.9,6.9,0,0,0,6.9,6.9h48.794a102.9,102.9,0,0,0,34.3-5.781A84.557,84.557,0,0,0,4.661,728.872a72.5,72.5,0,0,0,18.353-24.4,74.227,74.227,0,0,0,6.642-31.752A74.86,74.86,0,0,0,23.014,640.727Zm-39.359,49.5a38.239,38.239,0,0,1-9.42,12.966,41,41,0,0,1-14.127,8.053,54.144,54.144,0,0,1-17.629,2.8H-71.286V632.554h13.765A61.5,61.5,0,0,1-39.892,635a39.905,39.905,0,0,1,14.127,7.353,35.054,35.054,0,0,1,9.42,12.5,42.407,42.407,0,0,1,3.5,17.868A41.945,41.945,0,0,1-16.345,690.226Z" transform="translate(200.325 -209.182)"/><path class="c" d="M1884.329,571.646h-48.116c-1.147,0-2.076,1.207-2.076,2.7V769.128c0,1.489.929,2.7,2.076,2.7h48.116c1.146,0,2.076-1.207,2.076-2.7V574.342C1886.406,572.853,1885.476,571.646,1884.329,571.646Z" transform="translate(-890.57 -195.433)"/><path class="c" d="M1558.729,721.305a73.589,73.589,0,0,0-15.045-24.242,67.645,67.645,0,0,0-23.089-15.864,74.367,74.367,0,0,0-29.328-5.733q-14.584,0-25.528,4.847a46.433,46.433,0,0,0-14.164,9.65c-.028.028-.157.131-.191.16a2.15,2.15,0,0,1-3.572-1.612V680.8q0-.877,0-1.755V678a2.243,2.243,0,0,0-.5-1.518,2.114,2.114,0,0,0-1.577-.732H1407.3a2.076,2.076,0,0,0-2.076,2.076V866.689a2.076,2.076,0,0,0,2.076,2.076h42.93c.022,0,.043.007.066.007s.043-.006.065-.007a2.076,2.076,0,0,0,2.012-2.07s0-46.2,0-46.217a2.077,2.077,0,0,1,2.077-2.076,2.109,2.109,0,0,1,1.318.476q13.475,10.564,35.5,10.561a74.472,74.472,0,0,0,29.328-5.727,66.732,66.732,0,0,0,23.089-16.013,74.855,74.855,0,0,0,15.045-24.542,85.807,85.807,0,0,0,5.47-31A84.693,84.693,0,0,0,1558.729,721.305Zm-50.6,44.667a30.644,30.644,0,0,1-6.683,9.844,26.11,26.11,0,0,1-9.419,5.876,32.608,32.608,0,0,1-11.1,1.909,31.7,31.7,0,0,1-10.787-1.909,26.11,26.11,0,0,1-9.419-5.876,30.558,30.558,0,0,1-6.684-9.844,38.166,38.166,0,0,1,0-27.624,28.835,28.835,0,0,1,6.684-9.695,25.4,25.4,0,0,1,9.419-5.583,33.959,33.959,0,0,1,22.031.144,25.987,25.987,0,0,1,9.574,5.876,28.922,28.922,0,0,1,6.535,9.844,35.2,35.2,0,0,1,2.433,13.518A33.282,33.282,0,0,1,1508.13,765.972Z" transform="translate(-650.266 -253.599)"/><path class="c" d="M798.518,676.11l-27.039,56.914-6.061,12.758L732.789,676.11H677.434l75.949,146.952c-.113-.214-.2-.444-.3-.664.12.26.228.528.364.779l.1.189a13.69,13.69,0,0,0,24.508-1.25l1.441-2.564,74.38-143.442Z" transform="translate(-242.515 -253.96)"/><path class="c" d="M1166.582,819.614a6.963,6.963,0,0,1,.485.843l-64.793-139.908v0a6.878,6.878,0,0,0-12.863,0l-64.707,139.7.025.041a6.826,6.826,0,0,0-.806,3.173,6.9,6.9,0,0,0,6.9,6.9h34.288a6.9,6.9,0,0,0,6.316-4.132l-.01.045,24.536-55.5,24.321,55.493.047.03a6.894,6.894,0,0,0,6.268,4.061h34.255a6.9,6.9,0,0,0,5.732-10.753Z" transform="translate(-436.64 -253.96)"/><path class="c" d="M426.929,643.072a69.016,69.016,0,0,0-15.094-23.193,71.791,71.791,0,0,0-23.992-15.822,82.17,82.17,0,0,0-31.614-5.833,90.1,90.1,0,0,0-33.362,6.138,84.145,84.145,0,0,0-27.008,16.9,80.328,80.328,0,0,0-17.952,89.4,74.411,74.411,0,0,0,18.432,25.506,87.776,87.776,0,0,0,28.276,16.9,101.783,101.783,0,0,0,36.034,6.335,104.509,104.509,0,0,0,57.593-16.929,7.153,7.153,0,0,0,1.529-11.041,7.259,7.259,0,0,1,.579.7l-12.562-22.9-.027.007a7.172,7.172,0,0,0-9.217-3.47c-.039.02-.077.036-.116.056A87.8,87.8,0,0,1,384.19,711.6a74.386,74.386,0,0,1-21.606,3.076q-13.031,0-22.079-4.308A28.126,28.126,0,0,1,327,697.147h96.038c.013,0,.025,0,.037,0a7.213,7.213,0,0,0,7.213-7.213,7.226,7.226,0,0,1-.131,1.3c.4-1.945.755-4.012,1.056-6.211a102.148,102.148,0,0,0,.953-13.993A75.158,75.158,0,0,0,426.929,643.072ZM325.095,662.745q3.489-11.076,11.118-17.055a29.568,29.568,0,0,1,35.905.153q7.62,6.157,8.26,16.9Z" transform="translate(-15.027 -210.323)"/><g transform="translate(1031.523)"><path class="c" d="M82.014-199.273a70.25,70.25,0,0,0-18.353-24.17,81.889,81.889,0,0,0-27.648-15.175,108.937,108.937,0,0,0-34.29-5.195h-48.8a6.9,6.9,0,0,0-6.9,6.9V-96.485a6.9,6.9,0,0,0,6.9,6.9H1.715a102.9,102.9,0,0,0,34.3-5.781,84.556,84.556,0,0,0,27.648-15.767,72.5,72.5,0,0,0,18.353-24.4,74.227,74.227,0,0,0,6.642-31.752A74.86,74.86,0,0,0,82.014-199.273Zm-39.359,49.5a38.238,38.238,0,0,1-9.42,12.966,41,41,0,0,1-14.127,8.053,54.144,54.144,0,0,1-17.629,2.8H-12.286v-81.492H1.479A61.5,61.5,0,0,1,19.108-205a39.9,39.9,0,0,1,14.127,7.352,35.056,35.056,0,0,1,9.42,12.5,42.407,42.407,0,0,1,3.5,17.868A41.945,41.945,0,0,1,42.655-149.774Z" transform="translate(79.929 261.436)"/><rect class="c" width="52.269" height="154.195" rx="4.722" transform="translate(851.828 26.43)"/><path class="c" d="M1558.729-198.695a73.589,73.589,0,0,0-15.045-24.242,67.645,67.645,0,0,0-23.089-15.864,74.365,74.365,0,0,0-29.328-5.733q-14.584,0-25.528,4.847a46.434,46.434,0,0,0-14.164,9.65c-.028.028-.157.131-.191.16a2.143,2.143,0,0,1-1.423.538,2.15,2.15,0,0,1-2.15-2.15V-239.2q0-.877,0-1.755V-242a2.243,2.243,0,0,0-.5-1.518,2.114,2.114,0,0,0-1.577-.732H1407.3a2.076,2.076,0,0,0-2.076,2.076V-53.311a2.076,2.076,0,0,0,2.076,2.076h42.93c.022,0,.043.007.066.007s.043-.006.065-.007a2.076,2.076,0,0,0,2.012-2.07s0-46.2,0-46.217a2.077,2.077,0,0,1,2.077-2.076,2.109,2.109,0,0,1,1.318.476q13.475,10.564,35.5,10.561a74.472,74.472,0,0,0,29.328-5.727,66.733,66.733,0,0,0,23.089-16.014,74.855,74.855,0,0,0,15.045-24.542,85.806,85.806,0,0,0,5.47-31A84.693,84.693,0,0,0,1558.729-198.695Zm-50.6,44.667a30.643,30.643,0,0,1-6.683,9.844,26.11,26.11,0,0,1-9.419,5.876,32.609,32.609,0,0,1-11.1,1.909,31.7,31.7,0,0,1-10.787-1.909,26.11,26.11,0,0,1-9.419-5.876,30.558,30.558,0,0,1-6.684-9.844,34.1,34.1,0,0,1-2.587-13.812,34.116,34.116,0,0,1,2.587-13.812,28.836,28.836,0,0,1,6.684-9.695,25.405,25.405,0,0,1,9.419-5.583,33.961,33.961,0,0,1,10.787-1.765,34.034,34.034,0,0,1,11.244,1.909,25.988,25.988,0,0,1,9.574,5.876,28.921,28.921,0,0,1,6.535,9.844,35.2,35.2,0,0,1,2.433,13.518A33.282,33.282,0,0,1,1508.13-154.028Z" transform="translate(-737.607 261.84)"/><path class="c" d="M798.518-213.89l-27.039,56.914-6.061,12.758L732.789-213.89H677.434L753.383-66.938c-.113-.214-.2-.444-.3-.664.12.26.228.528.364.779l.1.189a13.689,13.689,0,0,0,12.077,7,13.691,13.691,0,0,0,12.431-8.25l1.441-2.564,74.38-143.442Z" transform="translate(-329.856 244.672)"/><path class="c" d="M1176.582-140.386a6.955,6.955,0,0,1,.485.843l-64.792-139.908v0a6.891,6.891,0,0,0-6.432-4.443,6.892,6.892,0,0,0-6.431,4.44l-64.707,139.7.025.041a6.828,6.828,0,0,0-.806,3.173,6.9,6.9,0,0,0,6.9,6.9h34.288a6.9,6.9,0,0,0,6.316-4.132l24.526-55.453,24.321,55.493.047.03a6.894,6.894,0,0,0,6.268,4.061h34.255a6.9,6.9,0,0,0,6.9-6.9A6.871,6.871,0,0,0,1176.582-140.386Z" transform="translate(-529.584 283.89)"/><path class="c" d="M469.28-201.011a66.057,66.057,0,0,0-14.449-22.2,68.72,68.72,0,0,0-22.966-15.146,78.657,78.657,0,0,0-30.262-5.584,86.247,86.247,0,0,0-31.936,5.876,80.553,80.553,0,0,0-25.854,16.18,74.27,74.27,0,0,0-17.185,24.416,74.776,74.776,0,0,0-6.233,30.584,74.776,74.776,0,0,0,6.233,30.583,71.233,71.233,0,0,0,17.644,24.416,84.015,84.015,0,0,0,27.068,16.18,97.425,97.425,0,0,0,34.494,6.065,100.039,100.039,0,0,0,55.131-16.206,6.878,6.878,0,0,0,3.328-5.879,6.858,6.858,0,0,0-1.864-4.69,7,7,0,0,1,.554.671l-12.026-21.925-.026.007a6.882,6.882,0,0,0-6.165-3.855,6.873,6.873,0,0,0-2.658.534c-.037.018-.074.034-.111.053a84.037,84.037,0,0,1-13.63,5.516,71.208,71.208,0,0,1-20.683,2.944q-12.474,0-21.136-4.124a26.926,26.926,0,0,1-12.927-12.652h91.933c.012,0,.023,0,.036,0a6.9,6.9,0,0,0,6.9-6.9,6.907,6.907,0,0,1-.125,1.241c.383-1.862.722-3.84,1.011-5.946a97.8,97.8,0,0,0,.912-13.394A71.936,71.936,0,0,0,469.28-201.011ZM371.8-182.179q3.34-10.6,10.643-16.326a26.8,26.8,0,0,1,17.034-5.742,26.818,26.818,0,0,1,17.336,5.888q7.294,5.894,7.907,16.18Z" transform="translate(-129.821 261.509)"/><path class="c" d="M1252.329,136.646h-48.116c-1.147,0-2.077,1.267-2.077,2.831V344.011c0,1.563.93,2.83,2.077,2.83h48.116c1.146,0,2.076-1.267,2.076-2.83V139.477C1254.406,137.913,1253.476,136.646,1252.329,136.646Z" transform="translate(-623.826 48.28)"/><path class="c" d="M926.728,221.305a73.584,73.584,0,0,0-15.045-24.242A67.646,67.646,0,0,0,888.595,181.2a74.366,74.366,0,0,0-29.328-5.733q-14.584,0-25.528,4.847a46.435,46.435,0,0,0-14.164,9.65c-.028.028-.157.131-.191.161a2.15,2.15,0,0,1-3.572-1.612V180.8q0-.877,0-1.755V178a2.242,2.242,0,0,0-.5-1.518,2.113,2.113,0,0,0-1.577-.732H775.3a2.076,2.076,0,0,0-2.076,2.076V366.689a2.076,2.076,0,0,0,2.076,2.077h42.93c.022,0,.043.007.066.007s.043-.006.066-.007a2.076,2.076,0,0,0,2.012-2.07s0-46.2,0-46.217a2.077,2.077,0,0,1,2.076-2.076,2.109,2.109,0,0,1,1.318.476q13.475,10.564,35.5,10.561a74.472,74.472,0,0,0,29.328-5.727A66.734,66.734,0,0,0,911.684,307.7a74.851,74.851,0,0,0,15.045-24.542,85.806,85.806,0,0,0,5.47-31A84.693,84.693,0,0,0,926.728,221.305Zm-50.6,44.667a30.641,30.641,0,0,1-6.683,9.844,26.112,26.112,0,0,1-9.419,5.876,32.608,32.608,0,0,1-11.1,1.909,31.7,31.7,0,0,1-10.787-1.909,26.111,26.111,0,0,1-9.419-5.876,30.556,30.556,0,0,1-6.684-9.844,38.165,38.165,0,0,1,0-27.624,28.833,28.833,0,0,1,6.684-9.694,25.405,25.405,0,0,1,9.419-5.583,33.958,33.958,0,0,1,22.031.144,25.983,25.983,0,0,1,9.573,5.876,28.92,28.92,0,0,1,6.536,9.844,35.2,35.2,0,0,1,2.433,13.518A33.28,33.28,0,0,1,876.13,265.972Z" transform="translate(-383.522 26.531)"/><path class="c" d="M166.518,176.11l-27.039,56.914-6.061,12.758L100.789,176.11H45.434l75.949,146.952c-.113-.214-.2-.444-.3-.664.12.26.228.528.364.779l.1.189a13.69,13.69,0,0,0,24.508-1.25l1.441-2.564,74.38-143.442Z" transform="translate(24.229 26.17)"/><path class="c" d="M534.582,319.614a6.938,6.938,0,0,1,.485.843L470.275,180.549v0a6.878,6.878,0,0,0-12.863,0l-64.707,139.7.025.041a6.828,6.828,0,0,0-.806,3.173,6.9,6.9,0,0,0,6.9,6.9h34.288a6.9,6.9,0,0,0,6.316-4.132l24.526-55.453,24.321,55.493.047.03a6.894,6.894,0,0,0,6.268,4.061H528.85a6.9,6.9,0,0,0,5.732-10.753Z" transform="translate(-169.897 26.17)"/><path class="c" d="M1541.014,302.727a70.248,70.248,0,0,0-18.354-24.17,81.885,81.885,0,0,0-27.648-15.175,108.937,108.937,0,0,0-34.29-5.195h-48.8a6.9,6.9,0,0,0-6.9,6.9V405.515a6.9,6.9,0,0,0,6.9,6.9h48.794a102.9,102.9,0,0,0,34.3-5.781,84.553,84.553,0,0,0,27.648-15.767,72.5,72.5,0,0,0,18.354-24.4,79.793,79.793,0,0,0,0-63.745Zm-39.359,49.5a38.238,38.238,0,0,1-9.42,12.966,41,41,0,0,1-14.127,8.053,54.143,54.143,0,0,1-17.629,2.8h-13.765V294.554h13.765A61.5,61.5,0,0,1,1478.108,297a39.907,39.907,0,0,1,14.127,7.352,35.055,35.055,0,0,1,9.42,12.5,42.407,42.407,0,0,1,3.5,17.868A41.945,41.945,0,0,1,1501.655,352.226Z" transform="translate(-737.492 -19.814)"/><path class="c" d="M1928.28,200.989a66.056,66.056,0,0,0-14.448-22.2,68.721,68.721,0,0,0-22.966-15.146,78.658,78.658,0,0,0-30.262-5.584,86.249,86.249,0,0,0-31.936,5.876,80.559,80.559,0,0,0-25.854,16.18,76.9,76.9,0,0,0-17.185,85.583,71.236,71.236,0,0,0,17.644,24.416,84.016,84.016,0,0,0,27.068,16.18,97.424,97.424,0,0,0,34.493,6.065,100.038,100.038,0,0,0,55.131-16.206,6.847,6.847,0,0,0,1.464-10.569,7,7,0,0,1,.554.671l-12.026-21.925-.025.007a6.864,6.864,0,0,0-8.823-3.321c-.037.018-.074.034-.111.053a84.03,84.03,0,0,1-13.63,5.516,71.207,71.207,0,0,1-20.683,2.944q-12.474,0-21.136-4.124a26.927,26.927,0,0,1-12.927-12.652h91.933c.012,0,.023,0,.036,0a6.9,6.9,0,0,0,6.9-6.9,6.9,6.9,0,0,1-.125,1.241c.383-1.862.722-3.84,1.011-5.946a97.76,97.76,0,0,0,.912-13.394A71.934,71.934,0,0,0,1928.28,200.989ZM1830.8,219.821q3.34-10.6,10.643-16.326a28.3,28.3,0,0,1,34.37.146q7.294,5.894,7.907,16.18Z" transform="translate(-947.241 36.285)"/><path class="c" d="M23.014,640.727a70.25,70.25,0,0,0-18.353-24.17,81.886,81.886,0,0,0-27.648-15.175,108.938,108.938,0,0,0-34.29-5.195h-48.8a6.9,6.9,0,0,0-6.9,6.9V743.515a6.9,6.9,0,0,0,6.9,6.9h48.794a102.9,102.9,0,0,0,34.3-5.781A84.557,84.557,0,0,0,4.661,728.872a72.5,72.5,0,0,0,18.353-24.4,74.227,74.227,0,0,0,6.642-31.752A74.86,74.86,0,0,0,23.014,640.727Zm-39.359,49.5a38.239,38.239,0,0,1-9.42,12.966,41,41,0,0,1-14.127,8.053,54.144,54.144,0,0,1-17.629,2.8H-71.286V632.554h13.765A61.5,61.5,0,0,1-39.892,635a39.905,39.905,0,0,1,14.127,7.353,35.054,35.054,0,0,1,9.42,12.5,42.407,42.407,0,0,1,3.5,17.868A41.945,41.945,0,0,1-16.345,690.226Z" transform="translate(112.984 -209.182)"/><path class="c" d="M1884.329,571.646h-48.116c-1.147,0-2.076,1.207-2.076,2.7V769.128c0,1.489.929,2.7,2.076,2.7h48.116c1.146,0,2.076-1.207,2.076-2.7V574.342C1886.406,572.853,1885.476,571.646,1884.329,571.646Z" transform="translate(-977.911 -195.433)"/><path class="c" d="M1558.729,721.305a73.589,73.589,0,0,0-15.045-24.242,67.645,67.645,0,0,0-23.089-15.864,74.367,74.367,0,0,0-29.328-5.733q-14.584,0-25.528,4.847a46.433,46.433,0,0,0-14.164,9.65c-.028.028-.157.131-.191.16a2.15,2.15,0,0,1-3.572-1.612V680.8q0-.877,0-1.755V678a2.243,2.243,0,0,0-.5-1.518,2.114,2.114,0,0,0-1.577-.732H1407.3a2.076,2.076,0,0,0-2.076,2.076V866.689a2.076,2.076,0,0,0,2.076,2.076h42.93c.022,0,.043.007.066.007s.043-.006.065-.007a2.076,2.076,0,0,0,2.012-2.07s0-46.2,0-46.217a2.077,2.077,0,0,1,2.077-2.076,2.109,2.109,0,0,1,1.318.476q13.475,10.564,35.5,10.561a74.472,74.472,0,0,0,29.328-5.727,66.732,66.732,0,0,0,23.089-16.013,74.855,74.855,0,0,0,15.045-24.542,85.807,85.807,0,0,0,5.47-31A84.693,84.693,0,0,0,1558.729,721.305Zm-50.6,44.667a30.644,30.644,0,0,1-6.683,9.844,26.11,26.11,0,0,1-9.419,5.876,32.608,32.608,0,0,1-11.1,1.909,31.7,31.7,0,0,1-10.787-1.909,26.11,26.11,0,0,1-9.419-5.876,30.558,30.558,0,0,1-6.684-9.844,38.166,38.166,0,0,1,0-27.624,28.835,28.835,0,0,1,6.684-9.695,25.4,25.4,0,0,1,9.419-5.583,33.959,33.959,0,0,1,22.031.144,25.987,25.987,0,0,1,9.574,5.876,28.922,28.922,0,0,1,6.535,9.844,35.2,35.2,0,0,1,2.433,13.518A33.282,33.282,0,0,1,1508.13,765.972Z" transform="translate(-737.607 -253.599)"/><path class="c" d="M798.518,676.11l-27.039,56.914-6.061,12.758L732.789,676.11H677.434l75.949,146.952c-.113-.214-.2-.444-.3-.664.12.26.228.528.364.779l.1.189a13.69,13.69,0,0,0,24.508-1.25l1.441-2.564,74.38-143.442Z" transform="translate(-329.856 -253.96)"/><path class="c" d="M1166.582,819.614a6.963,6.963,0,0,1,.485.843l-64.793-139.908v0a6.878,6.878,0,0,0-12.863,0l-64.707,139.7.025.041a6.826,6.826,0,0,0-.806,3.173,6.9,6.9,0,0,0,6.9,6.9h34.288a6.9,6.9,0,0,0,6.316-4.132l-.01.045,24.536-55.5,24.321,55.493.047.03a6.894,6.894,0,0,0,6.268,4.061h34.255a6.9,6.9,0,0,0,5.732-10.753Z" transform="translate(-523.981 -253.96)"/><path class="c" d="M426.929,643.072a69.016,69.016,0,0,0-15.094-23.193,71.791,71.791,0,0,0-23.992-15.822,82.17,82.17,0,0,0-31.614-5.833,90.1,90.1,0,0,0-33.362,6.138,84.145,84.145,0,0,0-27.008,16.9,80.328,80.328,0,0,0-17.952,89.4,74.411,74.411,0,0,0,18.432,25.506,87.776,87.776,0,0,0,28.276,16.9,101.783,101.783,0,0,0,36.034,6.335,104.509,104.509,0,0,0,57.593-16.929,7.153,7.153,0,0,0,1.529-11.041,7.259,7.259,0,0,1,.579.7l-12.562-22.9-.027.007a7.172,7.172,0,0,0-9.217-3.47c-.039.02-.077.036-.116.056A87.8,87.8,0,0,1,384.19,711.6a74.386,74.386,0,0,1-21.606,3.076q-13.031,0-22.079-4.308A28.126,28.126,0,0,1,327,697.147h96.038c.013,0,.025,0,.037,0a7.213,7.213,0,0,0,7.213-7.213,7.226,7.226,0,0,1-.131,1.3c.4-1.945.755-4.012,1.056-6.211a102.148,102.148,0,0,0,.953-13.993A75.158,75.158,0,0,0,426.929,643.072ZM325.095,662.745q3.489-11.076,11.118-17.055a29.568,29.568,0,0,1,35.905.153q7.62,6.157,8.26,16.9Z" transform="translate(-102.368 -210.323)"/></g><g transform="translate(1978.256)"><path class="c" d="M82.014-199.273a70.25,70.25,0,0,0-18.353-24.17,81.889,81.889,0,0,0-27.648-15.175,108.937,108.937,0,0,0-34.29-5.195h-48.8a6.9,6.9,0,0,0-6.9,6.9V-96.485a6.9,6.9,0,0,0,6.9,6.9H1.715a102.9,102.9,0,0,0,34.3-5.781,84.556,84.556,0,0,0,27.648-15.767,72.5,72.5,0,0,0,18.353-24.4,74.227,74.227,0,0,0,6.642-31.752A74.86,74.86,0,0,0,82.014-199.273Zm-39.359,49.5a38.238,38.238,0,0,1-9.42,12.966,41,41,0,0,1-14.127,8.053,54.144,54.144,0,0,1-17.629,2.8H-12.286v-81.492H1.479A61.5,61.5,0,0,1,19.108-205a39.9,39.9,0,0,1,14.127,7.352,35.056,35.056,0,0,1,9.42,12.5,42.407,42.407,0,0,1,3.5,17.868A41.945,41.945,0,0,1,42.655-149.774Z" transform="translate(79.929 261.436)"/><rect class="c" width="52.269" height="154.195" rx="4.722" transform="translate(851.828 26.43)"/><path class="c" d="M1558.729-198.695a73.589,73.589,0,0,0-15.045-24.242,67.645,67.645,0,0,0-23.089-15.864,74.365,74.365,0,0,0-29.328-5.733q-14.584,0-25.528,4.847a46.434,46.434,0,0,0-14.164,9.65c-.028.028-.157.131-.191.16a2.143,2.143,0,0,1-1.423.538,2.15,2.15,0,0,1-2.15-2.15V-239.2q0-.877,0-1.755V-242a2.243,2.243,0,0,0-.5-1.518,2.114,2.114,0,0,0-1.577-.732H1407.3a2.076,2.076,0,0,0-2.076,2.076V-53.311a2.076,2.076,0,0,0,2.076,2.076h42.93c.022,0,.043.007.066.007s.043-.006.065-.007a2.076,2.076,0,0,0,2.012-2.07s0-46.2,0-46.217a2.077,2.077,0,0,1,2.077-2.076,2.109,2.109,0,0,1,1.318.476q13.475,10.564,35.5,10.561a74.472,74.472,0,0,0,29.328-5.727,66.733,66.733,0,0,0,23.089-16.014,74.855,74.855,0,0,0,15.045-24.542,85.806,85.806,0,0,0,5.47-31A84.693,84.693,0,0,0,1558.729-198.695Zm-50.6,44.667a30.643,30.643,0,0,1-6.683,9.844,26.11,26.11,0,0,1-9.419,5.876,32.609,32.609,0,0,1-11.1,1.909,31.7,31.7,0,0,1-10.787-1.909,26.11,26.11,0,0,1-9.419-5.876,30.558,30.558,0,0,1-6.684-9.844,34.1,34.1,0,0,1-2.587-13.812,34.116,34.116,0,0,1,2.587-13.812,28.836,28.836,0,0,1,6.684-9.695,25.405,25.405,0,0,1,9.419-5.583,33.961,33.961,0,0,1,10.787-1.765,34.034,34.034,0,0,1,11.244,1.909,25.988,25.988,0,0,1,9.574,5.876,28.921,28.921,0,0,1,6.535,9.844,35.2,35.2,0,0,1,2.433,13.518A33.282,33.282,0,0,1,1508.13-154.028Z" transform="translate(-737.607 261.84)"/><path class="c" d="M798.518-213.89l-27.039,56.914-6.061,12.758L732.789-213.89H677.434L753.383-66.938c-.113-.214-.2-.444-.3-.664.12.26.228.528.364.779l.1.189a13.689,13.689,0,0,0,12.077,7,13.691,13.691,0,0,0,12.431-8.25l1.441-2.564,74.38-143.442Z" transform="translate(-329.856 244.672)"/><path class="c" d="M1176.582-140.386a6.955,6.955,0,0,1,.485.843l-64.792-139.908v0a6.891,6.891,0,0,0-6.432-4.443,6.892,6.892,0,0,0-6.431,4.44l-64.707,139.7.025.041a6.828,6.828,0,0,0-.806,3.173,6.9,6.9,0,0,0,6.9,6.9h34.288a6.9,6.9,0,0,0,6.316-4.132l24.526-55.453,24.321,55.493.047.03a6.894,6.894,0,0,0,6.268,4.061h34.255a6.9,6.9,0,0,0,6.9-6.9A6.871,6.871,0,0,0,1176.582-140.386Z" transform="translate(-529.584 283.89)"/><path class="c" d="M469.28-201.011a66.057,66.057,0,0,0-14.449-22.2,68.72,68.72,0,0,0-22.966-15.146,78.657,78.657,0,0,0-30.262-5.584,86.247,86.247,0,0,0-31.936,5.876,80.553,80.553,0,0,0-25.854,16.18,74.27,74.27,0,0,0-17.185,24.416,74.776,74.776,0,0,0-6.233,30.584,74.776,74.776,0,0,0,6.233,30.583,71.233,71.233,0,0,0,17.644,24.416,84.015,84.015,0,0,0,27.068,16.18,97.425,97.425,0,0,0,34.494,6.065,100.039,100.039,0,0,0,55.131-16.206,6.878,6.878,0,0,0,3.328-5.879,6.858,6.858,0,0,0-1.864-4.69,7,7,0,0,1,.554.671l-12.026-21.925-.026.007a6.882,6.882,0,0,0-6.165-3.855,6.873,6.873,0,0,0-2.658.534c-.037.018-.074.034-.111.053a84.037,84.037,0,0,1-13.63,5.516,71.208,71.208,0,0,1-20.683,2.944q-12.474,0-21.136-4.124a26.926,26.926,0,0,1-12.927-12.652h91.933c.012,0,.023,0,.036,0a6.9,6.9,0,0,0,6.9-6.9,6.907,6.907,0,0,1-.125,1.241c.383-1.862.722-3.84,1.011-5.946a97.8,97.8,0,0,0,.912-13.394A71.936,71.936,0,0,0,469.28-201.011ZM371.8-182.179q3.34-10.6,10.643-16.326a26.8,26.8,0,0,1,17.034-5.742,26.818,26.818,0,0,1,17.336,5.888q7.294,5.894,7.907,16.18Z" transform="translate(-129.821 261.509)"/><path class="c" d="M1252.329,136.646h-48.116c-1.147,0-2.077,1.267-2.077,2.831V344.011c0,1.563.93,2.83,2.077,2.83h48.116c1.146,0,2.076-1.267,2.076-2.83V139.477C1254.406,137.913,1253.476,136.646,1252.329,136.646Z" transform="translate(-623.826 48.28)"/><path class="c" d="M926.728,221.305a73.584,73.584,0,0,0-15.045-24.242A67.646,67.646,0,0,0,888.595,181.2a74.366,74.366,0,0,0-29.328-5.733q-14.584,0-25.528,4.847a46.435,46.435,0,0,0-14.164,9.65c-.028.028-.157.131-.191.161a2.15,2.15,0,0,1-3.572-1.612V180.8q0-.877,0-1.755V178a2.242,2.242,0,0,0-.5-1.518,2.113,2.113,0,0,0-1.577-.732H775.3a2.076,2.076,0,0,0-2.076,2.076V366.689a2.076,2.076,0,0,0,2.076,2.077h42.93c.022,0,.043.007.066.007s.043-.006.066-.007a2.076,2.076,0,0,0,2.012-2.07s0-46.2,0-46.217a2.077,2.077,0,0,1,2.076-2.076,2.109,2.109,0,0,1,1.318.476q13.475,10.564,35.5,10.561a74.472,74.472,0,0,0,29.328-5.727A66.734,66.734,0,0,0,911.684,307.7a74.851,74.851,0,0,0,15.045-24.542,85.806,85.806,0,0,0,5.47-31A84.693,84.693,0,0,0,926.728,221.305Zm-50.6,44.667a30.641,30.641,0,0,1-6.683,9.844,26.112,26.112,0,0,1-9.419,5.876,32.608,32.608,0,0,1-11.1,1.909,31.7,31.7,0,0,1-10.787-1.909,26.111,26.111,0,0,1-9.419-5.876,30.556,30.556,0,0,1-6.684-9.844,38.165,38.165,0,0,1,0-27.624,28.833,28.833,0,0,1,6.684-9.694,25.405,25.405,0,0,1,9.419-5.583,33.958,33.958,0,0,1,22.031.144,25.983,25.983,0,0,1,9.573,5.876,28.92,28.92,0,0,1,6.536,9.844,35.2,35.2,0,0,1,2.433,13.518A33.28,33.28,0,0,1,876.13,265.972Z" transform="translate(-383.522 26.531)"/><path class="c" d="M166.518,176.11l-27.039,56.914-6.061,12.758L100.789,176.11H45.434l75.949,146.952c-.113-.214-.2-.444-.3-.664.12.26.228.528.364.779l.1.189a13.69,13.69,0,0,0,24.508-1.25l1.441-2.564,74.38-143.442Z" transform="translate(24.229 26.17)"/><path class="c" d="M534.582,319.614a6.938,6.938,0,0,1,.485.843L470.275,180.549v0a6.878,6.878,0,0,0-12.863,0l-64.707,139.7.025.041a6.828,6.828,0,0,0-.806,3.173,6.9,6.9,0,0,0,6.9,6.9h34.288a6.9,6.9,0,0,0,6.316-4.132l24.526-55.453,24.321,55.493.047.03a6.894,6.894,0,0,0,6.268,4.061H528.85a6.9,6.9,0,0,0,5.732-10.753Z" transform="translate(-169.897 26.17)"/><path class="c" d="M1541.014,302.727a70.248,70.248,0,0,0-18.354-24.17,81.885,81.885,0,0,0-27.648-15.175,108.937,108.937,0,0,0-34.29-5.195h-48.8a6.9,6.9,0,0,0-6.9,6.9V405.515a6.9,6.9,0,0,0,6.9,6.9h48.794a102.9,102.9,0,0,0,34.3-5.781,84.553,84.553,0,0,0,27.648-15.767,72.5,72.5,0,0,0,18.354-24.4,79.793,79.793,0,0,0,0-63.745Zm-39.359,49.5a38.238,38.238,0,0,1-9.42,12.966,41,41,0,0,1-14.127,8.053,54.143,54.143,0,0,1-17.629,2.8h-13.765V294.554h13.765A61.5,61.5,0,0,1,1478.108,297a39.907,39.907,0,0,1,14.127,7.352,35.055,35.055,0,0,1,9.42,12.5,42.407,42.407,0,0,1,3.5,17.868A41.945,41.945,0,0,1,1501.655,352.226Z" transform="translate(-737.492 -19.814)"/><path class="c" d="M1928.28,200.989a66.056,66.056,0,0,0-14.448-22.2,68.721,68.721,0,0,0-22.966-15.146,78.658,78.658,0,0,0-30.262-5.584,86.249,86.249,0,0,0-31.936,5.876,80.559,80.559,0,0,0-25.854,16.18,76.9,76.9,0,0,0-17.185,85.583,71.236,71.236,0,0,0,17.644,24.416,84.016,84.016,0,0,0,27.068,16.18,97.424,97.424,0,0,0,34.493,6.065,100.038,100.038,0,0,0,55.131-16.206,6.847,6.847,0,0,0,1.464-10.569,7,7,0,0,1,.554.671l-12.026-21.925-.025.007a6.864,6.864,0,0,0-8.823-3.321c-.037.018-.074.034-.111.053a84.03,84.03,0,0,1-13.63,5.516,71.207,71.207,0,0,1-20.683,2.944q-12.474,0-21.136-4.124a26.927,26.927,0,0,1-12.927-12.652h91.933c.012,0,.023,0,.036,0a6.9,6.9,0,0,0,6.9-6.9,6.9,6.9,0,0,1-.125,1.241c.383-1.862.722-3.84,1.011-5.946a97.76,97.76,0,0,0,.912-13.394A71.934,71.934,0,0,0,1928.28,200.989ZM1830.8,219.821q3.34-10.6,10.643-16.326a28.3,28.3,0,0,1,34.37.146q7.294,5.894,7.907,16.18Z" transform="translate(-947.241 36.285)"/><path class="c" d="M23.014,640.727a70.25,70.25,0,0,0-18.353-24.17,81.886,81.886,0,0,0-27.648-15.175,108.938,108.938,0,0,0-34.29-5.195h-48.8a6.9,6.9,0,0,0-6.9,6.9V743.515a6.9,6.9,0,0,0,6.9,6.9h48.794a102.9,102.9,0,0,0,34.3-5.781A84.557,84.557,0,0,0,4.661,728.872a72.5,72.5,0,0,0,18.353-24.4,74.227,74.227,0,0,0,6.642-31.752A74.86,74.86,0,0,0,23.014,640.727Zm-39.359,49.5a38.239,38.239,0,0,1-9.42,12.966,41,41,0,0,1-14.127,8.053,54.144,54.144,0,0,1-17.629,2.8H-71.286V632.554h13.765A61.5,61.5,0,0,1-39.892,635a39.905,39.905,0,0,1,14.127,7.353,35.054,35.054,0,0,1,9.42,12.5,42.407,42.407,0,0,1,3.5,17.868A41.945,41.945,0,0,1-16.345,690.226Z" transform="translate(112.984 -209.182)"/><path class="c" d="M1884.329,571.646h-48.116c-1.147,0-2.076,1.207-2.076,2.7V769.128c0,1.489.929,2.7,2.076,2.7h48.116c1.146,0,2.076-1.207,2.076-2.7V574.342C1886.406,572.853,1885.476,571.646,1884.329,571.646Z" transform="translate(-977.911 -195.433)"/><path class="c" d="M1558.729,721.305a73.589,73.589,0,0,0-15.045-24.242,67.645,67.645,0,0,0-23.089-15.864,74.367,74.367,0,0,0-29.328-5.733q-14.584,0-25.528,4.847a46.433,46.433,0,0,0-14.164,9.65c-.028.028-.157.131-.191.16a2.15,2.15,0,0,1-3.572-1.612V680.8q0-.877,0-1.755V678a2.243,2.243,0,0,0-.5-1.518,2.114,2.114,0,0,0-1.577-.732H1407.3a2.076,2.076,0,0,0-2.076,2.076V866.689a2.076,2.076,0,0,0,2.076,2.076h42.93c.022,0,.043.007.066.007s.043-.006.065-.007a2.076,2.076,0,0,0,2.012-2.07s0-46.2,0-46.217a2.077,2.077,0,0,1,2.077-2.076,2.109,2.109,0,0,1,1.318.476q13.475,10.564,35.5,10.561a74.472,74.472,0,0,0,29.328-5.727,66.732,66.732,0,0,0,23.089-16.013,74.855,74.855,0,0,0,15.045-24.542,85.807,85.807,0,0,0,5.47-31A84.693,84.693,0,0,0,1558.729,721.305Zm-50.6,44.667a30.644,30.644,0,0,1-6.683,9.844,26.11,26.11,0,0,1-9.419,5.876,32.608,32.608,0,0,1-11.1,1.909,31.7,31.7,0,0,1-10.787-1.909,26.11,26.11,0,0,1-9.419-5.876,30.558,30.558,0,0,1-6.684-9.844,38.166,38.166,0,0,1,0-27.624,28.835,28.835,0,0,1,6.684-9.695,25.4,25.4,0,0,1,9.419-5.583,33.959,33.959,0,0,1,22.031.144,25.987,25.987,0,0,1,9.574,5.876,28.922,28.922,0,0,1,6.535,9.844,35.2,35.2,0,0,1,2.433,13.518A33.282,33.282,0,0,1,1508.13,765.972Z" transform="translate(-737.607 -253.599)"/><path class="c" d="M798.518,676.11l-27.039,56.914-6.061,12.758L732.789,676.11H677.434l75.949,146.952c-.113-.214-.2-.444-.3-.664.12.26.228.528.364.779l.1.189a13.69,13.69,0,0,0,24.508-1.25l1.441-2.564,74.38-143.442Z" transform="translate(-329.856 -253.96)"/><path class="c" d="M1166.582,819.614a6.963,6.963,0,0,1,.485.843l-64.793-139.908v0a6.878,6.878,0,0,0-12.863,0l-64.707,139.7.025.041a6.826,6.826,0,0,0-.806,3.173,6.9,6.9,0,0,0,6.9,6.9h34.288a6.9,6.9,0,0,0,6.316-4.132l-.01.045,24.536-55.5,24.321,55.493.047.03a6.894,6.894,0,0,0,6.268,4.061h34.255a6.9,6.9,0,0,0,5.732-10.753Z" transform="translate(-523.981 -253.96)"/><path class="c" d="M426.929,643.072a69.016,69.016,0,0,0-15.094-23.193,71.791,71.791,0,0,0-23.992-15.822,82.17,82.17,0,0,0-31.614-5.833,90.1,90.1,0,0,0-33.362,6.138,84.145,84.145,0,0,0-27.008,16.9,80.328,80.328,0,0,0-17.952,89.4,74.411,74.411,0,0,0,18.432,25.506,87.776,87.776,0,0,0,28.276,16.9,101.783,101.783,0,0,0,36.034,6.335,104.509,104.509,0,0,0,57.593-16.929,7.153,7.153,0,0,0,1.529-11.041,7.259,7.259,0,0,1,.579.7l-12.562-22.9-.027.007a7.172,7.172,0,0,0-9.217-3.47c-.039.02-.077.036-.116.056A87.8,87.8,0,0,1,384.19,711.6a74.386,74.386,0,0,1-21.606,3.076q-13.031,0-22.079-4.308A28.126,28.126,0,0,1,327,697.147h96.038c.013,0,.025,0,.037,0a7.213,7.213,0,0,0,7.213-7.213,7.226,7.226,0,0,1-.131,1.3c.4-1.945.755-4.012,1.056-6.211a102.148,102.148,0,0,0,.953-13.993A75.158,75.158,0,0,0,426.929,643.072ZM325.095,662.745q3.489-11.076,11.118-17.055a29.568,29.568,0,0,1,35.905.153q7.62,6.157,8.26,16.9Z" transform="translate(-102.368 -210.323)"/></g></g></g></g></g><g class="d"><g transform="translate(649.535 684.381) rotate(-20)"><g class="e" transform="translate(924 -113)"><ellipse class="h" cx="833" cy="833.5" rx="833" ry="833.5"/><ellipse class="i" cx="833" cy="833.5" rx="831" ry="831.5"/></g><circle class="f" cx="17.5" cy="17.5" r="17.5" transform="translate(1185 84)"/><circle class="a" cx="8.5" cy="8.5" r="8.5" transform="translate(932 558)"/></g><g transform="translate(100.027 -662.183) rotate(11)"><g class="g" transform="translate(-367 913)"><path class="h" d="M475.5,0A473.233,473.233,0,0,1,684.195,48.176C842.166,125.517,951,288.035,951,476c0,262.888-212.889,476-475.5,476S0,738.888,0,476,212.889,0,475.5,0Z"/><path class="j" d="M 475.5 4 C 459.4150085449219 4 443.1938781738281 4.81988525390625 427.2874755859375 6.43701171875 C 411.6123657226563 8.0306396484375 395.8616333007813 10.43701171875 380.472900390625 13.5892333984375 C 365.2836303710938 16.70062255859375 350.0819702148438 20.613525390625 335.2899780273438 25.2191162109375 C 320.6635131835938 29.77325439453125 306.0897216796875 35.11285400390625 291.9735107421875 41.08990478515625 C 277.9874877929688 47.0115966796875 264.1211547851563 53.698486328125 250.7593994140625 60.964599609375 C 237.4923706054688 68.17926025390625 224.4129028320313 76.13360595703125 211.88427734375 84.60675048828125 C 186.9166259765625 101.4922485351563 163.43798828125 120.88427734375 142.1006469726563 142.244140625 C 120.7631225585938 163.60400390625 101.391357421875 187.1073608398438 84.52349853515625 212.1015014648438 C 76.05926513671875 224.6433715820313 68.11309814453125 237.7368774414063 60.906005859375 251.0178833007813 C 53.64739990234375 264.3938598632813 46.967529296875 278.275146484375 41.0517578125 292.276123046875 C 35.08099365234375 306.407470703125 29.74676513671875 320.9968872070313 25.1973876953125 335.6389770507813 C 20.59649658203125 350.4468994140625 16.6876220703125 365.6648559570313 13.579345703125 380.8704833984375 C 10.43035888671875 396.2757568359375 8.0264892578125 412.0435180664063 6.43450927734375 427.7354736328125 C 4.81915283203125 443.6591186523438 4 459.8976135253906 4 476 C 4 492.1023864746094 4.81915283203125 508.3408813476563 6.43450927734375 524.2645263671875 C 8.0264892578125 539.95654296875 10.43035888671875 555.72412109375 13.579345703125 571.1295166015625 C 16.6876220703125 586.3349609375 20.59649658203125 601.5531005859375 25.1973876953125 616.3609619140625 C 29.74676513671875 631.0031127929688 35.08099365234375 645.592529296875 41.0517578125 659.723876953125 C 46.967529296875 673.724853515625 53.64739990234375 687.6061401367188 60.906005859375 700.9819946289063 C 68.11309814453125 714.2631225585938 76.05926513671875 727.3565063476563 84.52349853515625 739.8984985351563 C 101.391357421875 764.8925170898438 120.7631225585938 788.39599609375 142.1006469726563 809.755859375 C 163.43798828125 831.11572265625 186.9166259765625 850.5077514648438 211.88427734375 867.3932495117188 C 224.4129028320313 875.8663940429688 237.4923706054688 883.8207397460938 250.7593994140625 891.035400390625 C 264.1211547851563 898.301513671875 277.9874877929688 904.98828125 291.9735107421875 910.91015625 C 306.0897216796875 916.8870239257813 320.6635131835938 922.2267456054688 335.2899780273438 926.7808837890625 C 350.0819702148438 931.386474609375 365.2836303710938 935.2992553710938 380.472900390625 938.4107666015625 C 395.8616333007813 941.56298828125 411.6123657226563 943.9693603515625 427.2874755859375 945.56298828125 C 443.1938781738281 947.1801147460938 459.4150085449219 948 475.5 948 C 491.5849914550781 948 507.8061218261719 947.1801147460938 523.7125244140625 945.56298828125 C 539.3876342773438 943.9693603515625 555.1383666992188 941.56298828125 570.527099609375 938.4107666015625 C 585.7163696289063 935.2992553710938 600.91796875 931.386474609375 615.7099609375 926.7808837890625 C 630.3364868164063 922.2267456054688 644.9102783203125 916.8870239257813 659.0264892578125 910.91015625 C 673.0125122070313 904.98828125 686.87890625 898.301513671875 700.2406005859375 891.035400390625 C 713.5076293945313 883.8207397460938 726.587158203125 875.8663940429688 739.11572265625 867.3932495117188 C 764.0833740234375 850.5077514648438 787.56201171875 831.11572265625 808.8993530273438 809.755859375 C 830.2368774414063 788.39599609375 849.608642578125 764.8925170898438 866.4765014648438 739.8984985351563 C 874.9407348632813 727.3565063476563 882.8868408203125 714.2631225585938 890.093994140625 700.9819946289063 C 897.3526000976563 687.6061401367188 904.032470703125 673.724853515625 909.9482421875 659.723876953125 C 915.9190063476563 645.592529296875 921.2532348632813 631.0031127929688 925.8026123046875 616.3609619140625 C 930.4035034179688 601.5531005859375 934.3123779296875 586.3349609375 937.420654296875 571.1295166015625 C 940.5696411132813 555.72412109375 942.9735107421875 539.95654296875 944.5654907226563 524.2645263671875 C 946.1808471679688 508.3408813476563 947 492.1023864746094 947 476 C 947 430.349853515625 940.5032348632813 385.2202758789063 927.6903686523438 341.8646240234375 C 915.2813720703125 299.875732421875 897.0362548828125 259.8002319335938 873.4618530273438 222.7515258789063 C 850.2422485351563 186.2603759765625 822.1138916015625 153.1023559570313 789.8577880859375 124.1982421875 C 757.4762573242188 95.1817626953125 721.334228515625 70.81298828125 682.4359130859375 51.76873779296875 C 666.7864990234375 44.10699462890625 650.5465087890625 37.25177001953125 634.1669921875 31.39337158203125 C 617.5924072265625 25.46527099609375 600.4984130859375 20.42340087890625 583.359619140625 16.40789794921875 C 565.9752197265625 12.33477783203125 548.1424560546875 9.223388671875 530.3568725585938 7.160400390625 C 512.2782592773438 5.063232421875 493.8217468261719 4 475.5 4 M 475.5 0 C 550.34423828125 0 621.1497802734375 17.30999755859375 684.1947631835938 48.17626953125 C 842.166015625 125.5170288085938 951 288.035400390625 951 476 C 951 738.8875122070313 738.1113891601563 952 475.5 952 C 212.8886108398438 952 0 738.8875122070313 0 476 C 0 213.1123657226563 212.8886108398438 0 475.5 0 Z"/></g><circle class="f" cx="8.5" cy="8.5" r="8.5" transform="matrix(0.996, 0.087, -0.087, 0.996, 339.303, 970.715)"/></g></g></g></svg>