<svg xmlns="http://www.w3.org/2000/svg" xmlns:xlink="http://www.w3.org/1999/xlink" width="375" height="243" viewBox="0 0 375 243"><defs><style>.a{fill:#5f47ff;}.b{opacity:0.3;clip-path:url(#a);}.c{fill:none;stroke:#2c2d66;stroke-miterlimit:10;}</style><clipPath id="a"><rect class="a" width="375" height="243" transform="translate(20617 -6178)"/></clipPath></defs><g transform="translate(0 -80)"><rect class="a" width="375" height="243" transform="translate(0 80)"/><g class="b" transform="translate(-20617 6258)"><g transform="translate(20556.047 -10876.131)"><g transform="translate(-251.928 4659)"><g transform="translate(0)"><path class="c" d="M24.887-217.982A40.741,40.741,0,0,0,14.243-232a47.49,47.49,0,0,0-16.034-8.8,63.177,63.177,0,0,0-19.886-3.013h-28.3a4,4,0,0,0-4,4v81.437a4,4,0,0,0,4,4h28.3A59.677,59.677,0,0,0-1.791-157.72a49.038,49.038,0,0,0,16.034-9.144,42.047,42.047,0,0,0,10.644-14.15,43.047,43.047,0,0,0,3.852-18.414A43.414,43.414,0,0,0,24.887-217.982ZM2.061-189.276a22.176,22.176,0,0,1-5.463,7.52,23.776,23.776,0,0,1-8.193,4.67,31.4,31.4,0,0,1-10.224,1.624H-29.8v-47.26h7.983A35.668,35.668,0,0,1-11.595-221.3,23.142,23.142,0,0,1-3.4-217.037a20.33,20.33,0,0,1,5.463,7.247,24.594,24.594,0,0,1,2.031,10.362A24.325,24.325,0,0,1,2.061-189.276Z" transform="translate(119.683 254.034)"/><rect class="c" width="30.313" height="89.424" rx="4.722" transform="translate(544.662 15.328)"/><path class="c" d="M1494.247-217.95a42.678,42.678,0,0,0-8.725-14.059,39.229,39.229,0,0,0-13.39-9.2,43.128,43.128,0,0,0-17.008-3.325,36.282,36.282,0,0,0-14.8,2.811,26.93,26.93,0,0,0-8.214,5.6c-.016.016-.091.076-.111.093a1.243,1.243,0,0,1-.825.312,1.247,1.247,0,0,1-1.247-1.247v-4.472q0-.509,0-1.018v-.607a1.3,1.3,0,0,0-.289-.88,1.226,1.226,0,0,0-.915-.424h-22.291a1.2,1.2,0,0,0-1.2,1.2h0v109.527a1.2,1.2,0,0,0,1.2,1.2h24.9c.013,0,.025,0,.038,0s.025,0,.038,0a1.2,1.2,0,0,0,1.167-1.2s0-26.791,0-26.8a1.2,1.2,0,0,1,1.2-1.2,1.223,1.223,0,0,1,.765.276q7.814,6.126,20.589,6.125a43.19,43.19,0,0,0,17.008-3.321,38.7,38.7,0,0,0,13.39-9.287,43.412,43.412,0,0,0,8.725-14.233,49.764,49.764,0,0,0,3.172-17.977A49.118,49.118,0,0,0,1494.247-217.95Zm-29.344,25.9a17.774,17.774,0,0,1-3.876,5.709,15.142,15.142,0,0,1-5.462,3.408,18.912,18.912,0,0,1-6.435,1.107,18.384,18.384,0,0,1-6.256-1.107,15.142,15.142,0,0,1-5.462-3.408,17.72,17.72,0,0,1-3.876-5.709,19.774,19.774,0,0,1-1.5-8.01,19.786,19.786,0,0,1,1.5-8.01,16.722,16.722,0,0,1,3.876-5.622,14.733,14.733,0,0,1,5.462-3.238,19.7,19.7,0,0,1,6.256-1.024,19.738,19.738,0,0,1,6.521,1.107,15.072,15.072,0,0,1,5.552,3.408,16.772,16.772,0,0,1,3.79,5.709,20.411,20.411,0,0,1,1.411,7.84A19.3,19.3,0,0,1,1464.9-192.046Z" transform="translate(-967.393 254.571)"/><path class="c" d="M747.656-213.89l-15.681,33.007-3.515,7.4L709.537-213.89h-32.1l44.046,85.223c-.066-.124-.116-.257-.176-.385.07.151.132.306.211.452l.058.11a7.939,7.939,0,0,0,7,4.06,7.94,7.94,0,0,0,7.209-4.785l.836-1.487,43.136-83.188Z" transform="translate(-425.207 231.742)"/><path class="c" d="M1116.657-200.666a4.019,4.019,0,0,1,.281.489l-37.576-81.138v0a4,4,0,0,0-3.73-2.576,4,4,0,0,0-3.73,2.575L1034.378-200.3l.015.024a3.96,3.96,0,0,0-.467,1.84,4,4,0,0,0,4,4h19.885a4,4,0,0,0,3.663-2.4l14.224-32.16,14.1,32.183.027.018a4,4,0,0,0,3.635,2.355h19.866a4,4,0,0,0,4-4A3.985,3.985,0,0,0,1116.657-200.666Z" transform="translate(-690.785 283.89)"/><path class="c" d="M406.74-219.045a38.309,38.309,0,0,0-8.379-12.876,39.853,39.853,0,0,0-13.319-8.784,45.616,45.616,0,0,0-17.55-3.238,50.018,50.018,0,0,0-18.521,3.408,46.716,46.716,0,0,0-14.993,9.383,43.072,43.072,0,0,0-9.966,14.16,43.366,43.366,0,0,0-3.615,17.737,43.365,43.365,0,0,0,3.615,17.737,41.311,41.311,0,0,0,10.233,14.16,48.724,48.724,0,0,0,15.7,9.383,56.5,56.5,0,0,0,20,3.517,58.017,58.017,0,0,0,31.973-9.4,3.989,3.989,0,0,0,1.93-3.41,3.977,3.977,0,0,0-1.081-2.72,4.055,4.055,0,0,1,.321.389l-6.974-12.715-.015,0a3.991,3.991,0,0,0-3.575-2.236,3.986,3.986,0,0,0-1.542.31l-.064.031a48.736,48.736,0,0,1-7.9,3.2,41.3,41.3,0,0,1-11.995,1.707,28.362,28.362,0,0,1-12.257-2.392,15.615,15.615,0,0,1-7.5-7.337H404.58l.021,0a4,4,0,0,0,4-4,4.006,4.006,0,0,1-.072.72c.222-1.08.419-2.227.586-3.448a56.714,56.714,0,0,0,.529-7.768A41.719,41.719,0,0,0,406.74-219.045Zm-56.533,10.921a18.806,18.806,0,0,1,6.173-9.468,15.541,15.541,0,0,1,9.879-3.33,15.553,15.553,0,0,1,10.054,3.414,12.422,12.422,0,0,1,4.586,9.384Z" transform="translate(-159.221 254.13)"/><path class="c" d="M1231.246,136.646h-27.9c-.665,0-1.2.735-1.2,1.642V256.905c0,.906.539,1.641,1.2,1.641h27.9c.665,0,1.2-.735,1.2-1.641V138.288C1232.45,137.381,1231.91,136.646,1231.246,136.646Z" transform="translate(-816.099 -29.4)"/><path class="c" d="M862.246,202.05a42.674,42.674,0,0,0-8.725-14.059,39.23,39.23,0,0,0-13.39-9.2,43.127,43.127,0,0,0-17.008-3.325,36.283,36.283,0,0,0-14.8,2.811,26.931,26.931,0,0,0-8.214,5.6c-.016.016-.091.076-.111.093a1.247,1.247,0,0,1-2.072-.935v-4.472q0-.509,0-1.018v-.607a1.3,1.3,0,0,0-.289-.88,1.225,1.225,0,0,0-.914-.424H774.426a1.2,1.2,0,0,0-1.2,1.2h0V286.364a1.2,1.2,0,0,0,1.2,1.2h24.9c.013,0,.025,0,.038,0s.025,0,.038,0a1.2,1.2,0,0,0,1.167-1.2s0-26.791,0-26.8a1.2,1.2,0,0,1,1.2-1.2,1.223,1.223,0,0,1,.765.276q7.814,6.126,20.59,6.125a43.189,43.189,0,0,0,17.008-3.321,38.7,38.7,0,0,0,13.39-9.287,43.408,43.408,0,0,0,8.725-14.233,49.763,49.763,0,0,0,3.172-17.977A49.117,49.117,0,0,0,862.246,202.05Zm-29.344,25.9a17.77,17.77,0,0,1-3.876,5.709,15.143,15.143,0,0,1-5.462,3.408,18.911,18.911,0,0,1-6.435,1.107,18.385,18.385,0,0,1-6.256-1.107,15.143,15.143,0,0,1-5.462-3.408,17.72,17.72,0,0,1-3.876-5.709,22.132,22.132,0,0,1,0-16.02,16.721,16.721,0,0,1,3.876-5.622,14.734,14.734,0,0,1,5.462-3.238,19.694,19.694,0,0,1,12.777.083,15.069,15.069,0,0,1,5.552,3.408,16.773,16.773,0,0,1,3.79,5.709,20.414,20.414,0,0,1,1.411,7.84A19.3,19.3,0,0,1,832.9,227.954Z" transform="translate(-496.567 -58.32)"/><path class="c" d="M115.656,176.11,99.975,209.117l-3.515,7.4L77.537,176.11h-32.1L89.48,261.333c-.066-.124-.116-.257-.176-.385.07.151.132.306.211.452l.058.11a7.94,7.94,0,0,0,14.213-.725l.836-1.487,43.136-83.188Z" transform="translate(45.619 -58.8)"/><path class="c" d="M474.657,259.334a4.026,4.026,0,0,1,.282.489l-37.576-81.138v0a3.989,3.989,0,0,0-7.46,0L392.378,259.7l.015.024a3.96,3.96,0,0,0-.467,1.84,4,4,0,0,0,4,4h19.885a4,4,0,0,0,3.663-2.4l14.224-32.16,14.1,32.183.027.018a4,4,0,0,0,3.635,2.355h19.866a4,4,0,0,0,3.324-6.236Z" transform="translate(-212.509 -58.8)"/><path class="c" d="M-225.261,200.955a38.309,38.309,0,0,0-8.379-12.876,39.853,39.853,0,0,0-13.319-8.784,45.617,45.617,0,0,0-17.55-3.238,50.018,50.018,0,0,0-18.521,3.408,46.716,46.716,0,0,0-14.994,9.383,43.072,43.072,0,0,0-9.966,14.16,43.366,43.366,0,0,0-3.615,17.737,43.366,43.366,0,0,0,3.615,17.737,41.311,41.311,0,0,0,10.232,14.16,48.726,48.726,0,0,0,15.7,9.383,56.5,56.5,0,0,0,20,3.517,58.017,58.017,0,0,0,31.973-9.4,3.989,3.989,0,0,0,1.93-3.41,3.977,3.977,0,0,0-1.081-2.72,4.06,4.06,0,0,1,.321.389l-6.974-12.715-.015,0a3.991,3.991,0,0,0-3.575-2.236,3.986,3.986,0,0,0-1.542.31l-.064.031a48.736,48.736,0,0,1-7.9,3.2,41.3,41.3,0,0,1-11.995,1.707,28.362,28.362,0,0,1-12.257-2.392,15.616,15.616,0,0,1-7.5-7.337h53.316l.021,0a4,4,0,0,0,4-4,4.006,4.006,0,0,1-.072.72c.222-1.08.419-2.227.586-3.448a56.71,56.71,0,0,0,.529-7.768A41.718,41.718,0,0,0-225.261,200.955Zm-56.533,10.921a18.806,18.806,0,0,1,6.173-9.468,15.541,15.541,0,0,1,9.879-3.33,15.553,15.553,0,0,1,10.054,3.415,12.421,12.421,0,0,1,4.586,9.384Z" transform="translate(311.605 -58.76)"/><path class="c" d="M1483.887,284.018A40.74,40.74,0,0,0,1473.243,270a47.488,47.488,0,0,0-16.034-8.8,63.176,63.176,0,0,0-19.886-3.013h-28.3a4,4,0,0,0-4,4v81.437a4,4,0,0,0,4,4h28.3a59.677,59.677,0,0,0,19.891-3.353,49.035,49.035,0,0,0,16.034-9.144,42.046,42.046,0,0,0,10.644-14.15,46.275,46.275,0,0,0,0-36.968Zm-22.826,28.706a22.174,22.174,0,0,1-5.463,7.52,23.778,23.778,0,0,1-8.193,4.67,31.4,31.4,0,0,1-10.224,1.624H1429.2v-47.26h7.983a35.669,35.669,0,0,1,10.224,1.421,23.145,23.145,0,0,1,8.193,4.264,20.329,20.329,0,0,1,5.463,7.247,24.594,24.594,0,0,1,2.031,10.362A24.326,24.326,0,0,1,1461.061,312.724Z" transform="translate(-967.239 -119.945)"/><path class="c" d="M1865.74,182.955a38.308,38.308,0,0,0-8.379-12.876,39.855,39.855,0,0,0-13.319-8.784,45.617,45.617,0,0,0-17.55-3.238,50.019,50.019,0,0,0-18.521,3.408,46.718,46.718,0,0,0-14.993,9.383,44.594,44.594,0,0,0-9.966,49.633,41.311,41.311,0,0,0,10.233,14.16,48.722,48.722,0,0,0,15.7,9.383,56.5,56.5,0,0,0,20,3.517,58.016,58.016,0,0,0,31.973-9.4,3.971,3.971,0,0,0,.849-6.129,4.077,4.077,0,0,1,.321.389l-6.974-12.715-.015,0a3.981,3.981,0,0,0-5.117-1.926l-.064.031a48.74,48.74,0,0,1-7.9,3.2,41.3,41.3,0,0,1-11.995,1.707,28.362,28.362,0,0,1-12.257-2.392,15.615,15.615,0,0,1-7.5-7.337h53.315l.021,0a4,4,0,0,0,4-4,3.993,3.993,0,0,1-.073.72c.222-1.08.419-2.227.586-3.448a56.706,56.706,0,0,0,.529-7.768A41.714,41.714,0,0,0,1865.74,182.955Zm-56.533,10.921a18.805,18.805,0,0,1,6.172-9.468,16.414,16.414,0,0,1,19.933.084,12.421,12.421,0,0,1,4.586,9.384Z" transform="translate(-1246.143 -45.351)"/><path class="c" d="M-34.113,622.018A40.741,40.741,0,0,0-44.757,608a47.489,47.489,0,0,0-16.034-8.8,63.178,63.178,0,0,0-19.886-3.013h-28.3a4,4,0,0,0-4,4v81.437a4,4,0,0,0,4,4h28.3a59.678,59.678,0,0,0,19.891-3.353,49.037,49.037,0,0,0,16.034-9.144,42.046,42.046,0,0,0,10.644-14.15,43.047,43.047,0,0,0,3.852-18.414A43.414,43.414,0,0,0-34.113,622.018Zm-22.826,28.706a22.176,22.176,0,0,1-5.463,7.52,23.776,23.776,0,0,1-8.193,4.67,31.4,31.4,0,0,1-10.224,1.624H-88.8v-47.26h7.983A35.67,35.67,0,0,1-70.595,618.7a23.144,23.144,0,0,1,8.193,4.264,20.33,20.33,0,0,1,5.463,7.247,24.594,24.594,0,0,1,2.031,10.362A24.326,24.326,0,0,1-56.939,650.724Z" transform="translate(163.637 -371.748)"/><path class="c" d="M1863.246,571.646h-27.9a1.419,1.419,0,0,0-1.2,1.563V686.174a1.419,1.419,0,0,0,1.2,1.563h27.9a1.42,1.42,0,0,0,1.2-1.563V573.209A1.42,1.42,0,0,0,1863.246,571.646Z" transform="translate(-1286.925 -353.465)"/><path class="c" d="M1494.247,702.05a42.678,42.678,0,0,0-8.725-14.059,39.231,39.231,0,0,0-13.39-9.2,43.129,43.129,0,0,0-17.008-3.325,36.282,36.282,0,0,0-14.8,2.811,26.929,26.929,0,0,0-8.214,5.6c-.016.016-.091.076-.111.093a1.247,1.247,0,0,1-2.072-.935v-4.472q0-.509,0-1.018v-.607a1.3,1.3,0,0,0-.289-.88,1.225,1.225,0,0,0-.915-.424h-22.291a1.2,1.2,0,0,0-1.2,1.2h0V786.364a1.2,1.2,0,0,0,1.2,1.2h24.9c.013,0,.025,0,.038,0s.025,0,.038,0a1.2,1.2,0,0,0,1.167-1.2s0-26.791,0-26.8a1.2,1.2,0,0,1,1.2-1.2,1.223,1.223,0,0,1,.765.276q7.814,6.126,20.589,6.125a43.19,43.19,0,0,0,17.008-3.321,38.7,38.7,0,0,0,13.39-9.287,43.413,43.413,0,0,0,8.725-14.233,49.765,49.765,0,0,0,3.172-17.977A49.118,49.118,0,0,0,1494.247,702.05Zm-29.344,25.9a17.774,17.774,0,0,1-3.876,5.709,15.142,15.142,0,0,1-5.462,3.408,18.912,18.912,0,0,1-6.435,1.107,18.384,18.384,0,0,1-6.256-1.107,15.142,15.142,0,0,1-5.462-3.408,17.721,17.721,0,0,1-3.876-5.709,22.133,22.133,0,0,1,0-16.02,16.722,16.722,0,0,1,3.876-5.622,14.732,14.732,0,0,1,5.462-3.238,19.694,19.694,0,0,1,12.777.083,15.071,15.071,0,0,1,5.552,3.408,16.773,16.773,0,0,1,3.79,5.709,20.41,20.41,0,0,1,1.411,7.84A19.3,19.3,0,0,1,1464.9,727.954Z" transform="translate(-967.393 -430.809)"/><path class="c" d="M747.656,676.11l-15.681,33.006-3.515,7.4L709.537,676.11h-32.1l44.046,85.223c-.066-.124-.116-.257-.176-.385.07.151.132.306.211.452l.058.11a7.94,7.94,0,0,0,14.213-.725l.836-1.487,43.136-83.187Z" transform="translate(-425.207 -431.289)"/><path class="c" d="M1106.657,759.334a4.063,4.063,0,0,1,.281.489l-37.576-81.138v0a3.989,3.989,0,0,0-7.46,0L1024.378,759.7l.015.024a3.957,3.957,0,0,0-.468,1.84,4,4,0,0,0,4,4h19.885a4,4,0,0,0,3.663-2.4l-.005.026,14.229-32.186,14.1,32.183.027.018a4,4,0,0,0,3.635,2.355h19.866a4,4,0,0,0,3.324-6.236Z" transform="translate(-683.335 -431.289)"/><path class="c" d="M361.6,624.233a40.025,40.025,0,0,0-8.754-13.451,41.635,41.635,0,0,0-13.914-9.176,47.654,47.654,0,0,0-18.334-3.383,52.25,52.25,0,0,0-19.348,3.56,48.8,48.8,0,0,0-15.663,9.8,46.585,46.585,0,0,0-10.411,51.849,43.154,43.154,0,0,0,10.69,14.792,50.9,50.9,0,0,0,16.4,9.8,59.027,59.027,0,0,0,20.9,3.674,60.609,60.609,0,0,0,33.4-9.818,4.149,4.149,0,0,0,.887-6.4,4.2,4.2,0,0,1,.336.407l-7.285-13.283-.016,0a4.159,4.159,0,0,0-5.345-2.012l-.067.032a50.921,50.921,0,0,1-8.257,3.342,43.139,43.139,0,0,1-12.53,1.784,29.629,29.629,0,0,1-12.8-2.5,16.312,16.312,0,0,1-7.831-7.665h55.7l.022,0a4.183,4.183,0,0,0,4.183-4.183,4.19,4.19,0,0,1-.076.752c.232-1.128.438-2.327.612-3.6a59.24,59.24,0,0,0,.553-8.115A43.587,43.587,0,0,0,361.6,624.233Zm-59.058,11.409a19.647,19.647,0,0,1,6.448-9.891,17.147,17.147,0,0,1,20.823.089,12.976,12.976,0,0,1,4.79,9.8Z" transform="translate(-122.717 -373.265)"/></g><g transform="translate(598.221)"><path class="c" d="M24.887-217.982A40.741,40.741,0,0,0,14.243-232a47.49,47.49,0,0,0-16.034-8.8,63.177,63.177,0,0,0-19.886-3.013h-28.3a4,4,0,0,0-4,4v81.437a4,4,0,0,0,4,4h28.3A59.677,59.677,0,0,0-1.791-157.72a49.038,49.038,0,0,0,16.034-9.144,42.047,42.047,0,0,0,10.644-14.15,43.047,43.047,0,0,0,3.852-18.414A43.414,43.414,0,0,0,24.887-217.982ZM2.061-189.276a22.176,22.176,0,0,1-5.463,7.52,23.776,23.776,0,0,1-8.193,4.67,31.4,31.4,0,0,1-10.224,1.624H-29.8v-47.26h7.983A35.668,35.668,0,0,1-11.595-221.3,23.142,23.142,0,0,1-3.4-217.037a20.33,20.33,0,0,1,5.463,7.247,24.594,24.594,0,0,1,2.031,10.362A24.325,24.325,0,0,1,2.061-189.276Z" transform="translate(69.03 254.034)"/><rect class="c" width="30.313" height="89.424" rx="4.722" transform="translate(494.009 15.328)"/><path class="c" d="M1494.247-217.95a42.678,42.678,0,0,0-8.725-14.059,39.229,39.229,0,0,0-13.39-9.2,43.128,43.128,0,0,0-17.008-3.325,36.282,36.282,0,0,0-14.8,2.811,26.93,26.93,0,0,0-8.214,5.6c-.016.016-.091.076-.111.093a1.243,1.243,0,0,1-.825.312,1.247,1.247,0,0,1-1.247-1.247v-4.472q0-.509,0-1.018v-.607a1.3,1.3,0,0,0-.289-.88,1.226,1.226,0,0,0-.915-.424h-22.291a1.2,1.2,0,0,0-1.2,1.2h0v109.527a1.2,1.2,0,0,0,1.2,1.2h24.9c.013,0,.025,0,.038,0s.025,0,.038,0a1.2,1.2,0,0,0,1.167-1.2s0-26.791,0-26.8a1.2,1.2,0,0,1,1.2-1.2,1.223,1.223,0,0,1,.765.276q7.814,6.126,20.589,6.125a43.19,43.19,0,0,0,17.008-3.321,38.7,38.7,0,0,0,13.39-9.287,43.412,43.412,0,0,0,8.725-14.233,49.764,49.764,0,0,0,3.172-17.977A49.118,49.118,0,0,0,1494.247-217.95Zm-29.344,25.9a17.774,17.774,0,0,1-3.876,5.709,15.142,15.142,0,0,1-5.462,3.408,18.912,18.912,0,0,1-6.435,1.107,18.384,18.384,0,0,1-6.256-1.107,15.142,15.142,0,0,1-5.462-3.408,17.72,17.72,0,0,1-3.876-5.709,19.774,19.774,0,0,1-1.5-8.01,19.786,19.786,0,0,1,1.5-8.01,16.722,16.722,0,0,1,3.876-5.622,14.733,14.733,0,0,1,5.462-3.238,19.7,19.7,0,0,1,6.256-1.024,19.738,19.738,0,0,1,6.521,1.107,15.072,15.072,0,0,1,5.552,3.408,16.772,16.772,0,0,1,3.79,5.709,20.411,20.411,0,0,1,1.411,7.84A19.3,19.3,0,0,1,1464.9-192.046Z" transform="translate(-1018.046 254.571)"/><path class="c" d="M747.656-213.89l-15.681,33.007-3.515,7.4L709.537-213.89h-32.1l44.046,85.223c-.066-.124-.116-.257-.176-.385.07.151.132.306.211.452l.058.11a7.939,7.939,0,0,0,7,4.06,7.94,7.94,0,0,0,7.209-4.785l.836-1.487,43.136-83.188Z" transform="translate(-475.86 231.742)"/><path class="c" d="M1116.657-200.666a4.019,4.019,0,0,1,.281.489l-37.576-81.138v0a4,4,0,0,0-3.73-2.576,4,4,0,0,0-3.73,2.575L1034.378-200.3l.015.024a3.96,3.96,0,0,0-.467,1.84,4,4,0,0,0,4,4h19.885a4,4,0,0,0,3.663-2.4l14.224-32.16,14.1,32.183.027.018a4,4,0,0,0,3.635,2.355h19.866a4,4,0,0,0,4-4A3.985,3.985,0,0,0,1116.657-200.666Z" transform="translate(-741.438 283.89)"/><path class="c" d="M406.74-219.045a38.309,38.309,0,0,0-8.379-12.876,39.853,39.853,0,0,0-13.319-8.784,45.616,45.616,0,0,0-17.55-3.238,50.018,50.018,0,0,0-18.521,3.408,46.716,46.716,0,0,0-14.993,9.383,43.072,43.072,0,0,0-9.966,14.16,43.366,43.366,0,0,0-3.615,17.737,43.365,43.365,0,0,0,3.615,17.737,41.311,41.311,0,0,0,10.233,14.16,48.724,48.724,0,0,0,15.7,9.383,56.5,56.5,0,0,0,20,3.517,58.017,58.017,0,0,0,31.973-9.4,3.989,3.989,0,0,0,1.93-3.41,3.977,3.977,0,0,0-1.081-2.72,4.055,4.055,0,0,1,.321.389l-6.974-12.715-.015,0a3.991,3.991,0,0,0-3.575-2.236,3.986,3.986,0,0,0-1.542.31l-.064.031a48.736,48.736,0,0,1-7.9,3.2,41.3,41.3,0,0,1-11.995,1.707,28.362,28.362,0,0,1-12.257-2.392,15.615,15.615,0,0,1-7.5-7.337H404.58l.021,0a4,4,0,0,0,4-4,4.006,4.006,0,0,1-.072.72c.222-1.08.419-2.227.586-3.448a56.714,56.714,0,0,0,.529-7.768A41.719,41.719,0,0,0,406.74-219.045Zm-56.533,10.921a18.806,18.806,0,0,1,6.173-9.468,15.541,15.541,0,0,1,9.879-3.33,15.553,15.553,0,0,1,10.054,3.414,12.422,12.422,0,0,1,4.586,9.384Z" transform="translate(-209.874 254.13)"/><path class="c" d="M1231.246,136.646h-27.9c-.665,0-1.2.735-1.2,1.642V256.905c0,.906.539,1.641,1.2,1.641h27.9c.665,0,1.2-.735,1.2-1.641V138.288C1232.45,137.381,1231.91,136.646,1231.246,136.646Z" transform="translate(-866.752 -29.4)"/><path class="c" d="M862.246,202.05a42.674,42.674,0,0,0-8.725-14.059,39.23,39.23,0,0,0-13.39-9.2,43.127,43.127,0,0,0-17.008-3.325,36.283,36.283,0,0,0-14.8,2.811,26.931,26.931,0,0,0-8.214,5.6c-.016.016-.091.076-.111.093a1.247,1.247,0,0,1-2.072-.935v-4.472q0-.509,0-1.018v-.607a1.3,1.3,0,0,0-.289-.88,1.225,1.225,0,0,0-.914-.424H774.426a1.2,1.2,0,0,0-1.2,1.2h0V286.364a1.2,1.2,0,0,0,1.2,1.2h24.9c.013,0,.025,0,.038,0s.025,0,.038,0a1.2,1.2,0,0,0,1.167-1.2s0-26.791,0-26.8a1.2,1.2,0,0,1,1.2-1.2,1.223,1.223,0,0,1,.765.276q7.814,6.126,20.59,6.125a43.189,43.189,0,0,0,17.008-3.321,38.7,38.7,0,0,0,13.39-9.287,43.408,43.408,0,0,0,8.725-14.233,49.763,49.763,0,0,0,3.172-17.977A49.117,49.117,0,0,0,862.246,202.05Zm-29.344,25.9a17.77,17.77,0,0,1-3.876,5.709,15.143,15.143,0,0,1-5.462,3.408,18.911,18.911,0,0,1-6.435,1.107,18.385,18.385,0,0,1-6.256-1.107,15.143,15.143,0,0,1-5.462-3.408,17.72,17.72,0,0,1-3.876-5.709,22.132,22.132,0,0,1,0-16.02,16.721,16.721,0,0,1,3.876-5.622,14.734,14.734,0,0,1,5.462-3.238,19.694,19.694,0,0,1,12.777.083,15.069,15.069,0,0,1,5.552,3.408,16.773,16.773,0,0,1,3.79,5.709,20.414,20.414,0,0,1,1.411,7.84A19.3,19.3,0,0,1,832.9,227.954Z" transform="translate(-547.22 -58.32)"/><path class="c" d="M115.656,176.11,99.975,209.117l-3.515,7.4L77.537,176.11h-32.1L89.48,261.333c-.066-.124-.116-.257-.176-.385.07.151.132.306.211.452l.058.11a7.94,7.94,0,0,0,14.213-.725l.836-1.487,43.136-83.188Z" transform="translate(-5.034 -58.8)"/><path class="c" d="M474.657,259.334a4.026,4.026,0,0,1,.282.489l-37.576-81.138v0a3.989,3.989,0,0,0-7.46,0L392.378,259.7l.015.024a3.96,3.96,0,0,0-.467,1.84,4,4,0,0,0,4,4h19.885a4,4,0,0,0,3.663-2.4l14.224-32.16,14.1,32.183.027.018a4,4,0,0,0,3.635,2.355h19.866a4,4,0,0,0,3.324-6.236Z" transform="translate(-263.162 -58.8)"/><path class="c" d="M1483.887,284.018A40.74,40.74,0,0,0,1473.243,270a47.488,47.488,0,0,0-16.034-8.8,63.176,63.176,0,0,0-19.886-3.013h-28.3a4,4,0,0,0-4,4v81.437a4,4,0,0,0,4,4h28.3a59.677,59.677,0,0,0,19.891-3.353,49.035,49.035,0,0,0,16.034-9.144,42.046,42.046,0,0,0,10.644-14.15,46.275,46.275,0,0,0,0-36.968Zm-22.826,28.706a22.174,22.174,0,0,1-5.463,7.52,23.778,23.778,0,0,1-8.193,4.67,31.4,31.4,0,0,1-10.224,1.624H1429.2v-47.26h7.983a35.669,35.669,0,0,1,10.224,1.421,23.145,23.145,0,0,1,8.193,4.264,20.329,20.329,0,0,1,5.463,7.247,24.594,24.594,0,0,1,2.031,10.362A24.326,24.326,0,0,1,1461.061,312.724Z" transform="translate(-1017.892 -119.945)"/><path class="c" d="M1865.74,182.955a38.308,38.308,0,0,0-8.379-12.876,39.855,39.855,0,0,0-13.319-8.784,45.617,45.617,0,0,0-17.55-3.238,50.019,50.019,0,0,0-18.521,3.408,46.718,46.718,0,0,0-14.993,9.383,44.594,44.594,0,0,0-9.966,49.633,41.311,41.311,0,0,0,10.233,14.16,48.722,48.722,0,0,0,15.7,9.383,56.5,56.5,0,0,0,20,3.517,58.016,58.016,0,0,0,31.973-9.4,3.971,3.971,0,0,0,.849-6.129,4.077,4.077,0,0,1,.321.389l-6.974-12.715-.015,0a3.981,3.981,0,0,0-5.117-1.926l-.064.031a48.74,48.74,0,0,1-7.9,3.2,41.3,41.3,0,0,1-11.995,1.707,28.362,28.362,0,0,1-12.257-2.392,15.615,15.615,0,0,1-7.5-7.337h53.315l.021,0a4,4,0,0,0,4-4,3.993,3.993,0,0,1-.073.72c.222-1.08.419-2.227.586-3.448a56.706,56.706,0,0,0,.529-7.768A41.714,41.714,0,0,0,1865.74,182.955Zm-56.533,10.921a18.805,18.805,0,0,1,6.172-9.468,16.414,16.414,0,0,1,19.933.084,12.421,12.421,0,0,1,4.586,9.384Z" transform="translate(-1296.796 -45.351)"/><path class="c" d="M-34.113,622.018A40.741,40.741,0,0,0-44.757,608a47.489,47.489,0,0,0-16.034-8.8,63.178,63.178,0,0,0-19.886-3.013h-28.3a4,4,0,0,0-4,4v81.437a4,4,0,0,0,4,4h28.3a59.678,59.678,0,0,0,19.891-3.353,49.037,49.037,0,0,0,16.034-9.144,42.046,42.046,0,0,0,10.644-14.15,43.047,43.047,0,0,0,3.852-18.414A43.414,43.414,0,0,0-34.113,622.018Zm-22.826,28.706a22.176,22.176,0,0,1-5.463,7.52,23.776,23.776,0,0,1-8.193,4.67,31.4,31.4,0,0,1-10.224,1.624H-88.8v-47.26h7.983A35.67,35.67,0,0,1-70.595,618.7a23.144,23.144,0,0,1,8.193,4.264,20.33,20.33,0,0,1,5.463,7.247,24.594,24.594,0,0,1,2.031,10.362A24.326,24.326,0,0,1-56.939,650.724Z" transform="translate(112.984 -371.748)"/><path class="c" d="M1863.246,571.646h-27.9a1.419,1.419,0,0,0-1.2,1.563V686.174a1.419,1.419,0,0,0,1.2,1.563h27.9a1.42,1.42,0,0,0,1.2-1.563V573.209A1.42,1.42,0,0,0,1863.246,571.646Z" transform="translate(-1337.578 -353.465)"/><path class="c" d="M1494.247,702.05a42.678,42.678,0,0,0-8.725-14.059,39.231,39.231,0,0,0-13.39-9.2,43.129,43.129,0,0,0-17.008-3.325,36.282,36.282,0,0,0-14.8,2.811,26.929,26.929,0,0,0-8.214,5.6c-.016.016-.091.076-.111.093a1.247,1.247,0,0,1-2.072-.935v-4.472q0-.509,0-1.018v-.607a1.3,1.3,0,0,0-.289-.88,1.225,1.225,0,0,0-.915-.424h-22.291a1.2,1.2,0,0,0-1.2,1.2h0V786.364a1.2,1.2,0,0,0,1.2,1.2h24.9c.013,0,.025,0,.038,0s.025,0,.038,0a1.2,1.2,0,0,0,1.167-1.2s0-26.791,0-26.8a1.2,1.2,0,0,1,1.2-1.2,1.223,1.223,0,0,1,.765.276q7.814,6.126,20.589,6.125a43.19,43.19,0,0,0,17.008-3.321,38.7,38.7,0,0,0,13.39-9.287,43.413,43.413,0,0,0,8.725-14.233,49.765,49.765,0,0,0,3.172-17.977A49.118,49.118,0,0,0,1494.247,702.05Zm-29.344,25.9a17.774,17.774,0,0,1-3.876,5.709,15.142,15.142,0,0,1-5.462,3.408,18.912,18.912,0,0,1-6.435,1.107,18.384,18.384,0,0,1-6.256-1.107,15.142,15.142,0,0,1-5.462-3.408,17.721,17.721,0,0,1-3.876-5.709,22.133,22.133,0,0,1,0-16.02,16.722,16.722,0,0,1,3.876-5.622,14.732,14.732,0,0,1,5.462-3.238,19.694,19.694,0,0,1,12.777.083,15.071,15.071,0,0,1,5.552,3.408,16.773,16.773,0,0,1,3.79,5.709,20.41,20.41,0,0,1,1.411,7.84A19.3,19.3,0,0,1,1464.9,727.954Z" transform="translate(-1018.046 -430.809)"/><path class="c" d="M747.656,676.11l-15.681,33.006-3.515,7.4L709.537,676.11h-32.1l44.046,85.223c-.066-.124-.116-.257-.176-.385.07.151.132.306.211.452l.058.11a7.94,7.94,0,0,0,14.213-.725l.836-1.487,43.136-83.187Z" transform="translate(-475.86 -431.289)"/><path class="c" d="M1106.657,759.334a4.063,4.063,0,0,1,.281.489l-37.576-81.138v0a3.989,3.989,0,0,0-7.46,0L1024.378,759.7l.015.024a3.957,3.957,0,0,0-.468,1.84,4,4,0,0,0,4,4h19.885a4,4,0,0,0,3.663-2.4l-.005.026,14.229-32.186,14.1,32.183.027.018a4,4,0,0,0,3.635,2.355h19.866a4,4,0,0,0,3.324-6.236Z" transform="translate(-733.988 -431.289)"/><path class="c" d="M361.6,624.233a40.025,40.025,0,0,0-8.754-13.451,41.635,41.635,0,0,0-13.914-9.176,47.654,47.654,0,0,0-18.334-3.383,52.25,52.25,0,0,0-19.348,3.56,48.8,48.8,0,0,0-15.663,9.8,46.585,46.585,0,0,0-10.411,51.849,43.154,43.154,0,0,0,10.69,14.792,50.9,50.9,0,0,0,16.4,9.8,59.027,59.027,0,0,0,20.9,3.674,60.609,60.609,0,0,0,33.4-9.818,4.149,4.149,0,0,0,.887-6.4,4.2,4.2,0,0,1,.336.407l-7.285-13.283-.016,0a4.159,4.159,0,0,0-5.345-2.012l-.067.032a50.921,50.921,0,0,1-8.257,3.342,43.139,43.139,0,0,1-12.53,1.784,29.629,29.629,0,0,1-12.8-2.5,16.312,16.312,0,0,1-7.831-7.665h55.7l.022,0a4.183,4.183,0,0,0,4.183-4.183,4.19,4.19,0,0,1-.076.752c.232-1.128.438-2.327.612-3.6a59.24,59.24,0,0,0,.553-8.115A43.587,43.587,0,0,0,361.6,624.233Zm-59.058,11.409a19.647,19.647,0,0,1,6.448-9.891,17.147,17.147,0,0,1,20.823.089,12.976,12.976,0,0,1,4.79,9.8Z" transform="translate(-173.37 -373.265)"/></g><g transform="translate(1147.27)"><path class="c" d="M24.887-217.982A40.741,40.741,0,0,0,14.243-232a47.49,47.49,0,0,0-16.034-8.8,63.177,63.177,0,0,0-19.886-3.013h-28.3a4,4,0,0,0-4,4v81.437a4,4,0,0,0,4,4h28.3A59.677,59.677,0,0,0-1.791-157.72a49.038,49.038,0,0,0,16.034-9.144,42.047,42.047,0,0,0,10.644-14.15,43.047,43.047,0,0,0,3.852-18.414A43.414,43.414,0,0,0,24.887-217.982ZM2.061-189.276a22.176,22.176,0,0,1-5.463,7.52,23.776,23.776,0,0,1-8.193,4.67,31.4,31.4,0,0,1-10.224,1.624H-29.8v-47.26h7.983A35.668,35.668,0,0,1-11.595-221.3,23.142,23.142,0,0,1-3.4-217.037a20.33,20.33,0,0,1,5.463,7.247,24.594,24.594,0,0,1,2.031,10.362A24.325,24.325,0,0,1,2.061-189.276Z" transform="translate(69.03 254.034)"/><rect class="c" width="30.313" height="89.424" rx="4.722" transform="translate(494.009 15.328)"/><path class="c" d="M1494.247-217.95a42.678,42.678,0,0,0-8.725-14.059,39.229,39.229,0,0,0-13.39-9.2,43.128,43.128,0,0,0-17.008-3.325,36.282,36.282,0,0,0-14.8,2.811,26.93,26.93,0,0,0-8.214,5.6c-.016.016-.091.076-.111.093a1.243,1.243,0,0,1-.825.312,1.247,1.247,0,0,1-1.247-1.247v-4.472q0-.509,0-1.018v-.607a1.3,1.3,0,0,0-.289-.88,1.226,1.226,0,0,0-.915-.424h-22.291a1.2,1.2,0,0,0-1.2,1.2h0v109.527a1.2,1.2,0,0,0,1.2,1.2h24.9c.013,0,.025,0,.038,0s.025,0,.038,0a1.2,1.2,0,0,0,1.167-1.2s0-26.791,0-26.8a1.2,1.2,0,0,1,1.2-1.2,1.223,1.223,0,0,1,.765.276q7.814,6.126,20.589,6.125a43.19,43.19,0,0,0,17.008-3.321,38.7,38.7,0,0,0,13.39-9.287,43.412,43.412,0,0,0,8.725-14.233,49.764,49.764,0,0,0,3.172-17.977A49.118,49.118,0,0,0,1494.247-217.95Zm-29.344,25.9a17.774,17.774,0,0,1-3.876,5.709,15.142,15.142,0,0,1-5.462,3.408,18.912,18.912,0,0,1-6.435,1.107,18.384,18.384,0,0,1-6.256-1.107,15.142,15.142,0,0,1-5.462-3.408,17.72,17.72,0,0,1-3.876-5.709,19.774,19.774,0,0,1-1.5-8.01,19.786,19.786,0,0,1,1.5-8.01,16.722,16.722,0,0,1,3.876-5.622,14.733,14.733,0,0,1,5.462-3.238,19.7,19.7,0,0,1,6.256-1.024,19.738,19.738,0,0,1,6.521,1.107,15.072,15.072,0,0,1,5.552,3.408,16.772,16.772,0,0,1,3.79,5.709,20.411,20.411,0,0,1,1.411,7.84A19.3,19.3,0,0,1,1464.9-192.046Z" transform="translate(-1018.046 254.571)"/><path class="c" d="M747.656-213.89l-15.681,33.007-3.515,7.4L709.537-213.89h-32.1l44.046,85.223c-.066-.124-.116-.257-.176-.385.07.151.132.306.211.452l.058.11a7.939,7.939,0,0,0,7,4.06,7.94,7.94,0,0,0,7.209-4.785l.836-1.487,43.136-83.188Z" transform="translate(-475.86 231.742)"/><path class="c" d="M1116.657-200.666a4.019,4.019,0,0,1,.281.489l-37.576-81.138v0a4,4,0,0,0-3.73-2.576,4,4,0,0,0-3.73,2.575L1034.378-200.3l.015.024a3.96,3.96,0,0,0-.467,1.84,4,4,0,0,0,4,4h19.885a4,4,0,0,0,3.663-2.4l14.224-32.16,14.1,32.183.027.018a4,4,0,0,0,3.635,2.355h19.866a4,4,0,0,0,4-4A3.985,3.985,0,0,0,1116.657-200.666Z" transform="translate(-741.438 283.89)"/><path class="c" d="M406.74-219.045a38.309,38.309,0,0,0-8.379-12.876,39.853,39.853,0,0,0-13.319-8.784,45.616,45.616,0,0,0-17.55-3.238,50.018,50.018,0,0,0-18.521,3.408,46.716,46.716,0,0,0-14.993,9.383,43.072,43.072,0,0,0-9.966,14.16,43.366,43.366,0,0,0-3.615,17.737,43.365,43.365,0,0,0,3.615,17.737,41.311,41.311,0,0,0,10.233,14.16,48.724,48.724,0,0,0,15.7,9.383,56.5,56.5,0,0,0,20,3.517,58.017,58.017,0,0,0,31.973-9.4,3.989,3.989,0,0,0,1.93-3.41,3.977,3.977,0,0,0-1.081-2.72,4.055,4.055,0,0,1,.321.389l-6.974-12.715-.015,0a3.991,3.991,0,0,0-3.575-2.236,3.986,3.986,0,0,0-1.542.31l-.064.031a48.736,48.736,0,0,1-7.9,3.2,41.3,41.3,0,0,1-11.995,1.707,28.362,28.362,0,0,1-12.257-2.392,15.615,15.615,0,0,1-7.5-7.337H404.58l.021,0a4,4,0,0,0,4-4,4.006,4.006,0,0,1-.072.72c.222-1.08.419-2.227.586-3.448a56.714,56.714,0,0,0,.529-7.768A41.719,41.719,0,0,0,406.74-219.045Zm-56.533,10.921a18.806,18.806,0,0,1,6.173-9.468,15.541,15.541,0,0,1,9.879-3.33,15.553,15.553,0,0,1,10.054,3.414,12.422,12.422,0,0,1,4.586,9.384Z" transform="translate(-209.874 254.13)"/><path class="c" d="M1231.246,136.646h-27.9c-.665,0-1.2.735-1.2,1.642V256.905c0,.906.539,1.641,1.2,1.641h27.9c.665,0,1.2-.735,1.2-1.641V138.288C1232.45,137.381,1231.91,136.646,1231.246,136.646Z" transform="translate(-866.752 -29.4)"/><path class="c" d="M862.246,202.05a42.674,42.674,0,0,0-8.725-14.059,39.23,39.23,0,0,0-13.39-9.2,43.127,43.127,0,0,0-17.008-3.325,36.283,36.283,0,0,0-14.8,2.811,26.931,26.931,0,0,0-8.214,5.6c-.016.016-.091.076-.111.093a1.247,1.247,0,0,1-2.072-.935v-4.472q0-.509,0-1.018v-.607a1.3,1.3,0,0,0-.289-.88,1.225,1.225,0,0,0-.914-.424H774.426a1.2,1.2,0,0,0-1.2,1.2h0V286.364a1.2,1.2,0,0,0,1.2,1.2h24.9c.013,0,.025,0,.038,0s.025,0,.038,0a1.2,1.2,0,0,0,1.167-1.2s0-26.791,0-26.8a1.2,1.2,0,0,1,1.2-1.2,1.223,1.223,0,0,1,.765.276q7.814,6.126,20.59,6.125a43.189,43.189,0,0,0,17.008-3.321,38.7,38.7,0,0,0,13.39-9.287,43.408,43.408,0,0,0,8.725-14.233,49.763,49.763,0,0,0,3.172-17.977A49.117,49.117,0,0,0,862.246,202.05Zm-29.344,25.9a17.77,17.77,0,0,1-3.876,5.709,15.143,15.143,0,0,1-5.462,3.408,18.911,18.911,0,0,1-6.435,1.107,18.385,18.385,0,0,1-6.256-1.107,15.143,15.143,0,0,1-5.462-3.408,17.72,17.72,0,0,1-3.876-5.709,22.132,22.132,0,0,1,0-16.02,16.721,16.721,0,0,1,3.876-5.622,14.734,14.734,0,0,1,5.462-3.238,19.694,19.694,0,0,1,12.777.083,15.069,15.069,0,0,1,5.552,3.408,16.773,16.773,0,0,1,3.79,5.709,20.414,20.414,0,0,1,1.411,7.84A19.3,19.3,0,0,1,832.9,227.954Z" transform="translate(-547.22 -58.32)"/><path class="c" d="M115.656,176.11,99.975,209.117l-3.515,7.4L77.537,176.11h-32.1L89.48,261.333c-.066-.124-.116-.257-.176-.385.07.151.132.306.211.452l.058.11a7.94,7.94,0,0,0,14.213-.725l.836-1.487,43.136-83.188Z" transform="translate(-5.034 -58.8)"/><path class="c" d="M474.657,259.334a4.026,4.026,0,0,1,.282.489l-37.576-81.138v0a3.989,3.989,0,0,0-7.46,0L392.378,259.7l.015.024a3.96,3.96,0,0,0-.467,1.84,4,4,0,0,0,4,4h19.885a4,4,0,0,0,3.663-2.4l14.224-32.16,14.1,32.183.027.018a4,4,0,0,0,3.635,2.355h19.866a4,4,0,0,0,3.324-6.236Z" transform="translate(-263.162 -58.8)"/><path class="c" d="M1483.887,284.018A40.74,40.74,0,0,0,1473.243,270a47.488,47.488,0,0,0-16.034-8.8,63.176,63.176,0,0,0-19.886-3.013h-28.3a4,4,0,0,0-4,4v81.437a4,4,0,0,0,4,4h28.3a59.677,59.677,0,0,0,19.891-3.353,49.035,49.035,0,0,0,16.034-9.144,42.046,42.046,0,0,0,10.644-14.15,46.275,46.275,0,0,0,0-36.968Zm-22.826,28.706a22.174,22.174,0,0,1-5.463,7.52,23.778,23.778,0,0,1-8.193,4.67,31.4,31.4,0,0,1-10.224,1.624H1429.2v-47.26h7.983a35.669,35.669,0,0,1,10.224,1.421,23.145,23.145,0,0,1,8.193,4.264,20.329,20.329,0,0,1,5.463,7.247,24.594,24.594,0,0,1,2.031,10.362A24.326,24.326,0,0,1,1461.061,312.724Z" transform="translate(-1017.892 -119.945)"/><path class="c" d="M1865.74,182.955a38.308,38.308,0,0,0-8.379-12.876,39.855,39.855,0,0,0-13.319-8.784,45.617,45.617,0,0,0-17.55-3.238,50.019,50.019,0,0,0-18.521,3.408,46.718,46.718,0,0,0-14.993,9.383,44.594,44.594,0,0,0-9.966,49.633,41.311,41.311,0,0,0,10.233,14.16,48.722,48.722,0,0,0,15.7,9.383,56.5,56.5,0,0,0,20,3.517,58.016,58.016,0,0,0,31.973-9.4,3.971,3.971,0,0,0,.849-6.129,4.077,4.077,0,0,1,.321.389l-6.974-12.715-.015,0a3.981,3.981,0,0,0-5.117-1.926l-.064.031a48.74,48.74,0,0,1-7.9,3.2,41.3,41.3,0,0,1-11.995,1.707,28.362,28.362,0,0,1-12.257-2.392,15.615,15.615,0,0,1-7.5-7.337h53.315l.021,0a4,4,0,0,0,4-4,3.993,3.993,0,0,1-.073.72c.222-1.08.419-2.227.586-3.448a56.706,56.706,0,0,0,.529-7.768A41.714,41.714,0,0,0,1865.74,182.955Zm-56.533,10.921a18.805,18.805,0,0,1,6.172-9.468,16.414,16.414,0,0,1,19.933.084,12.421,12.421,0,0,1,4.586,9.384Z" transform="translate(-1296.796 -45.351)"/><path class="c" d="M-34.113,622.018A40.741,40.741,0,0,0-44.757,608a47.489,47.489,0,0,0-16.034-8.8,63.178,63.178,0,0,0-19.886-3.013h-28.3a4,4,0,0,0-4,4v81.437a4,4,0,0,0,4,4h28.3a59.678,59.678,0,0,0,19.891-3.353,49.037,49.037,0,0,0,16.034-9.144,42.046,42.046,0,0,0,10.644-14.15,43.047,43.047,0,0,0,3.852-18.414A43.414,43.414,0,0,0-34.113,622.018Zm-22.826,28.706a22.176,22.176,0,0,1-5.463,7.52,23.776,23.776,0,0,1-8.193,4.67,31.4,31.4,0,0,1-10.224,1.624H-88.8v-47.26h7.983A35.67,35.67,0,0,1-70.595,618.7a23.144,23.144,0,0,1,8.193,4.264,20.33,20.33,0,0,1,5.463,7.247,24.594,24.594,0,0,1,2.031,10.362A24.326,24.326,0,0,1-56.939,650.724Z" transform="translate(112.984 -371.748)"/><path class="c" d="M1863.246,571.646h-27.9a1.419,1.419,0,0,0-1.2,1.563V686.174a1.419,1.419,0,0,0,1.2,1.563h27.9a1.42,1.42,0,0,0,1.2-1.563V573.209A1.42,1.42,0,0,0,1863.246,571.646Z" transform="translate(-1337.578 -353.465)"/><path class="c" d="M1494.247,702.05a42.678,42.678,0,0,0-8.725-14.059,39.231,39.231,0,0,0-13.39-9.2,43.129,43.129,0,0,0-17.008-3.325,36.282,36.282,0,0,0-14.8,2.811,26.929,26.929,0,0,0-8.214,5.6c-.016.016-.091.076-.111.093a1.247,1.247,0,0,1-2.072-.935v-4.472q0-.509,0-1.018v-.607a1.3,1.3,0,0,0-.289-.88,1.225,1.225,0,0,0-.915-.424h-22.291a1.2,1.2,0,0,0-1.2,1.2h0V786.364a1.2,1.2,0,0,0,1.2,1.2h24.9c.013,0,.025,0,.038,0s.025,0,.038,0a1.2,1.2,0,0,0,1.167-1.2s0-26.791,0-26.8a1.2,1.2,0,0,1,1.2-1.2,1.223,1.223,0,0,1,.765.276q7.814,6.126,20.589,6.125a43.19,43.19,0,0,0,17.008-3.321,38.7,38.7,0,0,0,13.39-9.287,43.413,43.413,0,0,0,8.725-14.233,49.765,49.765,0,0,0,3.172-17.977A49.118,49.118,0,0,0,1494.247,702.05Zm-29.344,25.9a17.774,17.774,0,0,1-3.876,5.709,15.142,15.142,0,0,1-5.462,3.408,18.912,18.912,0,0,1-6.435,1.107,18.384,18.384,0,0,1-6.256-1.107,15.142,15.142,0,0,1-5.462-3.408,17.721,17.721,0,0,1-3.876-5.709,22.133,22.133,0,0,1,0-16.02,16.722,16.722,0,0,1,3.876-5.622,14.732,14.732,0,0,1,5.462-3.238,19.694,19.694,0,0,1,12.777.083,15.071,15.071,0,0,1,5.552,3.408,16.773,16.773,0,0,1,3.79,5.709,20.41,20.41,0,0,1,1.411,7.84A19.3,19.3,0,0,1,1464.9,727.954Z" transform="translate(-1018.046 -430.809)"/><path class="c" d="M747.656,676.11l-15.681,33.006-3.515,7.4L709.537,676.11h-32.1l44.046,85.223c-.066-.124-.116-.257-.176-.385.07.151.132.306.211.452l.058.11a7.94,7.94,0,0,0,14.213-.725l.836-1.487,43.136-83.187Z" transform="translate(-475.86 -431.289)"/><path class="c" d="M1106.657,759.334a4.063,4.063,0,0,1,.281.489l-37.576-81.138v0a3.989,3.989,0,0,0-7.46,0L1024.378,759.7l.015.024a3.957,3.957,0,0,0-.468,1.84,4,4,0,0,0,4,4h19.885a4,4,0,0,0,3.663-2.4l-.005.026,14.229-32.186,14.1,32.183.027.018a4,4,0,0,0,3.635,2.355h19.866a4,4,0,0,0,3.324-6.236Z" transform="translate(-733.988 -431.289)"/><path class="c" d="M361.6,624.233a40.025,40.025,0,0,0-8.754-13.451,41.635,41.635,0,0,0-13.914-9.176,47.654,47.654,0,0,0-18.334-3.383,52.25,52.25,0,0,0-19.348,3.56,48.8,48.8,0,0,0-15.663,9.8,46.585,46.585,0,0,0-10.411,51.849,43.154,43.154,0,0,0,10.69,14.792,50.9,50.9,0,0,0,16.4,9.8,59.027,59.027,0,0,0,20.9,3.674,60.609,60.609,0,0,0,33.4-9.818,4.149,4.149,0,0,0,.887-6.4,4.2,4.2,0,0,1,.336.407l-7.285-13.283-.016,0a4.159,4.159,0,0,0-5.345-2.012l-.067.032a50.921,50.921,0,0,1-8.257,3.342,43.139,43.139,0,0,1-12.53,1.784,29.629,29.629,0,0,1-12.8-2.5,16.312,16.312,0,0,1-7.831-7.665h55.7l.022,0a4.183,4.183,0,0,0,4.183-4.183,4.19,4.19,0,0,1-.076.752c.232-1.128.438-2.327.612-3.6a59.24,59.24,0,0,0,.553-8.115A43.587,43.587,0,0,0,361.6,624.233Zm-59.058,11.409a19.647,19.647,0,0,1,6.448-9.891,17.147,17.147,0,0,1,20.823.089,12.976,12.976,0,0,1,4.79,9.8Z" transform="translate(-173.37 -373.265)"/></g></g><g transform="translate(-394 4994.941)"><path class="c" d="M24.887-217.982A40.741,40.741,0,0,0,14.243-232a47.49,47.49,0,0,0-16.034-8.8,63.177,63.177,0,0,0-19.886-3.013h-28.3a4,4,0,0,0-4,4v81.437a4,4,0,0,0,4,4h28.3A59.677,59.677,0,0,0-1.791-157.72a49.038,49.038,0,0,0,16.034-9.144,42.047,42.047,0,0,0,10.644-14.15,43.047,43.047,0,0,0,3.852-18.414A43.414,43.414,0,0,0,24.887-217.982ZM2.061-189.276a22.176,22.176,0,0,1-5.463,7.52,23.776,23.776,0,0,1-8.193,4.67,31.4,31.4,0,0,1-10.224,1.624H-29.8v-47.26h7.983A35.668,35.668,0,0,1-11.595-221.3,23.142,23.142,0,0,1-3.4-217.037a20.33,20.33,0,0,1,5.463,7.247,24.594,24.594,0,0,1,2.031,10.362A24.325,24.325,0,0,1,2.061-189.276Z" transform="translate(119.683 254.034)"/><rect class="c" width="30.313" height="89.424" rx="4.722" transform="translate(544.662 15.328)"/><path class="c" d="M1494.247-217.95a42.678,42.678,0,0,0-8.725-14.059,39.229,39.229,0,0,0-13.39-9.2,43.128,43.128,0,0,0-17.008-3.325,36.282,36.282,0,0,0-14.8,2.811,26.93,26.93,0,0,0-8.214,5.6c-.016.016-.091.076-.111.093a1.243,1.243,0,0,1-.825.312,1.247,1.247,0,0,1-1.247-1.247v-4.472q0-.509,0-1.018v-.607a1.3,1.3,0,0,0-.289-.88,1.226,1.226,0,0,0-.915-.424h-22.291a1.2,1.2,0,0,0-1.2,1.2h0v109.527a1.2,1.2,0,0,0,1.2,1.2h24.9c.013,0,.025,0,.038,0s.025,0,.038,0a1.2,1.2,0,0,0,1.167-1.2s0-26.791,0-26.8a1.2,1.2,0,0,1,1.2-1.2,1.223,1.223,0,0,1,.765.276q7.814,6.126,20.589,6.125a43.19,43.19,0,0,0,17.008-3.321,38.7,38.7,0,0,0,13.39-9.287,43.412,43.412,0,0,0,8.725-14.233,49.764,49.764,0,0,0,3.172-17.977A49.118,49.118,0,0,0,1494.247-217.95Zm-29.344,25.9a17.774,17.774,0,0,1-3.876,5.709,15.142,15.142,0,0,1-5.462,3.408,18.912,18.912,0,0,1-6.435,1.107,18.384,18.384,0,0,1-6.256-1.107,15.142,15.142,0,0,1-5.462-3.408,17.72,17.72,0,0,1-3.876-5.709,19.774,19.774,0,0,1-1.5-8.01,19.786,19.786,0,0,1,1.5-8.01,16.722,16.722,0,0,1,3.876-5.622,14.733,14.733,0,0,1,5.462-3.238,19.7,19.7,0,0,1,6.256-1.024,19.738,19.738,0,0,1,6.521,1.107,15.072,15.072,0,0,1,5.552,3.408,16.772,16.772,0,0,1,3.79,5.709,20.411,20.411,0,0,1,1.411,7.84A19.3,19.3,0,0,1,1464.9-192.046Z" transform="translate(-967.393 254.571)"/><path class="c" d="M747.656-213.89l-15.681,33.007-3.515,7.4L709.537-213.89h-32.1l44.046,85.223c-.066-.124-.116-.257-.176-.385.07.151.132.306.211.452l.058.11a7.939,7.939,0,0,0,7,4.06,7.94,7.94,0,0,0,7.209-4.785l.836-1.487,43.136-83.188Z" transform="translate(-425.207 231.742)"/><path class="c" d="M1116.657-200.666a4.019,4.019,0,0,1,.281.489l-37.576-81.138v0a4,4,0,0,0-3.73-2.576,4,4,0,0,0-3.73,2.575L1034.378-200.3l.015.024a3.96,3.96,0,0,0-.467,1.84,4,4,0,0,0,4,4h19.885a4,4,0,0,0,3.663-2.4l14.224-32.16,14.1,32.183.027.018a4,4,0,0,0,3.635,2.355h19.866a4,4,0,0,0,4-4A3.985,3.985,0,0,0,1116.657-200.666Z" transform="translate(-690.785 283.89)"/><path class="c" d="M406.74-219.045a38.309,38.309,0,0,0-8.379-12.876,39.853,39.853,0,0,0-13.319-8.784,45.616,45.616,0,0,0-17.55-3.238,50.018,50.018,0,0,0-18.521,3.408,46.716,46.716,0,0,0-14.993,9.383,43.072,43.072,0,0,0-9.966,14.16,43.366,43.366,0,0,0-3.615,17.737,43.365,43.365,0,0,0,3.615,17.737,41.311,41.311,0,0,0,10.233,14.16,48.724,48.724,0,0,0,15.7,9.383,56.5,56.5,0,0,0,20,3.517,58.017,58.017,0,0,0,31.973-9.4,3.989,3.989,0,0,0,1.93-3.41,3.977,3.977,0,0,0-1.081-2.72,4.055,4.055,0,0,1,.321.389l-6.974-12.715-.015,0a3.991,3.991,0,0,0-3.575-2.236,3.986,3.986,0,0,0-1.542.31l-.064.031a48.736,48.736,0,0,1-7.9,3.2,41.3,41.3,0,0,1-11.995,1.707,28.362,28.362,0,0,1-12.257-2.392,15.615,15.615,0,0,1-7.5-7.337H404.58l.021,0a4,4,0,0,0,4-4,4.006,4.006,0,0,1-.072.72c.222-1.08.419-2.227.586-3.448a56.714,56.714,0,0,0,.529-7.768A41.719,41.719,0,0,0,406.74-219.045Zm-56.533,10.921a18.806,18.806,0,0,1,6.173-9.468,15.541,15.541,0,0,1,9.879-3.33,15.553,15.553,0,0,1,10.054,3.414,12.422,12.422,0,0,1,4.586,9.384Z" transform="translate(-159.221 254.13)"/><path class="c" d="M1231.246,136.646h-27.9c-.665,0-1.2.735-1.2,1.642V256.905c0,.906.539,1.641,1.2,1.641h27.9c.665,0,1.2-.735,1.2-1.641V138.288C1232.45,137.381,1231.91,136.646,1231.246,136.646Z" transform="translate(-816.099 -29.4)"/><path class="c" d="M862.246,202.05a42.674,42.674,0,0,0-8.725-14.059,39.23,39.23,0,0,0-13.39-9.2,43.127,43.127,0,0,0-17.008-3.325,36.283,36.283,0,0,0-14.8,2.811,26.931,26.931,0,0,0-8.214,5.6c-.016.016-.091.076-.111.093a1.247,1.247,0,0,1-2.072-.935v-4.472q0-.509,0-1.018v-.607a1.3,1.3,0,0,0-.289-.88,1.225,1.225,0,0,0-.914-.424H774.426a1.2,1.2,0,0,0-1.2,1.2h0V286.364a1.2,1.2,0,0,0,1.2,1.2h24.9c.013,0,.025,0,.038,0s.025,0,.038,0a1.2,1.2,0,0,0,1.167-1.2s0-26.791,0-26.8a1.2,1.2,0,0,1,1.2-1.2,1.223,1.223,0,0,1,.765.276q7.814,6.126,20.59,6.125a43.189,43.189,0,0,0,17.008-3.321,38.7,38.7,0,0,0,13.39-9.287,43.408,43.408,0,0,0,8.725-14.233,49.763,49.763,0,0,0,3.172-17.977A49.117,49.117,0,0,0,862.246,202.05Zm-29.344,25.9a17.77,17.77,0,0,1-3.876,5.709,15.143,15.143,0,0,1-5.462,3.408,18.911,18.911,0,0,1-6.435,1.107,18.385,18.385,0,0,1-6.256-1.107,15.143,15.143,0,0,1-5.462-3.408,17.72,17.72,0,0,1-3.876-5.709,22.132,22.132,0,0,1,0-16.02,16.721,16.721,0,0,1,3.876-5.622,14.734,14.734,0,0,1,5.462-3.238,19.694,19.694,0,0,1,12.777.083,15.069,15.069,0,0,1,5.552,3.408,16.773,16.773,0,0,1,3.79,5.709,20.414,20.414,0,0,1,1.411,7.84A19.3,19.3,0,0,1,832.9,227.954Z" transform="translate(-496.567 -58.32)"/><path class="c" d="M115.656,176.11,99.975,209.117l-3.515,7.4L77.537,176.11h-32.1L89.48,261.333c-.066-.124-.116-.257-.176-.385.07.151.132.306.211.452l.058.11a7.94,7.94,0,0,0,14.213-.725l.836-1.487,43.136-83.188Z" transform="translate(45.619 -58.8)"/><path class="c" d="M474.657,259.334a4.026,4.026,0,0,1,.282.489l-37.576-81.138v0a3.989,3.989,0,0,0-7.46,0L392.378,259.7l.015.024a3.96,3.96,0,0,0-.467,1.84,4,4,0,0,0,4,4h19.885a4,4,0,0,0,3.663-2.4l14.224-32.16,14.1,32.183.027.018a4,4,0,0,0,3.635,2.355h19.866a4,4,0,0,0,3.324-6.236Z" transform="translate(-212.509 -58.8)"/><path class="c" d="M-225.261,200.955a38.309,38.309,0,0,0-8.379-12.876,39.853,39.853,0,0,0-13.319-8.784,45.617,45.617,0,0,0-17.55-3.238,50.018,50.018,0,0,0-18.521,3.408,46.716,46.716,0,0,0-14.994,9.383,43.072,43.072,0,0,0-9.966,14.16,43.366,43.366,0,0,0-3.615,17.737,43.366,43.366,0,0,0,3.615,17.737,41.311,41.311,0,0,0,10.232,14.16,48.726,48.726,0,0,0,15.7,9.383,56.5,56.5,0,0,0,20,3.517,58.017,58.017,0,0,0,31.973-9.4,3.989,3.989,0,0,0,1.93-3.41,3.977,3.977,0,0,0-1.081-2.72,4.06,4.06,0,0,1,.321.389l-6.974-12.715-.015,0a3.991,3.991,0,0,0-3.575-2.236,3.986,3.986,0,0,0-1.542.31l-.064.031a48.736,48.736,0,0,1-7.9,3.2,41.3,41.3,0,0,1-11.995,1.707,28.362,28.362,0,0,1-12.257-2.392,15.616,15.616,0,0,1-7.5-7.337h53.316l.021,0a4,4,0,0,0,4-4,4.006,4.006,0,0,1-.072.72c.222-1.08.419-2.227.586-3.448a56.71,56.71,0,0,0,.529-7.768A41.718,41.718,0,0,0-225.261,200.955Zm-56.533,10.921a18.806,18.806,0,0,1,6.173-9.468,15.541,15.541,0,0,1,9.879-3.33,15.553,15.553,0,0,1,10.054,3.415,12.421,12.421,0,0,1,4.586,9.384Z" transform="translate(311.605 -58.76)"/><path class="c" d="M1483.887,284.018A40.74,40.74,0,0,0,1473.243,270a47.488,47.488,0,0,0-16.034-8.8,63.176,63.176,0,0,0-19.886-3.013h-28.3a4,4,0,0,0-4,4v81.437a4,4,0,0,0,4,4h28.3a59.677,59.677,0,0,0,19.891-3.353,49.035,49.035,0,0,0,16.034-9.144,42.046,42.046,0,0,0,10.644-14.15,46.275,46.275,0,0,0,0-36.968Zm-22.826,28.706a22.174,22.174,0,0,1-5.463,7.52,23.778,23.778,0,0,1-8.193,4.67,31.4,31.4,0,0,1-10.224,1.624H1429.2v-47.26h7.983a35.669,35.669,0,0,1,10.224,1.421,23.145,23.145,0,0,1,8.193,4.264,20.329,20.329,0,0,1,5.463,7.247,24.594,24.594,0,0,1,2.031,10.362A24.326,24.326,0,0,1,1461.061,312.724Z" transform="translate(-967.239 -119.945)"/><path class="c" d="M1865.74,182.955a38.308,38.308,0,0,0-8.379-12.876,39.855,39.855,0,0,0-13.319-8.784,45.617,45.617,0,0,0-17.55-3.238,50.019,50.019,0,0,0-18.521,3.408,46.718,46.718,0,0,0-14.993,9.383,44.594,44.594,0,0,0-9.966,49.633,41.311,41.311,0,0,0,10.233,14.16,48.722,48.722,0,0,0,15.7,9.383,56.5,56.5,0,0,0,20,3.517,58.016,58.016,0,0,0,31.973-9.4,3.971,3.971,0,0,0,.849-6.129,4.077,4.077,0,0,1,.321.389l-6.974-12.715-.015,0a3.981,3.981,0,0,0-5.117-1.926l-.064.031a48.74,48.74,0,0,1-7.9,3.2,41.3,41.3,0,0,1-11.995,1.707,28.362,28.362,0,0,1-12.257-2.392,15.615,15.615,0,0,1-7.5-7.337h53.315l.021,0a4,4,0,0,0,4-4,3.993,3.993,0,0,1-.073.72c.222-1.08.419-2.227.586-3.448a56.706,56.706,0,0,0,.529-7.768A41.714,41.714,0,0,0,1865.74,182.955Zm-56.533,10.921a18.805,18.805,0,0,1,6.172-9.468,16.414,16.414,0,0,1,19.933.084,12.421,12.421,0,0,1,4.586,9.384Z" transform="translate(-1246.143 -45.351)"/><path class="c" d="M-34.113,622.018A40.741,40.741,0,0,0-44.757,608a47.489,47.489,0,0,0-16.034-8.8,63.178,63.178,0,0,0-19.886-3.013h-28.3a4,4,0,0,0-4,4v81.437a4,4,0,0,0,4,4h28.3a59.678,59.678,0,0,0,19.891-3.353,49.037,49.037,0,0,0,16.034-9.144,42.046,42.046,0,0,0,10.644-14.15,43.047,43.047,0,0,0,3.852-18.414A43.414,43.414,0,0,0-34.113,622.018Zm-22.826,28.706a22.176,22.176,0,0,1-5.463,7.52,23.776,23.776,0,0,1-8.193,4.67,31.4,31.4,0,0,1-10.224,1.624H-88.8v-47.26h7.983A35.67,35.67,0,0,1-70.595,618.7a23.144,23.144,0,0,1,8.193,4.264,20.33,20.33,0,0,1,5.463,7.247,24.594,24.594,0,0,1,2.031,10.362A24.326,24.326,0,0,1-56.939,650.724Z" transform="translate(163.637 -371.748)"/><path class="c" d="M1863.246,571.646h-27.9a1.419,1.419,0,0,0-1.2,1.563V686.174a1.419,1.419,0,0,0,1.2,1.563h27.9a1.42,1.42,0,0,0,1.2-1.563V573.209A1.42,1.42,0,0,0,1863.246,571.646Z" transform="translate(-1286.925 -353.465)"/><path class="c" d="M1494.247,702.05a42.678,42.678,0,0,0-8.725-14.059,39.231,39.231,0,0,0-13.39-9.2,43.129,43.129,0,0,0-17.008-3.325,36.282,36.282,0,0,0-14.8,2.811,26.929,26.929,0,0,0-8.214,5.6c-.016.016-.091.076-.111.093a1.247,1.247,0,0,1-2.072-.935v-4.472q0-.509,0-1.018v-.607a1.3,1.3,0,0,0-.289-.88,1.225,1.225,0,0,0-.915-.424h-22.291a1.2,1.2,0,0,0-1.2,1.2h0V786.364a1.2,1.2,0,0,0,1.2,1.2h24.9c.013,0,.025,0,.038,0s.025,0,.038,0a1.2,1.2,0,0,0,1.167-1.2s0-26.791,0-26.8a1.2,1.2,0,0,1,1.2-1.2,1.223,1.223,0,0,1,.765.276q7.814,6.126,20.589,6.125a43.19,43.19,0,0,0,17.008-3.321,38.7,38.7,0,0,0,13.39-9.287,43.413,43.413,0,0,0,8.725-14.233,49.765,49.765,0,0,0,3.172-17.977A49.118,49.118,0,0,0,1494.247,702.05Zm-29.344,25.9a17.774,17.774,0,0,1-3.876,5.709,15.142,15.142,0,0,1-5.462,3.408,18.912,18.912,0,0,1-6.435,1.107,18.384,18.384,0,0,1-6.256-1.107,15.142,15.142,0,0,1-5.462-3.408,17.721,17.721,0,0,1-3.876-5.709,22.133,22.133,0,0,1,0-16.02,16.722,16.722,0,0,1,3.876-5.622,14.732,14.732,0,0,1,5.462-3.238,19.694,19.694,0,0,1,12.777.083,15.071,15.071,0,0,1,5.552,3.408,16.773,16.773,0,0,1,3.79,5.709,20.41,20.41,0,0,1,1.411,7.84A19.3,19.3,0,0,1,1464.9,727.954Z" transform="translate(-967.393 -430.809)"/><path class="c" d="M747.656,676.11l-15.681,33.006-3.515,7.4L709.537,676.11h-32.1l44.046,85.223c-.066-.124-.116-.257-.176-.385.07.151.132.306.211.452l.058.11a7.94,7.94,0,0,0,14.213-.725l.836-1.487,43.136-83.187Z" transform="translate(-425.207 -431.289)"/><path class="c" d="M1106.657,759.334a4.063,4.063,0,0,1,.281.489l-37.576-81.138v0a3.989,3.989,0,0,0-7.46,0L1024.378,759.7l.015.024a3.957,3.957,0,0,0-.468,1.84,4,4,0,0,0,4,4h19.885a4,4,0,0,0,3.663-2.4l-.005.026,14.229-32.186,14.1,32.183.027.018a4,4,0,0,0,3.635,2.355h19.866a4,4,0,0,0,3.324-6.236Z" transform="translate(-683.335 -431.289)"/><path class="c" d="M361.6,624.233a40.025,40.025,0,0,0-8.754-13.451,41.635,41.635,0,0,0-13.914-9.176,47.654,47.654,0,0,0-18.334-3.383,52.25,52.25,0,0,0-19.348,3.56,48.8,48.8,0,0,0-15.663,9.8,46.585,46.585,0,0,0-10.411,51.849,43.154,43.154,0,0,0,10.69,14.792,50.9,50.9,0,0,0,16.4,9.8,59.027,59.027,0,0,0,20.9,3.674,60.609,60.609,0,0,0,33.4-9.818,4.149,4.149,0,0,0,.887-6.4,4.2,4.2,0,0,1,.336.407l-7.285-13.283-.016,0a4.159,4.159,0,0,0-5.345-2.012l-.067.032a50.921,50.921,0,0,1-8.257,3.342,43.139,43.139,0,0,1-12.53,1.784,29.629,29.629,0,0,1-12.8-2.5,16.312,16.312,0,0,1-7.831-7.665h55.7l.022,0a4.183,4.183,0,0,0,4.183-4.183,4.19,4.19,0,0,1-.076.752c.232-1.128.438-2.327.612-3.6a59.24,59.24,0,0,0,.553-8.115A43.587,43.587,0,0,0,361.6,624.233Zm-59.058,11.409a19.647,19.647,0,0,1,6.448-9.891,17.147,17.147,0,0,1,20.823.089,12.976,12.976,0,0,1,4.79,9.8Z" transform="translate(-122.717 -373.265)"/><g transform="translate(598.221)"><path class="c" d="M24.887-217.982A40.741,40.741,0,0,0,14.243-232a47.49,47.49,0,0,0-16.034-8.8,63.177,63.177,0,0,0-19.886-3.013h-28.3a4,4,0,0,0-4,4v81.437a4,4,0,0,0,4,4h28.3A59.677,59.677,0,0,0-1.791-157.72a49.038,49.038,0,0,0,16.034-9.144,42.047,42.047,0,0,0,10.644-14.15,43.047,43.047,0,0,0,3.852-18.414A43.414,43.414,0,0,0,24.887-217.982ZM2.061-189.276a22.176,22.176,0,0,1-5.463,7.52,23.776,23.776,0,0,1-8.193,4.67,31.4,31.4,0,0,1-10.224,1.624H-29.8v-47.26h7.983A35.668,35.668,0,0,1-11.595-221.3,23.142,23.142,0,0,1-3.4-217.037a20.33,20.33,0,0,1,5.463,7.247,24.594,24.594,0,0,1,2.031,10.362A24.325,24.325,0,0,1,2.061-189.276Z" transform="translate(69.03 254.034)"/><rect class="c" width="30.313" height="89.424" rx="4.722" transform="translate(494.009 15.328)"/><path class="c" d="M1494.247-217.95a42.678,42.678,0,0,0-8.725-14.059,39.229,39.229,0,0,0-13.39-9.2,43.128,43.128,0,0,0-17.008-3.325,36.282,36.282,0,0,0-14.8,2.811,26.93,26.93,0,0,0-8.214,5.6c-.016.016-.091.076-.111.093a1.243,1.243,0,0,1-.825.312,1.247,1.247,0,0,1-1.247-1.247v-4.472q0-.509,0-1.018v-.607a1.3,1.3,0,0,0-.289-.88,1.226,1.226,0,0,0-.915-.424h-22.291a1.2,1.2,0,0,0-1.2,1.2h0v109.527a1.2,1.2,0,0,0,1.2,1.2h24.9c.013,0,.025,0,.038,0s.025,0,.038,0a1.2,1.2,0,0,0,1.167-1.2s0-26.791,0-26.8a1.2,1.2,0,0,1,1.2-1.2,1.223,1.223,0,0,1,.765.276q7.814,6.126,20.589,6.125a43.19,43.19,0,0,0,17.008-3.321,38.7,38.7,0,0,0,13.39-9.287,43.412,43.412,0,0,0,8.725-14.233,49.764,49.764,0,0,0,3.172-17.977A49.118,49.118,0,0,0,1494.247-217.95Zm-29.344,25.9a17.774,17.774,0,0,1-3.876,5.709,15.142,15.142,0,0,1-5.462,3.408,18.912,18.912,0,0,1-6.435,1.107,18.384,18.384,0,0,1-6.256-1.107,15.142,15.142,0,0,1-5.462-3.408,17.72,17.72,0,0,1-3.876-5.709,19.774,19.774,0,0,1-1.5-8.01,19.786,19.786,0,0,1,1.5-8.01,16.722,16.722,0,0,1,3.876-5.622,14.733,14.733,0,0,1,5.462-3.238,19.7,19.7,0,0,1,6.256-1.024,19.738,19.738,0,0,1,6.521,1.107,15.072,15.072,0,0,1,5.552,3.408,16.772,16.772,0,0,1,3.79,5.709,20.411,20.411,0,0,1,1.411,7.84A19.3,19.3,0,0,1,1464.9-192.046Z" transform="translate(-1018.046 254.571)"/><path class="c" d="M747.656-213.89l-15.681,33.007-3.515,7.4L709.537-213.89h-32.1l44.046,85.223c-.066-.124-.116-.257-.176-.385.07.151.132.306.211.452l.058.11a7.939,7.939,0,0,0,7,4.06,7.94,7.94,0,0,0,7.209-4.785l.836-1.487,43.136-83.188Z" transform="translate(-475.86 231.742)"/><path class="c" d="M1116.657-200.666a4.019,4.019,0,0,1,.281.489l-37.576-81.138v0a4,4,0,0,0-3.73-2.576,4,4,0,0,0-3.73,2.575L1034.378-200.3l.015.024a3.96,3.96,0,0,0-.467,1.84,4,4,0,0,0,4,4h19.885a4,4,0,0,0,3.663-2.4l14.224-32.16,14.1,32.183.027.018a4,4,0,0,0,3.635,2.355h19.866a4,4,0,0,0,4-4A3.985,3.985,0,0,0,1116.657-200.666Z" transform="translate(-741.438 283.89)"/><path class="c" d="M406.74-219.045a38.309,38.309,0,0,0-8.379-12.876,39.853,39.853,0,0,0-13.319-8.784,45.616,45.616,0,0,0-17.55-3.238,50.018,50.018,0,0,0-18.521,3.408,46.716,46.716,0,0,0-14.993,9.383,43.072,43.072,0,0,0-9.966,14.16,43.366,43.366,0,0,0-3.615,17.737,43.365,43.365,0,0,0,3.615,17.737,41.311,41.311,0,0,0,10.233,14.16,48.724,48.724,0,0,0,15.7,9.383,56.5,56.5,0,0,0,20,3.517,58.017,58.017,0,0,0,31.973-9.4,3.989,3.989,0,0,0,1.93-3.41,3.977,3.977,0,0,0-1.081-2.72,4.055,4.055,0,0,1,.321.389l-6.974-12.715-.015,0a3.991,3.991,0,0,0-3.575-2.236,3.986,3.986,0,0,0-1.542.31l-.064.031a48.736,48.736,0,0,1-7.9,3.2,41.3,41.3,0,0,1-11.995,1.707,28.362,28.362,0,0,1-12.257-2.392,15.615,15.615,0,0,1-7.5-7.337H404.58l.021,0a4,4,0,0,0,4-4,4.006,4.006,0,0,1-.072.72c.222-1.08.419-2.227.586-3.448a56.714,56.714,0,0,0,.529-7.768A41.719,41.719,0,0,0,406.74-219.045Zm-56.533,10.921a18.806,18.806,0,0,1,6.173-9.468,15.541,15.541,0,0,1,9.879-3.33,15.553,15.553,0,0,1,10.054,3.414,12.422,12.422,0,0,1,4.586,9.384Z" transform="translate(-209.874 254.13)"/><path class="c" d="M1231.246,136.646h-27.9c-.665,0-1.2.735-1.2,1.642V256.905c0,.906.539,1.641,1.2,1.641h27.9c.665,0,1.2-.735,1.2-1.641V138.288C1232.45,137.381,1231.91,136.646,1231.246,136.646Z" transform="translate(-866.752 -29.4)"/><path class="c" d="M862.246,202.05a42.674,42.674,0,0,0-8.725-14.059,39.23,39.23,0,0,0-13.39-9.2,43.127,43.127,0,0,0-17.008-3.325,36.283,36.283,0,0,0-14.8,2.811,26.931,26.931,0,0,0-8.214,5.6c-.016.016-.091.076-.111.093a1.247,1.247,0,0,1-2.072-.935v-4.472q0-.509,0-1.018v-.607a1.3,1.3,0,0,0-.289-.88,1.225,1.225,0,0,0-.914-.424H774.426a1.2,1.2,0,0,0-1.2,1.2h0V286.364a1.2,1.2,0,0,0,1.2,1.2h24.9c.013,0,.025,0,.038,0s.025,0,.038,0a1.2,1.2,0,0,0,1.167-1.2s0-26.791,0-26.8a1.2,1.2,0,0,1,1.2-1.2,1.223,1.223,0,0,1,.765.276q7.814,6.126,20.59,6.125a43.189,43.189,0,0,0,17.008-3.321,38.7,38.7,0,0,0,13.39-9.287,43.408,43.408,0,0,0,8.725-14.233,49.763,49.763,0,0,0,3.172-17.977A49.117,49.117,0,0,0,862.246,202.05Zm-29.344,25.9a17.77,17.77,0,0,1-3.876,5.709,15.143,15.143,0,0,1-5.462,3.408,18.911,18.911,0,0,1-6.435,1.107,18.385,18.385,0,0,1-6.256-1.107,15.143,15.143,0,0,1-5.462-3.408,17.72,17.72,0,0,1-3.876-5.709,22.132,22.132,0,0,1,0-16.02,16.721,16.721,0,0,1,3.876-5.622,14.734,14.734,0,0,1,5.462-3.238,19.694,19.694,0,0,1,12.777.083,15.069,15.069,0,0,1,5.552,3.408,16.773,16.773,0,0,1,3.79,5.709,20.414,20.414,0,0,1,1.411,7.84A19.3,19.3,0,0,1,832.9,227.954Z" transform="translate(-547.22 -58.32)"/><path class="c" d="M115.656,176.11,99.975,209.117l-3.515,7.4L77.537,176.11h-32.1L89.48,261.333c-.066-.124-.116-.257-.176-.385.07.151.132.306.211.452l.058.11a7.94,7.94,0,0,0,14.213-.725l.836-1.487,43.136-83.188Z" transform="translate(-5.034 -58.8)"/><path class="c" d="M474.657,259.334a4.026,4.026,0,0,1,.282.489l-37.576-81.138v0a3.989,3.989,0,0,0-7.46,0L392.378,259.7l.015.024a3.96,3.96,0,0,0-.467,1.84,4,4,0,0,0,4,4h19.885a4,4,0,0,0,3.663-2.4l14.224-32.16,14.1,32.183.027.018a4,4,0,0,0,3.635,2.355h19.866a4,4,0,0,0,3.324-6.236Z" transform="translate(-263.162 -58.8)"/><path class="c" d="M1483.887,284.018A40.74,40.74,0,0,0,1473.243,270a47.488,47.488,0,0,0-16.034-8.8,63.176,63.176,0,0,0-19.886-3.013h-28.3a4,4,0,0,0-4,4v81.437a4,4,0,0,0,4,4h28.3a59.677,59.677,0,0,0,19.891-3.353,49.035,49.035,0,0,0,16.034-9.144,42.046,42.046,0,0,0,10.644-14.15,46.275,46.275,0,0,0,0-36.968Zm-22.826,28.706a22.174,22.174,0,0,1-5.463,7.52,23.778,23.778,0,0,1-8.193,4.67,31.4,31.4,0,0,1-10.224,1.624H1429.2v-47.26h7.983a35.669,35.669,0,0,1,10.224,1.421,23.145,23.145,0,0,1,8.193,4.264,20.329,20.329,0,0,1,5.463,7.247,24.594,24.594,0,0,1,2.031,10.362A24.326,24.326,0,0,1,1461.061,312.724Z" transform="translate(-1017.892 -119.945)"/><path class="c" d="M1865.74,182.955a38.308,38.308,0,0,0-8.379-12.876,39.855,39.855,0,0,0-13.319-8.784,45.617,45.617,0,0,0-17.55-3.238,50.019,50.019,0,0,0-18.521,3.408,46.718,46.718,0,0,0-14.993,9.383,44.594,44.594,0,0,0-9.966,49.633,41.311,41.311,0,0,0,10.233,14.16,48.722,48.722,0,0,0,15.7,9.383,56.5,56.5,0,0,0,20,3.517,58.016,58.016,0,0,0,31.973-9.4,3.971,3.971,0,0,0,.849-6.129,4.077,4.077,0,0,1,.321.389l-6.974-12.715-.015,0a3.981,3.981,0,0,0-5.117-1.926l-.064.031a48.74,48.74,0,0,1-7.9,3.2,41.3,41.3,0,0,1-11.995,1.707,28.362,28.362,0,0,1-12.257-2.392,15.615,15.615,0,0,1-7.5-7.337h53.315l.021,0a4,4,0,0,0,4-4,3.993,3.993,0,0,1-.073.72c.222-1.08.419-2.227.586-3.448a56.706,56.706,0,0,0,.529-7.768A41.714,41.714,0,0,0,1865.74,182.955Zm-56.533,10.921a18.805,18.805,0,0,1,6.172-9.468,16.414,16.414,0,0,1,19.933.084,12.421,12.421,0,0,1,4.586,9.384Z" transform="translate(-1296.796 -45.351)"/><path class="c" d="M-34.113,622.018A40.741,40.741,0,0,0-44.757,608a47.489,47.489,0,0,0-16.034-8.8,63.178,63.178,0,0,0-19.886-3.013h-28.3a4,4,0,0,0-4,4v81.437a4,4,0,0,0,4,4h28.3a59.678,59.678,0,0,0,19.891-3.353,49.037,49.037,0,0,0,16.034-9.144,42.046,42.046,0,0,0,10.644-14.15,43.047,43.047,0,0,0,3.852-18.414A43.414,43.414,0,0,0-34.113,622.018Zm-22.826,28.706a22.176,22.176,0,0,1-5.463,7.52,23.776,23.776,0,0,1-8.193,4.67,31.4,31.4,0,0,1-10.224,1.624H-88.8v-47.26h7.983A35.67,35.67,0,0,1-70.595,618.7a23.144,23.144,0,0,1,8.193,4.264,20.33,20.33,0,0,1,5.463,7.247,24.594,24.594,0,0,1,2.031,10.362A24.326,24.326,0,0,1-56.939,650.724Z" transform="translate(112.984 -371.748)"/><path class="c" d="M1863.246,571.646h-27.9a1.419,1.419,0,0,0-1.2,1.563V686.174a1.419,1.419,0,0,0,1.2,1.563h27.9a1.42,1.42,0,0,0,1.2-1.563V573.209A1.42,1.42,0,0,0,1863.246,571.646Z" transform="translate(-1337.578 -353.465)"/><path class="c" d="M1494.247,702.05a42.678,42.678,0,0,0-8.725-14.059,39.231,39.231,0,0,0-13.39-9.2,43.129,43.129,0,0,0-17.008-3.325,36.282,36.282,0,0,0-14.8,2.811,26.929,26.929,0,0,0-8.214,5.6c-.016.016-.091.076-.111.093a1.247,1.247,0,0,1-2.072-.935v-4.472q0-.509,0-1.018v-.607a1.3,1.3,0,0,0-.289-.88,1.225,1.225,0,0,0-.915-.424h-22.291a1.2,1.2,0,0,0-1.2,1.2h0V786.364a1.2,1.2,0,0,0,1.2,1.2h24.9c.013,0,.025,0,.038,0s.025,0,.038,0a1.2,1.2,0,0,0,1.167-1.2s0-26.791,0-26.8a1.2,1.2,0,0,1,1.2-1.2,1.223,1.223,0,0,1,.765.276q7.814,6.126,20.589,6.125a43.19,43.19,0,0,0,17.008-3.321,38.7,38.7,0,0,0,13.39-9.287,43.413,43.413,0,0,0,8.725-14.233,49.765,49.765,0,0,0,3.172-17.977A49.118,49.118,0,0,0,1494.247,702.05Zm-29.344,25.9a17.774,17.774,0,0,1-3.876,5.709,15.142,15.142,0,0,1-5.462,3.408,18.912,18.912,0,0,1-6.435,1.107,18.384,18.384,0,0,1-6.256-1.107,15.142,15.142,0,0,1-5.462-3.408,17.721,17.721,0,0,1-3.876-5.709,22.133,22.133,0,0,1,0-16.02,16.722,16.722,0,0,1,3.876-5.622,14.732,14.732,0,0,1,5.462-3.238,19.694,19.694,0,0,1,12.777.083,15.071,15.071,0,0,1,5.552,3.408,16.773,16.773,0,0,1,3.79,5.709,20.41,20.41,0,0,1,1.411,7.84A19.3,19.3,0,0,1,1464.9,727.954Z" transform="translate(-1018.046 -430.809)"/><path class="c" d="M747.656,676.11l-15.681,33.006-3.515,7.4L709.537,676.11h-32.1l44.046,85.223c-.066-.124-.116-.257-.176-.385.07.151.132.306.211.452l.058.11a7.94,7.94,0,0,0,14.213-.725l.836-1.487,43.136-83.187Z" transform="translate(-475.86 -431.289)"/><path class="c" d="M1106.657,759.334a4.063,4.063,0,0,1,.281.489l-37.576-81.138v0a3.989,3.989,0,0,0-7.46,0L1024.378,759.7l.015.024a3.957,3.957,0,0,0-.468,1.84,4,4,0,0,0,4,4h19.885a4,4,0,0,0,3.663-2.4l-.005.026,14.229-32.186,14.1,32.183.027.018a4,4,0,0,0,3.635,2.355h19.866a4,4,0,0,0,3.324-6.236Z" transform="translate(-733.988 -431.289)"/><path class="c" d="M361.6,624.233a40.025,40.025,0,0,0-8.754-13.451,41.635,41.635,0,0,0-13.914-9.176,47.654,47.654,0,0,0-18.334-3.383,52.25,52.25,0,0,0-19.348,3.56,48.8,48.8,0,0,0-15.663,9.8,46.585,46.585,0,0,0-10.411,51.849,43.154,43.154,0,0,0,10.69,14.792,50.9,50.9,0,0,0,16.4,9.8,59.027,59.027,0,0,0,20.9,3.674,60.609,60.609,0,0,0,33.4-9.818,4.149,4.149,0,0,0,.887-6.4,4.2,4.2,0,0,1,.336.407l-7.285-13.283-.016,0a4.159,4.159,0,0,0-5.345-2.012l-.067.032a50.921,50.921,0,0,1-8.257,3.342,43.139,43.139,0,0,1-12.53,1.784,29.629,29.629,0,0,1-12.8-2.5,16.312,16.312,0,0,1-7.831-7.665h55.7l.022,0a4.183,4.183,0,0,0,4.183-4.183,4.19,4.19,0,0,1-.076.752c.232-1.128.438-2.327.612-3.6a59.24,59.24,0,0,0,.553-8.115A43.587,43.587,0,0,0,361.6,624.233Zm-59.058,11.409a19.647,19.647,0,0,1,6.448-9.891,17.147,17.147,0,0,1,20.823.089,12.976,12.976,0,0,1,4.79,9.8Z" transform="translate(-173.37 -373.265)"/></g><g transform="translate(1147.27)"><path class="c" d="M24.887-217.982A40.741,40.741,0,0,0,14.243-232a47.49,47.49,0,0,0-16.034-8.8,63.177,63.177,0,0,0-19.886-3.013h-28.3a4,4,0,0,0-4,4v81.437a4,4,0,0,0,4,4h28.3A59.677,59.677,0,0,0-1.791-157.72a49.038,49.038,0,0,0,16.034-9.144,42.047,42.047,0,0,0,10.644-14.15,43.047,43.047,0,0,0,3.852-18.414A43.414,43.414,0,0,0,24.887-217.982ZM2.061-189.276a22.176,22.176,0,0,1-5.463,7.52,23.776,23.776,0,0,1-8.193,4.67,31.4,31.4,0,0,1-10.224,1.624H-29.8v-47.26h7.983A35.668,35.668,0,0,1-11.595-221.3,23.142,23.142,0,0,1-3.4-217.037a20.33,20.33,0,0,1,5.463,7.247,24.594,24.594,0,0,1,2.031,10.362A24.325,24.325,0,0,1,2.061-189.276Z" transform="translate(69.03 254.034)"/><rect class="c" width="30.313" height="89.424" rx="4.722" transform="translate(494.009 15.328)"/><path class="c" d="M1494.247-217.95a42.678,42.678,0,0,0-8.725-14.059,39.229,39.229,0,0,0-13.39-9.2,43.128,43.128,0,0,0-17.008-3.325,36.282,36.282,0,0,0-14.8,2.811,26.93,26.93,0,0,0-8.214,5.6c-.016.016-.091.076-.111.093a1.243,1.243,0,0,1-.825.312,1.247,1.247,0,0,1-1.247-1.247v-4.472q0-.509,0-1.018v-.607a1.3,1.3,0,0,0-.289-.88,1.226,1.226,0,0,0-.915-.424h-22.291a1.2,1.2,0,0,0-1.2,1.2h0v109.527a1.2,1.2,0,0,0,1.2,1.2h24.9c.013,0,.025,0,.038,0s.025,0,.038,0a1.2,1.2,0,0,0,1.167-1.2s0-26.791,0-26.8a1.2,1.2,0,0,1,1.2-1.2,1.223,1.223,0,0,1,.765.276q7.814,6.126,20.589,6.125a43.19,43.19,0,0,0,17.008-3.321,38.7,38.7,0,0,0,13.39-9.287,43.412,43.412,0,0,0,8.725-14.233,49.764,49.764,0,0,0,3.172-17.977A49.118,49.118,0,0,0,1494.247-217.95Zm-29.344,25.9a17.774,17.774,0,0,1-3.876,5.709,15.142,15.142,0,0,1-5.462,3.408,18.912,18.912,0,0,1-6.435,1.107,18.384,18.384,0,0,1-6.256-1.107,15.142,15.142,0,0,1-5.462-3.408,17.72,17.72,0,0,1-3.876-5.709,19.774,19.774,0,0,1-1.5-8.01,19.786,19.786,0,0,1,1.5-8.01,16.722,16.722,0,0,1,3.876-5.622,14.733,14.733,0,0,1,5.462-3.238,19.7,19.7,0,0,1,6.256-1.024,19.738,19.738,0,0,1,6.521,1.107,15.072,15.072,0,0,1,5.552,3.408,16.772,16.772,0,0,1,3.79,5.709,20.411,20.411,0,0,1,1.411,7.84A19.3,19.3,0,0,1,1464.9-192.046Z" transform="translate(-1018.046 254.571)"/><path class="c" d="M747.656-213.89l-15.681,33.007-3.515,7.4L709.537-213.89h-32.1l44.046,85.223c-.066-.124-.116-.257-.176-.385.07.151.132.306.211.452l.058.11a7.939,7.939,0,0,0,7,4.06,7.94,7.94,0,0,0,7.209-4.785l.836-1.487,43.136-83.188Z" transform="translate(-475.86 231.742)"/><path class="c" d="M1116.657-200.666a4.019,4.019,0,0,1,.281.489l-37.576-81.138v0a4,4,0,0,0-3.73-2.576,4,4,0,0,0-3.73,2.575L1034.378-200.3l.015.024a3.96,3.96,0,0,0-.467,1.84,4,4,0,0,0,4,4h19.885a4,4,0,0,0,3.663-2.4l14.224-32.16,14.1,32.183.027.018a4,4,0,0,0,3.635,2.355h19.866a4,4,0,0,0,4-4A3.985,3.985,0,0,0,1116.657-200.666Z" transform="translate(-741.438 283.89)"/><path class="c" d="M406.74-219.045a38.309,38.309,0,0,0-8.379-12.876,39.853,39.853,0,0,0-13.319-8.784,45.616,45.616,0,0,0-17.55-3.238,50.018,50.018,0,0,0-18.521,3.408,46.716,46.716,0,0,0-14.993,9.383,43.072,43.072,0,0,0-9.966,14.16,43.366,43.366,0,0,0-3.615,17.737,43.365,43.365,0,0,0,3.615,17.737,41.311,41.311,0,0,0,10.233,14.16,48.724,48.724,0,0,0,15.7,9.383,56.5,56.5,0,0,0,20,3.517,58.017,58.017,0,0,0,31.973-9.4,3.989,3.989,0,0,0,1.93-3.41,3.977,3.977,0,0,0-1.081-2.72,4.055,4.055,0,0,1,.321.389l-6.974-12.715-.015,0a3.991,3.991,0,0,0-3.575-2.236,3.986,3.986,0,0,0-1.542.31l-.064.031a48.736,48.736,0,0,1-7.9,3.2,41.3,41.3,0,0,1-11.995,1.707,28.362,28.362,0,0,1-12.257-2.392,15.615,15.615,0,0,1-7.5-7.337H404.58l.021,0a4,4,0,0,0,4-4,4.006,4.006,0,0,1-.072.72c.222-1.08.419-2.227.586-3.448a56.714,56.714,0,0,0,.529-7.768A41.719,41.719,0,0,0,406.74-219.045Zm-56.533,10.921a18.806,18.806,0,0,1,6.173-9.468,15.541,15.541,0,0,1,9.879-3.33,15.553,15.553,0,0,1,10.054,3.414,12.422,12.422,0,0,1,4.586,9.384Z" transform="translate(-209.874 254.13)"/><path class="c" d="M1231.246,136.646h-27.9c-.665,0-1.2.735-1.2,1.642V256.905c0,.906.539,1.641,1.2,1.641h27.9c.665,0,1.2-.735,1.2-1.641V138.288C1232.45,137.381,1231.91,136.646,1231.246,136.646Z" transform="translate(-866.752 -29.4)"/><path class="c" d="M862.246,202.05a42.674,42.674,0,0,0-8.725-14.059,39.23,39.23,0,0,0-13.39-9.2,43.127,43.127,0,0,0-17.008-3.325,36.283,36.283,0,0,0-14.8,2.811,26.931,26.931,0,0,0-8.214,5.6c-.016.016-.091.076-.111.093a1.247,1.247,0,0,1-2.072-.935v-4.472q0-.509,0-1.018v-.607a1.3,1.3,0,0,0-.289-.88,1.225,1.225,0,0,0-.914-.424H774.426a1.2,1.2,0,0,0-1.2,1.2h0V286.364a1.2,1.2,0,0,0,1.2,1.2h24.9c.013,0,.025,0,.038,0s.025,0,.038,0a1.2,1.2,0,0,0,1.167-1.2s0-26.791,0-26.8a1.2,1.2,0,0,1,1.2-1.2,1.223,1.223,0,0,1,.765.276q7.814,6.126,20.59,6.125a43.189,43.189,0,0,0,17.008-3.321,38.7,38.7,0,0,0,13.39-9.287,43.408,43.408,0,0,0,8.725-14.233,49.763,49.763,0,0,0,3.172-17.977A49.117,49.117,0,0,0,862.246,202.05Zm-29.344,25.9a17.77,17.77,0,0,1-3.876,5.709,15.143,15.143,0,0,1-5.462,3.408,18.911,18.911,0,0,1-6.435,1.107,18.385,18.385,0,0,1-6.256-1.107,15.143,15.143,0,0,1-5.462-3.408,17.72,17.72,0,0,1-3.876-5.709,22.132,22.132,0,0,1,0-16.02,16.721,16.721,0,0,1,3.876-5.622,14.734,14.734,0,0,1,5.462-3.238,19.694,19.694,0,0,1,12.777.083,15.069,15.069,0,0,1,5.552,3.408,16.773,16.773,0,0,1,3.79,5.709,20.414,20.414,0,0,1,1.411,7.84A19.3,19.3,0,0,1,832.9,227.954Z" transform="translate(-547.22 -58.32)"/><path class="c" d="M115.656,176.11,99.975,209.117l-3.515,7.4L77.537,176.11h-32.1L89.48,261.333c-.066-.124-.116-.257-.176-.385.07.151.132.306.211.452l.058.11a7.94,7.94,0,0,0,14.213-.725l.836-1.487,43.136-83.188Z" transform="translate(-5.034 -58.8)"/><path class="c" d="M474.657,259.334a4.026,4.026,0,0,1,.282.489l-37.576-81.138v0a3.989,3.989,0,0,0-7.46,0L392.378,259.7l.015.024a3.96,3.96,0,0,0-.467,1.84,4,4,0,0,0,4,4h19.885a4,4,0,0,0,3.663-2.4l14.224-32.16,14.1,32.183.027.018a4,4,0,0,0,3.635,2.355h19.866a4,4,0,0,0,3.324-6.236Z" transform="translate(-263.162 -58.8)"/><path class="c" d="M1483.887,284.018A40.74,40.74,0,0,0,1473.243,270a47.488,47.488,0,0,0-16.034-8.8,63.176,63.176,0,0,0-19.886-3.013h-28.3a4,4,0,0,0-4,4v81.437a4,4,0,0,0,4,4h28.3a59.677,59.677,0,0,0,19.891-3.353,49.035,49.035,0,0,0,16.034-9.144,42.046,42.046,0,0,0,10.644-14.15,46.275,46.275,0,0,0,0-36.968Zm-22.826,28.706a22.174,22.174,0,0,1-5.463,7.52,23.778,23.778,0,0,1-8.193,4.67,31.4,31.4,0,0,1-10.224,1.624H1429.2v-47.26h7.983a35.669,35.669,0,0,1,10.224,1.421,23.145,23.145,0,0,1,8.193,4.264,20.329,20.329,0,0,1,5.463,7.247,24.594,24.594,0,0,1,2.031,10.362A24.326,24.326,0,0,1,1461.061,312.724Z" transform="translate(-1017.892 -119.945)"/><path class="c" d="M1865.74,182.955a38.308,38.308,0,0,0-8.379-12.876,39.855,39.855,0,0,0-13.319-8.784,45.617,45.617,0,0,0-17.55-3.238,50.019,50.019,0,0,0-18.521,3.408,46.718,46.718,0,0,0-14.993,9.383,44.594,44.594,0,0,0-9.966,49.633,41.311,41.311,0,0,0,10.233,14.16,48.722,48.722,0,0,0,15.7,9.383,56.5,56.5,0,0,0,20,3.517,58.016,58.016,0,0,0,31.973-9.4,3.971,3.971,0,0,0,.849-6.129,4.077,4.077,0,0,1,.321.389l-6.974-12.715-.015,0a3.981,3.981,0,0,0-5.117-1.926l-.064.031a48.74,48.74,0,0,1-7.9,3.2,41.3,41.3,0,0,1-11.995,1.707,28.362,28.362,0,0,1-12.257-2.392,15.615,15.615,0,0,1-7.5-7.337h53.315l.021,0a4,4,0,0,0,4-4,3.993,3.993,0,0,1-.073.72c.222-1.08.419-2.227.586-3.448a56.706,56.706,0,0,0,.529-7.768A41.714,41.714,0,0,0,1865.74,182.955Zm-56.533,10.921a18.805,18.805,0,0,1,6.172-9.468,16.414,16.414,0,0,1,19.933.084,12.421,12.421,0,0,1,4.586,9.384Z" transform="translate(-1296.796 -45.351)"/><path class="c" d="M-34.113,622.018A40.741,40.741,0,0,0-44.757,608a47.489,47.489,0,0,0-16.034-8.8,63.178,63.178,0,0,0-19.886-3.013h-28.3a4,4,0,0,0-4,4v81.437a4,4,0,0,0,4,4h28.3a59.678,59.678,0,0,0,19.891-3.353,49.037,49.037,0,0,0,16.034-9.144,42.046,42.046,0,0,0,10.644-14.15,43.047,43.047,0,0,0,3.852-18.414A43.414,43.414,0,0,0-34.113,622.018Zm-22.826,28.706a22.176,22.176,0,0,1-5.463,7.52,23.776,23.776,0,0,1-8.193,4.67,31.4,31.4,0,0,1-10.224,1.624H-88.8v-47.26h7.983A35.67,35.67,0,0,1-70.595,618.7a23.144,23.144,0,0,1,8.193,4.264,20.33,20.33,0,0,1,5.463,7.247,24.594,24.594,0,0,1,2.031,10.362A24.326,24.326,0,0,1-56.939,650.724Z" transform="translate(112.984 -371.748)"/><path class="c" d="M1863.246,571.646h-27.9a1.419,1.419,0,0,0-1.2,1.563V686.174a1.419,1.419,0,0,0,1.2,1.563h27.9a1.42,1.42,0,0,0,1.2-1.563V573.209A1.42,1.42,0,0,0,1863.246,571.646Z" transform="translate(-1337.578 -353.465)"/><path class="c" d="M1494.247,702.05a42.678,42.678,0,0,0-8.725-14.059,39.231,39.231,0,0,0-13.39-9.2,43.129,43.129,0,0,0-17.008-3.325,36.282,36.282,0,0,0-14.8,2.811,26.929,26.929,0,0,0-8.214,5.6c-.016.016-.091.076-.111.093a1.247,1.247,0,0,1-2.072-.935v-4.472q0-.509,0-1.018v-.607a1.3,1.3,0,0,0-.289-.88,1.225,1.225,0,0,0-.915-.424h-22.291a1.2,1.2,0,0,0-1.2,1.2h0V786.364a1.2,1.2,0,0,0,1.2,1.2h24.9c.013,0,.025,0,.038,0s.025,0,.038,0a1.2,1.2,0,0,0,1.167-1.2s0-26.791,0-26.8a1.2,1.2,0,0,1,1.2-1.2,1.223,1.223,0,0,1,.765.276q7.814,6.126,20.589,6.125a43.19,43.19,0,0,0,17.008-3.321,38.7,38.7,0,0,0,13.39-9.287,43.413,43.413,0,0,0,8.725-14.233,49.765,49.765,0,0,0,3.172-17.977A49.118,49.118,0,0,0,1494.247,702.05Zm-29.344,25.9a17.774,17.774,0,0,1-3.876,5.709,15.142,15.142,0,0,1-5.462,3.408,18.912,18.912,0,0,1-6.435,1.107,18.384,18.384,0,0,1-6.256-1.107,15.142,15.142,0,0,1-5.462-3.408,17.721,17.721,0,0,1-3.876-5.709,22.133,22.133,0,0,1,0-16.02,16.722,16.722,0,0,1,3.876-5.622,14.732,14.732,0,0,1,5.462-3.238,19.694,19.694,0,0,1,12.777.083,15.071,15.071,0,0,1,5.552,3.408,16.773,16.773,0,0,1,3.79,5.709,20.41,20.41,0,0,1,1.411,7.84A19.3,19.3,0,0,1,1464.9,727.954Z" transform="translate(-1018.046 -430.809)"/><path class="c" d="M747.656,676.11l-15.681,33.006-3.515,7.4L709.537,676.11h-32.1l44.046,85.223c-.066-.124-.116-.257-.176-.385.07.151.132.306.211.452l.058.11a7.94,7.94,0,0,0,14.213-.725l.836-1.487,43.136-83.187Z" transform="translate(-475.86 -431.289)"/><path class="c" d="M1106.657,759.334a4.063,4.063,0,0,1,.281.489l-37.576-81.138v0a3.989,3.989,0,0,0-7.46,0L1024.378,759.7l.015.024a3.957,3.957,0,0,0-.468,1.84,4,4,0,0,0,4,4h19.885a4,4,0,0,0,3.663-2.4l-.005.026,14.229-32.186,14.1,32.183.027.018a4,4,0,0,0,3.635,2.355h19.866a4,4,0,0,0,3.324-6.236Z" transform="translate(-733.988 -431.289)"/><path class="c" d="M361.6,624.233a40.025,40.025,0,0,0-8.754-13.451,41.635,41.635,0,0,0-13.914-9.176,47.654,47.654,0,0,0-18.334-3.383,52.25,52.25,0,0,0-19.348,3.56,48.8,48.8,0,0,0-15.663,9.8,46.585,46.585,0,0,0-10.411,51.849,43.154,43.154,0,0,0,10.69,14.792,50.9,50.9,0,0,0,16.4,9.8,59.027,59.027,0,0,0,20.9,3.674,60.609,60.609,0,0,0,33.4-9.818,4.149,4.149,0,0,0,.887-6.4,4.2,4.2,0,0,1,.336.407l-7.285-13.283-.016,0a4.159,4.159,0,0,0-5.345-2.012l-.067.032a50.921,50.921,0,0,1-8.257,3.342,43.139,43.139,0,0,1-12.53,1.784,29.629,29.629,0,0,1-12.8-2.5,16.312,16.312,0,0,1-7.831-7.665h55.7l.022,0a4.183,4.183,0,0,0,4.183-4.183,4.19,4.19,0,0,1-.076.752c.232-1.128.438-2.327.612-3.6a59.24,59.24,0,0,0,.553-8.115A43.587,43.587,0,0,0,361.6,624.233Zm-59.058,11.409a19.647,19.647,0,0,1,6.448-9.891,17.147,17.147,0,0,1,20.823.089,12.976,12.976,0,0,1,4.79,9.8Z" transform="translate(-173.37 -373.265)"/></g></g></g></g></g></svg>