<svg xmlns="http://www.w3.org/2000/svg" width="99.803" height="70" viewBox="0 0 99.803 70">
  <g id="devapi-by-tivit-color" transform="translate(0 -0.324)">
    <g id="Grupo_28514" data-name="Grupo 28514" transform="translate(0 34.904)">
      <path id="Caminho_21370" data-name="Caminho 21370" d="M15.377,208.636a7.962,7.962,0,0,0-2.077-2.725,9.382,9.382,0,0,0-3.133-1.72,12.415,12.415,0,0,0-3.882-.6H.783a.781.781,0,0,0-.783.783v15.87a.781.781,0,0,0,.783.783H6.3a11.631,11.631,0,0,0,3.882-.664,9.593,9.593,0,0,0,3.133-1.788,8.485,8.485,0,0,0,2.077-2.759A9.157,9.157,0,0,0,15.377,208.636Zm-4.444,5.585a4.132,4.132,0,0,1-1.073,1.464,4.682,4.682,0,0,1-1.6.92,6.106,6.106,0,0,1-1.992.324H4.717v-9.212h1.55a6.639,6.639,0,0,1,1.992.289,4.367,4.367,0,0,1,1.6.834,4.384,4.384,0,0,1,1.073,1.413,4.583,4.583,0,0,1,.392,2.026A4.825,4.825,0,0,1,10.932,214.221Z" transform="translate(0 -203.561)" fill="#fff"/>
      <path id="Caminho_21371" data-name="Caminho 21371" d="M551.538,203.6h5.449a.233.233,0,0,1,.238.238V220.8a.233.233,0,0,1-.238.238h-5.449a.233.233,0,0,1-.238-.238v-16.96A.233.233,0,0,1,551.538,203.6Z" transform="translate(-457.423 -203.565)" fill="#fff"/>
      <path id="Caminho_21372" data-name="Caminho 21372" d="M443.369,208.572a8.626,8.626,0,0,0-1.7-2.742,7.426,7.426,0,0,0-2.605-1.788,8.247,8.247,0,0,0-3.32-.647,6.887,6.887,0,0,0-2.878.562,5.391,5.391,0,0,0-1.6,1.073l-.034.017a.26.26,0,0,1-.17.068.233.233,0,0,1-.238-.238h0v-1.192a.254.254,0,0,0-.051-.17.22.22,0,0,0-.187-.085h-4.342a.233.233,0,0,0-.238.238h0v21.371a.233.233,0,0,0,.238.238h4.87a.233.233,0,0,0,.238-.238v-5.228a.233.233,0,0,1,.238-.238h0a.541.541,0,0,1,.153.051,6.306,6.306,0,0,0,4.019,1.192,8.247,8.247,0,0,0,3.321-.647,7.3,7.3,0,0,0,2.605-1.822,8.373,8.373,0,0,0,1.7-2.776,9.46,9.46,0,0,0,.613-3.508A10.128,10.128,0,0,0,443.369,208.572Zm-5.722,5.057a3.872,3.872,0,0,1-.766,1.124,2.918,2.918,0,0,1-1.073.664,3.82,3.82,0,0,1-1.243.221,3.885,3.885,0,0,1-1.226-.221,2.917,2.917,0,0,1-1.073-.664,3.658,3.658,0,0,1-.766-1.124,4.325,4.325,0,0,1,0-3.133,3.025,3.025,0,0,1,.766-1.09,2.84,2.84,0,0,1,1.073-.63,3.771,3.771,0,0,1,2.486.017,3.064,3.064,0,0,1,1.073.664,3.739,3.739,0,0,1,.749,1.107,3.937,3.937,0,0,1,.273,1.533A3.882,3.882,0,0,1,437.647,213.63Z" transform="translate(-353.459 -203.395)" fill="#fff"/>
      <path id="Caminho_21373" data-name="Caminho 21373" d="M227.191,203.6l-3.065,6.437-.681,1.447-3.7-7.884H213.5l8.582,16.62c-.017-.034-.034-.051-.034-.085a.288.288,0,0,1,.034.085l.017.034a1.542,1.542,0,0,0,2.094.613,1.5,1.5,0,0,0,.664-.749l.17-.29,8.412-16.211Z" transform="translate(-177.145 -203.565)" fill="#fff"/>
      <path id="Caminho_21374" data-name="Caminho 21374" d="M330.861,219.655c.034.034.034.068.051.085l-7.322-15.819h0a.764.764,0,0,0-.988-.46.727.727,0,0,0-.46.46l-7.305,15.785h0a.757.757,0,0,0,.306,1.039.714.714,0,0,0,.375.085h3.865a.791.791,0,0,0,.715-.46h0l2.776-6.266,2.759,6.283h0a.764.764,0,0,0,.715.46h3.882a.756.756,0,0,0,.766-.783.655.655,0,0,0-.136-.409Z" transform="translate(-261.147 -203.41)" fill="#fff"/>
      <path id="Caminho_21375" data-name="Caminho 21375" d="M126.095,208.448a7.412,7.412,0,0,0-1.635-2.5,7.64,7.64,0,0,0-2.605-1.72,8.722,8.722,0,0,0-3.423-.63,9.693,9.693,0,0,0-3.61.664,9.2,9.2,0,0,0-2.929,1.822,8.679,8.679,0,0,0-1.941,9.672,8.246,8.246,0,0,0,1.992,2.776,9.33,9.33,0,0,0,3.065,1.822,10.875,10.875,0,0,0,3.9.681,11.384,11.384,0,0,0,6.232-1.822.778.778,0,0,0,.272-1.056c-.034-.051-.068-.085-.1-.136.034.034.034.051.068.085l-1.362-2.486h0a.768.768,0,0,0-1-.375H123a8.626,8.626,0,0,1-1.55.613,7.849,7.849,0,0,1-2.35.341,5.7,5.7,0,0,1-2.4-.46,2.991,2.991,0,0,1-1.464-1.43h10.4a.781.781,0,0,0,.783-.783h0a.375.375,0,0,1-.017.136c.034-.2.085-.443.119-.664a11.149,11.149,0,0,0,.1-1.516A7.9,7.9,0,0,0,126.095,208.448Zm-11.017,2.129a3.681,3.681,0,0,1,1.209-1.839,3.194,3.194,0,0,1,3.882.017,2.335,2.335,0,0,1,.885,1.822Z" transform="translate(-90.642 -203.56)" fill="#fff"/>
    </g>
    <path id="Caminho_21376" data-name="Caminho 21376" d="M168.48,18.745a10.834,10.834,0,0,0-9.655-8.514A20.906,20.906,0,0,0,151.741,3.4a22.747,22.747,0,0,0-22.852,0,21.061,21.061,0,0,0-7.084,6.828,10.834,10.834,0,0,0-9.655,8.514A5.112,5.112,0,0,0,109,23.411a5.449,5.449,0,0,0,10.881,0,5.066,5.066,0,0,0-2.707-4.444,6.108,6.108,0,0,1,5.909-4.138l1.073.034a1.049,1.049,0,0,0,.817-.392l.528-.92a17.124,17.124,0,0,1,29.663,0l.477.868h.017a1.081,1.081,0,0,0,.868.426l1.073-.034a6.108,6.108,0,0,1,5.909,4.138,5.066,5.066,0,0,0-2.707,4.444,5.441,5.441,0,0,0,10.864.017A5.191,5.191,0,0,0,168.48,18.745Zm-.63,4.666a1.673,1.673,0,1,1-1.669-1.55A1.617,1.617,0,0,1,167.85,23.411Zm-51.732,0a1.69,1.69,0,1,1-1.686-1.567,1.635,1.635,0,0,1,1.686,1.567Z" transform="translate(-90.439 0)" fill="#fff"/>
    <g id="Grupo_28517" data-name="Grupo 28517" transform="translate(18.561 62.61)">
      <g id="Grupo_28515" data-name="Grupo 28515" transform="translate(0 0.954)">
        <path id="Caminho_21377" data-name="Caminho 21377" d="M111.963,376.349v-.9h-.017a1.655,1.655,0,0,1-.63.732,1.578,1.578,0,0,1-.92.272,1.437,1.437,0,0,1-1.022-.358,1.2,1.2,0,0,1-.375-.92c0-.783.528-1.26,1.567-1.43l1.4-.2c0-.971-.358-1.464-1.09-1.464a2.241,2.241,0,0,0-1.447.6v-.494a2.3,2.3,0,0,1,.681-.341,2.417,2.417,0,0,1,.817-.136,1.35,1.35,0,0,1,1.073.426,1.857,1.857,0,0,1,.375,1.26v2.963ZM110.72,374.1a2.228,2.228,0,0,0-1,.324.888.888,0,0,0-.289.732.849.849,0,0,0,.272.664,1.024,1.024,0,0,0,.749.255,1.385,1.385,0,0,0,1.09-.477,1.779,1.779,0,0,0,.426-1.243v-.443Z" transform="translate(-109 -371.7)" fill="#fff"/>
        <path id="Caminho_21378" data-name="Caminho 21378" d="M389.752,376.227a2.277,2.277,0,0,1-1.209.307,1.871,1.871,0,0,1-1.481-.63,2.4,2.4,0,0,1-.562-1.652,2.508,2.508,0,0,1,.63-1.771,2.122,2.122,0,0,1,1.635-.681,2.586,2.586,0,0,1,1,.2v.46a1.953,1.953,0,0,0-1.056-.306,1.625,1.625,0,0,0-1.294.579,2.191,2.191,0,0,0-.494,1.482,2.106,2.106,0,0,0,.46,1.413,1.482,1.482,0,0,0,1.192.528,1.926,1.926,0,0,0,1.175-.358Z" transform="translate(-339.246 -371.783)" fill="#fff"/>
        <path id="Caminho_21379" data-name="Caminho 21379" d="M411.645,376.717a2.016,2.016,0,0,1-1.567-.647,2.811,2.811,0,0,1,.017-3.44,2.091,2.091,0,0,1,1.584-.63,1.931,1.931,0,0,1,1.533.63,2.553,2.553,0,0,1,.562,1.754,2.431,2.431,0,0,1-.579,1.7A1.975,1.975,0,0,1,411.645,376.717Zm.034-4.376a1.647,1.647,0,0,0-1.277.545,2.524,2.524,0,0,0-.017,2.929,1.586,1.586,0,0,0,1.26.545,1.529,1.529,0,0,0,1.26-.528,2.276,2.276,0,0,0,.443-1.464,2.23,2.23,0,0,0-.443-1.481A1.426,1.426,0,0,0,411.68,372.341Z" transform="translate(-358.33 -371.949)" fill="#fff"/>
        <path id="Caminho_21380" data-name="Caminho 21380" d="M446.37,376.432v-2.725a1.919,1.919,0,0,0-.272-1.192,1.019,1.019,0,0,0-.851-.341,1.161,1.161,0,0,0-.92.46,1.763,1.763,0,0,0-.392,1.158v2.639h-.409v-2.759c0-1-.375-1.516-1.141-1.516a1.114,1.114,0,0,0-.919.46,1.875,1.875,0,0,0-.358,1.192v2.622H440.7v-4.513h.409v.749h.017a1.512,1.512,0,0,1,1.379-.868,1.355,1.355,0,0,1,.851.289,1.4,1.4,0,0,1,.477.749,1.712,1.712,0,0,1,.613-.766,1.41,1.41,0,0,1,.851-.272q1.481,0,1.481,1.839v2.793Z" transform="translate(-384.217 -371.783)" fill="#fff"/>
        <path id="Caminho_21381" data-name="Caminho 21381" d="M484.226,375.631h-.017v2.878H483.8V371.9h.409v.937h.017a1.7,1.7,0,0,1,.7-.766,1.839,1.839,0,0,1,.988-.272,1.648,1.648,0,0,1,1.345.6,2.476,2.476,0,0,1,.477,1.618,2.887,2.887,0,0,1-.562,1.839,1.792,1.792,0,0,1-1.464.7A1.578,1.578,0,0,1,484.226,375.631Zm-.017-1.686v.562a1.723,1.723,0,0,0,.426,1.175,1.445,1.445,0,0,0,1.124.494,1.346,1.346,0,0,0,1.124-.6,2.587,2.587,0,0,0,.426-1.567,2.143,2.143,0,0,0-.392-1.345,1.285,1.285,0,0,0-1.056-.494,1.482,1.482,0,0,0-1.226.528A1.9,1.9,0,0,0,484.209,373.946Z" transform="translate(-419.978 -371.783)" fill="#fff"/>
        <path id="Caminho_21382" data-name="Caminho 21382" d="M514.463,376.349v-.9h-.017a1.655,1.655,0,0,1-.63.732,1.578,1.578,0,0,1-.92.272,1.437,1.437,0,0,1-1.022-.358,1.2,1.2,0,0,1-.375-.92c0-.783.528-1.26,1.567-1.43l1.4-.2c0-.971-.358-1.464-1.09-1.464a2.242,2.242,0,0,0-1.447.6v-.494a2.306,2.306,0,0,1,.681-.341,2.417,2.417,0,0,1,.817-.136,1.35,1.35,0,0,1,1.073.426,1.857,1.857,0,0,1,.375,1.26v2.963ZM513.22,374.1a2.228,2.228,0,0,0-1,.324.888.888,0,0,0-.289.732.85.85,0,0,0,.272.664,1.024,1.024,0,0,0,.749.255,1.385,1.385,0,0,0,1.09-.477,1.78,1.78,0,0,0,.426-1.243v-.443Z" transform="translate(-442.961 -371.7)" fill="#fff"/>
        <path id="Caminho_21383" data-name="Caminho 21383" d="M541.782,376.432v-2.639q0-1.635-1.175-1.635a1.327,1.327,0,0,0-1.073.477,1.789,1.789,0,0,0-.426,1.192v2.605H538.7v-4.513h.409v.817h.017a1.656,1.656,0,0,1,1.549-.937,1.351,1.351,0,0,1,1.124.494,2.2,2.2,0,0,1,.392,1.4v2.742Z" transform="translate(-465.529 -371.783)" fill="#fff"/>
        <path id="Caminho_21384" data-name="Caminho 21384" d="M564.637,377.849a2.573,2.573,0,0,1-.545.9,1.027,1.027,0,0,1-.766.289.789.789,0,0,1-.357-.068v-.409a1.133,1.133,0,0,0,.375.068c.358,0,.647-.255.851-.749l.426-1L562.9,372.4h.46l1.362,3.678c.034.085.051.136.068.187s.017.1.034.153h.017l.1-.306,1.464-3.712h.443Z" transform="translate(-485.609 -372.281)" fill="#fff"/>
      </g>
      <g id="Grupo_28516" data-name="Grupo 28516" transform="translate(7.544)">
        <path id="Caminho_21385" data-name="Caminho 21385" d="M317.587,367.51c-.051-.306-.119-.63-.187-.988a26.809,26.809,0,0,1,8.957-.017.46.46,0,0,1,.017.2c-.051.255-.1.494-.153.766-1.226-.119-2.452-.221-3.746-.341v4.121h-1.141v-4.07c-.664.034-1.277.068-1.89.119C318.847,367.34,318.251,367.425,317.587,367.51Z" transform="translate(-289.457 -366.131)" fill="#fff"/>
        <path id="Caminho_21386" data-name="Caminho 21386" d="M158.391,367.1v4.121h-1.158V367.1c-1.277.119-2.486.238-3.746.358-.051-.29-.119-.613-.187-.971a26.664,26.664,0,0,1,9.008-.017c-.034.187-.051.358-.085.511a4.357,4.357,0,0,0-.085.46C160.878,367.343,159.669,367.224,158.391,367.1Z" transform="translate(-153.3 -366.1)" fill="#fff"/>
        <path id="Caminho_21387" data-name="Caminho 21387" d="M239.893,371.6c-1.464-1.533-2.895-3.031-4.393-4.615.392-.289.664-.494.937-.681,1.141,1.26,2.3,2.5,3.542,3.882,1.226-1.345,2.367-2.588,3.542-3.882.221.17.511.358.817.6A26.849,26.849,0,0,1,239.893,371.6Z" transform="translate(-221.503 -366.266)" fill="#fff"/>
        <path id="Caminho_21388" data-name="Caminho 21388" d="M299.7,372.37V367.5h1.107v4.87Z" transform="translate(-274.77 -367.262)" fill="#fff"/>
        <path id="Caminho_21389" data-name="Caminho 21389" d="M217.6,367.236a.339.339,0,0,1,.136-.051c.954-.1.954-.1.954.851v3.235c0,.971-.034.988-1.09.783Z" transform="translate(-206.651 -366.963)" fill="#fff"/>
      </g>
    </g>
  </g>
</svg>
