<svg id="Grupo_22740" data-name="Grupo 22740" xmlns="http://www.w3.org/2000/svg" xmlns:xlink="http://www.w3.org/1999/xlink" width="789.621" height="512.593" viewBox="0 0 789.621 512.593">
  <defs>
    <clipPath id="clip-path">
      <rect id="Retângulo_2671" data-name="Retângulo 2671" width="789.621" height="512.593" fill="none"/>
    </clipPath>
    <clipPath id="clip-path-3">
      <rect id="Retângulo_2628" data-name="Retângulo 2628" width="27.139" height="3.663" fill="none"/>
    </clipPath>
    <clipPath id="clip-path-5">
      <rect id="Retângulo_2630" data-name="Retângulo 2630" width="4.925" height="3.663" fill="none"/>
    </clipPath>
    <clipPath id="clip-path-7">
      <rect id="Retângulo_2634" data-name="Retângulo 2634" width="4.761" height="3.401" fill="none"/>
    </clipPath>
    <clipPath id="clip-path-9">
      <rect id="Retângulo_2637" data-name="Retângulo 2637" width="5.822" height="3.401" fill="none"/>
    </clipPath>
    <clipPath id="clip-path-11">
      <rect id="Retângulo_2639" data-name="Retângulo 2639" width="16.236" height="3.663" fill="none"/>
    </clipPath>
    <clipPath id="clip-path-13">
      <rect id="Retângulo_2641" data-name="Retângulo 2641" width="12.046" height="3.662" fill="none"/>
    </clipPath>
    <clipPath id="clip-path-15">
      <rect id="Retângulo_2643" data-name="Retângulo 2643" width="7.41" height="3.662" fill="none"/>
    </clipPath>
    <clipPath id="clip-path-17">
      <rect id="Retângulo_2646" data-name="Retângulo 2646" width="24.497" height="3.663" fill="none"/>
    </clipPath>
    <clipPath id="clip-path-19">
      <rect id="Retângulo_2650" data-name="Retângulo 2650" width="7.706" height="7.321" fill="none"/>
    </clipPath>
    <clipPath id="clip-path-20">
      <path id="Caminho_17224" data-name="Caminho 17224" d="M525.015,233.44v1.292a.227.227,0,0,0,.453,0V233.44a.221.221,0,0,0-.22-.215h-.012a.22.22,0,0,0-.221.215m.907,0v1.292a.227.227,0,0,0,.454,0V233.44a.222.222,0,0,0-.221-.215h-.012a.22.22,0,0,0-.221.215m-1.36-.861h2.266v2.8h-2.266Zm.68-.646h.907v.216h-.907Zm1.133-.43H525a.22.22,0,0,0-.217.215v.431h-.907a.22.22,0,0,0-.225.192v.044a.222.222,0,0,0,.225.193h.226v2.907h0a.332.332,0,0,0,.326.322h2.524a.331.331,0,0,0,.326-.323v-2.907h.226a.215.215,0,1,0,0-.43H526.6v-.431a.221.221,0,0,0-.221-.215h-.006" transform="translate(-523.655 -231.502)" fill="none"/>
    </clipPath>
    <clipPath id="clip-path-21">
      <path id="Caminho_17225" data-name="Caminho 17225" d="M525.242,233.225h-.006a.22.22,0,0,0-.221.215v1.292a.227.227,0,0,0,.453,0V233.44a.221.221,0,0,0-.22-.215h-.007m.907,0h-.006a.22.22,0,0,0-.221.215v1.292a.227.227,0,0,0,.454,0V233.44a.222.222,0,0,0-.221-.215h-.007m-1.587-.646h2.266v2.8h-2.266Zm.68-.646h.907v.216h-.907Zm1.133-.43h-1.367a.221.221,0,0,0-.221.215v.431h-.907a.22.22,0,0,0-.225.192v.044a.222.222,0,0,0,.225.193h.226v2.907h0a.332.332,0,0,0,.326.322h2.524a.331.331,0,0,0,.326-.323v-2.907h.226a.215.215,0,1,0,0-.43H526.6v-.431a.221.221,0,0,0-.221-.215h-.006" transform="translate(-523.655 -231.502)" fill="none"/>
    </clipPath>
    <clipPath id="clip-path-22">
      <path id="Caminho_17248" data-name="Caminho 17248" d="M601.689,434.37a32.582,32.582,0,0,0-4.528,2.931c-16.8,13.1-5.9,34.775-1.466,41.332,4.791,7.081,75.414,40.522,99.941,41.15s69.5-6.139,78.359-20.575-.224-30.469-12.526-42.222a18.143,18.143,0,0,0-4-2.907c-7.848-4.251-18.342-3.02-27.139-1.79-5.961.834-11.143,1.669-14.193.8-10.824-3.076-14.607-7.4-19.946-8.075-1.741-.223-6.479,2.775-6.479,2.775s-57-14.637-80-14.636c-3.646,0-6.44.368-8.014,1.221" transform="translate(-588.107 -433.149)" fill="none"/>
    </clipPath>
    <clipPath id="clip-path-23">
      <rect id="Retângulo_2656" data-name="Retângulo 2656" width="160.304" height="56.361" fill="none"/>
    </clipPath>
    <clipPath id="clip-path-26">
      <path id="Caminho_17254" data-name="Caminho 17254" d="M689.078,515.609,712,533.6a262.289,262.289,0,0,0,32.874-4.914l0-.01c10.864-2.515,20.349-6.123,20.871-11.065.794-7.514-7.237-9.572-16.783-9.279-1.785.04-3.612.177-5.458.37-15.279,1.638-34.7-6.8-34.7-6.8Z" transform="translate(-689.078 -501.903)" fill="none"/>
    </clipPath>
    <clipPath id="clip-path-27">
      <rect id="Retângulo_2659" data-name="Retângulo 2659" width="76.725" height="26.593" fill="none"/>
    </clipPath>
    <clipPath id="clip-path-30">
      <path id="Caminho_17258" data-name="Caminho 17258" d="M711.636,523.946c-4.134.674.408,9.127,6.011,6.559,5.231-2.4-.946-6.625-5.152-6.625a5.273,5.273,0,0,0-.859.066" transform="translate(-710.035 -523.88)" fill="none"/>
    </clipPath>
    <clipPath id="clip-path-31">
      <rect id="Retângulo_2662" data-name="Retângulo 2662" width="9.611" height="5.263" fill="none"/>
    </clipPath>
    <clipPath id="clip-path-34">
      <path id="Caminho_17262" data-name="Caminho 17262" d="M752.209,508.719c-.419.4-9.67,9.349-4.088,20.344,10.864-2.515,20.349-6.123,20.871-11.065.747-7.065-6.308-9.306-15.089-9.306q-.838,0-1.694.026" transform="translate(-746.335 -508.693)" fill="none"/>
    </clipPath>
    <clipPath id="clip-path-35">
      <rect id="Retângulo_2665" data-name="Retângulo 2665" width="22.695" height="18.408" fill="none"/>
    </clipPath>
    <clipPath id="clip-path-38">
      <path id="Caminho_17278" data-name="Caminho 17278" d="M616.142,503.642c-1.815-.386-3.62-.715-5.389-.942-9.463-1.294-17.667-.091-17.667,7.465,0,4.97,9.055,9.554,19.6,13.2v.011a262.332,262.332,0,0,0,32.177,8.34l24.689-15.488-18.188-15.7s-20.2,6.353-35.218,3.12" transform="translate(-593.086 -500.522)" fill="none"/>
    </clipPath>
    <clipPath id="clip-path-39">
      <rect id="Retângulo_2668" data-name="Retângulo 2668" width="44.011" height="24.813" fill="none"/>
    </clipPath>
  </defs>
  <g id="Grupo_22739" data-name="Grupo 22739" clip-path="url(#clip-path)">
    <g id="Grupo_22688" data-name="Grupo 22688">
      <g id="Grupo_22687" data-name="Grupo 22687" clip-path="url(#clip-path)">
        <path id="Caminho_17156" data-name="Caminho 17156" d="M761.465,283.61s11.262-200.473-158.8-255.659S347,13.31,292.944,65.117s-72.08,85.6-134.023,92.353S39.538,175.49,10.255,250.949s7.884,135.15,64.2,172.317,121.636-2.253,173.443,21.4,84.469,63.07,190.336,67.574,109.246-25.9,163.306-73.207,149.792,2.253,159.928-155.422" transform="translate(0 -0.087)" fill="#5ae4a8"/>
        <path id="Caminho_17157" data-name="Caminho 17157" d="M761.465,283.61s11.262-200.473-158.8-255.659S347,13.31,292.944,65.117s-72.08,85.6-134.023,92.353S39.538,175.49,10.255,250.949s7.884,135.15,64.2,172.317,121.636-2.253,173.443,21.4,84.469,63.07,190.336,67.574,109.246-25.9,163.306-73.207,149.792,2.253,159.928-155.422" transform="translate(0 -0.087)" fill="#ebebff"/>
        <rect id="Retângulo_2589" data-name="Retângulo 2589" width="34.038" height="137.323" transform="translate(418.017 351.732)" fill="#0a0c29"/>
        <rect id="Retângulo_2590" data-name="Retângulo 2590" width="34.038" height="137.323" transform="translate(418.017 351.732)" fill="none" stroke="#0a0c29" stroke-linecap="round" stroke-linejoin="round" stroke-width="1.194"/>
        <rect id="Retângulo_2591" data-name="Retângulo 2591" width="429.577" height="260.563" transform="translate(228.902 125.207)" fill="#0a0c29"/>
        <rect id="Retângulo_2592" data-name="Retângulo 2592" width="429.577" height="260.563" transform="translate(228.902 125.207)" fill="none" stroke="#0a0c29" stroke-linecap="round" stroke-linejoin="round" stroke-width="1.194"/>
        <rect id="Retângulo_2593" data-name="Retângulo 2593" width="429.577" height="260.563" transform="translate(220.248 125.207)" fill="#5e47fd"/>
        <rect id="Retângulo_2594" data-name="Retângulo 2594" width="429.577" height="260.563" transform="translate(220.248 125.207)" fill="none" stroke="#0a0c29" stroke-linecap="round" stroke-linejoin="round" stroke-width="1.194"/>
        <rect id="Retângulo_2595" data-name="Retângulo 2595" width="398.616" height="241.784" transform="translate(235.728 134.597)" fill="#fff"/>
        <rect id="Retângulo_2596" data-name="Retângulo 2596" width="398.616" height="241.784" transform="translate(235.728 134.597)" fill="none" stroke="#1a2e35" stroke-linecap="round" stroke-linejoin="round" stroke-width="1.194"/>
        <rect id="Retângulo_2597" data-name="Retângulo 2597" width="398.616" height="14.561" transform="translate(235.728 361.819)" fill="#fff"/>
        <rect id="Retângulo_2598" data-name="Retângulo 2598" width="398.616" height="14.561" transform="translate(235.728 361.819)" fill="none" stroke="#1a2e35" stroke-linecap="round" stroke-linejoin="round" stroke-width="1.194"/>
        <path id="Caminho_17158" data-name="Caminho 17158" d="M455.537,502.071l-126.2,8.156v8.216H578.019v-8.216Z" transform="translate(-18.642 -28.42)" fill="#0a0c29"/>
        <path id="Caminho_17159" data-name="Caminho 17159" d="M455.537,502.071l-126.2,8.156v8.216H578.019v-8.216Z" transform="translate(-18.642 -28.42)" fill="none" stroke="#0a0c29" stroke-linecap="round" stroke-linejoin="round" stroke-width="1.194"/>
        <rect id="Retângulo_2599" data-name="Retângulo 2599" width="398.616" height="241.784" transform="translate(235.728 134.597)" fill="#fff"/>
        <rect id="Retângulo_2600" data-name="Retângulo 2600" width="398.616" height="241.784" transform="translate(235.728 134.597)" fill="none" stroke="#1a2e35" stroke-linecap="round" stroke-linejoin="round" stroke-width="1.194"/>
        <line id="Linha_171" data-name="Linha 171" x1="34.18" y2="51.823" transform="translate(340.679 79.137)" fill="none" stroke="#0a0c29" stroke-width="1.194" stroke-dasharray="5.969 5.969"/>
        <path id="Caminho_17160" data-name="Caminho 17160" d="M450.345,51.886V40.114l-11.756-1.308a28.009,28.009,0,0,0-2.882-7.006l7.425-9.284-8.324-8.324-9.243,7.393a28.039,28.039,0,0,0-6.987-2.927L417.266,6.85H405.494l-1.308,11.756a27.993,27.993,0,0,0-7.006,2.882L387.9,14.062l-8.324,8.325,7.392,9.243a28.016,28.016,0,0,0-2.926,6.986L372.23,39.929V51.7l11.756,1.308a27.978,27.978,0,0,0,2.882,7.006L379.442,69.3l8.324,8.325,9.243-7.393A28.022,28.022,0,0,0,404,73.156l1.313,11.809h11.772l1.308-11.755a28.031,28.031,0,0,0,7.006-2.883l9.284,7.425L443,69.429l-7.392-9.243a28.029,28.029,0,0,0,2.926-6.986Zm-39.057,8.071a14.049,14.049,0,1,1,14.049-14.049,14.049,14.049,0,0,1-14.049,14.049" transform="translate(-21.07 -0.388)" fill="#5e47fd"/>
        <path id="Caminho_17161" data-name="Caminho 17161" d="M450.345,51.886V40.114l-11.756-1.308a28.009,28.009,0,0,0-2.882-7.006l7.425-9.284-8.324-8.324-9.243,7.393a28.039,28.039,0,0,0-6.987-2.927L417.266,6.85H405.494l-1.308,11.756a27.993,27.993,0,0,0-7.006,2.882L387.9,14.062l-8.324,8.325,7.392,9.243a28.016,28.016,0,0,0-2.926,6.986L372.23,39.929V51.7l11.756,1.308a27.978,27.978,0,0,0,2.882,7.006L379.442,69.3l8.324,8.325,9.243-7.393A28.022,28.022,0,0,0,404,73.156l1.313,11.809h11.772l1.308-11.755a28.031,28.031,0,0,0,7.006-2.883l9.284,7.425L443,69.429l-7.392-9.243a28.029,28.029,0,0,0,2.926-6.986Zm-39.057,8.071a14.049,14.049,0,1,1,14.049-14.049A14.049,14.049,0,0,1,411.287,59.957Z" transform="translate(-21.07 -0.388)" fill="none" stroke="#0a0c29" stroke-linecap="round" stroke-linejoin="round" stroke-width="1.194"/>
        <path id="Caminho_17162" data-name="Caminho 17162" d="M500.884,27.973l-1.3-7.793-7.927.437a18.806,18.806,0,0,0-2.685-4.319l3.887-6.969L486.422,4.74l-5.3,5.919a18.782,18.782,0,0,0-4.95-1.163l-2.177-7.674-7.793,1.3.437,7.927a18.805,18.805,0,0,0-4.319,2.685l-6.969-3.888-4.589,6.434,5.919,5.3a18.783,18.783,0,0,0-1.163,4.949l-7.674,2.178,1.3,7.793,7.927-.437a18.825,18.825,0,0,0,2.685,4.319l-3.888,6.969,6.434,4.589,5.3-5.919a18.783,18.783,0,0,0,4.949,1.163l2.178,7.674,7.793-1.3-.437-7.927a18.826,18.826,0,0,0,4.319-2.685l6.969,3.888,4.589-6.434-5.919-5.3a18.82,18.82,0,0,0,1.163-4.949Zm-24.963,9.671a9.43,9.43,0,1,1,7.744-10.858,9.43,9.43,0,0,1-7.744,10.858" transform="translate(-25.35 -0.103)" fill="#0a0c29"/>
        <path id="Caminho_17163" data-name="Caminho 17163" d="M500.884,27.973l-1.3-7.793-7.927.437a18.806,18.806,0,0,0-2.685-4.319l3.887-6.969L486.422,4.74l-5.3,5.919a18.782,18.782,0,0,0-4.95-1.163l-2.177-7.674-7.793,1.3.437,7.927a18.805,18.805,0,0,0-4.319,2.685l-6.969-3.888-4.589,6.434,5.919,5.3a18.783,18.783,0,0,0-1.163,4.949l-7.674,2.178,1.3,7.793,7.927-.437a18.825,18.825,0,0,0,2.685,4.319l-3.888,6.969,6.434,4.589,5.3-5.919a18.783,18.783,0,0,0,4.949,1.163l2.178,7.674,7.793-1.3-.437-7.927a18.826,18.826,0,0,0,4.319-2.685l6.969,3.888,4.589-6.434-5.919-5.3a18.82,18.82,0,0,0,1.163-4.949Zm-24.963,9.671a9.43,9.43,0,1,1,7.744-10.858A9.43,9.43,0,0,1,475.921,37.644Z" transform="translate(-25.35 -0.103)" fill="none" stroke="#0a0c29" stroke-width="1.194"/>
        <line id="Linha_172" data-name="Linha 172" x2="0.549" y2="2.761" transform="translate(274.447 79.68)" fill="none" stroke="#0a0c29" stroke-width="1.194"/>
        <line id="Linha_173" data-name="Linha 173" x2="7.745" y2="38.947" transform="translate(276.029 87.635)" fill="none" stroke="#0a0c29" stroke-width="1.194" stroke-dasharray="5.612 5.612"/>
        <line id="Linha_174" data-name="Linha 174" x2="0.549" y2="2.761" transform="translate(284.291 129.179)" fill="none" stroke="#0a0c29" stroke-width="1.194"/>
        <rect id="Retângulo_2601" data-name="Retângulo 2601" width="15.903" height="59.205" transform="translate(282.371 15.639)" fill="#5e47fd"/>
        <rect id="Retângulo_2602" data-name="Retângulo 2602" width="15.903" height="59.205" transform="translate(282.371 15.639)" fill="none" stroke="#0a0c29" stroke-linecap="round" stroke-linejoin="round" stroke-width="1.194"/>
        <rect id="Retângulo_2603" data-name="Retângulo 2603" width="15.903" height="45.95" transform="translate(261.167 28.893)" fill="#0a0c29"/>
        <rect id="Retângulo_2604" data-name="Retângulo 2604" width="15.903" height="45.95" transform="translate(261.167 28.893)" fill="none" stroke="#0a0c29" stroke-width="1.194"/>
        <rect id="Retângulo_2605" data-name="Retângulo 2605" width="15.903" height="35.346" transform="translate(239.964 39.497)" fill="#5e47fd"/>
        <rect id="Retângulo_2606" data-name="Retângulo 2606" width="15.903" height="35.346" transform="translate(239.964 39.497)" fill="none" stroke="#0a0c29" stroke-linecap="round" stroke-linejoin="round" stroke-width="1.194"/>
        <rect id="Retângulo_2607" data-name="Retângulo 2607" width="15.903" height="26.509" transform="translate(218.76 48.334)" fill="#0a0c29"/>
        <rect id="Retângulo_2608" data-name="Retângulo 2608" width="15.903" height="26.509" transform="translate(218.76 48.334)" fill="none" stroke="#0a0c29" stroke-width="1.194"/>
        <path id="Caminho_17164" data-name="Caminho 17164" d="M239.678,44.659l-1.552-2.041,16.259-12.371,8.061,2.687L275.759,18.6l7.834,2.384,14.2-16.274L303.8,8.6l6.244-4.418,1.481,2.092-7.662,5.419-5.606-3.626-13.827,15.85-7.888-2.4L263.2,35.889l-8.343-2.78Z" transform="translate(-13.479 -0.237)" fill="#0a0c29"/>
        <path id="Caminho_17165" data-name="Caminho 17165" d="M316.888,10.912,321.913,0,309.951,1.1Z" transform="translate(-17.545 0)" fill="#0a0c29"/>
        <line id="Linha_175" data-name="Linha 175" x2="2.349" y2="1.553" transform="translate(149.775 77.579)" fill="none" stroke="#0a0c29" stroke-width="1.194"/>
        <line id="Linha_176" data-name="Linha 176" x2="72.989" y2="48.257" transform="translate(156.833 82.245)" fill="none" stroke="#0a0c29" stroke-width="1.194" stroke-dasharray="5.984 5.984"/>
        <line id="Linha_177" data-name="Linha 177" x2="2.349" y2="1.553" transform="translate(232.176 132.059)" fill="none" stroke="#0a0c29" stroke-width="1.194"/>
        <path id="Caminho_17166" data-name="Caminho 17166" d="M166.856,94.145H70.729V38.221a7.181,7.181,0,0,1,7.181-7.18h81.765a7.181,7.181,0,0,1,7.181,7.18Z" transform="translate(-4.004 -1.757)" fill="#fff"/>
        <path id="Caminho_17167" data-name="Caminho 17167" d="M166.856,94.145H70.729V38.221a7.181,7.181,0,0,1,7.181-7.18h81.765a7.181,7.181,0,0,1,7.181,7.18Z" transform="translate(-4.004 -1.757)" fill="none" stroke="#0a0c29" stroke-linecap="round" stroke-linejoin="round" stroke-width="1.194"/>
        <line id="Linha_178" data-name="Linha 178" x2="45.532" transform="translate(90.977 54.644)" fill="none" stroke="#0a0c29" stroke-linecap="round" stroke-linejoin="round" stroke-width="1.194"/>
        <line id="Linha_179" data-name="Linha 179" x2="45.532" transform="translate(90.977 61.988)" fill="none" stroke="#0a0c29" stroke-linecap="round" stroke-linejoin="round" stroke-width="1.194"/>
        <line id="Linha_180" data-name="Linha 180" x2="45.532" transform="translate(90.977 69.332)" fill="none" stroke="#0a0c29" stroke-linecap="round" stroke-linejoin="round" stroke-width="1.194"/>
        <line id="Linha_181" data-name="Linha 181" x2="45.532" transform="translate(90.977 76.675)" fill="none" stroke="#0a0c29" stroke-linecap="round" stroke-linejoin="round" stroke-width="1.194"/>
        <path id="Caminho_17168" data-name="Caminho 17168" d="M166.856,41.005V36.918a5.877,5.877,0,0,0-5.877-5.877H76.606a5.878,5.878,0,0,0-5.877,5.877v4.087Z" transform="translate(-4.004 -1.757)" fill="#5e47fd"/>
        <path id="Caminho_17169" data-name="Caminho 17169" d="M166.856,41.005V36.918a5.877,5.877,0,0,0-5.877-5.877H76.606a5.878,5.878,0,0,0-5.877,5.877v4.087Z" transform="translate(-4.004 -1.757)" fill="none" stroke="#0a0c29" stroke-linecap="round" stroke-linejoin="round" stroke-width="1.194"/>
        <path id="Caminho_17170" data-name="Caminho 17170" d="M155.024,36.506a1.483,1.483,0,1,0-1.483,1.483,1.483,1.483,0,0,0,1.483-1.483" transform="translate(-8.607 -1.982)" fill="#0a0c29"/>
        <path id="Caminho_17171" data-name="Caminho 17171" d="M155.024,36.506a1.483,1.483,0,1,0-1.483,1.483A1.483,1.483,0,0,0,155.024,36.506Z" transform="translate(-8.607 -1.982)" fill="none" stroke="#0a0c29" stroke-linecap="round" stroke-linejoin="round" stroke-width="1.194"/>
        <path id="Caminho_17172" data-name="Caminho 17172" d="M161.313,36.506a1.483,1.483,0,1,0-1.483,1.483,1.483,1.483,0,0,0,1.483-1.483" transform="translate(-8.963 -1.982)" fill="#0a0c29"/>
        <path id="Caminho_17173" data-name="Caminho 17173" d="M161.313,36.506a1.483,1.483,0,1,0-1.483,1.483A1.483,1.483,0,0,0,161.313,36.506Z" transform="translate(-8.963 -1.982)" fill="none" stroke="#0a0c29" stroke-linecap="round" stroke-linejoin="round" stroke-width="1.194"/>
        <path id="Caminho_17174" data-name="Caminho 17174" d="M167.6,36.506a1.483,1.483,0,1,0-1.483,1.483,1.483,1.483,0,0,0,1.483-1.483" transform="translate(-9.319 -1.982)" fill="#0a0c29"/>
        <path id="Caminho_17175" data-name="Caminho 17175" d="M167.6,36.506a1.483,1.483,0,1,0-1.483,1.483A1.483,1.483,0,0,0,167.6,36.506Z" transform="translate(-9.319 -1.982)" fill="none" stroke="#0a0c29" stroke-linecap="round" stroke-linejoin="round" stroke-width="1.194"/>
        <path id="Caminho_17176" data-name="Caminho 17176" d="M57.721,109.97h0a3.714,3.714,0,0,1-.42-5.314l27-30.977L88.428,77.1l-25.408,32.3a3.714,3.714,0,0,1-5.3.578" transform="translate(-3.191 -4.171)" fill="#0a0c29"/>
        <path id="Caminho_17177" data-name="Caminho 17177" d="M57.721,109.97h0a3.714,3.714,0,0,1-.42-5.314l27-30.977L88.428,77.1l-25.408,32.3A3.714,3.714,0,0,1,57.721,109.97Z" transform="translate(-3.191 -4.171)" fill="none" stroke="#0a0c29" stroke-linejoin="round" stroke-width="1.194"/>
        <path id="Caminho_17178" data-name="Caminho 17178" d="M77.117,82.417,57.3,105.151a3.714,3.714,0,1,0,5.719,4.736L81.764,86.062Z" transform="translate(-3.191 -4.665)" fill="#fff"/>
        <path id="Caminho_17179" data-name="Caminho 17179" d="M77.117,82.417,57.3,105.151a3.714,3.714,0,1,0,5.719,4.736L81.764,86.062Z" transform="translate(-3.191 -4.665)" fill="none" stroke="#0a0c29" stroke-linejoin="round" stroke-width="1.194"/>
        <path id="Caminho_17180" data-name="Caminho 17180" d="M108.173,49.07a17.032,17.032,0,1,0,2.257,23.982,17.032,17.032,0,0,0-2.257-23.982M88.016,73.414a14.574,14.574,0,1,1,20.521-1.93,14.574,14.574,0,0,1-20.521,1.93" transform="translate(-4.544 -2.556)" fill="#0a0c29"/>
        <path id="Caminho_17181" data-name="Caminho 17181" d="M108.173,49.07a17.032,17.032,0,1,0,2.257,23.982A17.032,17.032,0,0,0,108.173,49.07ZM88.016,73.414a14.574,14.574,0,1,1,20.521-1.93A14.574,14.574,0,0,1,88.016,73.414Z" transform="translate(-4.544 -2.556)" fill="none" stroke="#0a0c29" stroke-linejoin="round" stroke-width="1.194"/>
        <line id="Linha_182" data-name="Linha 182" x2="2.816" transform="translate(116.156 211.357)" fill="none" stroke="#0a0c29" stroke-width="1.194"/>
        <line id="Linha_183" data-name="Linha 183" x2="98.749" transform="translate(124.614 211.357)" fill="none" stroke="#0a0c29" stroke-width="1.194" stroke-dasharray="5.981 5.981"/>
        <line id="Linha_184" data-name="Linha 184" x2="2.816" transform="translate(226.185 211.357)" fill="none" stroke="#0a0c29" stroke-width="1.194"/>
        <line id="Linha_185" data-name="Linha 185" x2="63.669" transform="translate(69.827 169.444)" fill="none" stroke="#0a0c29" stroke-linecap="round" stroke-linejoin="round" stroke-width="1.194"/>
        <line id="Linha_186" data-name="Linha 186" y1="31.367" transform="translate(101.661 169.444)" fill="none" stroke="#0a0c29" stroke-linecap="round" stroke-linejoin="round" stroke-width="1.194"/>
        <line id="Linha_187" data-name="Linha 187" y2="39.676" transform="translate(51.206 177.253)" fill="none" stroke="#0a0c29" stroke-linecap="round" stroke-linejoin="round" stroke-width="1.194"/>
        <path id="Caminho_17182" data-name="Caminho 17182" d="M119.221,234.366h57.662v34.872" transform="translate(-6.749 -13.266)" fill="none" stroke="#0a0c29" stroke-linecap="round" stroke-linejoin="round" stroke-width="1.194"/>
        <line id="Linha_188" data-name="Linha 188" y2="33.637" transform="translate(133.496 221.701)" fill="none" stroke="#0a0c29" stroke-linecap="round" stroke-linejoin="round" stroke-width="1.194"/>
        <rect id="Retângulo_2609" data-name="Retângulo 2609" width="41.445" height="28.23" transform="translate(39.793 156.23)" fill="#0a0c29"/>
        <rect id="Retângulo_2610" data-name="Retângulo 2610" width="41.445" height="28.23" transform="translate(39.793 156.23)" fill="none" stroke="#0a0c29" stroke-width="1.194"/>
        <rect id="Retângulo_2611" data-name="Retângulo 2611" width="41.445" height="28.23" transform="translate(118.179 156.23)" fill="#5e47fd"/>
        <rect id="Retângulo_2612" data-name="Retângulo 2612" width="41.445" height="28.23" transform="translate(118.179 156.23)" fill="none" stroke="#0a0c29" stroke-linecap="round" stroke-linejoin="round" stroke-width="1.194"/>
        <rect id="Retângulo_2613" data-name="Retângulo 2613" width="26.553" height="18.087" transform="translate(120.581 246.928)" fill="#5e47fd"/>
        <rect id="Retângulo_2614" data-name="Retângulo 2614" width="26.553" height="18.087" transform="translate(120.581 246.928)" fill="none" stroke="#0a0c29" stroke-linecap="round" stroke-linejoin="round" stroke-width="1.194"/>
        <rect id="Retângulo_2615" data-name="Retângulo 2615" width="26.553" height="18.087" transform="translate(39.493 207.885)" fill="#fff"/>
        <rect id="Retângulo_2616" data-name="Retângulo 2616" width="26.553" height="18.087" transform="translate(39.493 207.885)" fill="none" stroke="#0a0c29" stroke-linecap="round" stroke-linejoin="round" stroke-width="1.194"/>
        <rect id="Retângulo_2617" data-name="Retângulo 2617" width="26.553" height="18.087" transform="translate(155.419 246.928)" fill="#0a0c29"/>
        <rect id="Retângulo_2618" data-name="Retângulo 2618" width="26.553" height="18.087" transform="translate(155.419 246.928)" fill="none" stroke="#0a0c29" stroke-width="1.194"/>
        <rect id="Retângulo_2619" data-name="Retângulo 2619" width="29.542" height="29.542" transform="translate(80.771 221.701) rotate(-45)" fill="#5e47fd"/>
        <rect id="Retângulo_2620" data-name="Retângulo 2620" width="29.542" height="29.542" transform="translate(80.771 221.701) rotate(-45)" fill="none" stroke="#0a0c29" stroke-linecap="round" stroke-linejoin="round" stroke-width="1.194"/>
        <line id="Linha_189" data-name="Linha 189" y1="0.909" x2="2.664" transform="translate(178.492 344.225)" fill="none" stroke="#0a0c29" stroke-width="1.194"/>
        <line id="Linha_190" data-name="Linha 190" y1="13.689" x2="40.098" transform="translate(186.503 328.711)" fill="none" stroke="#0a0c29" stroke-width="1.194" stroke-dasharray="5.988 5.988"/>
        <line id="Linha_191" data-name="Linha 191" y1="0.909" x2="2.664" transform="translate(229.275 326.889)" fill="none" stroke="#0a0c29" stroke-width="1.194"/>
        <rect id="Retângulo_2621" data-name="Retângulo 2621" width="126.937" height="29.814" transform="translate(45.225 327.624)" fill="#fff"/>
        <rect id="Retângulo_2622" data-name="Retângulo 2622" width="126.937" height="29.814" transform="translate(45.225 327.624)" fill="none" stroke="#0a0c29" stroke-linecap="round" stroke-linejoin="round" stroke-width="1.194"/>
        <rect id="Retângulo_2623" data-name="Retângulo 2623" width="66.347" height="39.473" transform="translate(105.395 364.577)" fill="#fff"/>
        <rect id="Retângulo_2624" data-name="Retângulo 2624" width="66.347" height="39.473" transform="translate(105.395 364.577)" fill="none" stroke="#0a0c29" stroke-linecap="round" stroke-linejoin="round" stroke-width="1.194"/>
        <path id="Caminho_17183" data-name="Caminho 17183" d="M111.719,426.68l23.1-18.476,9.658,7.139,20.156-15.537,13.018,12.6V426.68Z" transform="translate(-6.324 -22.631)" fill="#0a0c29"/>
        <path id="Caminho_17184" data-name="Caminho 17184" d="M111.719,426.68l23.1-18.476,9.658,7.139,20.156-15.537,13.018,12.6V426.68Z" transform="translate(-6.324 -22.631)" fill="none" stroke="#0a0c29" stroke-linecap="round" stroke-linejoin="round" stroke-width="1.194"/>
        <path id="Caminho_17185" data-name="Caminho 17185" d="M128.079,396.858a4.619,4.619,0,1,1-4.619-4.619,4.619,4.619,0,0,1,4.619,4.619" transform="translate(-6.727 -22.203)" fill="#5e47fd"/>
        <circle id="Elipse_572" data-name="Elipse 572" cx="4.619" cy="4.619" r="4.619" transform="matrix(0.189, -0.982, 0.982, 0.189, 111.324, 378.317)" fill="none" stroke="#5e47fd" stroke-linecap="round" stroke-linejoin="round" stroke-width="1.194"/>
        <rect id="Retângulo_2625" data-name="Retângulo 2625" width="66.347" height="39.473" transform="translate(105.395 409.508)" fill="#fff"/>
        <rect id="Retângulo_2626" data-name="Retângulo 2626" width="66.347" height="39.473" transform="translate(105.395 409.508)" fill="none" stroke="#0a0c29" stroke-linecap="round" stroke-linejoin="round" stroke-width="1.194"/>
        <path id="Caminho_17186" data-name="Caminho 17186" d="M111.719,474.307l23.1-18.476,9.658,7.139,20.156-15.537,13.018,12.6v14.277Z" transform="translate(-6.324 -25.327)" fill="#0a0c29"/>
        <path id="Caminho_17187" data-name="Caminho 17187" d="M111.719,474.307l23.1-18.476,9.658,7.139,20.156-15.537,13.018,12.6v14.277Z" transform="translate(-6.324 -25.327)" fill="none" stroke="#0a0c29" stroke-linecap="round" stroke-linejoin="round" stroke-width="1.194"/>
        <path id="Caminho_17188" data-name="Caminho 17188" d="M128.079,444.485a4.619,4.619,0,1,1-4.619-4.619,4.619,4.619,0,0,1,4.619,4.619" transform="translate(-6.727 -24.899)" fill="#5e47fd"/>
        <circle id="Elipse_573" data-name="Elipse 573" cx="4.619" cy="4.619" r="4.619" transform="translate(112.114 414.967)" fill="none" stroke="#5e47fd" stroke-linecap="round" stroke-linejoin="round" stroke-width="1.194"/>
        <line id="Linha_192" data-name="Linha 192" x2="50.429" transform="translate(47.159 367.547)" fill="none" stroke="#0a0c29" stroke-width="1.194"/>
        <line id="Linha_193" data-name="Linha 193" x2="50.429" transform="translate(47.159 378.754)" fill="none" stroke="#0a0c29" stroke-width="1.194"/>
        <line id="Linha_194" data-name="Linha 194" x2="50.429" transform="translate(47.159 389.96)" fill="none" stroke="#0a0c29" stroke-width="1.194"/>
        <line id="Linha_195" data-name="Linha 195" x2="50.429" transform="translate(47.159 401.167)" fill="none" stroke="#0a0c29" stroke-width="1.194"/>
        <line id="Linha_196" data-name="Linha 196" x2="50.429" transform="translate(47.159 412.373)" fill="none" stroke="#0a0c29" stroke-width="1.194"/>
        <line id="Linha_197" data-name="Linha 197" x2="50.429" transform="translate(47.159 423.58)" fill="none" stroke="#0a0c29" stroke-width="1.194"/>
        <line id="Linha_198" data-name="Linha 198" x2="50.429" transform="translate(47.159 434.786)" fill="none" stroke="#0a0c29" stroke-width="1.194"/>
        <line id="Linha_199" data-name="Linha 199" x2="50.429" transform="translate(47.159 445.993)" fill="none" stroke="#0a0c29" stroke-width="1.194"/>
        <path id="Caminho_17189" data-name="Caminho 17189" d="M442.449,231.041V142.673H249.871V384.456H442.449V231.041Z" transform="translate(-14.144 -8.076)" fill="#0a0c29"/>
        <path id="Caminho_17190" data-name="Caminho 17190" d="M442.449,231.041V142.673H249.871V384.456H442.449V231.041Z" transform="translate(-14.144 -8.076)" fill="none" stroke="#0a0c29" stroke-linecap="round" stroke-linejoin="round" stroke-width="1.194"/>
        <line id="Linha_200" data-name="Linha 200" x2="86.674" transform="translate(255.758 171.499)" fill="none" stroke="#fff" stroke-linecap="round" stroke-linejoin="round" stroke-width="2.388"/>
        <line id="Linha_201" data-name="Linha 201" x2="45.255" transform="translate(255.758 197.436)" fill="none" stroke="#fff" stroke-linecap="round" stroke-linejoin="round" stroke-width="2.388"/>
        <line id="Linha_202" data-name="Linha 202" x2="42.187" transform="translate(255.758 183.171)" fill="none" stroke="#5e47fd" stroke-linecap="round" stroke-linejoin="round" stroke-width="2.388"/>
        <line id="Linha_203" data-name="Linha 203" x2="22.243" transform="translate(307.149 183.171)" fill="none" stroke="#5e47fd" stroke-linecap="round" stroke-linejoin="round" stroke-width="2.388"/>
        <line id="Linha_204" data-name="Linha 204" x2="22.243" transform="translate(342.432 183.171)" fill="none" stroke="#5e47fd" stroke-linecap="round" stroke-linejoin="round" stroke-width="2.388"/>
        <line id="Linha_205" data-name="Linha 205" x2="42.187" transform="translate(255.758 208.459)" fill="none" stroke="#fff" stroke-linecap="round" stroke-linejoin="round" stroke-width="2.388"/>
        <line id="Linha_206" data-name="Linha 206" x2="22.243" transform="translate(307.149 208.459)" fill="none" stroke="#fff" stroke-linecap="round" stroke-linejoin="round" stroke-width="2.388"/>
        <line id="Linha_207" data-name="Linha 207" x2="22.243" transform="translate(342.432 208.459)" fill="none" stroke="#5e47fd" stroke-linecap="round" stroke-linejoin="round" stroke-width="2.388"/>
        <line id="Linha_208" data-name="Linha 208" x2="42.187" transform="translate(255.758 233.747)" fill="none" stroke="#fff" stroke-linecap="round" stroke-linejoin="round" stroke-width="2.388"/>
        <line id="Linha_209" data-name="Linha 209" x2="22.243" transform="translate(307.149 233.747)" fill="none" stroke="#5e47fd" stroke-linecap="round" stroke-linejoin="round" stroke-width="2.388"/>
        <line id="Linha_210" data-name="Linha 210" x2="22.243" transform="translate(342.432 233.747)" fill="none" stroke="#fff" stroke-linecap="round" stroke-linejoin="round" stroke-width="2.388"/>
        <line id="Linha_211" data-name="Linha 211" x2="32.086" transform="translate(281.837 244.77)" fill="none" stroke="#fff" stroke-linecap="round" stroke-linejoin="round" stroke-width="2.388"/>
        <line id="Linha_212" data-name="Linha 212" x2="16.918" transform="translate(320.923 244.77)" fill="none" stroke="#fff" stroke-linecap="round" stroke-linejoin="round" stroke-width="2.388"/>
        <line id="Linha_213" data-name="Linha 213" x2="16.918" transform="translate(347.758 244.77)" fill="none" stroke="#fff" stroke-linecap="round" stroke-linejoin="round" stroke-width="2.388"/>
        <line id="Linha_214" data-name="Linha 214" x2="32.086" transform="translate(281.837 258.387)" fill="none" stroke="#fff" stroke-linecap="round" stroke-linejoin="round" stroke-width="2.388"/>
        <line id="Linha_215" data-name="Linha 215" x2="16.918" transform="translate(320.923 258.387)" fill="none" stroke="#fff" stroke-linecap="round" stroke-linejoin="round" stroke-width="2.388"/>
        <line id="Linha_216" data-name="Linha 216" x2="16.918" transform="translate(347.758 258.387)" fill="none" stroke="#fff" stroke-linecap="round" stroke-linejoin="round" stroke-width="2.388"/>
        <line id="Linha_217" data-name="Linha 217" x2="86.674" transform="translate(255.758 273.3)" fill="none" stroke="#5e47fd" stroke-linecap="round" stroke-linejoin="round" stroke-width="2.388"/>
        <line id="Linha_218" data-name="Linha 218" x2="45.255" transform="translate(255.758 299.237)" fill="none" stroke="#fff" stroke-linecap="round" stroke-linejoin="round" stroke-width="2.388"/>
        <line id="Linha_219" data-name="Linha 219" x2="42.187" transform="translate(255.758 284.972)" fill="none" stroke="#5e47fd" stroke-linecap="round" stroke-linejoin="round" stroke-width="2.388"/>
        <line id="Linha_220" data-name="Linha 220" x2="22.243" transform="translate(307.149 284.972)" fill="none" stroke="#fff" stroke-linecap="round" stroke-linejoin="round" stroke-width="2.388"/>
        <line id="Linha_221" data-name="Linha 221" x2="22.243" transform="translate(342.432 284.972)" fill="none" stroke="#5e47fd" stroke-linecap="round" stroke-linejoin="round" stroke-width="2.388"/>
        <line id="Linha_222" data-name="Linha 222" x2="42.187" transform="translate(255.758 310.26)" fill="none" stroke="#5e47fd" stroke-linecap="round" stroke-linejoin="round" stroke-width="2.388"/>
        <line id="Linha_223" data-name="Linha 223" x2="22.243" transform="translate(307.149 310.26)" fill="none" stroke="#5e47fd" stroke-linecap="round" stroke-linejoin="round" stroke-width="2.388"/>
        <line id="Linha_224" data-name="Linha 224" x2="22.243" transform="translate(342.432 310.26)" fill="none" stroke="#fff" stroke-linecap="round" stroke-linejoin="round" stroke-width="2.388"/>
        <line id="Linha_225" data-name="Linha 225" x2="42.187" transform="translate(255.758 335.548)" fill="none" stroke="#fff" stroke-linecap="round" stroke-linejoin="round" stroke-width="2.388"/>
        <line id="Linha_226" data-name="Linha 226" x2="22.243" transform="translate(307.149 335.548)" fill="none" stroke="#5e47fd" stroke-linecap="round" stroke-linejoin="round" stroke-width="2.388"/>
        <line id="Linha_227" data-name="Linha 227" x2="22.243" transform="translate(342.432 335.548)" fill="none" stroke="#5e47fd" stroke-linecap="round" stroke-linejoin="round" stroke-width="2.388"/>
        <line id="Linha_228" data-name="Linha 228" x2="32.086" transform="translate(281.837 346.571)" fill="none" stroke="#fff" stroke-linecap="round" stroke-linejoin="round" stroke-width="2.388"/>
        <line id="Linha_229" data-name="Linha 229" x2="16.918" transform="translate(320.923 346.571)" fill="none" stroke="#fff" stroke-linecap="round" stroke-linejoin="round" stroke-width="2.388"/>
        <line id="Linha_230" data-name="Linha 230" x2="16.918" transform="translate(347.758 346.571)" fill="none" stroke="#fff" stroke-linecap="round" stroke-linejoin="round" stroke-width="2.388"/>
        <line id="Linha_231" data-name="Linha 231" x2="32.086" transform="translate(281.837 360.188)" fill="none" stroke="#fff" stroke-linecap="round" stroke-linejoin="round" stroke-width="2.388"/>
        <line id="Linha_232" data-name="Linha 232" x2="16.918" transform="translate(320.923 360.188)" fill="none" stroke="#fff" stroke-linecap="round" stroke-linejoin="round" stroke-width="2.388"/>
        <line id="Linha_233" data-name="Linha 233" x2="16.918" transform="translate(347.758 360.188)" fill="none" stroke="#fff" stroke-linecap="round" stroke-linejoin="round" stroke-width="2.388"/>
        <path id="Caminho_17191" data-name="Caminho 17191" d="M273.611,165.05l8.15-4.2v1.212l-6.868,3.441v.035l6.868,3.442V170.2l-8.15-4.2Z" transform="translate(-15.488 -9.105)" fill="#fff"/>
        <path id="Caminho_17192" data-name="Caminho 17192" d="M273.611,165.05l8.15-4.2v1.212l-6.868,3.441v.035l6.868,3.442V170.2l-8.15-4.2Z" transform="translate(-15.488 -9.105)" fill="none" stroke="#fff" stroke-width="1.194"/>
        <path id="Caminho_17193" data-name="Caminho 17193" d="M287.415,170.738l4.9-12.734h1.2l-4.918,12.734Z" transform="translate(-16.269 -8.944)" fill="#fff"/>
        <path id="Caminho_17194" data-name="Caminho 17194" d="M287.415,170.738l4.9-12.734h1.2l-4.918,12.734Z" transform="translate(-16.269 -8.944)" fill="none" stroke="#fff" stroke-width="1.194"/>
        <path id="Caminho_17195" data-name="Caminho 17195" d="M307.15,166.016,299,170.2v-1.212l6.921-3.442v-.035L299,162.064v-1.211l8.15,4.18Z" transform="translate(-16.925 -9.105)" fill="#fff"/>
        <path id="Caminho_17196" data-name="Caminho 17196" d="M307.15,166.016,299,170.2v-1.212l6.921-3.442v-.035L299,162.064v-1.211l8.15,4.18Z" transform="translate(-16.925 -9.105)" fill="none" stroke="#fff" stroke-width="1.194"/>
        <line id="Linha_234" data-name="Linha 234" x2="715.201" transform="translate(74.421 490.022)" fill="none" stroke="#0a0c29" stroke-width="1.194"/>
        <line id="Linha_235" data-name="Linha 235" x2="19.256" transform="translate(37.285 490.022)" fill="none" stroke="#0a0c29" stroke-width="1.194"/>
        <line id="Linha_236" data-name="Linha 236" y2="4.625" transform="translate(509.229 208.781)" fill="none" stroke="#e2e8f0" stroke-width="0.516"/>
        <path id="Caminho_17197" data-name="Caminho 17197" d="M549.276,191.245a1.621,1.621,0,1,0,1.621,1.621,1.621,1.621,0,0,0-1.621-1.621m0,2.736a.25.25,0,1,1,.25-.249.25.25,0,0,1-.25.249m.25-.94a.25.25,0,0,1-.5,0V192a.25.25,0,1,1,.5,0Z" transform="translate(-31 -10.826)" fill="#e53e3e"/>
        <line id="Linha_237" data-name="Linha 237" y2="4.338" transform="translate(509.229 179.324)" fill="none" stroke="#e2e8f0" stroke-width="0.516"/>
        <path id="Caminho_17198" data-name="Caminho 17198" d="M538.077,216.1h3.165a.487.487,0,0,1,.487.487v3.165a.487.487,0,0,1-.487.487h-3.165a.487.487,0,0,1-.487-.487v-3.165a.487.487,0,0,1,.487-.487" transform="translate(-30.431 -12.232)" fill="#2c2d66"/>
        <path id="Caminho_17199" data-name="Caminho 17199" d="M540.865,217.955H540a.051.051,0,0,1-.051-.051v-.864a.254.254,0,1,0-.508-.015v.878a.051.051,0,0,1-.051.051h-.863a.254.254,0,0,0-.015.508h.878a.051.051,0,0,1,.051.051v.863a.254.254,0,0,0,.508.016v-.879a.051.051,0,0,1,.051-.051h.863a.254.254,0,0,0,.016-.508h-.016Z" transform="translate(-30.469 -12.271)" fill="#fff"/>
        <path id="Caminho_17200" data-name="Caminho 17200" d="M538.077,184.875h3.165a.487.487,0,0,1,.487.487v3.165a.487.487,0,0,1-.487.487h-3.165a.487.487,0,0,1-.487-.487v-3.165a.487.487,0,0,1,.487-.487" transform="translate(-30.431 -10.465)" fill="#2c2d66"/>
        <path id="Caminho_17201" data-name="Caminho 17201" d="M540.865,186.73H540a.051.051,0,0,1-.051-.051v-.864a.254.254,0,1,0-.508-.015v.878a.051.051,0,0,1-.051.051h-.863a.254.254,0,0,0-.015.508h.878a.051.051,0,0,1,.051.051v.863a.254.254,0,0,0,.508.016v-.879a.051.051,0,0,1,.051-.051h.863a.254.254,0,0,0,.016-.508h-.016Z" transform="translate(-30.469 -10.503)" fill="#fff"/>
        <g id="Grupo_22637" data-name="Grupo 22637" transform="translate(519.089 159.503)" style="mix-blend-mode: normal;isolation: isolate">
          <g id="Grupo_22636" data-name="Grupo 22636">
            <g id="Grupo_22635" data-name="Grupo 22635" clip-path="url(#clip-path-3)">
              <g id="Grupo_22634" data-name="Grupo 22634" style="mix-blend-mode: normal;isolation: isolate">
                <g id="Grupo_22633" data-name="Grupo 22633">
                  <g id="Grupo_22632" data-name="Grupo 22632" clip-path="url(#clip-path-3)">
                    <text id="Gatilho_programado" data-name="Gatilho programado" transform="translate(0 1.948)" fill="#2c2d66" font-size="3" font-family="TTCommons-Medium, TT Commons" font-weight="500"><tspan x="0" y="0">G</tspan><tspan y="0" letter-spacing="-0.009em">a</tspan><tspan y="0">tilho p</tspan><tspan y="0" letter-spacing="-0.004em">r</tspan><tspan y="0">og</tspan><tspan y="0" letter-spacing="-0.004em">r</tspan><tspan y="0">amado</tspan></text>
                  </g>
                </g>
              </g>
            </g>
          </g>
        </g>
        <path id="Caminho_17202" data-name="Caminho 17202" d="M539.338,163.374h0a7.425,7.425,0,1,1-7.425,7.425,7.426,7.426,0,0,1,7.425-7.425" transform="translate(-30.109 -9.248)" fill="#fff"/>
        <path id="Caminho_17203" data-name="Caminho 17203" d="M539.346,163.5h0a7.3,7.3,0,1,1-7.3,7.3A7.3,7.3,0,0,1,539.346,163.5Z" transform="translate(-30.117 -9.255)" fill="none" stroke="#e2e8f0" stroke-width="0.258"/>
        <path id="Caminho_17204" data-name="Caminho 17204" d="M542.967,169.982a1.465,1.465,0,0,0,.592-1.2,1.512,1.512,0,0,0-1.511-1.511,1.466,1.466,0,0,0-1.184.576,3.713,3.713,0,0,0-.682-.19v-.012a.639.639,0,0,0-1.277,0v.012a3.714,3.714,0,0,0-.682.19,1.466,1.466,0,0,0-1.184-.576,1.512,1.512,0,0,0-1.512,1.511,1.462,1.462,0,0,0,.591,1.2,3.664,3.664,0,0,0,.672,3.679.678.678,0,1,0,.825.7,3.663,3.663,0,0,0,3.856,0,.678.678,0,1,0,.825-.7,3.664,3.664,0,0,0,.672-3.679m-.92-2.393a1.2,1.2,0,0,1,1.2,1.2,1.159,1.159,0,0,1-.406.9,3.689,3.689,0,0,0-1.678-1.7,1.157,1.157,0,0,1,.886-.394m-2.506-.263a.325.325,0,0,1,.325.3c-.108-.009-.215-.013-.325-.013s-.216,0-.324.013a.325.325,0,0,1,.324-.3m-3.7,1.46a1.2,1.2,0,0,1,1.2-1.2,1.157,1.157,0,0,1,.886.394,3.693,3.693,0,0,0-1.678,1.7,1.158,1.158,0,0,1-.406-.9Zm1.1,5.9a.364.364,0,1,1,.365-.364.364.364,0,0,1-.365.364m-.735-3.426a3.34,3.34,0,1,1,3.341,3.34h0a3.344,3.344,0,0,1-3.34-3.34m6.308,3.062a.365.365,0,1,1-.366-.364h0a.366.366,0,0,1,.365.364" transform="translate(-30.314 -9.454)" fill="#2c2d66"/>
        <path id="Caminho_17205" data-name="Caminho 17205" d="M539.614,168.516a2.829,2.829,0,1,0,2.829,2.829,2.829,2.829,0,0,0-2.829-2.829m.157,5.34v-.172a.157.157,0,0,0-.314,0v.172A2.52,2.52,0,0,1,537.1,171.5h.171a.157.157,0,1,0,.012-.314H537.1a2.521,2.521,0,0,1,2.354-2.354v.172a.157.157,0,0,0,.314,0v-.172a2.52,2.52,0,0,1,2.354,2.354h-.172a.157.157,0,1,0-.012.314h.184A2.519,2.519,0,0,1,539.771,173.856Z" transform="translate(-30.385 -9.539)" fill="#2c2d66"/>
        <path id="Caminho_17206" data-name="Caminho 17206" d="M541.1,171.251H539.93v-1.484a.157.157,0,0,0-.313,0v1.641a.157.157,0,0,0,.157.158H541.1a.157.157,0,0,0,.012-.314Z" transform="translate(-30.545 -9.601)" fill="#2c2d66"/>
        <path id="Caminho_17207" data-name="Caminho 17207" d="M533.146,249.752H505.974v85.211h63.665v-4.407" transform="translate(-28.641 -14.137)" fill="none" stroke="#e2e8f0" stroke-width="0.516"/>
        <line id="Linha_238" data-name="Linha 238" y2="7.547" transform="translate(509.243 228.135)" fill="none" stroke="#e2e8f0" stroke-width="0.516"/>
        <path id="Caminho_17208" data-name="Caminho 17208" d="M539.543,249.819l31.9-.008.009,4.723" transform="translate(-30.541 -14.141)" fill="none" stroke="#e2e8f0" stroke-width="0.516"/>
        <line id="Linha_239" data-name="Linha 239" y2="4.504" transform="translate(509.243 330.942)" fill="none" stroke="#e2e8f0" stroke-width="0.516"/>
        <line id="Linha_240" data-name="Linha 240" y1="4.517" transform="translate(509.243 320.825)" fill="none" stroke="#e2e8f0" stroke-width="0.516"/>
        <path id="Caminho_17209" data-name="Caminho 17209" d="M538.093,345.638h3.165a.487.487,0,0,1,.486.487v3.165a.487.487,0,0,1-.486.487h-3.165a.487.487,0,0,1-.488-.487v-3.165a.487.487,0,0,1,.488-.487" transform="translate(-30.431 -19.565)" fill="#2c2d66"/>
        <path id="Caminho_17210" data-name="Caminho 17210" d="M540.88,347.492h-.863a.051.051,0,0,1-.051-.051v-.864a.254.254,0,0,0-.508-.015v.878a.051.051,0,0,1-.051.051h-.863a.254.254,0,0,0-.015.508h.878a.051.051,0,0,1,.051.051v.863a.254.254,0,0,0,.508.016v-.879a.051.051,0,0,1,.051-.051h.863a.254.254,0,0,0,.016-.508h-.016Z" transform="translate(-30.47 -19.603)" fill="#fff"/>
        <path id="Caminho_17211" data-name="Caminho 17211" d="M534.584,248.209l1.451,1.456-1.451,1.456Z" transform="translate(-30.26 -14.05)" fill="#e2e8f0"/>
        <line id="Linha_241" data-name="Linha 241" y2="4.913" transform="translate(509.229 168.811)" fill="none" stroke="#e2e8f0" stroke-width="0.516"/>
        <line id="Linha_242" data-name="Linha 242" y2="4.792" transform="translate(509.229 198.39)" fill="none" stroke="#e2e8f0" stroke-width="0.516"/>
        <g id="Grupo_22643" data-name="Grupo 22643" transform="translate(519.089 340.753)" style="mix-blend-mode: normal;isolation: isolate">
          <g id="Grupo_22642" data-name="Grupo 22642">
            <g id="Grupo_22641" data-name="Grupo 22641" clip-path="url(#clip-path-5)">
              <g id="Grupo_22640" data-name="Grupo 22640" style="mix-blend-mode: normal;isolation: isolate">
                <g id="Grupo_22639" data-name="Grupo 22639">
                  <g id="Grupo_22638" data-name="Grupo 22638" clip-path="url(#clip-path-5)">
                    <text id="Fim" transform="translate(0 1.948)" fill="#2c2d66" font-size="3" font-family="TTCommons-Medium, TT Commons" font-weight="500"><tspan x="0" y="0">Fim</tspan></text>
                  </g>
                </g>
              </g>
            </g>
          </g>
        </g>
        <path id="Caminho_17212" data-name="Caminho 17212" d="M566.564,265.364h12.9a.973.973,0,0,1,.974.974v12.9a.974.974,0,0,1-.974.975h-12.9a.974.974,0,0,1-.974-.975v-12.9a.973.973,0,0,1,.974-.974" transform="translate(-32.016 -15.021)" fill="#fff"/>
        <rect id="Retângulo_2631" data-name="Retângulo 2631" width="14.607" height="14.607" rx="0.903" transform="translate(533.696 250.465)" fill="none" stroke="#e2e8f0" stroke-width="0.258"/>
        <path id="Caminho_17213" data-name="Caminho 17213" d="M569.618,273.844a.932.932,0,0,0,.89-.655h1.361a1.106,1.106,0,0,1,.609.179.93.93,0,0,1,.251.264,1.408,1.408,0,0,1,.179.467,1.629,1.629,0,0,1,.031.288v.022a3.278,3.278,0,0,0,.146.941,1.663,1.663,0,0,0,.245.48,1.265,1.265,0,0,0,.519.406,1.87,1.87,0,0,0,.525.128c.14.015.314.025.515.032s.423.008.652.008c.271,0,.549,0,.81-.008l-.038.041-.573.6c-.287.3.023.884.023.884l1.723-1.814-1.815-1.724s-.28.6.024.885l.6.574.042.041c-.258,0-.534.008-.8.008-.227,0-.445,0-.638-.008s-.358-.015-.473-.028a1.319,1.319,0,0,1-.341-.076.745.745,0,0,1-.222-.125.923.923,0,0,1-.276-.4,2.578,2.578,0,0,1-.146-.858v-.011a2.074,2.074,0,0,0-.206-.879,1.46,1.46,0,0,0-.476-.559.21.21,0,0,0-.025-.015l.022-.014a1.386,1.386,0,0,0,.391-.409,1.853,1.853,0,0,0,.25-.642,2.119,2.119,0,0,0,.041-.387v-.011a2.746,2.746,0,0,1,.122-.791,1.139,1.139,0,0,1,.171-.335.75.75,0,0,1,.312-.244,1.355,1.355,0,0,1,.38-.09c.116-.013.282-.023.473-.028s.411-.008.638-.008c.265,0,.542,0,.8.008l-.042.041-.6.572c-.3.288-.023.885-.023.885l1.814-1.724-1.723-1.812s-.311.581-.023.884l.573.6.038.041c-.26-.006-.541-.008-.81-.008-.23,0-.454,0-.653.008s-.375.016-.514.032a1.913,1.913,0,0,0-.464.1,1.266,1.266,0,0,0-.363.2,1.43,1.43,0,0,0-.429.613,3.109,3.109,0,0,0-.18,1.033v.022a1.591,1.591,0,0,1-.152.652.943.943,0,0,1-.309.365,1.112,1.112,0,0,1-.606.179h-1.352a.93.93,0,1,0-.9,1.163Zm-.3-1.227a.418.418,0,1,1-.124.3.418.418,0,0,1,.124-.3" transform="translate(-32.191 -15.167)" fill="#2c2d66"/>
        <line id="Linha_243" data-name="Linha 243" y2="7.547" transform="translate(540.999 265.072)" fill="none" stroke="#e2e8f0" stroke-width="0.516"/>
        <path id="Caminho_17214" data-name="Caminho 17214" d="M539.655,298.641v-9.676H603.2V298.7" transform="translate(-30.547 -16.357)" fill="none" stroke="#e2e8f0" stroke-width="0.516"/>
        <path id="Caminho_17215" data-name="Caminho 17215" d="M571.754,255.558h3.165a.487.487,0,0,1,.487.487v3.165a.487.487,0,0,1-.487.487h-3.165a.487.487,0,0,1-.487-.487v-3.165a.487.487,0,0,1,.487-.487" transform="translate(-32.337 -14.466)" fill="#2c2d66"/>
        <path id="Caminho_17216" data-name="Caminho 17216" d="M574.542,257.413h-.863a.051.051,0,0,1-.051-.051V256.5a.254.254,0,1,0-.508-.015v.878a.051.051,0,0,1-.051.051h-.863a.254.254,0,0,0-.015.508h.878a.051.051,0,0,1,.051.051v.863a.254.254,0,0,0,.508.016v-.879a.051.051,0,0,1,.051-.051h.863a.254.254,0,0,0,.016-.508h-.016Z" transform="translate(-32.375 -14.504)" fill="#fff"/>
        <line id="Linha_244" data-name="Linha 244" y1="4.584" transform="translate(540.999 306.203)" fill="none" stroke="#e2e8f0" stroke-width="0.516"/>
        <path id="Caminho_17217" data-name="Caminho 17217" d="M539.655,314.327V324H603.2v-9.737" transform="translate(-30.547 -17.789)" fill="none" stroke="#e2e8f0" stroke-width="0.516"/>
        <path id="Caminho_17218" data-name="Caminho 17218" d="M571.754,330.137h3.165a.487.487,0,0,1,.487.487v3.165a.487.487,0,0,1-.487.487h-3.165a.487.487,0,0,1-.487-.487v-3.165a.487.487,0,0,1,.487-.487" transform="translate(-32.337 -18.688)" fill="#2c2d66"/>
        <path id="Caminho_17219" data-name="Caminho 17219" d="M574.542,331.991h-.863a.051.051,0,0,1-.051-.051v-.864a.254.254,0,1,0-.508-.015v.878a.051.051,0,0,1-.051.051h-.863a.254.254,0,0,0-.015.508h.878a.051.051,0,0,1,.051.051v.863a.254.254,0,0,0,.508.016v-.879a.051.051,0,0,1,.051-.051h.863a.254.254,0,0,0,.016-.508h-.016Z" transform="translate(-32.375 -18.726)" fill="#fff"/>
        <rect id="Retângulo_2632" data-name="Retângulo 2632" width="8.034" height="4.139" transform="translate(505.09 275.175)" fill="#f6f6ff"/>
        <g id="Grupo_22649" data-name="Grupo 22649" transform="translate(506.673 275.762)" style="mix-blend-mode: normal;isolation: isolate">
          <g id="Grupo_22648" data-name="Grupo 22648">
            <g id="Grupo_22647" data-name="Grupo 22647" clip-path="url(#clip-path-7)">
              <g id="Grupo_22646" data-name="Grupo 22646" style="mix-blend-mode: normal;isolation: isolate">
                <g id="Grupo_22645" data-name="Grupo 22645">
                  <g id="Grupo_22644" data-name="Grupo 22644" clip-path="url(#clip-path-7)">
                    <text id="SIM" transform="translate(0 1.693)" fill="#2c2d66" font-size="2" font-family="TTCommons-Medium, TT Commons" font-weight="500"><tspan x="0" y="0">SIM</tspan></text>
                  </g>
                </g>
              </g>
            </g>
          </g>
        </g>
        <rect id="Retângulo_2635" data-name="Retângulo 2635" width="7.06" height="4.139" transform="translate(569.118 275.175)" fill="#f6f6ff"/>
        <g id="Grupo_22655" data-name="Grupo 22655" transform="translate(569.726 275.762)" style="mix-blend-mode: normal;isolation: isolate">
          <g id="Grupo_22654" data-name="Grupo 22654">
            <g id="Grupo_22653" data-name="Grupo 22653" clip-path="url(#clip-path-9)">
              <g id="Grupo_22652" data-name="Grupo 22652" style="mix-blend-mode: normal;isolation: isolate">
                <g id="Grupo_22651" data-name="Grupo 22651">
                  <g id="Grupo_22650" data-name="Grupo 22650" clip-path="url(#clip-path-9)">
                    <text id="NÃO" transform="translate(0 1.749)" fill="#2c2d66" font-size="3" font-family="TTCommons-Medium, TT Commons" font-weight="500"><tspan x="0" y="0">N</tspan><tspan y="0" letter-spacing="-0.019em">Ã</tspan><tspan y="0">O</tspan></text>
                  </g>
                </g>
              </g>
            </g>
          </g>
        </g>
        <g id="Grupo_22661" data-name="Grupo 22661" transform="translate(550.859 255.842)" style="mix-blend-mode: normal;isolation: isolate">
          <g id="Grupo_22660" data-name="Grupo 22660">
            <g id="Grupo_22659" data-name="Grupo 22659" clip-path="url(#clip-path-11)">
              <g id="Grupo_22658" data-name="Grupo 22658" style="mix-blend-mode: normal;isolation: isolate">
                <g id="Grupo_22657" data-name="Grupo 22657">
                  <g id="Grupo_22656" data-name="Grupo 22656" clip-path="url(#clip-path-11)">
                    <text id="Condicional" transform="translate(0 1.948)" fill="#2c2d66" font-size="3" font-family="TTCommons-Medium, TT Commons" font-weight="500"><tspan x="0" y="0" letter-spacing="-0.009em">C</tspan><tspan y="0">ondicional</tspan></text>
                  </g>
                </g>
              </g>
            </g>
          </g>
        </g>
        <g id="Grupo_22667" data-name="Grupo 22667" transform="translate(518.967 287.127)" style="mix-blend-mode: normal;isolation: isolate">
          <g id="Grupo_22666" data-name="Grupo 22666">
            <g id="Grupo_22665" data-name="Grupo 22665" clip-path="url(#clip-path-13)">
              <g id="Grupo_22664" data-name="Grupo 22664" style="mix-blend-mode: normal;isolation: isolate">
                <g id="Grupo_22663" data-name="Grupo 22663">
                  <g id="Grupo_22662" data-name="Grupo 22662" clip-path="url(#clip-path-13)">
                    <text id="HubSpot" transform="translate(0 1.947)" fill="#2c2d66" font-size="3" font-family="TTCommons-Medium, TT Commons" font-weight="500"><tspan x="0" y="0">HubSpot</tspan></text>
                  </g>
                </g>
              </g>
            </g>
          </g>
        </g>
        <g id="Grupo_22673" data-name="Grupo 22673" transform="translate(582.507 287.127)" style="mix-blend-mode: normal;isolation: isolate">
          <g id="Grupo_22672" data-name="Grupo 22672">
            <g id="Grupo_22671" data-name="Grupo 22671" clip-path="url(#clip-path-15)">
              <g id="Grupo_22670" data-name="Grupo 22670" style="mix-blend-mode: normal;isolation: isolate">
                <g id="Grupo_22669" data-name="Grupo 22669">
                  <g id="Grupo_22668" data-name="Grupo 22668" clip-path="url(#clip-path-15)">
                    <text id="Email" transform="translate(0 1.947)" fill="#2c2d66" font-size="3" font-family="TTCommons-Medium, TT Commons" font-weight="500"><tspan x="0" y="0">Email</tspan></text>
                  </g>
                </g>
              </g>
            </g>
          </g>
        </g>
        <line id="Linha_245" data-name="Linha 245" y1="4.382" transform="translate(540.878 246.029)" fill="none" stroke="#e2e8f0" stroke-width="0.516"/>
        <path id="Caminho_17220" data-name="Caminho 17220" d="M532.887,226.082h12.9a.974.974,0,0,1,.974.974v12.9a.974.974,0,0,1-.974.975h-12.9a.974.974,0,0,1-.974-.975v-12.9a.973.973,0,0,1,.974-.974" transform="translate(-30.109 -12.798)" fill="#fff"/>
        <rect id="Retângulo_2644" data-name="Retângulo 2644" width="14.607" height="14.607" rx="0.903" transform="translate(501.926 213.407)" fill="none" stroke="#e2e8f0" stroke-width="0.258"/>
        <g id="Grupo_22679" data-name="Grupo 22679" transform="translate(519.089 218.618)" style="mix-blend-mode: normal;isolation: isolate">
          <g id="Grupo_22678" data-name="Grupo 22678">
            <g id="Grupo_22677" data-name="Grupo 22677" clip-path="url(#clip-path-17)">
              <g id="Grupo_22676" data-name="Grupo 22676" style="mix-blend-mode: normal;isolation: isolate">
                <g id="Grupo_22675" data-name="Grupo 22675">
                  <g id="Grupo_22674" data-name="Grupo 22674" clip-path="url(#clip-path-17)">
                    <text id="Laço_de_repetição" data-name="Laço de repetição" transform="translate(0 1.948)" fill="#2c2d66" font-size="3" font-family="TTCommons-Medium, TT Commons" font-weight="500"><tspan x="0" y="0" letter-spacing="-0.009em">L</tspan><tspan y="0">aço de </tspan><tspan y="0" letter-spacing="-0.004em">r</tspan><tspan y="0">epetição</tspan></text>
                  </g>
                </g>
              </g>
            </g>
          </g>
        </g>
        <path id="Caminho_17221" data-name="Caminho 17221" d="M543.182,235.221a.944.944,0,0,1-.943.942h-6.156l1.242-1.242-.445-.444-1.777,1.777a.314.314,0,0,0,0,.444l1.777,1.777.445-.444-1.242-1.242h6.156a1.573,1.573,0,0,0,1.571-1.572v-1.258h-.627Z" transform="translate(-30.285 -13.244)" fill="#2c2d66"/>
        <path id="Caminho_17222" data-name="Caminho 17222" d="M535.638,232.437a.943.943,0,0,1,.942-.942h6.156l-1.242,1.242.444.444,1.777-1.777a.314.314,0,0,0,0-.444l-1.776-1.779-.445.444,1.242,1.242h-6.156a1.572,1.572,0,0,0-1.571,1.571v1.258h.628Z" transform="translate(-30.285 -12.973)" fill="#2c2d66"/>
        <g id="Grupo_22686" data-name="Grupo 22686" transform="translate(492.2 216.89)" opacity="0">
          <g id="Grupo_22685" data-name="Grupo 22685">
            <g id="Grupo_22684" data-name="Grupo 22684" clip-path="url(#clip-path-19)">
              <path id="Caminho_17223" data-name="Caminho 17223" d="M522.837,230.211h5.356a.73.73,0,0,1,.73.73V236.3a.73.73,0,0,1-.73.731h-5.356a.73.73,0,0,1-.73-.731v-5.356a.73.73,0,0,1,.73-.73" transform="translate(-521.754 -229.921)" fill="#fff"/>
              <rect id="Retângulo_2647" data-name="Retângulo 2647" width="6.573" height="6.574" rx="0.645" transform="translate(0.475 0.412)" fill="none" stroke="#e2e8f0" stroke-width="0.258"/>
              <g id="Grupo_22681" data-name="Grupo 22681" transform="translate(1.813 1.508)">
                <g id="Grupo_22680" data-name="Grupo 22680" clip-path="url(#clip-path-20)">
                  <rect id="Retângulo_2648" data-name="Retângulo 2648" width="6.345" height="6.458" transform="translate(-1.133 -1.076)" fill="#e53e3e"/>
                </g>
              </g>
              <g id="Grupo_22683" data-name="Grupo 22683" transform="translate(1.813 1.508)">
                <g id="Grupo_22682" data-name="Grupo 22682" clip-path="url(#clip-path-21)">
                  <rect id="Retângulo_2649" data-name="Retângulo 2649" width="7.706" height="7.32" transform="translate(-1.813 -1.508)" fill="#e53e3e"/>
                </g>
              </g>
            </g>
          </g>
        </g>
        <path id="Caminho_17226" data-name="Caminho 17226" d="M532.758,298.654h12.9a.974.974,0,0,1,.974.974v12.9a.974.974,0,0,1-.974.974h-12.9a.974.974,0,0,1-.974-.974v-12.9a.974.974,0,0,1,.974-.974" transform="translate(-30.102 -16.905)" fill="#fff"/>
        <rect id="Retângulo_2651" data-name="Retângulo 2651" width="14.607" height="14.607" rx="0.903" transform="translate(501.804 281.87)" fill="none" stroke="#e2e8f0" stroke-width="0.258"/>
        <path id="Caminho_17227" data-name="Caminho 17227" d="M534.365,305.563h.348v.774h.732v-.774h.35v1.9h-.35v-.791h-.732v.79h-.348Zm2.533,1.28a.288.288,0,0,1-.576,0v-.818h-.33v.818a.618.618,0,0,0,1.237,0v-.818h-.33v.818m1.251-.808a.509.509,0,0,0-.39.156v-.628h-.33v1.164a.694.694,0,0,0,.654.733h.016a.726.726,0,0,0,.739-.711h0a.7.7,0,0,0-.688-.713Zm.009,1.12a.409.409,0,1,1,.358-.359.408.408,0,0,1-.358.359m1.235-1.037a.2.2,0,0,1,.187-.22.189.189,0,0,1,.046,0,.5.5,0,0,1,.311.164l.216-.254a.68.68,0,0,0-.507-.245.555.555,0,0,0-.614.489.511.511,0,0,0,0,.066c0,.642.79.438.79.8a.226.226,0,0,1-.232.208.406.406,0,0,1-.349-.194l-.24.248a.711.711,0,0,0,.57.282.562.562,0,0,0,.613-.5c0-.012,0-.025,0-.037,0-.712-.79-.491-.79-.8m1.661-.1a.7.7,0,0,0-.669.719v1.183h.331v-.633a.509.509,0,0,0,.39.156.7.7,0,0,0,.688-.712.725.725,0,0,0-.737-.713h0Zm.059,1.12a.409.409,0,1,1,.359-.358.407.407,0,0,1-.359.358m3.116.019c-.194,0-.251-.085-.251-.214v-.575h.3v-.291h-.3v-.382l-.335.15v1.167a.433.433,0,0,0,.415.452.463.463,0,0,0,.073,0,.687.687,0,0,0,.132-.01l.082-.3c-.037,0-.079,0-.116,0" transform="translate(-30.248 -17.296)" fill="#45535e"/>
        <path id="Caminho_17228" data-name="Caminho 17228" d="M543.746,306.352a.721.721,0,0,0-.265-.262.7.7,0,0,0-.268-.092v-.347a.257.257,0,0,0,.158-.241.263.263,0,1,0-.526,0,.253.253,0,0,0,.155.241V306a.753.753,0,0,0-.233.073l-.935-.71a.3.3,0,0,0,.012-.076.294.294,0,1,0-.142.249l.06.046.841.6a.7.7,0,0,0-.119.139.643.643,0,0,0-.108.35v.026a.721.721,0,0,0,.045.253.658.658,0,0,0,.108.189l-.278.279a.225.225,0,1,0,.135.289.229.229,0,0,0,0-.144l.287-.288a.8.8,0,0,0,.128.07.755.755,0,0,0,.3.062h.02a.717.717,0,0,0,.609-.338.663.663,0,0,0,.1-.357v-.007a.7.7,0,0,0-.091-.355Zm-.352.6a.365.365,0,0,1-.27.141h-.016a.369.369,0,0,1-.171-.045.4.4,0,0,1-.149-.136.32.32,0,0,1-.062-.185v-.02a.379.379,0,0,1,.044-.184.391.391,0,0,1,.139-.152.34.34,0,0,1,.193-.059h.007a.374.374,0,0,1,.323.171.417.417,0,0,1,.063.182c0,.013,0,.027,0,.041A.358.358,0,0,1,543.395,306.956Z" transform="translate(-30.638 -17.264)" fill="#f8761f"/>
        <path id="Caminho_17229" data-name="Caminho 17229" d="M600.111,298.654h12.9a.974.974,0,0,1,.974.974v12.9a.974.974,0,0,1-.974.974h-12.9a.974.974,0,0,1-.974-.974v-12.9a.974.974,0,0,1,.974-.974" transform="translate(-33.915 -16.905)" fill="#fff"/>
        <rect id="Retângulo_2652" data-name="Retângulo 2652" width="14.607" height="14.607" rx="0.903" transform="translate(565.344 281.87)" fill="none" stroke="#e2e8f0" stroke-width="0.258"/>
        <path id="Caminho_17230" data-name="Caminho 17230" d="M610.03,303.332H603.5a.755.755,0,0,0-.753.753V308.6a.755.755,0,0,0,.753.753h6.526a.755.755,0,0,0,.753-.753v-4.518a.755.755,0,0,0-.753-.753m0,.5a.245.245,0,0,1,.1.02l-3.359,2.911-3.359-2.911a.245.245,0,0,1,.1-.02Zm0,5.02H603.5a.251.251,0,0,1-.251-.251v-4.219l3.349,2.9a.253.253,0,0,0,.329,0l3.349-2.9V308.6A.252.252,0,0,1,610.03,308.854Z" transform="translate(-34.119 -17.17)" fill="#2c2d66"/>
        <path id="Caminho_17231" data-name="Caminho 17231" d="M532.9,355.444h12.9a.974.974,0,0,1,.974.974v12.9a.974.974,0,0,1-.974.975H532.9a.974.974,0,0,1-.974-.975v-12.9a.974.974,0,0,1,.974-.974" transform="translate(-30.11 -20.12)" fill="#fff"/>
        <rect id="Retângulo_2653" data-name="Retângulo 2653" width="14.607" height="14.607" rx="0.903" transform="translate(501.94 335.445)" fill="none" stroke="#e2e8f0" stroke-width="0.258"/>
        <path id="Caminho_17232" data-name="Caminho 17232" d="M543.756,362.693a6.491,6.491,0,0,1-1.5-1.03,20,20,0,0,0,.512-2.657.252.252,0,0,0-.126-.292.229.229,0,0,0-.275.091c-.793.949-1.879.841-3.029.725s-2.355-.234-3.242.784a.5.5,0,0,0-.519-.168l-.02.006a.5.5,0,0,0-.343.608l1.77,6.333a.422.422,0,0,0,.521.3h0l.155-.043a.425.425,0,0,0,.3-.524h0l-.547-1.961c.8-1.025,1.91-.917,3.087-.8s2.389.239,3.281-.827a.487.487,0,0,0,.1-.39.214.214,0,0,0-.119-.152ZM537.664,367a.135.135,0,0,1-.081.063l-.155.043a.136.136,0,0,1-.167-.093l-1.769-6.332a.206.206,0,0,1,.142-.253l.02-.006a.178.178,0,0,1,.055-.007.205.205,0,0,1,.2.149l.016.057.906,3.242.848,3.033a.135.135,0,0,1-.012.1m5.889-3.956c-.793.949-1.879.841-3.029.725s-2.328-.233-3.211.747l-.792-2.833-.3-1.072c.8-1.025,1.909-.914,3.088-.8,1.118.111,2.272.226,3.15-.682a19.487,19.487,0,0,1-.483,2.45.285.285,0,0,0,.084.288,6.926,6.926,0,0,0,1.534,1.062.212.212,0,0,1-.042.111Z" transform="translate(-30.295 -20.304)" fill="#2c2d66"/>
        <path id="Caminho_17233" data-name="Caminho 17233" d="M543.756,362.693a6.491,6.491,0,0,1-1.5-1.03,20,20,0,0,0,.512-2.657.252.252,0,0,0-.126-.292.229.229,0,0,0-.275.091c-.793.949-1.879.841-3.029.725s-2.355-.234-3.242.784a.5.5,0,0,0-.519-.168l-.02.006a.5.5,0,0,0-.343.608l1.77,6.333a.422.422,0,0,0,.521.3h0l.155-.043a.425.425,0,0,0,.3-.524h0l-.547-1.961c.8-1.025,1.91-.917,3.087-.8s2.389.239,3.281-.827a.487.487,0,0,0,.1-.39.214.214,0,0,0-.119-.152ZM537.664,367a.135.135,0,0,1-.081.063l-.155.043a.136.136,0,0,1-.167-.093l-1.769-6.332a.206.206,0,0,1,.142-.253l.02-.006a.178.178,0,0,1,.055-.007.205.205,0,0,1,.2.149l.016.057.906,3.242.848,3.033A.135.135,0,0,1,537.664,367Zm5.889-3.956c-.793.949-1.879.841-3.029.725s-2.328-.233-3.211.747l-.792-2.833-.3-1.072c.8-1.025,1.909-.914,3.088-.8,1.118.111,2.272.226,3.15-.682a19.487,19.487,0,0,1-.483,2.45.285.285,0,0,0,.084.288,6.926,6.926,0,0,0,1.534,1.062.212.212,0,0,1-.042.111Z" transform="translate(-30.295 -20.304)" fill="none" stroke="#2c2d66" stroke-width="0.258"/>
        <path id="Caminho_17234" data-name="Caminho 17234" d="M570.664,222.641c-6.918.592-15.722-7.681-15.722-7.681a1.547,1.547,0,0,1-2.471-.315c-1.125-1.618-6.006-5.37-6.28-8.619s5.49-8.511,5.49-8.511c-4.447,1.213-4.916-1.393-4.916-1.393s7.475-6.172,10.088-6.338c1.025-.064,5.482,2.5,9.786,5.958,4.5,3.621,12.951,16.385,12.951,16.385s28.6,20.769,35.832,26.087c9.538,7.016,20.843,19.458,20.843,19.458s37.982,17.116,48.4,26.523l-14.153,33.538s-34.518-23.127-37.97-29-6.9-2.338-10.356-6.174-6.761-8.219-6.761-8.219A58.4,58.4,0,0,1,598.994,262.4c-8.073-8.284-15.177-20.955-19.64-28.549a47.229,47.229,0,0,0-8.69-11.213" transform="translate(-30.917 -10.743)" fill="#fff"/>
        <path id="Caminho_17235" data-name="Caminho 17235" d="M570.664,222.641c-6.918.592-15.722-7.681-15.722-7.681a1.547,1.547,0,0,1-2.471-.315c-1.125-1.618-6.006-5.37-6.28-8.619s5.49-8.511,5.49-8.511c-4.447,1.213-4.916-1.393-4.916-1.393s7.475-6.172,10.088-6.338c1.025-.064,5.482,2.5,9.786,5.958,4.5,3.621,12.951,16.385,12.951,16.385s28.6,20.769,35.832,26.087c9.538,7.016,20.843,19.458,20.843,19.458s37.982,17.116,48.4,26.523l-14.153,33.538s-34.518-23.127-37.97-29-6.9-2.338-10.356-6.174-6.761-8.219-6.761-8.219A58.4,58.4,0,0,1,598.994,262.4c-8.073-8.284-15.177-20.955-19.64-28.549A47.229,47.229,0,0,0,570.664,222.641Z" transform="translate(-30.917 -10.743)" fill="none" stroke="#0a0c29" stroke-linecap="round" stroke-linejoin="round" stroke-width="1.387"/>
        <path id="Caminho_17236" data-name="Caminho 17236" d="M573.023,218.251s-10.294-2.494-11.19-9.289a12.578,12.578,0,0,0-2.209-4.75s-9.615-.475-9-4.388l12.819-1.132a22.328,22.328,0,0,1,11.174,9.391" transform="translate(-31.167 -11.247)" fill="#fff"/>
        <path id="Caminho_17237" data-name="Caminho 17237" d="M573.023,218.251s-10.294-2.494-11.19-9.289a12.578,12.578,0,0,0-2.209-4.75s-9.615-.475-9-4.388l12.819-1.132a22.328,22.328,0,0,1,11.174,9.391" transform="translate(-31.167 -11.247)" fill="none" stroke="#0a0c29" stroke-linecap="round" stroke-linejoin="round" stroke-width="1.387"/>
        <path id="Caminho_17238" data-name="Caminho 17238" d="M555.468,215.8a4.163,4.163,0,0,0,.433-2.775s2.827-.512,2.511-3.018c0,0,4.193-.515,1.488-5.459" transform="translate(-31.443 -11.578)" fill="none" stroke="#0a0c29" stroke-linecap="round" stroke-linejoin="round" stroke-width="1.387"/>
        <path id="Caminho_17239" data-name="Caminho 17239" d="M558.214,209.966s-5.631-4.182-6.27-6.085" transform="translate(-31.243 -11.541)" fill="none" stroke="#0a0c29" stroke-linecap="round" stroke-linejoin="round" stroke-width="1.387"/>
        <path id="Caminho_17240" data-name="Caminho 17240" d="M555.56,213.182s-6-3.654-6.109-5.8" transform="translate(-31.102 -11.739)" fill="none" stroke="#0a0c29" stroke-linecap="round" stroke-linejoin="round" stroke-width="1.387"/>
        <path id="Caminho_17241" data-name="Caminho 17241" d="M557.077,193.58s-1.907,3.432-5.067,4.15" transform="translate(-31.247 -10.958)" fill="none" stroke="#0a0c29" stroke-linecap="round" stroke-linejoin="round" stroke-width="1.387"/>
        <path id="Caminho_17242" data-name="Caminho 17242" d="M556.377,195.006a16.539,16.539,0,0,1,2.825,1.869" transform="translate(-31.494 -11.038)" fill="none" stroke="#0a0c29" stroke-linecap="round" stroke-linejoin="round" stroke-width="1.387"/>
        <path id="Caminho_17243" data-name="Caminho 17243" d="M781.871,316.352s-22.688-9.875-45.68-15.26-60.154-10.185-60.154-10.185,10.231,104.443,7.539,110.726-18.875,27.38-18.875,27.38,87.549,34.135,102.81,37.041,7.3-50.058,7.3-50.058,16.035-67.327,7.06-99.644" transform="translate(-37.626 -16.467)" fill="#0a0c29"/>
        <path id="Caminho_17244" data-name="Caminho 17244" d="M753.4,304.258s2.081,3.966-3.39,5.981c-14.174,5.236-29.278.615-27.669-4.934.615-2.121,4.123,0,3.9-7.919a9.66,9.66,0,0,0-.956-3.481,36.04,36.04,0,0,0-3.6-6.034,74.954,74.954,0,0,0-4.857-6.059s22.5-14.358,39.187,0c0,0-6.2,3.141-2.618,22.446" transform="translate(-40.577 -15.591)" fill="#fff"/>
        <path id="Caminho_17245" data-name="Caminho 17245" d="M753.4,304.258s2.081,3.966-3.39,5.981c-14.174,5.236-29.278.615-27.669-4.934.615-2.121,4.123,0,3.9-7.919a9.66,9.66,0,0,0-.956-3.481,36.04,36.04,0,0,0-3.6-6.034,74.954,74.954,0,0,0-4.857-6.059s22.5-14.358,39.187,0C756.022,281.812,749.818,284.954,753.4,304.258Z" transform="translate(-40.577 -15.591)" fill="none" stroke="#0a0c29" stroke-linecap="round" stroke-linejoin="round" stroke-width="1.387"/>
        <path id="Caminho_17246" data-name="Caminho 17246" d="M774,499.208c-8.86,14.436-53.819,21.216-78.358,20.574s-95.152-34.069-99.941-41.149c-4.437-6.558-15.34-28.231,1.465-41.333a32.594,32.594,0,0,1,4.529-2.931c11.5-6.23,88.018,13.415,88.018,13.415s4.738-3,6.478-2.775c5.341.68,9.123,5,19.946,8.075,7.552,2.159,28.166-6.139,41.333.994a18.193,18.193,0,0,1,4,2.906c12.3,11.754,21.373,27.787,12.525,42.223" transform="translate(-33.29 -24.519)" fill="#5e47fd"/>
      </g>
    </g>
    <g id="Grupo_22696" data-name="Grupo 22696" transform="translate(554.817 408.63)">
      <g id="Grupo_22695" data-name="Grupo 22695" clip-path="url(#clip-path-22)">
        <g id="Grupo_22694" data-name="Grupo 22694" transform="translate(9.054)" opacity="0.3">
          <g id="Grupo_22693" data-name="Grupo 22693">
            <g id="Grupo_22692" data-name="Grupo 22692" clip-path="url(#clip-path-23)">
              <g id="Grupo_22691" data-name="Grupo 22691" opacity="0.7">
                <g id="Grupo_22690" data-name="Grupo 22690">
                  <g id="Grupo_22689" data-name="Grupo 22689" clip-path="url(#clip-path-23)">
                    <path id="Caminho_17247" data-name="Caminho 17247" d="M758.008,454.08c-13.494-.9-25.522,1.924-33.924,6.884-9.96,5.891-57,28.546-57,28.546.1-2.435,2.723-7.343,2.723-7.343-4.424-3.939-15.994-7-15.994-7-8.965-7.657-44.539-30.5-56.108-37.864a32.527,32.527,0,0,1,4.528-2.931c11.5-6.23,88.018,13.415,88.018,13.415s4.738-3,6.478-2.775c5.34.68,9.123,5,19.947,8.075,7.552,2.159,28.165-6.139,41.332.994" transform="translate(-597.704 -433.149)"/>
                  </g>
                </g>
              </g>
            </g>
          </g>
        </g>
      </g>
    </g>
    <g id="Grupo_22698" data-name="Grupo 22698">
      <g id="Grupo_22697" data-name="Grupo 22697" clip-path="url(#clip-path)">
        <path id="Caminho_17249" data-name="Caminho 17249" d="M774,499.208c-8.86,14.436-53.819,21.216-78.358,20.574s-95.152-34.069-99.941-41.149c-4.437-6.558-15.34-28.231,1.465-41.333a32.594,32.594,0,0,1,4.529-2.931c11.5-6.23,88.018,13.415,88.018,13.415s4.738-3,6.478-2.775c5.341.68,9.123,5,19.946,8.075,7.552,2.159,28.166-6.139,41.333.994a18.193,18.193,0,0,1,4,2.906C773.773,468.74,782.842,484.772,774,499.208Z" transform="translate(-33.29 -24.519)" fill="none" stroke="#0a0c29" stroke-linecap="round" stroke-linejoin="round" stroke-width="1.387"/>
        <path id="Caminho_17250" data-name="Caminho 17250" d="M767.285,516.983l1.131,4.934s-3.008,8.543-16.245,9.936-21.069,4.327-27.427,4.708a54.415,54.415,0,0,1-10.063-.159l-1.3-1.943Z" transform="translate(-40.381 -29.264)" fill="#fff"/>
        <path id="Caminho_17251" data-name="Caminho 17251" d="M767.285,516.983l1.131,4.934s-3.008,8.543-16.245,9.936-21.069,4.327-27.427,4.708a54.415,54.415,0,0,1-10.063-.159l-1.3-1.943Z" transform="translate(-40.381 -29.264)" fill="none" stroke="#0a0c29" stroke-linecap="round" stroke-linejoin="round" stroke-width="1.387"/>
        <path id="Caminho_17252" data-name="Caminho 17252" d="M689.078,515.609,712,533.6a262.446,262.446,0,0,0,32.876-4.913v-.011c10.864-2.515,20.35-6.122,20.873-11.064.793-7.514-7.238-9.573-16.785-9.28-1.784.041-3.611.178-5.458.371-15.278,1.638-34.7-6.8-34.7-6.8Z" transform="translate(-39.006 -28.411)" fill="#0a0c29"/>
      </g>
    </g>
    <g id="Grupo_22706" data-name="Grupo 22706" transform="translate(650.072 473.492)">
      <g id="Grupo_22705" data-name="Grupo 22705" clip-path="url(#clip-path-26)">
        <g id="Grupo_22704" data-name="Grupo 22704" transform="translate(-0.006 0.001)" opacity="0.3">
          <g id="Grupo_22703" data-name="Grupo 22703">
            <g id="Grupo_22702" data-name="Grupo 22702" clip-path="url(#clip-path-27)">
              <g id="Grupo_22701" data-name="Grupo 22701" opacity="0.7">
                <g id="Grupo_22700" data-name="Grupo 22700">
                  <g id="Grupo_22699" data-name="Grupo 22699" clip-path="url(#clip-path-27)">
                    <path id="Caminho_17253" data-name="Caminho 17253" d="M765.759,517.448a70.453,70.453,0,0,0-12.753,6.275s-21.3,10.959-54.018-.329l-9.916-7.783L708.813,501.9s19.413,8.441,34.7,6.8c1.849-.192,3.675-.328,5.458-.362,9.474-.3,17.45,1.725,16.792,9.11" transform="translate(-689.072 -501.905)"/>
                  </g>
                </g>
              </g>
            </g>
          </g>
        </g>
      </g>
    </g>
    <g id="Grupo_22708" data-name="Grupo 22708">
      <g id="Grupo_22707" data-name="Grupo 22707" clip-path="url(#clip-path)">
        <path id="Caminho_17255" data-name="Caminho 17255" d="M689.078,515.609,712,533.6a262.446,262.446,0,0,0,32.876-4.913v-.011c10.864-2.515,20.35-6.122,20.873-11.064.793-7.514-7.238-9.573-16.785-9.28-1.784.041-3.611.178-5.458.371-15.278,1.638-34.7-6.8-34.7-6.8Z" transform="translate(-39.006 -28.411)" fill="none" stroke="#0a0c29" stroke-linecap="round" stroke-linejoin="round" stroke-width="1.387"/>
        <path id="Caminho_17256" data-name="Caminho 17256" d="M711.635,523.946c-4.133.674.408,9.127,6.011,6.56s-1.878-7.235-6.011-6.56" transform="translate(-40.192 -29.655)" fill="#fff"/>
      </g>
    </g>
    <g id="Grupo_22716" data-name="Grupo 22716" transform="translate(669.843 494.225)">
      <g id="Grupo_22715" data-name="Grupo 22715" clip-path="url(#clip-path-30)">
        <g id="Grupo_22714" data-name="Grupo 22714" transform="translate(0.003 -0.001)" opacity="0.2">
          <g id="Grupo_22713" data-name="Grupo 22713">
            <g id="Grupo_22712" data-name="Grupo 22712" clip-path="url(#clip-path-31)">
              <g id="Grupo_22711" data-name="Grupo 22711" opacity="0.7">
                <g id="Grupo_22710" data-name="Grupo 22710">
                  <g id="Grupo_22709" data-name="Grupo 22709" clip-path="url(#clip-path-31)">
                    <path id="Caminho_17257" data-name="Caminho 17257" d="M719.395,529.142a88.129,88.129,0,0,1-8.907-1.555c-.794-1.657-.612-3.358,1.146-3.641,3.472-.568,9.3,2.632,7.76,5.2" transform="translate(-710.038 -523.879)"/>
                  </g>
                </g>
              </g>
            </g>
          </g>
        </g>
      </g>
    </g>
    <g id="Grupo_22718" data-name="Grupo 22718">
      <g id="Grupo_22717" data-name="Grupo 22717" clip-path="url(#clip-path)">
        <path id="Caminho_17259" data-name="Caminho 17259" d="M711.635,523.946c-4.133.674.408,9.127,6.011,6.56S715.768,523.271,711.635,523.946Z" transform="translate(-40.192 -29.655)" fill="none" stroke="#0a0c29" stroke-linecap="round" stroke-linejoin="round" stroke-width="1.387"/>
        <path id="Caminho_17260" data-name="Caminho 17260" d="M748.12,529.063c10.864-2.515,20.35-6.122,20.872-11.064.794-7.515-7.238-9.573-16.784-9.28-.418.4-9.669,9.35-4.088,20.344" transform="translate(-42.247 -28.795)" fill="#fff"/>
      </g>
    </g>
    <g id="Grupo_22726" data-name="Grupo 22726" transform="translate(704.089 479.898)">
      <g id="Grupo_22725" data-name="Grupo 22725" clip-path="url(#clip-path-34)">
        <g id="Grupo_22724" data-name="Grupo 22724" transform="translate(0.008 0.001)" opacity="0.3">
          <g id="Grupo_22723" data-name="Grupo 22723">
            <g id="Grupo_22722" data-name="Grupo 22722" clip-path="url(#clip-path-35)">
              <g id="Grupo_22721" data-name="Grupo 22721" opacity="0.7">
                <g id="Grupo_22720" data-name="Grupo 22720">
                  <g id="Grupo_22719" data-name="Grupo 22719" clip-path="url(#clip-path-35)">
                    <path id="Caminho_17261" data-name="Caminho 17261" d="M769,517.833a70.453,70.453,0,0,0-12.753,6.275,42.916,42.916,0,0,1-8.963,3c-3.665-10.075,4.527-18.007,4.924-18.38,9.474-.3,17.45,1.725,16.792,9.11" transform="translate(-746.344 -508.695)"/>
                  </g>
                </g>
              </g>
            </g>
          </g>
        </g>
      </g>
    </g>
    <g id="Grupo_22728" data-name="Grupo 22728">
      <g id="Grupo_22727" data-name="Grupo 22727" clip-path="url(#clip-path)">
        <path id="Caminho_17263" data-name="Caminho 17263" d="M748.12,529.063c10.864-2.515,20.35-6.122,20.872-11.064.794-7.515-7.238-9.573-16.784-9.28C751.79,509.119,742.539,518.068,748.12,529.063Z" transform="translate(-42.247 -28.795)" fill="none" stroke="#0a0c29" stroke-linecap="round" stroke-linejoin="round" stroke-width="1.387"/>
        <path id="Caminho_17264" data-name="Caminho 17264" d="M739.953,519.7c.022,0,.044,0,.065,0a1.133,1.133,0,0,0,1.188-1.077c.228-4.734,3.871-8.59,3.908-8.628a1.135,1.135,0,0,0-1.636-1.573c-.174.181-4.269,4.491-4.538,10.09a1.133,1.133,0,0,0,1.012,1.183" transform="translate(-41.828 -28.76)" fill="#fff"/>
        <path id="Caminho_17265" data-name="Caminho 17265" d="M739.953,519.7c.022,0,.044,0,.065,0a1.133,1.133,0,0,0,1.188-1.077c.228-4.734,3.871-8.59,3.908-8.628a1.135,1.135,0,0,0-1.636-1.573c-.174.181-4.269,4.491-4.538,10.09A1.133,1.133,0,0,0,739.953,519.7Z" transform="translate(-41.828 -28.76)" fill="none" stroke="#0a0c29" stroke-linecap="round" stroke-linejoin="round" stroke-width="1.387"/>
        <path id="Caminho_17266" data-name="Caminho 17266" d="M735.138,519.966a.837.837,0,0,0,.1.006,1.134,1.134,0,0,0,1.158-1.111c.094-4.782,3.439-8.928,3.473-8.971a1.134,1.134,0,0,0-1.754-1.439c-.159.191-3.877,4.78-3.988,10.364a1.135,1.135,0,0,0,1.014,1.151" transform="translate(-41.556 -28.758)" fill="#fff"/>
        <path id="Caminho_17267" data-name="Caminho 17267" d="M735.138,519.966a.837.837,0,0,0,.1.006,1.134,1.134,0,0,0,1.158-1.111c.094-4.782,3.439-8.928,3.473-8.971a1.134,1.134,0,0,0-1.754-1.439c-.159.191-3.877,4.78-3.988,10.364A1.135,1.135,0,0,0,735.138,519.966Z" transform="translate(-41.556 -28.758)" fill="none" stroke="#0a0c29" stroke-linecap="round" stroke-linejoin="round" stroke-width="1.387"/>
        <path id="Caminho_17268" data-name="Caminho 17268" d="M729.381,519.359l.02,0a1.136,1.136,0,0,0,1.23-1.031c.348-3.976,3.731-9.059,3.765-9.11a1.135,1.135,0,0,0-1.884-1.265c-.154.227-3.742,5.616-4.142,10.177a1.135,1.135,0,0,0,1.011,1.227" transform="translate(-41.23 -28.725)" fill="#fff"/>
        <path id="Caminho_17269" data-name="Caminho 17269" d="M729.381,519.359l.02,0a1.136,1.136,0,0,0,1.23-1.031c.348-3.976,3.731-9.059,3.765-9.11a1.135,1.135,0,0,0-1.884-1.265c-.154.227-3.742,5.616-4.142,10.177A1.135,1.135,0,0,0,729.381,519.359Z" transform="translate(-41.23 -28.725)" fill="none" stroke="#0a0c29" stroke-linecap="round" stroke-linejoin="round" stroke-width="1.387"/>
        <path id="Caminho_17270" data-name="Caminho 17270" d="M723.934,518.762a1.162,1.162,0,0,0,.308-.009,1.136,1.136,0,0,0,.932-1.307c-.807-4.82,3.67-8.947,3.716-8.988a1.135,1.135,0,0,0-1.522-1.685c-.223.2-5.447,4.99-4.433,11.046a1.135,1.135,0,0,0,1,.942" transform="translate(-40.915 -28.67)" fill="#fff"/>
        <path id="Caminho_17271" data-name="Caminho 17271" d="M723.934,518.762a1.162,1.162,0,0,0,.308-.009,1.136,1.136,0,0,0,.932-1.307c-.807-4.82,3.67-8.947,3.716-8.988a1.135,1.135,0,0,0-1.522-1.685c-.223.2-5.447,4.99-4.433,11.046A1.135,1.135,0,0,0,723.934,518.762Z" transform="translate(-40.915 -28.67)" fill="none" stroke="#0a0c29" stroke-linecap="round" stroke-linejoin="round" stroke-width="1.387"/>
        <path id="Caminho_17272" data-name="Caminho 17272" d="M718.021,517.33a1.118,1.118,0,0,0,.374-.023,1.135,1.135,0,0,0,.851-1.36c-.987-4.3,3.248-9.15,3.292-9.2a1.135,1.135,0,0,0-1.7-1.507c-.208.234-5.056,5.772-3.8,11.214a1.134,1.134,0,0,0,.986.874" transform="translate(-40.577 -28.578)" fill="#fff"/>
        <path id="Caminho_17273" data-name="Caminho 17273" d="M718.021,517.33a1.118,1.118,0,0,0,.374-.023,1.135,1.135,0,0,0,.851-1.36c-.987-4.3,3.248-9.15,3.292-9.2a1.135,1.135,0,0,0-1.7-1.507c-.208.234-5.056,5.772-3.8,11.214A1.134,1.134,0,0,0,718.021,517.33Z" transform="translate(-40.577 -28.578)" fill="none" stroke="#1a2e35" stroke-linecap="round" stroke-linejoin="round" stroke-width="1.387"/>
        <path id="Caminho_17274" data-name="Caminho 17274" d="M592.986,509.161l-1.642,4.788s2.094,8.812,15.111,11.588,20.5,6.516,26.781,7.563a54.467,54.467,0,0,0,10.025.9l1.5-1.8Z" transform="translate(-33.473 -28.821)" fill="#fff"/>
        <path id="Caminho_17275" data-name="Caminho 17275" d="M592.986,509.161l-1.642,4.788s2.094,8.812,15.111,11.588,20.5,6.516,26.781,7.563a54.467,54.467,0,0,0,10.025.9l1.5-1.8Z" transform="translate(-33.473 -28.821)" fill="none" stroke="#0a0c29" stroke-linecap="round" stroke-linejoin="round" stroke-width="1.387"/>
        <path id="Caminho_17276" data-name="Caminho 17276" d="M669.547,516.224l-24.689,15.487a262.279,262.279,0,0,1-32.177-8.339v-.011c-10.541-3.643-19.594-8.226-19.594-13.2,0-7.557,8.2-8.759,17.666-7.466,1.77.227,3.574.556,5.389.942,15.023,3.234,35.218-3.12,35.218-3.12Z" transform="translate(-33.572 -28.332)" fill="#0a0c29"/>
      </g>
    </g>
    <g id="Grupo_22736" data-name="Grupo 22736" transform="translate(559.514 472.19)">
      <g id="Grupo_22735" data-name="Grupo 22735" clip-path="url(#clip-path-38)">
        <g id="Grupo_22734" data-name="Grupo 22734" transform="translate(32.45 0)" opacity="0.3">
          <g id="Grupo_22733" data-name="Grupo 22733">
            <g id="Grupo_22732" data-name="Grupo 22732" clip-path="url(#clip-path-39)">
              <g id="Grupo_22731" data-name="Grupo 22731" opacity="0.7">
                <g id="Grupo_22730" data-name="Grupo 22730">
                  <g id="Grupo_22729" data-name="Grupo 22729" clip-path="url(#clip-path-39)">
                    <path id="Caminho_17277" data-name="Caminho 17277" d="M671.494,516.224l-14.523,9.11a58.533,58.533,0,0,1-29.488-20.774c12.877.034,25.823-4.04,25.823-4.04Z" transform="translate(-627.483 -500.522)"/>
                  </g>
                </g>
              </g>
            </g>
          </g>
        </g>
      </g>
    </g>
    <g id="Grupo_22738" data-name="Grupo 22738">
      <g id="Grupo_22737" data-name="Grupo 22737" clip-path="url(#clip-path)">
        <path id="Caminho_17279" data-name="Caminho 17279" d="M669.547,516.224l-24.689,15.487a262.279,262.279,0,0,1-32.177-8.339v-.011c-10.541-3.643-19.594-8.226-19.594-13.2,0-7.557,8.2-8.759,17.666-7.466,1.77.227,3.574.556,5.389.942,15.023,3.234,35.218-3.12,35.218-3.12Z" transform="translate(-33.572 -28.332)" fill="none" stroke="#0a0c29" stroke-linecap="round" stroke-linejoin="round" stroke-width="1.387"/>
        <path id="Caminho_17280" data-name="Caminho 17280" d="M612.681,523.464c-10.541-3.643-19.594-8.225-19.594-13.2,0-7.557,8.2-8.759,17.665-7.466.375.443,8.635,10.314,1.929,20.661" transform="translate(-33.572 -28.436)" fill="#fff"/>
        <path id="Caminho_17281" data-name="Caminho 17281" d="M612.681,523.464c-10.541-3.643-19.594-8.225-19.594-13.2,0-7.557,8.2-8.759,17.665-7.466C611.127,503.246,619.387,513.117,612.681,523.464Z" transform="translate(-33.572 -28.436)" fill="none" stroke="#0a0c29" stroke-linecap="round" stroke-linejoin="round" stroke-width="1.387"/>
        <path id="Caminho_17282" data-name="Caminho 17282" d="M622.8,515.035l-.065,0a1.135,1.135,0,0,1-1.069-1.2c.271-4.731-2.947-8.948-2.98-8.991a1.135,1.135,0,0,1,1.792-1.392c.154.2,3.775,4.914,3.454,10.511a1.134,1.134,0,0,1-1.131,1.071" transform="translate(-35.008 -28.474)" fill="#fff"/>
        <path id="Caminho_17283" data-name="Caminho 17283" d="M622.8,515.035l-.065,0a1.135,1.135,0,0,1-1.069-1.2c.271-4.731-2.947-8.948-2.98-8.991a1.135,1.135,0,0,1,1.792-1.392c.154.2,3.775,4.914,3.454,10.511A1.134,1.134,0,0,1,622.8,515.035Z" transform="translate(-35.008 -28.474)" fill="none" stroke="#0a0c29" stroke-linecap="round" stroke-linejoin="round" stroke-width="1.387"/>
        <path id="Caminho_17284" data-name="Caminho 17284" d="M627.592,515.813a.849.849,0,0,1-.1,0,1.133,1.133,0,0,1-1.034-1.226c.408-4.765-2.482-9.241-2.512-9.286a1.135,1.135,0,0,1,1.9-1.246c.138.207,3.354,5.16,2.876,10.725a1.134,1.134,0,0,1-1.129,1.038" transform="translate(-35.309 -28.503)" fill="#fff"/>
        <path id="Caminho_17285" data-name="Caminho 17285" d="M627.592,515.813a.849.849,0,0,1-.1,0,1.133,1.133,0,0,1-1.034-1.226c.408-4.765-2.482-9.241-2.512-9.286a1.135,1.135,0,0,1,1.9-1.246c.138.207,3.354,5.16,2.876,10.725A1.134,1.134,0,0,1,627.592,515.813Z" transform="translate(-35.309 -28.503)" fill="none" stroke="#0a0c29" stroke-linecap="round" stroke-linejoin="round" stroke-width="1.387"/>
        <path id="Caminho_17286" data-name="Caminho 17286" d="M633.368,515.812h-.02a1.136,1.136,0,0,1-1.115-1.155c.071-3.991-2.758-9.4-2.788-9.456a1.135,1.135,0,0,1,2.007-1.06c.129.242,3.131,5.978,3.051,10.557a1.136,1.136,0,0,1-1.135,1.114" transform="translate(-35.623 -28.503)" fill="#fff"/>
        <path id="Caminho_17287" data-name="Caminho 17287" d="M633.368,515.812h-.02a1.136,1.136,0,0,1-1.115-1.155c.071-3.991-2.758-9.4-2.788-9.456a1.135,1.135,0,0,1,2.007-1.06c.129.242,3.131,5.978,3.051,10.557A1.136,1.136,0,0,1,633.368,515.812Z" transform="translate(-35.623 -28.503)" fill="none" stroke="#0a0c29" stroke-linecap="round" stroke-linejoin="round" stroke-width="1.387"/>
        <path id="Caminho_17288" data-name="Caminho 17288" d="M638.833,515.79a1.172,1.172,0,0,1-.3-.041,1.135,1.135,0,0,1-.79-1.4c1.308-4.708-2.71-9.283-2.752-9.328a1.135,1.135,0,0,1,1.69-1.516c.2.224,4.893,5.534,3.249,11.451a1.136,1.136,0,0,1-1.092.831" transform="translate(-35.928 -28.48)" fill="#fff"/>
        <path id="Caminho_17289" data-name="Caminho 17289" d="M638.833,515.79a1.172,1.172,0,0,1-.3-.041,1.135,1.135,0,0,1-.79-1.4c1.308-4.708-2.71-9.283-2.752-9.328a1.135,1.135,0,0,1,1.69-1.516c.2.224,4.893,5.534,3.249,11.451A1.136,1.136,0,0,1,638.833,515.79Z" transform="translate(-35.928 -28.48)" fill="none" stroke="#0a0c29" stroke-linecap="round" stroke-linejoin="round" stroke-width="1.387"/>
        <path id="Caminho_17290" data-name="Caminho 17290" d="M644.892,514.989a1.121,1.121,0,0,1-.369-.062,1.134,1.134,0,0,1-.7-1.442c1.433-4.168-2.269-9.441-2.307-9.493a1.135,1.135,0,0,1,1.847-1.319c.181.253,4.421,6.27,2.6,11.55a1.136,1.136,0,0,1-1.073.766" transform="translate(-36.301 -28.427)" fill="#fff"/>
        <path id="Caminho_17291" data-name="Caminho 17291" d="M644.892,514.989a1.121,1.121,0,0,1-.369-.062,1.134,1.134,0,0,1-.7-1.442c1.433-4.168-2.269-9.441-2.307-9.493a1.135,1.135,0,0,1,1.847-1.319c.181.253,4.421,6.27,2.6,11.55A1.136,1.136,0,0,1,644.892,514.989Z" transform="translate(-36.301 -28.427)" fill="none" stroke="#0a0c29" stroke-linecap="round" stroke-linejoin="round" stroke-width="1.387"/>
        <path id="Caminho_17292" data-name="Caminho 17292" d="M650.311,522.252c4.04,1.1-1.365,9.034-6.667,5.892s2.626-7,6.667-5.892" transform="translate(-36.334 -29.551)" fill="#fff"/>
        <path id="Caminho_17293" data-name="Caminho 17293" d="M650.311,522.252c4.04,1.1-1.365,9.034-6.667,5.892S646.27,521.148,650.311,522.252Z" transform="translate(-36.334 -29.551)" fill="none" stroke="#0a0c29" stroke-linecap="round" stroke-linejoin="round" stroke-width="1.387"/>
        <path id="Caminho_17294" data-name="Caminho 17294" d="M601.335,477.681c6.069,8.5,24.033,17.877,41.937,25.621A84.486,84.486,0,0,0,654.5,517.971c11.022,11.337,15.514,4.986,15.514,4.986s6.96-.781,17.242-2.19a4.871,4.871,0,0,0,5.2,2.922c1.338-.211,3.911-2.124,6.814-4.647,25.95-3.907,61.176-10.421,70.688-18.084" transform="translate(-34.039 -27.039)" fill="#5e47fd"/>
        <path id="Caminho_17295" data-name="Caminho 17295" d="M601.335,477.681c6.069,8.5,24.033,17.877,41.937,25.621A84.486,84.486,0,0,0,654.5,517.971c11.022,11.337,15.514,4.986,15.514,4.986s6.96-.781,17.242-2.19a4.871,4.871,0,0,0,5.2,2.922c1.338-.211,3.911-2.124,6.814-4.647,25.95-3.907,61.176-10.421,70.688-18.084" transform="translate(-34.039 -27.039)" fill="none" stroke="#0a0c29" stroke-linecap="round" stroke-linejoin="round" stroke-width="1.387"/>
        <path id="Caminho_17296" data-name="Caminho 17296" d="M762.244,460.266c-4.489-4.938-8.977-5.161-18.4-4.489,0,0-24.591,7.8-41.743,18.178s-42.191,21.287-42.191,21.287-7.63-2.21-12.939,0c0,0-3.729.289-1.231,6.8" transform="translate(-36.504 -25.784)" fill="none" stroke="#0a0c29" stroke-linecap="round" stroke-linejoin="round" stroke-width="1.387"/>
        <path id="Caminho_17297" data-name="Caminho 17297" d="M780.78,491.8s.125,7.6-10.655,12.87" transform="translate(-43.593 -27.839)" fill="none" stroke="#0a0c29" stroke-linecap="round" stroke-linejoin="round" stroke-width="1.387"/>
        <path id="Caminho_17298" data-name="Caminho 17298" d="M655.336,458.174s17.028,12.308,20.423,20.423a70.375,70.375,0,0,1,9.67,4.984" transform="translate(-37.096 -25.935)" fill="none" stroke="#0a0c29" stroke-linecap="round" stroke-linejoin="round" stroke-width="1.387"/>
        <path id="Caminho_17299" data-name="Caminho 17299" d="M678.295,469.018a19.5,19.5,0,0,1,.6,11.006" transform="translate(-38.395 -26.549)" fill="none" stroke="#0a0c29" stroke-linecap="round" stroke-linejoin="round" stroke-width="1.387"/>
        <path id="Caminho_17300" data-name="Caminho 17300" d="M674.135,460.552a30.108,30.108,0,0,1,2.437,4.256" transform="translate(-38.16 -26.07)" fill="none" stroke="#0a0c29" stroke-linecap="round" stroke-linejoin="round" stroke-width="1.387"/>
        <path id="Caminho_17301" data-name="Caminho 17301" d="M699.822,459.363s5.694,7.609,7.111,13.791" transform="translate(-39.614 -26.003)" fill="none" stroke="#0a0c29" stroke-linecap="round" stroke-linejoin="round" stroke-width="1.387"/>
        <path id="Caminho_17302" data-name="Caminho 17302" d="M733.437,508.09a49.17,49.17,0,0,0,6.315-.778" transform="translate(-41.517 -28.717)" fill="none" stroke="#1a2e35" stroke-linecap="round" stroke-linejoin="round" stroke-width="1.387"/>
        <path id="Caminho_17303" data-name="Caminho 17303" d="M676.822,502.353a303.892,303.892,0,0,0,48.944,5.62" transform="translate(-38.312 -28.436)" fill="none" stroke="#1a2e35" stroke-linecap="round" stroke-linejoin="round" stroke-width="1.387"/>
        <path id="Caminho_17304" data-name="Caminho 17304" d="M793.454,379.406s-3.074,53.594-6.7,56.737-9.346,4.04-20.175,4.937-58.7,3.84-58.7,3.84l-5.12-15.383s25.456-2.584,36.754-6.741,26-6.882,26-6.882-2.139-13.5-2.139-19.3V369.28" transform="translate(-39.78 -20.903)" fill="#fff"/>
        <path id="Caminho_17305" data-name="Caminho 17305" d="M793.454,379.406s-3.074,53.594-6.7,56.737-9.346,4.04-20.175,4.937-58.7,3.84-58.7,3.84l-5.12-15.383s25.456-2.584,36.754-6.741,26-6.882,26-6.882-2.139-13.5-2.139-19.3V369.28" transform="translate(-39.78 -20.903)" fill="none" stroke="#0a0c29" stroke-linecap="round" stroke-linejoin="round" stroke-width="1.387"/>
        <path id="Caminho_17306" data-name="Caminho 17306" d="M787.348,317.879c11.673,7.182,15.114,23.789,11.074,59.248,0,0,3.446,4.19-1.645,6.284,0,0-19.062-7.129-27.934-2.218s-6.569-6.791-6.569-6.791-3.649-32.617,4.43-38.511" transform="translate(-43.102 -17.994)" fill="#0a0c29"/>
        <path id="Caminho_17307" data-name="Caminho 17307" d="M765.584,331.677s-11.222,11.67-1.346,41.144a48.13,48.13,0,0,0-1.359,7.331c.012,1.97,2.706,2.992,2.706,2.992" transform="translate(-43.03 -18.775)" fill="none" stroke="#fff" stroke-linecap="round" stroke-linejoin="round" stroke-width="1.387"/>
        <path id="Caminho_17308" data-name="Caminho 17308" d="M752,352.611s.818,14.363,9.737,20.647" transform="translate(-42.568 -19.96)" fill="none" stroke="#fff" stroke-linecap="round" stroke-linejoin="round" stroke-width="1.387"/>
        <path id="Caminho_17309" data-name="Caminho 17309" d="M752.853,316.452s-17.391,6.664-31.232-.714c-8.2-4.373-4.824-11.4-4.824-11.4" transform="translate(-40.536 -17.227)" fill="none" stroke="#fff" stroke-linecap="round" stroke-linejoin="round" stroke-width="1.387"/>
        <path id="Caminho_17310" data-name="Caminho 17310" d="M622.163,460.093H716.84a24.978,24.978,0,0,0,6.337-.817l18.674-4.9a1.209,1.209,0,0,0-.307-2.378H618.251a1.208,1.208,0,0,0-1.208,1.208v1.766a5.12,5.12,0,0,0,5.12,5.12" transform="translate(-34.928 -25.586)" fill="#757575"/>
        <path id="Caminho_17311" data-name="Caminho 17311" d="M622.163,460.093H716.84a24.978,24.978,0,0,0,6.337-.817l18.674-4.9a1.209,1.209,0,0,0-.307-2.378H618.251a1.208,1.208,0,0,0-1.208,1.208v1.766A5.12,5.12,0,0,0,622.163,460.093Z" transform="translate(-34.928 -25.586)" fill="none" stroke="#0a0c29" stroke-linecap="round" stroke-linejoin="round" stroke-width="1.387"/>
        <path id="Caminho_17312" data-name="Caminho 17312" d="M611.231,451.117h94.941a2.268,2.268,0,0,0,2.216-3.048L690.774,379.58a4.174,4.174,0,0,0-3.783-3.047H592.05a2.267,2.267,0,0,0-2.216,3.047l17.613,68.489a4.174,4.174,0,0,0,3.784,3.048" transform="translate(-33.382 -21.314)" fill="#999"/>
        <path id="Caminho_17313" data-name="Caminho 17313" d="M611.231,451.117h94.941a2.268,2.268,0,0,0,2.216-3.048L690.774,379.58a4.174,4.174,0,0,0-3.783-3.047H592.05a2.267,2.267,0,0,0-2.216,3.047l17.613,68.489A4.174,4.174,0,0,0,611.231,451.117Z" transform="translate(-33.382 -21.314)" fill="none" stroke="#0a0c29" stroke-linecap="round" stroke-linejoin="round" stroke-width="1.387"/>
        <line id="Linha_246" data-name="Linha 246" x1="1.795" transform="translate(560.22 357.654)" fill="none" stroke="#0a0c29" stroke-linecap="round" stroke-linejoin="round" stroke-width="1.387"/>
        <line id="Linha_247" data-name="Linha 247" x1="9.276" transform="translate(566.654 357.654)" fill="none" stroke="#0a0c29" stroke-linecap="round" stroke-linejoin="round" stroke-width="1.387"/>
        <path id="Caminho_17314" data-name="Caminho 17314" d="M705.19,442.6l-15.544-60.44a4.173,4.173,0,0,0-3.783-3.047H612.707" transform="translate(-34.683 -21.46)" fill="none" stroke="#0a0c29" stroke-linecap="round" stroke-linejoin="round" stroke-width="1.387"/>
        <line id="Linha_248" data-name="Linha 248" x1="0.388" y1="1.509" transform="translate(671.475 424.903)" fill="none" stroke="#0a0c29" stroke-linecap="round" stroke-linejoin="round" stroke-width="1.387"/>
        <path id="Caminho_17315" data-name="Caminho 17315" d="M642.81,417.413a9.413,9.413,0,0,0,.331,1.642c1.211,4.124,5.074,6.628,8.622,5.583s5.446-5.24,4.235-9.363-5.086-6.626-8.634-5.582a5.839,5.839,0,0,0-1.2.51,7.305,7.305,0,0,1-3.355,7.21" transform="translate(-36.387 -23.177)" fill="#fff"/>
        <path id="Caminho_17316" data-name="Caminho 17316" d="M642.81,417.413a9.413,9.413,0,0,0,.331,1.642c1.211,4.124,5.074,6.628,8.622,5.583s5.446-5.24,4.235-9.363-5.086-6.626-8.634-5.582a5.839,5.839,0,0,0-1.2.51A7.305,7.305,0,0,1,642.81,417.413Z" transform="translate(-36.387 -23.177)" fill="none" stroke="#0a0c29" stroke-linecap="round" stroke-linejoin="round" stroke-width="1.387"/>
        <path id="Caminho_17317" data-name="Caminho 17317" d="M685.2,280.829c-8.218-.9-12.707-8.7-17.643-9.925a55.132,55.132,0,0,1-8.1-2.6s-1.7-5.949-4.248-3.873-5.908,46.456-2.617,45.062,3.29,3.842,3.29,3.842l30.513,26.893,25.575-45.288s-18.557-13.21-26.774-14.108" transform="translate(-36.863 -14.943)" fill="#0a0c29"/>
        <path id="Caminho_17318" data-name="Caminho 17318" d="M692.443,294.559s-7.784,14.619-8.774,36.99" transform="translate(-38.7 -16.674)" fill="none" stroke="#fff" stroke-linecap="round" stroke-linejoin="round" stroke-width="1.387"/>
        <path id="Caminho_17319" data-name="Caminho 17319" d="M668.546,305.3s2.342,12.43,9.2,21.442" transform="translate(-37.843 -17.282)" fill="none" stroke="#fff" stroke-linecap="round" stroke-linejoin="round" stroke-width="1.387"/>
        <path id="Caminho_17320" data-name="Caminho 17320" d="M702.762,359.676s11.758,38.686,37.374,50.082" transform="translate(-39.78 -20.36)" fill="none" stroke="#fff" stroke-linecap="round" stroke-linejoin="round" stroke-width="1.387"/>
        <path id="Caminho_17321" data-name="Caminho 17321" d="M734.809,285.441s-1.112,8.441-9.227,9.031a35.881,35.881,0,0,0-3.6-6.034,113.378,113.378,0,0,1,12.826-3" transform="translate(-40.868 -16.158)" fill="#0a0c29"/>
        <path id="Caminho_17322" data-name="Caminho 17322" d="M751.24,282.673s13.572,1.658,19.254-16.559,1.216-31.949-21.25-38.56c-12.456-3.665-24.911-.716-29.4,8.71-3.849,8.081-2.03,14.8-2.918,17.507-.992,3.03-10.174,5.609-10.174,7.691,0,1.724,5.088,4.653,5.088,4.653l-1.5,4.525,1.408.748s-2.607,10.2-1.408,13.79c.875,2.625,23.863,3.715,25.658-2.793" transform="translate(-40.006 -12.794)" fill="#fff"/>
        <path id="Caminho_17323" data-name="Caminho 17323" d="M751.24,282.673s13.572,1.658,19.254-16.559,1.216-31.949-21.25-38.56c-12.456-3.665-24.911-.716-29.4,8.71-3.849,8.081-2.03,14.8-2.918,17.507-.992,3.03-10.174,5.609-10.174,7.691,0,1.724,5.088,4.653,5.088,4.653l-1.5,4.525,1.408.748s-2.607,10.2-1.408,13.79c.875,2.625,23.863,3.715,25.658-2.793" transform="translate(-40.006 -12.794)" fill="none" stroke="#0a0c29" stroke-linecap="round" stroke-linejoin="round" stroke-width="1.387"/>
        <path id="Caminho_17324" data-name="Caminho 17324" d="M720.749,243.9s4.489,1.123,5.723,3.478" transform="translate(-40.798 -13.806)" fill="none" stroke="#0a0c29" stroke-linecap="round" stroke-linejoin="round" stroke-width="1.387"/>
        <path id="Caminho_17325" data-name="Caminho 17325" d="M721.589,254.722c-.193,1.318.11,2.455.677,2.538s1.183-.918,1.376-2.237-.109-2.455-.677-2.538-1.183.919-1.376,2.237" transform="translate(-40.843 -14.292)" fill="#0a0c29"/>
        <path id="Caminho_17326" data-name="Caminho 17326" d="M712.054,274.107s7.306,2.806,10.026,1.109" transform="translate(-40.306 -15.516)" fill="none" stroke="#0a0c29" stroke-linecap="round" stroke-linejoin="round" stroke-width="1.387"/>
        <path id="Caminho_17327" data-name="Caminho 17327" d="M714.765,253.464c-.544,2.925.11,5.5,1.462,5.75s2.885-1.917,3.429-4.842-.112-5.5-1.463-5.75S715.308,250.54,714.765,253.464Z" transform="translate(-40.449 -14.072)" fill="none" stroke="#0a0c29" stroke-linecap="round" stroke-linejoin="round" stroke-width="1.387"/>
        <path id="Caminho_17328" data-name="Caminho 17328" d="M771.631,236.731a21.6,21.6,0,0,0-8.528-13.166,39.915,39.915,0,0,0-16.458-6.733s4.339,1.893,5.985,4.388c0,0-11.222-8.427-24.538-2.892s-11.67,19.924-11.67,19.924l1.945-3.765s-.225,4.489,2.132,6.134a29.479,29.479,0,0,1,2.861-6.283s3.534,10.623,13.259,14.213a7.7,7.7,0,0,1-.15-5.237s5.383,11.671,3.814,17.356l1.723,2.992s6.189-6.273,11.221-1.047c2.891,3-5.536,14.363-6.733,14.363l5.087,7.48s12.718,1.812,20.049-11.96,5.536-19.664,5.536-19.664,2.393,3.347,2.693,5.292c0,0,2.094-14.812-8.229-21.4" transform="translate(-40.55 -12.252)" fill="#0a0c29"/>
        <path id="Caminho_17329" data-name="Caminho 17329" d="M743.23,267.35s3.9-13.2,12.275-8.545,2.387,11.687-.606,14.38-5.236,7.63-7.181,7.63-2.394-2.393-2.394-2.393" transform="translate(-42.071 -14.593)" fill="#fff"/>
        <path id="Caminho_17330" data-name="Caminho 17330" d="M743.23,267.35s3.9-13.2,12.275-8.545,2.387,11.687-.606,14.38-5.236,7.63-7.181,7.63-2.394-2.393-2.394-2.393" transform="translate(-42.071 -14.593)" fill="none" stroke="#0a0c29" stroke-linecap="round" stroke-linejoin="round" stroke-width="1.387"/>
        <line id="Linha_249" data-name="Linha 249" x2="23.299" y2="4.837" transform="translate(679.206 240.301)" fill="none" stroke="#0a0c29" stroke-linecap="round" stroke-linejoin="round" stroke-width="1.387"/>
        <path id="Caminho_17331" data-name="Caminho 17331" d="M532.887,194.682h12.9a.974.974,0,0,1,.974.974v12.9a.974.974,0,0,1-.974.975h-12.9a.974.974,0,0,1-.974-.975v-12.9a.973.973,0,0,1,.974-.974" transform="translate(-30.109 -11.02)" fill="#fff"/>
        <rect id="Retângulo_2669" data-name="Retângulo 2669" width="14.363" height="14.363" rx="0.774" transform="translate(502.047 183.905)" fill="none" stroke="#e53e3e" stroke-width="0.516"/>
      </g>
    </g>
  </g>
</svg>
