<svg xmlns="http://www.w3.org/2000/svg" width="242.994" height="65.826" viewBox="0 0 242.994 65.826">
  <g id="Grupo_21800" data-name="Grupo 21800" transform="translate(-56.83 -94.39)">
    <path id="Caminho_14124" data-name="Caminho 14124" d="M317.407,131.252a15.688,15.688,0,0,1-1.157,6.061,15.08,15.08,0,0,1-3.381,5.018,15.693,15.693,0,0,1-5.132,3.324,17.212,17.212,0,0,1-12.408,0,15.449,15.449,0,0,1-5.141-3.365,14.436,14.436,0,0,1-3.34-4.945,16.062,16.062,0,0,1-1.132-6.094,16.378,16.378,0,0,1,1.132-6.118,14.16,14.16,0,0,1,3.34-4.961,15.11,15.11,0,0,1,5.124-3.324,16.793,16.793,0,0,1,6.24-1.149,16.588,16.588,0,0,1,6.232,1.149,15.463,15.463,0,0,1,5.141,3.324,14.706,14.706,0,0,1,3.324,4.986,15.794,15.794,0,0,1,1.157,6.094m-15.854,5.6a4.646,4.646,0,0,0,3.617-1.523,5.873,5.873,0,0,0,1.369-4.065,6,6,0,0,0-1.369-4.106,5,5,0,0,0-7.251.016,5.917,5.917,0,0,0-1.377,4.09,5.839,5.839,0,0,0,1.377,4.065,4.669,4.669,0,0,0,3.633,1.523m-43.268,9.165V116.36h13.4q5.829,0,8.9,2.566t3.079,7.422a8.357,8.357,0,0,1-1.548,5.206,6,6,0,0,1-4.187,2.4l7.935,12.065H273.92l-5.181-9.784v9.784Zm10.452-22.021v5.8H270.4a3.357,3.357,0,0,0,2.338-.741,2.727,2.727,0,0,0,.815-2.126,2.845,2.845,0,0,0-.815-2.183,3.323,3.323,0,0,0-2.338-.758h-1.662Zm-27.895.619v4.937h1.662a3.734,3.734,0,0,0,2.338-.635,2.179,2.179,0,0,0,.807-1.809,2.22,2.22,0,0,0-.831-1.833,3.637,3.637,0,0,0-2.314-.66Zm-10.7,21.4V116.36h12.733q6.721,0,9.833,2.591t3.112,8.228q0,5.242-2.794,7.666t-8.872,2.42H240.8v8.75H230.139Zm-28.465,0V116.36h13.4q5.829,0,8.9,2.566t3.071,7.422a8.357,8.357,0,0,1-1.548,5.206,6,6,0,0,1-4.179,2.4l7.927,12.065H217.3l-5.181-9.784v9.784Zm10.452-22.021v5.8h1.662a3.357,3.357,0,0,0,2.338-.741,2.727,2.727,0,0,0,.815-2.126,2.846,2.846,0,0,0-.815-2.183,3.323,3.323,0,0,0-2.338-.758h-1.662Zm-33.605,22.021V116.36h19.837v8.049h-9.385v2.86h8.513v7.593h-8.513v3.112h9.621v8.041Zm-26.811-2.525,3.405-8.3a21.583,21.583,0,0,0,4.082,2.338,8.928,8.928,0,0,0,3.356.741,3.131,3.131,0,0,0,1.727-.415,1.292,1.292,0,0,0,.627-1.124c0-.823-1.043-1.442-3.137-1.882-.676-.147-1.206-.261-1.58-.35a9.311,9.311,0,0,1-5.084-2.876,7.666,7.666,0,0,1-1.768-5.141,9.86,9.86,0,0,1,3.422-7.78,13.111,13.111,0,0,1,8.978-3,19,19,0,0,1,5.018.668,22.841,22.841,0,0,1,4.986,2.029l-3.234,7.764a13.256,13.256,0,0,0-3.088-1.735,8.456,8.456,0,0,0-3-.595,3.224,3.224,0,0,0-1.719.375,1.156,1.156,0,0,0-.611,1.043c0,.839,1.483,1.564,4.432,2.208l1.092.244a8.49,8.49,0,0,1,4.823,2.819,7.8,7.8,0,0,1,1.768,5.141,10.2,10.2,0,0,1-3.552,8.041,13.5,13.5,0,0,1-9.255,3.12,21.2,21.2,0,0,1-5.833-.831,27.077,27.077,0,0,1-5.858-2.5" transform="translate(-17.583 -3.949)" fill="#00c"/>
    <path id="Caminho_14125" data-name="Caminho 14125" d="M122.656,127.3A32.913,32.913,0,1,1,89.743,94.39,32.915,32.915,0,0,1,122.656,127.3" transform="translate(0 0)" fill="#00c"/>
    <path id="Caminho_14126" data-name="Caminho 14126" d="M95.978,146.363a14.235,14.235,0,0,1-20.139,0A15.4,15.4,0,0,1,74.56,144.9a21.672,21.672,0,0,0,3.308,4.269,21.442,21.442,0,0,0,34.29-5.475L99.017,130.55a14.328,14.328,0,0,1-3.039,15.813" transform="translate(-3.286 -6.701)" fill="#fff"/>
    <path id="Caminho_14127" data-name="Caminho 14127" d="M89.938,117.554a14.225,14.225,0,0,1,20.131,0,13.589,13.589,0,0,1,1.279,1.475,21.96,21.96,0,0,0-3.308-4.277,21.442,21.442,0,0,0-34.29,5.475l13.141,13.141a14.326,14.326,0,0,1,3.047-15.813" transform="translate(-3.136 -2.609)" fill="#fff"/>
  </g>
</svg>
