<svg id="Grupo_8147" data-name="Grupo 8147" xmlns="http://www.w3.org/2000/svg" width="129.995" height="62.414" viewBox="0 0 129.995 62.414">
  <g id="Grupo_8127" data-name="Grupo 8127" transform="translate(0)">
    <path id="Caminho_8860" data-name="Caminho 8860" d="M5043.708-1174.963l2.023.2a14.328,14.328,0,0,1,8.8,3.607,15.412,15.412,0,0,1,4.633,8.388,24.134,24.134,0,0,1-.931,13.429,15.457,15.457,0,0,1-7.183,8.468,14.237,14.237,0,0,1-5.675,1.652c-1.847.153-3.707.2-5.561.215-4.108.03-8.217.01-12.326.009-.578,0-.58,0-.58-.566v-18.446h7.43v13.949c.185.014.312.032.436.032,2.062,0,4.125.025,6.186-.012a13.616,13.616,0,0,0,4.641-.818,8.54,8.54,0,0,0,4.762-5.033,18.818,18.818,0,0,0,1.394-8.153,15.752,15.752,0,0,0-1.315-6.026,10.063,10.063,0,0,0-3.493-4.354,9.158,9.158,0,0,0-3.819-1.343,61.386,61.386,0,0,0-8.6-.26.683.683,0,0,0-.163.049v2.877h-7.47v-7.865Z" transform="translate(-4985.157 1174.963)" fill="#0067b1"/>
    <path id="Caminho_8861" data-name="Caminho 8861" d="M5145.324-1108.867c-2.162.021-4.327-.019-6.485.084a21.617,21.617,0,0,0-3.947.547,7.762,7.762,0,0,0-5.107,4.269,20.475,20.475,0,0,0-1.734,5.531,18.675,18.675,0,0,1-3.674,8.2,14.32,14.32,0,0,1-8.88,5.2,30.218,30.218,0,0,1-5.279.428q-13.983,0-27.969,0c-4.616,0-9.232-.035-13.849-.038-.412,0-.558-.111-.55-.537.024-1.291.007-2.583.009-3.874,0-.574,0-.577.58-.577h22.087c6.375,0,12.749.024,19.123-.018a27.828,27.828,0,0,0,4.318-.4,7.849,7.849,0,0,0,5.826-4.379,19.277,19.277,0,0,0,1.773-5.557,17.426,17.426,0,0,1,5.158-9.835,14.6,14.6,0,0,1,8.035-3.727,32.863,32.863,0,0,1,5.119-.291c1.816.009,3.631.007,5.445.01Z" transform="translate(-5015.33 1129.936)" fill="#0067b1"/>
    <path id="Caminho_8862" data-name="Caminho 8862" d="M4886.31-1114.593c.209.012.347.027.486.027,4.18,0,8.362-.005,12.544.01.422,0,.539-.117.536-.535-.022-3.8-.022-7.6-.031-11.4a1.932,1.932,0,0,1,2.111-2.1h5.507v29.177h-7.57c-.009-.186-.024-.368-.024-.551q0-4.614,0-9.228c0-.622,0-.623-.62-.623h-29.229c-.67,0-.671,0-.671-.69,0-1.19.014-2.38-.006-3.569-.007-.375.1-.494.489-.492,3.528.016,7.057,0,10.584.017a.814.814,0,0,0,.723-.361q6.529-8.376,13.079-16.733a9.2,9.2,0,0,1,7.542-3.672q11.914-.008,23.828,0c.673,0,.673,0,.675.657q0,1.393,0,2.786c0,.577,0,.579-.577.579h-16.944c-2.149,0-4.3.024-6.447-.007a5.975,5.975,0,0,0-5.159,2.526c-3.483,4.6-7.014,9.172-10.524,13.754C4886.514-1114.908,4886.435-1114.777,4886.31-1114.593Z" transform="translate(-4869.093 1145.764)" fill="#0067b1"/>
    <path id="Caminho_8863" data-name="Caminho 8863" d="M5193.412-1109.12c0-1.134-.011-2.216.018-3.3,0-.116.222-.29.369-.328,1.4-.363,2.788-.8,4.209-1.025a13.76,13.76,0,0,1,5.317.141,6.506,6.506,0,0,1,3.428,1.854,4.415,4.415,0,0,1,1.134,3.071c.036,4.89.013,9.78.011,14.67a1.232,1.232,0,0,1-.028.165h-4.863v-2.44c-.233.188-.379.29-.508.411a7.216,7.216,0,0,1-5.414,2.064,5.391,5.391,0,0,1-5.272-6.316c.438-2.914,2.315-4.493,4.994-5.283a15.85,15.85,0,0,1,4.515-.549c.533,0,1.066-.037,1.6-.058q.037-.816.075-1.631c0-.072,0-.145,0-.218a2.543,2.543,0,0,0-2.533-2.836,10.939,10.939,0,0,0-5.829,1.031C5194.239-1109.525,5193.856-1109.33,5193.412-1109.12Zm9.574,5.956c-1.23.111-2.387.161-3.525.334a3.55,3.55,0,0,0-2.179,1.258,2.658,2.658,0,0,0-.339,2.891,2.634,2.634,0,0,0,2.617,1.353,5.8,5.8,0,0,0,3.252-1.611.458.458,0,0,0,.168-.286C5202.991-1100.481,5202.986-1101.74,5202.986-1103.163Z" transform="translate(-5106.601 1130.026)" fill="#0067b1"/>
    <path id="Caminho_8864" data-name="Caminho 8864" d="M5168.028-1093h-5.049c-.009-.153-.024-.305-.024-.457q0-9.113-.009-18.226c0-.382.08-.536.5-.528,1.377.024,2.756.017,4.135,0,.344,0,.483.08.482.458q-.016,9.179-.009,18.357C5168.052-1093.281,5168.04-1093.167,5168.028-1093Z" transform="translate(-5085.383 1128.737)" fill="#0067b1"/>
    <path id="Caminho_8865" data-name="Caminho 8865" d="M5032.028-1020.535a3.678,3.678,0,0,1-3.751-3.775,3.728,3.728,0,0,1,3.791-3.758,3.764,3.764,0,0,1,3.747,3.819A3.72,3.72,0,0,1,5032.028-1020.535Z" transform="translate(-4986.177 1066.751)" fill="#0067b1"/>
    <path id="Caminho_8866" data-name="Caminho 8866" d="M4879.821-1028.81c-.21.285-.375.517-.549.742q-2.656,3.442-5.322,6.876a.628.628,0,0,1-.423.224c-1.654.016-3.309.01-4.962.008a.921.921,0,0,1-.16-.038c.807-1.039,1.592-2.055,2.379-3.07,1.165-1.5,2.327-3,3.5-4.491a.752.752,0,0,1,.481-.286c1.6-.021,3.192-.012,4.788-.01A2.192,2.192,0,0,1,4879.821-1028.81Z" transform="translate(-4868.405 1067.333)" fill="#0067b1"/>
    <path id="Caminho_8867" data-name="Caminho 8867" d="M5165.3-1134.206a2.694,2.694,0,0,1-2.661-2.839,2.707,2.707,0,0,1,2.795-2.57,2.694,2.694,0,0,1,2.642,2.814A2.705,2.705,0,0,1,5165.3-1134.206Z" transform="translate(-5085.158 1148.924)" fill="#0067b1"/>
  </g>
  <g id="Grupo_8128" data-name="Grupo 8128" transform="translate(0.401 50.351)">
    <path id="Caminho_8868" data-name="Caminho 8868" d="M5062.836-979.1v-3.687c0-.929,0-.929.913-.929,1.1,0,1.1,0,1.1,1.089,0,3.423,0,6.847.014,10.27,0,.418-.135.536-.522.5-.362-.032-.82.109-1.056-.067-.2-.15-.146-.643-.208-.984a1.152,1.152,0,0,0-.065-.163c-.057.017-.114.016-.129.041a3.213,3.213,0,0,1-5.545-.517,5.113,5.113,0,0,1,.846-5.72,3.324,3.324,0,0,1,3.8-.5A7.345,7.345,0,0,1,5062.836-979.1Zm.035,3.153-.036,0c0-.275,0-.551,0-.827a1.91,1.91,0,0,0-1.294-1.781,1.95,1.95,0,0,0-2.16.717,3.686,3.686,0,0,0-.089,3.719,1.869,1.869,0,0,0,2.042.835,1.7,1.7,0,0,0,1.413-1.37A9.1,9.1,0,0,0,5062.871-975.949Z" transform="translate(-5007.611 983.729)" fill="#6eb224"/>
    <path id="Caminho_8869" data-name="Caminho 8869" d="M5287.184-973.176a9.375,9.375,0,0,1-.642.705,3.21,3.21,0,0,1-4.473-.289c-1.481-1.563-1.457-5.145.383-6.64a3.232,3.232,0,0,1,4.344.129,1.024,1.024,0,0,0,.18.113,4.265,4.265,0,0,0,.062-.508c0-1.2.013-2.408,0-3.612-.006-.35.092-.508.465-.477a5.888,5.888,0,0,0,1,0c.387-.034.493.112.491.492q-.02,4.4,0,8.792c0,.767.048,1.534.052,2.3a.356.356,0,0,1-.222.263,8.24,8.24,0,0,1-1.218,0,.428.428,0,0,1-.283-.276A8.937,8.937,0,0,1,5287.184-973.176Zm-.115-2.834c-.031-.343-.05-.69-.1-1.033a1.856,1.856,0,0,0-1.534-1.617,1.89,1.89,0,0,0-1.936.889,3.485,3.485,0,0,0-.15,3.408,1.89,1.89,0,0,0,2.176,1.051,1.881,1.881,0,0,0,1.446-1.657C5287.022-975.311,5287.038-975.658,5287.068-976.01Z" transform="translate(-5172.759 983.759)" fill="#6eb224"/>
    <path id="Caminho_8870" data-name="Caminho 8870" d="M5321.113-965.908a3.918,3.918,0,0,1,3.046-4.143,4.035,4.035,0,0,1,4.436,1.515c1.409,2.044,1,6.273-2.8,6.78A3.9,3.9,0,0,1,5321.113-965.908Zm1.97-.024a10.231,10.231,0,0,0,.276,1.35,1.9,1.9,0,0,0,1.573,1.443,1.771,1.771,0,0,0,1.966-1.111,3.742,3.742,0,0,0-.162-3.694,1.789,1.789,0,0,0-2.847-.249A3.447,3.447,0,0,0,5323.083-965.932Z" transform="translate(-5202.299 973.766)" fill="#6eb224"/>
    <path id="Caminho_8871" data-name="Caminho 8871" d="M5175.285-966.065a3.807,3.807,0,0,1-2.167,3.879c-2.38,1.144-5.678.086-5.958-3.233a4.229,4.229,0,0,1,1.271-3.755,4.2,4.2,0,0,1,4.274-.822,3.681,3.681,0,0,1,2.573,3.062A4.474,4.474,0,0,1,5175.285-966.065Zm-2,.022a3.087,3.087,0,0,0-.468-1.871,1.818,1.818,0,0,0-3.165.03,3.688,3.688,0,0,0,.042,3.881,1.805,1.805,0,0,0,3.062.022A3.349,3.349,0,0,0,5173.282-966.043Z" transform="translate(-5088.869 973.801)" fill="#6eb224"/>
    <path id="Caminho_8872" data-name="Caminho 8872" d="M4986.595-965.948a3.877,3.877,0,0,1-3.415,4.2,3.909,3.909,0,0,1-4.79-3.9,4.355,4.355,0,0,1,.916-3.051,4.079,4.079,0,0,1,3.824-1.412A3.85,3.85,0,0,1,4986.595-965.948Zm-2-.263a10.253,10.253,0,0,0-.382-1.369,1.737,1.737,0,0,0-1.6-1.159,1.777,1.777,0,0,0-1.772,1.033,3.771,3.771,0,0,0,.047,3.666,1.8,1.8,0,0,0,3.106.151A4,4,0,0,0,4984.592-966.211Z" transform="translate(-4949.826 973.734)" fill="#6eb224"/>
    <path id="Caminho_8873" data-name="Caminho 8873" d="M5208-969.981c.479,0,.941-.017,1.4.014.1.007.233.176.264.293a8.618,8.618,0,0,1,.134.952c.147-.159.241-.256.33-.356a2.912,2.912,0,0,1,2.886-1.014,2.657,2.657,0,0,1,2.229,2.35,7,7,0,0,1,.089,1.079c.01,1.45-.005,2.9.012,4.35,0,.345-.1.47-.448.446a8.335,8.335,0,0,0-1.088,0c-.331.021-.426-.116-.423-.431.013-1.349.015-2.7,0-4.046a4.8,4.8,0,0,0-.139-1.071,1.413,1.413,0,0,0-1.179-1.136,1.645,1.645,0,0,0-1.569.552,1.731,1.731,0,0,0-.482,1.22c.014,1.479,0,2.958.012,4.438,0,.356-.1.5-.466.474a7.578,7.578,0,0,0-1.088,0c-.358.025-.477-.1-.475-.465.014-2.291,0-4.583,0-6.874Z" transform="translate(-5118.967 973.738)" fill="#6eb224"/>
    <path id="Caminho_8874" data-name="Caminho 8874" d="M5021-968.753a3.084,3.084,0,0,1,2.511-1.4,2.723,2.723,0,0,1,2.889,2.635c.083,1.764.066,3.532.1,5.3,0,.269-.109.358-.365.351-.419-.012-.842-.018-1.261,0-.314.015-.4-.118-.394-.411.01-1.45.007-2.9,0-4.35a2.874,2.874,0,0,0-.072-.643,1.482,1.482,0,0,0-1.542-1.306,1.811,1.811,0,0,0-1.677,1.395,4.209,4.209,0,0,0-.074.775c-.007,1.363-.012,2.726,0,4.089,0,.333-.089.48-.443.453a6.958,6.958,0,0,0-1.045,0c-.361.027-.475-.1-.471-.467q.025-2.349,0-4.7c-.007-.824-.038-1.649-.082-2.473-.018-.344.064-.537.449-.479a1.485,1.485,0,0,0,.174,0c.333.009.739-.092.973.065.176.119.128.567.19.867A1.65,1.65,0,0,0,5021-968.753Z" transform="translate(-4979.803 973.733)" fill="#6eb224"/>
    <path id="Caminho_8875" data-name="Caminho 8875" d="M5250.357-962.782l-.357.3a3.049,3.049,0,0,1-3.016.6,2.156,2.156,0,0,1-1.576-1.989,2.514,2.514,0,0,1,1.338-2.58,6.1,6.1,0,0,1,2.885-.7c.675-.024.762-.133.534-.772a1.389,1.389,0,0,0-1.241-.875,4.578,4.578,0,0,0-2.553.524c-.116-.38-.238-.727-.316-1.083-.017-.077.105-.235.2-.276a5.667,5.667,0,0,1,4.019-.361,2.764,2.764,0,0,1,1.931,2.755c.015,1.334.007,2.668.02,4,0,.332.04.663.071.995.021.25-.095.344-.333.327-.1-.007-.2,0-.3,0-.319,0-.7.09-.939-.048C5250.519-962.074,5250.483-962.467,5250.357-962.782Zm-.083-2.261a3.914,3.914,0,0,0-.01-.606c-.015-.1-.126-.253-.2-.255a3.345,3.345,0,0,0-2.262.558,1.344,1.344,0,0,0-.338,1.616,1.215,1.215,0,0,0,1.321.6C5249.836-963.292,5250.276-963.856,5250.274-965.043Z" transform="translate(-5146.52 973.78)" fill="#6eb224"/>
    <path id="Caminho_8876" data-name="Caminho 8876" d="M4876.739-961.928c-.39,0-.824-.011-1.257,0-.3.01-.421-.113-.432-.4a1.416,1.416,0,0,0-.082-.34,9.03,9.03,0,0,1-1.883.851,2.416,2.416,0,0,1-3.156-2.433,2.57,2.57,0,0,1,1.721-2.4,6.813,6.813,0,0,1,2.666-.521c.472-.006.56-.124.447-.581a1.379,1.379,0,0,0-1.32-1.061,4.462,4.462,0,0,0-2.53.531,9.312,9.312,0,0,1-.3-1.015.423.423,0,0,1,.2-.35,5.448,5.448,0,0,1,4.177-.3,2.671,2.671,0,0,1,1.731,2.491c.034.359.018.724.018,1.086C4876.74-964.9,4876.739-963.445,4876.739-961.928Zm-1.868-3.238a2.348,2.348,0,0,0-.011-.518c-.022-.1-.147-.233-.232-.236a3.613,3.613,0,0,0-2.2.492,1.357,1.357,0,0,0-.441,1.628,1.2,1.2,0,0,0,1.372.65C4874.414-963.332,4874.876-963.944,4874.871-965.167Z" transform="translate(-4869.928 973.795)" fill="#6eb224"/>
    <path id="Caminho_8877" data-name="Caminho 8877" d="M4953.5-963.513c.076.415.162.781.2,1.152a.411.411,0,0,1-.19.339,5.308,5.308,0,0,1-4.369-.3,3.884,3.884,0,0,1-1.814-3.836,4.038,4.038,0,0,1,3.323-3.885,5.45,5.45,0,0,1,2.786.114c.253.074.369.164.271.456-.115.339-.173.7-.263,1.087-1.467-.431-2.861-.527-3.736.978a2.776,2.776,0,0,0,.118,3.125C4950.754-962.968,4952.087-963.116,4953.5-963.513Z" transform="translate(-4926.936 973.754)" fill="#6eb224"/>
    <path id="Caminho_8878" data-name="Caminho 8878" d="M5116.3-965.778c-.111-2.939,2.382-4.706,5.145-4.312a8.794,8.794,0,0,1,.976.2c.1.025.253.142.245.194a11.509,11.509,0,0,1-.28,1.217c-.011.034-.225.016-.343.009a9.873,9.873,0,0,0-1.756-.085,2.327,2.327,0,0,0-1.959,2.138,3.038,3.038,0,0,0,.444,2.152,2.489,2.489,0,0,0,2.431,1.031,6.086,6.086,0,0,0,.974-.2c.225-.058.324,0,.342.238a2.651,2.651,0,0,0,.09.512c.189.717,0,.659-.5.787a6.048,6.048,0,0,1-2.795.084A3.763,3.763,0,0,1,5116.3-965.778Z" transform="translate(-5051.418 973.729)" fill="#6eb224"/>
    <path id="Caminho_8879" data-name="Caminho 8879" d="M4911.805-968.345a6.508,6.508,0,0,0-.958.06,2.06,2.06,0,0,0-1.564,2.219c-.012,1.232-.017,2.465,0,3.7.007.379-.1.529-.489.493a4.892,4.892,0,0,0-.958,0c-.422.045-.5-.14-.5-.524.012-2.132,0-4.263-.008-6.394,0-.288-.042-.576-.066-.864-.022-.241.082-.346.329-.337a3.938,3.938,0,0,0,.781-.005c.477-.077.62.172.633.574.009.3,0,.6,0,.9l.123.042c.084-.131.172-.259.248-.394a2.359,2.359,0,0,1,2.068-1.3c.262-.009.369.1.364.362C4911.8-969.329,4911.805-968.852,4911.805-968.345Z" transform="translate(-4897.429 973.748)" fill="#6eb224"/>
    <path id="Caminho_8880" data-name="Caminho 8880" d="M5100.834-965.465c0,1.2-.011,2.408.006,3.612.005.339-.092.476-.444.451a8.493,8.493,0,0,0-1.131,0c-.342.022-.455-.1-.451-.445.017-1.581.007-3.163.007-4.744,0-.841.009-1.683,0-2.524,0-.3.09-.422.4-.407a10.529,10.529,0,0,0,1.175,0c.343-.021.456.1.45.445C5100.823-967.873,5100.834-966.669,5100.834-965.465Z" transform="translate(-5038.54 973.273)" fill="#6eb224"/>
    <path id="Caminho_8881" data-name="Caminho 8881" d="M5149.771-965.483c0-1.2.008-2.408-.007-3.612,0-.324.1-.441.426-.424.42.022.842.012,1.263,0,.247-.006.334.1.334.338q-.009,3.721,0,7.442c0,.244-.1.339-.337.334-.422-.009-.844-.019-1.263,0-.329.017-.427-.108-.422-.428C5149.778-963.046,5149.771-964.264,5149.771-965.483Z" transform="translate(-5076.074 973.27)" fill="#6eb224"/>
    <path id="Caminho_8882" data-name="Caminho 8882" d="M5150.506-980.291a.964.964,0,0,1-1.062-1.042,1.026,1.026,0,0,1,1.112-1.062,1.055,1.055,0,0,1,1.082,1.065A1.015,1.015,0,0,1,5150.506-980.291Z" transform="translate(-5075.838 982.754)" fill="#6eb224"/>
    <path id="Caminho_8883" data-name="Caminho 8883" d="M5099.57-980.291a.993.993,0,0,1-1.075-1.041,1.061,1.061,0,0,1,1.129-1.063,1.018,1.018,0,0,1,1.065,1.108A1,1,0,0,1,5099.57-980.291Z" transform="translate(-5038.306 982.754)" fill="#6eb224"/>
  </g>
</svg>
