<svg xmlns="http://www.w3.org/2000/svg" width="130.047" height="38.618" viewBox="0 0 130.047 38.618">
  <g id="Grupo_1296" data-name="Grupo 1296" transform="translate(0 0)">
    <g id="Grupo_570" data-name="Grupo 570">
      <path id="Caminho_1" data-name="Caminho 1" d="M872.956,232.926q.8,0,1.609-.052A13.34,13.34,0,0,0,883.3,210.4a11.92,11.92,0,0,0-11.17-16.087H871.8a11.936,11.936,0,0,0-11.923,11.923V228.84l.937.586a22.561,22.561,0,0,0,12.139,3.5Zm1.9-22.644a9.29,9.29,0,0,1,3.319,1.107,7.872,7.872,0,0,1-3.318,2.312ZM871.8,198.3h.334a7.942,7.942,0,0,1,7.779,9.5,13.263,13.263,0,0,0-6.3-1.586h-.382a13.3,13.3,0,0,0-9.359,3.842v-3.818A7.942,7.942,0,0,1,871.8,198.3Zm-7.933,21.258a9.375,9.375,0,0,1,6.992-9.055v7.764l2.125-.139a11.786,11.786,0,0,0,8.169-4.1,9.352,9.352,0,0,1-6.852,14.861,18.712,18.712,0,0,1-10.437-2.3v-7.038Z" transform="translate(-850.662 -194.309)" fill="#1a4541"/>
      <circle id="Elipse_1" data-name="Elipse 1" cx="1.966" cy="1.966" r="1.966" transform="translate(19.756 6.024)" fill="#1a4541"/>
      <path id="Caminho_2" data-name="Caminho 2" d="M809.618,207.962s-1.548-7.273-9.362-3.587C800.256,204.375,802.32,212.73,809.618,207.962Z" transform="translate(-800.256 -201.938)" fill="#1a4541"/>
    </g>
    <g id="Grupo_569" data-name="Grupo 569" transform="translate(121.629 11.591)">
      <rect id="Retângulo_1" data-name="Retângulo 1" width="2.864" height="10.7" transform="translate(0 4.993)" fill="#1a4541"/>
      <rect id="Retângulo_2" data-name="Retângulo 2" width="2.853" height="15.693" transform="translate(5.564 0)" fill="#1a4541"/>
    </g>
    <g id="Grupo_1326" data-name="Grupo 1326" transform="translate(47.181 11.5)">
      <path id="Caminho_4682" data-name="Caminho 4682" d="M1010.977,438.873a3.292,3.292,0,0,0,1.747-2.993c0-2.57-1.881-4.161-4.661-4.161h-6.519v15.109h7.188c3.249,0,4.929-1.869,4.929-4.228A3.718,3.718,0,0,0,1010.977,438.873Zm-7.6-5.519h4.6c1.791,0,2.87.993,2.87,2.537,0,1.5-1.168,2.459-2.837,2.459h-4.629Zm5.5,11.827h-5.5V439.9h5.5a2.608,2.608,0,0,1,2.9,2.717c0,1.667-1.224,2.568-2.9,2.568Z" transform="translate(-1001.543 -431.071)" fill="#1a4541"/>
      <path id="Caminho_4683" data-name="Caminho 4683" d="M1045.173,442.952a5.361,5.361,0,0,0-5.5,5.563c0,3.292,2.481,5.563,6.075,5.563a7.86,7.86,0,0,0,4.027-1.045l-.313-1.6a7.355,7.355,0,0,1-3.794.99,3.894,3.894,0,0,1-4.15-3.26h8.734A5.027,5.027,0,0,0,1045.173,442.952Zm-3.605,4.762a3.46,3.46,0,0,1,3.66-3.116,3.194,3.194,0,0,1,3.415,3.116Z" transform="translate(-1025.402 -438.099)" fill="#1a4541"/>
      <path id="Caminho_4684" data-name="Caminho 4684" d="M1085.16,439.038a3.54,3.54,0,0,0,1.814-3.193c0-2.448-1.958-4.128-4.673-4.128h-7.042v15.109h7.811c2.792,0,4.695-1.724,4.695-4.194A3.688,3.688,0,0,0,1085.16,439.038Zm-6.9-4.739h3.527a1.874,1.874,0,0,1,2.081,1.881,1.8,1.8,0,0,1-1.969,1.881h-3.638Zm4.317,9.958h-4.317V440.43h4.317a1.863,1.863,0,0,1,1.992,1.969,1.831,1.831,0,0,1-1.993,1.858Z" transform="translate(-1047.667 -431.071)" fill="#1a4541"/>
      <path id="Caminho_4685" data-name="Caminho 4685" d="M1117.311,444.632l-.056-1.458H1114.5v10.681h2.859v-5.473c0-2.2,1.324-2.881,2.581-2.881a3.994,3.994,0,0,1,1.324.245l.223-2.548a4.327,4.327,0,0,0-1.391-.245A2.967,2.967,0,0,0,1117.311,444.632Z" transform="translate(-1072.219 -438.099)" fill="#1a4541"/>
      <path id="Caminho_4686" data-name="Caminho 4686" d="M1143.878,444.459a4.232,4.232,0,0,0-3.483-1.515c-2.937,0-5.152,2.3-5.152,5.538s2.214,5.585,5.152,5.585a4.2,4.2,0,0,0,3.483-1.515l.055,1.29h2.793V443.169h-2.793Zm-2.926,7.076a2.867,2.867,0,0,1-2.87-3.049,2.826,2.826,0,0,1,2.87-2.993,2.868,2.868,0,0,1,2.915,2.993,2.909,2.909,0,0,1-2.915,3.048Z" transform="translate(-1085.199 -438.093)" fill="#1a4541"/>
      <path id="Caminho_4687" data-name="Caminho 4687" d="M1177.195,447.551l-1.135-.209c-1.28-.234-1.747-.5-1.747-1.024,0-.634.679-.968,2.08-.968a9.681,9.681,0,0,1,3.227.6l.245-2.326a9.366,9.366,0,0,0-3.616-.667c-2.837,0-4.684,1.368-4.684,3.36,0,1.769,1,2.815,3.06,3.171l1.279.245c1.246.223,1.7.5,1.7,1.068,0,.634-.589.923-1.981.923a10.226,10.226,0,0,1-3.594-.745l-.3,2.337a9.985,9.985,0,0,0,4.117.767c2.737,0,4.517-1.19,4.517-3.338C1180.366,448.9,1179.311,447.94,1177.195,447.551Z" transform="translate(-1107.925 -438.102)" fill="#1a4541"/>
      <path id="Caminho_4688" data-name="Caminho 4688" d="M1201.565,429.992a1.641,1.641,0,1,0,1.646,1.647,1.567,1.567,0,0,0-1.646-1.647Z" transform="translate(-1125.672 -429.99)" fill="#1a4541"/>
      <rect id="Retângulo_387" data-name="Retângulo 387" width="2.859" height="10.681" transform="translate(74.466 5.075)" fill="#1a4541"/>
      <rect id="Retângulo_388" data-name="Retângulo 388" width="2.848" height="15.665" transform="translate(80.018 0.091)" fill="#1a4541"/>
    </g>
  </g>
</svg>
