<svg id="Grupo_27675" data-name="Grupo 27675" xmlns="http://www.w3.org/2000/svg" xmlns:xlink="http://www.w3.org/1999/xlink" width="130.047" height="49.806" viewBox="0 0 130.047 49.806">
  <defs>
    <clipPath id="clip-path">
      <path id="svg_30" d="M3.151,31.6.669,30.156c-.017-5.6.042-7.778.025-12.966l2.482,1.444C3.193,23.823,3.135,26,3.151,31.6Z" transform="translate(-0.666 -17.19)"/>
    </clipPath>
    <clipPath id="clip-path-2">
      <path id="svg_40" d="M3.151,56.451.669,55.006C.653,49.4.711,47.228.694,42.04l2.482,1.444C3.193,48.673,3.135,50.847,3.151,56.451Z" transform="translate(-0.666 -42.04)"/>
    </clipPath>
  </defs>
  <g id="svg_1" transform="translate(34.485 11.92)">
    <g id="svg_2" transform="translate(51.748)">
      <path id="svg_3" d="M123.227,39.9H105.513a.964.964,0,0,1-.963-.963V14.36h5.786V34.116h12.891Z" transform="translate(-104.55 -14.36)" fill="#283092"/>
    </g>
    <g id="svg_4" transform="translate(71.812 0.008)">
      <path id="svg_5" d="M144.127,39.9H129.683a.964.964,0,0,1-.963-.963V15.333a.964.964,0,0,1,.963-.963h14.543a9.021,9.021,0,0,1,6.068,2.316,7.478,7.478,0,0,1,2.175,5.545v9.5a9.218,9.218,0,0,1-1,3.968A7.807,7.807,0,0,1,144.127,39.9Zm-9.621-5.778h9.911a2.043,2.043,0,0,0,2.266-2.258V22.331a2.01,2.01,0,0,0-2.15-2.075H134.5Z" transform="translate(-128.72 -14.369)" fill="#283092"/>
    </g>
    <path id="svg_6" d="M65.959,21.65a6.919,6.919,0,0,0-3.188-6.309,6.775,6.775,0,0,0-3.3-.971H43.173a.964.964,0,0,0-.963.963V38.958a.964.964,0,0,0,.963.963h16.3a6.754,6.754,0,0,0,3.3-.971,6.936,6.936,0,0,0,3.188-6.309v-1.3a6.214,6.214,0,0,0-1.6-4.192,6.214,6.214,0,0,0,1.6-4.192l-.008-1.3ZM60.605,33.437a1.389,1.389,0,0,1-1.386,1.386H47.265c0-2.44.033-3.379.033-5.645H59.227a1.389,1.389,0,0,1,1.386,1.386v2.872h-.008Zm0-9.729a1.389,1.389,0,0,1-1.386,1.386H47.265c0-2.44.033-3.379.033-5.645H59.227a1.389,1.389,0,0,1,1.386,1.386v2.872h-.008Z" transform="translate(-42.21 -14.362)" fill="#283092"/>
    <g id="svg_7" transform="translate(24.861 0)">
      <path id="svg_8" d="M85.583,39.861H84.238A12.1,12.1,0,0,1,72.16,27.783V26.438A12.1,12.1,0,0,1,84.238,14.36h1.345A12.1,12.1,0,0,1,97.661,26.438v1.345A12.089,12.089,0,0,1,85.583,39.861Zm-1.336-19.74a6.32,6.32,0,0,0-6.317,6.317v1.345A6.32,6.32,0,0,0,84.246,34.1h1.345a6.32,6.32,0,0,0,6.317-6.317V26.438a6.32,6.32,0,0,0-6.317-6.317H84.246Z" transform="translate(-72.16 -14.36)" fill="#283092"/>
    </g>
  </g>
  <g id="svg_9" transform="translate(39.507 40.152)">
    <path id="svg_10" d="M52.8,53.762a3.115,3.115,0,0,1-.158,1.029,2.355,2.355,0,0,1-.457.8,2.02,2.02,0,0,1-.714.515,2.279,2.279,0,0,1-.938.183,2.332,2.332,0,0,1-.955-.183,1.949,1.949,0,0,1-.714-.515,2.208,2.208,0,0,1-.448-.8,3.115,3.115,0,0,1-.158-1.029,3.165,3.165,0,0,1,.158-1.038,2.355,2.355,0,0,1,.457-.8,2.1,2.1,0,0,1,.714-.515,2.565,2.565,0,0,1,1.9,0,1.949,1.949,0,0,1,.714.515,2.338,2.338,0,0,1,.448.8A3.683,3.683,0,0,1,52.8,53.762Zm-.822,0a2.552,2.552,0,0,0-.108-.789,1.8,1.8,0,0,0-.307-.589,1.318,1.318,0,0,0-.465-.365,1.363,1.363,0,0,0-.589-.125,1.389,1.389,0,0,0-.589.125,1.318,1.318,0,0,0-.465.365,1.724,1.724,0,0,0-.307.589,2.935,2.935,0,0,0,0,1.577,1.682,1.682,0,0,0,.307.581,1.315,1.315,0,0,0,1.054.49,1.326,1.326,0,0,0,.581-.125,1.205,1.205,0,0,0,.457-.365,1.761,1.761,0,0,0,.307-.581A2.127,2.127,0,0,0,51.979,53.762Z" transform="translate(-48.26 -48.856)" fill="#283092"/>
    <path id="svg_11" d="M61.64,56.164h-.78V53.076a1.929,1.929,0,0,0-.066-.531.865.865,0,0,0-.2-.365.776.776,0,0,0-.307-.208,1.215,1.215,0,0,0-.4-.066,1.371,1.371,0,0,0-.764.224,2.2,2.2,0,0,0-.614.623v3.412h-.78v-4.8h.606l.149.664H58.5a3.348,3.348,0,0,1,.282-.307,1.436,1.436,0,0,1,.34-.249,1.4,1.4,0,0,1,.415-.166,1.865,1.865,0,0,1,.5-.058,1.444,1.444,0,0,1,.888.257,1.743,1.743,0,0,1,.548.706h.017a2.668,2.668,0,0,1,.73-.706,1.731,1.731,0,0,1,.955-.257,2.159,2.159,0,0,1,.54.075,1.4,1.4,0,0,1,.523.257,1.456,1.456,0,0,1,.4.523,1.981,1.981,0,0,1,.158.863v3.212h-.78V53.093a1.929,1.929,0,0,0-.066-.531.865.865,0,0,0-.2-.365.776.776,0,0,0-.307-.208,1.215,1.215,0,0,0-.4-.066,1.371,1.371,0,0,0-.764.224,2.22,2.22,0,0,0-.623.623v3.4Z" transform="translate(-49.869 -48.859)" fill="#283092"/>
    <path id="svg_12" d="M69.939,56.312a2.406,2.406,0,0,1-.672-.083,1.876,1.876,0,0,1-.523-.224,1.707,1.707,0,0,1-.382-.349,1.48,1.48,0,0,1-.249-.448,1.558,1.558,0,0,1-.1-.4,4.1,4.1,0,0,1-.033-.473V51.39h.78v2.939a1.711,1.711,0,0,0,.108.664,1.012,1.012,0,0,0,.39.481,1.248,1.248,0,0,0,.689.174,1.232,1.232,0,0,0,.714-.191,1.058,1.058,0,0,0,.39-.515,1.862,1.862,0,0,0,.083-.614V51.39h.78v2.955a3.987,3.987,0,0,1-.025.457,1.913,1.913,0,0,1-.091.39,1.63,1.63,0,0,1-.249.457,1.819,1.819,0,0,1-.39.365,1.768,1.768,0,0,1-.54.232,3.259,3.259,0,0,1-.681.066Z" transform="translate(-51.61 -48.883)" fill="#283092"/>
    <path id="svg_13" d="M75.255,52.03h.017a2.544,2.544,0,0,1,.291-.307,1.53,1.53,0,0,1,.357-.249,1.5,1.5,0,0,1,.432-.166,1.994,1.994,0,0,1,.515-.058,2.113,2.113,0,0,1,.614.091,1.253,1.253,0,0,1,.83.822,2.248,2.248,0,0,1,.125.805v3.212h-.78V53.093a1.363,1.363,0,0,0-.241-.9.871.871,0,0,0-.7-.274,1.509,1.509,0,0,0-.78.224,2.119,2.119,0,0,0-.656.623v3.412H74.5v-4.8h.606l.149.647Z" transform="translate(-52.718 -48.859)" fill="#283092"/>
    <path id="svg_14" d="M80.74,53.334a3.586,3.586,0,0,1,.1-.888,2.77,2.77,0,0,1,.257-.672,1.718,1.718,0,0,1,.382-.481,2.207,2.207,0,0,1,.448-.315A1.821,1.821,0,0,1,82.4,50.8a2.179,2.179,0,0,1,.448-.05,1.7,1.7,0,0,1,1.345.581h.017V48.37h.78v7.321H84.4l-.158-.54h-.017a1.838,1.838,0,0,1-.216.232,1.491,1.491,0,0,1-.664.374,1.784,1.784,0,0,1-.5.058,2.221,2.221,0,0,1-.772-.133,1.764,1.764,0,0,1-.672-.432,2.189,2.189,0,0,1-.481-.764,3.4,3.4,0,0,1-.183-1.154Zm.822-.008a2.97,2.97,0,0,0,.091.747,1.67,1.67,0,0,0,.274.573,1.3,1.3,0,0,0,.432.365,1.337,1.337,0,0,0,.589.125,1.5,1.5,0,0,0,.448-.066,1.632,1.632,0,0,0,.365-.166,1.5,1.5,0,0,0,.274-.216c.075-.075.133-.149.183-.208V51.964a1.829,1.829,0,0,0-.564-.4,1.607,1.607,0,0,0-.689-.149,1.343,1.343,0,0,0-.465.083,1.209,1.209,0,0,0-.457.3,1.64,1.64,0,0,0-.349.581A2.792,2.792,0,0,0,81.562,53.326Z" transform="translate(-53.778 -48.37)" fill="#283092"/>
    <path id="svg_15" d="M91.981,53.762a3.115,3.115,0,0,1-.158,1.029,2.355,2.355,0,0,1-.457.8,2.02,2.02,0,0,1-.714.515,2.279,2.279,0,0,1-.938.183,2.332,2.332,0,0,1-.955-.183,1.949,1.949,0,0,1-.714-.515,2.208,2.208,0,0,1-.448-.8,3.115,3.115,0,0,1-.158-1.029,3.165,3.165,0,0,1,.158-1.038,2.355,2.355,0,0,1,.457-.8,2.1,2.1,0,0,1,.714-.515,2.565,2.565,0,0,1,1.9,0,1.949,1.949,0,0,1,.714.515,2.208,2.208,0,0,1,.448.8A3.406,3.406,0,0,1,91.981,53.762Zm-.814,0a2.552,2.552,0,0,0-.108-.789,1.8,1.8,0,0,0-.307-.589,1.318,1.318,0,0,0-.465-.365,1.363,1.363,0,0,0-.589-.125,1.389,1.389,0,0,0-.589.125,1.318,1.318,0,0,0-.465.365,1.724,1.724,0,0,0-.307.589,2.935,2.935,0,0,0,0,1.577,1.682,1.682,0,0,0,.307.581,1.315,1.315,0,0,0,1.054.49,1.326,1.326,0,0,0,.581-.125,1.205,1.205,0,0,0,.457-.365,1.761,1.761,0,0,0,.307-.581,2.312,2.312,0,0,0,.125-.789Z" transform="translate(-54.917 -48.856)" fill="#283092"/>
    <path id="svg_16" d="M97.655,52.03h.017a2.544,2.544,0,0,1,.291-.307,1.53,1.53,0,0,1,.357-.249,1.5,1.5,0,0,1,.432-.166,1.994,1.994,0,0,1,.515-.058,2.113,2.113,0,0,1,.614.091,1.253,1.253,0,0,1,.83.822,2.248,2.248,0,0,1,.125.805v3.212h-.78V53.093a1.363,1.363,0,0,0-.241-.9.871.871,0,0,0-.7-.274,1.509,1.509,0,0,0-.78.224,2.119,2.119,0,0,0-.656.623v3.412H96.9v-4.8h.606l.149.647Z" transform="translate(-56.524 -48.859)" fill="#283092"/>
    <path id="svg_17" d="M107.7,53.762a3.115,3.115,0,0,1-.158,1.029,2.355,2.355,0,0,1-.457.8,2.02,2.02,0,0,1-.714.515,2.279,2.279,0,0,1-.938.183,2.332,2.332,0,0,1-.955-.183,1.949,1.949,0,0,1-.714-.515,2.208,2.208,0,0,1-.448-.8,3.115,3.115,0,0,1-.158-1.029,3.165,3.165,0,0,1,.158-1.038,2.355,2.355,0,0,1,.457-.8,2.1,2.1,0,0,1,.714-.515,2.565,2.565,0,0,1,1.9,0,1.949,1.949,0,0,1,.714.515,2.338,2.338,0,0,1,.448.8A3.406,3.406,0,0,1,107.7,53.762Zm-.814,0a2.552,2.552,0,0,0-.108-.789,1.8,1.8,0,0,0-.307-.589,1.318,1.318,0,0,0-.465-.365,1.363,1.363,0,0,0-.589-.125,1.389,1.389,0,0,0-.589.125,1.318,1.318,0,0,0-.465.365,1.724,1.724,0,0,0-.307.589,2.935,2.935,0,0,0,0,1.577,1.682,1.682,0,0,0,.307.581,1.315,1.315,0,0,0,1.054.49A1.326,1.326,0,0,0,106,55.5a1.205,1.205,0,0,0,.457-.365,1.761,1.761,0,0,0,.307-.581,2.312,2.312,0,0,0,.125-.789Z" transform="translate(-57.587 -48.856)" fill="#283092"/>
    <path id="svg_18" d="M110.627,52.633a.552.552,0,0,0,.083.324.769.769,0,0,0,.224.208,2.009,2.009,0,0,0,.324.133c.125.033.249.066.382.091.183.042.349.083.515.133a1.858,1.858,0,0,1,.448.216,1.124,1.124,0,0,1,.332.4,1.451,1.451,0,0,1,.125.647,1.484,1.484,0,0,1-.141.647,1.283,1.283,0,0,1-.4.473,1.914,1.914,0,0,1-.614.291,2.929,2.929,0,0,1-.789.1,4.333,4.333,0,0,1-.481-.025,2.394,2.394,0,0,1-.382-.075,1.882,1.882,0,0,1-.282-.091c-.075-.033-.141-.058-.191-.083v-.664a4.411,4.411,0,0,0,.589.191,2.617,2.617,0,0,0,.647.075,2.3,2.3,0,0,0,.5-.05,1.223,1.223,0,0,0,.382-.149.715.715,0,0,0,.249-.249.678.678,0,0,0,.083-.349.58.58,0,0,0-.083-.332.6.6,0,0,0-.216-.216,1.159,1.159,0,0,0-.307-.141c-.116-.033-.241-.075-.374-.1-.166-.033-.34-.083-.515-.133a1.758,1.758,0,0,1-.473-.216,1.079,1.079,0,0,1-.349-.374,1.192,1.192,0,0,1-.133-.606,1.469,1.469,0,0,1,.133-.656,1.328,1.328,0,0,1,.365-.457,1.508,1.508,0,0,1,.54-.274,2.407,2.407,0,0,1,.656-.091,3.426,3.426,0,0,1,.739.075,4.217,4.217,0,0,1,.623.191v.664a5.537,5.537,0,0,0-.6-.191,2.557,2.557,0,0,0-.623-.075,1.546,1.546,0,0,0-.465.058.866.866,0,0,0-.315.158.615.615,0,0,0-.183.232c-.008.091-.025.183-.025.291Z" transform="translate(-58.712 -48.856)" fill="#283092"/>
    <path id="svg_19" d="M117.7,49.862V48.99h.78v.872Zm.017,5.919v-4.8h.78v4.8Z" transform="translate(-60.058 -48.475)" fill="#283092"/>
    <path id="svg_20" d="M121.315,52.03h.017a2.544,2.544,0,0,1,.291-.307,1.53,1.53,0,0,1,.357-.249,1.5,1.5,0,0,1,.432-.166,1.994,1.994,0,0,1,.515-.058,2.113,2.113,0,0,1,.614.091,1.253,1.253,0,0,1,.83.822,2.248,2.248,0,0,1,.125.805v3.212h-.78V53.093a1.363,1.363,0,0,0-.241-.9.871.871,0,0,0-.7-.274,1.509,1.509,0,0,0-.78.224,2.119,2.119,0,0,0-.656.623v3.412h-.78v-4.8h.606l.149.647Z" transform="translate(-60.544 -48.859)" fill="#283092"/>
    <path id="svg_21" d="M127.637,52.633a.552.552,0,0,0,.083.324.769.769,0,0,0,.224.208,2.009,2.009,0,0,0,.324.133c.125.033.249.066.382.091.183.042.349.083.515.133a1.858,1.858,0,0,1,.448.216,1.124,1.124,0,0,1,.332.4,1.451,1.451,0,0,1,.125.647,1.484,1.484,0,0,1-.141.647,1.283,1.283,0,0,1-.4.473,1.914,1.914,0,0,1-.614.291,2.929,2.929,0,0,1-.789.1,4.333,4.333,0,0,1-.481-.025,2.394,2.394,0,0,1-.382-.075,1.882,1.882,0,0,1-.282-.091c-.075-.033-.141-.058-.191-.083v-.664a4.411,4.411,0,0,0,.589.191,2.617,2.617,0,0,0,.647.075,2.3,2.3,0,0,0,.5-.05,1.223,1.223,0,0,0,.382-.149.715.715,0,0,0,.249-.249.678.678,0,0,0,.083-.349.58.58,0,0,0-.083-.332.6.6,0,0,0-.216-.216,1.158,1.158,0,0,0-.307-.141c-.116-.033-.241-.075-.374-.1-.166-.033-.34-.083-.515-.133a1.759,1.759,0,0,1-.473-.216,1.079,1.079,0,0,1-.349-.374,1.192,1.192,0,0,1-.133-.606,1.469,1.469,0,0,1,.133-.656,1.328,1.328,0,0,1,.365-.457,1.508,1.508,0,0,1,.54-.274,2.407,2.407,0,0,1,.656-.091,3.426,3.426,0,0,1,.739.075,4.216,4.216,0,0,1,.623.191v.664a5.536,5.536,0,0,0-.6-.191,2.557,2.557,0,0,0-.623-.075,1.546,1.546,0,0,0-.465.058.866.866,0,0,0-.315.158.616.616,0,0,0-.183.232c-.008.091-.025.183-.025.291Z" transform="translate(-61.602 -48.856)" fill="#283092"/>
    <path id="svg_22" d="M136.43,53.7a3.586,3.586,0,0,1-.1.888,2.77,2.77,0,0,1-.257.672,1.718,1.718,0,0,1-.382.481,2.463,2.463,0,0,1-.448.315,2.183,2.183,0,0,1-.473.174,2.256,2.256,0,0,1-.457.05,1.959,1.959,0,0,1-.764-.141,1.8,1.8,0,0,1-.581-.423h-.017v2.789h-.772V51.353h.589l.166.548h.017a1.172,1.172,0,0,1,.166-.2,1.667,1.667,0,0,1,.274-.208,2.017,2.017,0,0,1,.423-.191,1.826,1.826,0,0,1,.531-.083,2.268,2.268,0,0,1,.78.133,1.735,1.735,0,0,1,.664.432,2.24,2.24,0,0,1,.465.764,3.443,3.443,0,0,1,.174,1.154Zm-.822.008a2.989,2.989,0,0,0-.091-.755,1.66,1.66,0,0,0-.266-.573,1.252,1.252,0,0,0-.44-.365,1.374,1.374,0,0,0-.6-.125,1.538,1.538,0,0,0-.813.232,1.939,1.939,0,0,0-.282.216c-.075.075-.141.149-.191.208v2.515a2.05,2.05,0,0,0,.564.4,1.6,1.6,0,0,0,.681.149,1.423,1.423,0,0,0,.473-.083,1.209,1.209,0,0,0,.457-.3,1.64,1.64,0,0,0,.349-.581,2.192,2.192,0,0,0,.158-.938Z" transform="translate(-62.518 -48.854)" fill="#283092"/>
    <path id="svg_23" d="M138.83,49.862V48.99h.78v.872Zm.017,5.919v-4.8h.78v4.8Z" transform="translate(-63.648 -48.475)" fill="#283092"/>
    <path id="svg_24" d="M144.321,52h-.058a3.057,3.057,0,0,0-.548.05,2,2,0,0,0-.506.158,1.8,1.8,0,0,0-.423.257,1.435,1.435,0,0,0-.315.357v3.345h-.78v-4.8h.606l.149.764h.017a1.857,1.857,0,0,1,.282-.349,2.164,2.164,0,0,1,.382-.282,2.1,2.1,0,0,1,.465-.191,2.217,2.217,0,0,1,.531-.066h.1c.033,0,.066.008.091.008V52h.008Z" transform="translate(-64.134 -48.858)" fill="#283092"/>
    <path id="svg_25" d="M148.62,55.631H148.6a1.706,1.706,0,0,1-.581.457,1.949,1.949,0,0,1-.423.149,2.249,2.249,0,0,1-.481.058,1.948,1.948,0,0,1-.639-.1,1.289,1.289,0,0,1-.5-.307,1.33,1.33,0,0,1-.324-.49,1.778,1.778,0,0,1-.116-.656,1.42,1.42,0,0,1,.133-.639,1.3,1.3,0,0,1,.365-.481,1.718,1.718,0,0,1,.556-.307,2.2,2.2,0,0,1,.722-.108,3.94,3.94,0,0,1,1.253.216h.017v-.332a2.145,2.145,0,0,0-.025-.349.832.832,0,0,0-.083-.266.988.988,0,0,0-.423-.4,1.586,1.586,0,0,0-.78-.158,3.661,3.661,0,0,0-.689.066,3.738,3.738,0,0,0-.639.191v-.656c.083-.042.174-.075.282-.116a3.538,3.538,0,0,1,.73-.149,3.265,3.265,0,0,1,.407-.017,2.4,2.4,0,0,1,1.187.257,1.542,1.542,0,0,1,.664.681,1.5,1.5,0,0,1,.108.357,2.3,2.3,0,0,1,.033.423v3.2H148.7l-.083-.531Zm-.042-1.577a4.418,4.418,0,0,0-1.17-.174,1.281,1.281,0,0,0-.78.216.756.756,0,0,0-.282.656,1.129,1.129,0,0,0,.066.39.812.812,0,0,0,.191.274.762.762,0,0,0,.291.158,1.4,1.4,0,0,0,.822-.025,2.2,2.2,0,0,0,.672-.374c.075-.066.133-.116.174-.158v-.963h.017Z" transform="translate(-64.788 -48.858)" fill="#283092"/>
  </g>
  <g id="svg_26">
    <g id="svg_27" transform="translate(0 14.269)">
      <g id="svg_28">
        <path id="SVGID_1_" d="M3.151,31.6.669,30.156c-.017-5.6.042-7.778.025-12.966l2.482,1.444C3.193,23.823,3.135,26,3.151,31.6Z" transform="translate(-0.666 -17.19)" fill="#f2b123"/>
      </g>
      <g id="svg_29">
        <g id="svg_31" clip-path="url(#clip-path)">
          <path id="svg_32" d="M3.151,31.6.669,30.156c-.017-5.6.042-7.778.025-12.966l2.482,1.444C3.193,23.823,3.135,26,3.151,31.6" transform="translate(-0.666 -17.19)" fill="#f2b123"/>
        </g>
      </g>
    </g>
    <path id="svg_33" d="M27.562,1.66c.083-.033.158-.066.241-.091.008,0,.017,0,.017-.008a1.8,1.8,0,0,1,.2-.058l.116-.025.149-.025c.025,0,.058-.008.083-.008a.672.672,0,0,1,.183,0h.033a1.768,1.768,0,0,1,.208.025c.017,0,.033.008.05.008a1,1,0,0,1,.149.042c.017.008.033.008.05.017a1.222,1.222,0,0,1,.183.083L26.74.174c-.008,0-.008-.008-.017-.008A.736.736,0,0,0,26.583.1c-.008,0-.017-.008-.025-.008s-.033-.008-.05-.017L26.433.05c-.025-.008-.05-.008-.075-.017s-.033-.008-.05-.008-.017-.008-.025-.008A1.243,1.243,0,0,1,26.1,0h-.183a.075.075,0,0,0-.042.008c-.025,0-.058.008-.083.008a.311.311,0,0,0-.083.008.2.2,0,0,0-.066.017l-.116.025c-.025.008-.042.008-.066.017a.816.816,0,0,0-.133.042c-.008,0-.008,0-.017.008a1.5,1.5,0,0,0-.241.1.249.249,0,0,0-.066.033c-.083.042-.166.083-.249.133L.7,14.269l2.482,1.444,24.065-13.9c.083-.05.166-.091.249-.133C27.521,1.677,27.537,1.669,27.562,1.66Z" transform="translate(-0.672)" fill="#f4cb1b"/>
    <g id="svg_34" transform="translate(2.482 1.441)">
      <path id="svg_35" d="M27.749,2.113c1.519-.88,2.773-.166,2.781,1.585l.017,6.566a6.1,6.1,0,0,1-2.756,4.781L3.659,28.975c-.017-5.6.042-7.778.025-12.966Z" transform="translate(-3.656 -1.736)" fill="#f3c21f"/>
    </g>
  </g>
  <g id="svg_36" transform="translate(0 20.628)">
    <g id="svg_37" transform="translate(0 14.269)">
      <g id="svg_38">
        <path id="SVGID_3_" d="M3.151,56.451.669,55.006C.653,49.4.711,47.228.694,42.04l2.482,1.444C3.193,48.673,3.135,50.847,3.151,56.451Z" transform="translate(-0.666 -42.04)" fill="#087d3f"/>
      </g>
      <g id="svg_39">
        <g id="svg_41" clip-path="url(#clip-path-2)">
          <path id="svg_42" d="M3.151,56.451.669,55.006C.653,49.4.711,47.228.694,42.04l2.482,1.444c.017,5.188-.042,7.363-.025,12.966" transform="translate(-0.666 -42.04)" fill="#00793c"/>
        </g>
      </g>
    </g>
    <path id="svg_43" d="M27.562,26.51c.083-.033.158-.066.241-.091.008,0,.017,0,.017-.008a1.8,1.8,0,0,1,.2-.058l.116-.025.149-.025c.025,0,.058-.008.083-.008a.672.672,0,0,1,.183,0h.033a1.768,1.768,0,0,1,.208.025c.017,0,.033.008.05.008a1,1,0,0,1,.149.042c.017.008.033.008.05.017a1.222,1.222,0,0,1,.183.083L26.74,25.024c-.008,0-.008-.008-.017-.008a.736.736,0,0,0-.141-.066c-.008,0-.017-.008-.025-.008s-.033-.008-.05-.017l-.075-.025c-.025-.008-.05-.008-.075-.017s-.033-.008-.05-.008-.017-.008-.025-.008a1.125,1.125,0,0,0-.166-.017h-.183a.075.075,0,0,0-.042.008c-.025,0-.058.008-.083.008a.311.311,0,0,0-.083.008.2.2,0,0,0-.066.017c-.033.008-.075.017-.116.025-.025.008-.042.008-.066.017a.816.816,0,0,0-.133.042c-.008,0-.017,0-.017.008a1.5,1.5,0,0,0-.241.1.249.249,0,0,0-.066.033c-.083.042-.166.083-.249.133L.7,39.119l2.482,1.444,24.065-13.9c.083-.05.166-.091.249-.133.025-.008.042-.017.066-.025Z" transform="translate(-0.672 -24.85)" fill="#28a64c"/>
    <g id="svg_44" transform="translate(2.482 1.441)">
      <path id="svg_45" d="M27.749,26.963c1.519-.88,2.773-.166,2.781,1.585l.017,6.566A6.1,6.1,0,0,1,27.79,39.9L3.659,53.825c-.017-5.6.042-7.778.025-12.966l24.065-13.9Z" transform="translate(-3.656 -26.586)" fill="#00984e"/>
    </g>
  </g>
</svg>
