<svg id="brands-hub" xmlns="http://www.w3.org/2000/svg" width="130.046" height="17.665" viewBox="0 0 130.046 17.665">
  <g id="Grupo_27673" data-name="Grupo 27673" transform="translate(0 1.013)">
    <path id="Caminho_19065" data-name="Caminho 19065" d="M10.47,15.658a4.672,4.672,0,0,1,1.891,2.214,8.509,8.509,0,0,1,.738,3.367,7.172,7.172,0,0,1-.738,3.367A5.477,5.477,0,0,1,10.47,26.82a5.182,5.182,0,0,1-2.721.784A4.151,4.151,0,0,1,5.3,26.958a3.886,3.886,0,0,1-1.476-1.753v2.214H0V11H3.782v6.273a4.07,4.07,0,0,1,1.476-1.707A4.151,4.151,0,0,1,7.7,14.92,4.9,4.9,0,0,1,10.47,15.658ZM4.52,19.025a3.6,3.6,0,0,0,0,4.428,2.582,2.582,0,0,0,1.937.83A2.54,2.54,0,0,0,8.394,23.5a3.737,3.737,0,0,0,0-4.428,2.387,2.387,0,0,0-1.937-.784,2.265,2.265,0,0,0-1.937.738Z" transform="translate(0 -11)" fill="#0f0f0f"/>
    <path id="Caminho_19066" data-name="Caminho 19066" d="M38.235,20.046a4.789,4.789,0,0,1,2.4-.646v4.059H39.526a3.652,3.652,0,0,0-2.306.646,2.518,2.518,0,0,0-.784,2.168V31.9H32.7V19.584h3.782v2.306A4.5,4.5,0,0,1,38.235,20.046Z" transform="translate(-17.618 -15.526)" fill="#0f0f0f"/>
    <path id="Caminho_19067" data-name="Caminho 19067" d="M59.689,19.938a3.886,3.886,0,0,1,1.476,1.753V19.477h3.782V31.791H61.165V29.577a3.932,3.932,0,0,1-1.476,1.753,4.151,4.151,0,0,1-2.444.646,5.182,5.182,0,0,1-2.721-.784,4.672,4.672,0,0,1-1.891-2.214,8.509,8.509,0,0,1-.738-3.367,7.172,7.172,0,0,1,.738-3.367,5.477,5.477,0,0,1,1.891-2.214,4.735,4.735,0,0,1,2.721-.83A4.905,4.905,0,0,1,59.689,19.938ZM56.552,23.4a3.737,3.737,0,0,0,0,4.428,2.387,2.387,0,0,0,1.937.784,2.582,2.582,0,0,0,1.937-.83,3.6,3.6,0,0,0,0-4.428,2.5,2.5,0,0,0-1.937-.738,2.387,2.387,0,0,0-1.937.784Z" transform="translate(-27.957 -15.418)" fill="#0f0f0f"/>
    <path id="Caminho_19068" data-name="Caminho 19068" d="M97.269,20.871a5.955,5.955,0,0,1,1.291,3.874V31.94H94.779V25.207a2.745,2.745,0,0,0-.646-1.937,2.414,2.414,0,0,0-1.707-.738,2.369,2.369,0,0,0-1.845.738,2.92,2.92,0,0,0-.646,2.122V31.94H86.2V19.626h3.782v2.26A4.234,4.234,0,0,1,91.6,20.133a3.923,3.923,0,0,1,2.4-.646A3.968,3.968,0,0,1,97.269,20.871Z" transform="translate(-46.443 -15.567)" fill="#0f0f0f"/>
    <path id="Caminho_19069" data-name="Caminho 19069" d="M124.689,15.52a3.886,3.886,0,0,1,1.476,1.753V11h3.782V27.373h-3.782V25.159a3.932,3.932,0,0,1-1.476,1.753,4.151,4.151,0,0,1-2.444.646,5.182,5.182,0,0,1-2.721-.784,4.671,4.671,0,0,1-1.891-2.214,8.509,8.509,0,0,1-.738-3.367,7.172,7.172,0,0,1,.738-3.367,5.477,5.477,0,0,1,1.891-2.214,5.182,5.182,0,0,1,2.721-.784A5.551,5.551,0,0,1,124.689,15.52Zm-3.182,3.459a3.737,3.737,0,0,0,0,4.428,2.387,2.387,0,0,0,1.937.784,2.582,2.582,0,0,0,1.937-.83,3.6,3.6,0,0,0,0-4.428,2.582,2.582,0,0,0-1.937-.83,3.021,3.021,0,0,0-1.937.876Z" transform="translate(-62.978 -11)" fill="#0f0f0f"/>
    <path id="Caminho_19070" data-name="Caminho 19070" d="M158.463,20.495a4.91,4.91,0,0,1,1.753,3.09h-3.551a1.751,1.751,0,0,0-.738-1.153,2.485,2.485,0,0,0-1.384-.461,1.975,1.975,0,0,0-1.015.277.834.834,0,0,0-.323.784.946.946,0,0,0,.6.876,15.268,15.268,0,0,0,1.937.553c.784.184,1.568.415,2.306.646a3.756,3.756,0,0,1,1.568,1.107,3.142,3.142,0,0,1,.646,2.122,3.2,3.2,0,0,1-2.214,3.136,6.86,6.86,0,0,1-2.537.461,6.631,6.631,0,0,1-3.966-1.107A4.719,4.719,0,0,1,149.7,27.69h3.644a1.644,1.644,0,0,0,.646,1.2,2.535,2.535,0,0,0,1.476.461,1.975,1.975,0,0,0,1.015-.277.95.95,0,0,0,.323-.784.963.963,0,0,0-.6-.922,9.842,9.842,0,0,0-1.983-.6,12.546,12.546,0,0,1-2.26-.6,3.655,3.655,0,0,1-1.568-1.061,2.9,2.9,0,0,1-.646-2.029,3.5,3.5,0,0,1,1.291-2.721,5.669,5.669,0,0,1,3.551-1.061A6.053,6.053,0,0,1,158.463,20.495Z" transform="translate(-80.656 -15.467)" fill="#0f0f0f"/>
  </g>
  <g id="Grupo_27674" data-name="Grupo 27674" transform="translate(89.569 4.816)">
    <path id="Caminho_19071" data-name="Caminho 19071" d="M11.161,11V23.545H7.656V18.472H3.413v5.073H0V11H3.505v4.7H7.748V11Z" transform="translate(0 -10.995)" fill="#0f0f0f"/>
    <path id="Caminho_19072" data-name="Caminho 19072" d="M31.652,11v7.149a2.675,2.675,0,0,0,.461,1.66,1.671,1.671,0,0,0,1.43.553,1.706,1.706,0,0,0,1.43-.6,2.5,2.5,0,0,0,.507-1.614V11h3.505v7.149a5.676,5.676,0,0,1-.738,3,5.089,5.089,0,0,1-1.937,1.891,5.953,5.953,0,0,1-2.813.6,6.365,6.365,0,0,1-2.767-.6,4.4,4.4,0,0,1-1.891-1.891,6.246,6.246,0,0,1-.646-3.044V11Z" transform="translate(-15.187 -10.995)" fill="#0f0f0f"/>
    <path id="Caminho_19073" data-name="Caminho 19073" d="M65.232,18.189a2.745,2.745,0,0,1,.646,1.937,3.171,3.171,0,0,1-1.107,2.537,4.594,4.594,0,0,1-3.09.876H55.5V10.994h6.042a4.929,4.929,0,0,1,3,.83A2.951,2.951,0,0,1,65.6,14.269,3.08,3.08,0,0,1,65,16.16a2.613,2.613,0,0,1-1.568,1.015A2.569,2.569,0,0,1,65.232,18.189Zm-6.18-2.168H60.8c.876,0,1.338-.369,1.338-1.107,0-.784-.461-1.107-1.338-1.107H59.1v2.214h-.046Zm3.321,3.6c0-.784-.461-1.153-1.384-1.153H59.005v2.306h1.983C61.911,20.726,62.372,20.4,62.372,19.619Z" transform="translate(-29.902 -10.989)" fill="#0f0f0f"/>
  </g>
  <path id="Caminho_19074" data-name="Caminho 19074" d="M651.219,1373.519H645.5V1367.8h5.719Z" transform="translate(-563.835 -1355.854)" fill="#3e54ff"/>
  <path id="Caminho_19075" data-name="Caminho 19075" d="M737.935,1350.2v-5.535H732.4V1341.9h8.3v8.3Z" transform="translate(-610.656 -1341.9)" fill="#00d9b8"/>
</svg>
