<svg xmlns="http://www.w3.org/2000/svg" width="130.046" height="65.295" viewBox="0 0 130.046 65.295">
  <g id="logo-scaffold-education-negativo" transform="translate(0)">
    <path id="Caminho_18999" data-name="Caminho 18999" d="M64.256,33.81A8.42,8.42,0,0,0,57.3,36.852V34.136H53.718v-.869c0-1.412.543-2.282,1.738-2.282a5.887,5.887,0,0,1,1.63.217l.326-3.477A14.063,14.063,0,0,0,54.8,27.4c-4.02,0-6.084,1.521-6.084,5.867v.869H44.592v-.869c0-1.412.543-2.282,1.738-2.282a5.887,5.887,0,0,1,1.63.217l.326-3.477a14.062,14.062,0,0,0-2.607-.326c-4.02,0-6.084,1.521-6.084,5.867v.869H36.552v2.5c-1.2-2.064-3.477-2.825-6.084-2.825a16,16,0,0,0-5.758.978l.109,3.368a9.855,9.855,0,0,1,4.672-1.086c1.847,0,3.259.543,3.368,2.5a14.978,14.978,0,0,0-2.39-.217c-2.716,0-7.5.543-7.5,5a1.378,1.378,0,0,0,.109.652,11.972,11.972,0,0,1-1.956.217A3.924,3.924,0,0,1,17,41.415a3.711,3.711,0,0,1,3.8-4.02,5.511,5.511,0,0,1,3.042.761l.326-3.694a9.484,9.484,0,0,0-4.02-.761c-4.78,0-8.366,2.716-8.474,7.605-1.956-2.064-6.3-1.412-6.3-3.151,0-.761,1.2-.978,2.282-.978a8.036,8.036,0,0,1,3.911.978L12,34.679a13.657,13.657,0,0,0-5.106-.869C3.959,33.81.7,35.222.7,38.482c0,5.215,7.17,3.477,7.17,5.975,0,.978-.978,1.2-2.064,1.2a13.039,13.039,0,0,1-4.672-.978L.809,48.368a17.948,17.948,0,0,0,5.215.652c3.042,0,6.084-.869,6.627-3.911,1.412,2.5,4.128,3.911,7.5,3.911a13.644,13.644,0,0,0,4.128-.652v-.761a6.162,6.162,0,0,0,4.02,1.3A4.8,4.8,0,0,0,32.858,46.3h.109c0,.761.109,1.521.109,2.282h4.563a18.827,18.827,0,0,1-.326-3.477V39.677a6.533,6.533,0,0,0-.326-2.173h2.5V48.477h5V37.721H48.5V48.694h5V37.721h3.042a8.2,8.2,0,0,0-.978,3.8c0,4.78,3.694,7.605,8.474,7.605s8.474-2.825,8.474-7.605C72.731,36.635,69.145,33.81,64.256,33.81ZM29.708,45.652c-1.2,0-2.064-.543-2.064-1.63,0-1.412,1.3-1.956,3.042-1.956.761,0,1.521.109,2.173.109C32.75,44.022,31.555,45.652,29.708,45.652Zm34.549,0C61.975,45.652,61,43.7,61,41.632c0-2.173.978-4.128,3.259-4.128s3.259,1.956,3.259,4.128C67.516,43.588,66.647,45.652,64.256,45.652Zm8.691,3.042h5V27.835h-5Zm16.514-20.86v8.257h-.109a5.843,5.843,0,0,0-5-2.173c-4.02,0-6.193,3.8-6.193,7.279,0,4.346,2.282,7.822,6.627,7.822a5.413,5.413,0,0,0,5-2.933H89.9v2.607h4.672V27.835ZM86.42,45.218c-1.847,0-3.042-1.63-3.042-3.911,0-1.956,1.086-3.585,3.042-3.585,1.847,0,3.042,1.63,3.042,3.8C89.462,43.588,88.158,45.218,86.42,45.218Z" transform="translate(-0.7 1.934)" fill="#6d7174"/>
    <path id="Caminho_19000" data-name="Caminho 19000" d="M60.6.4l40.524,20.1L124.591,6.593,102.319,21.368l.217,44.109L125.569,5.941Z" transform="translate(4.477 -0.4)" fill="#f46428"/>
    <path id="Caminho_19001" data-name="Caminho 19001" d="M13.8,60.715h2.825v-.652H14.452V58.325h1.956v-.652H14.452V56.152h2.173V55.5H13.8C13.8,55.609,13.8,60.715,13.8,60.715Zm10.538-5H22.817v5.106h1.521a2.383,2.383,0,0,0,2.716-2.607A2.455,2.455,0,0,0,24.338,55.717Zm0,4.454h-.761v-3.8h.869a1.744,1.744,0,0,1,1.847,1.956C26.294,59.52,25.642,60.172,24.338,60.172Zm12.168-1.63c0,.978-.326,1.63-1.3,1.63s-1.3-.652-1.3-1.63V55.609h-.761v3.042c0,1.412.761,2.173,1.956,2.173,1.3,0,1.956-.761,1.956-2.173V55.609h-.761v2.933Zm9.452,1.63A1.882,1.882,0,0,1,44,58.216a1.825,1.825,0,0,1,1.956-1.956,2.1,2.1,0,0,1,1.086.326l.109-.761a3.906,3.906,0,0,0-1.2-.217,2.6,2.6,0,0,0-2.716,2.607,2.822,2.822,0,0,0,3.911,2.5v-.761A2.339,2.339,0,0,1,45.958,60.172Zm8.691-4.454-2.173,5.106h.761l.543-1.3h2.5l.543,1.3h.761L55.41,55.717ZM54,58.977l.978-2.5.978,2.5Zm8.148-2.716h1.63v4.454h.761V56.261h1.63v-.652H62.255v.652Zm9.669,4.454h.761V55.609h-.761ZM81.159,55.5a2.425,2.425,0,0,0-2.5,2.607,2.368,2.368,0,0,0,2.5,2.607,2.425,2.425,0,0,0,2.5-2.607A2.486,2.486,0,0,0,81.159,55.5Zm0,4.672a1.768,1.768,0,0,1-1.738-1.956c0-1.086.543-2.064,1.738-1.956A1.835,1.835,0,0,1,82.9,58.216C82.789,59.194,82.245,60.172,81.159,60.172Zm11.733-.435h0l-2.282-4.128h-.978v5.106h.76V56.478h0l2.282,4.237h.978V55.609h-.76Z" transform="translate(0.432 4.362)" fill="#f46428"/>
    <g id="Grupo_27671" data-name="Grupo 27671" transform="translate(97.127 29.768)">
      <g id="Grupo_27670" data-name="Grupo 27670">
        <g id="Grupo_27669" data-name="Grupo 27669">
          <path id="Caminho_19002" data-name="Caminho 19002" d="M92.461,31.273h.76c.217,0,.326,0,.435.109s.109.217.109.435v.869h.869v-.109c-.109,0-.109-.109-.109-.217v-.543a.814.814,0,0,0-.109-.543l-.326-.326a1.5,1.5,0,0,0,.435-.326.979.979,0,0,0,.109-.543.4.4,0,0,0-.109-.326c0-.109-.109-.217-.217-.326s-.217-.217-.326-.217a.814.814,0,0,0-.543-.109H91.7v3.585h.761Zm0-1.521h.869a.4.4,0,0,1,.326.109.543.543,0,0,1,0,.869c-.109,0-.217.109-.326.109h-.76V29.752Z" transform="translate(-89.962 -27.688)" fill="#6d7174"/>
          <path id="Caminho_19003" data-name="Caminho 19003" d="M93.359,34.319A3.259,3.259,0,1,0,90.1,31.059,3.269,3.269,0,0,0,93.359,34.319Zm0-6.084a2.825,2.825,0,1,1-2.825,2.825A2.74,2.74,0,0,1,93.359,28.235Z" transform="translate(-90.1 -27.8)" fill="#6d7174"/>
        </g>
      </g>
    </g>
  </g>
</svg>
