<svg xmlns="http://www.w3.org/2000/svg" width="129.899" height="31.979" viewBox="0 0 129.899 31.979">
  <g id="Grupo_21415" data-name="Grupo 21415" transform="translate(-585 -1412.001)">
    <path id="Caminho_8884" data-name="Caminho 8884" d="M5742.2-1040.007c.2-.321.35-.546.484-.781,1.236-2.16,2.459-4.328,3.712-6.479a12.717,12.717,0,0,1,1.223-1.779,3.723,3.723,0,0,1,4.23-1.121,3.749,3.749,0,0,1,2.507,3.456c.039,3.422.011,6.844.009,10.266a1.526,1.526,0,0,1-.054.257h-3.88c-.01-.227-.03-.472-.031-.717q0-3.632,0-7.263a1.5,1.5,0,0,0-.036-.62,1.115,1.115,0,0,0-.52-.573c-.168-.054-.462.139-.635.294a2.161,2.161,0,0,0-.367.589c-1.43,2.585-2.868,5.166-4.278,7.761a.938.938,0,0,1-.971.6c-.86-.038-1.723-.033-2.583,0a.911.911,0,0,1-.934-.55c-1.519-2.722-3.06-5.432-4.6-8.143a2.391,2.391,0,0,0-.386-.573.525.525,0,0,0-.93.229,2.747,2.747,0,0,0-.085.827q-.009,3.667,0,7.333v.848c-1.236,0-2.414.011-3.591-.02-.1,0-.288-.285-.288-.438-.015-3.492-.062-6.985.017-10.476a3.372,3.372,0,0,1,2.45-3.019,3.316,3.316,0,0,1,3.761.639,10.251,10.251,0,0,1,1.72,2.263c1.258,2.147,2.439,4.34,3.651,6.513C5741.9-1040.489,5742.024-1040.3,5742.2-1040.007Z" transform="translate(-5109.244 2479.585)" fill="#0061ae"/>
    <path id="Caminho_8885" data-name="Caminho 8885" d="M5961.505-1036.092c-1.215,0-2.35.015-3.482-.019-.14,0-.313-.248-.4-.417a1.189,1.189,0,0,1-.014-.482q0-4.886,0-9.772a3.525,3.525,0,0,1,3.108-3.532,4.321,4.321,0,0,1,4.092,1.586c2.165,2.587,4.37,5.139,6.56,7.706.121.142.217.335.372.411a2.417,2.417,0,0,0,1.1.373c.152-.01.375-.591.379-.915.031-2.652.018-5.3.018-7.957v-.883h3.908c.017.256.048.505.048.754q.005,4.886,0,9.772a3.719,3.719,0,0,1-2.33,3.634,3.93,3.93,0,0,1-4.477-1.126c-2.425-2.885-4.83-5.786-7.247-8.678a2.367,2.367,0,0,0-.541-.533.683.683,0,0,0-1.079.534,5.1,5.1,0,0,0-.021.7q0,3.979,0,7.957Z" transform="translate(-5292.262 2479.538)" fill="#0061ae"/>
    <path id="Caminho_8886" data-name="Caminho 8886" d="M5880.846-1048.87v3.115h-.833q-4.537,0-9.075,0c-1.44,0-2.069.785-1.764,2.316h11.591v3c-.254.017-.521.048-.79.048-3.28,0-6.561-.005-9.841.015-.329,0-.908.119-.941.274-.115.543-.249,1.222.369,1.576a2.932,2.932,0,0,0,1.36.4q4.711.051,9.423,0c.66-.007.93.156.869.848a16.942,16.942,0,0,0-.011,1.883c.009.384-.14.532-.534.531-3.723-.01-7.447.039-11.168-.024a4.448,4.448,0,0,1-4.236-4.43c0-1.815.024-3.63-.012-5.445a3.11,3.11,0,0,1,.835-2.224,5.073,5.073,0,0,1,4.068-1.916c3.28.074,6.562.021,9.843.021Z" transform="translate(-5217.953 2478.359)" fill="#0061ae"/>
    <path id="Caminho_8887" data-name="Caminho 8887" d="M5632.783-1048.842v.86c0,2.49-.006,4.981,0,7.471a2.254,2.254,0,0,0,2.287,2.3c1.815.007,3.631,0,5.447,0a2.2,2.2,0,0,0,2.29-2.328q0-3.735,0-7.471v-.787h4.042c.014.257.037.5.037.752q0,4.538,0,9.077a4.275,4.275,0,0,1-4.139,4.141q-4.573,0-9.147,0a4.639,4.639,0,0,1-4.712-4.667c-.013-2.863.014-5.726-.016-8.588-.007-.627.2-.8.8-.769C5630.673-1048.806,5631.672-1048.842,5632.783-1048.842Z" transform="translate(-5027.733 2478.332)" fill="#0061ae"/>
    <path id="Caminho_8888" data-name="Caminho 8888" d="M5546.2-1059.378c1.184,0,2.3-.023,3.4.03.139.007.365.417.368.642.028,2.093.017,4.187.017,6.281,0,1.093-.01,2.187,0,3.28a2.443,2.443,0,0,0,2.627,2.6c2.837,0,5.675.017,8.514-.011.589-.006.775.185.748.756-.039.806-.01,1.615-.01,2.464-.3.014-.531.033-.757.033q-5.339,0-10.678,0a4.367,4.367,0,0,1-4.235-4.212q0-5.478,0-10.956Z" transform="translate(-4961.203 2486.801)" fill="#0061ae"/>
    <path id="Caminho_8889" data-name="Caminho 8889" d="M5736.44-1129.181c2.443-.885,4.868-1.824,7.332-2.645a127.425,127.425,0,0,1,23.965-5.4,144.669,144.669,0,0,1,22.424-1.058,107.782,107.782,0,0,1,22.073,2.477,35.8,35.8,0,0,1,11.747,4.623,11.3,11.3,0,0,1,4.688,5.383,6.777,6.777,0,0,1-.586,6.344,10.331,10.331,0,0,1-3.147,3.17c.108-.2.223-.4.325-.608,1-2,1.667-4.049,1.043-6.309a8.188,8.188,0,0,0-2.569-3.752,28.85,28.85,0,0,0-9.99-5.7,69.89,69.89,0,0,0-15.6-3.521,126.949,126.949,0,0,0-20.135-.761A135.239,135.239,0,0,0,5739.3-1130c-.937.317-1.866.657-2.8.986Z" transform="translate(-5114.293 2550.342)" fill="#ee7202"/>
    <path id="Caminho_8890" data-name="Caminho 8890" d="M6108.9-1043.721v-.867c0-3.98-.016-7.96.014-11.939,0-.688-.217-.877-.876-.852-1.207.047-2.416.013-3.714.013a19.9,19.9,0,0,1,.025-2.445c.071-.565.628-.589,1.117-.588q5.167.005,10.333,0h2.244c0,.8.044,1.542-.015,2.273-.045.552-.471.759-1,.758-.908,0-1.819.052-2.722-.015-.742-.055-.884.229-.879.912.03,3.956.015,7.913.015,11.869v.88Z" transform="translate(-5410.323 2487.619)" fill="#ee7202"/>
    <path id="Caminho_8891" data-name="Caminho 8891" d="M6079.849-1058.784v.613c0,4.975-.012,9.95.016,14.926,0,.669-.175.888-.855.857-1.2-.054-2.413-.015-3.677-.015v-16.427a8.685,8.685,0,0,0,2.174.593A9.75,9.75,0,0,0,6079.849-1058.784Z" transform="translate(-5387.011 2486.357)" fill="#ee7202"/>
    <path id="Caminho_8892" data-name="Caminho 8892" d="M6076.194-1087.524a2.375,2.375,0,0,1,2.526,2.4,2.406,2.406,0,0,1-2.555,2.307,2.458,2.458,0,0,1-2.584-2.37A2.451,2.451,0,0,1,6076.194-1087.524Z" transform="translate(-5385.603 2509.447)" fill="#ee7202"/>
  </g>
</svg>
