<svg id="Grupo_8145" data-name="Grupo 8145" xmlns="http://www.w3.org/2000/svg" width="130.009" height="31.4" viewBox="0 0 130.009 31.4">
  <path id="Caminho_8893" data-name="Caminho 8893" d="M6389.739-1090.323c.548-.07,1.1-.121,1.646-.214a1.535,1.535,0,0,0,1.537-1.59c.152-1.186.271-2.379.33-3.573.176-3.629.318-7.26.467-10.89.108-2.626.215-5.253.3-7.88a12.552,12.552,0,0,0-.075-1.792,2.037,2.037,0,0,0-1.527-1.863c-.652-.193-1.324-.321-1.99-.478-.16-.828-.1-.889.7-.885,1.877.01,3.753,0,5.645,0a12.781,12.781,0,0,0,.4,2.2c.777,2.144,1.546,4.3,2.485,6.375,2.29,5.057,4.672,10.073,7.028,15.1a2.937,2.937,0,0,0,.5.592,2.848,2.848,0,0,0,.5-.575c2.472-5.209,5-10.393,7.356-15.655a62.862,62.862,0,0,0,2.214-6.6,8.511,8.511,0,0,0,.212-1.382h7.071l.048.839c-.6.086-1.126.138-1.646.243-1.669.336-2.332,1.016-2.355,2.693-.039,2.737.02,5.476.054,8.214.023,1.9.056,3.805.118,5.707.1,2.927.2,5.853.34,8.778.087,1.787.638,2.316,2.416,2.505.234.025.465.088.7.1.383.012.514.259.423.55a.677.677,0,0,1-.48.4q-5.1.033-10.2,0a.663.663,0,0,1-.474-.389c-.094-.284,0-.528.4-.562.53-.046,1.057-.143,1.583-.229a2.068,2.068,0,0,0,1.866-1.832,8.882,8.882,0,0,0,.132-1.464q0-6.163-.029-12.325c-.012-2.288-.061-4.576-.1-6.863a.517.517,0,0,0-.166-.387c-.114.211-.243.417-.34.635-3.489,7.746-7.6,15.215-10.335,23.3a.99.99,0,0,1-.5.462c-.053.026-.313-.233-.385-.4q-3.349-7.832-6.676-15.674c-1.143-2.692-2.271-5.391-3.407-8.087a.885.885,0,0,0-.363-.44c-.045.443-.111.885-.129,1.329-.188,4.613-.39,9.226-.539,13.84-.062,1.919-.068,3.845.018,5.762.07,1.562.732,2.129,2.3,2.275.255.024.506.091.76.109.415.029.442.332.361.6a.608.608,0,0,1-.449.346c-2.436.023-4.872.02-7.308.011a1.43,1.43,0,0,1-.446-.159Z" transform="translate(-6389.739 1120.117)"/>
  <path id="Caminho_8894" data-name="Caminho 8894" d="M6685.266-1122.121c1.05.147,2.106.257,3.147.448,1.341.247,2.669.559,4.047.852.129,1.479.256,2.942.387,4.4.054.6.1,1.194.181,1.786.046.323.02.563-.358.6a.5.5,0,0,1-.639-.44,8.034,8.034,0,0,0-2.568-4.481,8.111,8.111,0,0,0-4.514-1.806c-3.788-.384-7.243.391-10.061,3.121a12.538,12.538,0,0,0-3.521,7.117,18.955,18.955,0,0,0,1.079,10.883,11.675,11.675,0,0,0,9.376,7.473c4.861.751,8.752-1.082,10.8-5.792.05-.118.066-.287.155-.344a1.433,1.433,0,0,1,.673-.277c.1,0,.31.343.285.5a17.4,17.4,0,0,1-1.759,5.526.727.727,0,0,1-.357.334c-5.437,1.855-10.9,2.177-16.263-.14-4.771-2.062-7.432-5.886-8.315-10.943a16.128,16.128,0,0,1,1.722-10.87c2.406-4.34,6.252-6.654,11.027-7.572.834-.16,1.68-.255,2.521-.381Z" transform="translate(-6600.528 1122.121)"/>
  <path id="Caminho_8895" data-name="Caminho 8895" d="M6565.64-1061.264a2.771,2.771,0,0,1-.542.16,5.793,5.793,0,0,1-5.664-2.27c-1.1-1.519-2.075-3.132-3.095-4.709-.395-.609-.752-1.242-1.144-1.854a2.991,2.991,0,0,0-3.328-.938.809.809,0,0,0-.344.609c0,2.2-.006,4.4.081,6.6.04,1.01.473,1.355,1.486,1.536.293.052.584.109.92.172v.542a.71.71,0,0,1-.2.073c-2.263,0-4.528.012-6.792-.006-.159,0-.317-.187-.475-.288a1.952,1.952,0,0,1,.455-.374,3.353,3.353,0,0,1,.692-.124c.952-.165,1.358-.561,1.4-1.531.07-1.472.1-2.948.108-4.422q.023-4.974,0-9.948c0-.661-.045-1.324-.1-1.983-.087-1.076-.361-1.349-1.437-1.512-.272-.041-.541-.1-1-.188.18-.24.3-.554.442-.567a37.3,37.3,0,0,1,9.333-.034c2.739.444,4.149,1.878,4.555,4.325a5.542,5.542,0,0,1-2.932,5.728c-1.032.591-1.052.6-.4,1.647,1.222,1.956,2.432,3.922,3.726,5.83a10.822,10.822,0,0,0,1.964,2.187A15.066,15.066,0,0,0,6565.64-1061.264Zm-14.142-15.4h.046c0,1.409.009,2.818-.006,4.228a.514.514,0,0,0,.576.593c.768.021,1.54.087,2.3.036a3.742,3.742,0,0,0,3.859-3.172,7.874,7.874,0,0,0,.168-2.1,4.531,4.531,0,0,0-3.466-4.458,9.492,9.492,0,0,0-2.353-.144c-.94.024-1.106.221-1.122,1.167C6551.483-1079.233,6551.5-1077.951,6551.5-1076.668Z" transform="translate(-6509.055 1092.052)"/>
  <path id="Caminho_8896" data-name="Caminho 8896" d="M6792.54-1083.817c.127.354.2.543.264.737q2.687,8.449,5.375,16.9a16.7,16.7,0,0,0,.706,1.783,1.959,1.959,0,0,0,1.814,1.214.831.831,0,0,1,.375.059,3,3,0,0,1,.424.376c-.161.082-.319.232-.482.234-.833.017-1.668-.016-2.5-.009-1.2.01-2.394.053-3.591.045-.2,0-.4-.191-.6-.294.185-.13.356-.345.556-.378,1.665-.271,1.688-.268,1.229-1.9-.451-1.6-.959-3.188-1.436-4.782a.979.979,0,0,0-1.063-.806c-1.625.025-3.25.012-4.876.007a.81.81,0,0,0-.9.559c-.586,1.939-1.187,3.875-1.732,5.825-.2.7.063.976.791,1.051a3.147,3.147,0,0,1,.7.078c.165.057.288.231.429.354-.164.095-.327.271-.491.272-1.5.012-2.993-.01-4.49-.015-.276,0-.557.05-.83.024-.114-.011-.311-.173-.3-.243a.559.559,0,0,1,.252-.371,1.074,1.074,0,0,1,.5-.079,2.088,2.088,0,0,0,2.08-1.587c1.047-2.845,2.112-5.681,3.143-8.531.892-2.469,1.745-4.951,2.615-7.428a2.035,2.035,0,0,0,.215-.667C6790.67-1082.639,6791.789-1082.966,6792.54-1083.817Zm-1.095,3.684a2.479,2.479,0,0,0-.3.4q-1.282,3.688-2.555,7.381c-.153.446.1.6.482.6q2.084.01,4.168-.007c.563-.006.758-.276.573-.837-.386-1.175-.746-2.36-1.117-3.541C6792.3-1077.413,6791.9-1078.692,6791.445-1080.133Z" transform="translate(-6688.138 1092.975)"/>
  <path id="Caminho_8897" data-name="Caminho 8897" d="M6873.563-1080.532c-.27.106-.46.06-.55-.4-.407-2.091-.955-2.567-3.131-2.692-1.087-.062-2.179-.053-3.269-.057-.727,0-.854.123-.858.872-.011,1.947-.006,3.893,0,5.84q.007,4.909.021,9.818a6.038,6.038,0,0,0,.041.7c.186,1.555.476,1.829,2.05,1.955.735.059.739.062.643.675h-7.967c-.162-.413-.039-.6.367-.626a9.826,9.826,0,0,0,1.146-.117,1.431,1.431,0,0,0,1.355-1.387,10.342,10.342,0,0,0,.118-1.468q.012-7.637,0-15.273c0-.9-.1-1-.991-.991-1.068.008-2.136.026-3.2.063a3.2,3.2,0,0,0-2.907,1.781c-.159.3-.273.631-.46.914-.081.123-.292.159-.444.234-.059-.14-.192-.3-.166-.418.312-1.373.644-2.74.983-4.106.031-.122.158-.221.24-.33.093.071.232.122.273.216a1.469,1.469,0,0,0,1.553.786q4.588.018,9.174.014c1.518,0,3.037-.011,4.555-.007a1.563,1.563,0,0,0,1.492-.689c.055-.088.191-.125.29-.186.042.1.128.21.118.307C6873.889-1083.6,6873.729-1082.1,6873.563-1080.532Z" transform="translate(-6744.028 1094.289)"/>
  <path id="Caminho_8898" data-name="Caminho 8898" d="M6640.513-1004.947a1.524,1.524,0,0,1-1.581,1.7,1.65,1.65,0,0,1-1.636-1.695,1.68,1.68,0,0,1,1.66-1.809A1.6,1.6,0,0,1,6640.513-1004.947Z" transform="translate(-6578.106 1034.339)"/>
</svg>
