<svg xmlns="http://www.w3.org/2000/svg" width="89.567" height="89.759" viewBox="0 0 89.567 89.759">
  <g id="surface1" transform="translate(0.283 0.283)">
    <path id="Caminho_19004" data-name="Caminho 19004" d="M13.852-3977.36H75.82a13.556,13.556,0,0,1,13.516,13.516v62.16a13.556,13.556,0,0,1-13.516,13.516H13.852A13.556,13.556,0,0,1,.336-3901.684v-62.16A13.556,13.556,0,0,1,13.852-3977.36Zm0,0" transform="translate(-0.336 3977.36)" fill="none" stroke="#000f00" stroke-width="0.567"/>
    <path id="Caminho_19005" data-name="Caminho 19005" d="M131.3,78.551h59.321A12.211,12.211,0,0,1,202.8,90.726v59.755a12.211,12.211,0,0,1-12.175,12.175H131.3a12.211,12.211,0,0,1-12.175-12.175V90.726A12.211,12.211,0,0,1,131.3,78.551Zm0,0" transform="translate(-116.461 -76.795)" fill="#fff"/>
    <path id="Caminho_19006" data-name="Caminho 19006" d="M119.129-1770.17c31.413,7.366,58.718,6.27,83.672,0v24.187a12.211,12.211,0,0,1-12.175,12.175H131.3a12.211,12.211,0,0,1-12.175-12.175Zm0,0" transform="translate(-116.465 1819.67)" fill="#003966" stroke="#1b1918" stroke-width="0.567"/>
    <path id="Caminho_19007" data-name="Caminho 19007" d="M426.137,2565.292l3.667-15.878a15.45,15.45,0,0,1,12.414-7.476c4.441-.119,5.666,3.831,5.083,7.6-.928,5.994-6.288,12.8-14.02,9.106l-1.749,6.818Zm8.23-10.283c8.267,3.481,9.85-13,1.615-8.051Zm0,0" transform="translate(-416.588 -2484.933)" fill="#fff"/>
    <path id="Caminho_19008" data-name="Caminho 19008" d="M1345.658,2548.635a2.986,2.986,0,0,1,1.291-2.394c2.778-2.042,9.715-2.238,12.373-.229a4.558,4.558,0,0,1,1.279,4.777l-2.7,11.292-5.36-.033c.508-1.416.194-1.646-.852-.819-6.8,2.98-9.832.168-9.6-3.342.271-5.149,5.309-6.992,13-7,.094-2.464-2.442-3.068-8.158-1.422C1345.458,2549.89,1345.343,2550.166,1345.658,2548.635Zm8.567,5.591-.729,3.213a7.906,7.906,0,0,1-3.276,1.053c-3.022.161-3.141-2.8-.164-3.724A15.817,15.817,0,0,1,1354.225,2554.226Zm0,0" transform="translate(-1311.983 -2487.542)" fill="#fff"/>
    <path id="Caminho_19009" data-name="Caminho 19009" d="M2103.086,2564.672l2.161-9.1c5.506-6.409,13.53-10.074,16.921-4.329,3.166-3.7,11.751-4.565,11.224,2.45-.8,4.108-1.8,8.18-2.841,12.228-1.621,0-3.2,0-4.812.006-1.062,0-1.154-.531-.944-1.439q.762-3.3,1.523-6.6a27.574,27.574,0,0,0,.724-3.553c.161-2.484-3.291-1.107-4.845-.309q-1.3,5.926-2.6,11.852h-4.71c-1.391,0-1.135-.544-.863-1.732q.768-3.351,1.534-6.7c.211-.924.778-2.749.535-3.627-.42-1.52-2.681-.61-4.831.153q-1.342,5.937-2.685,11.875l-4.7.114C2102.806,2565.99,2102.854,2565.646,2103.086,2564.672Zm0,0" transform="translate(-2055.795 -2491.239)" fill="#fff"/>
    <path id="Caminho_19010" data-name="Caminho 19010" d="M2837.32,3460.062c.072-.632.283-1.764.4-2.479.023-.139.092-.756.171-.783.639,0,1.2-.01,1.56.369a1.884,1.884,0,0,1-.486,2.631A2.769,2.769,0,0,1,2837.32,3460.062Zm4.173-1.7a3.022,3.022,0,0,0-.386-1.9,2.527,2.527,0,0,0-1.3-1.009,3.719,3.719,0,0,0-1.336-.189c-1.21,0-1.936-.222-2.154.92-.239,1.254-.437,2.67-.654,3.963-.081.481-.194.919.135,1.253.3.308.808.235,1.305.235a9.462,9.462,0,0,0,1.458-.05A3.4,3.4,0,0,0,2841.493,3458.363Zm0,0" transform="translate(-2771.992 -3377.76)" fill="#fff"/>
    <path id="Caminho_19011" data-name="Caminho 19011" d="M2583.257,3458.769h.614c.19-.086.609-.107.9-.239a2.573,2.573,0,0,0,1.456-1.824c.117-.449.617-3.4.608-3.766a.777.777,0,0,0-1.246-.635c-.412.33-.439,1.027-.54,1.646s-.208,1.248-.314,1.874c-.108.643-.235,1.209-.848,1.339-.792.168-1.107-.326-1.008-1.065.083-.62.2-1.262.31-1.882.092-.542.34-1.406-.015-1.809a.768.768,0,0,0-.805-.224c-.761.212-.737,1.44-.892,2.388-.211,1.3-.651,2.623.248,3.532A2.863,2.863,0,0,0,2583.257,3458.769Zm0,0" transform="translate(-2523.3 -3374.735)" fill="#fff"/>
    <path id="Caminho_19012" data-name="Caminho 19012" d="M2306.591,3454.3l.231,1.4-1.044-.011Zm.484,2.887c.093.522.1.906.458,1.152a.856.856,0,0,0,1.139-.22,1.512,1.512,0,0,0,.062-1.281l-.815-3.957a1.006,1.006,0,0,0-1.809-.569c-.282.338-2.228,3.507-2.456,3.891l-.6.975a.807.807,0,1,0,1.309.943,4.34,4.34,0,0,0,.3-.486c.093-.166.221-.458.328-.458C2305.42,3457.177,2306.745,3457.158,2307.075,3457.188Zm0,0" transform="translate(-2251.276 -3374.507)" fill="#fff"/>
    <path id="Caminho_19013" data-name="Caminho 19013" d="M3112.972,3456.063v-.295c-.088-.17-.088-.294-.226-.4-.345-.273-1.182-.171-1.719-.171-.811,0-1.684-.169-1.979.518-.166.385-.64,3.559-.75,4.233-.09.559-.358,1.56.694,1.618.78.043,1.7.006,2.492,0a.807.807,0,0,0,.823-.413.83.83,0,0,0-.118-.952c-.251-.243-.637-.192-1.04-.192s-.831,0-1.25,0l.148-.957c.509,0,1.019,0,1.527,0s.806-.194.877-.639c.177-1.111-1.154-.829-2.153-.844.019-.152.046-.3.071-.448.03-.183.018-.354.111-.379.535,0,1.077.008,1.611,0a1.022,1.022,0,0,0,.605-.179C3112.89,3456.421,3112.867,3456.289,3112.972,3456.063Zm0,0" transform="translate(-3038.502 -3377.692)" fill="#fff"/>
    <path id="Caminho_19014" data-name="Caminho 19014" d="M2109.61,3454.272v.313c.128.241.053.23.259.432a2.164,2.164,0,0,0,.907.491,4.866,4.866,0,0,1,.574.132h.637c.167-.065.525-.089.759-.175a2.063,2.063,0,0,0,1.368-1.424,1.886,1.886,0,0,0-1.208-2.362c-.362-.184-1.178-.322-.925-.895a.687.687,0,0,1,.606-.339,1.066,1.066,0,0,1,.692.223.739.739,0,0,0,1.144-.507c.117-.592-.36-.874-.781-1.038-1.358-.528-3.326.156-3.388,1.9-.051,1.42.963,1.628,1.737,1.993.984.464.294,1.388-.673,1.036-.353-.128-.757-.679-1.337-.32a1,1,0,0,0-.229.225A2.067,2.067,0,0,0,2109.61,3454.272Zm0,0" transform="translate(-2062.306 -3371.607)" fill="#fff"/>
    <path id="Caminho_19015" data-name="Caminho 19015" d="M2694.852,3368.3h-.291a3.664,3.664,0,0,0-.581.366c-.38.283-.931.578-.776,1.135a.569.569,0,0,0,.56.411,3.478,3.478,0,0,0,1.221-.692.705.705,0,0,0,.164-1.025C2695.029,3368.37,2694.99,3368.39,2694.852,3368.3Zm0,0" transform="translate(-2632.787 -3292.766)" fill="#fff"/>
    <path id="Caminho_19016" data-name="Caminho 19016" d="M131.3,78.551h59.321A12.211,12.211,0,0,1,202.8,90.726v33.1c-17.052,4.613-63.316,4.716-83.672,0v-33.1A12.211,12.211,0,0,1,131.3,78.551Zm29.179,33.188a6.952,6.952,0,1,1-6.952,6.952A6.952,6.952,0,0,1,160.48,111.739Zm0,0" transform="translate(-116.461 -76.795)" fill="#a6c62a"/>
  </g>
</svg>
