<svg id="logo_pormade" xmlns="http://www.w3.org/2000/svg" width="130.046" height="47.595" viewBox="0 0 130.046 47.595">
  <path id="Caminho_19049" data-name="Caminho 19049" d="M1499.818,538.57c-.109-.13-.273-.075-.41-.109a2.566,2.566,0,0,1-2.01-2.537q-.031-2.4,0-4.793c.007-.349-.109-.444-.424-.4a3.2,3.2,0,0,1-.444.007c-.547,0-.547,0-.554-.568,0-.376-.144-.862.041-1.094s.7-.075,1.074-.075c.267,0,.308-.1.3-.335-.014-.684.007-1.367-.007-2.058-.007-.233.034-.335.3-.321.574.021,1.156.021,1.737,0,.287-.014.328.1.321.349-.014.67.014,1.34-.014,2.017-.014.294.089.356.362.349.725-.021,1.449,0,2.181-.014.219-.007.314.041.3.28a11.053,11.053,0,0,0,0,1.169c.014.26-.089.308-.328.3-.738-.014-1.477,0-2.222-.007-.219-.007-.294.034-.294.28.014,1.436,0,2.872.007,4.314.007.889.52,1.292,1.395,1.115a2.742,2.742,0,0,0,.8-.26c.192-.1.267-.062.321.15a10.294,10.294,0,0,0,.4,1.258c.089.226-.007.3-.171.4a7.14,7.14,0,0,1-1.764.588Z" transform="translate(-1394.255 -490.975)"/>
  <path id="Caminho_19050" data-name="Caminho 19050" d="M1817.285,702.887a.067.067,0,0,1-.007.062h-.971c0-.021-.007-.048-.007-.068A.842.842,0,0,1,1817.285,702.887Z" transform="translate(-1692.728 -655.354)" fill="#8d8d8d"/>
  <path id="Caminho_19051" data-name="Caminho 19051" d="M730.406,233.806a5.077,5.077,0,0,1,4.814-2.215,4.845,4.845,0,0,1,4.253,3.1,10.141,10.141,0,0,1,.848-1.3,5.025,5.025,0,0,1,5.388-1.634,4.724,4.724,0,0,1,3.583,3.836,6.873,6.873,0,0,1,.171,1.675q-.01,4.4.007,8.793c0,.328-.075.431-.417.424-1.737-.021-3.473-.014-5.21,0-.321,0-.4-.089-.4-.4.014-2.325.007-4.649.007-6.974a3.562,3.562,0,0,0-.109-1.039,1.56,1.56,0,0,0-1.463-1.231,1.663,1.663,0,0,0-1.634.9,3.236,3.236,0,0,0-.349,1.675c-.007,2.229-.007,4.465,0,6.694,0,.294-.062.39-.376.383q-2.626-.021-5.251,0c-.315,0-.4-.068-.4-.4.014-2.393.007-4.786.007-7.179a2.846,2.846,0,0,0-.068-.677,1.621,1.621,0,0,0-1.532-1.4,1.767,1.767,0,0,0-1.723,1.149,3.077,3.077,0,0,0-.226,1.217c0,2.3-.007,4.595.007,6.892,0,.321-.089.4-.4.4q-2.626-.021-5.251,0c-.267,0-.369-.055-.369-.349q.01-6.974,0-13.955c0-.267.041-.369.342-.362q2.667.021,5.333,0c.294,0,.356.089.342.362-.021.52-.007,1.039-.007,1.559A.83.83,0,0,1,730.406,233.806Z" transform="translate(-675.392 -216.398)"/>
  <path id="Caminho_19052" data-name="Caminho 19052" d="M542.89,234.006a12.61,12.61,0,0,0,.971-.93,5.161,5.161,0,0,1,3.207-1.32c.267-.021.342.055.342.328q-.021,2.4,0,4.793c0,.28-.082.273-.321.246a5.6,5.6,0,0,0-2.427.178,2.375,2.375,0,0,0-1.764,2.407c-.007,2.174-.007,4.355.007,6.53,0,.321-.055.438-.4.431q-2.626-.031-5.244-.007c-.287,0-.356-.082-.356-.356q.01-6.974,0-13.941c0-.267.041-.369.342-.362,1.778.014,3.549.014,5.326,0,.253,0,.349.055.335.328C542.876,232.885,542.89,233.446,542.89,234.006Z" transform="translate(-500.805 -216.585)"/>
  <path id="Caminho_19053" data-name="Caminho 19053" d="M1646.773,12.341a4,4,0,0,0,.246,1.374,12.449,12.449,0,0,1-.048,4.745q-.236,1.405-.451,2.81c-.068.424-.178.492-.554.273a3.788,3.788,0,0,1-2.085-4.28,13.189,13.189,0,0,1,1.422-4.41,4.284,4.284,0,0,0,.479-2.673,1.9,1.9,0,0,1,0-.28,13.179,13.179,0,0,1,2.461,1.456,7.539,7.539,0,0,1,2.619,3.193,5.21,5.21,0,0,1-.451,4.841,7.748,7.748,0,0,1-2.557,2.448c-.089.055-.185.137-.294.082-.144-.068-.082-.219-.068-.321.109-.957.246-1.914.355-2.872a10.31,10.31,0,0,0-.513-5.531A2.432,2.432,0,0,0,1646.773,12.341Z" transform="translate(-1532.055 -9.9)" fill="#529d46"/>
  <path id="Caminho_19054" data-name="Caminho 19054" d="M1769.963,568.463c-.328,0-.656,0-.985-.007a6.2,6.2,0,0,1-3.289-1.149c-.2-.144-.239-.253-.109-.472.246-.431.444-.882.684-1.354a5.663,5.663,0,0,0,2.749,1.149,3.354,3.354,0,0,0,1.279-.034.917.917,0,0,0,.786-.711.9.9,0,0,0-.506-.964,5.027,5.027,0,0,0-1.265-.5,14.074,14.074,0,0,1-1.593-.54,2.594,2.594,0,0,1-1.778-2.605A2.756,2.756,0,0,1,1768,558.7a6.325,6.325,0,0,1,5,.622c.2.109.267.191.13.424a8.286,8.286,0,0,0-.588,1.183c-.1.253-.2.226-.4.116a5.448,5.448,0,0,0-2.762-.738h-.123c-.574.027-1,.294-1.073.684-.089.458.137.827.732,1.053.684.26,1.395.451,2.085.7a3.618,3.618,0,0,1,2,1.347,2.757,2.757,0,0,1-1.648,4.123A4.868,4.868,0,0,1,1769.963,568.463Z" transform="translate(-1645.407 -520.93)"/>
  <path id="Caminho_19055" data-name="Caminho 19055" d="M1660.3,40.341V38.946c0-.171.13-.219.239-.287a12.064,12.064,0,0,1,2.256-1.046,9.575,9.575,0,0,0,2.345-1.367,4.059,4.059,0,0,0,1.046-1.4,14.715,14.715,0,0,1,6.167-6.024,1.4,1.4,0,0,1,.568-.191c-.417.41-.827.82-1.245,1.224a38.331,38.331,0,0,0-3.631,3.672,17.541,17.541,0,0,0-1.409,2.12c-.239.417-.157.588.308.663a5.21,5.21,0,0,0,5.217-2.017,11.5,11.5,0,0,0,1.764-3.665,10.448,10.448,0,0,1,1.716-3.5c.335-.41.26-.554-.267-.636a10.575,10.575,0,0,0-2.229-.273,6.775,6.775,0,0,0-3.487,1.3,6.685,6.685,0,0,1-1.648.978c-.314.1-.636.082-.944.157a.182.182,0,0,1-.226-.116c-.034-.1.048-.144.1-.205a7.079,7.079,0,0,1,1.6-1.135,10.909,10.909,0,0,1,5.49-1.6,12.138,12.138,0,0,1,3.166.5c.3.075.28.239.137.438-.383.513-.773,1.019-1.162,1.532a11.424,11.424,0,0,0-1.805,4.02,6.6,6.6,0,0,1-5.7,4.984c-.95.123-1.9.041-2.851.191a8.612,8.612,0,0,0-3.357,1.367A14.55,14.55,0,0,0,1660.3,40.341Z" transform="translate(-1547.394 -24.519)" fill="#509e46"/>
  <path id="Caminho_19056" data-name="Caminho 19056" d="M1394.172,560.473c.157-.034.185-.137.233-.205a3.634,3.634,0,0,1,2.851-1.655c.226-.027.308.027.3.274-.021.561-.014,1.128,0,1.689.007.233-.041.335-.308.328a3.489,3.489,0,0,0-.957.109,2.686,2.686,0,0,0-2.113,2.639c-.007,1.5-.014,3.008,0,4.513,0,.287-.048.4-.369.383-.574-.027-1.156-.021-1.737-.007-.212.007-.273-.055-.273-.267q.01-4.656,0-9.306c0-.205.055-.28.273-.28.6.014,1.21.014,1.812,0,.246-.007.287.1.287.308C1394.166,559.481,1394.172,559.967,1394.172,560.473Z" transform="translate(-1297.253 -521.089)"/>
  <path id="Caminho_19057" data-name="Caminho 19057" d="M1614.618,568.612c-.39-.137-.8-.157-1.183-.328a2.938,2.938,0,0,1-1.121-4.622,3.423,3.423,0,0,1,2.256-1.019,29.437,29.437,0,0,1,3.385-.062c.246,0,.308-.055.3-.308-.014-1.08-.745-1.75-2-1.805a5.3,5.3,0,0,0-2.913.759c-.246.144-.328.1-.437-.144-.171-.376-.376-.738-.574-1.1-.061-.116-.15-.219.041-.321a7.577,7.577,0,0,1,5.887-.875,3.139,3.139,0,0,1,2.325,3.077c.014,2.1.007,4.191.02,6.29,0,.239-.041.328-.3.321-.581-.021-1.156-.014-1.737-.007-.219.007-.321-.041-.3-.287.02-.267.007-.533.007-.9a3.822,3.822,0,0,1-2.072,1.21c-.205.048-.431-.014-.615.123Zm.28-4.369c-.67.157-.978.438-1.019.957a1.267,1.267,0,0,0,.848,1.429,2.914,2.914,0,0,0,1.347.13,2.123,2.123,0,0,0,2.188-2.325c-.007-.212-.061-.273-.273-.267-.458.014-.909.007-1.463.007A9.673,9.673,0,0,0,1614.9,564.243Z" transform="translate(-1502.027 -521.017)"/>
  <path id="Caminho_19058" data-name="Caminho 19058" d="M1389.685,165.453v-.39c0-1.962.007-3.925-.007-5.887,0-.3.075-.376.383-.376q2.626.021,5.251,0c.3,0,.383.075.376.376q-.01,9.579,0,19.152c0,.315-.1.376-.39.369q-2.626-.021-5.251,0c-.274,0-.39-.055-.369-.349.027-.342.007-.691.007-1.026-.123-.068-.164.021-.219.075a4.931,4.931,0,0,1-4.526,1.443c-3.426-.444-5.285-3.063-5.661-6.174a9.963,9.963,0,0,1,.568-4.978,6.174,6.174,0,0,1,8.218-3.337,5.237,5.237,0,0,1,1.532,1.149A.371.371,0,0,1,1389.685,165.453Zm-4.109,7.6a1.963,1.963,0,0,0,1.778,1.238,1.9,1.9,0,0,0,1.928-1.114,3.875,3.875,0,0,0,.089-3.268,1.988,1.988,0,0,0-1.921-1.333,2.084,2.084,0,0,0-1.935,1.388,3.554,3.554,0,0,0-.26,1.4A3.747,3.747,0,0,0,1385.576,173.049Z" transform="translate(-1285.504 -148.619)"/>
  <path id="Caminho_19059" data-name="Caminho 19059" d="M9.014,184.488c0-2.995.007-6-.007-8.991,0-.321.082-.4.4-.4,2.947.014,5.894-.007,8.841.014a8.886,8.886,0,0,1,4.075.937,5.624,5.624,0,0,1,2.974,3.713,8.376,8.376,0,0,1-.116,4.643,6.176,6.176,0,0,1-4.855,4.321,20.191,20.191,0,0,1-4.54.26c-.561.007-.561,0-.561.54,0,1.306-.021,2.605.014,3.911.007.39-.123.451-.472.451q-2.646-.021-5.292,0c-.356.007-.472-.062-.472-.451C9.021,190.45,9.014,187.469,9.014,184.488Zm6.208-.424c0,.178.027.26.239.253.738-.014,1.477.014,2.222-.007a1.929,1.929,0,0,0,1.887-1.463,3.392,3.392,0,0,0,.1-1.115,1.881,1.881,0,0,0-1.689-1.887A19.041,19.041,0,0,0,15.4,179.8c-.226-.007-.171.164-.171.287-.007.656,0,1.313,0,1.976S15.229,183.394,15.222,184.064Z" transform="translate(-9 -163.805)"/>
  <path id="Caminho_19060" data-name="Caminho 19060" d="M269.04,232.592a9.157,9.157,0,0,1,5.306,1.456,6.651,6.651,0,0,1,2.892,4.725,8.186,8.186,0,0,1-.431,4.308,6.625,6.625,0,0,1-4.26,3.986,10.076,10.076,0,0,1-8.157-.526,6.66,6.66,0,0,1-3.562-5.449,7.783,7.783,0,0,1,.848-4.752,7.193,7.193,0,0,1,5.162-3.549A10.348,10.348,0,0,1,269.04,232.592Zm1.976,6.113a2,2,0,0,0-1.853-1.381,1.9,1.9,0,0,0-1.9,1.046,3.776,3.776,0,0,0-.021,3.59,2.03,2.03,0,0,0,3.521.15,3.361,3.361,0,0,0,.492-2A3.111,3.111,0,0,0,271.016,238.7Z" transform="translate(-243.55 -217.365)"/>
  <path id="Caminho_19061" data-name="Caminho 19061" d="M1135.326,245.256c-.328.308-.561.568-.834.779a5.493,5.493,0,0,1-4.041.991,4.669,4.669,0,0,1-3.131-1.463c-1.4-1.525-1.559-5,.458-6.441a5.96,5.96,0,0,1,2.721-1.005,35.59,35.59,0,0,1,4.438-.089c.362-.007.438-.1.335-.438a1.748,1.748,0,0,0-1.573-1.183,9.391,9.391,0,0,0-3.46.369c-.479.116-.95.28-1.422.438-.157.055-.267.082-.335-.137-.376-1.183-.759-2.366-1.169-3.535-.082-.239.021-.273.178-.328a21.048,21.048,0,0,1,7.4-1.306,7.626,7.626,0,0,1,4.335,1.258,4.469,4.469,0,0,1,1.969,3.7c.055,3.227.021,6.454.034,9.675,0,.212-.062.273-.273.273-1.778-.007-3.556-.014-5.333,0-.267,0-.314-.1-.3-.328C1135.339,246.1,1135.326,245.727,1135.326,245.256Zm-1.258-4.485c-.362,0-.725-.014-1.087.007a1.019,1.019,0,0,0-1.053.909,1.25,1.25,0,0,0,.773,1.5,2.437,2.437,0,0,0,2.55-.95.4.4,0,0,0,.075-.178,2.857,2.857,0,0,0-.062-1.217c-.116-.219-.643-.041-.984-.068a1.1,1.1,0,0,0-.212,0Z" transform="translate(-1049.872 -216.723)"/>
  <path id="Caminho_19062" data-name="Caminho 19062" d="M1662.465,240.914c-1.456,0-2.906.014-4.355-.007-.424-.007-.362.13-.226.4a2.587,2.587,0,0,0,3.029,1.32,4.462,4.462,0,0,0,1.99-1c.219-.191.335-.2.54.007.868.875,1.744,1.75,2.639,2.6.212.205.144.294-.02.458a8.117,8.117,0,0,1-4.684,2.291,10.27,10.27,0,0,1-5.237-.465,6.589,6.589,0,0,1-4.39-5.607,8.612,8.612,0,0,1,.363-4.123,6.628,6.628,0,0,1,4.376-4.28,9.268,9.268,0,0,1,5.976.007,6.836,6.836,0,0,1,4.629,5.449,10.675,10.675,0,0,1,.212,2.6c-.007.26-.1.362-.383.356-1.477-.014-2.967-.007-4.458,0Zm-1.374-2.769c.116,0,.191-.014.205-.164a1.987,1.987,0,0,0-.868-1.709,1.689,1.689,0,0,0-1.853.068,2.712,2.712,0,0,0-.971,1.805Z" transform="translate(-1539.337 -216.826)"/>
  <path id="Caminho_19063" data-name="Caminho 19063" d="M1051.821,521.8c0-2.031,0-4.055-.007-6.085,0-.219.02-.335.294-.328,1.921.027,3.849-.062,5.771.048a4.472,4.472,0,0,1,3.562,1.73,4.395,4.395,0,0,1,.773,2.933,4.208,4.208,0,0,1-1.7,3.439,5.074,5.074,0,0,1-2.872.909c-1.005.034-2.017.027-3.029.007-.3-.007-.39.062-.383.376.02,1.019,0,2.044.014,3.063.007.287-.041.4-.362.383-.574-.027-1.156-.027-1.737,0-.294.014-.349-.089-.349-.362C1051.821,525.881,1051.821,523.837,1051.821,521.8Zm2.427.26c0,.2.048.294.267.287,1.073-.034,2.154.062,3.22-.075a2.309,2.309,0,0,0,1.819-1.032,2.346,2.346,0,0,0-1.661-3.637,29.186,29.186,0,0,0-3.46-.082c-.219-.007-.191.13-.191.267v2.133C1054.248,520.637,1054.255,521.348,1054.248,522.059Z" transform="translate(-980.5 -480.816)"/>
  <path id="Caminho_19064" data-name="Caminho 19064" d="M1223.184,569.049c-.355,0-.711,0-1.067-.007a4.864,4.864,0,0,1-4.622-5.819c.383-2.776,2.742-4.294,5.47-4.15a5.246,5.246,0,0,1,3.063,1.053,4.811,4.811,0,0,1,1.791,4.308,4.672,4.672,0,0,1-1.593,3.4A5,5,0,0,1,1223.184,569.049Zm-3.33-4.5a2.794,2.794,0,0,0,4.246,2.154,2.942,2.942,0,0,0,1.326-3.022,2.757,2.757,0,0,0-3.535-2.509,2.8,2.8,0,0,0-2.072,2.892C1219.834,564.228,1219.841,564.392,1219.854,564.55Z" transform="translate(-1134.811 -521.515)"/>
</svg>
