<svg id="refrigeracao-mota" xmlns="http://www.w3.org/2000/svg" width="130.046" height="47.283" viewBox="0 0 130.046 47.283">
  <g id="Grupo_27672" data-name="Grupo 27672">
    <path id="Caminho_19029" data-name="Caminho 19029" d="M17.481,252.152v2.3q0,8.2.007,16.4c0,.506-.089.677-.636.664-2.217-.034-4.44-.034-6.657,0-.52.007-.6-.171-.6-.629q.021-15.136,0-30.273c0-.472.1-.636.6-.629,2.36.027,4.72.014,7.074.014a3.228,3.228,0,0,1,2.415,1.361,17.207,17.207,0,0,1,2.408,3.92c1.067,2.148,2.148,4.289,3.27,6.527,1.17-2.333,2.3-4.57,3.414-6.821a16.568,16.568,0,0,1,2.292-3.667A3.5,3.5,0,0,1,34,239.968c2.169.068,4.344.034,6.513.014.445-.007.643.062.643.588q-.031,15.167,0,30.341c0,.52-.171.6-.629.588-2.217-.021-4.44-.027-6.657,0-.493.007-.616-.123-.616-.616q.021-9.072.007-18.15a1.145,1.145,0,0,0-.137-.636c-.458.9-.917,1.8-1.368,2.7-1.382,2.75-2.771,5.5-4.118,8.264a.873.873,0,0,1-.958.575,21.867,21.867,0,0,0-2.593.007c-.588.048-.8-.226-1.026-.677-1.731-3.5-3.489-7.005-5.24-10.508-.062-.123-.137-.233-.205-.349Z" transform="translate(-9.599 -224.231)" fill="#012839"/>
    <path id="Caminho_19030" data-name="Caminho 19030" d="M1020.318,242.984c-.164,3.5-.616,6.93-3.51,9.407-1.922,1.649-4.228,1.8-6.615,1.437a30.975,30.975,0,0,1-7.04-2.436,14.524,14.524,0,0,0-7.854-1.177,8.832,8.832,0,0,0-6.2,3.893,4.614,4.614,0,0,1-.294.356c.1-3.77.335-7.32,3.421-9.851a8.51,8.51,0,0,1,5.569-1.717,26.723,26.723,0,0,1,9.318,1.97,22.27,22.27,0,0,0,4.994,1.512A8.483,8.483,0,0,0,1020.318,242.984Z" transform="translate(-921.81 -226.96)" fill="#012839"/>
    <path id="Caminho_19031" data-name="Caminho 19031" d="M1161.612,423.508c0-3.058.014-6.116-.014-9.174-.007-.6.226-.664.691-.52a14.239,14.239,0,0,1,2.716,1.272,9.892,9.892,0,0,0,4.091,1.314c.376.027.451.164.451.506q-.02,7.984,0,15.967c0,.376-.075.534-.493.527-2.312-.021-4.625-.027-6.93,0-.493.007-.506-.212-.506-.581Q1161.608,428.16,1161.612,423.508Z" transform="translate(-1082.786 -386.125)" fill="#012839"/>
    <path id="Caminho_19032" data-name="Caminho 19032" d="M11.187,32.716c.363.021.629.041.9.048.848.014,1.32-.4,1.32-1.17.007-.807-.308-1.074-1.266-1.074-1.156-.014-1.156-.014-1.156,1.163,0,1.286-.034,2.565.021,3.852.027.657-.356.547-.746.568-.424.021-.684,0-.67-.568.041-1.84.027-3.687.007-5.528-.007-.41.075-.582.527-.561,1.047.048,2.1-.075,3.147.068a1.574,1.574,0,0,1,1.519,1.738v.493c0,1.2-.219,1.457-1.382,1.683-.13.027-.26.048-.445.075.561.848,1.1,1.656,1.642,2.477-1.17.322-1.409.226-1.963-.725C12.172,34.44,11.7,33.613,11.187,32.716Z" transform="translate(-9.592 -28.11)" fill="#012839"/>
    <path id="Caminho_19033" data-name="Caminho 19033" d="M769.368,50.479c-.205-.7.027-1.033.766-1.122a6.824,6.824,0,0,1,2.634.007,1.287,1.287,0,0,1,1.129,1.45c.007,1.026,0,2.052.007,3.085,0,.835-.636.356-.978.458-.363.109-.547-.055-.52-.479.034-.65.007-1.3.007-2.032-.6.205-1.149.383-1.69.582-.349.13-.65.349-.547.773s.493.445.848.472c.109.007.239-.075.342-.041.164.048.458-.274.479.109.014.239.089.588-.315.684a3.137,3.137,0,0,1-1.861-.034,1.466,1.466,0,0,1-1-1.32,1.327,1.327,0,0,1,.883-1.307,12.676,12.676,0,0,1,2.08-.588c.322-.089.78-.144.691-.623-.075-.4-.465-.472-.841-.479A6.772,6.772,0,0,0,769.368,50.479Z" transform="translate(-716.738 -46.543)" fill="#012839"/>
    <path id="Caminho_19034" data-name="Caminho 19034" d="M598.737,50.482c-.178-.794.151-1.04.841-1.122a7.029,7.029,0,0,1,2.565.014,1.211,1.211,0,0,1,1.095,1.382c.007,1.054-.021,2.1.007,3.154.021.739-.52.4-.835.458s-.657.082-.616-.458,0-1.122.007-1.683c.007-.28-.082-.383-.369-.28-.438.164-.883.294-1.313.465-.342.13-.643.342-.554.773.1.479.52.465.889.493.109.007.233-.075.342-.062.151.014.4-.226.445.082.034.26.021.623-.294.7a2.726,2.726,0,0,1-2.169-.164,1.348,1.348,0,0,1,0-2.394,8.11,8.11,0,0,1,1.991-.623c.157-.041.315-.082.465-.123.26-.075.486-.178.465-.513s-.287-.417-.527-.472a3.884,3.884,0,0,0-1.656.144C599.257,50.318,599.018,50.4,598.737,50.482Z" transform="translate(-557.792 -46.56)" fill="#012839"/>
    <path id="Caminho_19035" data-name="Caminho 19035" d="M192.15,10.3c-.062.28-.116.527-.178.773-.055.219-.116.349-.417.267-.458-.116-.746.1-.794.609-.034.4.055.629.52.561.4-.062.643.014.616.534-.021.438-.055.739-.6.65-.438-.075-.547.13-.54.547.027,1.142-.021,2.285.021,3.427.021.568-.26.6-.677.561-.363-.027-.794.151-.766-.54.055-1.163.007-2.333.021-3.5,0-.322-.014-.527-.431-.513-.568.014-.3-.452-.356-.725-.062-.3.041-.5.4-.452.233.034.356-.014.39-.315.205-1.929.239-1.95,2.2-1.929C191.753,10.263,191.938,10.284,192.15,10.3Z" transform="translate(-176.312 -10.234)" fill="#012839"/>
    <path id="Caminho_19036" data-name="Caminho 19036" d="M695.382,49.616a3.252,3.252,0,0,0-1.868-.287.927.927,0,0,0-.958.985c-.007.417-.014.841,0,1.259.027.773.356,1.081,1.142,1.047.4-.021.78-.123,1.177-.151.171-.014.472-.26.506.055.034.274.2.718-.219.855a3.3,3.3,0,0,1-2.962-.164c-1.013-.657-1.019-3.858-.014-4.536a3.256,3.256,0,0,1,2.634-.246C695.334,48.542,695.451,49.048,695.382,49.616Z" transform="translate(-644.79 -45.653)" fill="#012839"/>
    <path id="Caminho_19037" data-name="Caminho 19037" d="M257.206,49.147c.1-.068.171-.123.239-.178.267-.185.6-.452.876-.267s.055.6.1.91c.062.417-.253.39-.513.486a1.111,1.111,0,0,0-.766,1.122c-.007.766-.021,1.532,0,2.306.021.623-.424.4-.725.431s-.65.089-.636-.452c.027-1.4,0-2.791.027-4.187.007-.246-.205-.691.328-.657C256.529,48.7,257.11,48.346,257.206,49.147Z" transform="translate(-238.933 -45.97)" fill="#012839"/>
    <path id="Caminho_19038" data-name="Caminho 19038" d="M542.068,49.125a2.1,2.1,0,0,0,.2-.123c.28-.219.691-.513.93-.287.26.246.1.746.075,1.136-.014.219-.246.164-.39.205a1.113,1.113,0,0,0-.869,1.122c-.007.725-.062,1.45,0,2.169.062.684-.342.588-.773.623-.554.048-.6-.226-.588-.664.021-1.327,0-2.661.021-3.988,0-.253-.185-.691.342-.657C541.4,48.687,541.966,48.359,542.068,49.125Z" transform="translate(-504.311 -45.969)" fill="#012839"/>
    <path id="Caminho_19039" data-name="Caminho 19039" d="M314.1,51.56c0,.7-.034,1.4.014,2.1.034.513-.205.609-.623.547-.335-.048-.814.219-.8-.5.041-1.45.034-2.894,0-4.344-.021-.691.445-.424.753-.452.328-.027.712-.13.67.472C314.059,50.11,314.1,50.835,314.1,51.56Z" transform="translate(-291.955 -46.222)" fill="#012839"/>
    <path id="Caminho_19040" data-name="Caminho 19040" d="M784.872,10.12a3.952,3.952,0,0,1,1.471.458c.274.1.431.192.54-.219s.547-.212.828-.192c.37.027.212.328.178.54a.811.811,0,0,1-.835.691,2.568,2.568,0,0,1-1.4-.363c-.28-.137-.575-.417-.821.157-.144.342-.664.2-.944.089s-.1-.445.007-.67A.926.926,0,0,1,784.872,10.12Z" transform="translate(-730.784 -10.09)" fill="#012839"/>
    <path id="Caminho_19041" data-name="Caminho 19041" d="M313.2,10c.547-.13.67.089.684.643.014.616-.212.691-.753.718-.643.027-.65-.267-.691-.773C312.393,9.929,312.749,9.949,313.2,10Z" transform="translate(-291.718 -9.968)" fill="#012839"/>
    <path id="Caminho_19042" data-name="Caminho 19042" d="M696.46,132.605c-.588,1.252-.848,1.389-2.36,1.177C694.88,133.241,695.311,132.256,696.46,132.605Z" transform="translate(-647.271 -124.147)" fill="#012839"/>
    <path id="Caminho_19043" data-name="Caminho 19043" d="M1450.1,271.522c1.238-3.968,2.449-7.833,3.66-11.692,1.519-4.844,3.024-9.687,4.57-14.517,1.156-3.612,3.359-5.22,7.156-5.288,1.936-.034,3.879.007,5.815-.027.424-.007.547.171.657.52q4.8,15.393,9.619,30.779a.805.805,0,0,1,.021.144c-.151.144-.342.068-.513.068-2.244.007-4.488-.014-6.725.021-.506.007-.677-.171-.8-.616-.458-1.587-.965-3.161-1.437-4.748-.109-.376-.24-.561-.7-.554q-5.5.041-11,0a.668.668,0,0,0-.766.568c-.493,1.628-1.012,3.243-1.505,4.871-.089.294-.15.479-.534.479C1455.135,271.515,1452.659,271.522,1450.1,271.522Zm15.728-25.032c-1.327,4.242-2.634,8.483-3.982,12.711-.171.527.041.527.431.52,2.4-.007,4.809-.014,7.211.007.486.007.609-.1.452-.6-1.327-4.242-2.627-8.49-3.954-12.793C1465.89,246.435,1465.842,246.456,1465.828,246.49Z" transform="translate(-1351.551 -224.26)" fill="#012839"/>
    <path id="Caminho_19044" data-name="Caminho 19044" d="M555.711,255.5c-.089,2,.185,4.488-.144,6.951a9.3,9.3,0,0,1-4.036,7.033,8.439,8.439,0,0,1-4.638,1.334c-3.154.021-6.3.007-9.455.007a8.619,8.619,0,0,1-9.058-7.519,16.2,16.2,0,0,1-.281-2.99c.007-3.5,0-7.005,0-10.508a12.512,12.512,0,0,1,1.45-6.4,7.466,7.466,0,0,1,6.226-3.961,90.435,90.435,0,0,1,12.1-.014,7.879,7.879,0,0,1,7.279,6.068,14.9,14.9,0,0,1,.554,4.071C555.718,251.385,555.711,253.211,555.711,255.5ZM535,255.038c0,1.963-.014,3.927,0,5.883a3.767,3.767,0,0,0,4.03,4.009c1.909-.089,3.831-.1,5.747,0a3.731,3.731,0,0,0,4.023-3.941q.051-5.952-.007-11.911a3.691,3.691,0,0,0-3.947-3.858c-2.073.089-4.16.027-6.232.014a3.232,3.232,0,0,0-2.4.951,4.136,4.136,0,0,0-1.2,3.038c-.007,1.936,0,3.879,0,5.815Z" transform="translate(-492.628 -223.552)" fill="#012839"/>
    <path id="Caminho_19045" data-name="Caminho 19045" d="M351.918,55.663c2.675.67,3.51.137,3.25-2.011a2.339,2.339,0,0,1-1.833.677,2.138,2.138,0,0,1-1.957-1.868c-.151-1.7.417-2.784,1.7-3.222a8.155,8.155,0,0,1,3.256-.027c.246.014.219.2.219.356,0,1.936.027,3.872-.014,5.808a1.511,1.511,0,0,1-1.382,1.526,6.426,6.426,0,0,1-2.771-.151C351.87,56.621,352.158,56.088,351.918,55.663Zm3.058-5.494a1.782,1.782,0,0,0-2.066.7,1.728,1.728,0,0,0,.575,2.21,1,1,0,0,0,1.211-.2,2.223,2.223,0,0,0,.452-1.758C355.052,50.854,355.38,50.409,354.976,50.17Z" transform="translate(-327.973 -46.378)" fill="#012839"/>
    <path id="Caminho_19046" data-name="Caminho 19046" d="M107.661,51.829c-.493,0-.978.014-1.471-.007-.417-.021-.458.151-.363.506a1.418,1.418,0,0,0,1.286,1.013,3.924,3.924,0,0,0,1.519-.137c.185-.034.493-.239.5.014s.151.7-.253.862a4.235,4.235,0,0,1-3.619-.342,2.678,2.678,0,0,1-.773-2.928,2.632,2.632,0,0,1,3.038-1.765,2.273,2.273,0,0,1,2.046,2.271c.014.4-.116.54-.513.52C108.592,51.815,108.127,51.829,107.661,51.829Zm-.67-.773c.212,0,.424.014.629-.007.171-.014.4.109.479-.144a.575.575,0,0,0-.15-.52,1.248,1.248,0,0,0-1.806-.075c-.171.164-.349.363-.267.609.1.274.363.1.554.123a3.076,3.076,0,0,0,.561.014Z" transform="translate(-97.878 -46.347)" fill="#012839"/>
    <path id="Caminho_19047" data-name="Caminho 19047" d="M450.723,52.933c.13.787-.157,1.115-.9,1.184a6.492,6.492,0,0,1-1.669-.007A2.354,2.354,0,0,1,446,51.989a2.582,2.582,0,0,1,1.553-2.908,2.783,2.783,0,0,1,3.181.725,1.957,1.957,0,0,1,.322.616c.349,1.074.226,1.272-.855,1.272-.814,0-1.635.021-2.449,0-.349-.007-.4.13-.342.417.13.684.725,1.1,1.635,1.136A7.069,7.069,0,0,0,450.723,52.933Zm-2.169-2.018a1.418,1.418,0,0,0,.417-.007c.253-.075.7.239.746-.205a.819.819,0,0,0-.711-.828,1.389,1.389,0,0,0-1.067.164c-.274.164-.513.438-.452.725.068.315.424.116.657.151a2.74,2.74,0,0,0,.41,0Z" transform="translate(-416.113 -46.206)" fill="#012839"/>
    <path id="Caminho_19048" data-name="Caminho 19048" d="M863.99,51.714c-.034-2.976,1.136-2.757,3.291-2.634a1.291,1.291,0,0,1,1.163,1.06,5.864,5.864,0,0,1,0,3.038,1.332,1.332,0,0,1-1.218,1.081c-.164.021-.322.062-.486.068C864.585,54.465,863.99,53.9,863.99,51.714Zm1.512,1.355a1.376,1.376,0,0,0,2.135-1.252,3.1,3.1,0,0,0-.123-1.033.823.823,0,0,0-.623-.6c-1.293-.342-1.916.137-1.922,1.56C864.989,52.193,864.92,52.775,865.5,53.069Z" transform="translate(-805.538 -46.349)" fill="#012839"/>
  </g>
</svg>
