<svg id="Grupo_28620" data-name="Grupo 28620" xmlns="http://www.w3.org/2000/svg" xmlns:xlink="http://www.w3.org/1999/xlink" width="95" height="25.376" viewBox="0 0 95 25.376">
  <defs>
    <clipPath id="clip-path">
      <rect id="Retângulo_5837" data-name="Retângulo 5837" width="95" height="25.376" fill="#9292ff"/>
    </clipPath>
  </defs>
  <g id="Grupo_28601" data-name="Grupo 28601" clip-path="url(#clip-path)">
    <path id="Caminho_21418" data-name="Caminho 21418" d="M92.566,28.231l-.26-.17a2.157,2.157,0,0,0-1.234-.359c-.829.008-1.659,0-2.488,0a1.6,1.6,0,0,0-.431.052.418.418,0,0,0-.355.459c0,.111,0,.222,0,.333a.418.418,0,0,0,.289.435,2.114,2.114,0,0,0,.7.146c.817.061,1.635.112,2.453.171a4.051,4.051,0,0,1,1,.179,2.294,2.294,0,0,1,1.6,1.748,5.15,5.15,0,0,1,.035,1.986,2.381,2.381,0,0,1-1.922,2.019,4.51,4.51,0,0,1-1.141.141q-1.423.006-2.847,0a3.974,3.974,0,0,1-1.09-.13,2.049,2.049,0,0,1-.5-.2c-.366-.22-.727-.448-1.094-.665-.1-.06-.125-.106-.063-.217q.434-.768.85-1.547c.056-.1.11-.1.2-.056.3.16.607.312.909.471a1.448,1.448,0,0,0,.612.167c1.051.05,2.1.044,3.151.009a.949.949,0,0,0,.276-.05.5.5,0,0,0,.369-.47c.01-.179.006-.359,0-.537a.482.482,0,0,0-.279-.428,1.483,1.483,0,0,0-.615-.162q-1.2-.087-2.4-.163a3.845,3.845,0,0,1-1.418-.3,2.331,2.331,0,0,1-1.392-1.973,5.065,5.065,0,0,1,.018-1.4,2.359,2.359,0,0,1,1.772-1.951,4.806,4.806,0,0,1,1.415-.2c.872-.006,1.744-.009,2.616,0a3.212,3.212,0,0,1,2.153.821.175.175,0,0,1,.041.272c-.315.517-.617,1.04-.937,1.585" transform="translate(-39.64 -11.888)" fill="#9292ff"/>
    <path id="Caminho_21419" data-name="Caminho 21419" d="M120.6,30.568V26.109c0-.051,0-.1,0-.153-.01-.1.023-.164.14-.153.051,0,.1,0,.153,0h6.618c.32,0,.289-.034.289.286,0,.538,0,1.076,0,1.615,0,.279.006.252-.248.252q-2.167,0-4.335,0c-.315,0-.273-.042-.275.266,0,.359.006.718,0,1.076,0,.142.048.167.175.166q1.642-.006,3.283,0c.333,0,.288-.042.29.28,0,.564,0,1.128,0,1.692,0,.176,0,.18-.183.18h-3.257a1.548,1.548,0,0,1-.18,0c-.111-.013-.126.046-.126.136q0,.666,0,1.333c0,.083.019.129.113.122.059-.005.12,0,.179,0h4.284c.06,0,.12,0,.179,0,.1-.009.132.038.13.135,0,.35,0,.7,0,1.051,0,.273,0,.547,0,.82,0,.1-.021.163-.14.149a1.345,1.345,0,0,0-.154,0h-6.694c-.28,0-.238.019-.239-.253q0-1.487,0-2.973Z" transform="translate(-56.115 -12.006)" fill="#9292ff"/>
    <path id="Caminho_21420" data-name="Caminho 21420" d="M76.811,33.206a.884.884,0,0,1,.018.106c0,.623,0,1.247,0,1.871,0,.125-.023.2-.166.176a.934.934,0,0,0-.128,0H69.894c-.06,0-.12,0-.18,0-.078,0-.107-.03-.1-.106,0-.059,0-.119,0-.179v-9c0-.275,0-.275.267-.275h6.643c.33,0,.279-.032.28.29,0,.547,0,1.094,0,1.64,0,.22,0,.222-.224.222H72.347c-.409,0-.409,0-.409.4,0,.273,0,.546,0,.82,0,.325-.052.29.278.29,1.026,0,2.052,0,3.078,0,.125,0,.289-.061.365.035.059.076.023.229.023.347q0,.795,0,1.589c0,.176,0,.179-.181.179H72.219c-.059,0-.119,0-.179,0-.078,0-.1.039-.1.111q0,.691,0,1.384c0,.064.029.093.091.094h4.782Z" transform="translate(-32.392 -12.007)" fill="#9292ff"/>
    <path id="Caminho_21421" data-name="Caminho 21421" d="M148.089,25.8h3.949c.059,0,.12,0,.179,0,.1-.007.132.044.13.14,0,.213,0,.427,0,.64,0,.392,0,.785,0,1.178,0,.192,0,.2-.2.2-.838,0-1.675,0-2.513,0h-.179c-.242,0-.22-.019-.22.22q0,3.419,0,6.839c0,.06,0,.12,0,.179.012.115-.019.167-.151.166-.684-.006-1.368,0-2.051,0-.113,0-.155-.038-.143-.148.006-.059,0-.119,0-.179V28.321c0-.043,0-.086,0-.128,0-.262.025-.237-.228-.237h-1.769c-.29,0-.581,0-.872,0-.216,0-.218,0-.218-.228,0-.572,0-1.144,0-1.716,0-.211-.016-.21.209-.209q1.538,0,3.077,0h1" transform="translate(-66.915 -12.006)" fill="#9292ff"/>
    <path id="Caminho_21422" data-name="Caminho 21422" d="M137.133,35.359v-.287q0-4.482,0-8.965c0-.343-.037-.3.3-.3.6,0,1.2,0,1.795,0,.267,0,.242-.015.242.227V35.15c0,.207.028.21-.206.21h-2.129" transform="translate(-63.811 -12.007)" fill="#9292ff"/>
    <path id="Caminho_21423" data-name="Caminho 21423" d="M168.08,10.881q0-1.5,0-3c0-.2,0-.2.191-.2q2.179,0,4.359,0c.192,0,.194,0,.2.2q0,.41,0,.82c0,.187,0,.19-.2.19-.949,0-1.9,0-2.846,0-.377,0-.334-.056-.336.343,0,.273.006.546,0,.82,0,.134.04.173.174.172.709-.006,1.419,0,2.128,0,.06,0,.12,0,.179,0,.1-.006.14.029.139.131,0,.324,0,.649,0,.973,0,.155-.1.127-.192.127-.7,0-1.4,0-2.1,0-.362,0-.321-.052-.323.33q0,.435,0,.871c0,.178,0,.181.183.182h2.949c.307,0,.278-.035.279.268,0,.273,0,.547,0,.82,0,.1-.032.141-.131.132-.051,0-.1,0-.154,0h-4.2c-.06,0-.12,0-.18,0s-.109-.029-.1-.106c0-.059,0-.119,0-.179V10.881" transform="translate(-78.211 -3.575)" fill="#9292ff"/>
    <path id="Caminho_21424" data-name="Caminho 21424" d="M9.972,11.88c-.264,0-.52-.009-.774,0a.344.344,0,0,1-.365-.2,2.48,2.48,0,0,0-.862-.929,1.447,1.447,0,0,0-2,.391,1.566,1.566,0,0,0-.28.572,2.635,2.635,0,0,0,.8,2.654,1.532,1.532,0,0,0,.964.43.288.288,0,0,1,.169.046c-.134.512-.582.666-1.226.41L4.672,18.513a.545.545,0,0,1-.2-.2,19.288,19.288,0,0,1-3.922-7.8A19.58,19.58,0,0,1,.019,6.8,22.835,22.835,0,0,1,.057,4.32a.437.437,0,0,1,.2-.354A20.009,20.009,0,0,1,13.456.037,19.643,19.643,0,0,1,21.3,2.173l.1.052a.614.614,0,0,1-.1.253c-.665,1.327-1.328,2.655-2,3.978a.437.437,0,0,0,0,.468c.4.742.789,1.493,1.179,2.242a1.816,1.816,0,0,1-.1,1.941c-.185.287-.364.579-.561.857a.269.269,0,0,0,0,.341c.582,1.014,1.155,2.033,1.732,3.05a1.753,1.753,0,0,1,.2.468,1.1,1.1,0,0,1-1.035,1.331c-.325.014-.65,0-.975.006-.038,0-.083-.021-.132.039a1.888,1.888,0,0,1,1.006,2.2H19.7a11.227,11.227,0,0,0,1.33,5.881c-.094.081-.211.053-.316.059a19.839,19.839,0,0,1-3.987-.156,19.435,19.435,0,0,1-8.568-3.427.353.353,0,0,1-.18-.309,24,24,0,0,1,.352-4.741,16.153,16.153,0,0,1,1.588-4.654c.02-.037.037-.076.054-.115a.265.265,0,0,0,0-.058m7.282,4.348c-.03-.092-.112-.087-.189-.1a1.305,1.305,0,0,1-1.17-1.355c0-.47-.012-.94,0-1.409.014-.418.007-.836.013-1.254,0-.264-.017-.233-.243-.232H11.36c-.034,0-.069,0-.1,0-.124-.013-.183.014-.173.165.02.289.027.579.071.866a7.578,7.578,0,0,0,3.533,5.446c.174.112.178.111.287-.055a2.828,2.828,0,0,1,1.288-1.057,4.115,4.115,0,0,1,1.523-.315,1.563,1.563,0,0,1-.532-.7m2.19-5.067c.122-.187.234-.349.337-.515a1.052,1.052,0,0,0,.045-1.1c-.406-.788-.822-1.572-1.231-2.358a.37.37,0,0,0-.264-.209c-1.06-.263-2.117-.536-3.174-.806l-1-.256c.024.075.036.122.053.167a2.461,2.461,0,0,1-.764,2.792,10.453,10.453,0,0,0-1.94,2.068c-.033.045-.088.083-.076.161a.429.429,0,0,0,.242.021q1.809,0,3.616,0c.163,0,.325,0,.488,0,.094,0,.127-.029.146-.127a.694.694,0,0,1,.838-.625c.2.017.389.053.584.08l.892.119c-.49-.306-.992-.576-1.5-.832a.954.954,0,0,0-.552-.06,8.616,8.616,0,0,1-1.95-.038.063.063,0,0,1,.043-.07c.44-.207.874-.425,1.32-.618a1.886,1.886,0,0,1,1.682.061c.515.266,1.014.565,1.537.816a.475.475,0,0,1,.089.839.95.95,0,0,1,.546.484m-.318,1.662c-.173.738-.352,1.475-.513,2.215a1.288,1.288,0,0,1-.556.881c-.09.057-.079.11-.029.187a.69.69,0,0,0,.608.317c.325.005.649,0,.974,0s.649,0,.973,0A.4.4,0,0,0,21,16.148a.437.437,0,0,0-.078-.362c-.309-.539-.614-1.082-.921-1.623-.268-.474-.538-.946-.828-1.455a1.052,1.052,0,0,0-.05.115" transform="translate(0 0)" fill="#9292ff"/>
    <path id="Caminho_21425" data-name="Caminho 21425" d="M161.359,30.457c0-.776,0-1.553,0-2.33a2.515,2.515,0,0,1,.508-1.577,2.548,2.548,0,0,1,1.673-.945,4.581,4.581,0,0,1,.766-.052c.991,0,1.982,0,2.973,0a3.059,3.059,0,0,1,1.458.331,2.39,2.39,0,0,1,1.33,2.206c.021,1.579.017,3.159,0,4.738a2.506,2.506,0,0,1-2.346,2.518c-.2.02-.409.028-.613.028-1.008,0-2.017,0-3.025,0a3.032,3.032,0,0,1-1.269-.258,2.369,2.369,0,0,1-1.452-2.252c-.021-.8,0-1.605,0-2.408m6.37-1.918a.736.736,0,0,0-.7-.82,1.24,1.24,0,0,0-.2-.012H164.59a1.229,1.229,0,0,0-.279.03.71.71,0,0,0-.615.711c0,.051,0,.1,0,.154q0,1.87,0,3.741a1.739,1.739,0,0,0,.011.2.683.683,0,0,0,.591.645,2.164,2.164,0,0,0,.458.043h1.924a2.354,2.354,0,0,0,.281-.014.754.754,0,0,0,.769-.862q0-.948,0-1.9c0-.641,0-1.281,0-1.922" transform="translate(-75.081 -11.89)" fill="#9292ff"/>
    <path id="Caminho_21426" data-name="Caminho 21426" d="M59.528,35.359c-.891,0-1.737,0-2.583,0-.137,0-.171-.074-.218-.167q-.664-1.313-1.332-2.624c-.085-.167-.141-.38-.277-.481s-.364-.03-.551-.032c-.471,0-.941,0-1.411,0-.19,0-.193,0-.193.2q0,1.4,0,2.794c0,.06,0,.12,0,.179.009.1-.04.134-.136.129s-.2,0-.307,0c-.582,0-1.163,0-1.745,0-.1,0-.163-.023-.149-.141a1.225,1.225,0,0,0,0-.153V26.1c0-.034,0-.068,0-.1,0-.187,0-.187.2-.19.1,0,.205,0,.308,0h4.72a3.878,3.878,0,0,1,1.04.121,2.427,2.427,0,0,1,1.835,2.343c.01.436.015.872,0,1.307a2.419,2.419,0,0,1-1.047,1.983c-.149.106-.15.107-.058.278q.877,1.621,1.755,3.241c.043.081.085.163.147.282m-6.393-7.4c-.132,0-.177.036-.175.172.006.537,0,1.074,0,1.611,0,.176,0,.179.189.18.776,0,1.553,0,2.329,0a1.555,1.555,0,0,0,.354-.048.685.685,0,0,0,.553-.625,2.656,2.656,0,0,0,0-.587.707.707,0,0,0-.647-.679,2.084,2.084,0,0,0-.306-.019c-.358,0-.716,0-1.075,0-.409,0-.819,0-1.228,0" transform="translate(-23.556 -12.007)" fill="#9292ff"/>
    <path id="Caminho_21427" data-name="Caminho 21427" d="M103.964,30.588V26.106a1.668,1.668,0,0,0,0-.179c-.012-.11.047-.132.137-.125.034,0,.068,0,.1,0h4.666a3.247,3.247,0,0,1,1.3.227,2.374,2.374,0,0,1,1.537,2.143,14.472,14.472,0,0,1,0,1.689,2.471,2.471,0,0,1-2.068,2.315,4.209,4.209,0,0,1-.79.064c-.761,0-1.521,0-2.282,0-.323,0-.281-.027-.281.292q0,1.306,0,2.612c0,.226.024.211-.2.211h-1.923c-.226,0-.2.013-.2-.21q0-2.28,0-4.56m3.7-.5c.324,0,.65.01.972-.013a.728.728,0,0,0,.746-.8c0-.2.009-.392,0-.588a.7.7,0,0,0-.546-.687,1.088,1.088,0,0,0-.328-.045c-.683,0-1.366,0-2.048,0-.133,0-.175.04-.173.175q.01.9,0,1.791c0,.14.047.174.175.171.35-.006.7,0,1.05,0h.153" transform="translate(-48.375 -12.006)" fill="#9292ff"/>
    <path id="Caminho_21428" data-name="Caminho 21428" d="M55.385,10.554a1.578,1.578,0,0,1,.572,1.336c-.006.2,0,.41,0,.614a1.468,1.468,0,0,1-1.489,1.554c-.026,0-.051,0-.077,0H50.828c-.207,0-.2.008-.2-.19q0-3,0-5.992c0-.191,0-.195.2-.2q1.666,0,3.332,0a1.913,1.913,0,0,1,.7.125,1.27,1.27,0,0,1,.854,1.14,4.4,4.4,0,0,1,.019.511,1.884,1.884,0,0,1-.346,1.094m-1.644,2.286a1.508,1.508,0,0,0,.5-.062.438.438,0,0,0,.3-.256,1.3,1.3,0,0,0-.029-.921.571.571,0,0,0-.582-.295c-.6-.008-1.193,0-1.79,0-.127,0-.16.049-.159.166,0,.408.007.818,0,1.226,0,.136.059.151.169.15.3-.005.6,0,.9,0,.23,0,.46,0,.69,0m.091-2.7c.426-.017.541-.144.542-.568,0-.043,0-.085,0-.128a.468.468,0,0,0-.483-.535c-.6-.035-1.2-.006-1.794-.018-.1,0-.109.059-.109.134,0,.325,0,.649,0,.974,0,.114.045.147.152.145.291,0,.581,0,.872,0,.274,0,.548.009.821,0" transform="translate(-23.559 -3.575)" fill="#9292ff"/>
    <path id="Caminho_21429" data-name="Caminho 21429" d="M105.309,10.88q0-1.5,0-3c0-.207-.013-.2.19-.2h3.334a1.973,1.973,0,0,1,.605.094,1.3,1.3,0,0,1,.958,1.277c0,.179,0,.359,0,.538a1.687,1.687,0,0,1-.264.845c-.043.073-.074.121.007.194a1.515,1.515,0,0,1,.489,1.243c-.005.213,0,.427,0,.641a1.463,1.463,0,0,1-1.523,1.544c-.239.012-.479,0-.718,0h-2.873c-.229,0-.2.012-.2-.207q0-1.486,0-2.973m1.5.42c-.126,0-.161.042-.159.163.006.4,0,.8,0,1.2,0,.172,0,.175.188.176.537,0,1.074,0,1.611,0a1.378,1.378,0,0,0,.479-.064.433.433,0,0,0,.312-.311,1.661,1.661,0,0,0-.014-.782c-.094-.306-.353-.369-.629-.377s-.58,0-.869,0c-.307,0-.614,0-.921,0m1.576-1.157c.566,0,.7-.14.669-.7-.018-.336-.131-.508-.485-.533-.6-.041-1.208-.008-1.813-.019-.1,0-.1.062-.1.136,0,.323,0,.647,0,.97,0,.113.042.147.15.145.29,0,.58,0,.869,0,.239,0,.477,0,.716,0" transform="translate(-49.002 -3.575)" fill="#9292ff"/>
    <path id="Caminho_21430" data-name="Caminho 21430" d="M91.481,11.575l1.34,2.486c-.346,0-.651,0-.954,0-.212,0-.464.082-.625-.036s-.2-.345-.3-.527c-.267-.524-.537-1.047-.8-1.575a.241.241,0,0,0-.253-.159c-.461.008-.923,0-1.385,0-.179,0-.182,0-.183.186,0,.632,0,1.264,0,1.9,0,.242.024.213-.224.214-.325,0-.65-.005-.974,0-.126,0-.172-.037-.154-.159a.731.731,0,0,0,0-.1q0-2.933,0-5.867c0-.282-.035-.25.24-.251q1.692,0,3.385,0a2.082,2.082,0,0,1,.507.055A1.524,1.524,0,0,1,92.337,9.08a5.107,5.107,0,0,1,0,1.252A1.5,1.5,0,0,1,91.6,11.5c-.036.022-.07.047-.118.078m-2.1-1.048c.325,0,.65.015.974,0A.629.629,0,0,0,91,9.842c0-.1,0-.205,0-.307a.615.615,0,0,0-.5-.6,1.3,1.3,0,0,0-.279-.04c-.581,0-1.162,0-1.743,0-.113,0-.147.042-.146.15,0,.444.006.888,0,1.332,0,.123.036.165.159.162.3-.007.6,0,.9,0v-.007" transform="translate(-40.47 -3.575)" fill="#9292ff"/>
    <path id="Caminho_21431" data-name="Caminho 21431" d="M152.03,7.683c.538,0,1.077,0,1.615,0a1.864,1.864,0,0,1,.867.19,1.473,1.473,0,0,1,.866,1.351c.019,1.1.017,2.2,0,3.3a1.587,1.587,0,0,1-1.639,1.531c-1.162.011-2.325,0-3.487,0-.026,0-.051,0-.077,0-.084.006-.128-.025-.121-.116,0-.051,0-.1,0-.154V7.95c0-.274-.043-.267.256-.267h1.718m-.608,5c0,.122.033.16.157.159.547-.006,1.094,0,1.64,0,.583-.01.816-.255.822-.838v-.025q0-1.1,0-2.2a1.879,1.879,0,0,0-.022-.305.619.619,0,0,0-.538-.539,1.955,1.955,0,0,0-.33-.034c-.5,0-1.008,0-1.513,0-.21,0-.212,0-.212.205,0,.589,0,1.178,0,1.767,0,.606,0,1.212,0,1.818" transform="translate(-69.824 -3.575)" fill="#9292ff"/>
    <path id="Caminho_21432" data-name="Caminho 21432" d="M128.3,14.056c-.462,0-.93,0-1.4,0-.1,0-.122-.071-.152-.142-.2-.472-.394-.944-.6-1.414-.164-.381-.057-.307-.474-.311-.589-.005-1.179,0-1.769,0-.222,0-.224,0-.311.213-.205.5-.416.99-.61,1.49a.213.213,0,0,1-.239.165c-.444-.007-.887,0-1.331,0a.429.429,0,0,1,.075-.251q1.3-2.963,2.592-5.926a.269.269,0,0,1,.3-.2c.316.014.633.014.949,0a.275.275,0,0,1,.3.2q.794,1.829,1.6,3.654.509,1.158,1.019,2.317c.026.059.079.115.046.209m-2.741-2.992-.7-1.675c-.241.582-.461,1.115-.692,1.675Z" transform="translate(-56.498 -3.571)" fill="#9292ff"/>
    <path id="Caminho_21433" data-name="Caminho 21433" d="M66.69,14.055c.134-.307.251-.579.37-.85q1.164-2.658,2.325-5.318a.284.284,0,0,1,.318-.214c.323.017.649.009.974,0a.212.212,0,0,1,.235.143q1.346,3.081,2.7,6.159a.366.366,0,0,1,.009.077H72.99c-.23,0-.462-.01-.692,0a.227.227,0,0,1-.263-.173c-.2-.506-.426-1-.629-1.51a.252.252,0,0,0-.279-.189q-.974.013-1.948,0a.231.231,0,0,0-.261.175c-.2.508-.414,1.009-.616,1.516a.232.232,0,0,1-.258.182c-.435-.013-.871,0-1.354,0m4.169-2.992-.7-1.677-.691,1.677Z" transform="translate(-31.032 -3.57)" fill="#9292ff"/>
  </g>
</svg>
