<svg id="Grupo_28615" data-name="Grupo 28615" xmlns="http://www.w3.org/2000/svg" xmlns:xlink="http://www.w3.org/1999/xlink" width="83.554" height="32" viewBox="0 0 83.554 32">
  <defs>
    <clipPath id="clip-path">
      <path id="svg_30" d="M2.263,26.449.668,25.521c-.011-3.6.027-5,.016-8.331l1.595.928c.011,3.333-.027,4.731-.016,8.331Z" transform="translate(-0.666 -17.19)" fill="#9292ff"/>
    </clipPath>
    <clipPath id="clip-path-2">
      <path id="svg_40" d="M2.263,51.3.668,50.371c-.011-3.6.027-5,.016-8.331l1.595.928C2.29,46.3,2.252,47.7,2.263,51.3Z" transform="translate(-0.666 -42.04)" fill="#9292ff"/>
    </clipPath>
  </defs>
  <g id="svg_1" transform="translate(22.157 7.659)">
    <g id="svg_2" transform="translate(33.248)">
      <path id="svg_3" d="M116.55,30.771H105.169a.619.619,0,0,1-.619-.619V14.36h3.717V27.053h8.283Z" transform="translate(-104.55 -14.36)" fill="#9292ff"/>
    </g>
    <g id="svg_4" transform="translate(46.139 0.005)">
      <path id="svg_5" d="M138.619,30.775h-9.28a.619.619,0,0,1-.619-.619V14.988a.619.619,0,0,1,.619-.619h9.344a5.8,5.8,0,0,1,3.9,1.488,4.8,4.8,0,0,1,1.4,3.563v6.107a5.922,5.922,0,0,1-.645,2.549A5.016,5.016,0,0,1,138.619,30.775Zm-6.181-3.712h6.368a1.313,1.313,0,0,0,1.456-1.451V19.484a1.292,1.292,0,0,0-1.381-1.333h-6.448Z" transform="translate(-128.72 -14.369)" fill="#9292ff"/>
    </g>
    <path id="svg_6" d="M57.469,19.047a4.445,4.445,0,0,0-2.048-4.053A4.353,4.353,0,0,0,53.3,14.37H42.829a.619.619,0,0,0-.619.619V30.167a.619.619,0,0,0,.619.619H53.3a4.34,4.34,0,0,0,2.123-.624,4.456,4.456,0,0,0,2.048-4.053v-.837a3.992,3.992,0,0,0-1.029-2.693,3.992,3.992,0,0,0,1.029-2.693l-.005-.837Zm-3.44,7.573a.892.892,0,0,1-.891.891h-7.68c0-1.568.021-2.171.021-3.627h7.664a.892.892,0,0,1,.891.891v1.845h-.005Zm0-6.251a.892.892,0,0,1-.891.891h-7.68c0-1.568.021-2.171.021-3.627h7.664a.892.892,0,0,1,.891.891V20.37Z" transform="translate(-42.21 -14.365)" fill="#9292ff"/>
    <g id="svg_7" transform="translate(15.973 0)">
      <path id="svg_8" d="M80.784,30.744H79.92a7.771,7.771,0,0,1-7.76-7.76V22.12a7.771,7.771,0,0,1,7.76-7.76h.864a7.771,7.771,0,0,1,7.76,7.76v.864A7.767,7.767,0,0,1,80.784,30.744Zm-.859-12.683a4.061,4.061,0,0,0-4.059,4.059v.864a4.061,4.061,0,0,0,4.059,4.059h.864a4.061,4.061,0,0,0,4.059-4.059V22.12a4.061,4.061,0,0,0-4.059-4.059Z" transform="translate(-72.16 -14.36)" fill="#9292ff"/>
    </g>
  </g>
  <g id="svg_9" transform="translate(25.383 25.797)">
    <path id="svg_10" d="M51.177,52.857a2,2,0,0,1-.1.661,1.513,1.513,0,0,1-.293.512,1.3,1.3,0,0,1-.459.331,1.464,1.464,0,0,1-.6.117,1.5,1.5,0,0,1-.613-.117,1.252,1.252,0,0,1-.459-.331,1.419,1.419,0,0,1-.288-.512,2,2,0,0,1-.1-.661,2.033,2.033,0,0,1,.1-.667,1.513,1.513,0,0,1,.293-.512,1.347,1.347,0,0,1,.459-.331,1.648,1.648,0,0,1,1.221,0,1.252,1.252,0,0,1,.459.331,1.5,1.5,0,0,1,.288.512A2.365,2.365,0,0,1,51.177,52.857Zm-.528,0a1.64,1.64,0,0,0-.069-.507,1.159,1.159,0,0,0-.2-.379.847.847,0,0,0-.3-.235.876.876,0,0,0-.379-.08.893.893,0,0,0-.379.08.847.847,0,0,0-.3.235,1.108,1.108,0,0,0-.2.379,1.886,1.886,0,0,0,0,1.013,1.081,1.081,0,0,0,.2.373.845.845,0,0,0,.677.315.852.852,0,0,0,.373-.08.775.775,0,0,0,.293-.235,1.131,1.131,0,0,0,.2-.373A1.366,1.366,0,0,0,50.649,52.857Z" transform="translate(-48.26 -49.705)" fill="#9292ff"/>
    <path id="svg_11" d="M60.242,54.407h-.5V52.423a1.239,1.239,0,0,0-.043-.341.556.556,0,0,0-.128-.235.5.5,0,0,0-.2-.133.781.781,0,0,0-.256-.043.881.881,0,0,0-.491.144,1.411,1.411,0,0,0-.395.4v2.192h-.5V51.325h.389l.1.427h.011a2.152,2.152,0,0,1,.181-.2.923.923,0,0,1,.219-.16.9.9,0,0,1,.267-.107,1.2,1.2,0,0,1,.32-.037.928.928,0,0,1,.571.165,1.12,1.12,0,0,1,.352.453h.011a1.714,1.714,0,0,1,.469-.453,1.112,1.112,0,0,1,.613-.165,1.387,1.387,0,0,1,.347.048.9.9,0,0,1,.336.165.935.935,0,0,1,.256.336,1.273,1.273,0,0,1,.1.555v2.064h-.5V52.434a1.239,1.239,0,0,0-.043-.341.556.556,0,0,0-.128-.235.5.5,0,0,0-.2-.133.781.781,0,0,0-.256-.043.881.881,0,0,0-.491.144,1.426,1.426,0,0,0-.4.4v2.181Z" transform="translate(-52.679 -49.714)" fill="#9292ff"/>
    <path id="svg_12" d="M69.239,54.553a1.545,1.545,0,0,1-.432-.053,1.205,1.205,0,0,1-.336-.144,1.1,1.1,0,0,1-.245-.224.951.951,0,0,1-.16-.288A1,1,0,0,1,68,53.587a2.629,2.629,0,0,1-.021-.3V51.39h.5v1.888a1.1,1.1,0,0,0,.069.427.65.65,0,0,0,.251.309.8.8,0,0,0,.443.112A.791.791,0,0,0,69.7,54a.68.68,0,0,0,.251-.331,1.2,1.2,0,0,0,.053-.395V51.39h.5v1.9a2.56,2.56,0,0,1-.016.293,1.229,1.229,0,0,1-.059.251,1.047,1.047,0,0,1-.16.293,1.169,1.169,0,0,1-.251.235,1.136,1.136,0,0,1-.347.149A2.094,2.094,0,0,1,69.239,54.553Z" transform="translate(-57.463 -49.779)" fill="#9292ff"/>
    <path id="svg_13" d="M74.985,51.751H75a1.635,1.635,0,0,1,.187-.2.983.983,0,0,1,.229-.16.966.966,0,0,1,.277-.107,1.281,1.281,0,0,1,.331-.037,1.358,1.358,0,0,1,.395.059.805.805,0,0,1,.533.528,1.445,1.445,0,0,1,.08.517v2.064h-.5V52.434a.876.876,0,0,0-.155-.576.56.56,0,0,0-.448-.176.97.97,0,0,0-.5.144,1.361,1.361,0,0,0-.421.4v2.192h-.5V51.335h.389l.1.416Z" transform="translate(-60.505 -49.714)" fill="#9292ff"/>
    <path id="svg_14" d="M80.74,51.559a2.3,2.3,0,0,1,.064-.571,1.78,1.78,0,0,1,.165-.432,1.1,1.1,0,0,1,.245-.309,1.418,1.418,0,0,1,.288-.2,1.17,1.17,0,0,1,.3-.112,1.4,1.4,0,0,1,.288-.032,1.092,1.092,0,0,1,.864.373h.011v-1.9h.5v4.7h-.379l-.1-.347H82.98a1.182,1.182,0,0,1-.139.149.958.958,0,0,1-.427.24,1.146,1.146,0,0,1-.32.037,1.427,1.427,0,0,1-.5-.085,1.134,1.134,0,0,1-.432-.277,1.407,1.407,0,0,1-.309-.491,2.183,2.183,0,0,1-.117-.741Zm.528-.005a1.908,1.908,0,0,0,.059.48,1.073,1.073,0,0,0,.176.368.836.836,0,0,0,.277.235.859.859,0,0,0,.379.08.962.962,0,0,0,.288-.043,1.049,1.049,0,0,0,.235-.107.963.963,0,0,0,.176-.139c.048-.048.085-.1.117-.133V50.679a1.175,1.175,0,0,0-.363-.256,1.032,1.032,0,0,0-.443-.1.863.863,0,0,0-.3.053.777.777,0,0,0-.293.192,1.054,1.054,0,0,0-.224.373A1.794,1.794,0,0,0,81.268,51.554Z" transform="translate(-63.417 -48.37)" fill="#9292ff"/>
    <path id="svg_15" d="M90.357,52.857a2,2,0,0,1-.1.661,1.513,1.513,0,0,1-.293.512,1.3,1.3,0,0,1-.459.331,1.464,1.464,0,0,1-.6.117,1.5,1.5,0,0,1-.613-.117,1.252,1.252,0,0,1-.459-.331,1.419,1.419,0,0,1-.288-.512,2,2,0,0,1-.1-.661,2.034,2.034,0,0,1,.1-.667,1.513,1.513,0,0,1,.293-.512,1.347,1.347,0,0,1,.459-.331,1.648,1.648,0,0,1,1.221,0,1.252,1.252,0,0,1,.459.331,1.419,1.419,0,0,1,.288.512A2.188,2.188,0,0,1,90.357,52.857Zm-.523,0a1.64,1.64,0,0,0-.069-.507,1.159,1.159,0,0,0-.2-.379.847.847,0,0,0-.3-.235.876.876,0,0,0-.379-.08.893.893,0,0,0-.379.08.847.847,0,0,0-.3.235,1.107,1.107,0,0,0-.2.379,1.886,1.886,0,0,0,0,1.013,1.081,1.081,0,0,0,.2.373.845.845,0,0,0,.677.315.852.852,0,0,0,.373-.08.775.775,0,0,0,.293-.235,1.131,1.131,0,0,0,.2-.373A1.486,1.486,0,0,0,89.835,52.857Z" transform="translate(-66.544 -49.705)" fill="#9292ff"/>
    <path id="svg_16" d="M97.385,51.751H97.4a1.634,1.634,0,0,1,.187-.2.983.983,0,0,1,.229-.16.966.966,0,0,1,.277-.107,1.281,1.281,0,0,1,.331-.037,1.358,1.358,0,0,1,.395.059.805.805,0,0,1,.533.528,1.444,1.444,0,0,1,.08.517v2.064h-.5V52.434a.876.876,0,0,0-.155-.576.56.56,0,0,0-.448-.176.97.97,0,0,0-.5.144,1.362,1.362,0,0,0-.421.4v2.192h-.5V51.335h.389Z" transform="translate(-70.959 -49.714)" fill="#9292ff"/>
    <path id="svg_17" d="M106.077,52.857a2,2,0,0,1-.1.661,1.513,1.513,0,0,1-.293.512,1.3,1.3,0,0,1-.459.331,1.464,1.464,0,0,1-.6.117,1.5,1.5,0,0,1-.613-.117,1.252,1.252,0,0,1-.459-.331,1.419,1.419,0,0,1-.288-.512,2,2,0,0,1-.1-.661,2.034,2.034,0,0,1,.1-.667,1.513,1.513,0,0,1,.293-.512,1.348,1.348,0,0,1,.459-.331,1.648,1.648,0,0,1,1.221,0,1.252,1.252,0,0,1,.459.331,1.5,1.5,0,0,1,.288.512A2.188,2.188,0,0,1,106.077,52.857Zm-.523,0a1.64,1.64,0,0,0-.069-.507,1.159,1.159,0,0,0-.2-.379.847.847,0,0,0-.3-.235.876.876,0,0,0-.379-.08.893.893,0,0,0-.379.08.847.847,0,0,0-.3.235,1.108,1.108,0,0,0-.2.379,1.886,1.886,0,0,0,0,1.013,1.081,1.081,0,0,0,.2.373.845.845,0,0,0,.677.315.852.852,0,0,0,.373-.08.775.775,0,0,0,.293-.235,1.131,1.131,0,0,0,.2-.373A1.486,1.486,0,0,0,105.555,52.857Z" transform="translate(-73.88 -49.705)" fill="#9292ff"/>
    <path id="svg_18" d="M110.324,52.131a.355.355,0,0,0,.053.208.494.494,0,0,0,.144.133,1.292,1.292,0,0,0,.208.085c.08.021.16.043.245.059.117.027.224.053.331.085a1.194,1.194,0,0,1,.288.139.722.722,0,0,1,.213.256.932.932,0,0,1,.08.416.953.953,0,0,1-.091.416.824.824,0,0,1-.256.3,1.23,1.23,0,0,1-.395.187,1.882,1.882,0,0,1-.507.064,2.784,2.784,0,0,1-.309-.016,1.538,1.538,0,0,1-.245-.048,1.21,1.21,0,0,1-.181-.059c-.048-.021-.091-.037-.123-.053v-.427a2.834,2.834,0,0,0,.379.123,1.682,1.682,0,0,0,.416.048,1.478,1.478,0,0,0,.32-.032.786.786,0,0,0,.245-.1.46.46,0,0,0,.16-.16.436.436,0,0,0,.053-.224.373.373,0,0,0-.053-.213.384.384,0,0,0-.139-.139.744.744,0,0,0-.2-.091c-.075-.021-.155-.048-.24-.064-.107-.021-.219-.053-.331-.085a1.13,1.13,0,0,1-.3-.139.693.693,0,0,1-.224-.24.766.766,0,0,1-.085-.389.944.944,0,0,1,.085-.421.853.853,0,0,1,.235-.293.968.968,0,0,1,.347-.176,1.546,1.546,0,0,1,.421-.059,2.2,2.2,0,0,1,.475.048,2.71,2.71,0,0,1,.4.123v.427a3.558,3.558,0,0,0-.384-.123,1.643,1.643,0,0,0-.4-.048.993.993,0,0,0-.3.037.557.557,0,0,0-.2.1.4.4,0,0,0-.117.149c-.005.059-.016.117-.016.187Z" transform="translate(-76.969 -49.705)" fill="#9292ff"/>
    <path id="svg_19" d="M117.7,49.55v-.56h.5v.56Zm.011,3.8V50.27h.5v3.083Z" transform="translate(-80.665 -48.659)" fill="#9292ff"/>
    <path id="svg_20" d="M121.045,51.751h.011a1.634,1.634,0,0,1,.187-.2.982.982,0,0,1,.229-.16.966.966,0,0,1,.277-.107,1.281,1.281,0,0,1,.331-.037,1.358,1.358,0,0,1,.395.059.805.805,0,0,1,.533.528,1.445,1.445,0,0,1,.08.517v2.064h-.5V52.434a.876.876,0,0,0-.155-.576.56.56,0,0,0-.448-.176.97.97,0,0,0-.5.144,1.362,1.362,0,0,0-.421.4v2.192h-.5V51.335h.389Z" transform="translate(-82 -49.714)" fill="#9292ff"/>
    <path id="svg_21" d="M127.334,52.131a.355.355,0,0,0,.053.208.494.494,0,0,0,.144.133,1.291,1.291,0,0,0,.208.085c.08.021.16.043.245.059.117.027.224.053.331.085a1.194,1.194,0,0,1,.288.139.722.722,0,0,1,.213.256.932.932,0,0,1,.08.416.953.953,0,0,1-.091.416.824.824,0,0,1-.256.3,1.23,1.23,0,0,1-.395.187,1.882,1.882,0,0,1-.507.064,2.783,2.783,0,0,1-.309-.016,1.538,1.538,0,0,1-.245-.048,1.21,1.21,0,0,1-.181-.059c-.048-.021-.091-.037-.123-.053v-.427a2.833,2.833,0,0,0,.379.123,1.682,1.682,0,0,0,.416.048,1.478,1.478,0,0,0,.32-.032.786.786,0,0,0,.245-.1.459.459,0,0,0,.16-.16.435.435,0,0,0,.053-.224.373.373,0,0,0-.053-.213.384.384,0,0,0-.139-.139.745.745,0,0,0-.2-.091c-.075-.021-.155-.048-.24-.064-.107-.021-.219-.053-.331-.085a1.13,1.13,0,0,1-.3-.139.693.693,0,0,1-.224-.24.766.766,0,0,1-.085-.389.943.943,0,0,1,.085-.421.853.853,0,0,1,.235-.293.968.968,0,0,1,.347-.176,1.546,1.546,0,0,1,.421-.059,2.2,2.2,0,0,1,.475.048,2.71,2.71,0,0,1,.4.123v.427a3.558,3.558,0,0,0-.384-.123,1.643,1.643,0,0,0-.4-.048.993.993,0,0,0-.3.037.557.557,0,0,0-.2.1.4.4,0,0,0-.117.149c-.005.059-.016.117-.016.187Z" transform="translate(-84.907 -49.705)" fill="#9292ff"/>
    <path id="svg_22" d="M134.911,52.815a2.3,2.3,0,0,1-.064.571,1.779,1.779,0,0,1-.165.432,1.1,1.1,0,0,1-.245.309,1.583,1.583,0,0,1-.288.2,1.4,1.4,0,0,1-.3.112,1.449,1.449,0,0,1-.293.032,1.258,1.258,0,0,1-.491-.091,1.16,1.16,0,0,1-.373-.272h-.011V55.9h-.5v-4.6h.379l.107.352h.011a.752.752,0,0,1,.107-.128,1.07,1.07,0,0,1,.176-.133,1.3,1.3,0,0,1,.272-.123,1.173,1.173,0,0,1,.341-.053,1.457,1.457,0,0,1,.5.085,1.114,1.114,0,0,1,.427.277,1.439,1.439,0,0,1,.3.491,2.212,2.212,0,0,1,.112.741Zm-.528.005a1.92,1.92,0,0,0-.059-.485,1.066,1.066,0,0,0-.171-.368.8.8,0,0,0-.283-.235.883.883,0,0,0-.384-.08.988.988,0,0,0-.523.149,1.247,1.247,0,0,0-.181.139c-.048.048-.091.1-.123.133v1.616a1.317,1.317,0,0,0,.363.256,1.026,1.026,0,0,0,.437.1.914.914,0,0,0,.3-.053.776.776,0,0,0,.293-.192,1.054,1.054,0,0,0,.224-.373,1.409,1.409,0,0,0,.1-.6Z" transform="translate(-87.423 -49.7)" fill="#9292ff"/>
    <path id="svg_23" d="M138.83,49.55v-.56h.5v.56Zm.011,3.8V50.27h.5v3.083Z" transform="translate(-90.526 -48.659)" fill="#9292ff"/>
    <path id="svg_24" d="M143.381,51.725h-.037a1.964,1.964,0,0,0-.352.032,1.286,1.286,0,0,0-.325.1,1.157,1.157,0,0,0-.272.165.922.922,0,0,0-.2.229V54.4h-.5V51.32h.389l.1.491h.011a1.194,1.194,0,0,1,.181-.224,1.39,1.39,0,0,1,.245-.181,1.351,1.351,0,0,1,.3-.123,1.424,1.424,0,0,1,.341-.043h.064c.021,0,.043.005.059.005v.48Z" transform="translate(-91.861 -49.709)" fill="#9292ff"/>
    <path id="svg_25" d="M147.519,54.061h-.011a1.1,1.1,0,0,1-.373.293,1.252,1.252,0,0,1-.272.1,1.445,1.445,0,0,1-.309.037,1.252,1.252,0,0,1-.411-.064.828.828,0,0,1-.32-.2.854.854,0,0,1-.208-.315,1.142,1.142,0,0,1-.075-.421.912.912,0,0,1,.085-.411.838.838,0,0,1,.235-.309,1.1,1.1,0,0,1,.357-.2,1.413,1.413,0,0,1,.464-.069,2.531,2.531,0,0,1,.805.139h.011v-.213a1.377,1.377,0,0,0-.016-.224.534.534,0,0,0-.053-.171.635.635,0,0,0-.272-.256,1.019,1.019,0,0,0-.5-.1,2.351,2.351,0,0,0-.443.043,2.4,2.4,0,0,0-.411.123v-.421c.053-.027.112-.048.181-.075a2.273,2.273,0,0,1,.469-.1,2.1,2.1,0,0,1,.261-.011,1.539,1.539,0,0,1,.763.165.991.991,0,0,1,.427.437.962.962,0,0,1,.069.229,1.481,1.481,0,0,1,.021.272V54.4h-.421l-.053-.341Zm-.027-1.013a2.839,2.839,0,0,0-.752-.112.823.823,0,0,0-.5.139.486.486,0,0,0-.181.421.725.725,0,0,0,.043.251.522.522,0,0,0,.123.176.49.49,0,0,0,.187.1.9.9,0,0,0,.528-.016,1.413,1.413,0,0,0,.432-.24c.048-.043.085-.075.112-.1v-.619h.011Z" transform="translate(-93.657 -49.709)" fill="#9292ff"/>
  </g>
  <g id="svg_26">
    <g id="svg_27" transform="translate(0 9.168)">
      <g id="svg_28">
        <path id="SVGID_1_" d="M2.263,26.449.668,25.521c-.011-3.6.027-5,.016-8.331l1.595.928c.011,3.333-.027,4.731-.016,8.331Z" transform="translate(-0.666 -17.19)" fill="#9292ff"/>
      </g>
      <g id="svg_29">
        <g id="svg_31" clip-path="url(#clip-path)">
          <path id="svg_32" d="M2.263,26.449.668,25.521c-.011-3.6.027-5,.016-8.331l1.595.928c.011,3.333-.027,4.731-.016,8.331" transform="translate(-0.666 -17.19)" fill="#9292ff"/>
        </g>
      </g>
    </g>
    <path id="svg_33" d="M17.959,1.067c.053-.021.1-.043.155-.059.005,0,.011,0,.011-.005a1.158,1.158,0,0,1,.128-.037l.075-.016.1-.016c.016,0,.037-.005.053-.005a.432.432,0,0,1,.117,0h.021a1.136,1.136,0,0,1,.133.016c.011,0,.021.005.032.005a.645.645,0,0,1,.1.027c.011.005.021.005.032.011a.785.785,0,0,1,.117.053L17.431.112c-.005,0-.005-.005-.011-.005a.472.472,0,0,0-.091-.043c-.005,0-.011-.005-.016-.005s-.021-.005-.032-.011L17.233.032C17.217.027,17.2.027,17.185.021s-.021-.005-.032-.005-.011-.005-.016-.005A.8.8,0,0,1,17.02,0H16.9a.048.048,0,0,0-.027.005c-.016,0-.037.005-.053.005a.2.2,0,0,0-.053.005.126.126,0,0,0-.043.011l-.075.016c-.016.005-.027.005-.043.011a.524.524,0,0,0-.085.027c-.005,0-.005,0-.011.005a.962.962,0,0,0-.155.064.16.16,0,0,0-.043.021c-.053.027-.107.053-.16.085L.7,9.168l1.595.928L17.756,1.168c.053-.032.107-.059.16-.085Z" transform="translate(-0.682)" fill="#9292ff"/>
    <g id="svg_34" transform="translate(1.595 0.926)">
      <path id="svg_35" d="M19.136,1.978c.976-.565,1.781-.107,1.787,1.019l.011,4.219a3.921,3.921,0,0,1-1.771,3.072l-15.5,8.949c-.011-3.6.027-5,.016-8.331Z" transform="translate(-3.656 -1.736)" fill="#9292ff"/>
    </g>
  </g>
  <g id="svg_36" transform="translate(0 13.253)">
    <g id="svg_37" transform="translate(0 9.168)">
      <g id="svg_38">
        <path id="SVGID_3_" d="M2.263,51.3.668,50.371c-.011-3.6.027-5,.016-8.331l1.595.928C2.29,46.3,2.252,47.7,2.263,51.3Z" transform="translate(-0.666 -42.04)" fill="#9292ff"/>
      </g>
      <g id="svg_39">
        <g id="svg_41" clip-path="url(#clip-path-2)">
          <path id="svg_42" d="M2.263,51.3.668,50.371c-.011-3.6.027-5,.016-8.331l1.595.928C2.29,46.3,2.252,47.7,2.263,51.3" transform="translate(-0.666 -42.04)" fill="#9292ff"/>
        </g>
      </g>
    </g>
    <path id="svg_43" d="M17.959,25.917c.053-.021.1-.043.155-.059.005,0,.011,0,.011-.005a1.159,1.159,0,0,1,.128-.037l.075-.016.1-.016c.016,0,.037-.005.053-.005a.432.432,0,0,1,.117,0h.021a1.136,1.136,0,0,1,.133.016c.011,0,.021.005.032.005a.645.645,0,0,1,.1.027c.011.005.021.005.032.011a.785.785,0,0,1,.117.053l-1.595-.928c-.005,0-.005-.005-.011-.005a.473.473,0,0,0-.091-.043c-.005,0-.011-.005-.016-.005s-.021-.005-.032-.011l-.048-.016c-.016-.005-.032-.005-.048-.011s-.021-.005-.032-.005-.011-.005-.016-.005a.723.723,0,0,0-.107-.011h-.117a.048.048,0,0,0-.027.005c-.016,0-.037.005-.053.005a.2.2,0,0,0-.053.005.125.125,0,0,0-.043.011l-.075.016c-.016.005-.027.005-.043.011a.524.524,0,0,0-.085.027c-.005,0-.011,0-.011.005a.962.962,0,0,0-.155.064.16.16,0,0,0-.043.021c-.053.027-.107.053-.16.085L.7,34.018l1.595.928,15.461-8.928c.053-.032.107-.059.16-.085Z" transform="translate(-0.682 -24.85)" fill="#9292ff"/>
    <g id="svg_44" transform="translate(1.595 0.926)">
      <path id="svg_45" d="M19.136,26.828c.976-.565,1.781-.107,1.787,1.019l.011,4.219a3.921,3.921,0,0,1-1.771,3.072l-15.5,8.949c-.011-3.6.027-5,.016-8.331Z" transform="translate(-3.656 -26.586)" fill="#9292ff"/>
    </g>
  </g>
</svg>
