<svg id="Grupo_28619" data-name="Grupo 28619" xmlns="http://www.w3.org/2000/svg" width="95" height="16.368" viewBox="0 0 95 16.368">
  <path id="Caminho_21396" data-name="Caminho 21396" d="M647.449,0c.254.058.516.054.774.09a7.337,7.337,0,0,1,3.016.981,4.482,4.482,0,0,1,2.095,2.968,4.211,4.211,0,0,1,.082.953c0,.089-.021.121-.122.121q-2.1-.005-4.2,0c-.061,0-.13.017-.12-.085a1.577,1.577,0,0,0-1.467-1.606,5.355,5.355,0,0,0-1.833.026,1.132,1.132,0,0,0-.612.323.857.857,0,0,0-.007,1.311,2.241,2.241,0,0,0,.963.527c.786.236,1.592.4,2.388.605a14.008,14.008,0,0,1,2.452.758,8.747,8.747,0,0,1,1.48.86,3.58,3.58,0,0,1,1.5,2.411,5.169,5.169,0,0,1-.449,3.13,4.752,4.752,0,0,1-2.254,2.154,8.165,8.165,0,0,1-2.862.773,11.776,11.776,0,0,1-4.066-.251,5.8,5.8,0,0,1-3.671-2.6,4.609,4.609,0,0,1-.6-1.795c-.048-.311-.062-.625-.082-.939-.007-.105.013-.149.141-.148q2.066.008,4.133,0c.116,0,.15.025.152.14a3.092,3.092,0,0,0,.149.851,1.926,1.926,0,0,0,1.489,1.324,4.543,4.543,0,0,0,2.575-.1,1.413,1.413,0,0,0,.956-.9.767.767,0,0,0-.1-.723,1.907,1.907,0,0,0-.88-.687,19.047,19.047,0,0,0-2.877-.877,11.924,11.924,0,0,1-2.557-.829,6.287,6.287,0,0,1-1.695-1.2,3.647,3.647,0,0,1-1.01-2.4A4.215,4.215,0,0,1,641.4,2.009,5.034,5.034,0,0,1,643.182.781a9.232,9.232,0,0,1,2.984-.754c.039,0,.086.015.115-.028Z" transform="translate(-558.911 0.001)" fill="#9292ff"/>
  <path id="Caminho_21397" data-name="Caminho 21397" d="M0,2.154c.268,0,.536.006.8,0,.087,0,.129.021.117.11a.542.542,0,0,0,0,.076q0,7.678,0,15.356c0,.16-.047.194-.2.185C.484,17.87.242,17.877,0,17.875V2.154" transform="translate(0 -1.871)" fill="#9292ff"/>
  <path id="Caminho_21398" data-name="Caminho 21398" d="M417.706,10.023V9.846q0-3.747,0-7.495c0-.153.037-.191.2-.191q2.39.01,4.779,0c.133,0,.163.035.163.159q0,7.707,0,15.415c0,.113-.021.154-.151.153q-2.4-.007-4.795,0a.243.243,0,0,1-.241-.142q-2.295-3.785-4.595-7.567c-.013-.022-.028-.043-.049-.076a.27.27,0,0,0-.02.16q0,3.724,0,7.449c0,.131-.024.177-.175.176q-2.2-.01-4.4,0c-.131,0-.163-.029-.163-.157q.005-7.707,0-15.415c0-.128.036-.156.165-.156q2.192.007,4.385,0a.278.278,0,0,1,.279.159q2.257,3.805,4.522,7.607c.02.034.043.067.065.1l.035,0" transform="translate(-356.622 -1.877)" fill="#9292ff"/>
  <path id="Caminho_21399" data-name="Caminho 21399" d="M255.533,10.5c.322.194.62.4.913.614a2.979,2.979,0,0,1,1.212,2.053,13.412,13.412,0,0,1,.1,1.742,7.335,7.335,0,0,0,.435,2.457,1.908,1.908,0,0,0,.125.261c.044.079.1.152.153.233a.228.228,0,0,1-.134.015c-1.514,0-3.028,0-4.543,0a.187.187,0,0,1-.206-.134,7.291,7.291,0,0,1-.572-2.78,3.773,3.773,0,0,0-.447-1.874A1.717,1.717,0,0,0,252,12.47a1.21,1.21,0,0,0-.693-.206c-.647.011-1.293,0-1.94.006-.12,0-.149-.032-.149-.144q.007-1.505,0-3.01c0-.106.03-.136.14-.135.741,0,1.483-.013,2.224.009a1.54,1.54,0,0,0,.948-.3,1.581,1.581,0,0,0,.331-2.287,1.4,1.4,0,0,0-1.108-.519c-1.036,0-2.072,0-3.107,0-.142,0-.17.035-.169.166q.006,5.823.007,11.645c0,.156-.041.187-.2.187q-2.334-.009-4.669,0c-.117,0-.158-.02-.158-.145q.006-7.715,0-15.431c0-.118.029-.151.155-.151,2.771,0,5.542-.015,8.312.011a8.455,8.455,0,0,1,3.581.708,3.93,3.93,0,0,1,2.408,3.478,4.782,4.782,0,0,1-.328,2.16,3.591,3.591,0,0,1-1.906,1.91c-.038.018-.076.033-.114.051-.009,0-.015.014-.031.03" transform="translate(-212.672 -1.862)" fill="#9292ff"/>
  <path id="Caminho_21400" data-name="Caminho 21400" d="M545.177,2.171c-.1.133-.173.24-.252.346q-2.563,3.461-5.128,6.92a.177.177,0,0,0-.006.249q2.848,4.027,5.688,8.058l.1.148h-.173q-2.982,0-5.963,0a.247.247,0,0,1-.238-.125q-2.418-3.644-4.844-7.283c-.033-.05-.068-.1-.13-.189v.214q0,3.6,0,7.192c0,.145-.023.2-.192.194q-2.366-.011-4.732,0c-.12,0-.157-.025-.156-.147q.005-7.716,0-15.432c0-.124.039-.147.158-.147q2.374.006,4.748,0c.136,0,.175.027.175.165q-.007,3.428,0,6.857V9.4c.093-.129.163-.224.231-.321q2.367-3.388,4.73-6.777a.282.282,0,0,1,.266-.134q2.761.006,5.521,0Z" transform="translate(-462.767 -1.882)" fill="#9292ff"/>
  <path id="Caminho_21401" data-name="Caminho 21401" d="M365.758,10.024q0,3.846,0,7.691c0,.151-.044.18-.191.179q-2.224-.008-4.447,0c-.13,0-.164-.029-.164-.157q.005-7.707,0-15.413c0-.127.035-.158.165-.157q2.232.007,4.463,0c.138,0,.174.03.174.166q-.007,3.846,0,7.691" transform="translate(-315.116 -1.882)" fill="#9292ff"/>
  <path id="Caminho_21402" data-name="Caminho 21402" d="M96.281,10.021q0-3.838,0-7.677c0-.148.04-.182.191-.181.967.007,1.935.006,2.9,0,.117,0,.149.026.148.141q0,7.722,0,15.444c0,.114-.029.142-.147.141q-1.467-.007-2.933,0c-.138,0-.16-.043-.16-.163q.006-3.853,0-7.707" transform="translate(-83.614 -1.878)" fill="#9292ff"/>
  <path id="Caminho_21403" data-name="Caminho 21403" d="M71.739,10.036q0-3.846,0-7.693c0-.148.038-.184.19-.182q.954.013,1.909,0c.146,0,.17.042.17.17Q74,9.781,74,17.231c0,.182,0,.365,0,.547,0,.088-.029.111-.117.11-.673,0-1.346,0-2.019,0-.126,0-.129-.053-.129-.145q0-1.817,0-3.633Z" transform="translate(-62.3 -1.877)" fill="#9292ff"/>
  <path id="Caminho_21404" data-name="Caminho 21404" d="M48.95,10.019q0-3.839,0-7.678c0-.149.039-.185.19-.181.42.011.841.006,1.262,0,.093,0,.141.018.124.116a.36.36,0,0,0,0,.061q0,7.685,0,15.37c0,.147-.036.184-.188.18-.41-.011-.82-.009-1.23,0-.134,0-.162-.038-.161-.161q.006-3.854,0-7.708" transform="translate(-42.509 -1.876)" fill="#9292ff"/>
  <path id="Caminho_21405" data-name="Caminho 21405" d="M27.383,10.031q0,3.845,0,7.69c0,.131-.023.184-.175.177-.278-.013-.557-.009-.835,0-.112,0-.172-.019-.15-.139a.347.347,0,0,0,0-.061q0-7.659,0-15.319c0-.241-.022-.2.206-.2.268,0,.536.005.8,0,.115,0,.153.024.15.141-.008.4,0,.8,0,1.2v6.52" transform="translate(-22.771 -1.884)" fill="#9292ff"/>
  <path id="Caminho_21406" data-name="Caminho 21406" d="M139.875,9.391c.09.041.17.074.248.111a3.824,3.824,0,0,1,2.153,2.693,4.3,4.3,0,0,1-1.061,4,4.18,4.18,0,0,1-1.938,1.168,10.784,10.784,0,0,1-3.173.493c-2.7.039-5.393.02-8.09.031-.157,0-.184-.042-.184-.183q.006-7.677,0-15.354c0-.148.028-.192.193-.192,2.9.006,5.8,0,8.707.007a8.339,8.339,0,0,1,2.365.294,3.222,3.222,0,0,1,2.4,2.45,5.19,5.19,0,0,1-.065,2.907,2.251,2.251,0,0,1-1.559,1.574m-6.97,4.715c0,.139.04.164.174.163,1.12-.005,2.24,0,3.359,0a1.547,1.547,0,0,0,.375-.04,1.283,1.283,0,0,0,1.075-1,1.964,1.964,0,0,0,.007-.621,1.333,1.333,0,0,0-.955-1.249,2.478,2.478,0,0,0-.745-.1c-.857,0-1.714,0-2.571,0-.12,0-.145-.031-.145-.142q.007-1.353,0-2.706c0-.12.039-.138.15-.137.752,0,1.5.023,2.255,0a1.307,1.307,0,0,0,1.161-.671,1.169,1.169,0,0,0-1.086-1.723c-.957-.006-1.914,0-2.87,0-.137,0-.183.024-.183.169.007,1.343,0,2.686,0,4.028s0,2.7,0,4.044" transform="translate(-111.663 -1.875)" fill="#9292ff"/>
</svg>
