<svg id="Grupo_28869" data-name="Grupo 28869" xmlns="http://www.w3.org/2000/svg" xmlns:xlink="http://www.w3.org/1999/xlink" width="95" height="17.483" viewBox="0 0 95 17.483">
  <defs>
    <clipPath id="clip-path">
      <rect id="Retângulo_5863" data-name="Retângulo 5863" width="95" height="17.483" transform="translate(0 0)" fill="#9292ff"/>
    </clipPath>
  </defs>
  <g id="Grupo_28868" data-name="Grupo 28868" transform="translate(0 0)" clip-path="url(#clip-path)">
    <path id="Caminho_21455" data-name="Caminho 21455" d="M426.393,8.758a23.828,23.828,0,0,1,.168-3,12.229,12.229,0,0,1,.845-3.41A4.541,4.541,0,0,1,428.6.637a2.73,2.73,0,0,1,2.077-.625,3.919,3.919,0,0,1,1.984.68,1.881,1.881,0,0,1,.779.983.778.778,0,0,1-.248.875,2.829,2.829,0,0,0-1,2.275,2.25,2.25,0,0,0,1.788,2.062A2.135,2.135,0,0,0,436.5,5.293a3.832,3.832,0,0,0,.064-1.707A6.082,6.082,0,0,0,435.43.878c-.058-.078-.088-.16,0-.227s.155-.01.217.049l1.2,1.157,5.952,5.736c.059.057.125.107.184.163a1.442,1.442,0,0,1-.01,2.119q-1.072,1.028-2.143,2.057-2.567,2.472-5.132,4.946a.439.439,0,0,1-.151.108c-.048.018-.093.025-.129-.018a.113.113,0,0,1-.021-.139,1.755,1.755,0,0,1,.108-.18,6.04,6.04,0,0,0,1.12-3.209,2.99,2.99,0,0,0-.383-1.724,2.134,2.134,0,0,0-3.192-.531,2.264,2.264,0,0,0-.718,2.558,3.033,3.033,0,0,0,.905,1.372.667.667,0,0,1,.214.78,1.559,1.559,0,0,1-.514.7,3.837,3.837,0,0,1-1.889.827,3.162,3.162,0,0,1-1.633-.1,3.122,3.122,0,0,1-1.508-1.254,7.357,7.357,0,0,1-.968-2.286,16.162,16.162,0,0,1-.451-2.749q-.1-1.135-.092-2.273" transform="translate(-348.438 0.001)" fill="#9292ff"/>
    <path id="Caminho_21456" data-name="Caminho 21456" d="M0,18.4a5.7,5.7,0,0,1,.661-2.818,4.684,4.684,0,0,1,3-2.5A4.3,4.3,0,0,1,8.05,14.2a2.63,2.63,0,0,1,.761,1.426,1.379,1.379,0,0,1-.593,1.48,1.081,1.081,0,0,1-1.651-.892,1.247,1.247,0,0,1,.339-.955c.044-.046.034-.077,0-.12a1.849,1.849,0,0,0-1.414-.88,2.328,2.328,0,0,0-2.411,1.32,5.622,5.622,0,0,0-.678,2.64,6.1,6.1,0,0,0,.278,2.115,4.465,4.465,0,0,0,.739,1.415,2.317,2.317,0,0,0,2.992.48,2.038,2.038,0,0,0,.534-.538.1.1,0,0,0-.01-.148,1.217,1.217,0,0,1-.11-1.515,1.115,1.115,0,0,1,1.622-.161,1.181,1.181,0,0,1,.435.948,2.6,2.6,0,0,1-.918,1.921,4.305,4.305,0,0,1-2.32,1.119,4.576,4.576,0,0,1-3.471-.9A5.453,5.453,0,0,1,0,18.4" transform="translate(0 -10.54)" fill="#9292ff"/>
    <path id="Caminho_21457" data-name="Caminho 21457" d="M374.865,10.932a1.417,1.417,0,0,1,.463-1.052c.426-.387.834-.792,1.248-1.191q3.041-2.926,6.077-5.857a.583.583,0,0,1,.132-.1c.083-.044.124-.023.141.071a.279.279,0,0,1-.092.241,11.939,11.939,0,0,0-1.568,2.343,11.667,11.667,0,0,0-1.211,3.857,12.007,12.007,0,0,0,2.768,9.511.528.528,0,0,1,.095.173.135.135,0,0,1-.041.169.138.138,0,0,1-.182-.025c-.111-.1-.22-.211-.33-.317q-2.97-2.864-5.941-5.727c-.364-.35-.722-.705-1.1-1.044a1.416,1.416,0,0,1-.463-1.056" transform="translate(-306.331 -2.217)" fill="#9292ff"/>
    <path id="Caminho_21458" data-name="Caminho 21458" d="M272.556,36.7a2.888,2.888,0,0,1-2.08,1,2.492,2.492,0,0,1-1.609-.477,2.446,2.446,0,0,1-.944-1.594,8.445,8.445,0,0,1-.1-1.5c0-.579,0-1.158,0-1.737,0-.074,0-.149-.009-.222a.618.618,0,0,0-.682-.643c-.035,0-.07,0-.106,0-.156,0-.182-.02-.207-.171a.758.758,0,0,1,.227-.719,2.157,2.157,0,0,1,1.851-.572.915.915,0,0,1,.852,1.023c.021.926.021,1.853-.006,2.78a4.467,4.467,0,0,0,.248,1.672,1.008,1.008,0,0,0,.831.645,1.268,1.268,0,0,0,1.331-.589,2.379,2.379,0,0,0,.284-.972c.055-.683.013-1.368.024-2.052a2.091,2.091,0,0,0-.016-.351.647.647,0,0,0-.718-.645h-.035c-.245,0-.351-.115-.336-.365a.829.829,0,0,1,.262-.536,2.105,2.105,0,0,1,1.029-.53,1.768,1.768,0,0,1,.791-.036.95.95,0,0,1,.853,1.027c.027.723.005,1.447,0,2.17,0,.692.01,1.385-.043,2.076a1.493,1.493,0,0,0,.067.556.521.521,0,0,0,.5.4,1.964,1.964,0,0,0,.258.006.136.136,0,0,1,.157.122.7.7,0,0,1-.147.658,1.487,1.487,0,0,1-.622.406,2.727,2.727,0,0,1-1.038.215.654.654,0,0,1-.58-.337,2.651,2.651,0,0,1-.289-.708" transform="translate(-218.024 -24.545)" fill="#9292ff"/>
    <path id="Caminho_21459" data-name="Caminho 21459" d="M199.326,18.08c0-.708,0-1.416,0-2.124,0-.083-.016-.115-.107-.118-.309-.007-.618-.026-.927-.038-.059,0-.115-.009-.131-.073a.844.844,0,0,1,.109-.8.611.611,0,0,1,.48-.234c.145,0,.29,0,.435,0,.073,0,.1-.023.093-.094-.007-.242-.02-.485-.012-.727a3.155,3.155,0,0,1,.652-1.943,2.4,2.4,0,0,1,2.067-.9,4.464,4.464,0,0,1,1.293.2,2.309,2.309,0,0,1,.971.593,1.292,1.292,0,0,1,.358,1.208.95.95,0,0,1-1.675.376.92.92,0,0,1-.131-1.022c.041-.09.027-.124-.053-.169a1.211,1.211,0,0,0-1.278.115,1.319,1.319,0,0,0-.276.648,2.476,2.476,0,0,0-.036.607c.008.332.005.665,0,1,0,.09.022.119.116.118.556,0,1.112,0,1.668,0a.146.146,0,0,1,.173.142,1.366,1.366,0,0,1,.02.4.685.685,0,0,1-.707.616,6.8,6.8,0,0,1-1.1-.04c-.05-.009-.075,0-.07.058,0,.012,0,.024,0,.035q0,2.048,0,4.1a1.9,1.9,0,0,0,.049.442.616.616,0,0,0,.45.478c.169.049.342.083.513.12a.139.139,0,0,1,.113.093.464.464,0,0,1-.276.706,2.534,2.534,0,0,1-.786.18,14.258,14.258,0,0,1-1.793.071,2.118,2.118,0,0,1-.747-.131c-.431-.173-.425-.463-.29-.786a.164.164,0,0,1,.114-.092c.082-.025.161-.06.241-.09a.681.681,0,0,0,.442-.6,4.108,4.108,0,0,0,.035-.608c0-.567,0-1.134,0-1.7" transform="translate(-161.892 -9.007)" fill="#9292ff"/>
    <path id="Caminho_21460" data-name="Caminho 21460" d="M319.48,31.117a2.036,2.036,0,0,1,1.462-1.068,1.162,1.162,0,0,1,1.417.962,1.036,1.036,0,0,1-.918,1.228.931.931,0,0,1-.974-.666c-.027-.093-.055-.105-.138-.059a1.182,1.182,0,0,0-.505.625,3.582,3.582,0,0,0-.249,1.34c-.011.712,0,1.423,0,2.135a2.262,2.262,0,0,0,.029.3.638.638,0,0,0,.44.555,2.649,2.649,0,0,0,.458.142.1.1,0,0,1,.1.08.673.673,0,0,1,.058.442.525.525,0,0,1-.4.345,7.7,7.7,0,0,1-2.392.133,1.983,1.983,0,0,1-.733-.14.756.756,0,0,1-.25-.171.545.545,0,0,1,0-.643.133.133,0,0,1,.072-.033,1.735,1.735,0,0,0,.346-.143.65.65,0,0,0,.367-.572c.015-.172.023-.343.023-.515q0-1.5,0-3a1.863,1.863,0,0,0-.041-.466.369.369,0,0,0-.324-.295,1,1,0,0,0-.453.022c-.067.02-.094,0-.112-.067a.869.869,0,0,1,.3-.968,2.2,2.2,0,0,1,1.295-.491,1.124,1.124,0,0,1,1.1.87l.028.121" transform="translate(-258.817 -24.535)" fill="#9292ff"/>
    <path id="Caminho_21461" data-name="Caminho 21461" d="M131.357,31.092a2.2,2.2,0,0,1,.491-.609,2.12,2.12,0,0,1,1.183-.492,1.161,1.161,0,0,1,1.176.821,1.062,1.062,0,0,1-.523,1.286.919.919,0,0,1-1.345-.591c-.02-.07-.043-.066-.092-.043a1.148,1.148,0,0,0-.553.628,3.046,3.046,0,0,0-.232,1.2c-.009.755,0,1.509,0,2.264a1.584,1.584,0,0,0,.089.564.5.5,0,0,0,.267.294,1.873,1.873,0,0,0,.546.169.137.137,0,0,1,.118.081.559.559,0,0,1-.365.831,4.84,4.84,0,0,1-1.418.154,9.439,9.439,0,0,1-1.342-.132.987.987,0,0,1-.407-.171c-.27-.195-.223-.448-.1-.711a.123.123,0,0,1,.086-.057,1.237,1.237,0,0,0,.144-.049.841.841,0,0,0,.567-.786c.008-.172.018-.344.018-.515q0-1.432,0-2.863a1.766,1.766,0,0,0-.038-.419.42.42,0,0,0-.426-.363.954.954,0,0,0-.36.035c-.092.029-.14,0-.161-.1a.839.839,0,0,1,.2-.838,2.036,2.036,0,0,1,1.383-.586,1.119,1.119,0,0,1,1.09.994" transform="translate(-105.13 -24.504)" fill="#9292ff"/>
    <path id="Caminho_21462" data-name="Caminho 21462" d="M97.624,31.081a2.042,2.042,0,0,1,.884-.853,1.583,1.583,0,0,1,1.143-.181,1.094,1.094,0,0,1,.824.873,1.019,1.019,0,0,1-.4,1.1.979.979,0,0,1-1.529-.48c-.027-.08-.053-.092-.127-.053a1.126,1.126,0,0,0-.5.624,3.029,3.029,0,0,0-.208,1.111c-.009.841,0,1.682,0,2.522a1.7,1.7,0,0,0,.033.279.493.493,0,0,0,.31.4,2.447,2.447,0,0,0,.533.174.1.1,0,0,1,.094.081c.171.484.035.731-.468.859a5.4,5.4,0,0,1-1.8.1,6.6,6.6,0,0,1-.767-.105,1.363,1.363,0,0,1-.192-.051.51.51,0,0,1-.386-.666.244.244,0,0,1,.192-.243.822.822,0,0,0,.647-.878c.006-1,0-2.01,0-3.015q0-.258-.01-.516c-.022-.476-.254-.6-.713-.562a.833.833,0,0,0-.116.02c-.146.032-.178.015-.2-.133a.841.841,0,0,1,.228-.778,2.057,2.057,0,0,1,1.427-.6,1.1,1.1,0,0,1,1.063.894c0,.022,0,.047.034.074" transform="translate(-77.514 -24.517)" fill="#9292ff"/>
    <path id="Caminho_21463" data-name="Caminho 21463" d="M57.1,33.506a8.576,8.576,0,0,0-.046-1.271.941.941,0,0,0-.879-.822,3,3,0,0,0-1.126.1c-.07.017-.067.051-.055.11a1.274,1.274,0,0,1-.091.812.865.865,0,0,1-1,.482.928.928,0,0,1-.748-.761,1.262,1.262,0,0,1,.488-1.19A2.724,2.724,0,0,1,54.9,30.4a5.547,5.547,0,0,1,2.683.083A1.74,1.74,0,0,1,58.834,31.6a3.4,3.4,0,0,1,.147.84c.093,1.183.039,2.369.052,3.553.006.548.163.744.7.847l.127.022c.2.031.2.031.18.23a1.049,1.049,0,0,1-.814.911,1.609,1.609,0,0,1-1.541-.449,1.162,1.162,0,0,1-.192-.251c-.036-.066-.061-.078-.127-.024a3.094,3.094,0,0,1-1.493.694,2.851,2.851,0,0,1-2.9-1.075,2.2,2.2,0,0,1-.406-1.121,1.95,1.95,0,0,1,.448-1.583,2.5,2.5,0,0,1,.931-.638,4,4,0,0,1,3.062-.079l.089.029m0,1.455a.513.513,0,0,0-.342-.52,2.027,2.027,0,0,0-1.389-.089,1.111,1.111,0,0,0-.819,1.268A1.159,1.159,0,0,0,55.7,36.632a1.791,1.791,0,0,0,1.248-.515.385.385,0,0,0,.147-.346,3.346,3.346,0,0,1,0-.363c0-.149,0-.3,0-.446" transform="translate(-42.945 -24.741)" fill="#9292ff"/>
    <path id="Caminho_21464" data-name="Caminho 21464" d="M228.6,29.987a3.869,3.869,0,0,1,2.7,1.023,3.327,3.327,0,0,1,.962,1.624,4.191,4.191,0,0,1-.2,2.942,3.6,3.6,0,0,1-2.631,2.029,3.82,3.82,0,0,1-2.956-.484,3.625,3.625,0,0,1-1.69-2.65,3.8,3.8,0,0,1,.466-2.59A3.708,3.708,0,0,1,228.279,30c.105-.009.211-.011.316-.016m1.136,1.78a1.427,1.427,0,0,0-2.125-.341,2.01,2.01,0,0,0-.6.976,4.612,4.612,0,0,0-.105,2.191,2.894,2.894,0,0,0,.5,1.261,1.457,1.457,0,0,0,1.68.558,1.615,1.615,0,0,0,.952-.991,4.219,4.219,0,0,0,.26-1.6,3.554,3.554,0,0,0-.566-2.057" transform="translate(-183.642 -24.505)" fill="#9292ff"/>
    <path id="Caminho_21465" data-name="Caminho 21465" d="M163.524,33.93c-.732,0-1.464,0-2.2,0-.089,0-.119.019-.117.115a2.225,2.225,0,0,0,2.045,2.148,2.74,2.74,0,0,0,1.841-.449,2.3,2.3,0,0,0,.4-.349c.052-.059.082-.053.139,0a.807.807,0,0,1,.217.92,1.6,1.6,0,0,1-.6.819,3.1,3.1,0,0,1-1.383.573,3.8,3.8,0,0,1-2.288-.221,3.644,3.644,0,0,1-2.269-3.08,4.079,4.079,0,0,1,1-3.263,3.366,3.366,0,0,1,2.11-1.119,3.769,3.769,0,0,1,1.741.113,2.773,2.773,0,0,1,1.921,2.449,2.343,2.343,0,0,1-.21,1.265.127.127,0,0,1-.138.085c-.736,0-1.472,0-2.208,0m.36-1.113c.043,0,.086,0,.129,0,.1,0,.152-.045.145-.153s0-.219-.005-.328a1.322,1.322,0,0,0-1.25-1.246,1.426,1.426,0,0,0-1.521.933,2.633,2.633,0,0,0-.165.692c-.01.084.012.107.1.106.442,0,.884,0,1.326,0h1.244" transform="translate(-130.158 -24.489)" fill="#9292ff"/>
  </g>
</svg>
