<svg id="Grupo-Coutinho-Logo" xmlns="http://www.w3.org/2000/svg" width="95" height="29.44" viewBox="0 0 95 29.44">
  <g id="Grupo_28504" data-name="Grupo 28504" transform="translate(31.682 6.291)">
    <path id="Caminho_21354" data-name="Caminho 21354" d="M347.325,76.618a4.682,4.682,0,0,1-1.737-.323,4.358,4.358,0,0,1-1.413-.905,4.08,4.08,0,0,1-.942-1.358,4.235,4.235,0,0,1,2.328-5.608,4.622,4.622,0,0,1,1.718-.323,4.717,4.717,0,0,1,1.986.434,4.139,4.139,0,0,1,1.524,1.182L349.357,71a2.616,2.616,0,0,0-.924-.776,2.525,2.525,0,0,0-1.155-.259,2.277,2.277,0,0,0-.914.185,2.23,2.23,0,0,0-.73.5,2.083,2.083,0,0,0-.48.758,2.679,2.679,0,0,0-.175.952,2.538,2.538,0,0,0,.175.961,2.3,2.3,0,0,0,.5.767,2.374,2.374,0,0,0,.758.508,2.414,2.414,0,0,0,.942.185,2.218,2.218,0,0,0,.878-.166,1.947,1.947,0,0,0,.674-.462,1.673,1.673,0,0,0,.4-.674h-2.226V71.721H351.5v.591a4.549,4.549,0,0,1-.314,1.718,4.136,4.136,0,0,1-.878,1.367,3.823,3.823,0,0,1-1.33.905A4.323,4.323,0,0,1,347.325,76.618Z" transform="translate(-342.891 -68.1)" fill="#9292ff"/>
    <path id="Caminho_21355" data-name="Caminho 21355" d="M446.1,77.759V69.5h4.222a3.352,3.352,0,0,1,1.515.333,2.535,2.535,0,0,1,1.035.933,2.506,2.506,0,0,1,.37,1.367,2.391,2.391,0,0,1-.425,1.395,2.752,2.752,0,0,1-1.118.933l1.8,3.307h-2.263l-1.561-3.012h-1.543v3.012H446.1Zm2.032-4.665h2a1.078,1.078,0,0,0,.757-.259.937.937,0,0,0,0-1.349,1.078,1.078,0,0,0-.757-.259h-2Z" transform="translate(-436.557 -69.371)" fill="#9292ff"/>
    <path id="Caminho_21356" data-name="Caminho 21356" d="M535.451,77.879a4.1,4.1,0,0,1-1.986-.453,3.139,3.139,0,0,1-1.3-1.293,4.05,4.05,0,0,1-.462-1.968V69.5h2.032v4.665a2.143,2.143,0,0,0,.213.97,1.523,1.523,0,0,0,.61.647,1.836,1.836,0,0,0,.915.222,1.813,1.813,0,0,0,.915-.222,1.439,1.439,0,0,0,.591-.647,2.144,2.144,0,0,0,.212-.97V69.5h2.032v4.665a4.013,4.013,0,0,1-.462,1.958,3.357,3.357,0,0,1-1.312,1.3A4.294,4.294,0,0,1,535.451,77.879Z" transform="translate(-514.249 -69.371)" fill="#9292ff"/>
    <path id="Caminho_21357" data-name="Caminho 21357" d="M624.9,77.759V69.5h4.351a2.92,2.92,0,0,1,1.441.351,2.536,2.536,0,0,1,1,.952,2.62,2.62,0,0,1,.37,1.376,2.454,2.454,0,0,1-.37,1.34,2.605,2.605,0,0,1-1.007.942,2.967,2.967,0,0,1-1.441.342h-2.328v2.965H624.9Zm2.032-4.638h2.088a1,1,0,0,0,.721-.259.878.878,0,0,0,.268-.674.941.941,0,0,0-.268-.693,1.007,1.007,0,0,0-.721-.268h-2.088Z" transform="translate(-598.839 -69.371)" fill="#9292ff"/>
    <path id="Caminho_21358" data-name="Caminho 21358" d="M713.216,76.618a4.682,4.682,0,0,1-1.737-.323,4.22,4.22,0,0,1-1.4-.905,4.367,4.367,0,0,1-.942-1.358,4.369,4.369,0,0,1,0-3.344,4.079,4.079,0,0,1,.942-1.358,4.22,4.22,0,0,1,1.4-.905,4.826,4.826,0,0,1,3.473,0,4.223,4.223,0,0,1,1.4.905,4.368,4.368,0,0,1,.942,1.358,4.37,4.37,0,0,1,0,3.344,4.08,4.08,0,0,1-.942,1.358,4.223,4.223,0,0,1-1.4.905A4.683,4.683,0,0,1,713.216,76.618Zm0-1.866a2.356,2.356,0,0,0,.924-.185,2.269,2.269,0,0,0,.739-.5,2.232,2.232,0,0,0,.49-.758,2.49,2.49,0,0,0,.176-.952,2.457,2.457,0,0,0-.176-.952,2.231,2.231,0,0,0-.49-.758,2.268,2.268,0,0,0-.739-.5,2.4,2.4,0,0,0-1.848,0,2.271,2.271,0,0,0-.739.5,2.233,2.233,0,0,0-.49.758,2.476,2.476,0,0,0-.175.942,2.537,2.537,0,0,0,.175.961,2.234,2.234,0,0,0,.49.758,2.271,2.271,0,0,0,.739.5A2.357,2.357,0,0,0,713.216,74.751Z" transform="translate(-674.989 -68.1)" fill="#9292ff"/>
    <path id="Caminho_21359" data-name="Caminho 21359" d="M347.244,193.208a4.78,4.78,0,0,1-1.755-.323,4.274,4.274,0,0,1-2.356-2.254,4.392,4.392,0,0,1,0-3.353,3.95,3.95,0,0,1,.942-1.349,4.516,4.516,0,0,1,1.413-.905,4.684,4.684,0,0,1,1.737-.323,4.507,4.507,0,0,1,1.349.2,4.6,4.6,0,0,1,1.219.564,3.817,3.817,0,0,1,.942.859l-1.358,1.33a2.959,2.959,0,0,0-.97-.822,2.506,2.506,0,0,0-1.164-.268,2.356,2.356,0,0,0-.924.185,2.309,2.309,0,0,0-.748.5,2.253,2.253,0,0,0-.5.757,2.49,2.49,0,0,0-.176.952,2.447,2.447,0,0,0,.185.942,2.325,2.325,0,0,0,.508.758,2.294,2.294,0,0,0,.767.5,2.538,2.538,0,0,0,.961.175,2.426,2.426,0,0,0,1.118-.259,2.867,2.867,0,0,0,.924-.767l1.33,1.312a3.722,3.722,0,0,1-.933.841,4.653,4.653,0,0,1-2.513.748Z" transform="translate(-342.8 -173.928)" fill="#9292ff"/>
    <path id="Caminho_21360" data-name="Caminho 21360" d="M435.116,193.218a4.681,4.681,0,0,1-1.737-.323,4.22,4.22,0,0,1-1.4-.905,4.367,4.367,0,0,1-.942-1.358,4.369,4.369,0,0,1,0-3.344,4.081,4.081,0,0,1,.942-1.358,4.221,4.221,0,0,1,1.4-.905,4.826,4.826,0,0,1,3.474,0,4.22,4.22,0,0,1,1.4.905,4.368,4.368,0,0,1,.942,1.358,4.37,4.37,0,0,1,0,3.344,4.079,4.079,0,0,1-.942,1.358,4.218,4.218,0,0,1-1.4.905A4.646,4.646,0,0,1,435.116,193.218Zm0-1.866a2.355,2.355,0,0,0,.924-.185,2.268,2.268,0,0,0,.739-.5,2.23,2.23,0,0,0,.49-.758,2.49,2.49,0,0,0,.176-.951,2.457,2.457,0,0,0-.176-.952,2.323,2.323,0,0,0-.49-.758,2.268,2.268,0,0,0-.739-.5,2.4,2.4,0,0,0-1.848,0,2.269,2.269,0,0,0-.739.5,2.234,2.234,0,0,0-.49.758,2.477,2.477,0,0,0-.175.942,2.538,2.538,0,0,0,.175.961,2.233,2.233,0,0,0,.49.758,2.269,2.269,0,0,0,.739.5A2.232,2.232,0,0,0,435.116,191.351Z" transform="translate(-422.58 -173.928)" fill="#9292ff"/>
    <path id="Caminho_21361" data-name="Caminho 21361" d="M538.751,194.479a4.1,4.1,0,0,1-1.986-.453,3.138,3.138,0,0,1-1.3-1.293,4.048,4.048,0,0,1-.462-1.968V186.1h2.032v4.665a2.145,2.145,0,0,0,.212.97,1.525,1.525,0,0,0,.61.647,2,2,0,0,0,1.829,0,1.439,1.439,0,0,0,.591-.647,2.143,2.143,0,0,0,.213-.97V186.1h2.032v4.665a4.013,4.013,0,0,1-.462,1.958,3.355,3.355,0,0,1-1.312,1.3A4.03,4.03,0,0,1,538.751,194.479Z" transform="translate(-517.244 -175.199)" fill="#9292ff"/>
    <path id="Caminho_21362" data-name="Caminho 21362" d="M625.807,194.359v-6.467H623.1V186.1h7.437v1.792h-2.7v6.467Z" transform="translate(-597.206 -175.199)" fill="#9292ff"/>
    <path id="Caminho_21363" data-name="Caminho 21363" d="M711.6,194.359V186.1h2.032v8.259Z" transform="translate(-677.53 -175.199)" fill="#9292ff"/>
    <path id="Caminho_21364" data-name="Caminho 21364" d="M746.8,194.359V186.1h1.912l3.751,4.795V186.1h1.912v8.259h-1.792l-3.871-4.979v4.979Z" transform="translate(-709.478 -175.199)" fill="#9292ff"/>
    <path id="Caminho_21365" data-name="Caminho 21365" d="M841.9,194.359V186.1h2.032v3.178h3.4V186.1h2.032v8.259h-2.032v-3.233h-3.4v3.233Z" transform="translate(-795.793 -175.199)" fill="#9292ff"/>
    <path id="Caminho_21366" data-name="Caminho 21366" d="M937.016,193.218a4.684,4.684,0,0,1-1.737-.323,4.22,4.22,0,0,1-1.4-.905,4.368,4.368,0,0,1-.942-1.358,4.37,4.37,0,0,1,0-3.344,4.08,4.08,0,0,1,.942-1.358,4.221,4.221,0,0,1,1.4-.905,4.827,4.827,0,0,1,3.474,0,4.221,4.221,0,0,1,1.4.905,4.369,4.369,0,0,1,.942,1.358,4.371,4.371,0,0,1,0,3.344,4.082,4.082,0,0,1-.942,1.358,4.317,4.317,0,0,1-1.4.905A4.682,4.682,0,0,1,937.016,193.218Zm0-1.866a2.356,2.356,0,0,0,.924-.185,2.269,2.269,0,0,0,.739-.5,2.232,2.232,0,0,0,.49-.758,2.488,2.488,0,0,0,.175-.951,2.456,2.456,0,0,0-.175-.952,2.326,2.326,0,0,0-.49-.758,2.269,2.269,0,0,0-.739-.5,2.4,2.4,0,0,0-1.847,0,2.27,2.27,0,0,0-.739.5,2.229,2.229,0,0,0-.49.758,2.475,2.475,0,0,0-.175.942,2.536,2.536,0,0,0,.175.961,2.229,2.229,0,0,0,.49.758,2.27,2.27,0,0,0,.739.5A2.2,2.2,0,0,0,937.016,191.351Z" transform="translate(-878.114 -173.928)" fill="#9292ff"/>
  </g>
  <g id="Grupo_28505" data-name="Grupo 28505" transform="translate(0)">
    <path id="Caminho_21367" data-name="Caminho 21367" d="M14.709,0a13.23,13.23,0,0,1,8.527,3.723c.148.129.139.212.009.351-.471.48-.942.961-1.386,1.46-.194.222-.3.148-.48-.009a10.781,10.781,0,0,0-5.293-2.688,10.821,10.821,0,0,0-10,3.012,12.413,12.413,0,0,0-.6,17.09,10.8,10.8,0,0,0,9.506,3.8A11.059,11.059,0,0,0,23.208,21.8a11.7,11.7,0,0,0,1.986-4.832c.046-.249.129-.36.406-.351.6.018,1.21.028,1.811,0,.323-.018.37.1.323.388a14.959,14.959,0,0,1-2.125,5.755,14,14,0,0,1-6.3,5.515,12.773,12.773,0,0,1-7.612.952C6.45,28.259,2.94,25.146.916,20.278A13.486,13.486,0,0,1-.118,14.107C.316,8.093,3.106,3.64,8.658,1.062A13.829,13.829,0,0,1,14.709,0Z" transform="translate(0.151 0)" fill="#9292ff"/>
    <path id="Caminho_21368" data-name="Caminho 21368" d="M66.53,68.732H62.493c-.166,0-.24-.055-.24-.231.009-.73.009-1.46,0-2.18,0-.194.092-.24.268-.24h7.732c.212,0,.268.055.222.277A9.569,9.569,0,0,1,67.6,71.43a8.414,8.414,0,0,1-4.37,2.254,8.774,8.774,0,0,1-8.545-3.021,9.3,9.3,0,0,1-2.134-4.3,9.768,9.768,0,0,1,1.728-8.148,8.925,8.925,0,0,1,12.73-1.792c.176.129.268.323.453.434.092.055.037.157-.018.231-.471.573-1.007,1.072-1.515,1.6-.129.129-.2.028-.277-.037a6.406,6.406,0,0,0-7.16-.748,6.7,6.7,0,0,0-3.446,4.434,7.072,7.072,0,0,0,4.3,8.508,6.465,6.465,0,0,0,7.187-2.032C66.539,68.815,66.53,68.806,66.53,68.732Z" transform="translate(-47.458 -49.48)" fill="#9292ff"/>
  </g>
</svg>
