<svg xmlns="http://www.w3.org/2000/svg" width="51.319" height="32" viewBox="0 0 51.319 32">
  <g id="g61" transform="translate(-151.345 -95.727)">
    <g id="Layer_1" data-name="Layer 1" transform="translate(151.345 95.727)">
      <rect id="rect8" width="1.931" height="7.711" transform="translate(9.143 18.985)" fill="#9292ff"/>
      <path id="path10" d="M3.727,43.572H2.182V39.116H3.677c2.011,0,2.318.923,2.318,2.227,0,1.324-.3,2.229-2.268,2.229m.05-6.084H.25V45.2H3.825c3.516,0,4.13-2.132,4.13-3.856s-.624-3.855-4.179-3.855Z" transform="translate(-0.25 -18.503)" fill="#9292ff"/>
      <path id="polygon12" d="M64.851,45.2h1.931V40.43L70.5,45.2h1.933V37.488H70.5v4.735l-3.714-4.735H64.851Z" transform="translate(-31.698 -18.503)" fill="#9292ff"/>
      <path id="path14" d="M85.293,41.915l1.057-2.149,1.059,2.153Zm1.881-4.428H85.539L81.547,45.2h2.13l.9-1.838h3.54l.913,1.838h2.111Z" transform="translate(-39.826 -18.503)" fill="#9292ff"/>
      <path id="path16" d="M49.731,43.567a2.045,2.045,0,0,1-2.3-2.276,2.293,2.293,0,1,1,4.585,0,2.034,2.034,0,0,1-2.287,2.276m-.01-6.264c-2.783,0-4.25,1.723-4.25,3.988,0,2.3,1.466,3.913,4.25,3.913,2.745,0,4.26-1.618,4.26-3.913S52.525,37.3,49.721,37.3Z" transform="translate(-22.264 -18.413)" fill="#9292ff"/>
      <path id="polygon18" d="M25.4,45.21H27.33V41.115h.02l2.008,4.095H30.3l2.008-4.095h.019V45.21h1.933V37.488H32.506l-2.674,5.073-2.674-5.073H25.4Z" transform="translate(-12.493 -18.503)" fill="#9292ff"/>
      <g id="g22" transform="translate(19.83 0.003)">
        <path id="path20" d="M44.719,7.212A5.835,5.835,0,0,1,38.89,1.383a.884.884,0,1,1,1.767,0,4.062,4.062,0,1,0,8.124,0,.884.884,0,0,1,1.767,0,5.835,5.835,0,0,1-5.83,5.829" transform="translate(-38.89 -0.499)" fill="#9292ff"/>
      </g>
      <g id="g26" transform="translate(16.127 0.003)">
        <path id="path24" d="M36.262,2.267h-3.7a.884.884,0,1,1,0-1.767h3.7a.884.884,0,0,1,0,1.767" transform="translate(-31.675 -0.499)" fill="#9292ff"/>
      </g>
      <g id="g30" transform="translate(7.582 0)">
        <path id="path28" d="M15.908,10.809A.884.884,0,0,1,15.283,9.3L23.828.753A.884.884,0,0,1,25.078,2L16.535,10.55a.88.88,0,0,1-.625.256" transform="translate(-15.024 -0.494)" fill="#9292ff"/>
      </g>
      <g id="g34" transform="translate(7.582 8.547)">
        <path id="path32" d="M22.387,25.4a.882.882,0,0,1-.625-.256l-6.479-6.483a.885.885,0,1,1,1.253-1.25l6.479,6.481A.885.885,0,0,1,22.39,25.4" transform="translate(-15.025 -17.148)" fill="#9292ff"/>
      </g>
      <g id="g38" transform="translate(14.061 12.256)">
        <path id="path36" d="M28.533,28.916a.884.884,0,0,1-.625-1.509l2.773-2.773a.884.884,0,0,1,1.25,1.25l-2.773,2.773a.88.88,0,0,1-.625.256" transform="translate(-27.649 -24.375)" fill="#9292ff"/>
      </g>
      <g id="g42" transform="translate(29.726 0.003)">
        <path id="path40" d="M62.755,2.267h-3.7a.884.884,0,0,1,0-1.767h3.7a.884.884,0,1,1,0,1.767" transform="translate(-58.175 -0.499)" fill="#9292ff"/>
      </g>
      <g id="g46" transform="translate(33.424 0.001)">
        <path id="path44" d="M74.809,10.81a.88.88,0,0,1-.625-.256L65.64,2.006A.884.884,0,1,1,66.887.754L75.434,9.3a.884.884,0,0,1-.625,1.509" transform="translate(-65.38 -0.496)" fill="#9292ff"/>
      </g>
      <g id="g50" transform="translate(35.491 8.548)">
        <path id="path48" d="M70.291,25.4a.885.885,0,0,1-.625-1.509l6.479-6.481a.884.884,0,1,1,1.25,1.25l-6.481,6.479a.877.877,0,0,1-.624.256" transform="translate(-69.408 -17.15)" fill="#9292ff"/>
      </g>
      <g id="g54" transform="translate(32.701 12.243)">
        <path id="path52" d="M67.643,28.9a.88.88,0,0,1-.625-.256l-2.773-2.773a.884.884,0,1,1,1.249-1.25L68.268,27.4a.884.884,0,0,1-.625,1.506" transform="translate(-63.97 -24.35)" fill="#9292ff"/>
      </g>
      <g id="g58" transform="translate(16.022 30.232)">
        <path id="path56" d="M49.862,61.173H32.354a.884.884,0,1,1,0-1.767H49.862a.884.884,0,1,1,0,1.767" transform="translate(-31.471 -59.405)" fill="#9292ff"/>
      </g>
    </g>
  </g>
</svg>
