<svg id="Grupo_28871" data-name="Grupo 28871" xmlns="http://www.w3.org/2000/svg" xmlns:xlink="http://www.w3.org/1999/xlink" width="95" height="27.581" viewBox="0 0 95 27.581">
  <defs>
    <clipPath id="clip-path">
      <rect id="Retângulo_5864" data-name="Retângulo 5864" width="95" height="27.58" fill="#9292ff"/>
    </clipPath>
  </defs>
  <g id="Grupo_28870" data-name="Grupo 28870" clip-path="url(#clip-path)">
    <path id="Caminho_21466" data-name="Caminho 21466" d="M107.963,85.046a3.455,3.455,0,0,1,2.447-1.821,3.4,3.4,0,0,1,2.456.322A2.708,2.708,0,0,1,114.082,85a5.083,5.083,0,0,1,1.236-1.271,3.636,3.636,0,0,1,4.209.027,3.352,3.352,0,0,1,1.114,2.156,6.908,6.908,0,0,1,.079,1.164c0,1.916,0,3.831,0,5.747,0,.215-.036.3-.278.292-.813-.017-1.627-.013-2.44,0-.192,0-.232-.055-.232-.237.007-1.808,0-3.616,0-5.424a2.618,2.618,0,0,0-.154-.975,1.093,1.093,0,0,0-1-.736,1.786,1.786,0,0,0-1.78.984,3.883,3.883,0,0,0-.4,1.778q-.026,2.176-.016,4.353c0,.208-.053.26-.259.257q-1.207-.019-2.415,0c-.2,0-.241-.063-.24-.25.007-1.766,0-3.533,0-5.3a3.249,3.249,0,0,0-.129-1.03,1.064,1.064,0,0,0-1.026-.794,1.832,1.832,0,0,0-1.857,1.149,4.8,4.8,0,0,0-.338,1.944q-.007,2.015,0,4.03c0,.19-.041.253-.244.25-.821-.012-1.643-.01-2.465,0-.176,0-.242-.03-.241-.227q.01-4.665,0-9.329c0-.152.026-.215.2-.213.772.011,1.543.005,2.315,0,.1,0,.186-.007.187.129a7.741,7.741,0,0,1,.031,1.565" transform="translate(-83.382 -65.831)" fill="#9292ff"/>
    <path id="Caminho_21467" data-name="Caminho 21467" d="M194.705,84.959a3.7,3.7,0,0,1,4.583-1.6,2.748,2.748,0,0,1,1.515,1.606,5.69,5.69,0,0,1,.822-.942,3.649,3.649,0,0,1,3.958-.7,2.788,2.788,0,0,1,1.661,2.01,5.461,5.461,0,0,1,.2,1.473c0,2.007,0,4.014,0,6.02,0,.182-.028.255-.237.251-.821-.014-1.643-.012-2.465,0-.194,0-.246-.047-.245-.243.008-1.816,0-3.632,0-5.448a2.5,2.5,0,0,0-.169-.973,1.09,1.09,0,0,0-.993-.708,1.791,1.791,0,0,0-1.833,1.1,4.753,4.753,0,0,0-.349,1.99c0,1.343,0,2.687,0,4.03,0,.189-.038.254-.242.251-.813-.013-1.626-.011-2.44,0-.191,0-.25-.043-.249-.244q.008-2.836-.006-5.672a2.234,2.234,0,0,0-.06-.492,1.239,1.239,0,0,0-1.738-.9,1.829,1.829,0,0,0-1.232,1.168,4.658,4.658,0,0,0-.3,1.752c0,1.385-.006,2.77,0,4.155,0,.191-.052.231-.234.229-.838-.01-1.676-.008-2.514,0-.146,0-.2-.027-.2-.188q.008-4.7,0-9.4c0-.147.05-.176.184-.175.772.006,1.544.007,2.315,0,.148,0,.2.033.2.187a9.889,9.889,0,0,1,.048,1.46" transform="translate(-152.106 -65.794)" fill="#9292ff"/>
    <path id="Caminho_21468" data-name="Caminho 21468" d="M33.6,22.617a3.9,3.9,0,0,1,2.447-1.835,3.357,3.357,0,0,1,3.327.776,3.447,3.447,0,0,1,.927,2.275c.1,1.249.032,2.5.044,3.753.01.97,0,1.94.005,2.91,0,.164-.045.208-.208.206-.838-.008-1.676-.011-2.513,0-.2,0-.225-.064-.224-.239q.009-2.661,0-5.323a4.281,4.281,0,0,0-.05-.668A1.269,1.269,0,0,0,35.7,23.353,2.311,2.311,0,0,0,33.814,25.8c0,1.542-.006,3.084,0,4.626,0,.23-.06.286-.285.282-.813-.014-1.626-.01-2.439,0-.166,0-.226-.031-.226-.214q.009-4.663,0-9.327c0-.164.029-.231.214-.229.755.011,1.51.008,2.265,0,.148,0,.228.022.227.2a7.723,7.723,0,0,1,.029,1.486" transform="translate(-24.46 -16.361)" fill="#9292ff"/>
    <path id="Caminho_21469" data-name="Caminho 21469" d="M90.738,2.61a3.837,3.837,0,0,0-1.123-.124A1.443,1.443,0,0,0,88.1,3.98c-.018.6-.018.6.581.6.506,0,1.012.006,1.518,0,.152,0,.2.036.195.192q-.014.957,0,1.915c0,.162-.055.19-.2.188-.581-.008-1.162.006-1.742-.008-.193,0-.23.057-.23.237.006,2.322,0,4.643.01,6.965,0,.235-.069.283-.288.279q-1.207-.02-2.414,0c-.189,0-.231-.049-.23-.233.007-2.322,0-4.643.01-6.965,0-.229-.057-.3-.285-.284-.272.02-.548-.005-.821.009-.163.008-.19-.055-.189-.2q.01-.957,0-1.915c0-.139.037-.185.179-.181.332.01.664-.007,1,.007.181.008.219-.057.218-.226a7.088,7.088,0,0,1,.081-1.585A3.3,3.3,0,0,1,88.3.114,6.22,6.22,0,0,1,90.573.1c.1.016.168.02.167.153-.006.779,0,1.557,0,2.359" transform="translate(-66.573 0)" fill="#9292ff"/>
    <path id="Caminho_21470" data-name="Caminho 21470" d="M373.294,90.022c0,.86,0,1.68,0,2.5,0,.142-.079.183-.178.23a6.351,6.351,0,0,1-3.626.585,4.894,4.894,0,0,1-2.841-1.3,4.945,4.945,0,0,1-1.534-3.476,5.138,5.138,0,0,1,1.364-3.97,4.855,4.855,0,0,1,3.1-1.476,6.282,6.282,0,0,1,3.46.561.293.293,0,0,1,.2.313c-.011.8,0,1.608,0,2.445a5.445,5.445,0,0,0-1.211-.573,3.876,3.876,0,0,0-1.984-.152,2.471,2.471,0,0,0-1.961,2.829,2.51,2.51,0,0,0,3.064,2.253,5.316,5.316,0,0,0,2.151-.771" transform="translate(-289.317 -65.829)" fill="#9292ff"/>
    <path id="Caminho_21471" data-name="Caminho 21471" d="M8.131,86.433a4.646,4.646,0,0,0-2.718-.788,2.437,2.437,0,0,0-2.356,1.828A2.623,2.623,0,0,0,4.1,90.424a3.112,3.112,0,0,0,2.26.316,5.4,5.4,0,0,0,1.831-.718v.614c0,.613,0,1.227,0,1.84,0,.113,0,.2-.132.259a5.994,5.994,0,0,1-5.72-.113,4.585,4.585,0,0,1-2.262-3.48A5.337,5.337,0,0,1,.959,85.1a4.813,4.813,0,0,1,3.624-2,6.119,6.119,0,0,1,3.381.589c.078.039.17.05.169.178,0,.843,0,1.686,0,2.564" transform="translate(0 -65.825)" fill="#9292ff"/>
    <path id="Caminho_21472" data-name="Caminho 21472" d="M336.73,85.992a2.643,2.643,0,0,0-3.235,2.129,4.065,4.065,0,0,0-.1.961c0,1.269,0,2.538.006,3.806,0,.2-.059.243-.248.24-.821-.01-1.643-.008-2.465,0-.161,0-.211-.04-.211-.206q.007-4.677,0-9.354c0-.159.037-.211.205-.209q1.133.014,2.265,0c.168,0,.2.055.21.208.03.429.051.858.045,1.308.122-.038.145-.145.2-.218a3.454,3.454,0,0,1,2.162-1.516,3.541,3.541,0,0,1,1.04-.023c.114.011.13.07.13.165,0,.9,0,1.79,0,2.709" transform="translate(-261.873 -65.842)" fill="#9292ff"/>
    <path id="Caminho_21473" data-name="Caminho 21473" d="M124.9,22.528a4.362,4.362,0,0,1,1.032-1.186,3.016,3.016,0,0,1,2.31-.621c.116.016.176.044.175.178-.005.895,0,1.789,0,2.692a2.447,2.447,0,0,0-2.614.856,3.1,3.1,0,0,0-.722,2.066c0,1.326,0,2.652,0,3.978,0,.194-.047.249-.244.246-.829-.011-1.659-.009-2.488,0-.161,0-.206-.04-.206-.2q.007-4.674,0-9.349c0-.145.014-.219.194-.217q1.144.017,2.289,0c.171,0,.2.06.208.212.012.433.039.867.062,1.348" transform="translate(-96.793 -16.396)" fill="#9292ff"/>
    <path id="Caminho_21474" data-name="Caminho 21474" d="M3.612,26.9c0-1.55,0-3.1,0-4.65,0-.187.047-.234.233-.232.829.011,1.659.009,2.488,0,.166,0,.226.034.226.215q-.008,4.674,0,9.349c0,.167-.051.205-.21.2-.846-.008-1.692-.009-2.538,0-.177,0-.2-.065-.2-.214q.007-2.337,0-4.674" transform="translate(-2.858 -17.449)" fill="#9292ff"/>
    <path id="Caminho_21475" data-name="Caminho 21475" d="M56.054,88.221a5.2,5.2,0,1,1-5.187-5.142,5.033,5.033,0,0,1,5.187,5.142m-7.565.747a2.323,2.323,0,0,0,1.794,1.884,2.291,2.291,0,0,0,2.441-.839,2.923,2.923,0,0,0,.541-2.231,2.43,2.43,0,0,0-3.393-2.03,2.471,2.471,0,0,0-1.459,2.288,3.622,3.622,0,0,0,.076.928" transform="translate(-36.171 -65.833)" fill="#9292ff"/>
    <path id="Caminho_21476" data-name="Caminho 21476" d="M162.649,29.232a3.5,3.5,0,0,1-4.887,1.284,2.7,2.7,0,0,1-1.233-2.793,2.825,2.825,0,0,1,2-2.45,7.208,7.208,0,0,1,3.133-.375c.149.009.3.022.446.037.33.033.33.034.323-.284a1.372,1.372,0,0,0-1.247-1.409,5.9,5.9,0,0,0-3.705.631c-.066.033-.13.069-.2.1-.069-.056-.037-.127-.037-.186,0-.729,0-1.459-.006-2.189a.282.282,0,0,1,.217-.321,9.7,9.7,0,0,1,3.932-.552,5.483,5.483,0,0,1,1.813.387,3.3,3.3,0,0,1,2.107,2.917c.066.644.025,1.292.027,1.938,0,1.509,0,3.018.007,4.526,0,.213-.06.258-.262.255-.73-.013-1.46-.01-2.19,0-.159,0-.219-.038-.218-.2a9.18,9.18,0,0,1-.027-1.316m-2.812-2.473a1.143,1.143,0,0,0-.5,1.355,1.045,1.045,0,0,0,1.151.665,1.71,1.71,0,0,0,.246-.03,2.209,2.209,0,0,0,1.638-2.12c.008-.128-.083-.124-.162-.135a6.17,6.17,0,0,0-.89-.077,2.812,2.812,0,0,0-1.48.342" transform="translate(-124.02 -16.412)" fill="#9292ff"/>
    <path id="Caminho_21477" data-name="Caminho 21477" d="M281.224,88.874c-.987,0-1.974,0-2.961,0-.2,0-.231.044-.2.237a2.207,2.207,0,0,0,2.008,1.778,7.764,7.764,0,0,0,3.84-.571c.157-.062.222-.094.219.125-.012.688-.009,1.376,0,2.064a.271.271,0,0,1-.195.294,8.174,8.174,0,0,1-2.433.567,7.066,7.066,0,0,1-3.329-.348,4.7,4.7,0,0,1-3.137-4.108,5.162,5.162,0,0,1,1.258-4.2,4.768,4.768,0,0,1,3.956-1.6A4.346,4.346,0,0,1,283,84.121a4.441,4.441,0,0,1,1.511,3.411,10.459,10.459,0,0,1-.046,1.116c-.015.187-.074.231-.252.23-1-.008-1.991,0-2.986,0m.322-1.518c.1,0,.173.006.169-.136a1.752,1.752,0,0,0-1.2-1.724,1.886,1.886,0,0,0-2.451,1.639c-.031.18-.005.228.18.224.546-.011,1.093,0,1.64,0s1.11,0,1.665,0" transform="translate(-217.91 -65.853)" fill="#9292ff"/>
    <path id="Caminho_21478" data-name="Caminho 21478" d="M418.059,88.716c-.987,0-1.975.006-2.962,0-.206,0-.231.068-.2.245a2.168,2.168,0,0,0,1.748,1.724,6.373,6.373,0,0,0,2.59-.07,6.256,6.256,0,0,0,1.585-.487c.141-.068.147-.007.146.106,0,.721-.006,1.443,0,2.164,0,.154-.085.2-.195.243a7.325,7.325,0,0,1-1.915.507,8.1,8.1,0,0,1-3.45-.147,4.759,4.759,0,0,1-3.552-4.413A4.94,4.94,0,0,1,414.49,83.5a4.8,4.8,0,0,1,4.433-.112,4.137,4.137,0,0,1,2.393,3.581,7.348,7.348,0,0,1-.032,1.562c-.016.157-.072.184-.213.184-1-.005-2.008,0-3.012,0m.3-1.518c.106,0,.191.007.183-.148a1.759,1.759,0,0,0-2.52-1.641,1.923,1.923,0,0,0-1.136,1.6c-.029.164.015.2.17.193.546-.008,1.093,0,1.639,0s1.109,0,1.664,0" transform="translate(-326.345 -65.695)" fill="#9292ff"/>
    <path id="Caminho_21479" data-name="Caminho 21479" d="M214.845,41.691a3.321,3.321,0,1,1-3.321-3.321,3.321,3.321,0,0,1,3.321,3.321" transform="translate(-164.982 -30.405)" fill="#9292ff"/>
  </g>
</svg>
