<svg id="Grupo_28617" data-name="Grupo 28617" xmlns="http://www.w3.org/2000/svg" xmlns:xlink="http://www.w3.org/1999/xlink" width="95" height="23.724" viewBox="0 0 95 23.724">
  <defs>
    <clipPath id="clip-path">
      <rect id="Retângulo_5836" data-name="Retângulo 5836" width="95" height="23.723" fill="#9292ff"/>
    </clipPath>
  </defs>
  <g id="Grupo_28599" data-name="Grupo 28599" clip-path="url(#clip-path)">
    <path id="Caminho_21407" data-name="Caminho 21407" d="M355.488,58.756c-.284.94-.559,1.847-.831,2.755-.279.927-.559,1.854-.829,2.784a.258.258,0,0,1-.3.224q-2.521-.012-5.042,0c-.192,0-.246-.023-.183-.231q1.452-4.793,2.888-9.59c.036-.121.067-.21.231-.208,1.612.019,3.224-.016,4.837.02a.866.866,0,0,1,.8.522c.923,1.695,1.86,3.383,2.792,5.073.024.043.035.1.108.12q.437-1.447.873-2.892c.264-.879.528-1.757.783-2.639a.244.244,0,0,1,.286-.2q2.534.009,5.068,0c.192,0,.224.04.169.223q-1.341,4.427-2.672,8.857a1.153,1.153,0,0,1-1.277.945c-1.271,0-2.543-.005-3.814,0a1.084,1.084,0,0,1-1.05-.622c-.906-1.665-1.827-3.322-2.743-4.981-.024-.043-.051-.085-.094-.158" transform="translate(-273.945 -42.859)" fill="#9292ff"/>
    <path id="Caminho_21408" data-name="Caminho 21408" d="M214.784,10.57h-6.346a3.686,3.686,0,0,1-.913-.093,1.679,1.679,0,0,1-1.248-2.229c.314-1.163.685-2.312,1.032-3.466q.59-1.964,1.182-3.927A.443.443,0,0,1,209,.467c1.654,0,3.308,0,4.961,0,.223,0,.276.044.206.273q-1.042,3.437-2.066,6.88c-.024.082-.053.162-.072.245-.134.588.092.882.7.893.469.009.938,0,1.407,0,.793,0,1.587-.01,2.38.007a.3.3,0,0,0,.346-.26q.77-2.615,1.553-5.226.357-1.2.722-2.388c.115-.374.19-.421.585-.421h4.782c.351,0,.356,0,.259.324q-1.439,4.794-2.876,9.588c-.05.166-.139.176-.276.176q-2.06,0-4.12,0h-2.711v.019" transform="translate(-162.185 -0.364)" fill="#9292ff"/>
    <path id="Caminho_21409" data-name="Caminho 21409" d="M70.461.036c-.219.622-.426,1.2-.626,1.789-.037.109-.11.111-.2.111q-3.352,0-6.7,0c-.673,0-1.348-.013-2.019.029a1.987,1.987,0,0,0-1.871,1.548q-.549,1.763-1.076,3.532a.991.991,0,0,0,1.019,1.373,13.9,13.9,0,0,0,1.941-.036A2.272,2.272,0,0,0,62.75,7.028c.136-.282.217-.589.331-.881.051-.131.01-.158-.118-.158-.332,0-.665,0-1-.022-.286-.019-.357-.138-.273-.406.128-.405.267-.807.385-1.214a.229.229,0,0,1,.262-.2q3.365.008,6.73,0c.166,0,.229.018.167.21-.273.849-.516,1.707-.8,2.553a4.96,4.96,0,0,1-4.732,3.4c-3.028-.005-6.055-.009-9.082-.028a2.418,2.418,0,0,1-2-.778,1.806,1.806,0,0,1-.388-1.7c.412-1.507.832-3.012,1.358-4.485A4.806,4.806,0,0,1,58.233.037q5.86-.007,11.719,0Z" transform="translate(-41.035 -0.027)" fill="#9292ff"/>
    <path id="Caminho_21410" data-name="Caminho 21410" d="M0,64.68a.587.587,0,0,1,.292-.03q2.725,0,5.45,0a1.24,1.24,0,0,0,1.372-1q1.323-4.325,2.634-8.654c.079-.261.179-.352.462-.35,1.911.015,3.821.008,5.732.008h.311c-.19.628-.373,1.236-.558,1.842-.716,2.356-1.421,4.716-2.154,7.068a4.156,4.156,0,0,1-2.984,3.011,3.96,3.96,0,0,1-1.036.133H1.307c-.586,0-.716-.1-.892-.66C.274,65.588.138,65.134,0,64.68" transform="translate(0 -42.979)" fill="#9292ff"/>
    <path id="Caminho_21411" data-name="Caminho 21411" d="M227.477,64.671c-1.51,0-3.019.02-4.529-.009a1.621,1.621,0,0,1-1.635-1,2.213,2.213,0,0,1-.025-1.455c.463-1.581.94-3.158,1.414-4.736.261-.87.532-1.738.788-2.61a.226.226,0,0,1,.262-.2q2.533.008,5.066,0c.207,0,.238.042.178.243q-1.05,3.462-2.082,6.929c-.019.065-.04.13-.057.2-.137.533.065.838.613.863.587.026,1.176.016,1.764.017,1.288,0,2.576,0,3.864,0,.226,0,.261.046.157.246-.177.338-.35.681-.5,1.034a.769.769,0,0,1-.8.5c-.742,0-1.484,0-2.226,0h-2.251v-.008" transform="translate(-173.972 -42.992)" fill="#9292ff"/>
    <path id="Caminho_21412" data-name="Caminho 21412" d="M140.591,7.005l1.438,1.187q1.213,1,2.425,2c.059.049.179.082.135.185-.034.077-.138.038-.21.038-1.518,0-3.036,0-4.554,0a2.193,2.193,0,0,1-1.472-.547q-1.531-1.3-3.075-2.575c-.555-.463-.61-.447-.811.221q-.366,1.22-.729,2.44c-.115.384-.217.46-.62.46-1.62,0-3.241,0-4.861,0-.2,0-.262-.021-.194-.246q1.44-4.78,2.859-9.566a.465.465,0,0,1,.514-.382c3.727.01,7.454.01,11.181.024a6.718,6.718,0,0,1,1.911.3,1.553,1.553,0,0,1,1.206,2.064,6.177,6.177,0,0,1-1.186,2.624A4.854,4.854,0,0,1,141.7,6.824c-.354.073-.714.117-1.114.181M137.7,2.136c-.478,0-.955,0-1.433,0-.107,0-.188,0-.228.136q-.391,1.345-.8,2.685c-.038.126-.013.163.12.162.835,0,1.669.016,2.5-.032a1.811,1.811,0,0,0,1.807-1.379c.058-.2.122-.389.181-.584.181-.6-.086-.962-.718-.968-.477,0-.955,0-1.432,0V2.136" transform="translate(-100.709 -0.177)" fill="#9292ff"/>
    <path id="Caminho_21413" data-name="Caminho 21413" d="M373.2.043h4.784a2.03,2.03,0,0,1,2.071,2.562,39.45,39.45,0,0,1-1.43,4.646,4.89,4.89,0,0,1-4.555,3.056q-4.554-.008-9.107-.028a2.556,2.556,0,0,1-1.829-.585,1.806,1.806,0,0,1-.572-1.877c.4-1.518.831-3.029,1.363-4.508A4.8,4.8,0,0,1,368.572.036c1.544,0,3.087,0,4.631,0ZM371.5,1.935a2.044,2.044,0,0,0-2.116,1.545c-.378,1.189-.738,2.384-1.091,3.581A.984.984,0,0,0,369.3,8.415c.528.009,1.057.01,1.585,0a2.351,2.351,0,0,0,2.273-1.591q.657-1.753,1.18-3.552a.968.968,0,0,0-.977-1.335c-.323-.013-.648,0-.971,0-.3,0-.6,0-.9,0" transform="translate(-285.129 -0.026)" fill="#9292ff"/>
    <path id="Caminho_21414" data-name="Caminho 21414" d="M155.973,61.046l4.135,3.4c-.123.006-.194.012-.266.012h-4.581a1.954,1.954,0,0,1-1.313-.475c-1.039-.882-2.088-1.752-3.133-2.627-.039-.033-.078-.066-.118-.1-.447-.351-.536-.322-.7.212-.278.928-.564,1.853-.835,2.782a.244.244,0,0,1-.283.209q-2.534-.009-5.067,0c-.2,0-.217-.051-.163-.23q1.448-4.82,2.883-9.644a.243.243,0,0,1,.278-.21c3.762.006,7.525,0,11.287.008a5.245,5.245,0,0,1,2,.352,1.6,1.6,0,0,1,1.04,2.049,5.756,5.756,0,0,1-1.21,2.58,5.241,5.241,0,0,1-3.2,1.6c-.233.039-.471.047-.762.075m-2.1-1.928a1.585,1.585,0,0,0,1.17-.968,6.428,6.428,0,0,0,.344-1.038.611.611,0,0,0-.47-.818,1.49,1.49,0,0,0-.4-.063c-.929-.007-1.857-.007-2.786-.01-.092,0-.154.009-.187.12-.283.959-.574,1.916-.872,2.908a19.1,19.1,0,0,0,3.2-.131" transform="translate(-112.971 -42.771)" fill="#9292ff"/>
    <path id="Caminho_21415" data-name="Caminho 21415" d="M79.51,54.375h4.811A2.032,2.032,0,0,1,86.3,56.92c-.407,1.464-.822,2.931-1.337,4.36a4.74,4.74,0,0,1-3.8,3.191,3.571,3.571,0,0,1-.662.049q-4.734,0-9.469,0a2.055,2.055,0,0,1-2.024-2.629c.4-1.412.826-2.821,1.288-4.215a4.86,4.86,0,0,1,4.625-3.309c1.526.03,3.054.006,4.581.006m-2.085,1.892a1.914,1.914,0,0,0-1.664,1.319c-.391,1.239-.765,2.483-1.137,3.728a.985.985,0,0,0,1,1.362c.537.008,1.074.011,1.611,0a2.409,2.409,0,0,0,2.339-1.755c.111-.347.227-.693.343-1.04.242-.724.492-1.446.726-2.173A1.037,1.037,0,0,0,79.6,56.215c-.264,0-.528,0-.792,0a8.811,8.811,0,0,0-1.377.052" transform="translate(-54.22 -42.764)" fill="#9292ff"/>
    <path id="Caminho_21416" data-name="Caminho 21416" d="M277.629,64.481c.484-1,.953-1.976,1.422-2.948.721-1.492,1.422-2.993,2.168-4.472a4.453,4.453,0,0,1,4.18-2.578c3.071-.035,6.142-.01,9.213-.01.3,0,.305,0,.221.283q-1.413,4.738-2.82,9.477a.315.315,0,0,1-.371.267q-2.431-.013-4.862,0c-.233,0-.267-.052-.2-.271.241-.761.452-1.532.693-2.293.07-.222.009-.257-.2-.255-.793.009-1.587.007-2.38,0a.273.273,0,0,0-.29.183c-.389.822-.791,1.637-1.181,2.459a.256.256,0,0,1-.268.175q-2.6-.006-5.195,0c-.032,0-.064-.007-.134-.015m10.109-4.568a.161.161,0,0,0,.179-.136q.5-1.683,1-3.364c.049-.162-.022-.168-.144-.166q-.46.006-.92,0a1.078,1.078,0,0,0-1.056.661q-.406.835-.809,1.672c-.208.433-.414.868-.635,1.331.819,0,1.6,0,2.381,0" transform="translate(-218.375 -42.84)" fill="#9292ff"/>
    <path id="Caminho_21417" data-name="Caminho 21417" d="M293.377.017c1.723,0,3.446-.006,5.169,0a7.186,7.186,0,0,1,2.139.326,1.536,1.536,0,0,1,1.168,2.02,6.024,6.024,0,0,1-1.311,2.783,5.064,5.064,0,0,1-2.723,1.456,12.305,12.305,0,0,1-2.852.147q-1.995-.016-3.989-.061c-.186,0-.242.066-.289.227-.273.937-.557,1.871-.837,2.806-.118.4-.246.485-.664.483-1.6-.008-3.207-.017-4.81-.015-.217,0-.269-.025-.2-.259q1.431-4.757,2.842-9.52c.1-.343.2-.412.571-.412h5.783Zm-1.013,1.907c-.118,0-.188.025-.224.147-.26.887-.522,1.774-.792,2.658-.041.135-.006.156.12.161.852.034,1.7.017,2.553-.033a1.785,1.785,0,0,0,1.763-1.393c.054-.187.12-.371.178-.557.186-.605-.089-.974-.734-.979-.46,0-.92,0-1.38,0-.494,0-.989,0-1.483,0" transform="translate(-223.504 0)" fill="#9292ff"/>
  </g>
</svg>
