<svg id="Grupo_28873" data-name="Grupo 28873" xmlns="http://www.w3.org/2000/svg" xmlns:xlink="http://www.w3.org/1999/xlink" width="95" height="23.138" viewBox="0 0 95 23.138">
  <defs>
    <clipPath id="clip-path">
      <rect id="Retângulo_5867" data-name="Retângulo 5867" width="95" height="23.138" fill="#9292ff"/>
    </clipPath>
  </defs>
  <g id="Grupo_28872" data-name="Grupo 28872" clip-path="url(#clip-path)">
    <path id="Caminho_21480" data-name="Caminho 21480" d="M767.537,23.13c-.068.025-.087-.019-.1-.119q-.187-1.265-.357-2.533c-.154-1.134-.328-2.265-.491-3.4s-.327-2.276-.488-3.415c-.1-.738-.2-1.477-.308-2.215-.176-1.233-.357-2.465-.532-3.7-.129-.909-.249-1.82-.376-2.729-.064-.454-.137-.907-.2-1.36-.014-.1-.052-.2.116-.228q1.551-.21,3.1-.431c.744-.105,1.487-.218,2.231-.323.9-.128,1.809-.249,2.713-.376,1.116-.158,2.231-.321,3.346-.479.75-.106,1.5-.2,2.251-.31,1.234-.176,2.466-.357,3.7-.533q1.4-.2,2.8-.4l3.384-.476c.248-.035.5-.068.743-.106a.277.277,0,0,1,.313.13q1.485,2.171,2.985,4.332,1.556,2.253,3.117,4.5a.321.321,0,0,1,.051.325q-.91,2.7-1.811,5.4-.8,2.374-1.588,4.75a.317.317,0,0,1-.306.255c-.975.128-1.947.28-2.921.42-.7.1-1.407.193-2.11.292-.915.129-1.83.265-2.745.393s-1.834.248-2.75.377c-1.139.16-2.278.328-3.417.49q-1.789.256-3.577.508l-3.561.5-3.029.43c-.047.007-.1.012-.179.022m9.287-13.736c0,1.412,0,2.823,0,4.235a5.226,5.226,0,0,1-.249,1.638,2.11,2.11,0,0,1-1.434,1.483,3.854,3.854,0,0,1-1.843.068,2.129,2.129,0,0,1-1.614-1.261,4.738,4.738,0,0,1-.393-2c-.014-2.866-.005-5.732-.006-8.6,0-.263.029-.226-.233-.226-.889,0-1.779,0-2.668,0-.171,0-.218.037-.218.214.007,2.451,0,4.9,0,7.354a18.8,18.8,0,0,0,.071,2.009,8.073,8.073,0,0,0,.516,2.187,5,5,0,0,0,1.776,2.3,5.4,5.4,0,0,0,2.712.932,7.161,7.161,0,0,0,3.214-.386,4.713,4.713,0,0,0,2.244-1.744,6.618,6.618,0,0,0,1.106-3.743c.038-2.986.011-5.972.015-8.958,0-.127-.035-.16-.161-.159-.877.005-1.755.008-2.632,0-.164,0-.2.046-.2.2.006,1.49,0,2.98,0,4.47h-.013m5.022,9.825c0,.151.042.19.19.189.913-.007,1.827-.008,2.74,0,.169,0,.2-.049.2-.209-.006-1.346,0-2.692-.006-4.037,0-.146.018-.208.19-.2.583.013,1.166,0,1.748.007a6.563,6.563,0,0,0,1.946-.243,4.78,4.78,0,0,0,2.127-1.24,4.9,4.9,0,0,0,1.379-3.272,6,6,0,0,0-.373-2.552,4.3,4.3,0,0,0-1.217-1.75,5.12,5.12,0,0,0-3.345-1.176c-1.778-.024-3.557-.007-5.336-.005-.272,0-.243-.04-.243.235q0,3.542,0,7.083,0,3.587,0,7.173m3.131-7.184c0,.072-.03.16.1.156.773-.021,1.55.055,2.319-.041a1.836,1.836,0,0,0,1.432-.9,2.589,2.589,0,0,0,.328-1.23,3.02,3.02,0,0,0-.22-1.385,1.883,1.883,0,0,0-1.788-1.129c-.672-.028-1.345,0-2.018-.009-.126,0-.161.033-.16.16.006.727,0,1.454,0,2.18s0,1.466,0,2.2" transform="translate(-700.555 0.001)" fill="#9292ff"/>
    <path id="Caminho_21481" data-name="Caminho 21481" d="M3.425,56.019c0,.071,0,.141,0,.211.02,2.158-.107,4.312-.2,6.467-.059,1.387-.123,2.773-.177,4.16-.005.14-.051.161-.177.161-.9-.005-1.8-.007-2.7,0-.154,0-.173-.053-.168-.183.045-1.129.085-2.257.128-3.386q.1-2.63.2-5.259.111-2.873.218-5.746c0-.1.031-.132.133-.132,1.382,0,2.764,0,4.147,0,.142,0,.152.083.177.173.5,1.773.979,3.551,1.5,5.319a37.776,37.776,0,0,1,1.163,5.14c.007.047.019.093.039.191.1-.554.2-1.057.283-1.563a39.775,39.775,0,0,1,1-4.032c.464-1.683.936-3.364,1.4-5.047.035-.128.08-.181.225-.18q2.01.01,4.02,0c.129,0,.173.025.178.163q.128,3.567.267,7.133.137,3.548.278,7.1c.012.31.011.31-.3.31-.859,0-1.719,0-2.578,0-.143,0-.187-.027-.193-.181-.132-3.584-.366-7.165-.388-10.753a.177.177,0,0,0-.029-.107c-.056.36-.119.718-.167,1.079a22.03,22.03,0,0,1-.853,3.345Q9.9,63.61,8.938,66.816c-.044.149-.1.207-.265.2-.691-.012-1.382-.006-2.073,0-.1,0-.157-.009-.192-.127-.825-2.777-1.661-5.551-2.483-8.329A19.315,19.315,0,0,1,3.468,56.1c0-.028-.011-.056-.016-.084l-.027,0" transform="translate(0.001 -47.926)" fill="#9292ff"/>
    <path id="Caminho_21482" data-name="Caminho 21482" d="M427.434,53.664a20.359,20.359,0,0,1,2.5-3.638c.35-.45.7-.9,1.051-1.351a.217.217,0,0,1,.189-.108c1.136,0,2.271,0,3.416,0,0,.079-.063.116-.1.163q-1.764,2.2-3.533,4.4a.2.2,0,0,0-.016.29q1.975,3.086,3.94,6.178l.1.162h-.156c-1.088,0-2.175,0-3.263,0a.25.25,0,0,1-.242-.136q-1.287-2.009-2.581-4.013c-.026-.04-.052-.079-.078-.118-.064,0-.078.058-.105.092-.314.395-.624.793-.94,1.186a.433.433,0,0,0-.1.294c0,.835,0,1.67.007,2.505,0,.167-.048.192-.2.191q-1.361-.011-2.722,0c-.129,0-.17-.023-.17-.163q.007-7.516,0-15.033c0-.145.041-.175.178-.174.919.006,1.839,0,2.758,0,.112,0,.153.021.153.145-.015,2.644.022,5.287-.024,7.931-.007.4-.043.8-.066,1.2" transform="translate(-388.848 -40.669)" fill="#9292ff"/>
    <path id="Caminho_21483" data-name="Caminho 21483" d="M670.493,66.361c0-.931-.005-1.863,0-2.794,0-.167-.049-.2-.2-.191-.42.01-.841,0-1.262.006-.111,0-.142-.029-.141-.141q.008-1.009,0-2.019c0-.1.029-.133.124-.155.438-.1.872-.222,1.311-.322a.231.231,0,0,0,.214-.23c.079-.662.172-1.322.253-1.983a.167.167,0,0,1,.141-.171q1.259-.343,2.514-.7c.133-.038.131.02.13.118,0,.919,0,1.839-.005,2.758,0,.154.044.185.19.184.661-.008,1.322,0,1.983-.007.127,0,.158.033.157.159q-.009,1.181,0,2.361c0,.121-.034.151-.152.15-.673-.005-1.346,0-2.019-.006-.125,0-.159.03-.159.157,0,1.7,0,3.4,0,5.1a1.583,1.583,0,0,0,.019.251.7.7,0,0,0,.775.662,3.666,3.666,0,0,0,1.133-.185c.111-.035.14-.013.168.1.173.662.354,1.321.535,1.981.02.074.041.128-.06.165a7.76,7.76,0,0,1-2.569.582,2.8,2.8,0,0,1-3-2.477,6.187,6.187,0,0,1-.091-1.076q0-1.136,0-2.271" transform="translate(-612.812 -52.815)" fill="#9292ff"/>
    <path id="Caminho_21484" data-name="Caminho 21484" d="M332,94.585c.073-.168.132-.318.2-.463a3.413,3.413,0,0,1,2.462-2.048,4.861,4.861,0,0,1,1.738.028c.114.018.12.078.113.175-.071.91-.14,1.82-.2,2.731-.009.138-.055.148-.172.136a4,4,0,0,0-2.626.557,4.76,4.76,0,0,0-.956.817.37.37,0,0,0-.1.274c0,2.132,0,4.265.006,6.4,0,.153-.029.2-.192.2-.913-.009-1.826-.007-2.739,0-.125,0-.159-.028-.159-.157q.006-5.442,0-10.884c0-.132.04-.155.161-.154.553.007,1.105.009,1.658,0,.142,0,.179.055.21.173.179.691.364,1.38.548,2.07.012.044.028.088.049.153" transform="translate(-301.755 -84.292)" fill="#9292ff"/>
    <path id="Caminho_21485" data-name="Caminho 21485" d="M549.694,97.056c-1.1,0-2.2,0-3.3,0-.133,0-.177.024-.158.167a5.554,5.554,0,0,0,.126.708,2.039,2.039,0,0,0,1.812,1.592,8.419,8.419,0,0,0,2.3-.057c.626-.077,1.244-.2,1.861-.33.1-.02.134,0,.158.1q.226.982.468,1.961c.022.088.007.127-.078.159a11.521,11.521,0,0,1-5.123.762,4.649,4.649,0,0,1-4.4-3.824,8.077,8.077,0,0,1,.264-4.907,4.592,4.592,0,0,1,4.057-3.025,6.005,6.005,0,0,1,2.445.192,4.017,4.017,0,0,1,2.725,2.77,7.707,7.707,0,0,1,.358,2.233c.012.444,0,.889-.019,1.333-.006.145-.057.173-.191.173-1.1-.005-2.2,0-3.3,0m-1.453-1.89c.558,0,1.116,0,1.675,0,.381,0,.381-.01.337-.4a1.939,1.939,0,0,0-2.8-1.628,2.241,2.241,0,0,0-1.243,2.021c-.007.125.073.1.14.1h1.891q0-.045,0-.09" transform="translate(-497.563 -82.741)" fill="#9292ff"/>
    <path id="Caminho_21486" data-name="Caminho 21486" d="M201.625,100.856a5.406,5.406,0,0,1-.456.565,3.953,3.953,0,0,1-3.121,1.174,3.838,3.838,0,0,1-1.68-.423,3.253,3.253,0,0,1-1.761-2.7,3.873,3.873,0,0,1,.115-1.571,2.9,2.9,0,0,1,1.822-1.886,6.4,6.4,0,0,1,2.363-.414q1-.01,2,0c.133,0,.179-.03.171-.168a5.355,5.355,0,0,0-.048-.664,1.418,1.418,0,0,0-1.176-1.208,5.075,5.075,0,0,0-1.881.024,17.189,17.189,0,0,0-1.8.371c-.1.027-.153.018-.184-.1-.177-.691-.367-1.38-.552-2.069-.021-.078-.043-.136.076-.172a13.709,13.709,0,0,1,4.4-.744,5.667,5.667,0,0,1,1.629.269,3.549,3.549,0,0,1,2.39,2.683,7.338,7.338,0,0,1,.209,1.839c0,2.163,0,4.326,0,6.489,0,.146-.029.194-.183.191-.577-.01-1.154-.007-1.731,0a.151.151,0,0,1-.175-.129c-.138-.444-.286-.885-.438-1.352M200,97.461c-.3,0-.6-.006-.9,0a2.1,2.1,0,0,0-.8.172,1.244,1.244,0,0,0-.767,1.268,1.285,1.285,0,0,0,.857,1.253,1.876,1.876,0,0,0,2.352-.932,4.186,4.186,0,0,0,.36-1.731c0-.106-.054-.1-.124-.1-.324,0-.648,0-.972,0v.062" transform="translate(-178.263 -83.245)" fill="#9292ff"/>
  </g>
</svg>
