<svg id="logo-scaffold-education-negativo" xmlns="http://www.w3.org/2000/svg" width="63.734" height="32" viewBox="0 0 63.734 32">
  <path id="Caminho_18999" data-name="Caminho 18999" d="M31.848,30.541a4.127,4.127,0,0,0-3.408,1.491V30.7H26.683v-.426c0-.692.266-1.118.852-1.118a2.885,2.885,0,0,1,.8.106l.16-1.7a6.892,6.892,0,0,0-1.278-.16c-1.97,0-2.982.745-2.982,2.875V30.7H22.211v-.426c0-.692.266-1.118.852-1.118a2.885,2.885,0,0,1,.8.106l.16-1.7a6.892,6.892,0,0,0-1.278-.16c-1.97,0-2.982.745-2.982,2.875V30.7H18.271v1.225a3.2,3.2,0,0,0-2.982-1.384,7.842,7.842,0,0,0-2.822.479l.053,1.651a4.83,4.83,0,0,1,2.29-.532c.905,0,1.6.266,1.651,1.225a7.34,7.34,0,0,0-1.171-.106c-1.331,0-3.674.266-3.674,2.449a.675.675,0,0,0,.053.319,5.867,5.867,0,0,1-.958.106,1.923,1.923,0,0,1-2.023-1.864A1.819,1.819,0,0,1,10.55,32.3a2.7,2.7,0,0,1,1.491.373l.16-1.81a4.648,4.648,0,0,0-1.97-.373c-2.343,0-4.1,1.331-4.153,3.727C5.119,33.2,2.99,33.523,2.99,32.671c0-.373.586-.479,1.118-.479a3.938,3.938,0,0,1,1.917.479l.213-1.7a6.693,6.693,0,0,0-2.5-.426C2.3,30.541.7,31.234.7,32.831c0,2.556,3.514,1.7,3.514,2.928,0,.479-.479.586-1.012.586a6.39,6.39,0,0,1-2.29-.479l-.16,1.81A8.8,8.8,0,0,0,3.309,38c1.491,0,2.982-.426,3.248-1.917A4.022,4.022,0,0,0,10.231,38a6.687,6.687,0,0,0,2.023-.319V37.3a3.02,3.02,0,0,0,1.97.639,2.352,2.352,0,0,0,2.236-1.278h.053c0,.373.053.745.053,1.118H18.8a9.227,9.227,0,0,1-.16-1.7V33.417a3.2,3.2,0,0,0-.16-1.065h1.225v5.378h2.449V32.458h1.97v5.378h2.449V32.458h1.491a4.017,4.017,0,0,0-.479,1.864c0,2.343,1.81,3.727,4.153,3.727s4.153-1.384,4.153-3.727C36,31.926,34.244,30.541,31.848,30.541Zm-16.932,5.8c-.586,0-1.012-.266-1.012-.8,0-.692.639-.958,1.491-.958.373,0,.745.053,1.065.053A1.654,1.654,0,0,1,14.916,36.345Zm16.932,0c-1.118,0-1.6-.958-1.6-1.97,0-1.065.479-2.023,1.6-2.023s1.6.958,1.6,2.023C33.445,35.333,33.019,36.345,31.848,36.345Zm4.26,1.491h2.449V27.613H36.108ZM44.2,27.613V31.66h-.053A2.864,2.864,0,0,0,41.7,30.595c-1.97,0-3.035,1.864-3.035,3.567,0,2.13,1.118,3.834,3.248,3.834a2.653,2.653,0,0,0,2.449-1.438h.053v1.278H46.7V27.613ZM42.71,36.132c-.905,0-1.491-.8-1.491-1.917a1.562,1.562,0,0,1,1.491-1.757c.905,0,1.491.8,1.491,1.864A1.648,1.648,0,0,1,42.71,36.132Z" transform="translate(-0.7 -13.024)" fill="#9292ff"/>
  <path id="Caminho_19000" data-name="Caminho 19000" d="M60.6.4l19.86,9.85,11.5-6.815L81.046,10.676l.106,21.617L92.44,3.115Z" transform="translate(-28.706 -0.4)" fill="#9292ff"/>
  <path id="Caminho_19001" data-name="Caminho 19001" d="M13.8,58.056h1.384v-.319H14.119v-.852h.958v-.319h-.958v-.745h1.065V55.5H13.8C13.8,55.553,13.8,58.056,13.8,58.056Zm5.165-2.449h-.745v2.5h.745A1.168,1.168,0,0,0,20.3,56.831,1.2,1.2,0,0,0,18.965,55.606Zm0,2.183h-.373V55.926h.426a.855.855,0,0,1,.905.958C19.923,57.47,19.6,57.79,18.965,57.79Zm5.963-.8c0,.479-.16.8-.639.8s-.639-.319-.639-.8V55.553h-.373v1.491c0,.692.373,1.065.958,1.065.639,0,.958-.373.958-1.065V55.553h-.373v1.438Zm4.632.8a.923.923,0,0,1-.958-.958.9.9,0,0,1,.958-.958,1.027,1.027,0,0,1,.532.16l.053-.373a1.914,1.914,0,0,0-.586-.106,1.274,1.274,0,0,0-1.331,1.278,1.383,1.383,0,0,0,1.917,1.225v-.373A1.146,1.146,0,0,1,29.56,57.79Zm4.26-2.183-1.065,2.5h.373l.266-.639h1.225l.266.639h.373l-1.065-2.5ZM33.5,57.2l.479-1.225.479,1.225Zm3.993-1.331h.8v2.183h.373V55.873h.8v-.319H37.547v.319Zm4.739,2.183h.373v-2.5h-.373ZM46.812,55.5a1.188,1.188,0,0,0-1.225,1.278,1.161,1.161,0,0,0,1.225,1.278,1.188,1.188,0,0,0,1.225-1.278A1.218,1.218,0,0,0,46.812,55.5Zm0,2.29a.866.866,0,0,1-.852-.958c0-.532.266-1.012.852-.958a.9.9,0,0,1,.852.958C47.61,57.31,47.344,57.79,46.812,57.79Zm5.75-.213h0l-1.118-2.023h-.479v2.5h.373V55.979h0l1.118,2.077h.479v-2.5h-.373Z" transform="translate(-6.825 -26.162)" fill="#9292ff"/>
  <g id="Grupo_27671" data-name="Grupo 27671" transform="translate(47.601 14.589)">
    <g id="Grupo_27670" data-name="Grupo 27670">
      <g id="Grupo_27669" data-name="Grupo 27669">
        <path id="Caminho_19002" data-name="Caminho 19002" d="M92.073,30.165h.373c.106,0,.16,0,.213.053s.053.106.053.213v.426h.426V30.8c-.053,0-.053-.053-.053-.106v-.266a.4.4,0,0,0-.053-.266l-.16-.16a.735.735,0,0,0,.213-.16.48.48,0,0,0,.053-.266.2.2,0,0,0-.053-.16c0-.053-.053-.106-.106-.16s-.106-.106-.16-.106a.4.4,0,0,0-.266-.053H91.7v1.757h.373Zm0-.745H92.5a.2.2,0,0,1,.16.053.266.266,0,0,1,0,.426c-.053,0-.106.053-.16.053h-.373v-.532Z" transform="translate(-90.848 -28.408)" fill="#9292ff"/>
        <path id="Caminho_19003" data-name="Caminho 19003" d="M91.7,30.995a1.6,1.6,0,1,0-1.6-1.6A1.6,1.6,0,0,0,91.7,30.995Zm0-2.982A1.384,1.384,0,1,1,90.313,29.4,1.343,1.343,0,0,1,91.7,28.013Z" transform="translate(-90.1 -27.8)" fill="#9292ff"/>
      </g>
    </g>
  </g>
</svg>
