<svg id="tivit-logo" xmlns="http://www.w3.org/2000/svg" width="95" height="13.894" viewBox="0 0 95 13.894">
  <g id="Grupo_28587" data-name="Grupo 28587" transform="translate(72.193 0.032)">
    <path id="Caminho_21391" data-name="Caminho 21391" d="M453.435.2A64.8,64.8,0,0,0,442,1.206l.523,2.854a57.253,57.253,0,0,1,9.36-.941V13.84h3.057V3.119a65.41,65.41,0,0,1,9.36.941l.507-2.854A64.224,64.224,0,0,0,453.435.2Z" transform="translate(-442 -0.2)" fill="#9292ff" fill-rule="evenodd"/>
  </g>
  <path id="Caminho_21392" data-name="Caminho 21392" d="M172.5,16.433h3.057V3.3H172.5V16.433Z" transform="translate(-144.513 -2.777)" fill="#9292ff" fill-rule="evenodd"/>
  <path id="Caminho_21393" data-name="Caminho 21393" d="M0,1.322.523,4.176a57.253,57.253,0,0,1,9.36-.941v10.72H12.94V3.219a65.411,65.411,0,0,1,9.36.941l.523-2.854A64.225,64.225,0,0,0,11.451.3,66.562,66.562,0,0,0,0,1.322Z" transform="translate(0 -0.252)" fill="#9292ff" fill-rule="evenodd"/>
  <path id="Caminho_21394" data-name="Caminho 21394" d="M394,16.433h3.057V3.3H394Z" transform="translate(-330.076 -2.777)" fill="#9292ff" fill-rule="evenodd"/>
  <path id="Caminho_21395" data-name="Caminho 21395" d="M234.087,9.889A68.4,68.4,0,0,1,225.392,0L223,1.783a69.189,69.189,0,0,0,11.039,12.11l.032-.032A69.776,69.776,0,0,0,245.11,1.767L242.75,0A64.417,64.417,0,0,1,234.087,9.889Z" transform="translate(-186.588)" fill="#9292ff" fill-rule="evenodd"/>
</svg>
