<svg id="Grupo_28623" data-name="Grupo 28623" xmlns="http://www.w3.org/2000/svg" xmlns:xlink="http://www.w3.org/1999/xlink" width="34.507" height="32" viewBox="0 0 34.507 32">
  <defs>
    <clipPath id="clip-path">
      <rect id="Retângulo_5720" data-name="Retângulo 5720" width="34.507" height="32" fill="#9292ff"/>
    </clipPath>
  </defs>
  <g id="Grupo_28349" data-name="Grupo 28349" clip-path="url(#clip-path)">
    <path id="Caminho_21091" data-name="Caminho 21091" d="M37.93,20.307c.9-.924,1.808-1.832,2.778-2.68a49.875,49.875,0,0,1,6.775-4.942c.039-.024.082-.043.152-.08a.213.213,0,0,1-.1.18A22.943,22.943,0,0,0,43.5,18.109c-1.266,2.155-2.4,4.372-3.482,6.626a12.206,12.206,0,0,1-3.788,4.7A8.012,8.012,0,0,1,25.9,28.822a9.931,9.931,0,0,1-3.158-6.6,10.493,10.493,0,0,1,.93-5.371c.035-.078.085-.149.128-.223.1.1.054.22.032.33a7.477,7.477,0,0,0-.181,1.641,8.273,8.273,0,0,0,2.706,6.264,6.7,6.7,0,0,0,5.171,1.806,6,6,0,0,0,3.429-1.437,9.154,9.154,0,0,0,2.725-4.409c.058-.18.021-.414.244-.519" transform="translate(-17.192 -9.546)" fill="#9292ff"/>
    <path id="Caminho_21092" data-name="Caminho 21092" d="M40.695,10.761a16.457,16.457,0,0,1-.811,2.19,7.083,7.083,0,0,1-4.073,3.914,6.461,6.461,0,0,1-6.381-1.194,8.006,8.006,0,0,1-2.991-5.361,8.43,8.43,0,0,1,.114-3.024,1.421,1.421,0,0,0,.016-.2l.088-.222a2.393,2.393,0,0,1,.138.7,6.1,6.1,0,0,0,2.556,4.066,4.826,4.826,0,0,0,6.278-.488A15.784,15.784,0,0,0,38.261,7.69,37.159,37.159,0,0,1,44.467.123.316.316,0,0,1,44.684,0c-.162.253-.307.486-.457.716A21.014,21.014,0,0,0,42.1,5.62c-.557,1.65-1,3.33-1.4,5.025a.825.825,0,0,0-.01.116" transform="translate(-19.958)" fill="#9292ff"/>
    <path id="Caminho_21093" data-name="Caminho 21093" d="M36.415,7.806a4.347,4.347,0,0,1,4.509,4.039,4.408,4.408,0,0,1-3.818,4.6,4.335,4.335,0,1,1-.69-8.638" transform="translate(-24.441 -5.908)" fill="#9292ff"/>
    <path id="Caminho_21094" data-name="Caminho 21094" d="M4.846,106.769a3.148,3.148,0,0,1-3.874-.136,3.109,3.109,0,0,1-.926-2.158c-.09-1.578-.018-3.158-.04-4.737,0-.145.055-.18.188-.178.426.006.853.013,1.279,0,.2-.008.257.051.256.255-.009,1.318,0,2.636-.005,3.954a2.69,2.69,0,0,0,.222,1.1,1.418,1.418,0,0,0,2.4.3,2.064,2.064,0,0,0,.432-1.354c0-1.318.007-2.636-.005-3.954,0-.244.066-.313.305-.3.406.02.814.013,1.221,0,.179,0,.25.032.249.237q-.012,3.591,0,7.182c0,.2-.057.244-.243.237a11.471,11.471,0,0,0-1.162,0c-.253.017-.327-.07-.287-.3a.771.771,0,0,0-.009-.144" transform="translate(0 -75.396)" fill="#9292ff"/>
    <path id="Caminho_21095" data-name="Caminho 21095" d="M37.591,103.393a1.955,1.955,0,0,0,1.7,1.555,2.078,2.078,0,0,0,2.165-.982c.049-.079.093-.14.2-.128.859.091,1.7-.163,2.561-.116.1.005.194,0,.291,0a1.307,1.307,0,0,1,.488.017c.163.073.072.291.116.441a1.1,1.1,0,0,0,.867.806,1.3,1.3,0,0,0,1.242-.293.66.66,0,0,0-.07-.978,2.105,2.105,0,0,0-.832-.392,13.2,13.2,0,0,1-1.431-.471,2.035,2.035,0,0,1-1.232-2.6,2.288,2.288,0,0,1,1.382-1.4,3.858,3.858,0,0,1,2.81,0,2.04,2.04,0,0,1,1.334,1.493,1.763,1.763,0,0,0,.065.177,4,4,0,0,1,7.266.9c.04.141.056.207-.131.2-.494-.01-.989-.012-1.483,0-.166,0-.208-.089-.267-.2A2.144,2.144,0,0,0,53,100.223a2.215,2.215,0,0,0-2.49,1.97,2.834,2.834,0,0,0,.193,1.45,2,2,0,0,0,1.642,1.307,1.815,1.815,0,0,0,1.973-.92.877.877,0,0,1,.987-.508,6.073,6.073,0,0,0,.958,0c.218-.01.293.023.2.265a3.849,3.849,0,0,1-3.057,2.778,3.938,3.938,0,0,1-4.011-1.661c-.017-.023-.038-.043-.066-.075a3.179,3.179,0,0,1-3.566,1.8,2.755,2.755,0,0,1-2.574-2.124,3.95,3.95,0,0,1-3.947,2.113,4.019,4.019,0,0,1-3.492-2.761c0,.789-.007,1.578,0,2.366,0,.208-.036.29-.266.278-.416-.021-.834-.018-1.25,0-.213.009-.249-.07-.248-.262.008-1.318,0-2.636,0-3.954a2.608,2.608,0,0,0-.248-1.154,1.468,1.468,0,0,0-2.435-.233,2.018,2.018,0,0,0-.429,1.325c0,1.328,0,2.656,0,3.983,0,.216-.035.309-.281.3-.425-.023-.853-.014-1.279,0-.171,0-.233-.033-.233-.221q.01-3.62,0-7.24c0-.152.038-.2.193-.194.368.011.736,0,1.1,0,.4,0,.4,0,.422.433a3.115,3.115,0,0,1,3.116-.368,2.8,2.8,0,0,1,1.77,2.542c.138-.009.121-.123.146-.191a4.009,4.009,0,0,1,7.722.612,3.9,3.9,0,0,1,.028,1.3c-.025.177-.087.222-.255.22-.921-.007-1.841,0-2.762,0H37.591m2.17-3.15a2.028,2.028,0,0,0-2.178,1.561h4.083a1.991,1.991,0,0,0-1.9-1.561m9.015.845c-.436,0-.872,0-1.308,0-.093,0-.2.022-.2-.133,0-.714-.862-.892-1.368-.651a.511.511,0,0,0-.082.951,3.063,3.063,0,0,0,.873.381,9.547,9.547,0,0,1,1.437.534c.179.088.355.182.531.273.092-.187.034-.4.1-.591.07-.22.116-.447.189-.735,0-.066-.1-.026-.167-.027" transform="translate(-22.038 -74.653)" fill="#9292ff"/>
  </g>
</svg>
