<svg xmlns="http://www.w3.org/2000/svg" xmlns:xlink="http://www.w3.org/1999/xlink" width="1920" height="800" viewBox="0 0 1920 800">
  <defs>
    <clipPath id="clip-path">
      <path id="mockup-05" d="M200,0H1920a0,0,0,0,1,0,0V600a200,200,0,0,1-200,200H0a0,0,0,0,1,0,0V200A200,200,0,0,1,200,0Z" transform="translate(-5998 -5833)" fill="#f4f2fd"/>
    </clipPath>
  </defs>
  <g id="Grupo_de_máscara_46" data-name="Grupo de máscara 46" transform="translate(5998 5833)" opacity="0.1" clip-path="url(#clip-path)">
    <g id="Grupo_18450" data-name="Grupo 18450" transform="translate(-6249 -10714)">
      <g id="Grupo_18445" data-name="Grupo 18445" transform="translate(-149.023 4659)">
        <g id="Grupo_18442" data-name="Grupo 18442" transform="translate(0)">
          <path id="Caminho_12813" data-name="Caminho 12813" d="M82.014-199.273a70.25,70.25,0,0,0-18.353-24.17,81.889,81.889,0,0,0-27.648-15.175,108.937,108.937,0,0,0-34.29-5.195h-48.8a6.9,6.9,0,0,0-6.9,6.9V-96.485a6.9,6.9,0,0,0,6.9,6.9H1.715a102.9,102.9,0,0,0,34.3-5.781,84.556,84.556,0,0,0,27.648-15.767,72.5,72.5,0,0,0,18.353-24.4,74.227,74.227,0,0,0,6.642-31.752A74.86,74.86,0,0,0,82.014-199.273Zm-39.359,49.5a38.238,38.238,0,0,1-9.42,12.966,41,41,0,0,1-14.127,8.053,54.144,54.144,0,0,1-17.629,2.8H-12.286v-81.492H1.479A61.5,61.5,0,0,1,19.108-205a39.9,39.9,0,0,1,14.127,7.352,35.056,35.056,0,0,1,9.42,12.5,42.407,42.407,0,0,1,3.5,17.868A41.945,41.945,0,0,1,42.655-149.774Z" transform="translate(167.27 261.436)" fill="none" stroke="#2c2d66" stroke-width="1"/>
          <rect id="Retângulo_1367" data-name="Retângulo 1367" width="52.269" height="154.195" rx="4.722" transform="translate(939.17 26.43)" fill="none" stroke="#2c2d66" stroke-width="1"/>
          <path id="Caminho_12814" data-name="Caminho 12814" d="M1558.729-198.695a73.589,73.589,0,0,0-15.045-24.242,67.645,67.645,0,0,0-23.089-15.864,74.365,74.365,0,0,0-29.328-5.733q-14.584,0-25.528,4.847a46.434,46.434,0,0,0-14.164,9.65c-.028.028-.157.131-.191.16a2.143,2.143,0,0,1-1.423.538,2.15,2.15,0,0,1-2.15-2.15V-239.2q0-.877,0-1.755V-242a2.243,2.243,0,0,0-.5-1.518,2.114,2.114,0,0,0-1.577-.732H1407.3a2.076,2.076,0,0,0-2.076,2.076V-53.311a2.076,2.076,0,0,0,2.076,2.076h42.93c.022,0,.043.007.066.007s.043-.006.065-.007a2.076,2.076,0,0,0,2.012-2.07s0-46.2,0-46.217a2.077,2.077,0,0,1,2.077-2.076,2.109,2.109,0,0,1,1.318.476q13.475,10.564,35.5,10.561a74.472,74.472,0,0,0,29.328-5.727,66.733,66.733,0,0,0,23.089-16.014,74.855,74.855,0,0,0,15.045-24.542,85.806,85.806,0,0,0,5.47-31A84.693,84.693,0,0,0,1558.729-198.695Zm-50.6,44.667a30.643,30.643,0,0,1-6.683,9.844,26.11,26.11,0,0,1-9.419,5.876,32.609,32.609,0,0,1-11.1,1.909,31.7,31.7,0,0,1-10.787-1.909,26.11,26.11,0,0,1-9.419-5.876,30.558,30.558,0,0,1-6.684-9.844,34.1,34.1,0,0,1-2.587-13.812,34.116,34.116,0,0,1,2.587-13.812,28.836,28.836,0,0,1,6.684-9.695,25.405,25.405,0,0,1,9.419-5.583,33.961,33.961,0,0,1,10.787-1.765,34.034,34.034,0,0,1,11.244,1.909,25.988,25.988,0,0,1,9.574,5.876,28.921,28.921,0,0,1,6.535,9.844,35.2,35.2,0,0,1,2.433,13.518A33.282,33.282,0,0,1,1508.13-154.028Z" transform="translate(-650.266 261.84)" fill="none" stroke="#2c2d66" stroke-width="1"/>
          <path id="Caminho_12815" data-name="Caminho 12815" d="M798.518-213.89l-27.039,56.914-6.061,12.758L732.789-213.89H677.434L753.383-66.938c-.113-.214-.2-.444-.3-.664.12.26.228.528.364.779l.1.189a13.689,13.689,0,0,0,12.077,7,13.691,13.691,0,0,0,12.431-8.25l1.441-2.564,74.38-143.442Z" transform="translate(-242.515 244.672)" fill="none" stroke="#2c2d66" stroke-width="1"/>
          <path id="Caminho_12816" data-name="Caminho 12816" d="M1176.582-140.386a6.955,6.955,0,0,1,.485.843l-64.792-139.908v0a6.891,6.891,0,0,0-6.432-4.443,6.892,6.892,0,0,0-6.431,4.44l-64.707,139.7.025.041a6.828,6.828,0,0,0-.806,3.173,6.9,6.9,0,0,0,6.9,6.9h34.288a6.9,6.9,0,0,0,6.316-4.132l24.526-55.453,24.321,55.493.047.03a6.894,6.894,0,0,0,6.268,4.061h34.255a6.9,6.9,0,0,0,6.9-6.9A6.871,6.871,0,0,0,1176.582-140.386Z" transform="translate(-442.242 283.89)" fill="none" stroke="#2c2d66" stroke-width="1"/>
          <path id="Caminho_12817" data-name="Caminho 12817" d="M469.28-201.011a66.057,66.057,0,0,0-14.449-22.2,68.72,68.72,0,0,0-22.966-15.146,78.657,78.657,0,0,0-30.262-5.584,86.247,86.247,0,0,0-31.936,5.876,80.553,80.553,0,0,0-25.854,16.18,74.27,74.27,0,0,0-17.185,24.416,74.776,74.776,0,0,0-6.233,30.584,74.776,74.776,0,0,0,6.233,30.583,71.233,71.233,0,0,0,17.644,24.416,84.015,84.015,0,0,0,27.068,16.18,97.425,97.425,0,0,0,34.494,6.065,100.039,100.039,0,0,0,55.131-16.206,6.878,6.878,0,0,0,3.328-5.879,6.858,6.858,0,0,0-1.864-4.69,7,7,0,0,1,.554.671l-12.026-21.925-.026.007a6.882,6.882,0,0,0-6.165-3.855,6.873,6.873,0,0,0-2.658.534c-.037.018-.074.034-.111.053a84.037,84.037,0,0,1-13.63,5.516,71.208,71.208,0,0,1-20.683,2.944q-12.474,0-21.136-4.124a26.926,26.926,0,0,1-12.927-12.652h91.933c.012,0,.023,0,.036,0a6.9,6.9,0,0,0,6.9-6.9,6.907,6.907,0,0,1-.125,1.241c.383-1.862.722-3.84,1.011-5.946a97.8,97.8,0,0,0,.912-13.394A71.936,71.936,0,0,0,469.28-201.011ZM371.8-182.179q3.34-10.6,10.643-16.326a26.8,26.8,0,0,1,17.034-5.742,26.818,26.818,0,0,1,17.336,5.888q7.294,5.894,7.907,16.18Z" transform="translate(-42.48 261.509)" fill="none" stroke="#2c2d66" stroke-width="1"/>
          <path id="Caminho_12818" data-name="Caminho 12818" d="M1252.329,136.646h-48.116c-1.147,0-2.077,1.267-2.077,2.831V344.011c0,1.563.93,2.83,2.077,2.83h48.116c1.146,0,2.076-1.267,2.076-2.83V139.477C1254.406,137.913,1253.476,136.646,1252.329,136.646Z" transform="translate(-536.485 48.28)" fill="none" stroke="#2c2d66" stroke-width="1"/>
          <path id="Caminho_12819" data-name="Caminho 12819" d="M926.728,221.305a73.584,73.584,0,0,0-15.045-24.242A67.646,67.646,0,0,0,888.595,181.2a74.366,74.366,0,0,0-29.328-5.733q-14.584,0-25.528,4.847a46.435,46.435,0,0,0-14.164,9.65c-.028.028-.157.131-.191.161a2.15,2.15,0,0,1-3.572-1.612V180.8q0-.877,0-1.755V178a2.242,2.242,0,0,0-.5-1.518,2.113,2.113,0,0,0-1.577-.732H775.3a2.076,2.076,0,0,0-2.076,2.076V366.689a2.076,2.076,0,0,0,2.076,2.077h42.93c.022,0,.043.007.066.007s.043-.006.066-.007a2.076,2.076,0,0,0,2.012-2.07s0-46.2,0-46.217a2.077,2.077,0,0,1,2.076-2.076,2.109,2.109,0,0,1,1.318.476q13.475,10.564,35.5,10.561a74.472,74.472,0,0,0,29.328-5.727A66.734,66.734,0,0,0,911.684,307.7a74.851,74.851,0,0,0,15.045-24.542,85.806,85.806,0,0,0,5.47-31A84.693,84.693,0,0,0,926.728,221.305Zm-50.6,44.667a30.641,30.641,0,0,1-6.683,9.844,26.112,26.112,0,0,1-9.419,5.876,32.608,32.608,0,0,1-11.1,1.909,31.7,31.7,0,0,1-10.787-1.909,26.111,26.111,0,0,1-9.419-5.876,30.556,30.556,0,0,1-6.684-9.844,38.165,38.165,0,0,1,0-27.624,28.833,28.833,0,0,1,6.684-9.694,25.405,25.405,0,0,1,9.419-5.583,33.958,33.958,0,0,1,22.031.144,25.983,25.983,0,0,1,9.573,5.876,28.92,28.92,0,0,1,6.536,9.844,35.2,35.2,0,0,1,2.433,13.518A33.28,33.28,0,0,1,876.13,265.972Z" transform="translate(-296.181 26.531)" fill="none" stroke="#2c2d66" stroke-width="1"/>
          <path id="Caminho_12820" data-name="Caminho 12820" d="M166.518,176.11l-27.039,56.914-6.061,12.758L100.789,176.11H45.434l75.949,146.952c-.113-.214-.2-.444-.3-.664.12.26.228.528.364.779l.1.189a13.69,13.69,0,0,0,24.508-1.25l1.441-2.564,74.38-143.442Z" transform="translate(111.57 26.17)" fill="none" stroke="#2c2d66" stroke-width="1"/>
          <path id="Caminho_12821" data-name="Caminho 12821" d="M534.582,319.614a6.938,6.938,0,0,1,.485.843L470.275,180.549v0a6.878,6.878,0,0,0-12.863,0l-64.707,139.7.025.041a6.828,6.828,0,0,0-.806,3.173,6.9,6.9,0,0,0,6.9,6.9h34.288a6.9,6.9,0,0,0,6.316-4.132l24.526-55.453,24.321,55.493.047.03a6.894,6.894,0,0,0,6.268,4.061H528.85a6.9,6.9,0,0,0,5.732-10.753Z" transform="translate(-82.555 26.17)" fill="none" stroke="#2c2d66" stroke-width="1"/>
          <path id="Caminho_12822" data-name="Caminho 12822" d="M-162.72,218.989a66.057,66.057,0,0,0-14.449-22.2,68.72,68.72,0,0,0-22.966-15.146,78.657,78.657,0,0,0-30.262-5.584,86.246,86.246,0,0,0-31.936,5.876,80.553,80.553,0,0,0-25.854,16.18,74.27,74.27,0,0,0-17.185,24.416,74.777,74.777,0,0,0-6.233,30.584,74.777,74.777,0,0,0,6.233,30.583,71.233,71.233,0,0,0,17.644,24.416,84.017,84.017,0,0,0,27.068,16.18,97.426,97.426,0,0,0,34.494,6.065,100.039,100.039,0,0,0,55.131-16.206,6.878,6.878,0,0,0,3.327-5.879,6.858,6.858,0,0,0-1.864-4.69,6.99,6.99,0,0,1,.554.671l-12.026-21.925-.026.007a6.882,6.882,0,0,0-6.165-3.855,6.873,6.873,0,0,0-2.658.534c-.037.018-.074.034-.111.053a84.035,84.035,0,0,1-13.63,5.516,71.208,71.208,0,0,1-20.683,2.944q-12.474,0-21.136-4.124a26.926,26.926,0,0,1-12.927-12.652h91.933c.012,0,.023,0,.036,0a6.9,6.9,0,0,0,6.9-6.9,6.909,6.909,0,0,1-.125,1.241c.383-1.862.722-3.84,1.011-5.946a97.789,97.789,0,0,0,.912-13.394A71.935,71.935,0,0,0-162.72,218.989ZM-260.2,237.821q3.34-10.6,10.643-16.326a26.8,26.8,0,0,1,17.034-5.742,26.818,26.818,0,0,1,17.336,5.888q7.294,5.894,7.907,16.18Z" transform="translate(311.605 26.2)" fill="none" stroke="#2c2d66" stroke-width="1"/>
          <path id="Caminho_12823" data-name="Caminho 12823" d="M1541.014,302.727a70.248,70.248,0,0,0-18.354-24.17,81.885,81.885,0,0,0-27.648-15.175,108.937,108.937,0,0,0-34.29-5.195h-48.8a6.9,6.9,0,0,0-6.9,6.9V405.515a6.9,6.9,0,0,0,6.9,6.9h48.794a102.9,102.9,0,0,0,34.3-5.781,84.553,84.553,0,0,0,27.648-15.767,72.5,72.5,0,0,0,18.354-24.4,79.793,79.793,0,0,0,0-63.745Zm-39.359,49.5a38.238,38.238,0,0,1-9.42,12.966,41,41,0,0,1-14.127,8.053,54.143,54.143,0,0,1-17.629,2.8h-13.765V294.554h13.765A61.5,61.5,0,0,1,1478.108,297a39.907,39.907,0,0,1,14.127,7.352,35.055,35.055,0,0,1,9.42,12.5,42.407,42.407,0,0,1,3.5,17.868A41.945,41.945,0,0,1,1501.655,352.226Z" transform="translate(-650.15 -19.814)" fill="none" stroke="#2c2d66" stroke-width="1"/>
          <path id="Caminho_12824" data-name="Caminho 12824" d="M1928.28,200.989a66.056,66.056,0,0,0-14.448-22.2,68.721,68.721,0,0,0-22.966-15.146,78.658,78.658,0,0,0-30.262-5.584,86.249,86.249,0,0,0-31.936,5.876,80.559,80.559,0,0,0-25.854,16.18,76.9,76.9,0,0,0-17.185,85.583,71.236,71.236,0,0,0,17.644,24.416,84.016,84.016,0,0,0,27.068,16.18,97.424,97.424,0,0,0,34.493,6.065,100.038,100.038,0,0,0,55.131-16.206,6.847,6.847,0,0,0,1.464-10.569,7,7,0,0,1,.554.671l-12.026-21.925-.025.007a6.864,6.864,0,0,0-8.823-3.321c-.037.018-.074.034-.111.053a84.03,84.03,0,0,1-13.63,5.516,71.207,71.207,0,0,1-20.683,2.944q-12.474,0-21.136-4.124a26.927,26.927,0,0,1-12.927-12.652h91.933c.012,0,.023,0,.036,0a6.9,6.9,0,0,0,6.9-6.9,6.9,6.9,0,0,1-.125,1.241c.383-1.862.722-3.84,1.011-5.946a97.76,97.76,0,0,0,.912-13.394A71.934,71.934,0,0,0,1928.28,200.989ZM1830.8,219.821q3.34-10.6,10.643-16.326a28.3,28.3,0,0,1,34.37.146q7.294,5.894,7.907,16.18Z" transform="translate(-859.9 36.285)" fill="none" stroke="#2c2d66" stroke-width="1"/>
          <path id="Caminho_12825" data-name="Caminho 12825" d="M23.014,640.727a70.25,70.25,0,0,0-18.353-24.17,81.886,81.886,0,0,0-27.648-15.175,108.938,108.938,0,0,0-34.29-5.195h-48.8a6.9,6.9,0,0,0-6.9,6.9V743.515a6.9,6.9,0,0,0,6.9,6.9h48.794a102.9,102.9,0,0,0,34.3-5.781A84.557,84.557,0,0,0,4.661,728.872a72.5,72.5,0,0,0,18.353-24.4,74.227,74.227,0,0,0,6.642-31.752A74.86,74.86,0,0,0,23.014,640.727Zm-39.359,49.5a38.239,38.239,0,0,1-9.42,12.966,41,41,0,0,1-14.127,8.053,54.144,54.144,0,0,1-17.629,2.8H-71.286V632.554h13.765A61.5,61.5,0,0,1-39.892,635a39.905,39.905,0,0,1,14.127,7.353,35.054,35.054,0,0,1,9.42,12.5,42.407,42.407,0,0,1,3.5,17.868A41.945,41.945,0,0,1-16.345,690.226Z" transform="translate(200.325 -209.182)" fill="none" stroke="#2c2d66" stroke-width="1"/>
          <path id="Caminho_12826" data-name="Caminho 12826" d="M1884.329,571.646h-48.116c-1.147,0-2.076,1.207-2.076,2.7V769.128c0,1.489.929,2.7,2.076,2.7h48.116c1.146,0,2.076-1.207,2.076-2.7V574.342C1886.406,572.853,1885.476,571.646,1884.329,571.646Z" transform="translate(-890.57 -195.433)" fill="none" stroke="#2c2d66" stroke-width="1"/>
          <path id="Caminho_12827" data-name="Caminho 12827" d="M1558.729,721.305a73.589,73.589,0,0,0-15.045-24.242,67.645,67.645,0,0,0-23.089-15.864,74.367,74.367,0,0,0-29.328-5.733q-14.584,0-25.528,4.847a46.433,46.433,0,0,0-14.164,9.65c-.028.028-.157.131-.191.16a2.15,2.15,0,0,1-3.572-1.612V680.8q0-.877,0-1.755V678a2.243,2.243,0,0,0-.5-1.518,2.114,2.114,0,0,0-1.577-.732H1407.3a2.076,2.076,0,0,0-2.076,2.076V866.689a2.076,2.076,0,0,0,2.076,2.076h42.93c.022,0,.043.007.066.007s.043-.006.065-.007a2.076,2.076,0,0,0,2.012-2.07s0-46.2,0-46.217a2.077,2.077,0,0,1,2.077-2.076,2.109,2.109,0,0,1,1.318.476q13.475,10.564,35.5,10.561a74.472,74.472,0,0,0,29.328-5.727,66.732,66.732,0,0,0,23.089-16.013,74.855,74.855,0,0,0,15.045-24.542,85.807,85.807,0,0,0,5.47-31A84.693,84.693,0,0,0,1558.729,721.305Zm-50.6,44.667a30.644,30.644,0,0,1-6.683,9.844,26.11,26.11,0,0,1-9.419,5.876,32.608,32.608,0,0,1-11.1,1.909,31.7,31.7,0,0,1-10.787-1.909,26.11,26.11,0,0,1-9.419-5.876,30.558,30.558,0,0,1-6.684-9.844,38.166,38.166,0,0,1,0-27.624,28.835,28.835,0,0,1,6.684-9.695,25.4,25.4,0,0,1,9.419-5.583,33.959,33.959,0,0,1,22.031.144,25.987,25.987,0,0,1,9.574,5.876,28.922,28.922,0,0,1,6.535,9.844,35.2,35.2,0,0,1,2.433,13.518A33.282,33.282,0,0,1,1508.13,765.972Z" transform="translate(-650.266 -253.599)" fill="none" stroke="#2c2d66" stroke-width="1"/>
          <path id="Caminho_12828" data-name="Caminho 12828" d="M798.518,676.11l-27.039,56.914-6.061,12.758L732.789,676.11H677.434l75.949,146.952c-.113-.214-.2-.444-.3-.664.12.26.228.528.364.779l.1.189a13.69,13.69,0,0,0,24.508-1.25l1.441-2.564,74.38-143.442Z" transform="translate(-242.515 -253.96)" fill="none" stroke="#2c2d66" stroke-width="1"/>
          <path id="Caminho_12829" data-name="Caminho 12829" d="M1166.582,819.614a6.963,6.963,0,0,1,.485.843l-64.793-139.908v0a6.878,6.878,0,0,0-12.863,0l-64.707,139.7.025.041a6.826,6.826,0,0,0-.806,3.173,6.9,6.9,0,0,0,6.9,6.9h34.288a6.9,6.9,0,0,0,6.316-4.132l-.01.045,24.536-55.5,24.321,55.493.047.03a6.894,6.894,0,0,0,6.268,4.061h34.255a6.9,6.9,0,0,0,5.732-10.753Z" transform="translate(-436.64 -253.96)" fill="none" stroke="#2c2d66" stroke-width="1"/>
          <path id="Caminho_12830" data-name="Caminho 12830" d="M426.929,643.072a69.016,69.016,0,0,0-15.094-23.193,71.791,71.791,0,0,0-23.992-15.822,82.17,82.17,0,0,0-31.614-5.833,90.1,90.1,0,0,0-33.362,6.138,84.145,84.145,0,0,0-27.008,16.9,80.328,80.328,0,0,0-17.952,89.4,74.411,74.411,0,0,0,18.432,25.506,87.776,87.776,0,0,0,28.276,16.9,101.783,101.783,0,0,0,36.034,6.335,104.509,104.509,0,0,0,57.593-16.929,7.153,7.153,0,0,0,1.529-11.041,7.259,7.259,0,0,1,.579.7l-12.562-22.9-.027.007a7.172,7.172,0,0,0-9.217-3.47c-.039.02-.077.036-.116.056A87.8,87.8,0,0,1,384.19,711.6a74.386,74.386,0,0,1-21.606,3.076q-13.031,0-22.079-4.308A28.126,28.126,0,0,1,327,697.147h96.038c.013,0,.025,0,.037,0a7.213,7.213,0,0,0,7.213-7.213,7.226,7.226,0,0,1-.131,1.3c.4-1.945.755-4.012,1.056-6.211a102.148,102.148,0,0,0,.953-13.993A75.158,75.158,0,0,0,426.929,643.072ZM325.095,662.745q3.489-11.076,11.118-17.055a29.568,29.568,0,0,1,35.905.153q7.62,6.157,8.26,16.9Z" transform="translate(-15.027 -210.323)" fill="none" stroke="#2c2d66" stroke-width="1"/>
        </g>
        <g id="Grupo_18443" data-name="Grupo 18443" transform="translate(1031.523)">
          <path id="Caminho_12831" data-name="Caminho 12831" d="M82.014-199.273a70.25,70.25,0,0,0-18.353-24.17,81.889,81.889,0,0,0-27.648-15.175,108.937,108.937,0,0,0-34.29-5.195h-48.8a6.9,6.9,0,0,0-6.9,6.9V-96.485a6.9,6.9,0,0,0,6.9,6.9H1.715a102.9,102.9,0,0,0,34.3-5.781,84.556,84.556,0,0,0,27.648-15.767,72.5,72.5,0,0,0,18.353-24.4,74.227,74.227,0,0,0,6.642-31.752A74.86,74.86,0,0,0,82.014-199.273Zm-39.359,49.5a38.238,38.238,0,0,1-9.42,12.966,41,41,0,0,1-14.127,8.053,54.144,54.144,0,0,1-17.629,2.8H-12.286v-81.492H1.479A61.5,61.5,0,0,1,19.108-205a39.9,39.9,0,0,1,14.127,7.352,35.056,35.056,0,0,1,9.42,12.5,42.407,42.407,0,0,1,3.5,17.868A41.945,41.945,0,0,1,42.655-149.774Z" transform="translate(79.929 261.436)" fill="none" stroke="#2c2d66" stroke-width="1"/>
          <rect id="Retângulo_1368" data-name="Retângulo 1368" width="52.269" height="154.195" rx="4.722" transform="translate(851.828 26.43)" fill="none" stroke="#2c2d66" stroke-width="1"/>
          <path id="Caminho_12832" data-name="Caminho 12832" d="M1558.729-198.695a73.589,73.589,0,0,0-15.045-24.242,67.645,67.645,0,0,0-23.089-15.864,74.365,74.365,0,0,0-29.328-5.733q-14.584,0-25.528,4.847a46.434,46.434,0,0,0-14.164,9.65c-.028.028-.157.131-.191.16a2.143,2.143,0,0,1-1.423.538,2.15,2.15,0,0,1-2.15-2.15V-239.2q0-.877,0-1.755V-242a2.243,2.243,0,0,0-.5-1.518,2.114,2.114,0,0,0-1.577-.732H1407.3a2.076,2.076,0,0,0-2.076,2.076V-53.311a2.076,2.076,0,0,0,2.076,2.076h42.93c.022,0,.043.007.066.007s.043-.006.065-.007a2.076,2.076,0,0,0,2.012-2.07s0-46.2,0-46.217a2.077,2.077,0,0,1,2.077-2.076,2.109,2.109,0,0,1,1.318.476q13.475,10.564,35.5,10.561a74.472,74.472,0,0,0,29.328-5.727,66.733,66.733,0,0,0,23.089-16.014,74.855,74.855,0,0,0,15.045-24.542,85.806,85.806,0,0,0,5.47-31A84.693,84.693,0,0,0,1558.729-198.695Zm-50.6,44.667a30.643,30.643,0,0,1-6.683,9.844,26.11,26.11,0,0,1-9.419,5.876,32.609,32.609,0,0,1-11.1,1.909,31.7,31.7,0,0,1-10.787-1.909,26.11,26.11,0,0,1-9.419-5.876,30.558,30.558,0,0,1-6.684-9.844,34.1,34.1,0,0,1-2.587-13.812,34.116,34.116,0,0,1,2.587-13.812,28.836,28.836,0,0,1,6.684-9.695,25.405,25.405,0,0,1,9.419-5.583,33.961,33.961,0,0,1,10.787-1.765,34.034,34.034,0,0,1,11.244,1.909,25.988,25.988,0,0,1,9.574,5.876,28.921,28.921,0,0,1,6.535,9.844,35.2,35.2,0,0,1,2.433,13.518A33.282,33.282,0,0,1,1508.13-154.028Z" transform="translate(-737.607 261.84)" fill="none" stroke="#2c2d66" stroke-width="1"/>
          <path id="Caminho_12833" data-name="Caminho 12833" d="M798.518-213.89l-27.039,56.914-6.061,12.758L732.789-213.89H677.434L753.383-66.938c-.113-.214-.2-.444-.3-.664.12.26.228.528.364.779l.1.189a13.689,13.689,0,0,0,12.077,7,13.691,13.691,0,0,0,12.431-8.25l1.441-2.564,74.38-143.442Z" transform="translate(-329.856 244.672)" fill="none" stroke="#2c2d66" stroke-width="1"/>
          <path id="Caminho_12834" data-name="Caminho 12834" d="M1176.582-140.386a6.955,6.955,0,0,1,.485.843l-64.792-139.908v0a6.891,6.891,0,0,0-6.432-4.443,6.892,6.892,0,0,0-6.431,4.44l-64.707,139.7.025.041a6.828,6.828,0,0,0-.806,3.173,6.9,6.9,0,0,0,6.9,6.9h34.288a6.9,6.9,0,0,0,6.316-4.132l24.526-55.453,24.321,55.493.047.03a6.894,6.894,0,0,0,6.268,4.061h34.255a6.9,6.9,0,0,0,6.9-6.9A6.871,6.871,0,0,0,1176.582-140.386Z" transform="translate(-529.584 283.89)" fill="none" stroke="#2c2d66" stroke-width="1"/>
          <path id="Caminho_12835" data-name="Caminho 12835" d="M469.28-201.011a66.057,66.057,0,0,0-14.449-22.2,68.72,68.72,0,0,0-22.966-15.146,78.657,78.657,0,0,0-30.262-5.584,86.247,86.247,0,0,0-31.936,5.876,80.553,80.553,0,0,0-25.854,16.18,74.27,74.27,0,0,0-17.185,24.416,74.776,74.776,0,0,0-6.233,30.584,74.776,74.776,0,0,0,6.233,30.583,71.233,71.233,0,0,0,17.644,24.416,84.015,84.015,0,0,0,27.068,16.18,97.425,97.425,0,0,0,34.494,6.065,100.039,100.039,0,0,0,55.131-16.206,6.878,6.878,0,0,0,3.328-5.879,6.858,6.858,0,0,0-1.864-4.69,7,7,0,0,1,.554.671l-12.026-21.925-.026.007a6.882,6.882,0,0,0-6.165-3.855,6.873,6.873,0,0,0-2.658.534c-.037.018-.074.034-.111.053a84.037,84.037,0,0,1-13.63,5.516,71.208,71.208,0,0,1-20.683,2.944q-12.474,0-21.136-4.124a26.926,26.926,0,0,1-12.927-12.652h91.933c.012,0,.023,0,.036,0a6.9,6.9,0,0,0,6.9-6.9,6.907,6.907,0,0,1-.125,1.241c.383-1.862.722-3.84,1.011-5.946a97.8,97.8,0,0,0,.912-13.394A71.936,71.936,0,0,0,469.28-201.011ZM371.8-182.179q3.34-10.6,10.643-16.326a26.8,26.8,0,0,1,17.034-5.742,26.818,26.818,0,0,1,17.336,5.888q7.294,5.894,7.907,16.18Z" transform="translate(-129.821 261.509)" fill="none" stroke="#2c2d66" stroke-width="1"/>
          <path id="Caminho_12836" data-name="Caminho 12836" d="M1252.329,136.646h-48.116c-1.147,0-2.077,1.267-2.077,2.831V344.011c0,1.563.93,2.83,2.077,2.83h48.116c1.146,0,2.076-1.267,2.076-2.83V139.477C1254.406,137.913,1253.476,136.646,1252.329,136.646Z" transform="translate(-623.826 48.28)" fill="none" stroke="#2c2d66" stroke-width="1"/>
          <path id="Caminho_12837" data-name="Caminho 12837" d="M926.728,221.305a73.584,73.584,0,0,0-15.045-24.242A67.646,67.646,0,0,0,888.595,181.2a74.366,74.366,0,0,0-29.328-5.733q-14.584,0-25.528,4.847a46.435,46.435,0,0,0-14.164,9.65c-.028.028-.157.131-.191.161a2.15,2.15,0,0,1-3.572-1.612V180.8q0-.877,0-1.755V178a2.242,2.242,0,0,0-.5-1.518,2.113,2.113,0,0,0-1.577-.732H775.3a2.076,2.076,0,0,0-2.076,2.076V366.689a2.076,2.076,0,0,0,2.076,2.077h42.93c.022,0,.043.007.066.007s.043-.006.066-.007a2.076,2.076,0,0,0,2.012-2.07s0-46.2,0-46.217a2.077,2.077,0,0,1,2.076-2.076,2.109,2.109,0,0,1,1.318.476q13.475,10.564,35.5,10.561a74.472,74.472,0,0,0,29.328-5.727A66.734,66.734,0,0,0,911.684,307.7a74.851,74.851,0,0,0,15.045-24.542,85.806,85.806,0,0,0,5.47-31A84.693,84.693,0,0,0,926.728,221.305Zm-50.6,44.667a30.641,30.641,0,0,1-6.683,9.844,26.112,26.112,0,0,1-9.419,5.876,32.608,32.608,0,0,1-11.1,1.909,31.7,31.7,0,0,1-10.787-1.909,26.111,26.111,0,0,1-9.419-5.876,30.556,30.556,0,0,1-6.684-9.844,38.165,38.165,0,0,1,0-27.624,28.833,28.833,0,0,1,6.684-9.694,25.405,25.405,0,0,1,9.419-5.583,33.958,33.958,0,0,1,22.031.144,25.983,25.983,0,0,1,9.573,5.876,28.92,28.92,0,0,1,6.536,9.844,35.2,35.2,0,0,1,2.433,13.518A33.28,33.28,0,0,1,876.13,265.972Z" transform="translate(-383.522 26.531)" fill="none" stroke="#2c2d66" stroke-width="1"/>
          <path id="Caminho_12838" data-name="Caminho 12838" d="M166.518,176.11l-27.039,56.914-6.061,12.758L100.789,176.11H45.434l75.949,146.952c-.113-.214-.2-.444-.3-.664.12.26.228.528.364.779l.1.189a13.69,13.69,0,0,0,24.508-1.25l1.441-2.564,74.38-143.442Z" transform="translate(24.229 26.17)" fill="none" stroke="#2c2d66" stroke-width="1"/>
          <path id="Caminho_12839" data-name="Caminho 12839" d="M534.582,319.614a6.938,6.938,0,0,1,.485.843L470.275,180.549v0a6.878,6.878,0,0,0-12.863,0l-64.707,139.7.025.041a6.828,6.828,0,0,0-.806,3.173,6.9,6.9,0,0,0,6.9,6.9h34.288a6.9,6.9,0,0,0,6.316-4.132l24.526-55.453,24.321,55.493.047.03a6.894,6.894,0,0,0,6.268,4.061H528.85a6.9,6.9,0,0,0,5.732-10.753Z" transform="translate(-169.897 26.17)" fill="none" stroke="#2c2d66" stroke-width="1"/>
          <path id="Caminho_12840" data-name="Caminho 12840" d="M1541.014,302.727a70.248,70.248,0,0,0-18.354-24.17,81.885,81.885,0,0,0-27.648-15.175,108.937,108.937,0,0,0-34.29-5.195h-48.8a6.9,6.9,0,0,0-6.9,6.9V405.515a6.9,6.9,0,0,0,6.9,6.9h48.794a102.9,102.9,0,0,0,34.3-5.781,84.553,84.553,0,0,0,27.648-15.767,72.5,72.5,0,0,0,18.354-24.4,79.793,79.793,0,0,0,0-63.745Zm-39.359,49.5a38.238,38.238,0,0,1-9.42,12.966,41,41,0,0,1-14.127,8.053,54.143,54.143,0,0,1-17.629,2.8h-13.765V294.554h13.765A61.5,61.5,0,0,1,1478.108,297a39.907,39.907,0,0,1,14.127,7.352,35.055,35.055,0,0,1,9.42,12.5,42.407,42.407,0,0,1,3.5,17.868A41.945,41.945,0,0,1,1501.655,352.226Z" transform="translate(-737.492 -19.814)" fill="none" stroke="#2c2d66" stroke-width="1"/>
          <path id="Caminho_12841" data-name="Caminho 12841" d="M1928.28,200.989a66.056,66.056,0,0,0-14.448-22.2,68.721,68.721,0,0,0-22.966-15.146,78.658,78.658,0,0,0-30.262-5.584,86.249,86.249,0,0,0-31.936,5.876,80.559,80.559,0,0,0-25.854,16.18,76.9,76.9,0,0,0-17.185,85.583,71.236,71.236,0,0,0,17.644,24.416,84.016,84.016,0,0,0,27.068,16.18,97.424,97.424,0,0,0,34.493,6.065,100.038,100.038,0,0,0,55.131-16.206,6.847,6.847,0,0,0,1.464-10.569,7,7,0,0,1,.554.671l-12.026-21.925-.025.007a6.864,6.864,0,0,0-8.823-3.321c-.037.018-.074.034-.111.053a84.03,84.03,0,0,1-13.63,5.516,71.207,71.207,0,0,1-20.683,2.944q-12.474,0-21.136-4.124a26.927,26.927,0,0,1-12.927-12.652h91.933c.012,0,.023,0,.036,0a6.9,6.9,0,0,0,6.9-6.9,6.9,6.9,0,0,1-.125,1.241c.383-1.862.722-3.84,1.011-5.946a97.76,97.76,0,0,0,.912-13.394A71.934,71.934,0,0,0,1928.28,200.989ZM1830.8,219.821q3.34-10.6,10.643-16.326a28.3,28.3,0,0,1,34.37.146q7.294,5.894,7.907,16.18Z" transform="translate(-947.241 36.285)" fill="none" stroke="#2c2d66" stroke-width="1"/>
          <path id="Caminho_12842" data-name="Caminho 12842" d="M23.014,640.727a70.25,70.25,0,0,0-18.353-24.17,81.886,81.886,0,0,0-27.648-15.175,108.938,108.938,0,0,0-34.29-5.195h-48.8a6.9,6.9,0,0,0-6.9,6.9V743.515a6.9,6.9,0,0,0,6.9,6.9h48.794a102.9,102.9,0,0,0,34.3-5.781A84.557,84.557,0,0,0,4.661,728.872a72.5,72.5,0,0,0,18.353-24.4,74.227,74.227,0,0,0,6.642-31.752A74.86,74.86,0,0,0,23.014,640.727Zm-39.359,49.5a38.239,38.239,0,0,1-9.42,12.966,41,41,0,0,1-14.127,8.053,54.144,54.144,0,0,1-17.629,2.8H-71.286V632.554h13.765A61.5,61.5,0,0,1-39.892,635a39.905,39.905,0,0,1,14.127,7.353,35.054,35.054,0,0,1,9.42,12.5,42.407,42.407,0,0,1,3.5,17.868A41.945,41.945,0,0,1-16.345,690.226Z" transform="translate(112.984 -209.182)" fill="none" stroke="#2c2d66" stroke-width="1"/>
          <path id="Caminho_12843" data-name="Caminho 12843" d="M1884.329,571.646h-48.116c-1.147,0-2.076,1.207-2.076,2.7V769.128c0,1.489.929,2.7,2.076,2.7h48.116c1.146,0,2.076-1.207,2.076-2.7V574.342C1886.406,572.853,1885.476,571.646,1884.329,571.646Z" transform="translate(-977.911 -195.433)" fill="none" stroke="#2c2d66" stroke-width="1"/>
          <path id="Caminho_12844" data-name="Caminho 12844" d="M1558.729,721.305a73.589,73.589,0,0,0-15.045-24.242,67.645,67.645,0,0,0-23.089-15.864,74.367,74.367,0,0,0-29.328-5.733q-14.584,0-25.528,4.847a46.433,46.433,0,0,0-14.164,9.65c-.028.028-.157.131-.191.16a2.15,2.15,0,0,1-3.572-1.612V680.8q0-.877,0-1.755V678a2.243,2.243,0,0,0-.5-1.518,2.114,2.114,0,0,0-1.577-.732H1407.3a2.076,2.076,0,0,0-2.076,2.076V866.689a2.076,2.076,0,0,0,2.076,2.076h42.93c.022,0,.043.007.066.007s.043-.006.065-.007a2.076,2.076,0,0,0,2.012-2.07s0-46.2,0-46.217a2.077,2.077,0,0,1,2.077-2.076,2.109,2.109,0,0,1,1.318.476q13.475,10.564,35.5,10.561a74.472,74.472,0,0,0,29.328-5.727,66.732,66.732,0,0,0,23.089-16.013,74.855,74.855,0,0,0,15.045-24.542,85.807,85.807,0,0,0,5.47-31A84.693,84.693,0,0,0,1558.729,721.305Zm-50.6,44.667a30.644,30.644,0,0,1-6.683,9.844,26.11,26.11,0,0,1-9.419,5.876,32.608,32.608,0,0,1-11.1,1.909,31.7,31.7,0,0,1-10.787-1.909,26.11,26.11,0,0,1-9.419-5.876,30.558,30.558,0,0,1-6.684-9.844,38.166,38.166,0,0,1,0-27.624,28.835,28.835,0,0,1,6.684-9.695,25.4,25.4,0,0,1,9.419-5.583,33.959,33.959,0,0,1,22.031.144,25.987,25.987,0,0,1,9.574,5.876,28.922,28.922,0,0,1,6.535,9.844,35.2,35.2,0,0,1,2.433,13.518A33.282,33.282,0,0,1,1508.13,765.972Z" transform="translate(-737.607 -253.599)" fill="none" stroke="#2c2d66" stroke-width="1"/>
          <path id="Caminho_12845" data-name="Caminho 12845" d="M798.518,676.11l-27.039,56.914-6.061,12.758L732.789,676.11H677.434l75.949,146.952c-.113-.214-.2-.444-.3-.664.12.26.228.528.364.779l.1.189a13.69,13.69,0,0,0,24.508-1.25l1.441-2.564,74.38-143.442Z" transform="translate(-329.856 -253.96)" fill="none" stroke="#2c2d66" stroke-width="1"/>
          <path id="Caminho_12846" data-name="Caminho 12846" d="M1166.582,819.614a6.963,6.963,0,0,1,.485.843l-64.793-139.908v0a6.878,6.878,0,0,0-12.863,0l-64.707,139.7.025.041a6.826,6.826,0,0,0-.806,3.173,6.9,6.9,0,0,0,6.9,6.9h34.288a6.9,6.9,0,0,0,6.316-4.132l-.01.045,24.536-55.5,24.321,55.493.047.03a6.894,6.894,0,0,0,6.268,4.061h34.255a6.9,6.9,0,0,0,5.732-10.753Z" transform="translate(-523.981 -253.96)" fill="none" stroke="#2c2d66" stroke-width="1"/>
          <path id="Caminho_12847" data-name="Caminho 12847" d="M426.929,643.072a69.016,69.016,0,0,0-15.094-23.193,71.791,71.791,0,0,0-23.992-15.822,82.17,82.17,0,0,0-31.614-5.833,90.1,90.1,0,0,0-33.362,6.138,84.145,84.145,0,0,0-27.008,16.9,80.328,80.328,0,0,0-17.952,89.4,74.411,74.411,0,0,0,18.432,25.506,87.776,87.776,0,0,0,28.276,16.9,101.783,101.783,0,0,0,36.034,6.335,104.509,104.509,0,0,0,57.593-16.929,7.153,7.153,0,0,0,1.529-11.041,7.259,7.259,0,0,1,.579.7l-12.562-22.9-.027.007a7.172,7.172,0,0,0-9.217-3.47c-.039.02-.077.036-.116.056A87.8,87.8,0,0,1,384.19,711.6a74.386,74.386,0,0,1-21.606,3.076q-13.031,0-22.079-4.308A28.126,28.126,0,0,1,327,697.147h96.038c.013,0,.025,0,.037,0a7.213,7.213,0,0,0,7.213-7.213,7.226,7.226,0,0,1-.131,1.3c.4-1.945.755-4.012,1.056-6.211a102.148,102.148,0,0,0,.953-13.993A75.158,75.158,0,0,0,426.929,643.072ZM325.095,662.745q3.489-11.076,11.118-17.055a29.568,29.568,0,0,1,35.905.153q7.62,6.157,8.26,16.9Z" transform="translate(-102.368 -210.323)" fill="none" stroke="#2c2d66" stroke-width="1"/>
        </g>
        <g id="Grupo_18444" data-name="Grupo 18444" transform="translate(1978.256)">
          <path id="Caminho_12848" data-name="Caminho 12848" d="M82.014-199.273a70.25,70.25,0,0,0-18.353-24.17,81.889,81.889,0,0,0-27.648-15.175,108.937,108.937,0,0,0-34.29-5.195h-48.8a6.9,6.9,0,0,0-6.9,6.9V-96.485a6.9,6.9,0,0,0,6.9,6.9H1.715a102.9,102.9,0,0,0,34.3-5.781,84.556,84.556,0,0,0,27.648-15.767,72.5,72.5,0,0,0,18.353-24.4,74.227,74.227,0,0,0,6.642-31.752A74.86,74.86,0,0,0,82.014-199.273Zm-39.359,49.5a38.238,38.238,0,0,1-9.42,12.966,41,41,0,0,1-14.127,8.053,54.144,54.144,0,0,1-17.629,2.8H-12.286v-81.492H1.479A61.5,61.5,0,0,1,19.108-205a39.9,39.9,0,0,1,14.127,7.352,35.056,35.056,0,0,1,9.42,12.5,42.407,42.407,0,0,1,3.5,17.868A41.945,41.945,0,0,1,42.655-149.774Z" transform="translate(79.929 261.436)" fill="none" stroke="#2c2d66" stroke-width="1"/>
          <rect id="Retângulo_1369" data-name="Retângulo 1369" width="52.269" height="154.195" rx="4.722" transform="translate(851.828 26.43)" fill="none" stroke="#2c2d66" stroke-width="1"/>
          <path id="Caminho_12849" data-name="Caminho 12849" d="M1558.729-198.695a73.589,73.589,0,0,0-15.045-24.242,67.645,67.645,0,0,0-23.089-15.864,74.365,74.365,0,0,0-29.328-5.733q-14.584,0-25.528,4.847a46.434,46.434,0,0,0-14.164,9.65c-.028.028-.157.131-.191.16a2.143,2.143,0,0,1-1.423.538,2.15,2.15,0,0,1-2.15-2.15V-239.2q0-.877,0-1.755V-242a2.243,2.243,0,0,0-.5-1.518,2.114,2.114,0,0,0-1.577-.732H1407.3a2.076,2.076,0,0,0-2.076,2.076V-53.311a2.076,2.076,0,0,0,2.076,2.076h42.93c.022,0,.043.007.066.007s.043-.006.065-.007a2.076,2.076,0,0,0,2.012-2.07s0-46.2,0-46.217a2.077,2.077,0,0,1,2.077-2.076,2.109,2.109,0,0,1,1.318.476q13.475,10.564,35.5,10.561a74.472,74.472,0,0,0,29.328-5.727,66.733,66.733,0,0,0,23.089-16.014,74.855,74.855,0,0,0,15.045-24.542,85.806,85.806,0,0,0,5.47-31A84.693,84.693,0,0,0,1558.729-198.695Zm-50.6,44.667a30.643,30.643,0,0,1-6.683,9.844,26.11,26.11,0,0,1-9.419,5.876,32.609,32.609,0,0,1-11.1,1.909,31.7,31.7,0,0,1-10.787-1.909,26.11,26.11,0,0,1-9.419-5.876,30.558,30.558,0,0,1-6.684-9.844,34.1,34.1,0,0,1-2.587-13.812,34.116,34.116,0,0,1,2.587-13.812,28.836,28.836,0,0,1,6.684-9.695,25.405,25.405,0,0,1,9.419-5.583,33.961,33.961,0,0,1,10.787-1.765,34.034,34.034,0,0,1,11.244,1.909,25.988,25.988,0,0,1,9.574,5.876,28.921,28.921,0,0,1,6.535,9.844,35.2,35.2,0,0,1,2.433,13.518A33.282,33.282,0,0,1,1508.13-154.028Z" transform="translate(-737.607 261.84)" fill="none" stroke="#2c2d66" stroke-width="1"/>
          <path id="Caminho_12850" data-name="Caminho 12850" d="M798.518-213.89l-27.039,56.914-6.061,12.758L732.789-213.89H677.434L753.383-66.938c-.113-.214-.2-.444-.3-.664.12.26.228.528.364.779l.1.189a13.689,13.689,0,0,0,12.077,7,13.691,13.691,0,0,0,12.431-8.25l1.441-2.564,74.38-143.442Z" transform="translate(-329.856 244.672)" fill="none" stroke="#2c2d66" stroke-width="1"/>
          <path id="Caminho_12851" data-name="Caminho 12851" d="M1176.582-140.386a6.955,6.955,0,0,1,.485.843l-64.792-139.908v0a6.891,6.891,0,0,0-6.432-4.443,6.892,6.892,0,0,0-6.431,4.44l-64.707,139.7.025.041a6.828,6.828,0,0,0-.806,3.173,6.9,6.9,0,0,0,6.9,6.9h34.288a6.9,6.9,0,0,0,6.316-4.132l24.526-55.453,24.321,55.493.047.03a6.894,6.894,0,0,0,6.268,4.061h34.255a6.9,6.9,0,0,0,6.9-6.9A6.871,6.871,0,0,0,1176.582-140.386Z" transform="translate(-529.584 283.89)" fill="none" stroke="#2c2d66" stroke-width="1"/>
          <path id="Caminho_12852" data-name="Caminho 12852" d="M469.28-201.011a66.057,66.057,0,0,0-14.449-22.2,68.72,68.72,0,0,0-22.966-15.146,78.657,78.657,0,0,0-30.262-5.584,86.247,86.247,0,0,0-31.936,5.876,80.553,80.553,0,0,0-25.854,16.18,74.27,74.27,0,0,0-17.185,24.416,74.776,74.776,0,0,0-6.233,30.584,74.776,74.776,0,0,0,6.233,30.583,71.233,71.233,0,0,0,17.644,24.416,84.015,84.015,0,0,0,27.068,16.18,97.425,97.425,0,0,0,34.494,6.065,100.039,100.039,0,0,0,55.131-16.206,6.878,6.878,0,0,0,3.328-5.879,6.858,6.858,0,0,0-1.864-4.69,7,7,0,0,1,.554.671l-12.026-21.925-.026.007a6.882,6.882,0,0,0-6.165-3.855,6.873,6.873,0,0,0-2.658.534c-.037.018-.074.034-.111.053a84.037,84.037,0,0,1-13.63,5.516,71.208,71.208,0,0,1-20.683,2.944q-12.474,0-21.136-4.124a26.926,26.926,0,0,1-12.927-12.652h91.933c.012,0,.023,0,.036,0a6.9,6.9,0,0,0,6.9-6.9,6.907,6.907,0,0,1-.125,1.241c.383-1.862.722-3.84,1.011-5.946a97.8,97.8,0,0,0,.912-13.394A71.936,71.936,0,0,0,469.28-201.011ZM371.8-182.179q3.34-10.6,10.643-16.326a26.8,26.8,0,0,1,17.034-5.742,26.818,26.818,0,0,1,17.336,5.888q7.294,5.894,7.907,16.18Z" transform="translate(-129.821 261.509)" fill="none" stroke="#2c2d66" stroke-width="1"/>
          <path id="Caminho_12853" data-name="Caminho 12853" d="M1252.329,136.646h-48.116c-1.147,0-2.077,1.267-2.077,2.831V344.011c0,1.563.93,2.83,2.077,2.83h48.116c1.146,0,2.076-1.267,2.076-2.83V139.477C1254.406,137.913,1253.476,136.646,1252.329,136.646Z" transform="translate(-623.826 48.28)" fill="none" stroke="#2c2d66" stroke-width="1"/>
          <path id="Caminho_12854" data-name="Caminho 12854" d="M926.728,221.305a73.584,73.584,0,0,0-15.045-24.242A67.646,67.646,0,0,0,888.595,181.2a74.366,74.366,0,0,0-29.328-5.733q-14.584,0-25.528,4.847a46.435,46.435,0,0,0-14.164,9.65c-.028.028-.157.131-.191.161a2.15,2.15,0,0,1-3.572-1.612V180.8q0-.877,0-1.755V178a2.242,2.242,0,0,0-.5-1.518,2.113,2.113,0,0,0-1.577-.732H775.3a2.076,2.076,0,0,0-2.076,2.076V366.689a2.076,2.076,0,0,0,2.076,2.077h42.93c.022,0,.043.007.066.007s.043-.006.066-.007a2.076,2.076,0,0,0,2.012-2.07s0-46.2,0-46.217a2.077,2.077,0,0,1,2.076-2.076,2.109,2.109,0,0,1,1.318.476q13.475,10.564,35.5,10.561a74.472,74.472,0,0,0,29.328-5.727A66.734,66.734,0,0,0,911.684,307.7a74.851,74.851,0,0,0,15.045-24.542,85.806,85.806,0,0,0,5.47-31A84.693,84.693,0,0,0,926.728,221.305Zm-50.6,44.667a30.641,30.641,0,0,1-6.683,9.844,26.112,26.112,0,0,1-9.419,5.876,32.608,32.608,0,0,1-11.1,1.909,31.7,31.7,0,0,1-10.787-1.909,26.111,26.111,0,0,1-9.419-5.876,30.556,30.556,0,0,1-6.684-9.844,38.165,38.165,0,0,1,0-27.624,28.833,28.833,0,0,1,6.684-9.694,25.405,25.405,0,0,1,9.419-5.583,33.958,33.958,0,0,1,22.031.144,25.983,25.983,0,0,1,9.573,5.876,28.92,28.92,0,0,1,6.536,9.844,35.2,35.2,0,0,1,2.433,13.518A33.28,33.28,0,0,1,876.13,265.972Z" transform="translate(-383.522 26.531)" fill="none" stroke="#2c2d66" stroke-width="1"/>
          <path id="Caminho_12855" data-name="Caminho 12855" d="M166.518,176.11l-27.039,56.914-6.061,12.758L100.789,176.11H45.434l75.949,146.952c-.113-.214-.2-.444-.3-.664.12.26.228.528.364.779l.1.189a13.69,13.69,0,0,0,24.508-1.25l1.441-2.564,74.38-143.442Z" transform="translate(24.229 26.17)" fill="none" stroke="#2c2d66" stroke-width="1"/>
          <path id="Caminho_12856" data-name="Caminho 12856" d="M534.582,319.614a6.938,6.938,0,0,1,.485.843L470.275,180.549v0a6.878,6.878,0,0,0-12.863,0l-64.707,139.7.025.041a6.828,6.828,0,0,0-.806,3.173,6.9,6.9,0,0,0,6.9,6.9h34.288a6.9,6.9,0,0,0,6.316-4.132l24.526-55.453,24.321,55.493.047.03a6.894,6.894,0,0,0,6.268,4.061H528.85a6.9,6.9,0,0,0,5.732-10.753Z" transform="translate(-169.897 26.17)" fill="none" stroke="#2c2d66" stroke-width="1"/>
          <path id="Caminho_12857" data-name="Caminho 12857" d="M1541.014,302.727a70.248,70.248,0,0,0-18.354-24.17,81.885,81.885,0,0,0-27.648-15.175,108.937,108.937,0,0,0-34.29-5.195h-48.8a6.9,6.9,0,0,0-6.9,6.9V405.515a6.9,6.9,0,0,0,6.9,6.9h48.794a102.9,102.9,0,0,0,34.3-5.781,84.553,84.553,0,0,0,27.648-15.767,72.5,72.5,0,0,0,18.354-24.4,79.793,79.793,0,0,0,0-63.745Zm-39.359,49.5a38.238,38.238,0,0,1-9.42,12.966,41,41,0,0,1-14.127,8.053,54.143,54.143,0,0,1-17.629,2.8h-13.765V294.554h13.765A61.5,61.5,0,0,1,1478.108,297a39.907,39.907,0,0,1,14.127,7.352,35.055,35.055,0,0,1,9.42,12.5,42.407,42.407,0,0,1,3.5,17.868A41.945,41.945,0,0,1,1501.655,352.226Z" transform="translate(-737.492 -19.814)" fill="none" stroke="#2c2d66" stroke-width="1"/>
          <path id="Caminho_12858" data-name="Caminho 12858" d="M1928.28,200.989a66.056,66.056,0,0,0-14.448-22.2,68.721,68.721,0,0,0-22.966-15.146,78.658,78.658,0,0,0-30.262-5.584,86.249,86.249,0,0,0-31.936,5.876,80.559,80.559,0,0,0-25.854,16.18,76.9,76.9,0,0,0-17.185,85.583,71.236,71.236,0,0,0,17.644,24.416,84.016,84.016,0,0,0,27.068,16.18,97.424,97.424,0,0,0,34.493,6.065,100.038,100.038,0,0,0,55.131-16.206,6.847,6.847,0,0,0,1.464-10.569,7,7,0,0,1,.554.671l-12.026-21.925-.025.007a6.864,6.864,0,0,0-8.823-3.321c-.037.018-.074.034-.111.053a84.03,84.03,0,0,1-13.63,5.516,71.207,71.207,0,0,1-20.683,2.944q-12.474,0-21.136-4.124a26.927,26.927,0,0,1-12.927-12.652h91.933c.012,0,.023,0,.036,0a6.9,6.9,0,0,0,6.9-6.9,6.9,6.9,0,0,1-.125,1.241c.383-1.862.722-3.84,1.011-5.946a97.76,97.76,0,0,0,.912-13.394A71.934,71.934,0,0,0,1928.28,200.989ZM1830.8,219.821q3.34-10.6,10.643-16.326a28.3,28.3,0,0,1,34.37.146q7.294,5.894,7.907,16.18Z" transform="translate(-947.241 36.285)" fill="none" stroke="#2c2d66" stroke-width="1"/>
          <path id="Caminho_12859" data-name="Caminho 12859" d="M23.014,640.727a70.25,70.25,0,0,0-18.353-24.17,81.886,81.886,0,0,0-27.648-15.175,108.938,108.938,0,0,0-34.29-5.195h-48.8a6.9,6.9,0,0,0-6.9,6.9V743.515a6.9,6.9,0,0,0,6.9,6.9h48.794a102.9,102.9,0,0,0,34.3-5.781A84.557,84.557,0,0,0,4.661,728.872a72.5,72.5,0,0,0,18.353-24.4,74.227,74.227,0,0,0,6.642-31.752A74.86,74.86,0,0,0,23.014,640.727Zm-39.359,49.5a38.239,38.239,0,0,1-9.42,12.966,41,41,0,0,1-14.127,8.053,54.144,54.144,0,0,1-17.629,2.8H-71.286V632.554h13.765A61.5,61.5,0,0,1-39.892,635a39.905,39.905,0,0,1,14.127,7.353,35.054,35.054,0,0,1,9.42,12.5,42.407,42.407,0,0,1,3.5,17.868A41.945,41.945,0,0,1-16.345,690.226Z" transform="translate(112.984 -209.182)" fill="none" stroke="#2c2d66" stroke-width="1"/>
          <path id="Caminho_12860" data-name="Caminho 12860" d="M1884.329,571.646h-48.116c-1.147,0-2.076,1.207-2.076,2.7V769.128c0,1.489.929,2.7,2.076,2.7h48.116c1.146,0,2.076-1.207,2.076-2.7V574.342C1886.406,572.853,1885.476,571.646,1884.329,571.646Z" transform="translate(-977.911 -195.433)" fill="none" stroke="#2c2d66" stroke-width="1"/>
          <path id="Caminho_12861" data-name="Caminho 12861" d="M1558.729,721.305a73.589,73.589,0,0,0-15.045-24.242,67.645,67.645,0,0,0-23.089-15.864,74.367,74.367,0,0,0-29.328-5.733q-14.584,0-25.528,4.847a46.433,46.433,0,0,0-14.164,9.65c-.028.028-.157.131-.191.16a2.15,2.15,0,0,1-3.572-1.612V680.8q0-.877,0-1.755V678a2.243,2.243,0,0,0-.5-1.518,2.114,2.114,0,0,0-1.577-.732H1407.3a2.076,2.076,0,0,0-2.076,2.076V866.689a2.076,2.076,0,0,0,2.076,2.076h42.93c.022,0,.043.007.066.007s.043-.006.065-.007a2.076,2.076,0,0,0,2.012-2.07s0-46.2,0-46.217a2.077,2.077,0,0,1,2.077-2.076,2.109,2.109,0,0,1,1.318.476q13.475,10.564,35.5,10.561a74.472,74.472,0,0,0,29.328-5.727,66.732,66.732,0,0,0,23.089-16.013,74.855,74.855,0,0,0,15.045-24.542,85.807,85.807,0,0,0,5.47-31A84.693,84.693,0,0,0,1558.729,721.305Zm-50.6,44.667a30.644,30.644,0,0,1-6.683,9.844,26.11,26.11,0,0,1-9.419,5.876,32.608,32.608,0,0,1-11.1,1.909,31.7,31.7,0,0,1-10.787-1.909,26.11,26.11,0,0,1-9.419-5.876,30.558,30.558,0,0,1-6.684-9.844,38.166,38.166,0,0,1,0-27.624,28.835,28.835,0,0,1,6.684-9.695,25.4,25.4,0,0,1,9.419-5.583,33.959,33.959,0,0,1,22.031.144,25.987,25.987,0,0,1,9.574,5.876,28.922,28.922,0,0,1,6.535,9.844,35.2,35.2,0,0,1,2.433,13.518A33.282,33.282,0,0,1,1508.13,765.972Z" transform="translate(-737.607 -253.599)" fill="none" stroke="#2c2d66" stroke-width="1"/>
          <path id="Caminho_12862" data-name="Caminho 12862" d="M798.518,676.11l-27.039,56.914-6.061,12.758L732.789,676.11H677.434l75.949,146.952c-.113-.214-.2-.444-.3-.664.12.26.228.528.364.779l.1.189a13.69,13.69,0,0,0,24.508-1.25l1.441-2.564,74.38-143.442Z" transform="translate(-329.856 -253.96)" fill="none" stroke="#2c2d66" stroke-width="1"/>
          <path id="Caminho_12863" data-name="Caminho 12863" d="M1166.582,819.614a6.963,6.963,0,0,1,.485.843l-64.793-139.908v0a6.878,6.878,0,0,0-12.863,0l-64.707,139.7.025.041a6.826,6.826,0,0,0-.806,3.173,6.9,6.9,0,0,0,6.9,6.9h34.288a6.9,6.9,0,0,0,6.316-4.132l-.01.045,24.536-55.5,24.321,55.493.047.03a6.894,6.894,0,0,0,6.268,4.061h34.255a6.9,6.9,0,0,0,5.732-10.753Z" transform="translate(-523.981 -253.96)" fill="none" stroke="#2c2d66" stroke-width="1"/>
          <path id="Caminho_12864" data-name="Caminho 12864" d="M426.929,643.072a69.016,69.016,0,0,0-15.094-23.193,71.791,71.791,0,0,0-23.992-15.822,82.17,82.17,0,0,0-31.614-5.833,90.1,90.1,0,0,0-33.362,6.138,84.145,84.145,0,0,0-27.008,16.9,80.328,80.328,0,0,0-17.952,89.4,74.411,74.411,0,0,0,18.432,25.506,87.776,87.776,0,0,0,28.276,16.9,101.783,101.783,0,0,0,36.034,6.335,104.509,104.509,0,0,0,57.593-16.929,7.153,7.153,0,0,0,1.529-11.041,7.259,7.259,0,0,1,.579.7l-12.562-22.9-.027.007a7.172,7.172,0,0,0-9.217-3.47c-.039.02-.077.036-.116.056A87.8,87.8,0,0,1,384.19,711.6a74.386,74.386,0,0,1-21.606,3.076q-13.031,0-22.079-4.308A28.126,28.126,0,0,1,327,697.147h96.038c.013,0,.025,0,.037,0a7.213,7.213,0,0,0,7.213-7.213,7.226,7.226,0,0,1-.131,1.3c.4-1.945.755-4.012,1.056-6.211a102.148,102.148,0,0,0,.953-13.993A75.158,75.158,0,0,0,426.929,643.072ZM325.095,662.745q3.489-11.076,11.118-17.055a29.568,29.568,0,0,1,35.905.153q7.62,6.157,8.26,16.9Z" transform="translate(-102.368 -210.323)" fill="none" stroke="#2c2d66" stroke-width="1"/>
        </g>
      </g>
      <g id="Grupo_18449" data-name="Grupo 18449" transform="translate(-394 5238.269)">
        <g id="Grupo_18446" data-name="Grupo 18446">
          <path id="Caminho_12865" data-name="Caminho 12865" d="M82.014-199.273a70.25,70.25,0,0,0-18.353-24.17,81.889,81.889,0,0,0-27.648-15.175,108.937,108.937,0,0,0-34.29-5.195h-48.8a6.9,6.9,0,0,0-6.9,6.9V-96.485a6.9,6.9,0,0,0,6.9,6.9H1.715a102.9,102.9,0,0,0,34.3-5.781,84.556,84.556,0,0,0,27.648-15.767,72.5,72.5,0,0,0,18.353-24.4,74.227,74.227,0,0,0,6.642-31.752A74.86,74.86,0,0,0,82.014-199.273Zm-39.359,49.5a38.238,38.238,0,0,1-9.42,12.966,41,41,0,0,1-14.127,8.053,54.144,54.144,0,0,1-17.629,2.8H-12.286v-81.492H1.479A61.5,61.5,0,0,1,19.108-205a39.9,39.9,0,0,1,14.127,7.352,35.056,35.056,0,0,1,9.42,12.5,42.407,42.407,0,0,1,3.5,17.868A41.945,41.945,0,0,1,42.655-149.774Z" transform="translate(167.27 261.436)" fill="none" stroke="#2c2d66" stroke-width="1"/>
          <rect id="Retângulo_1370" data-name="Retângulo 1370" width="52.269" height="154.195" rx="4.722" transform="translate(939.17 26.43)" fill="none" stroke="#2c2d66" stroke-width="1"/>
          <path id="Caminho_12866" data-name="Caminho 12866" d="M1558.729-198.695a73.589,73.589,0,0,0-15.045-24.242,67.645,67.645,0,0,0-23.089-15.864,74.365,74.365,0,0,0-29.328-5.733q-14.584,0-25.528,4.847a46.434,46.434,0,0,0-14.164,9.65c-.028.028-.157.131-.191.16a2.143,2.143,0,0,1-1.423.538,2.15,2.15,0,0,1-2.15-2.15V-239.2q0-.877,0-1.755V-242a2.243,2.243,0,0,0-.5-1.518,2.114,2.114,0,0,0-1.577-.732H1407.3a2.076,2.076,0,0,0-2.076,2.076V-53.311a2.076,2.076,0,0,0,2.076,2.076h42.93c.022,0,.043.007.066.007s.043-.006.065-.007a2.076,2.076,0,0,0,2.012-2.07s0-46.2,0-46.217a2.077,2.077,0,0,1,2.077-2.076,2.109,2.109,0,0,1,1.318.476q13.475,10.564,35.5,10.561a74.472,74.472,0,0,0,29.328-5.727,66.733,66.733,0,0,0,23.089-16.014,74.855,74.855,0,0,0,15.045-24.542,85.806,85.806,0,0,0,5.47-31A84.693,84.693,0,0,0,1558.729-198.695Zm-50.6,44.667a30.643,30.643,0,0,1-6.683,9.844,26.11,26.11,0,0,1-9.419,5.876,32.609,32.609,0,0,1-11.1,1.909,31.7,31.7,0,0,1-10.787-1.909,26.11,26.11,0,0,1-9.419-5.876,30.558,30.558,0,0,1-6.684-9.844,34.1,34.1,0,0,1-2.587-13.812,34.116,34.116,0,0,1,2.587-13.812,28.836,28.836,0,0,1,6.684-9.695,25.405,25.405,0,0,1,9.419-5.583,33.961,33.961,0,0,1,10.787-1.765,34.034,34.034,0,0,1,11.244,1.909,25.988,25.988,0,0,1,9.574,5.876,28.921,28.921,0,0,1,6.535,9.844,35.2,35.2,0,0,1,2.433,13.518A33.282,33.282,0,0,1,1508.13-154.028Z" transform="translate(-650.266 261.84)" fill="none" stroke="#2c2d66" stroke-width="1"/>
          <path id="Caminho_12867" data-name="Caminho 12867" d="M798.518-213.89l-27.039,56.914-6.061,12.758L732.789-213.89H677.434L753.383-66.938c-.113-.214-.2-.444-.3-.664.12.26.228.528.364.779l.1.189a13.689,13.689,0,0,0,12.077,7,13.691,13.691,0,0,0,12.431-8.25l1.441-2.564,74.38-143.442Z" transform="translate(-242.515 244.672)" fill="none" stroke="#2c2d66" stroke-width="1"/>
          <path id="Caminho_12868" data-name="Caminho 12868" d="M1176.582-140.386a6.955,6.955,0,0,1,.485.843l-64.792-139.908v0a6.891,6.891,0,0,0-6.432-4.443,6.892,6.892,0,0,0-6.431,4.44l-64.707,139.7.025.041a6.828,6.828,0,0,0-.806,3.173,6.9,6.9,0,0,0,6.9,6.9h34.288a6.9,6.9,0,0,0,6.316-4.132l24.526-55.453,24.321,55.493.047.03a6.894,6.894,0,0,0,6.268,4.061h34.255a6.9,6.9,0,0,0,6.9-6.9A6.871,6.871,0,0,0,1176.582-140.386Z" transform="translate(-442.242 283.89)" fill="none" stroke="#2c2d66" stroke-width="1"/>
          <path id="Caminho_12869" data-name="Caminho 12869" d="M469.28-201.011a66.057,66.057,0,0,0-14.449-22.2,68.72,68.72,0,0,0-22.966-15.146,78.657,78.657,0,0,0-30.262-5.584,86.247,86.247,0,0,0-31.936,5.876,80.553,80.553,0,0,0-25.854,16.18,74.27,74.27,0,0,0-17.185,24.416,74.776,74.776,0,0,0-6.233,30.584,74.776,74.776,0,0,0,6.233,30.583,71.233,71.233,0,0,0,17.644,24.416,84.015,84.015,0,0,0,27.068,16.18,97.425,97.425,0,0,0,34.494,6.065,100.039,100.039,0,0,0,55.131-16.206,6.878,6.878,0,0,0,3.328-5.879,6.858,6.858,0,0,0-1.864-4.69,7,7,0,0,1,.554.671l-12.026-21.925-.026.007a6.882,6.882,0,0,0-6.165-3.855,6.873,6.873,0,0,0-2.658.534c-.037.018-.074.034-.111.053a84.037,84.037,0,0,1-13.63,5.516,71.208,71.208,0,0,1-20.683,2.944q-12.474,0-21.136-4.124a26.926,26.926,0,0,1-12.927-12.652h91.933c.012,0,.023,0,.036,0a6.9,6.9,0,0,0,6.9-6.9,6.907,6.907,0,0,1-.125,1.241c.383-1.862.722-3.84,1.011-5.946a97.8,97.8,0,0,0,.912-13.394A71.936,71.936,0,0,0,469.28-201.011ZM371.8-182.179q3.34-10.6,10.643-16.326a26.8,26.8,0,0,1,17.034-5.742,26.818,26.818,0,0,1,17.336,5.888q7.294,5.894,7.907,16.18Z" transform="translate(-42.48 261.509)" fill="none" stroke="#2c2d66" stroke-width="1"/>
          <path id="Caminho_12870" data-name="Caminho 12870" d="M1252.329,136.646h-48.116c-1.147,0-2.077,1.267-2.077,2.831V344.011c0,1.563.93,2.83,2.077,2.83h48.116c1.146,0,2.076-1.267,2.076-2.83V139.477C1254.406,137.913,1253.476,136.646,1252.329,136.646Z" transform="translate(-536.485 48.28)" fill="none" stroke="#2c2d66" stroke-width="1"/>
          <path id="Caminho_12871" data-name="Caminho 12871" d="M926.728,221.305a73.584,73.584,0,0,0-15.045-24.242A67.646,67.646,0,0,0,888.595,181.2a74.366,74.366,0,0,0-29.328-5.733q-14.584,0-25.528,4.847a46.435,46.435,0,0,0-14.164,9.65c-.028.028-.157.131-.191.161a2.15,2.15,0,0,1-3.572-1.612V180.8q0-.877,0-1.755V178a2.242,2.242,0,0,0-.5-1.518,2.113,2.113,0,0,0-1.577-.732H775.3a2.076,2.076,0,0,0-2.076,2.076V366.689a2.076,2.076,0,0,0,2.076,2.077h42.93c.022,0,.043.007.066.007s.043-.006.066-.007a2.076,2.076,0,0,0,2.012-2.07s0-46.2,0-46.217a2.077,2.077,0,0,1,2.076-2.076,2.109,2.109,0,0,1,1.318.476q13.475,10.564,35.5,10.561a74.472,74.472,0,0,0,29.328-5.727A66.734,66.734,0,0,0,911.684,307.7a74.851,74.851,0,0,0,15.045-24.542,85.806,85.806,0,0,0,5.47-31A84.693,84.693,0,0,0,926.728,221.305Zm-50.6,44.667a30.641,30.641,0,0,1-6.683,9.844,26.112,26.112,0,0,1-9.419,5.876,32.608,32.608,0,0,1-11.1,1.909,31.7,31.7,0,0,1-10.787-1.909,26.111,26.111,0,0,1-9.419-5.876,30.556,30.556,0,0,1-6.684-9.844,38.165,38.165,0,0,1,0-27.624,28.833,28.833,0,0,1,6.684-9.694,25.405,25.405,0,0,1,9.419-5.583,33.958,33.958,0,0,1,22.031.144,25.983,25.983,0,0,1,9.573,5.876,28.92,28.92,0,0,1,6.536,9.844,35.2,35.2,0,0,1,2.433,13.518A33.28,33.28,0,0,1,876.13,265.972Z" transform="translate(-296.181 26.531)" fill="none" stroke="#2c2d66" stroke-width="1"/>
          <path id="Caminho_12872" data-name="Caminho 12872" d="M166.518,176.11l-27.039,56.914-6.061,12.758L100.789,176.11H45.434l75.949,146.952c-.113-.214-.2-.444-.3-.664.12.26.228.528.364.779l.1.189a13.69,13.69,0,0,0,24.508-1.25l1.441-2.564,74.38-143.442Z" transform="translate(111.57 26.17)" fill="none" stroke="#2c2d66" stroke-width="1"/>
          <path id="Caminho_12873" data-name="Caminho 12873" d="M534.582,319.614a6.938,6.938,0,0,1,.485.843L470.275,180.549v0a6.878,6.878,0,0,0-12.863,0l-64.707,139.7.025.041a6.828,6.828,0,0,0-.806,3.173,6.9,6.9,0,0,0,6.9,6.9h34.288a6.9,6.9,0,0,0,6.316-4.132l24.526-55.453,24.321,55.493.047.03a6.894,6.894,0,0,0,6.268,4.061H528.85a6.9,6.9,0,0,0,5.732-10.753Z" transform="translate(-82.555 26.17)" fill="none" stroke="#2c2d66" stroke-width="1"/>
          <path id="Caminho_12874" data-name="Caminho 12874" d="M-162.72,218.989a66.057,66.057,0,0,0-14.449-22.2,68.72,68.72,0,0,0-22.966-15.146,78.657,78.657,0,0,0-30.262-5.584,86.246,86.246,0,0,0-31.936,5.876,80.553,80.553,0,0,0-25.854,16.18,74.27,74.27,0,0,0-17.185,24.416,74.777,74.777,0,0,0-6.233,30.584,74.777,74.777,0,0,0,6.233,30.583,71.233,71.233,0,0,0,17.644,24.416,84.017,84.017,0,0,0,27.068,16.18,97.426,97.426,0,0,0,34.494,6.065,100.039,100.039,0,0,0,55.131-16.206,6.878,6.878,0,0,0,3.327-5.879,6.858,6.858,0,0,0-1.864-4.69,6.99,6.99,0,0,1,.554.671l-12.026-21.925-.026.007a6.882,6.882,0,0,0-6.165-3.855,6.873,6.873,0,0,0-2.658.534c-.037.018-.074.034-.111.053a84.035,84.035,0,0,1-13.63,5.516,71.208,71.208,0,0,1-20.683,2.944q-12.474,0-21.136-4.124a26.926,26.926,0,0,1-12.927-12.652h91.933c.012,0,.023,0,.036,0a6.9,6.9,0,0,0,6.9-6.9,6.909,6.909,0,0,1-.125,1.241c.383-1.862.722-3.84,1.011-5.946a97.789,97.789,0,0,0,.912-13.394A71.935,71.935,0,0,0-162.72,218.989ZM-260.2,237.821q3.34-10.6,10.643-16.326a26.8,26.8,0,0,1,17.034-5.742,26.818,26.818,0,0,1,17.336,5.888q7.294,5.894,7.907,16.18Z" transform="translate(311.605 26.2)" fill="none" stroke="#2c2d66" stroke-width="1"/>
          <path id="Caminho_12875" data-name="Caminho 12875" d="M1541.014,302.727a70.248,70.248,0,0,0-18.354-24.17,81.885,81.885,0,0,0-27.648-15.175,108.937,108.937,0,0,0-34.29-5.195h-48.8a6.9,6.9,0,0,0-6.9,6.9V405.515a6.9,6.9,0,0,0,6.9,6.9h48.794a102.9,102.9,0,0,0,34.3-5.781,84.553,84.553,0,0,0,27.648-15.767,72.5,72.5,0,0,0,18.354-24.4,79.793,79.793,0,0,0,0-63.745Zm-39.359,49.5a38.238,38.238,0,0,1-9.42,12.966,41,41,0,0,1-14.127,8.053,54.143,54.143,0,0,1-17.629,2.8h-13.765V294.554h13.765A61.5,61.5,0,0,1,1478.108,297a39.907,39.907,0,0,1,14.127,7.352,35.055,35.055,0,0,1,9.42,12.5,42.407,42.407,0,0,1,3.5,17.868A41.945,41.945,0,0,1,1501.655,352.226Z" transform="translate(-650.15 -19.814)" fill="none" stroke="#2c2d66" stroke-width="1"/>
          <path id="Caminho_12876" data-name="Caminho 12876" d="M1928.28,200.989a66.056,66.056,0,0,0-14.448-22.2,68.721,68.721,0,0,0-22.966-15.146,78.658,78.658,0,0,0-30.262-5.584,86.249,86.249,0,0,0-31.936,5.876,80.559,80.559,0,0,0-25.854,16.18,76.9,76.9,0,0,0-17.185,85.583,71.236,71.236,0,0,0,17.644,24.416,84.016,84.016,0,0,0,27.068,16.18,97.424,97.424,0,0,0,34.493,6.065,100.038,100.038,0,0,0,55.131-16.206,6.847,6.847,0,0,0,1.464-10.569,7,7,0,0,1,.554.671l-12.026-21.925-.025.007a6.864,6.864,0,0,0-8.823-3.321c-.037.018-.074.034-.111.053a84.03,84.03,0,0,1-13.63,5.516,71.207,71.207,0,0,1-20.683,2.944q-12.474,0-21.136-4.124a26.927,26.927,0,0,1-12.927-12.652h91.933c.012,0,.023,0,.036,0a6.9,6.9,0,0,0,6.9-6.9,6.9,6.9,0,0,1-.125,1.241c.383-1.862.722-3.84,1.011-5.946a97.76,97.76,0,0,0,.912-13.394A71.934,71.934,0,0,0,1928.28,200.989ZM1830.8,219.821q3.34-10.6,10.643-16.326a28.3,28.3,0,0,1,34.37.146q7.294,5.894,7.907,16.18Z" transform="translate(-859.9 36.285)" fill="none" stroke="#2c2d66" stroke-width="1"/>
          <path id="Caminho_12877" data-name="Caminho 12877" d="M23.014,640.727a70.25,70.25,0,0,0-18.353-24.17,81.886,81.886,0,0,0-27.648-15.175,108.938,108.938,0,0,0-34.29-5.195h-48.8a6.9,6.9,0,0,0-6.9,6.9V743.515a6.9,6.9,0,0,0,6.9,6.9h48.794a102.9,102.9,0,0,0,34.3-5.781A84.557,84.557,0,0,0,4.661,728.872a72.5,72.5,0,0,0,18.353-24.4,74.227,74.227,0,0,0,6.642-31.752A74.86,74.86,0,0,0,23.014,640.727Zm-39.359,49.5a38.239,38.239,0,0,1-9.42,12.966,41,41,0,0,1-14.127,8.053,54.144,54.144,0,0,1-17.629,2.8H-71.286V632.554h13.765A61.5,61.5,0,0,1-39.892,635a39.905,39.905,0,0,1,14.127,7.353,35.054,35.054,0,0,1,9.42,12.5,42.407,42.407,0,0,1,3.5,17.868A41.945,41.945,0,0,1-16.345,690.226Z" transform="translate(200.325 -209.182)" fill="none" stroke="#2c2d66" stroke-width="1"/>
          <path id="Caminho_12878" data-name="Caminho 12878" d="M1884.329,571.646h-48.116c-1.147,0-2.076,1.207-2.076,2.7V769.128c0,1.489.929,2.7,2.076,2.7h48.116c1.146,0,2.076-1.207,2.076-2.7V574.342C1886.406,572.853,1885.476,571.646,1884.329,571.646Z" transform="translate(-890.57 -195.433)" fill="none" stroke="#2c2d66" stroke-width="1"/>
          <path id="Caminho_12879" data-name="Caminho 12879" d="M1558.729,721.305a73.589,73.589,0,0,0-15.045-24.242,67.645,67.645,0,0,0-23.089-15.864,74.367,74.367,0,0,0-29.328-5.733q-14.584,0-25.528,4.847a46.433,46.433,0,0,0-14.164,9.65c-.028.028-.157.131-.191.16a2.15,2.15,0,0,1-3.572-1.612V680.8q0-.877,0-1.755V678a2.243,2.243,0,0,0-.5-1.518,2.114,2.114,0,0,0-1.577-.732H1407.3a2.076,2.076,0,0,0-2.076,2.076V866.689a2.076,2.076,0,0,0,2.076,2.076h42.93c.022,0,.043.007.066.007s.043-.006.065-.007a2.076,2.076,0,0,0,2.012-2.07s0-46.2,0-46.217a2.077,2.077,0,0,1,2.077-2.076,2.109,2.109,0,0,1,1.318.476q13.475,10.564,35.5,10.561a74.472,74.472,0,0,0,29.328-5.727,66.732,66.732,0,0,0,23.089-16.013,74.855,74.855,0,0,0,15.045-24.542,85.807,85.807,0,0,0,5.47-31A84.693,84.693,0,0,0,1558.729,721.305Zm-50.6,44.667a30.644,30.644,0,0,1-6.683,9.844,26.11,26.11,0,0,1-9.419,5.876,32.608,32.608,0,0,1-11.1,1.909,31.7,31.7,0,0,1-10.787-1.909,26.11,26.11,0,0,1-9.419-5.876,30.558,30.558,0,0,1-6.684-9.844,38.166,38.166,0,0,1,0-27.624,28.835,28.835,0,0,1,6.684-9.695,25.4,25.4,0,0,1,9.419-5.583,33.959,33.959,0,0,1,22.031.144,25.987,25.987,0,0,1,9.574,5.876,28.922,28.922,0,0,1,6.535,9.844,35.2,35.2,0,0,1,2.433,13.518A33.282,33.282,0,0,1,1508.13,765.972Z" transform="translate(-650.266 -253.599)" fill="none" stroke="#2c2d66" stroke-width="1"/>
          <path id="Caminho_12880" data-name="Caminho 12880" d="M798.518,676.11l-27.039,56.914-6.061,12.758L732.789,676.11H677.434l75.949,146.952c-.113-.214-.2-.444-.3-.664.12.26.228.528.364.779l.1.189a13.69,13.69,0,0,0,24.508-1.25l1.441-2.564,74.38-143.442Z" transform="translate(-242.515 -253.96)" fill="none" stroke="#2c2d66" stroke-width="1"/>
          <path id="Caminho_12881" data-name="Caminho 12881" d="M1166.582,819.614a6.963,6.963,0,0,1,.485.843l-64.793-139.908v0a6.878,6.878,0,0,0-12.863,0l-64.707,139.7.025.041a6.826,6.826,0,0,0-.806,3.173,6.9,6.9,0,0,0,6.9,6.9h34.288a6.9,6.9,0,0,0,6.316-4.132l-.01.045,24.536-55.5,24.321,55.493.047.03a6.894,6.894,0,0,0,6.268,4.061h34.255a6.9,6.9,0,0,0,5.732-10.753Z" transform="translate(-436.64 -253.96)" fill="none" stroke="#2c2d66" stroke-width="1"/>
          <path id="Caminho_12882" data-name="Caminho 12882" d="M426.929,643.072a69.016,69.016,0,0,0-15.094-23.193,71.791,71.791,0,0,0-23.992-15.822,82.17,82.17,0,0,0-31.614-5.833,90.1,90.1,0,0,0-33.362,6.138,84.145,84.145,0,0,0-27.008,16.9,80.328,80.328,0,0,0-17.952,89.4,74.411,74.411,0,0,0,18.432,25.506,87.776,87.776,0,0,0,28.276,16.9,101.783,101.783,0,0,0,36.034,6.335,104.509,104.509,0,0,0,57.593-16.929,7.153,7.153,0,0,0,1.529-11.041,7.259,7.259,0,0,1,.579.7l-12.562-22.9-.027.007a7.172,7.172,0,0,0-9.217-3.47c-.039.02-.077.036-.116.056A87.8,87.8,0,0,1,384.19,711.6a74.386,74.386,0,0,1-21.606,3.076q-13.031,0-22.079-4.308A28.126,28.126,0,0,1,327,697.147h96.038c.013,0,.025,0,.037,0a7.213,7.213,0,0,0,7.213-7.213,7.226,7.226,0,0,1-.131,1.3c.4-1.945.755-4.012,1.056-6.211a102.148,102.148,0,0,0,.953-13.993A75.158,75.158,0,0,0,426.929,643.072ZM325.095,662.745q3.489-11.076,11.118-17.055a29.568,29.568,0,0,1,35.905.153q7.62,6.157,8.26,16.9Z" transform="translate(-15.027 -210.323)" fill="none" stroke="#2c2d66" stroke-width="1"/>
        </g>
        <g id="Grupo_18447" data-name="Grupo 18447" transform="translate(1031.523)">
          <path id="Caminho_12883" data-name="Caminho 12883" d="M82.014-199.273a70.25,70.25,0,0,0-18.353-24.17,81.889,81.889,0,0,0-27.648-15.175,108.937,108.937,0,0,0-34.29-5.195h-48.8a6.9,6.9,0,0,0-6.9,6.9V-96.485a6.9,6.9,0,0,0,6.9,6.9H1.715a102.9,102.9,0,0,0,34.3-5.781,84.556,84.556,0,0,0,27.648-15.767,72.5,72.5,0,0,0,18.353-24.4,74.227,74.227,0,0,0,6.642-31.752A74.86,74.86,0,0,0,82.014-199.273Zm-39.359,49.5a38.238,38.238,0,0,1-9.42,12.966,41,41,0,0,1-14.127,8.053,54.144,54.144,0,0,1-17.629,2.8H-12.286v-81.492H1.479A61.5,61.5,0,0,1,19.108-205a39.9,39.9,0,0,1,14.127,7.352,35.056,35.056,0,0,1,9.42,12.5,42.407,42.407,0,0,1,3.5,17.868A41.945,41.945,0,0,1,42.655-149.774Z" transform="translate(79.929 261.436)" fill="none" stroke="#2c2d66" stroke-width="1"/>
          <rect id="Retângulo_1371" data-name="Retângulo 1371" width="52.269" height="154.195" rx="4.722" transform="translate(851.828 26.43)" fill="none" stroke="#2c2d66" stroke-width="1"/>
          <path id="Caminho_12884" data-name="Caminho 12884" d="M1558.729-198.695a73.589,73.589,0,0,0-15.045-24.242,67.645,67.645,0,0,0-23.089-15.864,74.365,74.365,0,0,0-29.328-5.733q-14.584,0-25.528,4.847a46.434,46.434,0,0,0-14.164,9.65c-.028.028-.157.131-.191.16a2.143,2.143,0,0,1-1.423.538,2.15,2.15,0,0,1-2.15-2.15V-239.2q0-.877,0-1.755V-242a2.243,2.243,0,0,0-.5-1.518,2.114,2.114,0,0,0-1.577-.732H1407.3a2.076,2.076,0,0,0-2.076,2.076V-53.311a2.076,2.076,0,0,0,2.076,2.076h42.93c.022,0,.043.007.066.007s.043-.006.065-.007a2.076,2.076,0,0,0,2.012-2.07s0-46.2,0-46.217a2.077,2.077,0,0,1,2.077-2.076,2.109,2.109,0,0,1,1.318.476q13.475,10.564,35.5,10.561a74.472,74.472,0,0,0,29.328-5.727,66.733,66.733,0,0,0,23.089-16.014,74.855,74.855,0,0,0,15.045-24.542,85.806,85.806,0,0,0,5.47-31A84.693,84.693,0,0,0,1558.729-198.695Zm-50.6,44.667a30.643,30.643,0,0,1-6.683,9.844,26.11,26.11,0,0,1-9.419,5.876,32.609,32.609,0,0,1-11.1,1.909,31.7,31.7,0,0,1-10.787-1.909,26.11,26.11,0,0,1-9.419-5.876,30.558,30.558,0,0,1-6.684-9.844,34.1,34.1,0,0,1-2.587-13.812,34.116,34.116,0,0,1,2.587-13.812,28.836,28.836,0,0,1,6.684-9.695,25.405,25.405,0,0,1,9.419-5.583,33.961,33.961,0,0,1,10.787-1.765,34.034,34.034,0,0,1,11.244,1.909,25.988,25.988,0,0,1,9.574,5.876,28.921,28.921,0,0,1,6.535,9.844,35.2,35.2,0,0,1,2.433,13.518A33.282,33.282,0,0,1,1508.13-154.028Z" transform="translate(-737.607 261.84)" fill="none" stroke="#2c2d66" stroke-width="1"/>
          <path id="Caminho_12885" data-name="Caminho 12885" d="M798.518-213.89l-27.039,56.914-6.061,12.758L732.789-213.89H677.434L753.383-66.938c-.113-.214-.2-.444-.3-.664.12.26.228.528.364.779l.1.189a13.689,13.689,0,0,0,12.077,7,13.691,13.691,0,0,0,12.431-8.25l1.441-2.564,74.38-143.442Z" transform="translate(-329.856 244.672)" fill="none" stroke="#2c2d66" stroke-width="1"/>
          <path id="Caminho_12886" data-name="Caminho 12886" d="M1176.582-140.386a6.955,6.955,0,0,1,.485.843l-64.792-139.908v0a6.891,6.891,0,0,0-6.432-4.443,6.892,6.892,0,0,0-6.431,4.44l-64.707,139.7.025.041a6.828,6.828,0,0,0-.806,3.173,6.9,6.9,0,0,0,6.9,6.9h34.288a6.9,6.9,0,0,0,6.316-4.132l24.526-55.453,24.321,55.493.047.03a6.894,6.894,0,0,0,6.268,4.061h34.255a6.9,6.9,0,0,0,6.9-6.9A6.871,6.871,0,0,0,1176.582-140.386Z" transform="translate(-529.584 283.89)" fill="none" stroke="#2c2d66" stroke-width="1"/>
          <path id="Caminho_12887" data-name="Caminho 12887" d="M469.28-201.011a66.057,66.057,0,0,0-14.449-22.2,68.72,68.72,0,0,0-22.966-15.146,78.657,78.657,0,0,0-30.262-5.584,86.247,86.247,0,0,0-31.936,5.876,80.553,80.553,0,0,0-25.854,16.18,74.27,74.27,0,0,0-17.185,24.416,74.776,74.776,0,0,0-6.233,30.584,74.776,74.776,0,0,0,6.233,30.583,71.233,71.233,0,0,0,17.644,24.416,84.015,84.015,0,0,0,27.068,16.18,97.425,97.425,0,0,0,34.494,6.065,100.039,100.039,0,0,0,55.131-16.206,6.878,6.878,0,0,0,3.328-5.879,6.858,6.858,0,0,0-1.864-4.69,7,7,0,0,1,.554.671l-12.026-21.925-.026.007a6.882,6.882,0,0,0-6.165-3.855,6.873,6.873,0,0,0-2.658.534c-.037.018-.074.034-.111.053a84.037,84.037,0,0,1-13.63,5.516,71.208,71.208,0,0,1-20.683,2.944q-12.474,0-21.136-4.124a26.926,26.926,0,0,1-12.927-12.652h91.933c.012,0,.023,0,.036,0a6.9,6.9,0,0,0,6.9-6.9,6.907,6.907,0,0,1-.125,1.241c.383-1.862.722-3.84,1.011-5.946a97.8,97.8,0,0,0,.912-13.394A71.936,71.936,0,0,0,469.28-201.011ZM371.8-182.179q3.34-10.6,10.643-16.326a26.8,26.8,0,0,1,17.034-5.742,26.818,26.818,0,0,1,17.336,5.888q7.294,5.894,7.907,16.18Z" transform="translate(-129.821 261.509)" fill="none" stroke="#2c2d66" stroke-width="1"/>
          <path id="Caminho_12888" data-name="Caminho 12888" d="M1252.329,136.646h-48.116c-1.147,0-2.077,1.267-2.077,2.831V344.011c0,1.563.93,2.83,2.077,2.83h48.116c1.146,0,2.076-1.267,2.076-2.83V139.477C1254.406,137.913,1253.476,136.646,1252.329,136.646Z" transform="translate(-623.826 48.28)" fill="none" stroke="#2c2d66" stroke-width="1"/>
          <path id="Caminho_12889" data-name="Caminho 12889" d="M926.728,221.305a73.584,73.584,0,0,0-15.045-24.242A67.646,67.646,0,0,0,888.595,181.2a74.366,74.366,0,0,0-29.328-5.733q-14.584,0-25.528,4.847a46.435,46.435,0,0,0-14.164,9.65c-.028.028-.157.131-.191.161a2.15,2.15,0,0,1-3.572-1.612V180.8q0-.877,0-1.755V178a2.242,2.242,0,0,0-.5-1.518,2.113,2.113,0,0,0-1.577-.732H775.3a2.076,2.076,0,0,0-2.076,2.076V366.689a2.076,2.076,0,0,0,2.076,2.077h42.93c.022,0,.043.007.066.007s.043-.006.066-.007a2.076,2.076,0,0,0,2.012-2.07s0-46.2,0-46.217a2.077,2.077,0,0,1,2.076-2.076,2.109,2.109,0,0,1,1.318.476q13.475,10.564,35.5,10.561a74.472,74.472,0,0,0,29.328-5.727A66.734,66.734,0,0,0,911.684,307.7a74.851,74.851,0,0,0,15.045-24.542,85.806,85.806,0,0,0,5.47-31A84.693,84.693,0,0,0,926.728,221.305Zm-50.6,44.667a30.641,30.641,0,0,1-6.683,9.844,26.112,26.112,0,0,1-9.419,5.876,32.608,32.608,0,0,1-11.1,1.909,31.7,31.7,0,0,1-10.787-1.909,26.111,26.111,0,0,1-9.419-5.876,30.556,30.556,0,0,1-6.684-9.844,38.165,38.165,0,0,1,0-27.624,28.833,28.833,0,0,1,6.684-9.694,25.405,25.405,0,0,1,9.419-5.583,33.958,33.958,0,0,1,22.031.144,25.983,25.983,0,0,1,9.573,5.876,28.92,28.92,0,0,1,6.536,9.844,35.2,35.2,0,0,1,2.433,13.518A33.28,33.28,0,0,1,876.13,265.972Z" transform="translate(-383.522 26.531)" fill="none" stroke="#2c2d66" stroke-width="1"/>
          <path id="Caminho_12890" data-name="Caminho 12890" d="M166.518,176.11l-27.039,56.914-6.061,12.758L100.789,176.11H45.434l75.949,146.952c-.113-.214-.2-.444-.3-.664.12.26.228.528.364.779l.1.189a13.69,13.69,0,0,0,24.508-1.25l1.441-2.564,74.38-143.442Z" transform="translate(24.229 26.17)" fill="none" stroke="#2c2d66" stroke-width="1"/>
          <path id="Caminho_12891" data-name="Caminho 12891" d="M534.582,319.614a6.938,6.938,0,0,1,.485.843L470.275,180.549v0a6.878,6.878,0,0,0-12.863,0l-64.707,139.7.025.041a6.828,6.828,0,0,0-.806,3.173,6.9,6.9,0,0,0,6.9,6.9h34.288a6.9,6.9,0,0,0,6.316-4.132l24.526-55.453,24.321,55.493.047.03a6.894,6.894,0,0,0,6.268,4.061H528.85a6.9,6.9,0,0,0,5.732-10.753Z" transform="translate(-169.897 26.17)" fill="none" stroke="#2c2d66" stroke-width="1"/>
          <path id="Caminho_12892" data-name="Caminho 12892" d="M1541.014,302.727a70.248,70.248,0,0,0-18.354-24.17,81.885,81.885,0,0,0-27.648-15.175,108.937,108.937,0,0,0-34.29-5.195h-48.8a6.9,6.9,0,0,0-6.9,6.9V405.515a6.9,6.9,0,0,0,6.9,6.9h48.794a102.9,102.9,0,0,0,34.3-5.781,84.553,84.553,0,0,0,27.648-15.767,72.5,72.5,0,0,0,18.354-24.4,79.793,79.793,0,0,0,0-63.745Zm-39.359,49.5a38.238,38.238,0,0,1-9.42,12.966,41,41,0,0,1-14.127,8.053,54.143,54.143,0,0,1-17.629,2.8h-13.765V294.554h13.765A61.5,61.5,0,0,1,1478.108,297a39.907,39.907,0,0,1,14.127,7.352,35.055,35.055,0,0,1,9.42,12.5,42.407,42.407,0,0,1,3.5,17.868A41.945,41.945,0,0,1,1501.655,352.226Z" transform="translate(-737.492 -19.814)" fill="none" stroke="#2c2d66" stroke-width="1"/>
          <path id="Caminho_12893" data-name="Caminho 12893" d="M1928.28,200.989a66.056,66.056,0,0,0-14.448-22.2,68.721,68.721,0,0,0-22.966-15.146,78.658,78.658,0,0,0-30.262-5.584,86.249,86.249,0,0,0-31.936,5.876,80.559,80.559,0,0,0-25.854,16.18,76.9,76.9,0,0,0-17.185,85.583,71.236,71.236,0,0,0,17.644,24.416,84.016,84.016,0,0,0,27.068,16.18,97.424,97.424,0,0,0,34.493,6.065,100.038,100.038,0,0,0,55.131-16.206,6.847,6.847,0,0,0,1.464-10.569,7,7,0,0,1,.554.671l-12.026-21.925-.025.007a6.864,6.864,0,0,0-8.823-3.321c-.037.018-.074.034-.111.053a84.03,84.03,0,0,1-13.63,5.516,71.207,71.207,0,0,1-20.683,2.944q-12.474,0-21.136-4.124a26.927,26.927,0,0,1-12.927-12.652h91.933c.012,0,.023,0,.036,0a6.9,6.9,0,0,0,6.9-6.9,6.9,6.9,0,0,1-.125,1.241c.383-1.862.722-3.84,1.011-5.946a97.76,97.76,0,0,0,.912-13.394A71.934,71.934,0,0,0,1928.28,200.989ZM1830.8,219.821q3.34-10.6,10.643-16.326a28.3,28.3,0,0,1,34.37.146q7.294,5.894,7.907,16.18Z" transform="translate(-947.241 36.285)" fill="none" stroke="#2c2d66" stroke-width="1"/>
          <path id="Caminho_12894" data-name="Caminho 12894" d="M23.014,640.727a70.25,70.25,0,0,0-18.353-24.17,81.886,81.886,0,0,0-27.648-15.175,108.938,108.938,0,0,0-34.29-5.195h-48.8a6.9,6.9,0,0,0-6.9,6.9V743.515a6.9,6.9,0,0,0,6.9,6.9h48.794a102.9,102.9,0,0,0,34.3-5.781A84.557,84.557,0,0,0,4.661,728.872a72.5,72.5,0,0,0,18.353-24.4,74.227,74.227,0,0,0,6.642-31.752A74.86,74.86,0,0,0,23.014,640.727Zm-39.359,49.5a38.239,38.239,0,0,1-9.42,12.966,41,41,0,0,1-14.127,8.053,54.144,54.144,0,0,1-17.629,2.8H-71.286V632.554h13.765A61.5,61.5,0,0,1-39.892,635a39.905,39.905,0,0,1,14.127,7.353,35.054,35.054,0,0,1,9.42,12.5,42.407,42.407,0,0,1,3.5,17.868A41.945,41.945,0,0,1-16.345,690.226Z" transform="translate(112.984 -209.182)" fill="none" stroke="#2c2d66" stroke-width="1"/>
          <path id="Caminho_12895" data-name="Caminho 12895" d="M1884.329,571.646h-48.116c-1.147,0-2.076,1.207-2.076,2.7V769.128c0,1.489.929,2.7,2.076,2.7h48.116c1.146,0,2.076-1.207,2.076-2.7V574.342C1886.406,572.853,1885.476,571.646,1884.329,571.646Z" transform="translate(-977.911 -195.433)" fill="none" stroke="#2c2d66" stroke-width="1"/>
          <path id="Caminho_12896" data-name="Caminho 12896" d="M1558.729,721.305a73.589,73.589,0,0,0-15.045-24.242,67.645,67.645,0,0,0-23.089-15.864,74.367,74.367,0,0,0-29.328-5.733q-14.584,0-25.528,4.847a46.433,46.433,0,0,0-14.164,9.65c-.028.028-.157.131-.191.16a2.15,2.15,0,0,1-3.572-1.612V680.8q0-.877,0-1.755V678a2.243,2.243,0,0,0-.5-1.518,2.114,2.114,0,0,0-1.577-.732H1407.3a2.076,2.076,0,0,0-2.076,2.076V866.689a2.076,2.076,0,0,0,2.076,2.076h42.93c.022,0,.043.007.066.007s.043-.006.065-.007a2.076,2.076,0,0,0,2.012-2.07s0-46.2,0-46.217a2.077,2.077,0,0,1,2.077-2.076,2.109,2.109,0,0,1,1.318.476q13.475,10.564,35.5,10.561a74.472,74.472,0,0,0,29.328-5.727,66.732,66.732,0,0,0,23.089-16.013,74.855,74.855,0,0,0,15.045-24.542,85.807,85.807,0,0,0,5.47-31A84.693,84.693,0,0,0,1558.729,721.305Zm-50.6,44.667a30.644,30.644,0,0,1-6.683,9.844,26.11,26.11,0,0,1-9.419,5.876,32.608,32.608,0,0,1-11.1,1.909,31.7,31.7,0,0,1-10.787-1.909,26.11,26.11,0,0,1-9.419-5.876,30.558,30.558,0,0,1-6.684-9.844,38.166,38.166,0,0,1,0-27.624,28.835,28.835,0,0,1,6.684-9.695,25.4,25.4,0,0,1,9.419-5.583,33.959,33.959,0,0,1,22.031.144,25.987,25.987,0,0,1,9.574,5.876,28.922,28.922,0,0,1,6.535,9.844,35.2,35.2,0,0,1,2.433,13.518A33.282,33.282,0,0,1,1508.13,765.972Z" transform="translate(-737.607 -253.599)" fill="none" stroke="#2c2d66" stroke-width="1"/>
          <path id="Caminho_12897" data-name="Caminho 12897" d="M798.518,676.11l-27.039,56.914-6.061,12.758L732.789,676.11H677.434l75.949,146.952c-.113-.214-.2-.444-.3-.664.12.26.228.528.364.779l.1.189a13.69,13.69,0,0,0,24.508-1.25l1.441-2.564,74.38-143.442Z" transform="translate(-329.856 -253.96)" fill="none" stroke="#2c2d66" stroke-width="1"/>
          <path id="Caminho_12898" data-name="Caminho 12898" d="M1166.582,819.614a6.963,6.963,0,0,1,.485.843l-64.793-139.908v0a6.878,6.878,0,0,0-12.863,0l-64.707,139.7.025.041a6.826,6.826,0,0,0-.806,3.173,6.9,6.9,0,0,0,6.9,6.9h34.288a6.9,6.9,0,0,0,6.316-4.132l-.01.045,24.536-55.5,24.321,55.493.047.03a6.894,6.894,0,0,0,6.268,4.061h34.255a6.9,6.9,0,0,0,5.732-10.753Z" transform="translate(-523.981 -253.96)" fill="none" stroke="#2c2d66" stroke-width="1"/>
          <path id="Caminho_12899" data-name="Caminho 12899" d="M426.929,643.072a69.016,69.016,0,0,0-15.094-23.193,71.791,71.791,0,0,0-23.992-15.822,82.17,82.17,0,0,0-31.614-5.833,90.1,90.1,0,0,0-33.362,6.138,84.145,84.145,0,0,0-27.008,16.9,80.328,80.328,0,0,0-17.952,89.4,74.411,74.411,0,0,0,18.432,25.506,87.776,87.776,0,0,0,28.276,16.9,101.783,101.783,0,0,0,36.034,6.335,104.509,104.509,0,0,0,57.593-16.929,7.153,7.153,0,0,0,1.529-11.041,7.259,7.259,0,0,1,.579.7l-12.562-22.9-.027.007a7.172,7.172,0,0,0-9.217-3.47c-.039.02-.077.036-.116.056A87.8,87.8,0,0,1,384.19,711.6a74.386,74.386,0,0,1-21.606,3.076q-13.031,0-22.079-4.308A28.126,28.126,0,0,1,327,697.147h96.038c.013,0,.025,0,.037,0a7.213,7.213,0,0,0,7.213-7.213,7.226,7.226,0,0,1-.131,1.3c.4-1.945.755-4.012,1.056-6.211a102.148,102.148,0,0,0,.953-13.993A75.158,75.158,0,0,0,426.929,643.072ZM325.095,662.745q3.489-11.076,11.118-17.055a29.568,29.568,0,0,1,35.905.153q7.62,6.157,8.26,16.9Z" transform="translate(-102.368 -210.323)" fill="none" stroke="#2c2d66" stroke-width="1"/>
        </g>
        <g id="Grupo_18448" data-name="Grupo 18448" transform="translate(1978.256)">
          <path id="Caminho_12900" data-name="Caminho 12900" d="M82.014-199.273a70.25,70.25,0,0,0-18.353-24.17,81.889,81.889,0,0,0-27.648-15.175,108.937,108.937,0,0,0-34.29-5.195h-48.8a6.9,6.9,0,0,0-6.9,6.9V-96.485a6.9,6.9,0,0,0,6.9,6.9H1.715a102.9,102.9,0,0,0,34.3-5.781,84.556,84.556,0,0,0,27.648-15.767,72.5,72.5,0,0,0,18.353-24.4,74.227,74.227,0,0,0,6.642-31.752A74.86,74.86,0,0,0,82.014-199.273Zm-39.359,49.5a38.238,38.238,0,0,1-9.42,12.966,41,41,0,0,1-14.127,8.053,54.144,54.144,0,0,1-17.629,2.8H-12.286v-81.492H1.479A61.5,61.5,0,0,1,19.108-205a39.9,39.9,0,0,1,14.127,7.352,35.056,35.056,0,0,1,9.42,12.5,42.407,42.407,0,0,1,3.5,17.868A41.945,41.945,0,0,1,42.655-149.774Z" transform="translate(79.929 261.436)" fill="none" stroke="#2c2d66" stroke-width="1"/>
          <rect id="Retângulo_1372" data-name="Retângulo 1372" width="52.269" height="154.195" rx="4.722" transform="translate(851.828 26.43)" fill="none" stroke="#2c2d66" stroke-width="1"/>
          <path id="Caminho_12901" data-name="Caminho 12901" d="M1558.729-198.695a73.589,73.589,0,0,0-15.045-24.242,67.645,67.645,0,0,0-23.089-15.864,74.365,74.365,0,0,0-29.328-5.733q-14.584,0-25.528,4.847a46.434,46.434,0,0,0-14.164,9.65c-.028.028-.157.131-.191.16a2.143,2.143,0,0,1-1.423.538,2.15,2.15,0,0,1-2.15-2.15V-239.2q0-.877,0-1.755V-242a2.243,2.243,0,0,0-.5-1.518,2.114,2.114,0,0,0-1.577-.732H1407.3a2.076,2.076,0,0,0-2.076,2.076V-53.311a2.076,2.076,0,0,0,2.076,2.076h42.93c.022,0,.043.007.066.007s.043-.006.065-.007a2.076,2.076,0,0,0,2.012-2.07s0-46.2,0-46.217a2.077,2.077,0,0,1,2.077-2.076,2.109,2.109,0,0,1,1.318.476q13.475,10.564,35.5,10.561a74.472,74.472,0,0,0,29.328-5.727,66.733,66.733,0,0,0,23.089-16.014,74.855,74.855,0,0,0,15.045-24.542,85.806,85.806,0,0,0,5.47-31A84.693,84.693,0,0,0,1558.729-198.695Zm-50.6,44.667a30.643,30.643,0,0,1-6.683,9.844,26.11,26.11,0,0,1-9.419,5.876,32.609,32.609,0,0,1-11.1,1.909,31.7,31.7,0,0,1-10.787-1.909,26.11,26.11,0,0,1-9.419-5.876,30.558,30.558,0,0,1-6.684-9.844,34.1,34.1,0,0,1-2.587-13.812,34.116,34.116,0,0,1,2.587-13.812,28.836,28.836,0,0,1,6.684-9.695,25.405,25.405,0,0,1,9.419-5.583,33.961,33.961,0,0,1,10.787-1.765,34.034,34.034,0,0,1,11.244,1.909,25.988,25.988,0,0,1,9.574,5.876,28.921,28.921,0,0,1,6.535,9.844,35.2,35.2,0,0,1,2.433,13.518A33.282,33.282,0,0,1,1508.13-154.028Z" transform="translate(-737.607 261.84)" fill="none" stroke="#2c2d66" stroke-width="1"/>
          <path id="Caminho_12902" data-name="Caminho 12902" d="M798.518-213.89l-27.039,56.914-6.061,12.758L732.789-213.89H677.434L753.383-66.938c-.113-.214-.2-.444-.3-.664.12.26.228.528.364.779l.1.189a13.689,13.689,0,0,0,12.077,7,13.691,13.691,0,0,0,12.431-8.25l1.441-2.564,74.38-143.442Z" transform="translate(-329.856 244.672)" fill="none" stroke="#2c2d66" stroke-width="1"/>
          <path id="Caminho_12903" data-name="Caminho 12903" d="M1176.582-140.386a6.955,6.955,0,0,1,.485.843l-64.792-139.908v0a6.891,6.891,0,0,0-6.432-4.443,6.892,6.892,0,0,0-6.431,4.44l-64.707,139.7.025.041a6.828,6.828,0,0,0-.806,3.173,6.9,6.9,0,0,0,6.9,6.9h34.288a6.9,6.9,0,0,0,6.316-4.132l24.526-55.453,24.321,55.493.047.03a6.894,6.894,0,0,0,6.268,4.061h34.255a6.9,6.9,0,0,0,6.9-6.9A6.871,6.871,0,0,0,1176.582-140.386Z" transform="translate(-529.584 283.89)" fill="none" stroke="#2c2d66" stroke-width="1"/>
          <path id="Caminho_12904" data-name="Caminho 12904" d="M469.28-201.011a66.057,66.057,0,0,0-14.449-22.2,68.72,68.72,0,0,0-22.966-15.146,78.657,78.657,0,0,0-30.262-5.584,86.247,86.247,0,0,0-31.936,5.876,80.553,80.553,0,0,0-25.854,16.18,74.27,74.27,0,0,0-17.185,24.416,74.776,74.776,0,0,0-6.233,30.584,74.776,74.776,0,0,0,6.233,30.583,71.233,71.233,0,0,0,17.644,24.416,84.015,84.015,0,0,0,27.068,16.18,97.425,97.425,0,0,0,34.494,6.065,100.039,100.039,0,0,0,55.131-16.206,6.878,6.878,0,0,0,3.328-5.879,6.858,6.858,0,0,0-1.864-4.69,7,7,0,0,1,.554.671l-12.026-21.925-.026.007a6.882,6.882,0,0,0-6.165-3.855,6.873,6.873,0,0,0-2.658.534c-.037.018-.074.034-.111.053a84.037,84.037,0,0,1-13.63,5.516,71.208,71.208,0,0,1-20.683,2.944q-12.474,0-21.136-4.124a26.926,26.926,0,0,1-12.927-12.652h91.933c.012,0,.023,0,.036,0a6.9,6.9,0,0,0,6.9-6.9,6.907,6.907,0,0,1-.125,1.241c.383-1.862.722-3.84,1.011-5.946a97.8,97.8,0,0,0,.912-13.394A71.936,71.936,0,0,0,469.28-201.011ZM371.8-182.179q3.34-10.6,10.643-16.326a26.8,26.8,0,0,1,17.034-5.742,26.818,26.818,0,0,1,17.336,5.888q7.294,5.894,7.907,16.18Z" transform="translate(-129.821 261.509)" fill="none" stroke="#2c2d66" stroke-width="1"/>
          <path id="Caminho_12905" data-name="Caminho 12905" d="M1252.329,136.646h-48.116c-1.147,0-2.077,1.267-2.077,2.831V344.011c0,1.563.93,2.83,2.077,2.83h48.116c1.146,0,2.076-1.267,2.076-2.83V139.477C1254.406,137.913,1253.476,136.646,1252.329,136.646Z" transform="translate(-623.826 48.28)" fill="none" stroke="#2c2d66" stroke-width="1"/>
          <path id="Caminho_12906" data-name="Caminho 12906" d="M926.728,221.305a73.584,73.584,0,0,0-15.045-24.242A67.646,67.646,0,0,0,888.595,181.2a74.366,74.366,0,0,0-29.328-5.733q-14.584,0-25.528,4.847a46.435,46.435,0,0,0-14.164,9.65c-.028.028-.157.131-.191.161a2.15,2.15,0,0,1-3.572-1.612V180.8q0-.877,0-1.755V178a2.242,2.242,0,0,0-.5-1.518,2.113,2.113,0,0,0-1.577-.732H775.3a2.076,2.076,0,0,0-2.076,2.076V366.689a2.076,2.076,0,0,0,2.076,2.077h42.93c.022,0,.043.007.066.007s.043-.006.066-.007a2.076,2.076,0,0,0,2.012-2.07s0-46.2,0-46.217a2.077,2.077,0,0,1,2.076-2.076,2.109,2.109,0,0,1,1.318.476q13.475,10.564,35.5,10.561a74.472,74.472,0,0,0,29.328-5.727A66.734,66.734,0,0,0,911.684,307.7a74.851,74.851,0,0,0,15.045-24.542,85.806,85.806,0,0,0,5.47-31A84.693,84.693,0,0,0,926.728,221.305Zm-50.6,44.667a30.641,30.641,0,0,1-6.683,9.844,26.112,26.112,0,0,1-9.419,5.876,32.608,32.608,0,0,1-11.1,1.909,31.7,31.7,0,0,1-10.787-1.909,26.111,26.111,0,0,1-9.419-5.876,30.556,30.556,0,0,1-6.684-9.844,38.165,38.165,0,0,1,0-27.624,28.833,28.833,0,0,1,6.684-9.694,25.405,25.405,0,0,1,9.419-5.583,33.958,33.958,0,0,1,22.031.144,25.983,25.983,0,0,1,9.573,5.876,28.92,28.92,0,0,1,6.536,9.844,35.2,35.2,0,0,1,2.433,13.518A33.28,33.28,0,0,1,876.13,265.972Z" transform="translate(-383.522 26.531)" fill="none" stroke="#2c2d66" stroke-width="1"/>
          <path id="Caminho_12907" data-name="Caminho 12907" d="M166.518,176.11l-27.039,56.914-6.061,12.758L100.789,176.11H45.434l75.949,146.952c-.113-.214-.2-.444-.3-.664.12.26.228.528.364.779l.1.189a13.69,13.69,0,0,0,24.508-1.25l1.441-2.564,74.38-143.442Z" transform="translate(24.229 26.17)" fill="none" stroke="#2c2d66" stroke-width="1"/>
          <path id="Caminho_12908" data-name="Caminho 12908" d="M534.582,319.614a6.938,6.938,0,0,1,.485.843L470.275,180.549v0a6.878,6.878,0,0,0-12.863,0l-64.707,139.7.025.041a6.828,6.828,0,0,0-.806,3.173,6.9,6.9,0,0,0,6.9,6.9h34.288a6.9,6.9,0,0,0,6.316-4.132l24.526-55.453,24.321,55.493.047.03a6.894,6.894,0,0,0,6.268,4.061H528.85a6.9,6.9,0,0,0,5.732-10.753Z" transform="translate(-169.897 26.17)" fill="none" stroke="#2c2d66" stroke-width="1"/>
          <path id="Caminho_12909" data-name="Caminho 12909" d="M1541.014,302.727a70.248,70.248,0,0,0-18.354-24.17,81.885,81.885,0,0,0-27.648-15.175,108.937,108.937,0,0,0-34.29-5.195h-48.8a6.9,6.9,0,0,0-6.9,6.9V405.515a6.9,6.9,0,0,0,6.9,6.9h48.794a102.9,102.9,0,0,0,34.3-5.781,84.553,84.553,0,0,0,27.648-15.767,72.5,72.5,0,0,0,18.354-24.4,79.793,79.793,0,0,0,0-63.745Zm-39.359,49.5a38.238,38.238,0,0,1-9.42,12.966,41,41,0,0,1-14.127,8.053,54.143,54.143,0,0,1-17.629,2.8h-13.765V294.554h13.765A61.5,61.5,0,0,1,1478.108,297a39.907,39.907,0,0,1,14.127,7.352,35.055,35.055,0,0,1,9.42,12.5,42.407,42.407,0,0,1,3.5,17.868A41.945,41.945,0,0,1,1501.655,352.226Z" transform="translate(-737.492 -19.814)" fill="none" stroke="#2c2d66" stroke-width="1"/>
          <path id="Caminho_12910" data-name="Caminho 12910" d="M1928.28,200.989a66.056,66.056,0,0,0-14.448-22.2,68.721,68.721,0,0,0-22.966-15.146,78.658,78.658,0,0,0-30.262-5.584,86.249,86.249,0,0,0-31.936,5.876,80.559,80.559,0,0,0-25.854,16.18,76.9,76.9,0,0,0-17.185,85.583,71.236,71.236,0,0,0,17.644,24.416,84.016,84.016,0,0,0,27.068,16.18,97.424,97.424,0,0,0,34.493,6.065,100.038,100.038,0,0,0,55.131-16.206,6.847,6.847,0,0,0,1.464-10.569,7,7,0,0,1,.554.671l-12.026-21.925-.025.007a6.864,6.864,0,0,0-8.823-3.321c-.037.018-.074.034-.111.053a84.03,84.03,0,0,1-13.63,5.516,71.207,71.207,0,0,1-20.683,2.944q-12.474,0-21.136-4.124a26.927,26.927,0,0,1-12.927-12.652h91.933c.012,0,.023,0,.036,0a6.9,6.9,0,0,0,6.9-6.9,6.9,6.9,0,0,1-.125,1.241c.383-1.862.722-3.84,1.011-5.946a97.76,97.76,0,0,0,.912-13.394A71.934,71.934,0,0,0,1928.28,200.989ZM1830.8,219.821q3.34-10.6,10.643-16.326a28.3,28.3,0,0,1,34.37.146q7.294,5.894,7.907,16.18Z" transform="translate(-947.241 36.285)" fill="none" stroke="#2c2d66" stroke-width="1"/>
          <path id="Caminho_12911" data-name="Caminho 12911" d="M23.014,640.727a70.25,70.25,0,0,0-18.353-24.17,81.886,81.886,0,0,0-27.648-15.175,108.938,108.938,0,0,0-34.29-5.195h-48.8a6.9,6.9,0,0,0-6.9,6.9V743.515a6.9,6.9,0,0,0,6.9,6.9h48.794a102.9,102.9,0,0,0,34.3-5.781A84.557,84.557,0,0,0,4.661,728.872a72.5,72.5,0,0,0,18.353-24.4,74.227,74.227,0,0,0,6.642-31.752A74.86,74.86,0,0,0,23.014,640.727Zm-39.359,49.5a38.239,38.239,0,0,1-9.42,12.966,41,41,0,0,1-14.127,8.053,54.144,54.144,0,0,1-17.629,2.8H-71.286V632.554h13.765A61.5,61.5,0,0,1-39.892,635a39.905,39.905,0,0,1,14.127,7.353,35.054,35.054,0,0,1,9.42,12.5,42.407,42.407,0,0,1,3.5,17.868A41.945,41.945,0,0,1-16.345,690.226Z" transform="translate(112.984 -209.182)" fill="none" stroke="#2c2d66" stroke-width="1"/>
          <path id="Caminho_12912" data-name="Caminho 12912" d="M1884.329,571.646h-48.116c-1.147,0-2.076,1.207-2.076,2.7V769.128c0,1.489.929,2.7,2.076,2.7h48.116c1.146,0,2.076-1.207,2.076-2.7V574.342C1886.406,572.853,1885.476,571.646,1884.329,571.646Z" transform="translate(-977.911 -195.433)" fill="none" stroke="#2c2d66" stroke-width="1"/>
          <path id="Caminho_12913" data-name="Caminho 12913" d="M1558.729,721.305a73.589,73.589,0,0,0-15.045-24.242,67.645,67.645,0,0,0-23.089-15.864,74.367,74.367,0,0,0-29.328-5.733q-14.584,0-25.528,4.847a46.433,46.433,0,0,0-14.164,9.65c-.028.028-.157.131-.191.16a2.15,2.15,0,0,1-3.572-1.612V680.8q0-.877,0-1.755V678a2.243,2.243,0,0,0-.5-1.518,2.114,2.114,0,0,0-1.577-.732H1407.3a2.076,2.076,0,0,0-2.076,2.076V866.689a2.076,2.076,0,0,0,2.076,2.076h42.93c.022,0,.043.007.066.007s.043-.006.065-.007a2.076,2.076,0,0,0,2.012-2.07s0-46.2,0-46.217a2.077,2.077,0,0,1,2.077-2.076,2.109,2.109,0,0,1,1.318.476q13.475,10.564,35.5,10.561a74.472,74.472,0,0,0,29.328-5.727,66.732,66.732,0,0,0,23.089-16.013,74.855,74.855,0,0,0,15.045-24.542,85.807,85.807,0,0,0,5.47-31A84.693,84.693,0,0,0,1558.729,721.305Zm-50.6,44.667a30.644,30.644,0,0,1-6.683,9.844,26.11,26.11,0,0,1-9.419,5.876,32.608,32.608,0,0,1-11.1,1.909,31.7,31.7,0,0,1-10.787-1.909,26.11,26.11,0,0,1-9.419-5.876,30.558,30.558,0,0,1-6.684-9.844,38.166,38.166,0,0,1,0-27.624,28.835,28.835,0,0,1,6.684-9.695,25.4,25.4,0,0,1,9.419-5.583,33.959,33.959,0,0,1,22.031.144,25.987,25.987,0,0,1,9.574,5.876,28.922,28.922,0,0,1,6.535,9.844,35.2,35.2,0,0,1,2.433,13.518A33.282,33.282,0,0,1,1508.13,765.972Z" transform="translate(-737.607 -253.599)" fill="none" stroke="#2c2d66" stroke-width="1"/>
          <path id="Caminho_12914" data-name="Caminho 12914" d="M798.518,676.11l-27.039,56.914-6.061,12.758L732.789,676.11H677.434l75.949,146.952c-.113-.214-.2-.444-.3-.664.12.26.228.528.364.779l.1.189a13.69,13.69,0,0,0,24.508-1.25l1.441-2.564,74.38-143.442Z" transform="translate(-329.856 -253.96)" fill="none" stroke="#2c2d66" stroke-width="1"/>
          <path id="Caminho_12915" data-name="Caminho 12915" d="M1166.582,819.614a6.963,6.963,0,0,1,.485.843l-64.793-139.908v0a6.878,6.878,0,0,0-12.863,0l-64.707,139.7.025.041a6.826,6.826,0,0,0-.806,3.173,6.9,6.9,0,0,0,6.9,6.9h34.288a6.9,6.9,0,0,0,6.316-4.132l-.01.045,24.536-55.5,24.321,55.493.047.03a6.894,6.894,0,0,0,6.268,4.061h34.255a6.9,6.9,0,0,0,5.732-10.753Z" transform="translate(-523.981 -253.96)" fill="none" stroke="#2c2d66" stroke-width="1"/>
          <path id="Caminho_12916" data-name="Caminho 12916" d="M426.929,643.072a69.016,69.016,0,0,0-15.094-23.193,71.791,71.791,0,0,0-23.992-15.822,82.17,82.17,0,0,0-31.614-5.833,90.1,90.1,0,0,0-33.362,6.138,84.145,84.145,0,0,0-27.008,16.9,80.328,80.328,0,0,0-17.952,89.4,74.411,74.411,0,0,0,18.432,25.506,87.776,87.776,0,0,0,28.276,16.9,101.783,101.783,0,0,0,36.034,6.335,104.509,104.509,0,0,0,57.593-16.929,7.153,7.153,0,0,0,1.529-11.041,7.259,7.259,0,0,1,.579.7l-12.562-22.9-.027.007a7.172,7.172,0,0,0-9.217-3.47c-.039.02-.077.036-.116.056A87.8,87.8,0,0,1,384.19,711.6a74.386,74.386,0,0,1-21.606,3.076q-13.031,0-22.079-4.308A28.126,28.126,0,0,1,327,697.147h96.038c.013,0,.025,0,.037,0a7.213,7.213,0,0,0,7.213-7.213,7.226,7.226,0,0,1-.131,1.3c.4-1.945.755-4.012,1.056-6.211a102.148,102.148,0,0,0,.953-13.993A75.158,75.158,0,0,0,426.929,643.072ZM325.095,662.745q3.489-11.076,11.118-17.055a29.568,29.568,0,0,1,35.905.153q7.62,6.157,8.26,16.9Z" transform="translate(-102.368 -210.323)" fill="none" stroke="#2c2d66" stroke-width="1"/>
        </g>
      </g>
    </g>
  </g>
</svg>
