<svg xmlns="http://www.w3.org/2000/svg" xmlns:xlink="http://www.w3.org/1999/xlink" width="1920" height="546" viewBox="0 0 1920 546">
  <defs>
    <clipPath id="clip-path">
      <path id="Caminho_13265" data-name="Caminho 13265" d="M0,0H1920V546H0Z" transform="translate(0 200)" fill="#f6f6ff"/>
    </clipPath>
  </defs>
  <g id="Grupo_de_máscara_173" data-name="Grupo de máscara 173" transform="translate(0 -200)" opacity="0.1" clip-path="url(#clip-path)" style="mix-blend-mode: normal;isolation: isolate">
    <g id="Grupo_20641" data-name="Grupo 20641" transform="translate(-6.068 40.939)" style="mix-blend-mode: normal;isolation: isolate">
      <g id="Grupo_20634" data-name="Grupo 20634" transform="translate(1100.786 137.209)">
        <g id="Grupo_20633" data-name="Grupo 20633" transform="translate(0)">
          <g id="Grupo_20630" data-name="Grupo 20630" transform="translate(95.399 123.825)" opacity="0.75" style="mix-blend-mode: overlay;isolation: isolate">
            <path id="Caminho_13230" data-name="Caminho 13230" d="M499.876,460.758l9.288-50.163-33.442-3.716Z" transform="translate(-475.722 79.411)" fill="#5f47ff"/>
            <path id="Caminho_13231" data-name="Caminho 13231" d="M529.089,416.469l-3.716-50.162-29.728,14.86Z" transform="translate(-451.823 30.745)" fill="#5f47ff"/>
            <path id="Caminho_13232" data-name="Caminho 13232" d="M741.753,238.6l-69.36-19.7,39.411-33.1Z" transform="translate(-239.812 -185.79)" fill="#5f47ff"/>
          </g>
          <g id="Grupo_20631" data-name="Grupo 20631" transform="translate(219.918 154.672)">
            <path id="Caminho_13233" data-name="Caminho 13233" d="M547.829,588.981l-11.847,382.3L535,973.694l.924-.583-.037,1.179,1.6-2.164L858.495,769.792l2.73,1.59-1.438-2.243,372.237-165.705,1.166.143-.1-.275.7-.066-1.122-1.186-135.9-402.236-7.164,17.029-2.921-7.863-.849.748L765.238,328.919l-.721-.968L711.068,539.38,546.507,588.211Zm119.513,67.494,108.28-9.374-37.427,50.611Zm69.782,42.682-196.775,266.1L665.23,657.311Zm65.251-147.218-24.516,89.476L713.582,541.2Zm-22.281,92.956-.939-1.46,25.011-91.28L941.6,568.774l-26.577,63.2ZM914.242,633.84l-55.929,133L781.175,646.584ZM943.447,569l1.177.143-.167-.224,279.119,33.5L917.044,631.779Zm.8-1.9.075-.176.521.042.134-1.6,31.422-74.72,249.66,110.286Zm1.212-7.481,6.651-79.708,22.655,10.01Zm-2.237,5.31-.629,1.5L841.506,431.051l108.878,48.095ZM777.995,646.892l.218-.02v0l.968-.092,9.623,15.007,66.925,104.336-115.985-67.5Zm138.264-13.245,310.275-29.715L860.173,767.016Zm311.944-33.73L977.091,488.991l45.11-107.259ZM1022.955,379.932l66.544-158.24,140.025,377.026Zm-47.5,108.339-23.189-10.241L965.332,321.5l55.527,58.808ZM963.6,319.67l.086.09L950.543,477.265l-110.523-48.82Zm-125.21,110.2L940.539,566.649,804.662,550.34l32.773-119.625ZM802.869,550.127l-88.977-10.683L835,432.864Zm-25.646,93.6-.4,1.48L666.259,654.78l45.726-112.756ZM663.515,656.81l-125.6,309.7L549.586,590,663.1,656.071l.066.768Zm75.164,43.251,118.077,68.72-316.35,199.4Zm357.9-495.214,115.294,341.231L1090.509,219.286Zm-74.966,173.667L964.952,318.5l120.96-106.461,2.679,7.212Zm60.473-165.489L838.671,427.253,766.351,330.4ZM836.511,427.341l-.658,2.389L713.377,537.523l51.953-205.5ZM710.283,541.471,664.35,654.736,550.974,588.748Z" transform="translate(-529.134 -199.814)" fill="#5f47ff" style="mix-blend-mode: overlay;isolation: isolate"/>
            <path id="Caminho_13234" data-name="Caminho 13234" d="M611.872,365.775a10.661,10.661,0,1,1,14.53,4.032A10.663,10.663,0,0,1,611.872,365.775Z" transform="translate(-438.589 -19.829)" fill="#5f47ff"/>
            <path id="Caminho_13235" data-name="Caminho 13235" d="M654.7,368.22a8.291,8.291,0,1,1,11.3,3.13A8.292,8.292,0,0,1,654.7,368.22Z" transform="translate(-386.847 -12.655)" fill="#5f47ff"/>
            <path id="Caminho_13236" data-name="Caminho 13236" d="M669.4,316.6a11.055,11.055,0,1,1,15.067,4.175A11.052,11.052,0,0,1,669.4,316.6Z" transform="translate(-369.641 -79.52)" fill="#5f47ff"/>
            <path id="Caminho_13237" data-name="Caminho 13237" d="M538.42,391.594a13.6,13.6,0,1,1,18.537,5.145A13.6,13.6,0,0,1,538.42,391.594Z" transform="translate(-527.153 5.876)" fill="#5f47ff"/>
            <path id="Caminho_13238" data-name="Caminho 13238" d="M636.835,269.694a11.033,11.033,0,1,1,15.038,4.17A11.028,11.028,0,0,1,636.835,269.694Z" transform="translate(-408.703 -135.747)" fill="#5f47ff"/>
            <path id="Caminho_13239" data-name="Caminho 13239" d="M641.728,413.313a11.034,11.034,0,1,1,15.04,4.172A11.032,11.032,0,0,1,641.728,413.313Z" transform="translate(-402.83 36.526)" fill="#5f47ff"/>
            <path id="Caminho_13240" data-name="Caminho 13240" d="M727.489,263.226a9.481,9.481,0,1,1,12.922,3.587A9.484,9.484,0,0,1,727.489,263.226Z" transform="translate(-299.718 -140.724)" fill="#5f47ff"/>
            <path id="Caminho_13241" data-name="Caminho 13241" d="M533.566,560.034a9.481,9.481,0,1,1,12.916,3.579A9.484,9.484,0,0,1,533.566,560.034Z" transform="translate(-532.334 215.298)" fill="#5f47ff"/>
            <path id="Caminho_13242" data-name="Caminho 13242" d="M717.914,375.022A7.9,7.9,0,1,1,728.678,378,7.9,7.9,0,0,1,717.914,375.022Z" transform="translate(-310.955 -3.79)" fill="#5f47ff"/>
          </g>
          <g id="Grupo_20632" data-name="Grupo 20632" style="mix-blend-mode: overlay;isolation: isolate">
            <path id="Caminho_13244" data-name="Caminho 13244" d="M686.354,193.965l-69.9,2.688L699.793,234.3Zm-1.564,2.266,11.327,33.989-70.244-31.726Z" transform="translate(-211.507 -52.158)" fill="#5f47ff"/>
            <path id="Caminho_13245" data-name="Caminho 13245" d="M627.817,327.176,587.81,339.485l21.1,17.585Zm-35.481,13.217,30.444-9.366L608.4,353.773Z" transform="translate(-245.871 107.631)" fill="#5f47ff"/>
            <path id="Caminho_13246" data-name="Caminho 13246" d="M501.915,379.9l-69.566,66.872,34.444,27.692Zm-5.406,8.253L465.8,470.84l-30.125-24.217Z" transform="translate(-432.349 170.878)" fill="#5f47ff"/>
          </g>
        </g>
      </g>
      <g id="Grupo_20639" data-name="Grupo 20639" transform="translate(-183.223 123.06)">
        <g id="Grupo_20638" data-name="Grupo 20638">
          <g id="Grupo_20635" data-name="Grupo 20635" transform="translate(270.821 95.401)" opacity="0.75" style="mix-blend-mode: overlay;isolation: isolate">
            <path id="Caminho_13247" data-name="Caminho 13247" d="M39.9,190.587l50.163,9.288,3.716-33.442Z" transform="translate(-39.904 -166.434)" fill="#5f47ff"/>
            <path id="Caminho_13248" data-name="Caminho 13248" d="M82.166,219.8l50.161-3.716-14.86-29.728Z" transform="translate(10.789 -142.535)" fill="#5f47ff"/>
            <path id="Caminho_13249" data-name="Caminho 13249" d="M261.481,432.463l19.7-69.358,33.1,39.411Z" transform="translate(225.88 69.478)" fill="#5f47ff"/>
          </g>
          <g id="Grupo_20636" data-name="Grupo 20636" transform="translate(0 219.92)">
            <path id="Caminho_13250" data-name="Caminho 13250" d="M304.661,238.541l-382.3-11.847-2.415-.981.585.924-1.179-.037,2.162,1.6L123.85,549.209l-1.588,2.727L124.5,550.5l165.7,372.237-.143,1.166.275-.095.068.7,1.186-1.122,402.237-135.9L676.8,780.317l7.863-2.921-.748-.849-119.19-320.6.966-.724L354.262,401.782,305.431,237.219ZM237.169,358.054l9.372,108.282-50.609-37.429Zm-42.684,69.782L-71.619,231.06,236.333,355.944ZM341.7,493.086,252.227,468.57l100.212-64.276Zm-92.956-22.281,1.46-.937,91.28,25.011L324.87,632.318l-63.2-26.579ZM259.8,604.954l-133-55.929,120.256-77.137Zm64.842,29.207-.141,1.177.222-.167-33.5,279.116L261.863,607.758Zm1.9.8.176.075-.042.523,1.6.132L403,667.112,292.718,916.772Zm7.483,1.212,79.706,6.651-10.01,22.655Zm-5.312-2.237-1.5-.629L462.591,532.22,414.5,641.1ZM246.75,468.709l.02.218h.007l.09.966-15.005,9.623L127.523,546.442l67.5-115.985ZM260,606.973l29.713,310.273L126.625,550.885Zm33.727,311.944L404.651,667.8,511.91,712.915Zm219.987-205.25,158.238,66.544L294.924,920.237Zm-108.342-47.5,10.243-23.189,156.529,13.063-58.809,55.525Zm168.6-11.853-.09.086L416.376,641.254,465.2,530.733Zm-110.2-125.21L326.993,631.253,343.3,495.374l119.623,32.773ZM343.515,493.581,354.2,404.6,460.78,525.709Zm-93.6-25.646-1.48-.4-9.575-110.559L351.618,402.7ZM236.832,354.226l-309.7-125.6L303.64,240.3l-66.069,113.51-.765.068Zm-43.251,75.166L124.861,547.469l-199.4-316.352ZM688.8,787.293,347.565,902.588,674.358,781.221ZM515.13,712.33l60.016-56.666L681.61,776.624,674.4,779.3ZM680.618,772.8,466.389,529.383l96.849-72.32ZM466.3,527.223l-2.389-.658L356.121,404.087l205.5,51.957ZM352.17,400.995l-113.262-45.93L304.9,241.686Z" transform="translate(86.315 -219.846)" fill="#5f47ff" style="mix-blend-mode: overlay;isolation: isolate"/>
            <path id="Caminho_13251" data-name="Caminho 13251" d="M117.137,302.583a10.661,10.661,0,1,1-4.032,14.53A10.663,10.663,0,0,1,117.137,302.583Z" transform="translate(317.062 -129.299)" fill="#5f47ff"/>
            <path id="Caminho_13252" data-name="Caminho 13252" d="M112.1,345.412a8.29,8.29,0,1,1-3.13,11.3A8.29,8.29,0,0,1,112.1,345.412Z" transform="translate(312.475 -77.558)" fill="#5f47ff"/>
            <path id="Caminho_13253" data-name="Caminho 13253" d="M166.738,360.112a11.054,11.054,0,1,1-4.177,15.067A11.052,11.052,0,0,1,166.738,360.112Z" transform="translate(376.326 -60.352)" fill="#5f47ff"/>
            <path id="Caminho_13254" data-name="Caminho 13254" d="M94.529,229.132a13.6,13.6,0,1,1-5.147,18.538A13.6,13.6,0,0,1,94.529,229.132Z" transform="translate(288.146 -217.864)" fill="#5f47ff"/>
            <path id="Caminho_13255" data-name="Caminho 13255" d="M213.624,327.548a11.033,11.033,0,1,1-4.172,15.036A11.028,11.028,0,0,1,213.624,327.548Z" transform="translate(432.575 -99.413)" fill="#5f47ff"/>
            <path id="Caminho_13256" data-name="Caminho 13256" d="M70,332.44a11.036,11.036,0,1,1-4.17,15.04A11.031,11.031,0,0,1,70,332.44Z" transform="translate(260.301 -93.541)" fill="#5f47ff"/>
            <path id="Caminho_13257" data-name="Caminho 13257" d="M218.4,418.2a9.481,9.481,0,1,1-3.587,12.922A9.482,9.482,0,0,1,218.4,418.2Z" transform="translate(439.245 9.572)" fill="#5f47ff"/>
            <path id="Caminho_13258" data-name="Caminho 13258" d="M-78.412,224.276a9.49,9.49,0,0,1,12.927,3.581,9.487,9.487,0,0,1-3.585,12.922,9.48,9.48,0,0,1-12.92-3.587A9.475,9.475,0,0,1-78.412,224.276Z" transform="translate(83.223 -223.045)" fill="#5f47ff"/>
            <path id="Caminho_13259" data-name="Caminho 13259" d="M104.871,408.626a7.9,7.9,0,1,1-2.983,10.767A7.9,7.9,0,0,1,104.871,408.626Z" transform="translate(304.04 -1.666)" fill="#5f47ff"/>
          </g>
          <g id="Grupo_20637" data-name="Grupo 20637" transform="translate(289.473)" style="mix-blend-mode: overlay;isolation: isolate">
            <path id="Caminho_13260" data-name="Caminho 13260" d="M341.654,454.269l-11.932-63.643-39.772,35.8Zm-13.371-59.387,10.362,55.269-44.9-24.184Z" transform="translate(241.378 197.89)" fill="#5f47ff"/>
            <path id="Caminho_13261" data-name="Caminho 13261" d="M217.274,328.962l-2.686-69.9L176.944,342.4Zm-2.263-1.564-33.989,11.323,31.726-70.242Z" transform="translate(105.826 40.079)" fill="#5f47ff"/>
            <path id="Caminho_13262" data-name="Caminho 13262" d="M160.4,318.528l-12.306-40-17.585,21.1Zm-13.217-35.48,9.366,30.446L133.81,299.106Z" transform="translate(50.131 63.42)" fill="#5f47ff"/>
          </g>
        </g>
      </g>
    </g>
  </g>
</svg>
