<svg id="Grupo_8148" data-name="Grupo 8148" xmlns="http://www.w3.org/2000/svg" width="130.046" height="23.652" viewBox="0 0 130.046 23.652">
  <path id="Caminho_8844" data-name="Caminho 8844" d="M3615.915-1144.028a11.791,11.791,0,0,1-11.905,11.835,11.739,11.739,0,0,1-11.754-11.837,11.71,11.71,0,0,1,11.826-11.814A11.772,11.772,0,0,1,3615.915-1144.028Zm-13.415-2.009c-.961,0-1.846.017-2.73-.008-.406-.012-.552.1-.549.531.019,2.366.008,4.731.009,7.1,0,.143.025.287.04.454,1.774,0,3.5.021,5.227-.012a6.608,6.608,0,0,0,1.728-.26,6.347,6.347,0,0,0,4.378-7.4,6.165,6.165,0,0,0-5.819-5.067c-1.29-.051-2.583-.007-3.875-.034-1.02-.021-2.076.2-3.068-.481,0,.8-.036,1.5.011,2.2a1.348,1.348,0,0,0,.885,1.242,3.65,3.65,0,0,0,1.175.211c1.409.025,2.819.005,4.228.015a3.316,3.316,0,0,1,.894.093,2.981,2.981,0,0,1,2.129,2.707,3.125,3.125,0,0,1-2.235,3.57,13.713,13.713,0,0,1-2.429.025Z" transform="translate(-3592.256 1155.844)" fill="#e7540e"/>
  <g id="Grupo_8125" data-name="Grupo 8125" transform="translate(30.125 5.428)">
    <g id="Grupo_8124" data-name="Grupo 8124">
      <path id="Caminho_8845" data-name="Caminho 8845" d="M3853.5-1099.693h-2.073c-.021-.306-.041-.591-.057-.822a7.422,7.422,0,0,1-1.717.909,3.438,3.438,0,0,1-4.188-3.2,5.393,5.393,0,0,1,.344-2.677,3.3,3.3,0,0,1,5.278-1.179,2.178,2.178,0,0,0,.287.208v-3.674h2.126Zm-5.909-3.842a2.031,2.031,0,0,0,1.875,2.185,2.012,2.012,0,0,0,1.942-2.176,1.971,1.971,0,0,0-1.9-2.137A1.975,1.975,0,0,0,3847.587-1103.535Z" transform="translate(-3845.429 1110.137)" fill="#3b3b3b"/>
      <path id="Caminho_8846" data-name="Caminho 8846" d="M4134.4-1083.609c.227,1.69,1.875,2.034,3.751.817l1.18,1.029c-1.347,1.984-4.83,1.989-6.32.008a4.115,4.115,0,0,1-.356-4.535,3.548,3.548,0,0,1,3.529-2.055,3.555,3.555,0,0,1,3.49,3.191c.068.484.081.975.126,1.545Zm-.042-1.331h3.232c-.1-1.038-.668-1.63-1.542-1.645C4135.11-1086.6,4134.5-1086.022,4134.362-1084.939Z" transform="translate(-4098.029 1090.95)" fill="#3b3b3b"/>
      <path id="Caminho_8847" data-name="Caminho 8847" d="M3932.153-1083.841h-5.3c.141,1.63,1.852,1.979,3.721.8.084.063.183.125.269.2.308.273.611.552.952.861a4,4,0,0,1-4.146,1.316,3.594,3.594,0,0,1-2.927-2.849,4.037,4.037,0,0,1,1.179-4.127,3.632,3.632,0,0,1,4.038-.681,3.743,3.743,0,0,1,2.242,3.495,6.339,6.339,0,0,1,0,.653C3932.18-1084.1,3932.168-1084.02,3932.153-1083.841Zm-2.138-1.356a1.583,1.583,0,0,0-1.645-1.652,1.563,1.563,0,0,0-1.55,1.652Z" transform="translate(-3915.159 1091.215)" fill="#3b3b3b"/>
      <path id="Caminho_8848" data-name="Caminho 8848" d="M4250.408-1087.27c.683,0,1.278.022,1.87-.009.35-.018.479.126.578.437.447,1.393.916,2.778,1.381,4.165.06.177.136.349.256.653.534-1.651,1.043-3.157,1.5-4.68.13-.435.306-.613.768-.577.526.042,1.059.01,1.649.01-.067.23-.1.4-.164.559q-1.384,3.688-2.775,7.374c-.077.2-.159.4-.252.6a2.709,2.709,0,0,1-4.209.992l.7-1.485a2.214,2.214,0,0,0,.708.226,1.525,1.525,0,0,0,.841-.271c.112-.091.067-.473-.013-.682-.854-2.232-1.729-4.456-2.6-6.683C4250.575-1086.819,4250.509-1087,4250.408-1087.27Z" transform="translate(-4202.221 1090.015)" fill="#3b3b3b"/>
      <path id="Caminho_8849" data-name="Caminho 8849" d="M4063.045-1087.267c.733,0,1.385-.024,2.033.019.14.009.328.24.386.407.488,1.4.951,2.8,1.423,4.207.05.146.111.288.2.529.544-1.609,1.069-3.115,1.556-4.635.13-.405.31-.571.746-.537.532.041,1.069.01,1.707.01l-3.033,7.777a1.368,1.368,0,0,1-.2.029c-.59-.014-1.309.169-1.734-.1-.4-.254-.49-.99-.7-1.521q-1.106-2.812-2.2-5.63C4063.177-1086.861,4063.132-1087.011,4063.045-1087.267Z" transform="translate(-4037.152 1090.012)" fill="#3b3b3b"/>
      <path id="Caminho_8850" data-name="Caminho 8850" d="M4003.159-1099.785h-2.12v-10.441h2.12Z" transform="translate(-3982.523 1110.226)" fill="#3b3b3b"/>
      <path id="Caminho_8851" data-name="Caminho 8851" d="M4583.536-1080.47l.6.551a3.818,3.818,0,0,1-4.1,1.277,3.716,3.716,0,0,1-2.625-3.194,3.9,3.9,0,0,1,2.254-4.23,3.48,3.48,0,0,1,4.756,3.24c.012.254,0,.509,0,.834h-5.895C4578.751-1079.443,4581.013-1078.783,4583.536-1080.47Zm-.322-2.356a2.352,2.352,0,0,0-2.174-2.558,2.51,2.51,0,0,0-2.488,2.558Z" transform="translate(-4490.293 1089.164)" fill="#3b3b3b"/>
      <path id="Caminho_8852" data-name="Caminho 8852" d="M4397.371-1081.812h-5.911a2.625,2.625,0,0,0,1.445,2.271c1.09.559,2.093.338,3.57-.761l.63.577a3.833,3.833,0,0,1-4.3,1.189,3.684,3.684,0,0,1-2.466-3.5,3.734,3.734,0,0,1,2.754-3.994,3.46,3.46,0,0,1,4.278,3.344C4397.385-1082.429,4397.371-1082.172,4397.371-1081.812Zm-1.159-.834a2.412,2.412,0,0,0-2.334-2.56,2.528,2.528,0,0,0-2.373,2.56Z" transform="translate(-4325.497 1088.986)" fill="#3b3b3b"/>
      <path id="Caminho_8853" data-name="Caminho 8853" d="M4212.546-1087.02c-.234.043-.447.081-.66.122a2.041,2.041,0,0,0-1.7,1.943c-.067.927-.044,1.861-.06,2.792,0,.234,0,.468,0,.741h-2.155v-7.638h2.113q.031.586.067,1.261a6.067,6.067,0,0,1,.986-1.055,6.483,6.483,0,0,1,1.409-.517Z" transform="translate(-4164.833 1091.853)" fill="#3b3b3b"/>
      <path id="Caminho_8854" data-name="Caminho 8854" d="M4463.943-1086.036h1.033v1.184c.165-.153.234-.2.289-.269a2.989,2.989,0,0,1,3.421-.924,2.721,2.721,0,0,1,1.748,2.763c.007,1.523,0,3.047,0,4.612h-1.071c0-1.207,0-2.391,0-3.575a8.253,8.253,0,0,0-.063-1.184,1.853,1.853,0,0,0-1.969-1.805,2.061,2.061,0,0,0-2.24,1.772,20.124,20.124,0,0,0-.088,2.43c-.012.77,0,1.54,0,2.357h-1.055Z" transform="translate(-4390.348 1089.099)" fill="#3b3b3b"/>
      <path id="Caminho_8855" data-name="Caminho 8855" d="M4331.759-1084.814l-.706.739c-1.56-1.353-3.038-1.452-4.158-.3a3.1,3.1,0,0,0-.03,4.156c1.129,1.216,2.62,1.152,4.294-.217l.621.582a3.768,3.768,0,0,1-5.317.71,3.992,3.992,0,0,1-.483-5.795A3.88,3.88,0,0,1,4331.759-1084.814Z" transform="translate(-4267.897 1089.03)" fill="#3b3b3b"/>
      <path id="Caminho_8856" data-name="Caminho 8856" d="M4037.8-1079.105h-2.078v-7.652h2.078Z" transform="translate(-4013.078 1089.549)" fill="#3b3b3b"/>
      <path id="Caminho_8857" data-name="Caminho 8857" d="M4535.357-1094.686c.053,1.041.036,1.061-.958,1.185a1.94,1.94,0,0,1-2.458-2.161c0-1.406,0-2.812-.008-4.219a1.1,1.1,0,0,0-.043-.179h-.981v-.96l1-.069v-2.173H4533v2.194h2.364v.96h-2.349c0,.848,0,1.632,0,2.416,0,.594,0,1.188,0,1.782.006,1.179.661,1.687,1.816,1.4C4535-1094.546,4535.162-1094.618,4535.357-1094.686Z" transform="translate(-4449.345 1104.09)" fill="#3b3b3b"/>
      <path id="Caminho_8858" data-name="Caminho 8858" d="M4652.033-1078.2H4651v-7.377h1.005v1.659a3.6,3.6,0,0,1,3.063-1.82v1.135a7.888,7.888,0,0,0-.812.121,2.828,2.828,0,0,0-2.116,2.509c-.1.961-.08,1.934-.109,2.9C4652.026-1078.8,4652.033-1078.524,4652.033-1078.2Z" transform="translate(-4555.149 1088.65)" fill="#3b3b3b"/>
      <path id="Caminho_8859" data-name="Caminho 8859" d="M4037.147-1110.147v1.833H4034.9v-1.833Z" transform="translate(-4012.357 1110.156)" fill="#3b3b3b"/>
    </g>
  </g>
</svg>
