<svg id="Grupo_15" data-name="Grupo 15" xmlns="http://www.w3.org/2000/svg" width="42.941" height="42.865" viewBox="0 0 42.941 42.865">
  <path id="Caminho_15" data-name="Caminho 15" d="M321.675,1725.077c0,14.718-6.727,20.74-21.47,20.74s-21.471-6.022-21.471-20.74,6.727-22.124,21.471-22.124,21.47,7.406,21.47,22.124" transform="translate(-278.734 -1702.953)" fill="#5f47ff"/>
  <path id="Caminho_16" data-name="Caminho 16" d="M311.008,1742.6v-12.186h4.1l.614-4.751h-4.712v-3.032c0-1.375.382-2.312,2.358-2.312l2.52,0v-4.248a33.914,33.914,0,0,0-3.671-.187c-3.633,0-6.12,2.213-6.12,6.278v3.5h-4.108v4.751h4.108V1742.6Z" transform="translate(-287.465 -1707.807)" fill="#fff"/>
</svg>
