<svg id="Grupo_14" data-name="Grupo 14" xmlns="http://www.w3.org/2000/svg" width="42.865" height="42.865" viewBox="0 0 42.865 42.865">
  <path id="Caminho_11" data-name="Caminho 11" d="M233.538,1725.077c0,14.719-6.715,20.74-21.432,20.74s-21.433-6.022-21.433-20.74,6.715-22.124,21.433-22.124,21.432,7.407,21.432,22.124" transform="translate(-190.673 -1702.953)" fill="#5f47ff"/>
  <g id="Grupo_13" data-name="Grupo 13" transform="translate(7.572 7.572)">
    <path id="Caminho_12" data-name="Caminho 12" d="M216.658,1717.575c3.7,0,4.139.014,5.6.081a7.65,7.65,0,0,1,2.574.477,4.588,4.588,0,0,1,2.63,2.63,7.672,7.672,0,0,1,.477,2.573c.067,1.462.081,1.9.081,5.6s-.014,4.139-.081,5.6a7.673,7.673,0,0,1-.477,2.574,4.594,4.594,0,0,1-2.63,2.63,7.655,7.655,0,0,1-2.574.477c-1.461.066-1.9.08-5.6.08s-4.139-.014-5.6-.08a7.662,7.662,0,0,1-2.574-.477,4.6,4.6,0,0,1-2.63-2.63,7.678,7.678,0,0,1-.477-2.574c-.067-1.461-.081-1.9-.081-5.6s.014-4.139.081-5.6a7.677,7.677,0,0,1,.477-2.573,4.593,4.593,0,0,1,2.63-2.63,7.658,7.658,0,0,1,2.574-.477c1.462-.067,1.9-.081,5.6-.081m0-2.5c-3.764,0-4.235.016-5.714.084a10.168,10.168,0,0,0-3.364.645,7.086,7.086,0,0,0-4.053,4.053,10.171,10.171,0,0,0-.645,3.364c-.067,1.479-.084,1.95-.084,5.715s.016,4.236.084,5.714a10.164,10.164,0,0,0,.645,3.364,7.085,7.085,0,0,0,4.053,4.054,10.168,10.168,0,0,0,3.364.645c1.479.067,1.95.083,5.714.083s4.236-.016,5.715-.083a10.167,10.167,0,0,0,3.364-.645,7.084,7.084,0,0,0,4.054-4.054,10.15,10.15,0,0,0,.644-3.364c.067-1.478.084-1.95.084-5.714s-.017-4.236-.084-5.715a10.157,10.157,0,0,0-.644-3.364,7.085,7.085,0,0,0-4.054-4.053,10.167,10.167,0,0,0-3.364-.645c-1.479-.067-1.95-.084-5.715-.084" transform="translate(-202.798 -1715.078)" fill="#fff"/>
    <path id="Caminho_13" data-name="Caminho 13" d="M220.712,1725.875a7.117,7.117,0,1,0,7.118,7.117,7.117,7.117,0,0,0-7.118-7.117m0,11.737a4.62,4.62,0,1,1,4.62-4.62,4.621,4.621,0,0,1-4.62,4.62" transform="translate(-206.852 -1719.132)" fill="#fff"/>
    <path id="Caminho_14" data-name="Caminho 14" d="M237.5,1724.425a1.663,1.663,0,1,1-1.663-1.664,1.663,1.663,0,0,1,1.663,1.664" transform="translate(-214.579 -1717.963)" fill="#fff"/>
  </g>
</svg>
