<svg id="Grupo_20" data-name="Grupo 20" xmlns="http://www.w3.org/2000/svg" width="42.941" height="42.865" viewBox="0 0 42.941 42.865">
  <path id="Caminho_17" data-name="Caminho 17" d="M409.592,1725.077c0,14.718-6.727,20.74-21.47,20.74s-21.471-6.022-21.471-20.74,6.727-22.124,21.471-22.124,21.47,7.406,21.47,22.124" transform="translate(-366.651 -1702.953)" fill="#5f47ff"/>
  <g id="Grupo_19" data-name="Grupo 19" transform="translate(9.844 10.328)">
    <g id="Grupo_17" data-name="Grupo 17" transform="translate(0.325 6.883)">
      <g id="Grupo_16" data-name="Grupo 16">
        <path id="Caminho_18" data-name="Caminho 18" d="M405.862,1737.25v8.22a.368.368,0,0,1-.368.368h-4.243a.368.368,0,0,1-.368-.368v-7.644c0-2.012-.719-3.385-2.522-3.385a2.724,2.724,0,0,0-2.554,1.82,3.42,3.42,0,0,0-.165,1.214v7.995a.368.368,0,0,1-.367.368h-4.242a.366.366,0,0,1-.367-.368c.009-2.035.052-11.912.009-14.234a.365.365,0,0,1,.367-.372h4.234a.368.368,0,0,1,.368.368v1.754c-.01.017-.024.033-.033.049h.033v-.049a4.944,4.944,0,0,1,4.487-2.474c3.276,0,5.731,2.14,5.731,6.739Zm-22.56,8.588h4.242a.368.368,0,0,0,.368-.368V1731.23a.368.368,0,0,0-.368-.368H383.3a.368.368,0,0,0-.368.368v14.239A.368.368,0,0,0,383.3,1745.837Z" transform="translate(-382.934 -1730.511)" fill="#fff"/>
      </g>
    </g>
    <g id="Grupo_18" data-name="Grupo 18">
      <ellipse id="Elipse_5" data-name="Elipse 5" cx="2.665" cy="2.665" rx="2.665" ry="2.665" fill="#fff"/>
    </g>
  </g>
</svg>
